<svg width="24" height="24" viewBox="0 0 24 24" fill="none" xmlns="http://www.w3.org/2000/svg">
<g clip-path="url(#clip0_36_829)">
<path fill-rule="evenodd" clip-rule="evenodd" d="M23.28 15C23.2244 14.4032 23.0546 13.8227 22.78 13.29C22.4911 12.7588 22.1082 12.2845 21.65 11.89C21.0647 11.4597 20.3733 11.197 19.65 11.13C19.4827 10.4882 19.1815 9.88909 18.7661 9.37203C18.3507 8.85498 17.8307 8.43169 17.24 8.12998C16.2252 7.58273 15.0559 7.39254 13.92 7.58999C13.2656 7.7029 12.6437 7.95739 12.0979 8.33567C11.5521 8.71394 11.0955 9.20687 10.76 9.77998C10.7147 9.84752 10.6969 9.92975 10.71 10.01C9.91808 9.66978 9.06159 9.50598 8.20001 9.52998C8.17676 9.01921 8.19683 8.50737 8.26001 7.99998C8.37973 7.28993 8.63797 6.61036 9.02001 5.99999C9.25412 5.61277 9.55951 5.27345 9.92001 4.99999C10.4688 4.59173 11.1002 4.30844 11.77 4.16999C12.3195 4.03532 12.894 4.04075 13.4409 4.18576C13.9877 4.33077 14.4894 4.61074 14.9 4.99999C15.1496 5.24303 15.3649 5.51889 15.54 5.81999C15.7067 6.11136 15.8217 6.42939 15.88 6.75999C15.88 6.86077 15.92 6.95742 15.9913 7.02869C16.0626 7.09995 16.1592 7.13999 16.26 7.13999C16.3608 7.13999 16.4574 7.09995 16.5287 7.02869C16.6 6.95742 16.64 6.86077 16.64 6.75999C16.6119 6.31511 16.4964 5.88015 16.3 5.47999C16.118 5.08838 15.8861 4.722 15.61 4.38999C15.114 3.82057 14.4764 3.39219 13.7618 3.14812C13.0471 2.90405 12.2807 2.85295 11.54 2.99999C10.8029 3.12112 10.1023 3.40586 9.48974 3.8333C8.87714 4.26073 8.3681 4.81999 8.00001 5.46999C7.69926 6.07678 7.49995 6.72875 7.41001 7.39999C7.32992 8.12444 7.32992 8.85553 7.41001 9.57998C6.83248 9.63702 6.26644 9.77853 5.73001 9.99998C5.66376 10.0491 5.59351 10.0926 5.52001 10.13C5.57001 7.12998 6.15001 4.95999 7.12001 3.55999C7.57471 2.89611 8.177 2.34658 8.87967 1.95448C9.58233 1.56237 10.3663 1.33835 11.17 1.29999C12.7031 1.06586 14.2711 1.27401 15.69 1.89999C16.3869 2.22942 17.0112 2.69447 17.5263 3.26795C18.0414 3.84143 18.437 4.51184 18.69 5.23998C18.8829 5.76419 19.0203 6.30715 19.1 6.85999C19.1902 7.42258 19.2437 7.99045 19.26 8.55999C19.26 8.66171 19.2997 8.75942 19.3707 8.83228C19.4417 8.90514 19.5383 8.94738 19.64 8.94998C19.7308 8.9457 19.817 8.90905 19.883 8.84667C19.949 8.7843 19.9906 8.70033 20 8.60998C20.0126 8.00196 19.9825 7.3938 19.91 6.78999C19.838 6.18125 19.704 5.58147 19.51 4.99999C19.2649 4.12945 18.8474 3.31705 18.2822 2.61101C17.7171 1.90498 17.0158 1.31972 16.22 0.889985C14.5983 0.109812 12.7837 -0.178713 11 0.0599851C10.02 0.139075 9.072 0.446088 8.23168 0.956534C7.39135 1.46698 6.68193 2.16674 6.16001 2.99999C5.16001 4.63999 4.60001 7.12998 4.82001 10.67C4.43904 10.952 4.10203 11.289 3.82001 11.67C3.33519 12.411 3.05251 13.266 3.00001 14.15C2.98866 14.6069 3.03231 15.0635 3.13001 15.51C2.37435 15.7627 1.72605 16.2631 1.29001 16.93C0.806275 17.7419 0.609075 18.6927 0.730013 19.63C0.860013 21.28 3.00001 22.68 6.00001 23.4C7.87703 23.8207 9.79655 24.022 11.72 24C13.0035 23.9933 14.2843 23.8829 15.55 23.67C19.82 23 23 21.05 22.15 18C22.5657 17.6277 22.8855 17.1606 23.0822 16.6383C23.2789 16.116 23.3468 15.554 23.28 15ZM21.8 17.2C21.7 17 21.66 16.81 21.54 16.61C21.5152 16.5652 21.4815 16.5259 21.4411 16.4945C21.4007 16.4631 21.3543 16.4401 21.3048 16.4271C21.2553 16.414 21.2037 16.411 21.153 16.4184C21.1024 16.4258 21.0537 16.4433 21.01 16.47C20.9243 16.522 20.8619 16.6051 20.8359 16.7019C20.8098 16.7988 20.822 16.9019 20.87 16.99C22.69 20.31 19.5 21.93 15.39 22.49C14.1833 22.6494 12.9672 22.7263 11.75 22.72C9.92027 22.7243 8.09463 22.5468 6.30001 22.19C5.12084 21.9739 3.98338 21.5723 2.93001 21C2.61503 20.8619 2.33536 20.6543 2.11196 20.3928C1.88857 20.1313 1.72722 19.8227 1.64001 19.49C1.52449 18.7532 1.6508 17.9989 2.00001 17.34C2.28231 16.8384 2.71647 16.4392 3.24001 16.2C3.37601 16.7297 3.55321 17.2479 3.77001 17.75C3.8034 17.8333 3.86841 17.9001 3.95084 17.9357C4.03328 17.9713 4.12645 17.9728 4.21001 17.94C4.29123 17.9065 4.35689 17.8437 4.39394 17.764C4.43099 17.6844 4.43673 17.5937 4.41001 17.51C4.11618 16.6306 3.97745 15.7069 4.00001 14.78C4.02828 13.9144 4.32536 13.0791 4.85001 12.39C5.23434 11.8756 5.73913 11.4636 6.32001 11.19C6.91765 10.8895 7.56476 10.6998 8.23001 10.63C8.89965 10.5341 9.58226 10.5895 10.2277 10.7919C10.8732 10.9944 11.4651 11.3388 11.96 11.8C11.9953 11.8357 12.0374 11.864 12.0837 11.8833C12.1301 11.9026 12.1798 11.9126 12.23 11.9126C12.2802 11.9126 12.3299 11.9026 12.3763 11.8833C12.4226 11.864 12.4647 11.8357 12.5 11.8C12.5369 11.7654 12.5664 11.7236 12.5865 11.6771C12.6066 11.6307 12.617 11.5806 12.617 11.53C12.617 11.4794 12.6066 11.4293 12.5865 11.3829C12.5664 11.3364 12.5369 11.2946 12.5 11.26C12.1196 10.814 11.6581 10.4441 11.14 10.17C11.194 10.1533 11.2424 10.1222 11.28 10.08C11.6298 9.68001 12.0558 9.35374 12.5332 9.12023C13.0105 8.88672 13.5295 8.75066 14.06 8.71999C14.5038 8.68669 14.95 8.70346 15.39 8.76999C15.8329 8.83795 16.266 8.95881 16.68 9.12998C17.6168 9.50421 18.3776 10.2186 18.81 11.13C18.2429 11.1932 17.7141 11.4471 17.31 11.85C17.2789 11.8807 17.2541 11.9173 17.2373 11.9576C17.2204 11.998 17.2117 12.0413 17.2117 12.085C17.2117 12.1287 17.2204 12.172 17.2373 12.2124C17.2541 12.2527 17.2789 12.2893 17.31 12.32C17.375 12.3812 17.4608 12.4152 17.55 12.4152C17.6392 12.4152 17.7251 12.3812 17.79 12.32C18.0185 12.1555 18.2791 12.041 18.5548 11.9842C18.8305 11.9273 19.1151 11.9293 19.39 11.99C19.9436 12.0923 20.4529 12.3609 20.85 12.76C21.2665 13.1225 21.6065 13.5644 21.85 14.06C22.0111 14.3771 22.132 14.713 22.21 15.06C22.2935 15.4256 22.3001 15.8046 22.2296 16.173C22.159 16.5414 22.0127 16.8911 21.8 17.2Z" fill="black"/>
<path fill-rule="evenodd" clip-rule="evenodd" d="M13.3998 13.6099C12.9221 13.3386 12.379 13.2037 11.8298 13.2199C11.6149 13.2405 11.4033 13.2875 11.1998 13.3599C11.0053 13.4378 10.8207 13.5385 10.6498 13.6599C10.4661 13.7904 10.3041 13.949 10.1698 14.1299C10.0336 14.3035 9.92253 14.4954 9.83983 14.6999C9.64052 15.0673 9.58438 15.4954 9.68226 15.9017C9.78014 16.308 10.0251 16.6637 10.3698 16.8999C10.78 17.1296 11.258 17.2075 11.7198 17.1199C11.606 17.4756 11.5223 17.8402 11.4698 18.2099C11.4499 18.4328 11.4499 18.657 11.4698 18.8799C11.4745 19.1044 11.4945 19.3282 11.5298 19.5499C11.6208 20.0724 11.7512 20.5872 11.9198 21.0899C11.9261 21.1406 11.9426 21.1894 11.9681 21.2335C11.9937 21.2777 12.0279 21.3162 12.0687 21.3468C12.1095 21.3775 12.1561 21.3996 12.2056 21.4119C12.2551 21.4241 12.3066 21.4263 12.357 21.4182C12.4073 21.4102 12.4556 21.392 12.4988 21.3649C12.542 21.3378 12.5793 21.3023 12.6085 21.2605C12.6377 21.2186 12.6582 21.1714 12.6687 21.1214C12.6793 21.0715 12.6796 21.02 12.6698 20.9699C12.6698 20.4799 12.6698 19.9699 12.7398 19.4799V18.8499V18.2199C12.7398 18.0099 12.6498 17.5599 12.6098 17.2199C12.8765 17.2298 13.1417 17.1759 13.3834 17.0629C13.6251 16.9499 13.8364 16.7809 13.9998 16.5699C14.1852 16.3511 14.3213 16.095 14.3989 15.8189C14.4766 15.5428 14.4939 15.2533 14.4498 14.9699C14.3812 14.6818 14.2521 14.4115 14.0711 14.177C13.89 13.9426 13.6612 13.7493 13.3998 13.6099ZM13.2898 15.9999C12.7398 16.8399 11.1498 16.3199 10.9298 16.1299C10.7098 15.9399 10.6798 15.5799 10.9298 15.1899C10.9941 15.0836 11.0678 14.9832 11.1498 14.8899C11.2271 14.8061 11.3144 14.7323 11.4098 14.6699C11.5635 14.5536 11.7476 14.4841 11.9398 14.4699C12.2541 14.4586 12.5664 14.5238 12.8498 14.6599C13.1098 14.7899 13.3698 14.9299 13.4398 15.1899C13.4738 15.3279 13.478 15.4714 13.4521 15.6111C13.4263 15.7508 13.3709 15.8833 13.2898 15.9999Z" fill="black"/>
</g>
<defs>
<clipPath id="clip0_36_829">
<rect width="24" height="24" fill="white"/>
</clipPath>
</defs>
</svg>
