<svg width="24" height="24" viewBox="0 0 24 24" fill="none" xmlns="http://www.w3.org/2000/svg">
<g clip-path="url(#clip0_36_1221)">
<path d="M22.6699 15.54C22.3336 14.0941 21.704 12.7326 20.8199 11.54C20.7766 11.4811 20.7133 11.4399 20.6419 11.4243C20.5704 11.4087 20.4957 11.4198 20.4318 11.4554C20.368 11.491 20.3193 11.5488 20.295 11.6178C20.2707 11.6868 20.2724 11.7622 20.2999 11.83C20.6999 12.77 20.8799 13.7 21.5499 15.63C22.4599 18.24 22.4399 16.75 20.3299 16.4C15.0134 15.8738 9.66432 15.7568 4.32989 16.05C3.30233 16.2051 2.33529 16.6333 1.52989 17.29C1.89989 16.44 3.57989 13.17 3.88989 12.58C4.2523 11.741 4.78328 10.9853 5.44989 10.36C6.09989 9.97004 6.67989 9.93004 6.54989 9.50004C6.41989 9.07004 5.96989 9.31004 5.54989 9.45004C3.09989 10.32 1.22989 15.12 0.659892 17.65C0.289892 19.26 -0.260108 19.75 0.0898918 21.51C0.302686 22.1133 0.702739 22.6328 1.23165 22.9926C1.76056 23.3524 2.39064 23.5337 3.02989 23.51C3.02989 23.62 18.0899 24.37 21.1199 23.51C21.6712 23.3649 22.1902 23.1173 22.6499 22.78C23.1361 22.392 23.5579 21.9296 23.8999 21.41C24.3699 20.37 22.7299 15.77 22.6699 15.54ZM22.4699 21.29C22.0905 21.8672 21.503 22.2755 20.8299 22.43C18.1899 23.27 5.82989 22.94 3.06989 22.84C2.58282 22.8562 2.10243 22.7232 1.69313 22.4586C1.28383 22.1941 0.965179 21.8108 0.779892 21.36C0.349892 18.87 2.04989 17.17 4.43989 16.89C9.68047 16.7814 14.9229 16.9817 20.1399 17.49C20.5625 17.5478 20.9669 17.6987 21.3241 17.9318C21.6812 18.1649 21.9821 18.4745 22.2051 18.8381C22.428 19.2017 22.5674 19.6102 22.6132 20.0343C22.659 20.4583 22.6101 20.8872 22.4699 21.29Z" fill="black"/>
<path d="M4.79999 18.4401C4.21999 18.4401 4.17999 19.9701 4.41999 20.8601C4.41152 20.9089 4.41383 20.959 4.42676 21.0069C4.43969 21.0547 4.46293 21.0991 4.49484 21.1371C4.52676 21.175 4.56658 21.2055 4.61152 21.2264C4.65645 21.2473 4.70542 21.2582 4.75499 21.2582C4.80456 21.2582 4.85352 21.2473 4.89846 21.2264C4.9434 21.2055 4.98322 21.175 5.01513 21.1371C5.04705 21.0991 5.07029 21.0547 5.08322 21.0069C5.09615 20.959 5.09846 20.9089 5.08999 20.8601C5.50999 19.2701 4.99999 18.4501 4.79999 18.4401Z" fill="black"/>
<path d="M6.52007 18.21C6.48115 18.2087 6.44236 18.2152 6.40602 18.2291C6.36967 18.2431 6.33651 18.2643 6.30851 18.2913C6.28052 18.3184 6.25826 18.3508 6.24306 18.3867C6.22787 18.4225 6.22005 18.4611 6.22007 18.5C5.95007 19.25 5.75007 20.89 6.41007 20.89C7.07007 20.89 7.34007 18.22 6.52007 18.21Z" fill="black"/>
<path d="M8.57999 18.7C8.57999 18.6231 8.54944 18.5494 8.49505 18.495C8.44067 18.4406 8.36691 18.41 8.28999 18.41C7.74999 18.41 7.72999 19.77 7.96999 20.58C7.96152 20.6289 7.96383 20.679 7.97677 20.7268C7.9897 20.7747 8.01293 20.8191 8.04485 20.857C8.07676 20.895 8.11658 20.9255 8.16152 20.9464C8.20646 20.9673 8.25543 20.9781 8.30499 20.9781C8.35456 20.9781 8.40353 20.9673 8.44847 20.9464C8.4934 20.9255 8.53322 20.895 8.56514 20.857C8.59705 20.8191 8.62029 20.7747 8.63322 20.7268C8.64615 20.679 8.64846 20.6289 8.63999 20.58C8.99999 19.4 8.89999 19.56 8.57999 18.7Z" fill="black"/>
<path d="M11.9997 19.6401C11.9208 19.6538 11.8492 19.6949 11.7976 19.7562C11.7461 19.8175 11.7178 19.895 11.7178 19.9751C11.7178 20.0552 11.7461 20.1327 11.7976 20.194C11.8492 20.2553 11.9208 20.2964 11.9997 20.3101C13.6697 20.4501 13.3597 20.7801 15.5097 20.3101C15.5875 20.3075 15.6613 20.2748 15.7154 20.2188C15.7695 20.1628 15.7997 20.088 15.7997 20.0101C15.8297 19.3801 13.2297 19.3601 11.9997 19.6401Z" fill="black"/>
<path d="M17.69 18.84C17.4037 18.9432 17.1585 19.1363 16.991 19.3904C16.8235 19.6445 16.7428 19.946 16.7608 20.2498C16.7788 20.5536 16.8946 20.8434 17.0909 21.076C17.2872 21.3085 17.5535 21.4713 17.85 21.54C18.3456 21.6914 18.878 21.6703 19.36 21.48C21.18 20.67 19.26 18.16 17.69 18.84ZM19.32 20.5C19.32 20.59 19.17 20.6 19.06 20.63C18.23 20.84 17.27 19.97 18.32 19.55C19.08 19.25 19.47 20.17 19.32 20.5Z" fill="black"/>
<path d="M10.2601 9.45005C10.9901 9.78005 11.3201 9.45005 11.1701 9.15005C11.1701 9.08005 9.99006 8.86005 9.63006 8.29005C8.70006 6.78005 9.10006 5.76005 10.1101 5.29005C10.5274 5.09218 10.9979 5.036 11.4501 5.13005C11.6501 5.21005 11.8101 5.43005 12.1201 5.29005C12.1889 5.2601 12.2479 5.21139 12.2903 5.1495C12.3327 5.08761 12.3569 5.01503 12.3601 4.94005C12.3601 4.64005 12.1801 4.68005 12.1501 4.37005C12.089 3.99688 12.1395 3.614 12.2952 3.26942C12.4509 2.92485 12.7049 2.63392 13.0253 2.43313C13.3457 2.23234 13.7183 2.13063 14.0963 2.14076C14.4743 2.15088 14.8409 2.27239 15.1501 2.49005C15.3157 2.66661 15.4388 2.87867 15.5101 3.11005C15.5528 3.2115 15.6255 3.29747 15.7184 3.35645C15.8113 3.41543 15.9201 3.4446 16.0301 3.44005C16.4401 3.44005 16.5101 3.14005 16.7701 2.50005C17.7201 0.500048 20.5601 1.19005 21.2301 2.86005C21.6601 3.93005 21.0901 4.59005 20.4801 5.41005C19.8601 5.74005 20.4801 6.65005 21.0301 6.41005C21.2024 6.37144 21.3811 6.37166 21.5533 6.4107C21.7255 6.44974 21.8869 6.52662 22.0257 6.63576C22.1646 6.7449 22.2773 6.88357 22.3559 7.04171C22.4345 7.19985 22.4769 7.37349 22.4801 7.55005C22.5077 7.7455 22.4768 7.94475 22.3914 8.1227C22.306 8.30065 22.1698 8.44935 22.0001 8.55005C19.6901 10 18.0001 9.51005 14.8001 9.40005C13.9573 9.40819 13.117 9.30735 12.3001 9.10005C12.2238 9.07345 12.1407 9.07482 12.0654 9.10394C11.9901 9.13305 11.9276 9.188 11.8891 9.25895C11.8506 9.32991 11.8387 9.41224 11.8553 9.49122C11.872 9.5702 11.9162 9.64068 11.9801 9.69005C12.8784 9.97937 13.8162 10.1278 14.7601 10.13C17.9701 10.34 19.8901 10.93 22.5701 9.26005C24.2601 8.26005 23.5201 5.81005 21.9401 5.26005C22.17 4.9623 22.3398 4.62266 22.4401 4.26005C23.2201 0.590048 18.0001 -1.49995 16.0001 1.72005C15.5616 1.34753 15.0213 1.11541 14.4492 1.05378C13.8772 0.992162 13.2998 1.10389 12.7921 1.37448C12.2843 1.64506 11.8696 2.062 11.6018 2.5712C11.334 3.0804 11.2254 3.65835 11.2901 4.23005C9.17006 4.17005 7.39006 6.07005 9.09006 8.64005C9.42297 8.98439 9.82056 9.25965 10.2601 9.45005Z" fill="black"/>
</g>
<defs>
<clipPath id="clip0_36_1221">
<rect width="24" height="24" fill="white"/>
</clipPath>
</defs>
</svg>
