<svg width="24" height="24" viewBox="0 0 24 24" fill="none" xmlns="http://www.w3.org/2000/svg">
<g clip-path="url(#clip0_36_635)">
<path fill-rule="evenodd" clip-rule="evenodd" d="M12.9401 16.22C12.8473 16.22 12.7583 16.2569 12.6926 16.3225C12.627 16.3882 12.5901 16.4772 12.5901 16.57C12.5901 16.6628 12.627 16.7519 12.6926 16.8175C12.7583 16.8831 12.8473 16.92 12.9401 16.92C14.5901 16.92 14.0301 19.22 12.7101 20C11.7901 20.54 10.6301 20 10.5701 18.59C10.5206 18.2392 10.5781 17.8816 10.7351 17.5641C10.8921 17.2465 11.1413 16.9837 11.4501 16.81C11.5193 16.7767 11.5737 16.7189 11.6028 16.6478C11.6318 16.5767 11.6334 16.4973 11.6072 16.4251C11.5811 16.3529 11.529 16.2929 11.4612 16.2569C11.3934 16.2208 11.3146 16.2113 11.2401 16.23C10.7657 16.4138 10.359 16.7386 10.0748 17.1605C9.7905 17.5824 9.6423 18.0813 9.65011 18.59C9.56897 19.05 9.6244 19.5237 9.80955 19.9525C9.9947 20.3814 10.3014 20.7465 10.6919 21.0029C11.0823 21.2593 11.5393 21.3957 12.0064 21.3952C12.4735 21.3947 12.9302 21.2573 13.3201 21C15.3001 19.73 15.6701 16.15 12.9401 16.22Z" fill="black"/>
<path fill-rule="evenodd" clip-rule="evenodd" d="M11.4099 12.64C10.5126 12.8069 9.64817 13.1176 8.8499 13.56C7.89733 14.2016 7.13692 15.0899 6.6499 16.13C6.6499 16.2122 6.68256 16.2911 6.7407 16.3492C6.79884 16.4073 6.87769 16.44 6.9599 16.44C7.2199 16.44 7.1899 16.25 7.3899 16.01C7.91935 15.4071 8.54852 14.8997 9.2499 14.51C11.6899 13.64 13.1699 13.16 15.9999 14.92C16.0755 14.9623 16.1642 14.975 16.2486 14.9557C16.3331 14.9364 16.4074 14.8864 16.4572 14.8155C16.5069 14.7446 16.5286 14.6577 16.5181 14.5717C16.5075 14.4857 16.4654 14.4067 16.3999 14.35C14.8899 13.22 13.3799 12.36 11.4099 12.64Z" fill="black"/>
<path fill-rule="evenodd" clip-rule="evenodd" d="M17.4099 9.57002C15.471 8.30274 13.1524 7.74782 10.8499 8.00002C9.51243 8.30179 8.21874 8.77222 6.99986 9.40002C5.86986 9.93002 3.69986 12.54 3.71986 13C3.71984 13.0403 3.72792 13.0801 3.74362 13.1172C3.75932 13.1542 3.78231 13.1878 3.81124 13.2158C3.84016 13.2438 3.87443 13.2656 3.91199 13.2801C3.94955 13.2946 3.98963 13.3014 4.02986 13.3C4.30986 13.3 4.23986 13.11 4.48986 12.78C5.30216 11.7844 6.28807 10.9442 7.39986 10.3C8.5531 9.79028 9.76099 9.41449 10.9999 9.18002C13.0459 8.97203 15.1069 9.39051 16.9099 10.38C19.5999 11.83 19.8599 13.16 20.3699 12.67C20.4346 12.6029 20.4708 12.5133 20.4708 12.42C20.4708 12.3268 20.4346 12.2371 20.3699 12.17C19.5217 11.1574 18.5235 10.2805 17.4099 9.57002Z" fill="black"/>
<path fill-rule="evenodd" clip-rule="evenodd" d="M23.9 8.58996C22.6614 7.13821 21.1998 5.89265 19.57 4.89996C17.9137 3.90145 16.0968 3.19769 14.2 2.81996C10.39 2.12996 8.29 3.11996 4.73 4.66996C3.16 5.36996 4.63275e-08 9.05996 4.63275e-08 9.72996C-2.23225e-05 9.77021 0.00805598 9.81006 0.0237539 9.84712C0.0394517 9.88419 0.0624481 9.91772 0.0913736 9.94571C0.120299 9.9737 0.154562 9.99559 0.192122 10.0101C0.229681 10.0245 0.26977 10.0313 0.31 10.03C0.62 10.03 0.47 9.86996 0.86 9.32996C2.0401 7.83322 3.47552 6.55692 5.1 5.55996C8.32 4.28996 10.61 3.35996 14 3.99996C15.7887 4.28266 17.5145 4.87485 19.1 5.74996C20.7021 6.63082 22.1509 7.76553 23.39 9.10996C23.459 9.17759 23.552 9.21506 23.6485 9.21412C23.7451 9.21318 23.8374 9.17392 23.905 9.10496C23.9726 9.036 24.0101 8.94301 24.0092 8.84642C24.0082 8.74984 23.969 8.65759 23.9 8.58996Z" fill="black"/>
</g>
<defs>
<clipPath id="clip0_36_635">
<rect width="24" height="24" fill="white"/>
</clipPath>
</defs>
</svg>
