<svg width="24" height="24" viewBox="0 0 24 24" fill="none" xmlns="http://www.w3.org/2000/svg">
<g clip-path="url(#clip0_36_642)">
<path fill-rule="evenodd" clip-rule="evenodd" d="M21.1402 19.09L20.6802 18.76V15.65C20.6802 15.17 20.6802 14.65 20.6302 14.23C20.5802 13.81 20.5702 13.29 20.5302 12.82C20.4302 11.72 20.2902 10.64 20.2402 9.54004C20.2415 9.49539 20.234 9.45091 20.2181 9.40915C20.2023 9.36739 20.1783 9.32916 20.1477 9.29666C20.117 9.26415 20.0803 9.23801 20.0395 9.21971C19.9988 9.20142 19.9548 9.19134 19.9102 9.19004C19.8216 9.18729 19.7355 9.21919 19.6702 9.27895C19.6048 9.33871 19.5653 9.42163 19.5602 9.51004C19.3986 10.7839 19.3117 12.0661 19.3002 13.35C19.3002 14.11 19.3802 14.88 19.4602 15.63C19.5402 16.38 19.6702 17.18 19.7802 17.95C19.7471 17.9443 19.7132 17.9443 19.6802 17.95H17.2302C16.0802 17.9 14.9302 17.78 13.7802 17.7C13.0002 17.65 12.2302 17.62 11.4502 17.6C10.6702 17.58 9.59016 17.6 8.66016 17.71C7.28016 17.81 5.92016 17.99 4.53016 18.17C4.4854 18.1711 4.44135 18.1815 4.40087 18.2007C4.36039 18.2198 4.32437 18.2472 4.29515 18.2811C4.26594 18.3151 4.24416 18.3548 4.23125 18.3976C4.21833 18.4405 4.21455 18.4856 4.22016 18.53C4.22782 18.6185 4.26977 18.7004 4.33704 18.7584C4.4043 18.8163 4.49156 18.8456 4.58016 18.84H7.33016C8.69016 18.84 10.0502 18.84 11.4302 18.92C12.2402 18.92 13.0702 18.98 13.8902 18.99C14.7102 19 15.5602 18.99 16.3902 18.99C17.3902 18.99 18.3902 18.91 19.3202 18.81L20.0302 19.38L20.6702 19.87C20.9976 20.1191 21.3021 20.3968 21.5802 20.7L17.6902 20.48C16.3902 20.48 15.0902 20.43 13.7902 20.48C11.8502 20.48 9.91016 20.6 7.97016 20.6C6.37016 20.65 4.74016 20.87 3.12016 20.93C2.55723 20.96 1.9931 20.96 1.43016 20.93C1.61521 20.518 1.85761 20.1342 2.15016 19.79L2.79016 19C3.44016 18.57 4.10016 18.3 3.89016 17.91C3.85286 17.8628 3.80488 17.8251 3.75016 17.8V15.49C3.75016 14.1 3.91016 12.72 4.00016 11.34V9.24004C3.99467 9.13345 3.99467 9.02664 4.00016 8.92004L4.33016 9.00004L6.33016 8.82004C8.03016 8.66671 9.73016 8.52671 11.4302 8.40004C12.5602 8.32004 13.7002 8.24004 14.8302 8.19004C14.8801 8.18875 14.9292 8.17763 14.9748 8.15733C15.0205 8.13702 15.0616 8.10793 15.096 8.07171C15.1303 8.03549 15.1572 7.99286 15.1751 7.94624C15.193 7.89963 15.2015 7.84995 15.2002 7.80004C15.1976 7.69835 15.1553 7.6017 15.0825 7.53071C15.0096 7.45972 14.9119 7.42001 14.8102 7.42004H10.5302C9.10016 7.42004 7.68016 7.49004 6.26016 7.54004L4.26016 7.68004H3.64016C3.50692 7.68097 3.37654 7.71885 3.26355 7.78947C3.15056 7.86009 3.05938 7.96068 3.00016 8.08004C2.85712 8.42964 2.77917 8.80243 2.77016 9.18004C2.77016 9.93004 2.83016 10.82 2.82016 11.34C2.82016 12.73 2.82016 14.12 2.88016 15.52C2.88016 16.36 2.97016 17.19 3.05016 18.03L2.36016 18.44L1.59016 19.07C0.971183 19.6895 0.514386 20.452 0.260161 21.29C0.139692 21.6314 0.134092 22.0027 0.244215 22.3475C0.354338 22.6924 0.574148 22.9917 0.870161 23.2C1.18759 23.4176 1.54984 23.5612 1.93016 23.62C2.42056 23.6863 2.91548 23.7131 3.41016 23.7L6.54016 23.83C9.27016 23.83 11.9902 23.99 14.7202 24C15.9002 24 17.0902 24 18.2702 23.88L20.2702 23.61L21.5002 23.29L22.3102 22.95C22.5941 22.8398 22.8321 22.6361 22.9848 22.3725C23.1375 22.109 23.1958 21.8012 23.1502 21.5C22.7638 20.4973 22.0572 19.6502 21.1402 19.09ZM21.8302 22.09L21.1602 22.34L20.0002 22.56L18.1702 22.74H15.8602C12.7302 22.74 9.61016 22.55 6.48016 22.58H3.40016C2.96107 22.6201 2.51925 22.6201 2.08016 22.58C1.84296 22.5588 1.61377 22.4836 1.41016 22.36C1.26831 22.2591 1.16324 22.1147 1.1109 21.9487C1.05857 21.7826 1.06182 21.6041 1.12016 21.44C1.12016 21.44 1.12016 21.44 1.12016 21.39C1.78329 21.4826 2.45093 21.5393 3.12016 21.56C4.73016 21.62 6.36016 21.56 7.95016 21.56H11.8602C13.8602 21.51 15.7502 21.38 17.6902 21.31H22.0502H22.1002C22.1443 21.375 22.1725 21.4495 22.1825 21.5274C22.1926 21.6053 22.1841 21.6845 22.1578 21.7585C22.1315 21.8325 22.0881 21.8993 22.0312 21.9534C21.9743 22.0075 21.9054 22.0475 21.8302 22.07V22.09Z" fill="black"/>
<path fill-rule="evenodd" clip-rule="evenodd" d="M17.8602 5.18002C17.6098 5.09159 17.3458 5.04759 17.0802 5.05002C16.4734 5.06343 15.886 5.26622 15.4002 5.63002C15.3207 5.67246 15.2612 5.74476 15.2349 5.83103C15.2087 5.91729 15.2178 6.01046 15.2602 6.09002C15.2802 6.12907 15.3079 6.16373 15.3414 6.19198C15.375 6.22022 15.4139 6.24149 15.4558 6.25452C15.4977 6.26756 15.5418 6.27211 15.5855 6.2679C15.6292 6.26369 15.6716 6.25082 15.7102 6.23002C16.1367 6.12081 16.5838 6.12081 17.0102 6.23002C17.2674 6.28082 17.5187 6.35789 17.7602 6.46002C17.968 6.52562 18.1585 6.63691 18.3177 6.78573C18.4769 6.93454 18.6008 7.1171 18.6802 7.32002C18.6997 7.41833 18.7562 7.50537 18.8382 7.56309C18.9201 7.62081 19.0211 7.64478 19.1202 7.63002C19.1695 7.62156 19.2166 7.60345 19.2589 7.57674C19.3012 7.55003 19.3377 7.51524 19.3665 7.47437C19.3953 7.43349 19.4158 7.38733 19.4267 7.33854C19.4376 7.28975 19.4388 7.23928 19.4302 7.19002C19.4186 6.81996 19.3146 6.45868 19.1278 6.13906C18.9409 5.81944 18.677 5.55163 18.3602 5.36002C18.202 5.27879 18.0339 5.21829 17.8602 5.18002Z" fill="black"/>
<path fill-rule="evenodd" clip-rule="evenodd" d="M20.74 7.20002C20.736 7.24943 20.7418 7.29916 20.7574 7.34625C20.7729 7.39334 20.7977 7.43683 20.8303 7.47414C20.863 7.51145 20.9028 7.54182 20.9474 7.56345C20.992 7.58507 21.0405 7.59751 21.09 7.60002C21.14 7.60412 21.1902 7.5983 21.2379 7.58291C21.2856 7.56751 21.3297 7.54284 21.3678 7.51031C21.406 7.47778 21.4373 7.43804 21.4599 7.39336C21.4826 7.34869 21.4963 7.29998 21.5 7.25002C21.6279 6.56666 21.5833 5.86221 21.3703 5.20043C21.1573 4.53866 20.7825 3.94047 20.28 3.46002C20.0156 3.2138 19.7113 3.0143 19.38 2.87002C18.8912 2.64257 18.3592 2.52319 17.82 2.52002C16.6197 2.55651 15.4786 3.05016 14.63 3.90002C14.5609 3.95516 14.5159 4.03509 14.5047 4.12285C14.4935 4.2106 14.5169 4.29927 14.57 4.37002C14.6007 4.40116 14.6373 4.42589 14.6777 4.44277C14.718 4.45965 14.7613 4.46834 14.805 4.46834C14.8488 4.46834 14.8921 4.45965 14.9324 4.44277C14.9728 4.42589 15.0093 4.40116 15.04 4.37002C15.8396 3.83347 16.8028 3.59622 17.76 3.70002C18.1344 3.73809 18.4996 3.83953 18.84 4.00002C19.4499 4.26993 19.9606 4.7231 20.3011 5.29658C20.6416 5.87005 20.795 6.53535 20.74 7.20002Z" fill="black"/>
<path fill-rule="evenodd" clip-rule="evenodd" d="M22.7301 2.31001C22.2653 1.6833 21.6764 1.15907 21.0001 0.77001C20.3536 0.370941 19.632 0.108864 18.8801 9.81241e-06C18.0109 -0.0878539 17.1328 0.00929198 16.3038 0.285059C15.4748 0.560826 14.7135 1.00897 14.0701 1.60001C14.0347 1.62651 14.0051 1.65984 13.9828 1.69803C13.9606 1.73621 13.9462 1.77848 13.9406 1.82231C13.935 1.86615 13.9383 1.91066 13.9502 1.95321C13.9622 1.99576 13.9825 2.03548 14.0101 2.07001C14.0366 2.10537 14.0699 2.13506 14.1081 2.1573C14.1463 2.17954 14.1886 2.19388 14.2324 2.19947C14.2762 2.20507 14.3208 2.20181 14.3633 2.18987C14.4059 2.17794 14.4456 2.15758 14.4801 2.13001C15.0877 1.71008 15.7732 1.41591 16.4962 1.26478C17.2192 1.11366 17.9651 1.10863 18.6901 1.25001C19.2872 1.37159 19.8611 1.58764 20.3901 1.89001C21.3059 2.39635 22.0397 3.17725 22.4882 4.12269C22.9367 5.06813 23.0773 6.13046 22.8901 7.16001C22.8754 7.25913 22.8993 7.36013 22.957 7.44206C23.0148 7.52398 23.1018 7.58054 23.2001 7.60001C23.2495 7.61006 23.3004 7.60991 23.3497 7.59957C23.3991 7.58924 23.4458 7.56893 23.487 7.5399C23.5282 7.51088 23.563 7.47374 23.5893 7.43077C23.6157 7.3878 23.6329 7.3399 23.6401 7.29001C23.8558 6.44334 23.8861 5.56009 23.7291 4.70061C23.572 3.84114 23.2313 3.0257 22.7301 2.31001Z" fill="black"/>
</g>
<defs>
<clipPath id="clip0_36_642">
<rect width="24" height="24" fill="white"/>
</clipPath>
</defs>
</svg>
