<svg width="24" height="24" viewBox="0 0 24 24" fill="none" xmlns="http://www.w3.org/2000/svg">
<g clip-path="url(#clip0_36_1233)">
<path fill-rule="evenodd" clip-rule="evenodd" d="M11.2302 17.77C11.1891 17.7481 11.144 17.7348 11.0976 17.731C11.0512 17.7272 11.0045 17.733 10.9605 17.748C10.9164 17.763 10.8759 17.7869 10.8415 17.8182C10.807 17.8495 10.7793 17.8876 10.7602 17.93C10.5102 18.43 11.6402 18.85 9.36018 21.17C8.34912 22.1842 7.00218 22.7938 5.57295 22.884C4.14371 22.9743 2.73079 22.5389 1.60018 21.66C1.95065 21.6696 2.29895 21.6021 2.62039 21.4621C2.94183 21.3221 3.22854 21.1131 3.46018 20.85C5.46019 18.98 4.66018 15.34 7.82019 15.5C9.30019 15.58 9.23018 16.25 9.73018 16.71C10.4702 17.39 10.7302 16.42 10.2602 16.33C9.79018 16.24 10.0002 15 7.88019 14.74C4.05019 14.32 4.39018 18.43 2.67018 20C1.91018 20.7 1.36018 20.51 0.800185 20.79C0.240185 21.07 -0.00981522 21.79 0.800185 22.52C1.59474 23.1334 2.51374 23.5659 3.49289 23.787C4.47205 24.0082 5.4877 24.0127 6.46878 23.8003C7.44987 23.5879 8.37269 23.1637 9.17269 22.5573C9.97268 21.951 10.6305 21.1771 11.1002 20.29C11.4902 19.6 11.9402 18.11 11.2302 17.77Z" fill="black"/>
<path fill-rule="evenodd" clip-rule="evenodd" d="M19.69 0.209997C17.46 0.859997 15.94 2.58 14.69 4.58C12.43 8.43 12.51 8.1 10.88 10.81C8.57 14.7 9.17 13.34 8.85 13.9C8.81418 13.9424 8.78999 13.9934 8.77983 14.0479C8.76966 14.1025 8.77386 14.1588 8.79202 14.2112C8.81017 14.2637 8.84166 14.3105 8.88338 14.3471C8.92511 14.3837 8.97563 14.4088 9.03 14.42C9.58 14.6 11.26 11.64 11.55 11.21C12 10.51 12.49 9.82 12.97 9.13C15.32 5.53 16.18 4.02 17.52 2.79C19.45 1.03 22.69 0.249997 22.52 2.79C22.37 6.6 17.45 9.63 15 12.2C14.46 12.76 14 13.41 13.47 14.02C12.22 15.49 11.15 15.85 11.33 16.33C11.61 17.06 12.67 15.83 13.33 15.33C14.19 14.58 14.83 13.62 15.62 12.85C18.15 10.39 21.69 8.47 23.24 5.06C24.79 1.65 22.82 -0.690003 19.69 0.209997Z" fill="black"/>
<path fill-rule="evenodd" clip-rule="evenodd" d="M18.5101 4.99997C19.5821 4.23004 20.5384 3.31073 21.3501 2.26997C21.3616 2.18915 21.3407 2.10707 21.292 2.04154C21.2433 1.97601 21.1708 1.93233 21.0901 1.91997C20.8359 1.878 20.5752 1.90091 20.3322 1.98657C20.0892 2.07223 19.8718 2.21786 19.7001 2.40997C19.0085 3.12772 18.3889 3.91146 17.8501 4.74997C17.8648 4.81861 17.8965 4.88247 17.9422 4.93571C17.988 4.98895 18.0464 5.02988 18.112 5.05474C18.1776 5.07961 18.2485 5.08763 18.318 5.07806C18.3876 5.06849 18.4536 5.04164 18.5101 4.99997Z" fill="black"/>
</g>
<defs>
<clipPath id="clip0_36_1233">
<rect width="24" height="24" fill="white"/>
</clipPath>
</defs>
</svg>
