<svg width="24" height="24" viewBox="0 0 24 24" fill="none" xmlns="http://www.w3.org/2000/svg">
<g clip-path="url(#clip0_36_1072)">
<path fill-rule="evenodd" clip-rule="evenodd" d="M23.2202 0C21.6995 0.185433 20.1952 0.486301 18.7202 0.9C17.6402 1.23 16.5802 1.66 15.5002 2.01C13.7302 2.58 14.1302 2.18 11.7502 6.47C11.5772 5.58426 11.2379 4.73934 10.7502 3.98C9.75016 2.98 8.75016 4.49 8.04016 5.64C5.93016 9.09 4.00016 12.19 3.60016 17.38C3.59353 17.4596 3.61878 17.5385 3.67035 17.5995C3.72192 17.6604 3.7956 17.6984 3.87516 17.705C3.95473 17.7116 4.03367 17.6864 4.09462 17.6348C4.15557 17.5832 4.19353 17.5096 4.20016 17.43C4.64016 12.49 6.60016 9.43 8.75016 6.1C9.05648 5.51751 9.48246 5.00634 10.0002 4.6C10.0602 4.7 10.1202 4.6 10.3802 5.28C10.6402 5.96 10.8402 7.38 11.2302 7.68C11.6202 7.98 12.1102 7.68 12.4202 7.25C12.7302 6.82 14.3802 3.62 15.0002 3.34C15.2876 3.2221 15.5856 3.13169 15.8902 3.07C18.1072 2.21532 20.4108 1.60504 22.7602 1.25C22.7842 2.09358 22.6831 2.93607 22.4602 3.75C21.9052 6.17653 21.1182 8.54408 20.1102 10.82C19.8102 11.49 19.3302 13.02 18.6502 13.51C18.5802 13.41 18.3702 13.33 18.3102 13.27C17.4783 12.5253 16.5107 11.9481 15.4602 11.57C14.1802 11.4 14.8302 14.25 14.7702 14.93C14.0302 14.42 12.2002 13.49 11.8702 14.27C11.6502 14.79 11.9702 15.46 12.0702 15.87C12.3002 16.74 12.8602 18.42 12.1902 19.04C10.8001 20.0253 9.08969 20.4502 7.40016 20.23C5.00016 20 5.75016 19 5.23016 19.38C5.03016 19.46 4.81016 19.64 5.03016 19.9C5.32132 20.3253 5.75938 20.628 6.26016 20.75C8.15016 21.3 11.1502 20.99 12.6802 19.64C13.8002 18.64 13.1202 16.47 12.6802 14.93C13.4979 15.1715 14.2343 15.6313 14.8102 16.26C14.9142 16.3462 15.0451 16.3933 15.1802 16.3933C15.3153 16.3933 15.4461 16.3462 15.5502 16.26C15.9302 15.83 15.5502 13.98 15.6302 12.77H15.8202C16.4134 13.1373 16.9783 13.5485 17.5102 14C17.709 14.237 17.9455 14.4398 18.2102 14.6C18.8202 14.85 19.5102 14.21 19.8802 13.71C21.1302 12.06 25.6202 0.26 23.2202 0Z" fill="black"/>
<path fill-rule="evenodd" clip-rule="evenodd" d="M7.05997 16.23C14 8.43002 17.39 6.11002 19.55 4.51002C19.5867 4.48375 19.618 4.4505 19.6419 4.41217C19.6658 4.37383 19.682 4.33116 19.6894 4.28659C19.6968 4.24201 19.6954 4.19642 19.6852 4.15239C19.675 4.10837 19.6562 4.06679 19.63 4.03002C19.6037 3.99325 19.5705 3.96201 19.5321 3.93809C19.4938 3.91417 19.4511 3.89804 19.4065 3.89061C19.362 3.88318 19.3164 3.8846 19.2723 3.8948C19.2283 3.90499 19.1867 3.92375 19.15 3.95002C17.75 4.95002 16.38 5.80002 15.09 6.84002C7.78997 12.84 5.13997 16.84 0.909971 22.38L0.139971 23.52C0.108596 23.5872 0.102331 23.6634 0.122312 23.7348C0.142294 23.8062 0.187199 23.868 0.248883 23.9092C0.310567 23.9503 0.384947 23.9679 0.458532 23.9589C0.532117 23.9499 0.600036 23.9148 0.649971 23.86C2.66997 21.22 5.91997 17.51 7.05997 16.23Z" fill="black"/>
</g>
<defs>
<clipPath id="clip0_36_1072">
<rect width="24" height="24" fill="white"/>
</clipPath>
</defs>
</svg>
