<svg width="24" height="24" viewBox="0 0 24 24" fill="none" xmlns="http://www.w3.org/2000/svg">
<g clip-path="url(#clip0_36_848)">
<path fill-rule="evenodd" clip-rule="evenodd" d="M11.1403 21.65C9.4503 21.65 6.9703 21.65 5.3003 21.47C4.2203 21.37 1.9503 21.55 1.0903 20.79C1.1503 20.66 1.2703 20.5 1.2803 20.45C3.0403 16.75 3.2803 8.84997 3.2803 8.76997C3.5603 2.55997 3.6403 2.84997 3.4203 2.76997C3.38054 2.74053 3.33412 2.72137 3.28517 2.71422C3.23621 2.70706 3.18624 2.71212 3.13972 2.72895C3.09319 2.74578 3.05155 2.77385 3.0185 2.81067C2.98546 2.84749 2.96203 2.89191 2.9503 2.93997C2.9003 2.99997 3.0003 1.99997 2.3703 8.67997C1.2703 17.73 0.170304 20.24 0.170304 20.27C0.170304 20.46 -0.199696 21.04 0.170304 21.44C1.3603 22.69 3.7803 22.31 5.2303 22.38C6.8603 22.45 9.5003 22.38 11.1403 22.33C11.2305 22.33 11.317 22.2942 11.3807 22.2304C11.4445 22.1666 11.4803 22.0801 11.4803 21.99C11.4803 21.8998 11.4445 21.8133 11.3807 21.7496C11.317 21.6858 11.2305 21.65 11.1403 21.65Z" fill="black"/>
<path fill-rule="evenodd" clip-rule="evenodd" d="M23.5707 2.34999C22.8896 1.99548 22.1456 1.77804 21.3807 1.70999C20.6207 1.61999 4.07073 1.18999 4.52073 2.70999C4.53204 2.75528 4.55311 2.79754 4.58248 2.83381C4.61185 2.87009 4.64879 2.8995 4.69073 2.91999C5.46244 2.92645 6.23384 2.88638 7.00073 2.79999C10.2007 2.28999 21.2107 2.79999 21.3007 2.84999C21.8469 2.88884 22.3835 3.01372 22.8907 3.21999C22.5707 4.09999 22.1707 12.75 22.1707 12.83C22.1641 12.9096 22.1893 12.9885 22.2409 13.0494C22.2925 13.1104 22.3662 13.1484 22.4457 13.155C22.5253 13.1616 22.6042 13.1364 22.6652 13.0848C22.7261 13.0332 22.7641 12.9596 22.7707 12.88C22.9707 10.8 23.0907 8.77999 23.4207 6.81999C23.8507 4.45999 24.4007 2.81999 23.5707 2.34999Z" fill="black"/>
<path fill-rule="evenodd" clip-rule="evenodd" d="M21.9104 13.6C21.5004 13.42 17.0904 16.22 15.4604 14.6C15.3806 14.5052 15.272 14.4389 15.1511 14.4114C15.0301 14.3838 14.9036 14.3964 14.7905 14.4473C14.6774 14.4982 14.584 14.5846 14.5244 14.6934C14.4649 14.8021 14.4424 14.9274 14.4604 15.05C14.1204 18.18 14.2304 18.16 13.5504 19.45C12.6604 21.27 11.3804 21.6 12.0004 22C12.0409 22.0353 12.0904 22.0587 12.1434 22.0675C12.1963 22.0764 12.2507 22.0703 12.3004 22.05C12.3804 22.05 13.3004 21.27 13.3604 21.19C14.7666 19.8187 15.5964 17.9624 15.6804 16C17.4504 16.55 19.1704 15.58 20.8604 14.85C20.8604 14.9 19.4704 17.23 19.4204 17.29C18.2077 18.8412 16.5718 20.0081 14.7104 20.65C14.6256 20.6819 14.5568 20.7461 14.5193 20.8286C14.4818 20.9111 14.4786 21.0052 14.5104 21.09C14.5423 21.1749 14.6065 21.2437 14.689 21.2812C14.7715 21.3187 14.8656 21.3219 14.9504 21.29C17.0389 20.7984 18.9122 19.6443 20.2904 18C20.9846 16.8877 21.5578 15.7043 22.0004 14.47C22.1104 14.18 22.2604 13.75 21.9104 13.6Z" fill="black"/>
</g>
<defs>
<clipPath id="clip0_36_848">
<rect width="24" height="24" fill="white"/>
</clipPath>
</defs>
</svg>
