<svg width="24" height="24" viewBox="0 0 24 24" fill="none" xmlns="http://www.w3.org/2000/svg">
<g clip-path="url(#clip0_36_1189)">
<path fill-rule="evenodd" clip-rule="evenodd" d="M7.43989 16.4C7.44303 16.3225 7.41705 16.2467 7.36707 16.1875C7.3171 16.1283 7.24675 16.0899 7.16989 16.08C6.32989 16 5.47989 15.77 4.60989 15.64C2.36989 15.29 1.82989 16.01 1.67989 14.75C1.58989 14.04 1.83989 16.61 1.26989 8.23997C0.994376 6.37129 1.05193 4.46859 1.43989 2.61998C2.92989 1.93998 3.29989 2.21998 4.75989 1.92998C7.2595 1.52835 9.80049 1.45104 12.3199 1.69998C13.0799 1.69998 14.0099 1.62998 14.8499 1.69998C16.4399 1.85998 16.6299 2.39998 16.3099 6.32998C16.3099 6.74998 16.1799 7.32998 16.5299 7.32998C16.7099 7.40998 16.9099 7.14998 16.9399 6.85998L17.1099 5.21997C17.1099 3.79997 17.5199 1.85998 16.1099 1.15998C14.9999 0.639975 13.5199 0.869975 12.3899 0.769975C9.78589 0.434994 7.14846 0.455178 4.54989 0.829975C3.26989 1.07998 1.99989 0.919976 0.799889 1.68998C0.219889 2.05998 0.179889 2.99998 0.0998891 3.59998C-0.0514812 5.18266 -0.00782077 6.77794 0.229889 8.34998C1.00989 15.85 0.819889 14.67 0.919889 15.1C1.31989 16.83 2.73989 16.1 4.51989 16.3C6.55989 16.55 7.38989 16.94 7.43989 16.4Z" fill="black"/>
<path fill-rule="evenodd" clip-rule="evenodd" d="M16.6202 8.83997C16.4702 8.78997 16.3502 8.70997 16.2502 8.83997C15.6002 9.55997 16.0202 11.62 16.5002 11.62C16.5904 11.62 16.6769 11.5841 16.7406 11.5204C16.8044 11.4566 16.8402 11.3701 16.8402 11.28C16.8502 11.18 17.4102 9.10997 16.6202 8.83997Z" fill="black"/>
<path fill-rule="evenodd" clip-rule="evenodd" d="M12.9398 16.21C12.7598 15.91 11.2398 15.89 10.9898 15.9C10.7398 15.91 9.49981 16.05 9.09981 16C8.88981 16 8.59981 16.43 9.09981 16.62L10.0398 16.94C10.6925 17.0802 11.3714 17.0352 11.9998 16.81C12.2898 16.73 13.3598 16.73 12.9398 16.21Z" fill="black"/>
<path fill-rule="evenodd" clip-rule="evenodd" d="M9.50026 22.75C7.55026 22.48 8.13026 22.57 8.03026 21.55C7.93026 20.53 8.00026 19.73 7.81026 19C7.80363 18.923 7.76671 18.8519 7.70764 18.8022C7.64857 18.7525 7.57217 18.7283 7.49526 18.735C7.41834 18.7416 7.34721 18.7785 7.29752 18.8376C7.24782 18.8967 7.22363 18.973 7.23026 19.05C7.18026 20.2 6.46026 21.43 7.30026 22.89C7.46049 23.077 7.66272 23.2234 7.89041 23.3173C8.1181 23.4111 8.36478 23.4497 8.61026 23.43C8.9666 23.4515 9.32391 23.4515 9.68026 23.43C9.76814 23.4231 9.85068 23.3851 9.91301 23.3227C9.97535 23.2604 10.0134 23.1778 10.0203 23.09C10.0003 22.76 9.66026 22.78 9.50026 22.75Z" fill="black"/>
<path fill-rule="evenodd" clip-rule="evenodd" d="M15.36 22.47C14.07 22.25 13.66 21.89 12.04 22.53C11.9744 22.5552 11.9197 22.6027 11.8856 22.664C11.8514 22.7254 11.8398 22.7969 11.8529 22.8659C11.866 22.9349 11.9029 22.9972 11.9572 23.0418C12.0115 23.0864 12.0797 23.1105 12.15 23.11C13.2083 23.334 14.3017 23.334 15.36 23.11C15.4312 23.092 15.4945 23.0508 15.5396 22.9928C15.5848 22.9349 15.6094 22.8635 15.6094 22.79C15.6094 22.7165 15.5848 22.6451 15.5396 22.5871C15.4945 22.5292 15.4312 22.488 15.36 22.47Z" fill="black"/>
<path fill-rule="evenodd" clip-rule="evenodd" d="M19.8303 22.21C18.2803 21.9 16.8303 22.15 16.9503 22.57C17.2003 23.63 19.7403 22.89 19.8303 22.88C19.9092 22.8663 19.9808 22.8252 20.0324 22.7639C20.0839 22.7026 20.1122 22.6251 20.1122 22.545C20.1122 22.4649 20.0839 22.3874 20.0324 22.3261C19.9808 22.2648 19.9092 22.2237 19.8303 22.21Z" fill="black"/>
<path fill-rule="evenodd" clip-rule="evenodd" d="M23.2803 19C22.6003 18.83 22.9003 19.88 22.9003 20C22.9003 21.58 23.1203 22.25 21.4203 22.36C21.3493 22.3655 21.2826 22.3961 21.2321 22.4463C21.1817 22.4964 21.1506 22.5629 21.1446 22.6338C21.1386 22.7047 21.158 22.7754 21.1993 22.8333C21.2407 22.8913 21.3012 22.9326 21.3703 22.95C22.9103 23.29 23.9903 22.83 24.0003 21.25C24.0003 20.86 23.6403 19.12 23.2803 19Z" fill="black"/>
<path fill-rule="evenodd" clip-rule="evenodd" d="M17.1002 14.4C16.9837 13.9266 16.8435 13.4594 16.6802 13C16.6625 12.9573 16.6365 12.9186 16.6038 12.8859C16.5711 12.8533 16.5323 12.8274 16.4896 12.8097C16.4468 12.7921 16.4011 12.783 16.3549 12.7831C16.3086 12.7831 16.2629 12.7923 16.2202 12.81C16.1775 12.8277 16.1388 12.8537 16.1061 12.8864C16.0735 12.9191 16.0476 12.9579 16.0299 13.0007C16.0123 13.0434 16.0032 13.0891 16.0033 13.1354C16.0033 13.1816 16.0125 13.2273 16.0302 13.27C15.9802 13.33 16.0302 13.65 16.0302 13.76C16.0302 14.56 16.1402 15.5 15.7202 15.76C14.9502 16.28 14.2702 15.89 14.2302 16.37C14.2275 16.4094 14.2326 16.449 14.2452 16.4864C14.2578 16.5239 14.2777 16.5584 14.3037 16.5882C14.3297 16.6179 14.3614 16.6422 14.3968 16.6597C14.4322 16.6772 14.4708 16.6875 14.5102 16.69C16.5702 17.14 17.4702 16.07 17.1002 14.4Z" fill="black"/>
<path fill-rule="evenodd" clip-rule="evenodd" d="M22.8195 15C22.4595 15 22.4095 15.39 22.3595 15.79C22.2422 16.2425 22.2422 16.7175 22.3595 17.17C22.9895 19.47 23.6295 17.17 23.2595 15.73C23.1295 15.4 23.1395 15 22.8195 15Z" fill="black"/>
<path fill-rule="evenodd" clip-rule="evenodd" d="M22.8195 11.08C22.4595 11.02 22.4095 11.47 22.3595 11.87C22.2422 12.3225 22.2422 12.7975 22.3595 13.25C22.9895 15.55 23.6295 13.25 23.2595 11.81C23.1295 11.45 23.1395 11.07 22.8195 11.08Z" fill="black"/>
<path fill-rule="evenodd" clip-rule="evenodd" d="M22.1203 8.36996C22.1247 8.91975 22.1952 9.46701 22.3303 9.99996C22.3716 10.0479 22.4254 10.0834 22.4857 10.1024C22.546 10.1214 22.6104 10.1232 22.6717 10.1077C22.733 10.0921 22.7888 10.0597 22.8327 10.0142C22.8766 9.96865 22.9069 9.91179 22.9203 9.84996C23.0108 9.33758 23.0676 8.8198 23.0903 8.29996C23.1064 8.02442 23.0623 7.74868 22.961 7.49192C22.8597 7.23516 22.7037 7.00355 22.5039 6.8132C22.304 6.62285 22.0651 6.47833 21.8037 6.38969C21.5423 6.30106 21.2647 6.27044 20.9903 6.29996C18.9103 6.29996 19.3903 7.16996 19.7503 7.14996C19.8303 7.14996 20.8203 7.14996 20.8903 7.20996C21.1914 7.24894 21.4726 7.38211 21.6935 7.59045C21.9144 7.79878 22.0638 8.07162 22.1203 8.36996Z" fill="black"/>
</g>
<defs>
<clipPath id="clip0_36_1189">
<rect width="24" height="24" fill="white"/>
</clipPath>
</defs>
</svg>
