<svg width="24" height="24" viewBox="0 0 24 24" fill="none" xmlns="http://www.w3.org/2000/svg">
<g clip-path="url(#clip0_36_689)">
<path fill-rule="evenodd" clip-rule="evenodd" d="M10.8302 19.9201C10.524 20.7016 10.0573 21.4102 9.46016 22.0001C9.35016 22.1201 9.46016 22.3001 9.46016 20.3401C9.55718 18.8609 9.49348 17.3755 9.27016 15.9101C9.11846 15.2363 9.02809 14.5502 9.00016 13.8601C9.01597 13.818 9.02244 13.773 9.01912 13.7282C9.01581 13.6834 9.00279 13.6398 8.98097 13.6005C8.95915 13.5612 8.92905 13.5272 8.89275 13.5007C8.85645 13.4742 8.81483 13.4559 8.77076 13.4471C8.7267 13.4382 8.68124 13.4391 8.63754 13.4496C8.59385 13.4601 8.55296 13.48 8.5177 13.5079C8.48245 13.5357 8.45368 13.5709 8.43338 13.611C8.41309 13.6511 8.40175 13.6952 8.40016 13.7401C8.29322 14.4884 8.26306 15.2456 8.31016 16.0001C8.2563 17.4659 8.31648 18.9336 8.49016 20.3901C8.49016 20.6301 8.66016 21.7101 8.66016 22.1801C8.08035 21.8728 7.55365 21.4744 7.10016 21.0001C6.51016 20.3401 6.41016 19.8401 6.10016 20.0001C6.02966 20.0383 5.97673 20.1024 5.95249 20.1789C5.92825 20.2553 5.93458 20.3382 5.97016 20.4101C6.36438 21.3827 6.9768 22.2517 7.76016 22.9501C8.29016 23.3801 9.27016 23.8101 9.91016 23.2801C10.1138 23.0984 10.2831 22.8816 10.4102 22.6401C10.8988 21.9466 11.2673 21.1758 11.5002 20.3601C11.5383 20.2199 11.5585 20.0754 11.5602 19.9301C11.5615 19.8333 11.5243 19.7399 11.4568 19.6705C11.3893 19.6011 11.297 19.5614 11.2002 19.5601C11.1034 19.5587 11.01 19.5959 10.9406 19.6634C10.8712 19.731 10.8315 19.8233 10.8302 19.9201Z" fill="black"/>
<path fill-rule="evenodd" clip-rule="evenodd" d="M17.17 15.62C16.9382 15.0818 16.657 14.5662 16.33 14.08C16 13.53 15.67 13.14 15.03 13.19C13.39 13.38 12.56 14.97 11.88 16.31C11.8517 16.3817 11.8512 16.4614 11.8785 16.5335C11.9058 16.6056 11.9591 16.6649 12.0278 16.6999C12.0965 16.7349 12.1757 16.743 12.2501 16.7227C12.3245 16.7023 12.3886 16.655 12.43 16.59L13.06 15.74C13.5087 15.2591 14.0239 14.8449 14.59 14.51C14.69 14.79 14.39 16.6 14.3 18.12C14.3 18.91 14.25 22.17 14.3 22.25C14.3 22.7 14.3 23.32 14.73 23.25C14.8145 23.2308 14.8881 23.1792 14.9349 23.1062C14.9817 23.0332 14.9979 22.9448 14.98 22.86C14.91 22.05 15.32 21.34 15.47 19.05C15.54 17.82 15.47 15.05 15.39 14.6C16.0175 15.2215 16.508 15.9675 16.83 16.79C16.83 16.8815 16.8663 16.9692 16.931 17.0339C16.9957 17.0986 17.0835 17.135 17.175 17.135C17.2665 17.135 17.3542 17.0986 17.4189 17.0339C17.4836 16.9692 17.52 16.8815 17.52 16.79C17.453 16.3868 17.3354 15.9937 17.17 15.62Z" fill="black"/>
<path fill-rule="evenodd" clip-rule="evenodd" d="M21.26 7.71004C21.9198 6.85021 22.2719 5.79379 22.26 4.71004C21.92 0.710036 14.75 -1.62996 12.26 3.17004C12.1149 2.98828 11.9429 2.82978 11.75 2.70004C11.0477 2.18088 10.2073 1.88142 9.33495 1.83945C8.4626 1.79748 7.59737 2.01488 6.84848 2.46422C6.09958 2.91356 5.50058 3.57469 5.1271 4.36416C4.75361 5.15363 4.62238 6.03605 4.74997 6.90004C1.42997 6.45004 -1.25003 9.74004 0.609965 13.38C1.17997 14.48 3.39997 15.33 4.06997 14.99C4.10542 14.9723 4.13704 14.9478 4.16301 14.9178C4.18899 14.8879 4.20881 14.8531 4.22134 14.8155C4.23388 14.7779 4.23888 14.7382 4.23607 14.6986C4.23326 14.6591 4.22269 14.6205 4.20497 14.585C4.18724 14.5496 4.1627 14.518 4.13275 14.492C4.1028 14.466 4.06803 14.4462 4.03042 14.4337C3.99282 14.4211 3.95311 14.4161 3.91357 14.4189C3.87402 14.4217 3.83542 14.4323 3.79997 14.45C3.2971 14.4203 2.80672 14.2815 2.36291 14.0432C1.9191 13.8049 1.5325 13.4728 1.22997 13.07C0.923587 12.4232 0.766386 11.7158 0.769965 11C0.777675 10.5273 0.8875 10.0618 1.09191 9.63546C1.29633 9.20912 1.5905 8.83201 1.95426 8.52998C2.31803 8.22795 2.7428 8.00813 3.19945 7.88559C3.65611 7.76305 4.13386 7.74069 4.59997 7.82004C4.89013 7.88243 5.16747 7.99404 5.41997 8.15004C5.52832 8.19483 5.64915 8.19929 5.76051 8.16259C5.87187 8.1259 5.96639 8.05049 6.02689 7.95005C6.08739 7.84962 6.10988 7.73081 6.09026 7.61522C6.07064 7.49962 6.01022 7.39489 5.91997 7.32004C5.66997 7.08004 5.72996 6.51004 5.73996 6.14004C5.77489 5.5358 5.97286 4.95231 6.31284 4.45158C6.65282 3.95084 7.1221 3.55157 7.67083 3.29618C8.21955 3.04079 8.82721 2.93884 9.42924 3.00114C10.0313 3.06345 10.6052 3.28769 11.09 3.65004C11.83 4.16004 11.61 5.11004 12.34 5.09004C12.81 5.09004 12.85 4.77004 13.26 3.76004C15.08 -0.0399642 20.9 1.86004 21.26 4.76004C21.2566 5.72111 20.9329 6.65363 20.34 7.41004C20.34 7.41004 19.79 7.74004 19.85 7.89004C19.7822 7.93479 19.7266 7.99569 19.6882 8.06726C19.6498 8.13882 19.6298 8.21882 19.63 8.30004C19.63 8.42004 20 8.98004 20.45 8.64004C23.21 8.00004 24.11 12.15 22.28 13.71C21.4572 14.3684 20.4854 14.8148 19.45 15.01C19.3695 15.0377 19.3019 15.0937 19.2597 15.1676C19.2176 15.2415 19.2038 15.3283 19.221 15.4116C19.2381 15.4949 19.285 15.5692 19.353 15.6204C19.4209 15.6717 19.5051 15.6964 19.59 15.69C20.7473 15.4964 21.8373 15.015 22.76 14.29C24.9 12.56 24.22 8.08004 21.26 7.71004Z" fill="black"/>
</g>
<defs>
<clipPath id="clip0_36_689">
<rect width="24" height="24" fill="white"/>
</clipPath>
</defs>
</svg>
