<svg width="24" height="24" viewBox="0 0 24 24" fill="none" xmlns="http://www.w3.org/2000/svg">
<g clip-path="url(#clip0_36_709)">
<path fill-rule="evenodd" clip-rule="evenodd" d="M23.3801 18.3599C23.2209 15.4844 22.6414 12.6476 21.6601 9.93993C21.4832 9.54482 21.1712 9.22572 20.7801 9.03993C20.296 8.77384 19.7608 8.61364 19.2101 8.56993C19.1226 8.56993 19.0387 8.6047 18.9768 8.66659C18.9149 8.72848 18.8801 8.81241 18.8801 8.89993C18.8801 8.98746 18.9149 9.07139 18.9768 9.13328C19.0387 9.19517 19.1226 9.22993 19.2101 9.22993C19.5001 9.22993 20.6701 9.72993 20.8001 10.2299L22.5001 17.5899C19.3201 15.6599 4.85013 16.9899 2.24013 17.5299C1.74444 17.6271 1.27856 17.8395 0.880129 18.1499C1.24013 15.2999 1.29013 13.1499 1.96013 11.4899C2.10013 11.1099 2.20013 10.3899 2.43013 10.2299C2.70556 10.0005 2.99622 9.79003 3.30013 9.59994C4.10013 9.13994 4.40013 9.40993 4.69013 9.10993C4.75364 9.04621 4.7893 8.9599 4.7893 8.86993C4.7893 8.77996 4.75364 8.69366 4.69013 8.62993C4.46013 8.39993 3.44013 8.62993 2.93013 8.89993C1.14013 9.72993 1.46013 10.1199 1.00013 11.0599C0.100129 13.0599 0.200129 13.8299 0.100129 19.2999C-0.108654 20.2109 0.00810048 21.1661 0.430129 21.9999C0.740129 22.7199 2.06013 23.2499 2.82013 23.4399C2.89969 23.4638 2.98548 23.4551 3.05862 23.4157C3.13176 23.3763 3.18626 23.3095 3.21013 23.2299C3.234 23.1504 3.22528 23.0646 3.1859 22.9914C3.14652 22.9183 3.07969 22.8638 3.00013 22.8399C2.47013 22.6899 1.24013 22.1799 1.06013 21.7199C0.210129 19.6099 1.00013 18.5499 2.40013 18.2899C4.93013 17.8399 19.6001 16.9399 22.0201 18.5799C22.3543 18.8281 22.6127 19.1645 22.7664 19.5513C22.9201 19.9381 22.9629 20.3601 22.8901 20.7699C22.8101 22.4399 20.5601 22.3199 18.9601 22.5199C13.9601 23.1299 9.28013 22.8599 4.40013 22.9099C4.32121 22.9236 4.24965 22.9647 4.19808 23.026C4.1465 23.0873 4.11822 23.1648 4.11822 23.2449C4.11822 23.325 4.1465 23.4026 4.19808 23.4639C4.24965 23.5251 4.32121 23.5662 4.40013 23.5799C9.29013 23.6299 14.0701 23.9999 19.0701 23.4999C20.7201 23.3399 23.8001 23.4999 23.9901 20.8299C24.0933 19.9599 23.8765 19.082 23.3801 18.3599Z" fill="black"/>
<path fill-rule="evenodd" clip-rule="evenodd" d="M5.56024 20.63C6.48068 20.6504 7.39948 20.5427 8.29024 20.31C8.36917 20.2963 8.44072 20.2552 8.49229 20.1939C8.54387 20.1326 8.57215 20.0551 8.57215 19.975C8.57215 19.8949 8.54387 19.8174 8.49229 19.7561C8.44072 19.6948 8.36917 19.6537 8.29024 19.64C7.38746 19.4948 6.46928 19.4712 5.56024 19.57C4.47024 19.76 4.11024 19.78 4.00024 20.02C3.89024 20.26 4.00024 20.4 4.07024 20.45C4.14024 20.5 3.83024 20.47 5.56024 20.63Z" fill="black"/>
<path fill-rule="evenodd" clip-rule="evenodd" d="M19.2903 19.45C19.3403 18.92 18.5603 18.74 18.1003 18.63C16.9203 18.34 15.8703 18.78 15.8203 20.04C15.9003 22.04 19.3703 21.95 19.6303 20.43C19.6385 20.3494 19.6176 20.2684 19.5713 20.2018C19.5251 20.1352 19.4565 20.0873 19.3781 20.0668C19.2996 20.0463 19.2164 20.0545 19.1435 20.0899C19.0706 20.1254 19.0127 20.1857 18.9803 20.26C18.7503 20.95 16.9803 20.61 16.9803 20.04C16.9003 18.77 19.2903 20.11 19.2903 19.45Z" fill="black"/>
<path fill-rule="evenodd" clip-rule="evenodd" d="M6.8901 9.68997C7.53329 11.1604 8.3891 12.5284 9.4301 13.75C9.9001 14.28 10.2501 14.94 11.1801 14.87C13.4701 14.71 18.5001 8.86997 17.1301 7.24997C16.4801 6.45997 13.8901 8.18997 13.2101 8.87997C13.1001 7.72997 12.4701 1.24997 12.2101 0.439971C12.1889 0.371014 12.1411 0.313311 12.0774 0.279554C12.0136 0.245798 11.9391 0.238753 11.8701 0.259971C11.8011 0.281188 11.7434 0.328929 11.7097 0.392691C11.6759 0.456454 11.6689 0.531014 11.6901 0.599971C11.9801 1.59997 12.3801 8.88997 12.4801 9.59997C12.5801 10.31 13.2701 10.21 13.7001 9.65997C14.4611 8.91207 15.3804 8.34476 16.3901 7.99997C16.3613 8.2361 16.2938 8.46586 16.1901 8.67997C15.5101 10.25 12.6501 13.68 11.1001 13.81C10.3501 13.86 7.7601 9.70997 7.2901 8.23997C8.6201 8.79997 9.8101 10.29 10.2901 10.29C10.4127 10.2658 10.5222 10.1975 10.5978 10.098C10.6734 9.99842 10.7098 9.87458 10.7001 9.74997C10.5701 8.44997 10.4101 10.66 11.4701 0.529971C11.4701 0.447754 11.4374 0.368904 11.3793 0.310768C11.3212 0.252631 11.2423 0.219971 11.1601 0.219971C11.0779 0.219971 10.999 0.252631 10.9409 0.310768C10.8828 0.368904 10.8501 0.447754 10.8501 0.529971C10.9001 0.469971 9.6501 6.99997 9.8201 8.99997C9.0901 8.36997 8.1301 7.37997 7.0001 7.33997C6.5101 7.33997 6.1701 7.68997 6.3901 8.49997C6.53584 8.90511 6.70274 9.30232 6.8901 9.68997Z" fill="black"/>
</g>
<defs>
<clipPath id="clip0_36_709">
<rect width="24" height="24" fill="white"/>
</clipPath>
</defs>
</svg>
