<svg width="24" height="24" viewBox="0 0 24 24" fill="none" xmlns="http://www.w3.org/2000/svg">
<g clip-path="url(#clip0_36_1181)">
<path fill-rule="evenodd" clip-rule="evenodd" d="M20.0001 14.27C19.9868 14.1798 19.9383 14.0986 19.8651 14.0442C19.792 13.9898 19.7002 13.9667 19.6101 13.98C19.5199 13.9932 19.4387 14.0418 19.3843 14.1149C19.3299 14.1881 19.3068 14.2798 19.3201 14.37C19.6253 15.7782 19.7197 17.224 19.6001 18.66C19.5398 19.0151 19.4562 19.3658 19.3501 19.71C18.8509 19.8838 18.3284 19.9816 17.8001 20C16.0501 20.19 13.2501 20.3 10.7001 20.35C10.3501 20.35 5.47007 20.45 5.16007 20.1C4.94196 19.5547 4.81689 18.9767 4.79007 18.39C4.65409 17.1575 4.69112 15.9122 4.90007 14.69C4.90899 14.6143 4.88971 14.538 4.84591 14.4756C4.80211 14.4132 4.73687 14.3691 4.66264 14.3518C4.58842 14.3345 4.51042 14.3451 4.44353 14.3817C4.37665 14.4182 4.32558 14.4782 4.30007 14.55C4.10007 15.32 4.20007 15.55 4.05007 16.32C3.83007 17.38 4.05007 20.17 4.47007 20.72C5.08007 21.45 8.70008 21.5 9.76008 21.51C9.50853 21.9634 9.42362 22.4905 9.52008 23L8.41007 23.14C8.33865 23.153 8.27404 23.1906 8.22753 23.2463C8.18101 23.3021 8.15553 23.3724 8.15553 23.445C8.15553 23.5176 8.18101 23.5879 8.22753 23.6436C8.27404 23.6993 8.33865 23.737 8.41007 23.75C10.7781 24.1192 13.191 24.0922 15.5501 23.67C15.6315 23.6513 15.7036 23.6041 15.7533 23.5369C15.803 23.4697 15.827 23.3869 15.8209 23.3035C15.8149 23.2202 15.7792 23.1417 15.7204 23.0824C15.6615 23.0231 15.5834 22.9867 15.5001 22.98H14.5601C14.5726 22.4274 14.4669 21.8784 14.2501 21.37C15.0301 21.32 19.3801 21.04 19.9201 20.48C20.2801 20.11 20.2701 19.58 20.4001 18.89C20.5167 17.3385 20.3816 15.7783 20.0001 14.27ZM13.7001 22.89C8.82007 22.63 10.8301 23.62 10.7001 21.46C11.5201 21.46 12.3601 21.46 13.1801 21.38C13.1947 21.9247 13.3762 22.4518 13.7001 22.89Z" fill="black"/>
<path fill-rule="evenodd" clip-rule="evenodd" d="M8.09995 17.4799C5.34995 17.7799 5.33995 17.6899 5.09995 17.8199C5.03727 17.8599 4.99103 17.921 4.96965 17.9922C4.94827 18.0634 4.95317 18.1399 4.98347 18.2077C5.01377 18.2756 5.06744 18.3303 5.13471 18.3619C5.20198 18.3935 5.27836 18.3999 5.34995 18.3799C14.1399 18.6299 8.57995 18.4499 16.0399 18.3799H16.7799H16.8699C16.9125 18.3575 16.947 18.3223 16.9686 18.2792C16.9901 18.2362 16.9976 18.1875 16.9899 18.1399C17.0899 17.8499 16.9899 17.7599 16.8299 17.7199C16.6699 17.6799 15.8299 17.6199 14.3599 17.4899C12.2776 17.3031 10.1829 17.2998 8.09995 17.4799Z" fill="black"/>
<path fill-rule="evenodd" clip-rule="evenodd" d="M4.79988 5.69996C5.24701 5.83192 5.72274 5.83192 6.16988 5.69996C6.22988 5.69996 6.01988 5.59996 6.74988 6.03996C6.99988 6.19996 8.84988 7.46996 8.92988 8.03996C8.94287 8.11139 8.98051 8.17599 9.03625 8.22251C9.09198 8.26903 9.16228 8.29451 9.23488 8.29451C9.30748 8.29451 9.37777 8.26903 9.43351 8.22251C9.48925 8.17599 9.52689 8.11139 9.53988 8.03996C9.59186 7.78037 9.58657 7.51256 9.52439 7.25521C9.46222 6.99787 9.34465 6.75719 9.17988 6.54996C8.74865 5.99525 8.13639 5.6095 7.44988 5.45996L6.99988 5.29996C7.13735 5.18725 7.25851 5.056 7.35988 4.90996C7.40215 4.83433 7.41487 4.74571 7.39558 4.66124C7.37628 4.57677 7.32634 4.50246 7.25542 4.45269C7.18449 4.40292 7.09763 4.38123 7.01164 4.39181C6.92564 4.40239 6.84662 4.44449 6.78988 4.50996C5.78988 5.88996 2.44988 4.08996 4.22988 1.68996C5.22988 0.189961 8.43988 1.80996 7.29988 4.09996C7.26275 4.17157 7.25558 4.25499 7.27996 4.33188C7.30434 4.40877 7.35827 4.47283 7.42988 4.50996C7.50149 4.54709 7.58491 4.55425 7.6618 4.52987C7.73869 4.5055 7.80275 4.45157 7.83988 4.37996C9.64988 1.13996 5.11988 -1.53004 3.24988 0.999961C2.06988 2.73996 2.49988 4.38996 3.99988 5.29996C3.13764 5.45137 2.35762 5.9052 1.79988 6.57996C1.63913 6.7894 1.52405 7.03019 1.46204 7.28683C1.40004 7.54346 1.39249 7.81023 1.43988 8.06996C1.45287 8.14139 1.49051 8.20599 1.54625 8.25251C1.60198 8.29903 1.67228 8.32451 1.74488 8.32451C1.81748 8.32451 1.88777 8.29903 1.94351 8.25251C1.99925 8.20599 2.03689 8.14139 2.04988 8.06996C2.12988 7.21996 4.65988 5.83996 4.79988 5.69996Z" fill="black"/>
<path fill-rule="evenodd" clip-rule="evenodd" d="M22.2498 6.57996C21.821 6.01208 21.2043 5.61512 20.5098 5.45996L19.9998 5.29996C20.1341 5.18694 20.2519 5.05566 20.3498 4.90996C20.376 4.87319 20.3948 4.83161 20.405 4.78759C20.4152 4.74356 20.4166 4.69796 20.4092 4.65339C20.4018 4.60882 20.3856 4.56615 20.3617 4.52781C20.3378 4.48948 20.3066 4.45622 20.2698 4.42996C20.233 4.4037 20.1914 4.38493 20.1474 4.37474C20.1034 4.36454 20.0578 4.36312 20.0132 4.37055C19.9686 4.37798 19.926 4.39411 19.8876 4.41803C19.8493 4.44195 19.816 4.47319 19.7898 4.50996C18.7898 5.88996 15.4498 4.08996 17.2298 1.68996C18.2298 0.189961 21.4398 1.80996 20.2898 4.09996C20.2714 4.13542 20.2602 4.17415 20.2568 4.21394C20.2533 4.25374 20.2578 4.29381 20.2699 4.33188C20.2942 4.40877 20.3482 4.47283 20.4198 4.50996C20.4552 4.52835 20.494 4.53957 20.5338 4.54298C20.5736 4.5464 20.6136 4.54195 20.6517 4.52987C20.7286 4.5055 20.7927 4.45157 20.8298 4.37996C22.7098 1.13996 18.1798 -1.53004 16.3098 0.999961C15.1298 2.72996 15.5598 4.37996 17.0098 5.28996C16.5219 5.42374 16.0494 5.60807 15.5998 5.83996C15.2054 6.04881 14.8846 6.37369 14.6807 6.7707C14.4768 7.16771 14.3997 7.61773 14.4598 8.05996C14.4728 8.13139 14.5104 8.19599 14.5661 8.24251C14.6219 8.28903 14.6922 8.31451 14.7648 8.31451C14.8374 8.31451 14.9077 8.28903 14.9634 8.24251C15.0192 8.19599 15.0568 8.13139 15.0698 8.05996C15.1998 7.22996 17.7498 5.82996 17.8698 5.70996C18.3131 5.8446 18.7864 5.8446 19.2298 5.70996C19.3798 5.80996 21.8698 7.23996 21.9998 8.01996C22.0128 8.09139 22.0504 8.15599 22.1061 8.20251C22.1619 8.24903 22.2322 8.27451 22.3048 8.27451C22.3774 8.27451 22.4477 8.24903 22.5034 8.20251C22.5592 8.15599 22.5968 8.09139 22.6098 8.01996C22.6501 7.76806 22.6389 7.51062 22.5771 7.26314C22.5152 7.01566 22.4039 6.78327 22.2498 6.57996Z" fill="black"/>
<path fill-rule="evenodd" clip-rule="evenodd" d="M14.1701 14.56C14.7401 13.56 16.6201 12.22 17.3501 10.26C18.1401 12.43 18.2301 12.76 18.4801 12.84C18.5397 12.8468 18.6001 12.8389 18.656 12.8172C18.7119 12.7954 18.7617 12.7604 18.801 12.7152C18.8404 12.6699 18.8682 12.6157 18.8819 12.5573C18.8957 12.499 18.8951 12.4381 18.8801 12.38C18.8801 12.13 18.6801 11.5 18.6601 11.38C18.5101 10.74 18.5601 9.25001 17.6601 8.74001C16.7601 8.23001 14.8201 9.86001 14.2301 9.88001C14.1799 9.87143 14.1284 9.87391 14.0792 9.8873C14.0301 9.90068 13.9844 9.92463 13.9455 9.95749C13.9065 9.99034 13.8752 10.0313 13.8538 10.0775C13.8323 10.1237 13.8212 10.1741 13.8212 10.225C13.8212 10.276 13.8323 10.3263 13.8538 10.3725C13.8752 10.4187 13.9065 10.4597 13.9455 10.4925C13.9844 10.5254 14.0301 10.5493 14.0792 10.5627C14.1284 10.5761 14.1799 10.5786 14.2301 10.57C15.059 10.4542 15.8757 10.2634 16.6701 10C15.9901 11 14.2601 12 13.6101 14.36C13.5905 14.398 13.5792 14.4398 13.577 14.4825C13.5749 14.5252 13.5819 14.5679 13.5976 14.6077C13.6133 14.6475 13.6373 14.6835 13.668 14.7132C13.6987 14.743 13.7355 14.7658 13.7758 14.7802C13.816 14.7946 13.8589 14.8002 13.9016 14.7966C13.9442 14.7931 13.9856 14.7805 14.0229 14.7596C14.0603 14.7388 14.0927 14.7102 14.1181 14.6757C14.1435 14.6413 14.1612 14.6018 14.1701 14.56Z" fill="black"/>
<path fill-rule="evenodd" clip-rule="evenodd" d="M6.14009 8.99999C5.24009 9.53999 5.31009 11 5.14009 11.64C4.97009 12.28 4.66009 13.36 5.32009 13.08C5.56009 13 5.63009 12.73 6.46009 10.5C7.17009 12.42 9.09009 13.86 9.63009 14.8C9.66192 14.8743 9.72194 14.9328 9.79695 14.9628C9.87197 14.9928 9.95583 14.9918 10.0301 14.96C10.1043 14.9282 10.1629 14.8681 10.1929 14.7931C10.2229 14.7181 10.2219 14.6343 10.1901 14.56C9.54009 12.26 7.80009 11.2 7.13009 10.21C7.93224 10.4934 8.75919 10.701 9.60009 10.83C9.65031 10.8386 9.70181 10.8361 9.75097 10.8227C9.80013 10.8093 9.84578 10.7854 9.88472 10.7525C9.92367 10.7197 9.95497 10.6787 9.97644 10.6325C9.99791 10.5863 10.009 10.5359 10.009 10.485C10.009 10.434 9.99791 10.3837 9.97644 10.3375C9.95497 10.2913 9.92367 10.2503 9.88472 10.2175C9.84578 10.1846 9.80013 10.1607 9.75097 10.1473C9.70181 10.1339 9.65031 10.1314 9.60009 10.14C9.00009 10.09 7.00009 8.48999 6.14009 8.99999Z" fill="black"/>
</g>
<defs>
<clipPath id="clip0_36_1181">
<rect width="24" height="24" fill="white"/>
</clipPath>
</defs>
</svg>
