<svg width="24" height="24" viewBox="0 0 24 24" fill="none" xmlns="http://www.w3.org/2000/svg">
<path d="M23.2902 7.61996C22.8727 6.60585 22.2354 5.69692 21.4245 4.95858C20.6135 4.22024 19.649 3.67086 18.6002 3.34996C17.1854 2.91439 15.6748 2.89702 14.2502 3.29996C12.879 3.756 11.7043 4.66611 10.9202 5.87996C10.6585 5.543 10.3485 5.24647 10.0002 4.99996C9.09003 4.38172 7.9976 4.08923 6.90024 4.16996C6.00578 4.33563 5.19451 4.80123 4.60024 5.48996C4.07355 6.08033 3.72659 6.80895 3.60024 7.58996C3.52699 7.58497 3.45349 7.58497 3.38024 7.58996C2.99334 7.60269 2.61134 7.68044 2.25024 7.81996C1.65261 8.04067 1.13165 8.42966 0.750242 8.93996C0.369334 9.44909 0.128034 10.0489 0.0502424 10.68C-0.120131 11.9034 0.168408 13.1466 0.860242 14.17C1.10058 14.5136 1.37901 14.8289 1.69024 15.11C1.89426 15.2991 2.1272 15.4544 2.38024 15.57C2.42202 15.5946 2.46834 15.6105 2.51643 15.6168C2.56451 15.623 2.61337 15.6195 2.66006 15.6065C2.70676 15.5934 2.75033 15.571 2.78817 15.5407C2.826 15.5104 2.85732 15.4727 2.88024 15.43C2.90384 15.3631 2.90592 15.2905 2.8862 15.2223C2.86647 15.1542 2.82593 15.0939 2.77024 15.05C2.50437 14.8996 2.27007 14.6993 2.08024 14.46C1.8894 14.2305 1.7219 13.9826 1.58024 13.72C1.10496 12.847 0.945982 11.8367 1.13024 10.86C1.20695 10.3012 1.43133 9.77306 1.78024 9.32996C2.01126 9.0369 2.30073 8.7951 2.63024 8.61996C2.96485 8.44123 3.33228 8.33236 3.71024 8.29996C4.11567 8.25513 4.52481 8.25513 4.93024 8.29996C4.96707 8.30714 5.00497 8.30685 5.04168 8.2991C5.07839 8.29135 5.11317 8.2763 5.14395 8.25485C5.17474 8.2334 5.20089 8.20597 5.22087 8.17421C5.24085 8.14245 5.25424 8.107 5.26024 8.06996C5.2644 8.03289 5.26084 7.99537 5.24978 7.95975C5.23872 7.92413 5.22039 7.89119 5.19596 7.863C5.17154 7.83481 5.14153 7.81199 5.10785 7.79598C5.07416 7.77997 5.03752 7.77111 5.00024 7.76996C4.73329 7.70223 4.4629 7.64882 4.19024 7.60996C4.39334 7.03156 4.73697 6.51268 5.19024 6.09996C5.68005 5.62163 6.31874 5.32523 7.00024 5.25996C7.50264 5.20541 8.01088 5.25999 8.49024 5.41996C8.99376 5.56607 9.46765 5.79963 9.89024 6.10996C10.1721 6.29726 10.4082 6.54545 10.5813 6.83623C10.7544 7.127 10.86 7.45293 10.8902 7.78996C10.8819 7.83741 10.884 7.88612 10.8965 7.93265C10.909 7.97919 10.9315 8.02243 10.9625 8.05934C10.9934 8.09624 11.0321 8.12592 11.0758 8.14628C11.1195 8.16664 11.1671 8.17719 11.2152 8.17719C11.2634 8.17719 11.311 8.16664 11.3547 8.14628C11.3984 8.12592 11.437 8.09624 11.468 8.05934C11.499 8.02243 11.5215 7.97919 11.534 7.93265C11.5465 7.88612 11.5486 7.83741 11.5402 7.78996C11.579 7.29003 11.4713 6.78964 11.2302 6.34996C11.2722 6.33114 11.3071 6.29966 11.3302 6.25996C12.0878 5.18437 13.1992 4.40921 14.4702 4.06996C15.7392 3.78426 17.0642 3.87816 18.2802 4.33996C19.1731 4.6312 19.9927 5.1116 20.683 5.74841C21.3733 6.38521 21.9181 7.16343 22.2802 8.02996C23.1044 9.77927 23.2747 11.7659 22.7602 13.63C22.6458 14.0276 22.4847 14.4102 22.2802 14.77C22.0835 15.1012 21.7953 15.3686 21.4502 15.54C21.3741 15.5806 21.3162 15.6486 21.2883 15.7303C21.2604 15.812 21.2647 15.9013 21.3002 15.98C21.3408 16.0561 21.4089 16.114 21.4906 16.1419C21.5723 16.1698 21.6616 16.1655 21.7402 16.13C22.1065 15.9591 22.4308 15.7099 22.6902 15.4C23.0401 14.9469 23.3075 14.4357 23.4802 13.89C24.193 11.8482 24.1254 9.61485 23.2902 7.61996Z" fill="black"/>
<path d="M8.40013 14.74C8.3333 14.598 8.25644 14.461 8.17013 14.33C8.08468 14.1894 7.98408 14.0586 7.87013 13.94L7.30013 13.45C7.08559 13.2815 6.82382 13.1842 6.55133 13.1717C6.27885 13.1591 6.00924 13.232 5.78013 13.38C5.44471 13.6127 5.18138 13.9349 5.02013 14.31C4.81366 14.767 4.66258 15.2471 4.57013 15.74C4.35333 16.8904 4.30952 18.0667 4.44013 19.23C4.44013 19.74 4.58013 20.23 4.68013 20.75C4.68378 20.7878 4.69509 20.8245 4.71337 20.8578C4.73165 20.8911 4.75651 20.9203 4.78645 20.9437C4.81638 20.9671 4.85076 20.9841 4.8875 20.9938C4.92423 21.0035 4.96255 21.0056 5.00013 21C5.07621 20.9876 5.14463 20.9465 5.19117 20.885C5.23772 20.8236 5.25883 20.7466 5.25013 20.67C5.17833 20.1799 5.14157 19.6853 5.14013 19.19C5.14013 18.83 5.14013 18.46 5.19013 18.1C5.45769 18.1507 5.72825 18.1841 6.00013 18.2C6.19316 18.2151 6.38709 18.2151 6.58013 18.2C6.77333 18.2099 6.96692 18.2099 7.16013 18.2C7.53335 18.1527 7.90386 18.0859 8.27013 18C8.3582 18.7202 8.40827 19.4445 8.42013 20.17C8.43358 20.2464 8.47354 20.3156 8.53298 20.3655C8.59241 20.4154 8.66753 20.4428 8.74513 20.4428C8.82272 20.4428 8.89784 20.4154 8.95728 20.3655C9.01671 20.3156 9.05667 20.2464 9.07013 20.17C9.14354 19.0801 9.12011 17.9858 9.00013 16.9C8.90096 16.1557 8.69903 15.4288 8.40013 14.74ZM7.08013 17.14H6.50013C6.3104 17.1254 6.11985 17.1254 5.93013 17.14C5.71772 17.1612 5.50716 17.198 5.30013 17.25C5.30013 17.05 5.36013 16.84 5.40013 16.64C5.44013 16.44 5.50013 16.18 5.56013 15.95C5.67512 15.4735 5.85692 15.0156 6.10013 14.59C6.24013 14.36 6.43013 14.17 6.71013 14.35C7.18013 14.73 7.00013 14.54 7.48013 15.19C7.7853 15.7684 8.00428 16.3883 8.13013 17.03V17.22L7.08013 17.14Z" fill="black"/>
<path d="M14.0001 13.1599C13.3876 13.0588 12.7626 13.0588 12.1501 13.1599C11.7502 13.1641 11.3542 13.2386 10.9801 13.3799C10.7507 13.4875 10.559 13.6618 10.4301 13.8799C10.3459 14.0243 10.2915 14.1841 10.2701 14.3499C10.2452 14.616 10.2452 14.8838 10.2701 15.1499L10.4801 17.3899L10.7701 20.4599C10.7701 20.5368 10.8007 20.6106 10.855 20.665C10.9094 20.7194 10.9832 20.7499 11.0601 20.7499C11.137 20.7499 11.2108 20.7194 11.2652 20.665C11.3196 20.6106 11.3501 20.5368 11.3501 20.4599V17.3599V17.2699C12.4659 17.4654 13.614 17.2178 14.5501 16.5799C14.7515 16.4649 14.9282 16.3111 15.07 16.1275C15.2118 15.9439 15.3158 15.7341 15.3763 15.5101C15.4367 15.2861 15.4522 15.0524 15.422 14.8224C15.3917 14.5924 15.3163 14.3707 15.2001 14.1699C15.0846 13.9251 14.9176 13.7081 14.7105 13.5338C14.5034 13.3595 14.2611 13.232 14.0001 13.1599ZM13.6001 16.0699C12.9427 16.4841 12.1581 16.6474 11.3901 16.5299H11.3001V15.1099V14.6299C11.3035 14.5467 11.3239 14.465 11.3601 14.3899C11.4101 14.3099 11.5101 14.2999 11.6001 14.2799C11.8079 14.2411 12.0187 14.221 12.2301 14.2199C12.7202 14.1402 13.22 14.1402 13.7101 14.2199C13.8264 14.2433 13.9364 14.291 14.033 14.36C14.1295 14.4289 14.2103 14.5175 14.2701 14.6199C14.6301 15.2099 14.1601 15.7199 13.5701 16.0699H13.6001Z" fill="black"/>
<path d="M20.4903 13.69C19.8998 13.5543 19.2962 13.4839 18.6903 13.48C18.355 13.482 18.0205 13.5121 17.6903 13.57C17.1803 13.65 16.6903 13.79 16.1803 13.85C16.1051 13.8499 16.0328 13.8791 15.9787 13.9314C15.9246 13.9836 15.8929 14.0548 15.8903 14.13C15.8876 14.1676 15.8925 14.2053 15.9047 14.241C15.917 14.2766 15.9362 14.3094 15.9615 14.3374C15.9867 14.3655 16.0173 14.3881 16.0514 14.404C16.0856 14.4199 16.1226 14.4287 16.1603 14.43C16.7457 14.5535 17.3421 14.6172 17.9403 14.62H18.2203C18.1703 15.21 18.0903 15.8 18.0603 16.42V17.7V19.43C17.8419 19.4452 17.6247 19.4753 17.4103 19.52C16.9403 19.63 16.5003 19.8 16.0103 19.89C15.9439 19.9025 15.8839 19.9378 15.8407 19.9898C15.7975 20.0419 15.7739 20.1074 15.7739 20.175C15.7739 20.2426 15.7975 20.3081 15.8407 20.3601C15.8839 20.4122 15.9439 20.4475 16.0103 20.46C16.4444 20.5182 16.8825 20.5416 17.3203 20.53H18.1103C18.3803 20.53 18.8403 20.53 19.2103 20.47C19.6064 20.4569 20.0009 20.4134 20.3903 20.34C20.4378 20.3483 20.4865 20.3462 20.533 20.3337C20.5795 20.3212 20.6228 20.2987 20.6597 20.2677C20.6966 20.2368 20.7263 20.1981 20.7466 20.1544C20.767 20.1108 20.7775 20.0632 20.7775 20.015C20.7775 19.9668 20.767 19.9192 20.7466 19.8755C20.7263 19.8319 20.6966 19.7932 20.6597 19.7622C20.6228 19.7312 20.5795 19.7087 20.533 19.6962C20.4865 19.6838 20.4378 19.6816 20.3903 19.69C19.8703 19.69 19.3903 19.52 18.8303 19.46C18.9236 18.9144 18.9804 18.3631 19.0003 17.81C19.0003 17.53 19.0603 17.25 19.0803 16.97C19.1003 16.69 19.0803 16.41 19.0803 16.13C19.0278 15.5962 18.9477 15.0655 18.8403 14.54H18.9203C19.4161 14.4472 19.917 14.3837 20.4203 14.35C20.5063 14.3555 20.591 14.3273 20.6564 14.2712C20.7218 14.2152 20.7627 14.1358 20.7703 14.05C20.7759 14.0079 20.7731 13.9651 20.762 13.9242C20.7509 13.8832 20.7317 13.8449 20.7057 13.8113C20.6796 13.7778 20.6472 13.7499 20.6102 13.729C20.5732 13.7082 20.5325 13.6949 20.4903 13.69Z" fill="black"/>
</svg>
