<svg width="24" height="24" viewBox="0 0 24 24" fill="none" xmlns="http://www.w3.org/2000/svg">
<g clip-path="url(#clip0_36_940)">
<path fill-rule="evenodd" clip-rule="evenodd" d="M22.2601 4.8299C22.0195 4.66615 21.7305 4.58861 21.4401 4.6099C19.7238 4.6818 18.0137 4.86216 16.3201 5.1499C16.283 5.17568 16.2527 5.21006 16.2317 5.25012C16.2108 5.29017 16.1998 5.3347 16.1998 5.3799C16.1998 5.4251 16.2108 5.46963 16.2317 5.50968C16.2527 5.54974 16.283 5.58412 16.3201 5.6099C16.4801 5.7399 16.1501 5.6099 18.5601 5.5299C18.4484 5.82451 18.4021 6.13993 18.4246 6.45423C18.447 6.76853 18.5376 7.07417 18.6901 7.3499C18.7092 7.42474 18.7546 7.49017 18.8181 7.53412C18.8816 7.57807 18.9589 7.59758 19.0356 7.58906C19.1124 7.58053 19.1834 7.54454 19.2357 7.48772C19.288 7.4309 19.318 7.35709 19.3201 7.2799C19.4101 6.5799 19.6601 6.3899 19.3201 5.4999H20.9701C21.6901 5.4999 21.6801 5.2699 21.7801 6.2099C21.8515 7.04171 21.8515 7.87809 21.7801 8.7099C21.6701 9.2799 21.4701 9.3499 21.1901 9.4199C20.7736 9.49538 20.3528 9.54547 19.9301 9.5699C19.1301 9.7099 16.8001 10.1199 16.2401 9.3099C16.0255 8.96587 15.8984 8.57444 15.8701 8.1699C15.6701 6.6199 16.2201 5.6499 15.8701 5.4599C15.7301 5.3799 15.4701 5.3899 15.3601 5.7199C15.2501 6.0499 15.2401 6.5799 15.2101 6.7199C15.0079 7.73368 15.1376 8.78564 15.5801 9.7199C16.3501 10.9699 18.7501 10.7199 20.1201 10.5599C20.8601 10.4599 22.0101 10.5599 22.5501 9.7099C22.8648 9.09321 22.9933 8.39834 22.9201 7.7099C22.8301 6.9099 22.7901 5.4099 22.2601 4.8299Z" fill="black"/>
<path fill-rule="evenodd" clip-rule="evenodd" d="M15.6098 4.47994C15.6098 1.47994 19.1798 0.109944 20.6898 1.78994C21.1223 2.25417 21.3895 2.84827 21.4498 3.47994C21.4498 3.56481 21.4835 3.64621 21.5435 3.70622C21.6035 3.76623 21.6849 3.79994 21.7698 3.79994C21.8546 3.79994 21.936 3.76623 21.996 3.70622C22.056 3.64621 22.0898 3.56481 22.0898 3.47994C22.1248 2.65272 21.8549 1.84142 21.3314 1.19995C20.8079 0.558488 20.0672 0.131482 19.2498 -5.55441e-05C18.3805 -0.0739027 17.5119 0.148854 16.7856 0.631904C16.0592 1.11495 15.5178 1.82981 15.2498 2.65994C15.0618 3.24708 14.9938 3.86601 15.0498 4.47994C15.0498 4.55421 15.0793 4.62542 15.1318 4.67793C15.1843 4.73044 15.2555 4.75994 15.3298 4.75994C15.404 4.75994 15.4752 4.73044 15.5277 4.67793C15.5803 4.62542 15.6098 4.55421 15.6098 4.47994Z" fill="black"/>
<path fill-rule="evenodd" clip-rule="evenodd" d="M7.17006 11.12C7.30512 10.9324 7.3628 10.7 7.33115 10.471C7.2995 10.242 7.18094 10.034 7.00006 9.89C6.82772 9.78149 6.62117 9.741 6.42062 9.7764C6.22006 9.81181 6.03986 9.92057 5.91509 10.0815C5.79031 10.2425 5.7299 10.4441 5.74561 10.6472C5.76132 10.8502 5.85202 11.0401 6.00006 11.18C6.32006 11.63 6.80006 11.53 7.17006 11.12Z" fill="black"/>
<path fill-rule="evenodd" clip-rule="evenodd" d="M6.00002 16.2899C6.36002 16.7399 6.85002 16.6299 7.22002 16.2299C7.34728 16.0356 7.39539 15.7999 7.35449 15.5712C7.31359 15.3425 7.18676 15.1381 7.00002 14.9999C6.82769 14.9111 6.62969 14.8853 6.44037 14.9272C6.25105 14.969 6.08236 15.0758 5.96357 15.2291C5.84478 15.3823 5.78338 15.5723 5.79004 15.7661C5.7967 15.9599 5.87099 16.1452 6.00002 16.2899Z" fill="black"/>
<path fill-rule="evenodd" clip-rule="evenodd" d="M6.06 21.12C6.42 21.56 6.91 21.46 7.28 21.06C7.41075 20.8675 7.46191 20.632 7.42276 20.4027C7.38361 20.1733 7.25718 19.9681 7.07 19.83C6.89811 19.7074 6.68556 19.6558 6.47662 19.686C6.26767 19.7163 6.07843 19.8259 5.94828 19.9921C5.81813 20.1583 5.75711 20.3684 5.77792 20.5784C5.79873 20.7885 5.89977 20.9825 6.06 21.12Z" fill="black"/>
<path fill-rule="evenodd" clip-rule="evenodd" d="M4.53009 11.3499C4.65948 11.1579 4.71082 10.9238 4.67366 10.6953C4.63651 10.4668 4.51364 10.261 4.33009 10.1199C4.15777 10.031 3.95977 10.0053 3.77045 10.0472C3.58113 10.089 3.41244 10.1958 3.29365 10.3491C3.17485 10.5023 3.11346 10.6923 3.12012 10.8861C3.12678 11.0799 3.20107 11.2652 3.33009 11.4099C3.67009 11.8599 4.16009 11.7599 4.53009 11.3499Z" fill="black"/>
<path fill-rule="evenodd" clip-rule="evenodd" d="M3.42991 16.27C3.78991 16.71 4.26991 16.61 4.63991 16.21C4.76571 16.0204 4.81502 15.7902 4.77791 15.5657C4.7408 15.3412 4.62003 15.139 4.43991 15C4.26968 14.9011 4.06956 14.8668 3.8761 14.9032C3.68264 14.9397 3.50876 15.0446 3.38622 15.1986C3.26368 15.3527 3.20067 15.5457 3.20869 15.7424C3.21671 15.9392 3.29523 16.1264 3.42991 16.27Z" fill="black"/>
<path fill-rule="evenodd" clip-rule="evenodd" d="M3.52968 21.09C3.88968 21.54 4.37968 21.44 4.74968 21.03C4.88148 20.8387 4.93426 20.604 4.89699 20.3747C4.85972 20.1455 4.73528 19.9396 4.54968 19.8C4.37689 19.6982 4.17309 19.6623 3.97595 19.6992C3.77881 19.736 3.60166 19.843 3.47728 20.0003C3.35289 20.1576 3.28966 20.3546 3.2993 20.5549C3.30893 20.7553 3.39077 20.9453 3.52968 21.09Z" fill="black"/>
<path fill-rule="evenodd" clip-rule="evenodd" d="M16.5999 13.1199C16.2499 19.6399 16.2199 21.7799 15.7199 22.2399C15.2714 22.5638 14.7488 22.7701 14.1999 22.8399C13.5599 22.9299 13.6999 22.9099 5.73991 22.7899C5.22991 22.7899 2.84992 22.9099 2.57992 22.3699C2.14992 21.5299 2.18992 19.1099 2.16992 18.1499C2.60992 18.2299 2.70992 18.1499 3.04992 18.1499C5.69742 18.5413 8.37759 18.6653 11.0499 18.5199C12.2599 18.4299 15.5499 18.2699 15.8399 17.8599C15.877 17.824 15.9044 17.7793 15.9199 17.7301C15.9353 17.6808 15.9382 17.6285 15.9282 17.5778C15.9183 17.5271 15.8959 17.4798 15.863 17.44C15.8301 17.4002 15.7878 17.3692 15.7399 17.3499C15.1714 17.3 14.5987 17.3337 14.0399 17.4499C11.7099 17.4499 4.53992 17.3199 2.21992 17.5099C2.10992 17.5099 2.15992 18.1099 2.03992 10.5099C2.03992 9.21992 2.20992 9.23992 2.03992 9.06992C1.98984 9.02281 1.92367 8.99658 1.85492 8.99658C1.78616 8.99658 1.71999 9.02281 1.66992 9.06992C1.37992 9.26992 1.44992 9.55992 1.18992 19.8899C1.15473 20.8863 1.29347 21.8812 1.59992 22.8299C2.13992 24.0999 4.39991 23.9999 5.73991 23.9999C13.4299 23.9999 13.7399 24.0599 14.6599 23.8499C15.364 23.6967 16.0115 23.3504 16.5299 22.8499C17.2899 21.9499 17.1499 19.6299 17.2999 13.1499C17.3039 13.0571 17.2708 12.9665 17.208 12.898C17.1452 12.8296 17.0577 12.7889 16.9649 12.7849C16.8721 12.7809 16.7815 12.814 16.713 12.8768C16.6446 12.9397 16.6039 13.0271 16.5999 13.1199Z" fill="black"/>
<path fill-rule="evenodd" clip-rule="evenodd" d="M3.09977 8.66993C6.30582 8.81649 9.51838 8.71954 12.7098 8.37993C12.792 8.37993 12.8708 8.34727 12.929 8.28913C12.9871 8.231 13.0198 8.15215 13.0198 8.06993C13.0198 7.98771 12.9871 7.90886 12.929 7.85073C12.8708 7.79259 12.792 7.75993 12.7098 7.75993C11.1071 7.5712 9.49316 7.49435 7.87977 7.52993C5.78977 7.58993 3.26977 7.99993 3.09977 7.99993C3.03249 8.0264 2.97475 8.07251 2.93405 8.13226C2.89335 8.19201 2.87158 8.26264 2.87158 8.33493C2.87158 8.40723 2.89335 8.47785 2.93405 8.5376C2.97475 8.59735 3.03249 8.64346 3.09977 8.66993Z" fill="black"/>
<path fill-rule="evenodd" clip-rule="evenodd" d="M8.89976 12.59C7.89976 12.59 3.76976 12.66 3.39976 12.73C3.3202 12.7087 3.23546 12.72 3.1642 12.7613C3.09293 12.8025 3.04098 12.8704 3.01976 12.95C2.99854 13.0295 3.0098 13.1143 3.05106 13.1855C3.09232 13.2568 3.1602 13.3087 3.23976 13.33C3.31976 13.33 7.13976 13.79 8.89976 13.78C11.0998 13.78 13.0698 13.57 14.5698 13.44C14.6626 13.44 14.7516 13.4031 14.8172 13.3375C14.8829 13.2718 14.9198 13.1828 14.9198 13.09C14.9198 12.9971 14.8829 12.9081 14.8172 12.8425C14.7516 12.7768 14.6626 12.74 14.5698 12.74C14.5698 12.74 9.84976 12.6 8.89976 12.59Z" fill="black"/>
</g>
<defs>
<clipPath id="clip0_36_940">
<rect width="24" height="24" fill="white"/>
</clipPath>
</defs>
</svg>
