<svg width="24" height="24" viewBox="0 0 24 24" fill="none" xmlns="http://www.w3.org/2000/svg">
<g clip-path="url(#clip0_36_647)">
<path fill-rule="evenodd" clip-rule="evenodd" d="M20.7401 0.440008C20.4711 0.595055 20.2225 0.783185 20.0001 1.00001C19.9393 1.04751 19.8992 1.11663 19.888 1.19298C19.8768 1.26934 19.8955 1.34707 19.9401 1.41001C20.1801 1.73001 20.4401 1.35001 20.9401 1.17001C21.7901 0.840008 23.0001 2.00001 23.0001 2.47001C23.0121 3.03222 22.8122 3.57838 22.4401 4.00001C22.5301 4.00001 20.4401 2.42001 19.8501 1.83001C19.8194 1.79887 19.7829 1.77414 19.7425 1.75726C19.7022 1.74038 19.6589 1.73169 19.6151 1.73169C19.5714 1.73169 19.5281 1.74038 19.4878 1.75726C19.4474 1.77414 19.4108 1.79887 19.3801 1.83001C18.9801 2.24001 19.6701 2.47001 21.8401 4.57001C21.5201 5.04001 21.4401 5.06001 17.8901 8.72001C17.6922 8.26113 17.4031 7.84725 17.0404 7.50345C16.6777 7.15966 16.2489 6.89312 15.7801 6.72001C16.9101 5.32001 19.0901 2.81001 19.0001 2.92001C19.0341 2.85622 19.0439 2.78231 19.0277 2.71188C19.0115 2.64145 18.9705 2.57922 18.9121 2.53665C18.8537 2.49407 18.7819 2.474 18.7099 2.48013C18.6379 2.48626 18.5705 2.51817 18.5201 2.57001C15.6501 5.57001 14.0401 7.17001 13.9801 7.67001C13.7401 9.83001 13.5801 10.83 13.8901 11.16C14.4901 11.81 16.8901 11.08 17.4001 10.76C19.6173 8.57028 21.6821 6.23149 23.5801 3.76001C25.0001 1.47001 22.3601 -0.419992 20.7401 0.440008ZM16.8001 9.81001C16.1671 10.0935 15.4911 10.2692 14.8001 10.33C14.8001 8.61001 14.9901 7.90001 14.9101 7.87001C14.8301 7.84001 15.0301 7.67001 15.1501 7.51001L15.3101 7.30001C15.9001 8.03923 16.5709 8.71008 17.3101 9.30001C17.1498 9.47942 16.9795 9.64968 16.8001 9.81001Z" fill="black"/>
<path fill-rule="evenodd" clip-rule="evenodd" d="M5.7597 11.45C5.88309 11.2667 5.93115 11.0428 5.89391 10.825C5.85667 10.6071 5.73699 10.412 5.5597 10.28C5.39659 10.1474 5.18748 10.085 4.97838 10.1066C4.76928 10.1282 4.57731 10.2319 4.4447 10.395C4.31209 10.5581 4.24971 10.7672 4.27127 10.9763C4.29284 11.1854 4.39659 11.3774 4.5597 11.51C4.9397 11.94 5.3997 11.84 5.7597 11.45Z" fill="black"/>
<path fill-rule="evenodd" clip-rule="evenodd" d="M4.58971 16.4C4.92971 16.82 5.39971 16.72 5.74971 16.34C5.8772 16.1571 5.92864 15.9318 5.8932 15.7116C5.85775 15.4915 5.73818 15.2937 5.55971 15.16C5.39404 15.0517 5.19374 15.0095 4.99846 15.0418C4.80317 15.0742 4.62713 15.1786 4.50517 15.3345C4.38321 15.4904 4.32422 15.6864 4.33988 15.8837C4.35554 16.0811 4.4447 16.2653 4.58971 16.4Z" fill="black"/>
<path fill-rule="evenodd" clip-rule="evenodd" d="M4.68979 21C5.03979 21.43 5.49979 21.33 5.85979 20.94C5.98318 20.7567 6.03124 20.5328 5.994 20.315C5.95676 20.0971 5.83708 19.902 5.65979 19.77C5.49509 19.672 5.30039 19.6372 5.11195 19.6721C4.92351 19.7071 4.75418 19.8093 4.63551 19.9597C4.51683 20.1102 4.45691 20.2987 4.46689 20.4901C4.47688 20.6815 4.5561 20.8627 4.68979 21Z" fill="black"/>
<path fill-rule="evenodd" clip-rule="evenodd" d="M3.23013 11.67C3.35298 11.4838 3.39772 11.2568 3.3547 11.0379C3.31167 10.819 3.18432 10.6258 3.00013 10.5C2.83702 10.3674 2.62791 10.305 2.41881 10.3266C2.20971 10.3481 2.01774 10.4519 1.88513 10.615C1.75252 10.7781 1.69014 10.9872 1.7117 11.1963C1.73327 11.4054 1.83702 11.5974 2.00013 11.73C2.41013 12.16 2.87013 12.06 3.23013 11.67Z" fill="black"/>
<path fill-rule="evenodd" clip-rule="evenodd" d="M2.16977 16.37C2.51977 16.8 2.97977 16.7 3.33977 16.32C3.46375 16.1351 3.51211 15.9097 3.47491 15.6902C3.4377 15.4707 3.31776 15.2738 3.13977 15.14C2.97507 15.042 2.78037 15.0072 2.59193 15.0421C2.40349 15.077 2.23416 15.1793 2.11549 15.3297C1.99681 15.4802 1.93689 15.6687 1.94687 15.8601C1.95686 16.0515 2.03608 16.2327 2.16977 16.37Z" fill="black"/>
<path fill-rule="evenodd" clip-rule="evenodd" d="M2.28014 21C2.62014 21.42 3.09014 21.33 3.44014 20.94C3.56763 20.7571 3.61907 20.5318 3.58363 20.3116C3.54818 20.0915 3.42861 19.8937 3.25014 19.76C3.08447 19.6517 2.88417 19.6095 2.68889 19.6418C2.4936 19.6741 2.31756 19.7786 2.1956 19.9345C2.07364 20.0904 2.01465 20.2864 2.03031 20.4837C2.04597 20.681 2.13513 20.8653 2.28014 21Z" fill="black"/>
<path fill-rule="evenodd" clip-rule="evenodd" d="M14.7699 13.37C14.4399 19.6 14.3999 21.65 13.9299 22.09C13.4966 22.3955 12.9956 22.5911 12.4699 22.66C11.8599 22.75 11.9599 22.72 4.3799 22.61C3.8999 22.61 1.6299 22.73 1.3799 22.21C0.959901 21.41 0.999901 19.08 0.979901 18.21C1.25958 18.2289 1.54022 18.2289 1.8199 18.21C4.35496 18.5839 6.92095 18.7045 9.4799 18.57C10.6399 18.48 13.7899 18.33 14.0599 17.94C14.1999 17.74 14.1899 17.58 13.9699 17.45C13.4251 17.4016 12.8761 17.4319 12.3399 17.54C10.1099 17.54 3.2599 17.42 1.0399 17.6C0.939901 17.6 0.979901 18.17 0.869901 10.96C0.869901 9.71997 1.0299 9.73997 0.869901 9.56997C0.820239 9.53021 0.758518 9.50854 0.694901 9.50854C0.631283 9.50854 0.569562 9.53021 0.519901 9.56997C0.249901 9.76997 0.309901 9.96997 0.0599009 19.92C0.0182333 20.8718 0.146921 21.8234 0.439901 22.73C0.999901 23.9 3.1599 23.8 4.4399 23.8C11.8099 23.8 12.1499 23.8 12.9699 23.66C13.6428 23.5146 14.2623 23.1858 14.7599 22.71C15.4899 21.84 15.3499 19.61 15.4999 13.43C15.5079 13.3332 15.477 13.2372 15.4142 13.1631C15.3514 13.089 15.2617 13.0429 15.1649 13.035C15.0681 13.027 14.9721 13.0578 14.898 13.1207C14.8239 13.1835 14.7779 13.2732 14.7699 13.37Z" fill="black"/>
<path fill-rule="evenodd" clip-rule="evenodd" d="M1.85977 9.11007C4.92573 9.255 7.99831 9.16138 11.0498 8.83007C11.093 8.83807 11.1376 8.83645 11.1802 8.82532C11.2227 8.8142 11.2624 8.79383 11.2962 8.76568C11.33 8.73753 11.3573 8.70227 11.3759 8.66242C11.3946 8.62256 11.4043 8.57909 11.4043 8.53507C11.4043 8.49105 11.3946 8.44757 11.3759 8.40772C11.3573 8.36787 11.33 8.33261 11.2962 8.30446C11.2624 8.2763 11.2227 8.25594 11.1802 8.24481C11.1376 8.23369 11.093 8.23207 11.0498 8.24007C9.52055 8.05298 7.98014 7.97278 6.43977 8.00007C4.50977 8.06007 1.96977 8.40007 1.85977 8.41007C1.76694 8.41007 1.67792 8.44694 1.61228 8.51258C1.54664 8.57822 1.50977 8.66724 1.50977 8.76007C1.50977 8.8529 1.54664 8.94192 1.61228 9.00756C1.67792 9.07319 1.76694 9.11007 1.85977 9.11007Z" fill="black"/>
<path fill-rule="evenodd" clip-rule="evenodd" d="M7.40997 12.86C6.40997 12.86 2.49997 12.92 2.14997 12.99C2.07929 12.9821 2.00812 12.9997 1.94916 13.0394C1.8902 13.0792 1.84728 13.1386 1.82806 13.2071C1.80884 13.2756 1.81457 13.3486 1.84422 13.4133C1.87388 13.4779 1.92554 13.5299 1.98997 13.56C2.06997 13.56 5.71997 14.01 7.40997 14C9.52997 14 11.41 13.8 12.83 13.67C12.9089 13.6563 12.9805 13.6152 13.032 13.5539C13.0836 13.4926 13.1119 13.4151 13.1119 13.335C13.1119 13.2549 13.0836 13.1774 13.032 13.1161C12.9805 13.0548 12.9089 13.0137 12.83 13C12.83 13 8.31997 12.87 7.40997 12.86Z" fill="black"/>
</g>
<defs>
<clipPath id="clip0_36_647">
<rect width="24" height="24" fill="white"/>
</clipPath>
</defs>
</svg>
