<svg width="24" height="24" viewBox="0 0 24 24" fill="none" xmlns="http://www.w3.org/2000/svg">
<g clip-path="url(#clip0_36_1163)">
<path fill-rule="evenodd" clip-rule="evenodd" d="M16.5896 9.78995C16.5761 9.60273 16.5392 9.41795 16.4796 9.23995C16.3196 9.01995 15.9396 9.09995 15.8996 9.47995C15.8746 9.66578 15.8746 9.85412 15.8996 10.04C16.1696 13.04 16.0996 13.37 16.5296 13.61C16.7002 13.7013 16.8995 13.7232 17.0859 13.671C17.2723 13.6188 17.4313 13.4966 17.5296 13.33C17.7969 12.9146 18.0118 12.4679 18.1696 12C18.5954 12.643 19.0993 13.2308 19.6696 13.75C19.7566 13.799 19.8549 13.8244 19.9548 13.8234C20.0547 13.8225 20.1525 13.7954 20.2386 13.7448C20.3247 13.6941 20.396 13.6218 20.4453 13.5349C20.4946 13.4481 20.5202 13.3498 20.5196 13.25C20.5196 13.02 20.5196 13.66 20.4296 10.67V9.26995C20.3796 9.02995 19.8896 8.68995 19.7596 9.26995C19.6996 9.55995 19.5796 11.65 19.5596 11.95C19.2963 11.5935 19.0526 11.2229 18.8296 10.84C18.7782 10.7507 18.7093 10.6728 18.6269 10.611C18.5445 10.5492 18.4504 10.5048 18.3504 10.4805C18.2503 10.4562 18.1463 10.4525 18.0448 10.4696C17.9432 10.4867 17.8462 10.5242 17.7596 10.58C17.5368 10.7784 17.3565 11.0199 17.2296 11.29C17.1796 11.41 17.0896 11.72 16.9696 12.04C17.0281 11.2702 16.8976 10.4978 16.5896 9.78995Z" fill="black"/>
<path fill-rule="evenodd" clip-rule="evenodd" d="M9.68975 9.78995C9.67627 9.60273 9.63931 9.41795 9.57975 9.23995C9.41975 8.99995 8.99975 9.09995 8.99975 9.47995C8.98251 9.65286 8.98251 9.82705 8.99975 9.99995C9.26975 13 9.19975 13.33 9.62975 13.57C9.80036 13.6613 9.99968 13.6832 10.186 13.631C10.3724 13.5788 10.5314 13.4566 10.6297 13.29C10.8934 12.8853 11.1114 12.4526 11.2797 12C11.7005 12.6439 12.2011 13.2319 12.7697 13.75C12.8567 13.799 12.9551 13.8244 13.0549 13.8234C13.1548 13.8225 13.2527 13.7954 13.3388 13.7448C13.4248 13.6941 13.4961 13.6218 13.5454 13.5349C13.5947 13.4481 13.6204 13.3498 13.6197 13.25C13.6197 13.02 13.6197 13.66 13.5297 10.67V9.26995C13.5297 9.02995 12.9897 8.68995 12.8597 9.26995C12.7997 9.55995 12.6797 11.64 12.6597 11.95C12.3965 11.5935 12.1528 11.2229 11.9297 10.84C11.8784 10.7507 11.8094 10.6728 11.727 10.611C11.6446 10.5492 11.5506 10.5048 11.4505 10.4805C11.3504 10.4562 11.2465 10.4525 11.1449 10.4696C11.0434 10.4867 10.9463 10.5242 10.8597 10.58C10.6358 10.7751 10.4582 11.0176 10.3397 11.29C10.2797 11.41 10.1897 11.72 10.0697 12.04C10.1282 11.2702 9.99775 10.4978 9.68975 9.78995Z" fill="black"/>
<path fill-rule="evenodd" clip-rule="evenodd" d="M3.16992 9.78995C3.16992 9.69995 3.16992 9.33995 3.04992 9.23995C2.92992 9.13995 2.50992 9.09995 2.46992 9.47995C2.44492 9.66578 2.44492 9.85412 2.46992 10.04C2.72992 13.04 2.65992 13.37 3.09992 13.61C3.26999 13.7039 3.47019 13.7272 3.65728 13.6748C3.84438 13.6224 4.00337 13.4986 4.09992 13.33C4.37368 12.9169 4.5922 12.4697 4.74992 12C5.17575 12.643 5.67959 13.2308 6.24992 13.75C6.33661 13.7966 6.4339 13.82 6.5323 13.8178C6.63071 13.8157 6.72689 13.7881 6.81147 13.7378C6.89605 13.6874 6.96616 13.616 7.01495 13.5305C7.06375 13.445 7.08958 13.3484 7.08992 13.25C7.08992 13.03 7.08992 13.66 7.00992 10.67V9.26995C7.00992 9.02995 6.46992 8.68995 6.33992 9.26995C6.27992 9.55995 6.15992 11.64 6.13992 11.95C5.39992 10.95 5.57992 11.07 5.39992 10.84C5.34856 10.7507 5.27959 10.6728 5.1972 10.611C5.11482 10.5492 5.02074 10.5048 4.92067 10.4805C4.8206 10.4562 4.71664 10.4525 4.61509 10.4696C4.51354 10.4867 4.41652 10.5242 4.32992 10.58C4.11288 10.7813 3.93637 11.0223 3.80992 11.29C3.74992 11.41 3.65992 11.72 3.54992 12.04C3.60362 11.2704 3.47336 10.4992 3.16992 9.78995Z" fill="black"/>
<path fill-rule="evenodd" clip-rule="evenodd" d="M15.2701 5.50997C15.2701 5.70997 12.8501 5.24997 8.70007 5.31997C8.99602 4.7006 9.35099 4.1112 9.76007 3.55997C10.0001 3.13997 11.0001 2.46997 11.0701 2.07997C11.1401 1.68997 10.0001 1.73997 9.66007 2.09997C8.64618 2.94297 7.91645 4.07771 7.57007 5.34997C6.70007 5.34997 5.87007 5.45997 5.10007 5.54997C4.10007 5.69997 3.41007 6.24997 4.32007 6.40997C5.32007 6.33997 6.39007 6.33997 7.32007 6.40997C7.21007 6.89997 7.12007 7.40997 7.06007 7.83997C7.05312 7.9225 7.07655 8.00473 7.12594 8.07122C7.17533 8.13771 7.2473 8.18388 7.32832 8.20106C7.40934 8.21825 7.49385 8.20527 7.56598 8.16456C7.63811 8.12385 7.6929 8.05821 7.72007 7.97997C7.87187 7.45718 8.05214 6.94308 8.26007 6.43997L15.4301 6.64997C15.4301 7.04997 15.5201 7.44997 15.5701 7.85997C15.5701 7.95014 15.6059 8.03662 15.6696 8.10038C15.7334 8.16414 15.8199 8.19997 15.9101 8.19997C16.0002 8.19997 16.0867 8.16414 16.1505 8.10038C16.2142 8.03662 16.2501 7.95014 16.2501 7.85997C16.2501 7.45997 16.3301 7.06997 16.3701 6.66997H20.2701C20.3602 6.66997 20.4467 6.63415 20.5105 6.57038C20.5742 6.50662 20.6101 6.42014 20.6101 6.32997C20.6101 6.23979 20.5742 6.15331 20.5105 6.08955C20.4467 6.02579 20.3602 5.98997 20.2701 5.98997C19.2701 5.98997 17.9001 5.83997 16.4201 5.71997C16.4476 5.0793 16.3348 4.44036 16.0895 3.84788C15.8442 3.25539 15.4724 2.72368 15.0001 2.28997C14.9796 2.25158 14.951 2.21811 14.9162 2.19188C14.8815 2.16565 14.8415 2.14729 14.799 2.13808C14.7564 2.12886 14.7124 2.12901 14.6699 2.13852C14.6275 2.14802 14.5876 2.16665 14.553 2.19311C14.5185 2.21958 14.4901 2.25324 14.4698 2.29177C14.4496 2.3303 14.438 2.37277 14.4358 2.41623C14.4336 2.4597 14.4409 2.50311 14.4572 2.54348C14.4735 2.58384 14.4983 2.62017 14.5301 2.64997C14.9731 3.54139 15.2252 4.51551 15.2701 5.50997Z" fill="black"/>
<path fill-rule="evenodd" clip-rule="evenodd" d="M16.9196 17.2901C16.9903 16.5685 16.9903 15.8417 16.9196 15.1201C16.9196 15.0405 16.888 14.9642 16.8317 14.9079C16.7755 14.8517 16.6992 14.8201 16.6196 14.8201C16.54 14.8201 16.4637 14.8517 16.4075 14.9079C16.3512 14.9642 16.3196 15.0405 16.3196 15.1201C16.258 15.8599 16.1308 16.5927 15.9396 17.3101C13.2017 17.4599 10.4576 17.4599 7.71961 17.3101C6.99961 15.4001 7.29961 14.9301 6.82961 15.0001C6.79145 15.0038 6.75441 15.0151 6.72063 15.0332C6.68685 15.0514 6.65701 15.0761 6.63283 15.1058C6.60865 15.1356 6.59061 15.1698 6.57976 15.2066C6.56891 15.2434 6.56546 15.2819 6.56961 15.3201C6.57694 15.9697 6.63041 16.618 6.72961 17.2601C4.87961 17.1301 3.63961 16.8801 2.96961 16.8801C2.29961 16.8801 2.87961 17.7701 3.76961 17.7501C4.76961 17.9501 5.83961 18.1401 6.92961 18.2801C7.19413 19.2637 7.6457 20.1872 8.25961 21.0001C8.67961 21.5701 9.67961 22.1001 9.79961 21.3901C9.09492 20.4783 8.52881 19.4673 8.11961 18.3901C10.5992 18.6558 13.1 18.6558 15.5796 18.3901C14.8796 20.0901 14.8796 20.3201 14.5796 20.8901V21.0001C14.5796 21.9301 15.3896 21.6701 15.8696 20.5901C16.2704 19.8574 16.5794 19.0782 16.7896 18.2701C17.7896 18.1501 18.5096 18.0401 19.2096 17.8901C20.4296 17.7101 20.8796 16.8901 20.1296 16.8901C19.0713 17.1045 17.9982 17.2382 16.9196 17.2901Z" fill="black"/>
<path fill-rule="evenodd" clip-rule="evenodd" d="M23.8998 10.38C23.537 7.72666 22.3105 5.26663 20.4098 3.38001C19.2566 2.5434 18.0357 1.80419 16.7598 1.17001C16.6793 1.13291 16.5875 1.12875 16.5039 1.15841C16.4203 1.18808 16.3516 1.24921 16.3125 1.32878C16.2734 1.40835 16.2669 1.50006 16.2944 1.58436C16.3219 1.66865 16.3813 1.73886 16.4598 1.78001C17.6705 2.42119 18.8246 3.16385 19.9098 4.00001C21.5965 5.79838 22.6498 8.09823 22.9098 10.55C23.7898 17.74 15.9098 25.32 6.83984 21.55C2.91984 19.92 0.77984 17 0.99984 12.37C1.18984 6.33001 6.67984 0.480008 13.1698 1.00001C13.2494 1.00929 13.3294 0.986586 13.3922 0.936889C13.455 0.887192 13.4956 0.814573 13.5048 0.735008C13.5141 0.655443 13.4914 0.575449 13.4417 0.512625C13.392 0.4498 13.3194 0.409291 13.2398 0.400008C2.56984 -0.999992 -3.09016 11.16 1.74984 18.57C3.34984 21.03 5.74984 22.3 8.58984 23.22C16.5098 25.67 24.9998 18.49 23.8998 10.38Z" fill="black"/>
</g>
<defs>
<clipPath id="clip0_36_1163">
<rect width="24" height="24" fill="white"/>
</clipPath>
</defs>
</svg>
