<svg width="24" height="24" viewBox="0 0 24 24" fill="none" xmlns="http://www.w3.org/2000/svg">
<g clip-path="url(#clip0_36_1245)">
<path fill-rule="evenodd" clip-rule="evenodd" d="M11.9002 18.14C11.2502 18.28 10.7602 19.06 11.3002 19.59C11.4593 19.7464 11.6554 19.86 11.8702 19.92C13.5602 20.29 13.3602 17.85 11.9002 18.14Z" fill="black"/>
<path fill-rule="evenodd" clip-rule="evenodd" d="M15.4703 18.85C16.3203 18.28 17.0503 17.99 17.0503 17.25C16.9559 16.474 16.6038 15.7521 16.0503 15.2C15.3603 14.7 14.8903 15.09 13.9303 15.65C13.9303 14.84 14.0303 14.18 13.3803 13.77C12.6651 13.404 11.8598 13.2512 11.0603 13.33C10.0603 13.57 10.0603 14.47 10.0603 15.7L9.00026 15.05C7.91026 14.49 7.10026 15.62 6.77026 16.8C6.54026 17.66 6.87026 17.98 7.63026 18.46C8.39026 18.94 7.90026 18.55 8.04026 19.41C6.26026 20.6 6.50026 20.41 7.36026 22.09C7.57608 22.3879 7.83963 22.648 8.14026 22.86C8.36815 22.9619 8.61997 22.9981 8.86733 22.9645C9.11469 22.9309 9.34776 22.8289 9.54026 22.67C10.3003 22.2 10.2003 22.03 10.2003 22.38C10.2003 22.73 10.1403 23.38 10.5003 23.57C11.0603 23.92 13.0803 24.04 13.5003 23.36C13.7103 23 13.7303 23 13.6703 22.43C13.6636 22.3478 13.6246 22.2716 13.5618 22.2181C13.499 22.1647 13.4175 22.1384 13.3353 22.145C13.253 22.1516 13.1768 22.1907 13.1234 22.2535C13.0699 22.3163 13.0436 22.3978 13.0503 22.48C13.0503 22.96 13.0503 22.8 12.9503 23.03C12.8503 23.26 11.3103 22.92 11.0603 22.89V21.38C11.0608 21.3065 11.041 21.2344 11.0032 21.1714C10.9654 21.1084 10.911 21.057 10.8459 21.0229C10.7808 20.9888 10.7076 20.9733 10.6343 20.9781C10.5609 20.9829 10.4904 21.0078 10.4303 21.05C9.94026 21.36 9.17026 22.05 8.72026 22.1C8.27026 22.15 8.00026 20.9 7.84026 20.69C8.36026 20.46 7.84026 20.79 8.95026 20.08C9.05198 20.0196 9.12956 19.9258 9.16969 19.8145C9.20982 19.7032 9.21003 19.5814 9.17026 19.47C8.95026 18.8 9.42026 18.47 8.98026 18.09C8.13026 17.41 8.37026 17.6 7.88026 17.23C7.96887 16.8498 8.13575 16.4922 8.37026 16.18C8.37026 16.18 8.44026 16.07 8.50026 16.1C10.5003 17.34 10.2003 17.28 10.8703 17.02C11.5403 16.76 11.2903 14.42 11.3403 14.45C11.8217 14.5068 12.297 14.6072 12.7603 14.75C12.8203 16.96 12.9503 16.95 13.1903 17.06C13.2754 17.1092 13.372 17.135 13.4703 17.135C13.5686 17.135 13.6651 17.1092 13.7503 17.06C15.4903 15.96 15.3903 16 15.5003 16.11C15.6103 16.22 15.7903 16.41 16.0803 17.28C14.7503 18.28 14.6203 18.28 14.5803 18.54C14.4503 19.54 14.3003 19.23 16.5803 20.54C16.4958 21.1058 16.2078 21.6214 15.7703 21.99C15.1669 21.7051 14.5883 21.3706 14.0403 20.99C13.9624 20.952 13.8734 20.9433 13.7896 20.9656C13.7058 20.9879 13.6329 21.0397 13.5843 21.1115C13.5356 21.1832 13.5145 21.2701 13.5248 21.3562C13.5351 21.4423 13.5761 21.5217 13.6403 21.58C14.2321 22.0124 14.8574 22.3969 15.5103 22.73C16.4103 23.13 17.7503 20.96 17.3303 20.17C16.7728 19.6479 16.1471 19.2038 15.4703 18.85Z" fill="black"/>
<path fill-rule="evenodd" clip-rule="evenodd" d="M8.71011 3.77002C10.3319 3.02232 12.1636 2.86319 13.8901 3.32002C14.7434 3.47603 15.5526 3.81518 16.2622 4.3141C16.9717 4.81302 17.5647 5.45986 18.0001 6.21002C18.4569 6.90354 18.6584 7.73429 18.5701 8.56003C18.6401 8.87003 19.4901 9.00002 19.4901 8.47003V7.94002C19.3991 6.41084 18.7179 4.97672 17.5901 3.94002C17.4037 3.76785 17.2066 3.60753 17.0001 3.46002C17.3101 3.09002 17.7801 2.40002 17.8201 2.34002C18.131 1.76148 18.3695 1.14686 18.5301 0.510024C18.5357 0.421425 18.5063 0.334168 18.4484 0.266899C18.3905 0.199629 18.3085 0.157683 18.2201 0.150024C18.0201 0.150024 16.9001 1.66002 16.8501 1.74002C16.6126 2.14258 16.4085 2.564 16.2401 3.00002C14.9674 2.31203 13.5476 1.941 12.101 1.91837C10.6544 1.89574 9.22371 2.22218 7.93011 2.87002C7.86011 2.72002 7.80011 2.55002 7.73011 2.38002C7.36011 1.55002 6.49011 0.310024 6.00011 0.340024C5.95595 0.335923 5.91143 0.340762 5.86918 0.354253C5.82694 0.367744 5.78785 0.389611 5.75425 0.418546C5.72065 0.447481 5.69322 0.482892 5.67361 0.522664C5.654 0.562435 5.6426 0.605751 5.64011 0.650024C5.9632 1.4158 6.33392 2.16059 6.75011 2.88002C6.85999 3.0344 6.98385 3.17834 7.12011 3.31002C6.35379 3.80577 5.73267 4.4959 5.32011 5.31002C4.68606 6.40212 4.36434 7.64747 4.39011 8.91002C4.51011 9.33002 5.20011 9.45002 5.31011 9.03002C5.51011 6.17002 6.07011 4.79002 8.71011 3.77002Z" fill="black"/>
<path fill-rule="evenodd" clip-rule="evenodd" d="M24.0001 15.76C23.7701 12.43 23.0701 10.3 20.2901 9.49003C19.6961 9.32848 19.0721 9.31134 18.4701 9.44003C16.7681 9.78794 15.0372 9.97543 13.3001 10C11.6501 10 5.7301 9.38003 4.3901 9.58003C3.40664 9.6494 2.47572 10.05 1.74926 10.7166C1.0228 11.3831 0.543684 12.2762 0.390101 13.25C0.00478026 15.1172 -0.113066 17.0297 0.0401013 18.93C0.0600488 19.0105 0.108691 19.0809 0.176883 19.128C0.245076 19.1751 0.328124 19.1956 0.410417 19.1858C0.49271 19.176 0.56858 19.1364 0.623766 19.0746C0.678952 19.0128 0.709654 18.9329 0.710101 18.85C0.771498 17.0598 1.03313 15.2821 1.4901 13.55C1.58723 12.8241 1.91285 12.1479 2.41983 11.6194C2.92681 11.0908 3.58885 10.7373 4.3101 10.61C4.21117 13.3401 4.30808 16.0738 4.6001 18.79C4.62005 18.8705 4.66869 18.9409 4.73688 18.988C4.80508 19.0351 4.88812 19.0556 4.97042 19.0458C5.05271 19.036 5.12858 18.9964 5.18377 18.9346C5.23895 18.8728 5.26965 18.7929 5.2701 18.71C5.06504 15.9338 5.06504 13.1463 5.2701 10.37C8.13593 11.0788 11.096 11.3286 14.0401 11.11C15.6023 11.0015 17.1481 10.7232 18.6501 10.28L19.0001 18.65C18.9921 18.6933 18.9937 18.7378 19.0048 18.7804C19.016 18.823 19.0363 18.8626 19.0645 18.8965C19.0926 18.9303 19.1279 18.9575 19.1678 18.9762C19.2076 18.9949 19.2511 19.0046 19.2951 19.0046C19.3391 19.0046 19.3826 18.9949 19.4225 18.9762C19.4623 18.9575 19.4976 18.9303 19.5257 18.8965C19.5539 18.8626 19.5742 18.823 19.5854 18.7804C19.5965 18.7378 19.5981 18.6933 19.5901 18.65V10.26C20.1015 10.3588 20.5861 10.5649 21.0119 10.8649C21.4377 11.1648 21.795 11.5517 22.0601 12C22.7875 14.0929 23.1888 16.2852 23.2501 18.5C23.2385 18.5472 23.2372 18.5963 23.2461 18.644C23.2551 18.6918 23.2742 18.737 23.3022 18.7767C23.3301 18.8165 23.3662 18.8497 23.4081 18.8743C23.45 18.8989 23.4966 18.9143 23.545 18.9193C23.5933 18.9244 23.6421 18.919 23.6881 18.9036C23.7342 18.8882 23.7764 18.8631 23.812 18.83C23.8475 18.7969 23.8756 18.7566 23.8942 18.7117C23.9129 18.6669 23.9217 18.6186 23.9201 18.57C24.0284 17.6375 24.0552 16.6972 24.0001 15.76Z" fill="black"/>
<path fill-rule="evenodd" clip-rule="evenodd" d="M8.7902 6.14005C8.3934 6.42105 8.11256 6.83699 8.0002 7.31005C7.98511 7.3811 7.99631 7.45521 8.03172 7.51863C8.06713 7.58205 8.12435 7.63047 8.19275 7.6549C8.26116 7.67933 8.3361 7.67811 8.40368 7.65148C8.47125 7.62484 8.52687 7.57459 8.5602 7.51005C8.82789 7.25954 9.17572 7.11203 9.54188 7.09372C9.90805 7.07541 10.2689 7.18749 10.5602 7.41005C10.6103 7.47877 10.6844 7.52622 10.7677 7.54302C10.8511 7.55983 10.9378 7.54477 11.0106 7.50083C11.0834 7.45688 11.1371 7.38724 11.1611 7.30564C11.1851 7.22405 11.1776 7.13642 11.1402 7.06005C11.0524 6.84043 10.9205 6.64114 10.7527 6.47449C10.5849 6.30784 10.3847 6.17738 10.1644 6.09116C9.94419 6.00494 9.70861 5.96479 9.47225 5.9732C9.23588 5.98161 9.00375 6.0384 8.7902 6.14005Z" fill="black"/>
<path fill-rule="evenodd" clip-rule="evenodd" d="M13.4501 6C13.0475 6.28171 12.7628 6.70175 12.6501 7.18C12.635 7.25105 12.6462 7.32517 12.6816 7.38859C12.717 7.45201 12.7742 7.50042 12.8427 7.52486C12.9111 7.54929 12.986 7.54807 13.0536 7.52143C13.1212 7.49479 13.1768 7.44454 13.2101 7.38C13.4775 7.12984 13.8245 6.98173 14.1901 6.96162C14.5558 6.94151 14.9168 7.05067 15.2101 7.27C15.2119 7.32659 15.2278 7.38183 15.2564 7.4307C15.285 7.47958 15.3253 7.52054 15.3737 7.54988C15.4222 7.57921 15.4772 7.59599 15.5337 7.5987C15.5903 7.6014 15.6466 7.58993 15.6976 7.56534C15.7486 7.54076 15.7926 7.50382 15.8257 7.45789C15.8588 7.41196 15.88 7.35849 15.8872 7.30234C15.8944 7.24618 15.8874 7.18912 15.867 7.13632C15.8465 7.08352 15.8132 7.03667 15.7701 7C15.6899 6.77714 15.5649 6.57311 15.4026 6.40055C15.2404 6.22799 15.0445 6.09058 14.827 5.99683C14.6095 5.90308 14.3751 5.85499 14.1382 5.85553C13.9014 5.85608 13.6672 5.90525 13.4501 6Z" fill="black"/>
</g>
<defs>
<clipPath id="clip0_36_1245">
<rect width="24" height="24" fill="white"/>
</clipPath>
</defs>
</svg>
