<svg width="24" height="24" viewBox="0 0 24 24" fill="none" xmlns="http://www.w3.org/2000/svg">
<g clip-path="url(#clip0_36_1235)">
<path fill-rule="evenodd" clip-rule="evenodd" d="M1.3502 1.13998C1.3599 1.06653 1.34207 0.992086 1.30015 0.930993C1.25824 0.869901 1.1952 0.826481 1.12318 0.809096C1.05115 0.791712 0.975247 0.801593 0.910077 0.836837C0.844907 0.87208 0.795083 0.930193 0.770204 0.999981C0.00020355 4.21998 0.0902035 14.57 0.750204 17.3C1.1802 19 6.1902 19.05 8.0002 19.06C8.07913 19.0463 8.15068 19.0052 8.20225 18.9439C8.25383 18.8826 8.28211 18.8051 8.28211 18.725C8.28211 18.6449 8.25383 18.5674 8.20225 18.5061C8.15068 18.4448 8.07913 18.4037 8.0002 18.39C6.5502 18.32 3.3002 18.1 2.0002 17.39C1.6202 17.18 1.5602 17.58 1.3302 11.56C1.2402 9.20998 1.1602 7.48998 1.1402 5.37998C1.1902 5.18998 1.2202 1.85998 1.3502 1.13998Z" fill="black"/>
<path fill-rule="evenodd" clip-rule="evenodd" d="M19.2903 4.46998C14.5203 4.46998 12.0403 3.92998 2.07031 4.46998C2.00836 4.47774 1.95056 4.50529 1.90552 4.54853C1.86048 4.59177 1.83059 4.64839 1.82031 4.70998V4.81998C1.83239 4.88704 1.8685 4.94739 1.92189 4.98973C1.97527 5.03207 2.04227 5.05349 2.11031 5.04998C5.36031 4.98998 6.18031 5.60998 19.3003 5.04998C19.351 5.07639 19.4078 5.08916 19.4649 5.08704C19.5221 5.08492 19.5777 5.06799 19.6263 5.0379C19.6749 5.00781 19.7149 4.9656 19.7423 4.91541C19.7697 4.86521 19.7836 4.80876 19.7826 4.75158C19.7817 4.6944 19.7658 4.63846 19.7367 4.58924C19.7076 4.54002 19.6662 4.49921 19.6165 4.47081C19.5669 4.44242 19.5107 4.42741 19.4535 4.42727C19.3963 4.42712 19.3401 4.44184 19.2903 4.46998Z" fill="black"/>
<path fill-rule="evenodd" clip-rule="evenodd" d="M2.41036 0.939977C5.23036 0.789977 19.5404 1.15998 20.1004 1.62998C20.4604 1.92998 20.6404 4.79998 20.7404 5.62998C20.9204 7.16998 21.0604 8.49998 21.1404 10.06C21.1531 10.1289 21.1896 10.1912 21.2435 10.236C21.2974 10.2809 21.3653 10.3054 21.4354 10.3054C21.5055 10.3054 21.5734 10.2809 21.6272 10.236C21.6811 10.1912 21.7176 10.1289 21.7304 10.06C21.7304 8.63998 21.6404 6.96998 21.5404 5.56998C21.4404 4.16998 21.5404 1.56998 20.7904 0.889977C19.3604 -0.460023 4.62036 0.0699769 2.36036 0.269977C2.2814 0.288411 2.21163 0.334457 2.16363 0.39981C2.11563 0.465162 2.09257 0.545517 2.0986 0.626377C2.10463 0.707237 2.13937 0.783279 2.19653 0.840783C2.2537 0.898287 2.32954 0.933467 2.41036 0.939977Z" fill="black"/>
<path fill-rule="evenodd" clip-rule="evenodd" d="M3.47997 3.17995C3.5508 3.25282 3.63553 3.31076 3.72914 3.35031C3.82275 3.38987 3.92335 3.41025 4.02497 3.41025C4.1266 3.41025 4.22719 3.38987 4.3208 3.35031C4.41441 3.31076 4.49914 3.25282 4.56997 3.17995C4.6562 3.03243 4.6855 2.85847 4.65235 2.69085C4.61919 2.52323 4.52587 2.37352 4.38997 2.26995C3.70997 1.87995 2.86997 2.56995 3.47997 3.17995Z" fill="black"/>
<path fill-rule="evenodd" clip-rule="evenodd" d="M5.82016 2.93997C5.89113 3.01439 5.97647 3.07364 6.07101 3.11412C6.16555 3.1546 6.26732 3.17547 6.37016 3.17547C6.473 3.17547 6.57477 3.1546 6.66931 3.11412C6.76385 3.07364 6.84919 3.01439 6.92016 2.93997C7.01277 2.78905 7.04565 2.60898 7.01235 2.43508C6.97905 2.26118 6.88197 2.10599 6.74016 1.99997C6.05016 1.62997 5.21016 2.31997 5.82016 2.93997Z" fill="black"/>
<path fill-rule="evenodd" clip-rule="evenodd" d="M8.38022 2.93997C8.45119 3.01439 8.53653 3.07364 8.63107 3.11412C8.72561 3.1546 8.82738 3.17547 8.93022 3.17547C9.03306 3.17547 9.13483 3.1546 9.22937 3.11412C9.32391 3.07364 9.40924 3.01439 9.48022 2.93997C9.57516 2.78971 9.60939 2.60897 9.57596 2.4344C9.54253 2.25983 9.44395 2.10452 9.30022 1.99997C8.61022 1.62997 7.77022 2.31997 8.38022 2.93997Z" fill="black"/>
<path fill-rule="evenodd" clip-rule="evenodd" d="M23.6203 21.9C22.8557 20.5302 21.9794 19.2257 21.0003 18C24.1503 13 17.5403 7.84997 12.5803 11.66C11.5547 12.4079 10.8387 13.5058 10.5678 14.7459C10.2969 15.9861 10.4899 17.2825 11.1103 18.39C12.6103 20.82 15.5503 21.39 15.5003 20.56C15.4978 20.5219 15.4877 20.4846 15.4708 20.4504C15.4538 20.4162 15.4302 20.3856 15.4014 20.3605C15.3726 20.3355 15.3391 20.3163 15.3029 20.3042C15.2667 20.2921 15.2284 20.2872 15.1903 20.29C13.7903 20.36 12.4003 19.07 11.8003 17.99C11.3438 17.0604 11.2382 15.9973 11.5027 14.9961C11.7673 13.9949 12.3843 13.1227 13.2403 12.54C16.1203 10.42 20.0203 11.71 20.7603 14.54C21.4103 17.01 19.3103 19.42 17.1703 20.17C17.0868 20.1978 17.0177 20.2577 16.9783 20.3365C16.939 20.4152 16.9325 20.5064 16.9603 20.59C16.9882 20.6735 17.0481 20.7426 17.1268 20.7819C17.2056 20.8213 17.2968 20.8278 17.3803 20.8C17.8065 20.6635 18.2158 20.479 18.6003 20.25C18.9703 20.77 19.9203 22.07 20.0103 22.25C22.0703 25.2 24.3603 24 23.6203 21.9ZM22.6203 22.9C21.8803 23.28 19.7603 20.7 19.0903 19.95C19.6293 19.5787 20.1111 19.1307 20.5203 18.62C20.8303 19.06 23.1403 22.6 22.6403 22.86L22.6203 22.9Z" fill="black"/>
<path fill-rule="evenodd" clip-rule="evenodd" d="M12.11 8.30995C13.03 8.17995 14.11 8.96995 15.39 8.58995C16.0731 8.36737 16.795 8.28905 17.51 8.35995C17.43 8.35995 18.42 8.35995 18.37 8.02995C18.32 7.69995 17.29 7.73995 16.89 7.63995C16.6509 7.61015 16.4091 7.61015 16.17 7.63995C15.04 7.63995 15.17 8.00995 13.87 7.56995C11.39 6.73995 11.47 7.63995 10.64 7.79995C9.81001 7.95995 8.53001 6.88995 7.59001 7.39995C7.07001 7.67995 6.67001 8.39995 7.17001 8.51995C7.67001 8.63995 7.38001 8.20995 7.87001 8.00995C8.36001 7.80995 9.87001 9.27995 11.2 8.75995C11.4812 8.56885 11.7874 8.41743 12.11 8.30995Z" fill="black"/>
<path fill-rule="evenodd" clip-rule="evenodd" d="M10.0602 11.34C8.00021 11.62 7.00021 10.79 5.26021 11C5.44021 11 3.1502 10.94 2.8302 11.62C2.80497 11.6627 2.79075 11.7111 2.7888 11.7607C2.78686 11.8103 2.79725 11.8596 2.81906 11.9042C2.84086 11.9488 2.87339 11.9873 2.91374 12.0162C2.95408 12.0452 3.00097 12.0636 3.0502 12.07C3.2902 12.07 2.8602 11.9 7.4202 12.25H8.02021C8.69838 12.2994 9.37943 12.2075 10.0202 11.98C10.0879 11.9607 10.1479 11.921 10.192 11.8662C10.2362 11.8115 10.2622 11.7443 10.2666 11.6741C10.271 11.6039 10.2535 11.5341 10.2165 11.4742C10.1796 11.4144 10.125 11.3675 10.0602 11.34Z" fill="black"/>
<path fill-rule="evenodd" clip-rule="evenodd" d="M7.00002 15.47C7.08754 15.47 7.17148 15.4352 7.23337 15.3734C7.29525 15.3115 7.33002 15.2275 7.33002 15.14C7.33002 15.0525 7.29525 14.9685 7.23337 14.9067C7.17148 14.8448 7.08754 14.81 7.00002 14.81C5.73855 14.7451 4.47449 14.8698 3.25002 15.18C3.05002 15.37 3.07002 15.52 3.25002 15.62C3.43002 15.72 3.32002 15.71 3.41002 15.71C4.61064 15.8725 5.83171 15.7908 7.00002 15.47Z" fill="black"/>
</g>
<defs>
<clipPath id="clip0_36_1235">
<rect width="24" height="24" fill="white"/>
</clipPath>
</defs>
</svg>
