<svg width="24" height="24" viewBox="0 0 24 24" fill="none" xmlns="http://www.w3.org/2000/svg">
<g clip-path="url(#clip0_36_1240)">
<path fill-rule="evenodd" clip-rule="evenodd" d="M3.27986 1.1C3.28968 1.05996 3.29115 1.01832 3.28416 0.977681C3.27717 0.937045 3.26189 0.898285 3.23925 0.863821C3.21661 0.829357 3.18712 0.79993 3.1526 0.777375C3.11808 0.754821 3.07928 0.739624 3.03863 0.732734C2.99798 0.725844 2.95634 0.727408 2.91632 0.737328C2.8763 0.747249 2.83875 0.765313 2.80602 0.790393C2.77329 0.815473 2.74609 0.84703 2.7261 0.883095C2.70611 0.91916 2.69378 0.958957 2.68986 1C1.68986 5.63 2.26986 11.47 2.55986 14.75C2.56649 14.8402 2.60867 14.924 2.67712 14.9831C2.74557 15.0422 2.83468 15.0716 2.92486 15.065C3.01503 15.0584 3.09888 15.0162 3.15795 14.9477C3.21702 14.8793 3.24649 14.7902 3.23986 14.7C3.12986 12.43 2.99986 10.07 2.99986 6.28C3.00376 4.54966 3.09722 2.82068 3.27986 1.1Z" fill="black"/>
<path fill-rule="evenodd" clip-rule="evenodd" d="M20.58 4.47002C15.23 4.43002 3.99999 4.55002 3.99999 4.55002C3.51999 4.66002 3.50999 5.05002 3.99999 5.11002C3.99999 5.11002 7.99999 5.38002 12 5.39002C15.63 5.39002 18 5.22002 20.59 5.16002C20.6713 5.14497 20.7446 5.10165 20.797 5.03774C20.8493 4.97382 20.8774 4.89343 20.8762 4.8108C20.875 4.72816 20.8446 4.64862 20.7904 4.58625C20.7362 4.52388 20.6617 4.4827 20.58 4.47002Z" fill="black"/>
<path fill-rule="evenodd" clip-rule="evenodd" d="M22.7198 0.77002C21.3698 -0.40998 6.08984 0.0600199 4.28984 0.22002C4.20503 0.232419 4.12802 0.276398 4.07425 0.343152C4.02047 0.409906 3.9939 0.494508 3.99984 0.58002C3.99984 1.25002 4.35984 0.58002 15.1898 0.98002C15.7098 0.98002 21.6098 1.27002 21.9998 1.62002C22.6698 2.21002 22.8198 16.07 22.4298 17.48C22.3498 17.42 22.2298 17.61 22.0598 17.67C20.2198 18.29 14.7698 18.26 12.8198 18.25C12.7403 18.25 12.664 18.2816 12.6077 18.3379C12.5514 18.3941 12.5198 18.4705 12.5198 18.55C12.5198 18.6296 12.5514 18.7059 12.6077 18.7622C12.664 18.8184 12.7403 18.85 12.8198 18.85C14.8998 18.93 21.2298 19.18 22.8198 18.35C23.0491 18.2401 23.2279 18.047 23.3198 17.81C23.8498 16.19 24.0998 2.00002 22.7198 0.77002Z" fill="black"/>
<path fill-rule="evenodd" clip-rule="evenodd" d="M6.49989 3.11C6.58087 2.96033 6.60622 2.78681 6.57144 2.62023C6.53666 2.45364 6.444 2.30476 6.30989 2.2C5.62989 1.84 4.78989 2.53 5.39989 3.15C5.47282 3.22324 5.56009 3.28062 5.65624 3.31854C5.7524 3.35645 5.85534 3.37409 5.95863 3.37033C6.06192 3.36657 6.16332 3.34151 6.25646 3.29671C6.3496 3.25191 6.43248 3.18835 6.49989 3.11Z" fill="black"/>
<path fill-rule="evenodd" clip-rule="evenodd" d="M8.83999 2.86001C8.90743 2.71655 8.92634 2.55505 8.89386 2.39989C8.86139 2.24474 8.7793 2.10438 8.65999 2.00001C7.97999 1.65001 7.13999 2.34001 7.74999 3.00001C7.82861 3.06746 7.92051 3.11766 8.01976 3.14735C8.119 3.17703 8.22337 3.18556 8.32612 3.17236C8.42886 3.15916 8.52769 3.12454 8.61621 3.07074C8.70473 3.01693 8.78097 2.94514 8.83999 2.86001Z" fill="black"/>
<path fill-rule="evenodd" clip-rule="evenodd" d="M11.3998 2.86001C11.4678 2.71585 11.486 2.5532 11.4516 2.39757C11.4172 2.24193 11.3322 2.10211 11.2098 2.00001C10.5298 1.65001 9.6898 2.34001 10.2998 3.00001C10.3793 3.06767 10.472 3.11801 10.572 3.14779C10.672 3.17757 10.7772 3.18615 10.8807 3.17297C10.9843 3.1598 11.0839 3.12515 11.1733 3.07126C11.2627 3.01737 11.3398 2.94542 11.3998 2.86001Z" fill="black"/>
<path fill-rule="evenodd" clip-rule="evenodd" d="M10.63 19.68C10.5366 19.5144 10.3879 19.387 10.21 19.32C9.53004 19.09 2.21004 19.41 1.42004 19.46C1.33072 19.4651 1.24675 19.5042 1.18538 19.5693C1.12401 19.6344 1.08989 19.7205 1.09004 19.81C1.09004 19.91 1.09004 19.72 0.940036 19.63C0.100036 19.23 0.190036 22.83 0.440036 23.39C0.870036 24.34 8.52003 23.94 9.62004 23.81C10.14 23.75 10.48 23.67 10.69 23.3C10.8812 22.8188 10.9862 22.3076 11 21.79C10.9847 21.0719 10.86 20.3604 10.63 19.68ZM9.79004 22.33C9.79004 22.46 9.64004 22.61 9.64004 22.69C8.86004 22.69 3.89004 23.12 1.73004 23C1.10004 23 1.00004 23.32 1.00004 21.56C0.937295 20.9956 0.988299 20.4244 1.15004 19.88C1.16656 19.9567 1.20986 20.025 1.27217 20.0726C1.33447 20.1202 1.41171 20.1441 1.49004 20.14C2.57004 20.14 9.16004 20.14 9.82003 20.32C9.90447 20.9881 9.89437 21.6647 9.79004 22.33Z" fill="black"/>
<path fill-rule="evenodd" clip-rule="evenodd" d="M8.76014 15.66C8.33936 16.1763 7.9646 16.7284 7.64014 17.31C7.6401 17.4011 7.6756 17.4887 7.73909 17.554C7.80258 17.6194 7.88906 17.6574 7.98014 17.66C8.24014 17.66 8.30014 17.57 9.50014 16.23C10.5894 15.1389 11.5768 13.9506 12.4501 12.68C13.2501 11.59 13.3901 11.41 13.4501 11.39C13.6501 11.93 13.6201 12.16 14.1901 13.86C14.3401 14.47 14.6801 15.07 15.2601 14.86C15.8401 14.65 16.0401 13.56 16.2001 13.14C16.5801 12.14 17.4001 8.36003 17.1501 7.38003C17.1161 7.20614 17.0155 7.0524 16.8699 6.95154C16.7242 6.85068 16.5449 6.81067 16.3701 6.84003C14.3685 7.31041 12.4112 7.9528 10.5201 8.76003C8.22014 9.84003 8.52014 10.96 9.73014 11.14C10.0401 11.19 12.7301 11.14 12.8001 11.08C11.2911 12.4554 9.93641 13.9911 8.76014 15.66ZM12.7601 10.44C11.9201 10.37 10.5501 10.44 9.69014 10.3C9.83926 10.1574 10.0075 10.0362 10.1901 9.94003C12.0701 9.14752 14.0137 8.51527 16.0001 8.05003C15.8865 9.93492 15.5713 11.8022 15.0601 13.62C14.9301 14.05 15.0101 13.91 14.9201 13.62L14.5401 12.62C14.5401 12.62 14.2101 11.5 14.0401 11.1C13.8833 10.9083 13.6888 10.7508 13.4686 10.6372C13.2484 10.5237 13.0073 10.4566 12.7601 10.44Z" fill="black"/>
</g>
<defs>
<clipPath id="clip0_36_1240">
<rect width="24" height="24" fill="white"/>
</clipPath>
</defs>
</svg>
