<svg width="24" height="24" viewBox="0 0 24 24" fill="none" xmlns="http://www.w3.org/2000/svg">
<path fill-rule="evenodd" clip-rule="evenodd" d="M14.26 19.84C16.0754 19.6318 17.8019 18.9412 19.26 17.84C19.2969 17.815 19.3284 17.7828 19.3525 17.7454C19.3766 17.7079 19.3929 17.666 19.4004 17.6221C19.4079 17.5782 19.4064 17.5332 19.396 17.4899C19.3856 17.4465 19.3666 17.4058 19.34 17.37C19.01 16.89 18.78 17.65 16.63 18.37C15.855 18.6301 15.0469 18.7783 14.23 18.81C9.10004 19.11 7.15004 18.67 4.37004 17.32C4.08004 17.07 3.89004 17.65 4.43004 18.1C8.16004 20.32 10.36 20.2 14.26 19.84Z" fill="black"/>
<path fill-rule="evenodd" clip-rule="evenodd" d="M21.0599 6C21.0599 5.90983 21.0241 5.82335 20.9603 5.75958C20.8965 5.69582 20.81 5.66 20.7199 5.66C20.6297 5.66 20.5432 5.69582 20.4795 5.75958C20.4157 5.82335 20.3799 5.90983 20.3799 6C20.3799 6 20.4599 13.07 20.4599 13.54C20.4599 14.6 20.6899 19.36 20.0699 20.07C18.2799 22.15 12.9099 23.87 7.14987 22.12C6.14029 21.8424 5.18626 21.3924 4.32987 20.79C3.32987 19.93 3.26987 5.79 3.32987 4.46C3.90964 5.06569 4.60277 5.55156 5.36987 5.89C7.65987 6.97 10.7399 6.75 13.2799 6.66C16.0099 6.54 21.1099 5.86 21.0599 3.14C21.0599 1.69 18.8599 0.42 17.5599 0.44C17.4697 0.44 17.3832 0.475821 17.3195 0.539584C17.2557 0.603346 17.2199 0.689826 17.2199 0.78C17.2199 0.870174 17.2557 0.956654 17.3195 1.02042C17.3832 1.08418 17.4697 1.12 17.5599 1.12C18.5599 1.12 20.2799 2.19 20.2699 3.12C20.2699 3.76 19.6799 4.42 18.1799 4.92C16.5798 5.38999 14.9172 5.61256 13.2499 5.58C11.0599 5.63 7.83987 5.78 5.84987 4.84C4.57987 4.25 3.24987 3.5 4.25987 2.53C5.19987 2 5.99987 1.11 9.70987 0.84C11.8633 0.748112 14.0203 0.781502 16.1699 0.94C16.208 0.948746 16.2475 0.949684 16.286 0.942757C16.3245 0.935829 16.3613 0.92118 16.394 0.899692C16.4267 0.878204 16.4547 0.85032 16.4763 0.81772C16.4979 0.78512 16.5128 0.748478 16.5199 0.71C16.5999 0.34 16.1299 0.31 15.7499 0.27C15.6499 0.26 11.5199 0 9.66987 0C8.45719 0.018338 7.25141 0.186274 6.07987 0.5C4.72987 0.89 2.65987 1.84 2.77987 3.34C2.47987 5.57 2.77987 8.29 2.66987 9.77C2.52217 12.9289 2.54554 16.0936 2.73987 19.25C2.8331 20.3046 3.31838 21.2858 4.09987 22C4.9066 22.5963 5.83559 23.0062 6.81987 23.2C13.0899 25.12 18.8199 23.2 20.8199 20.71C21.7899 19.6 21.3699 15.72 21.0599 6Z" fill="black"/>
<path fill-rule="evenodd" clip-rule="evenodd" d="M17.8196 14.6C18.558 14.4351 19.2447 14.0917 19.8196 13.6C20.2596 13.09 19.8196 12.76 19.4696 13C19.1196 13.24 19.3696 13.23 17.5796 13.78C13.1896 15.12 6.57965 14.45 4.21965 13.25C3.80965 12.97 3.68965 13.73 4.21965 13.99C6.90965 15.49 12.6696 16.49 17.8196 14.6Z" fill="black"/>
<path fill-rule="evenodd" clip-rule="evenodd" d="M7.71994 11C10.6657 11.3355 13.6449 11.231 16.5599 10.69C17.3879 10.5176 18.1818 10.2102 18.9099 9.78C18.9539 9.75972 18.993 9.7303 19.0247 9.69369C19.0563 9.65708 19.0798 9.61413 19.0935 9.56772C19.1073 9.5213 19.1109 9.47249 19.1043 9.42455C19.0976 9.3766 19.0808 9.33063 19.055 9.28971C19.0291 9.24878 18.9948 9.21385 18.9544 9.18724C18.914 9.16064 18.8683 9.14297 18.8205 9.13542C18.7727 9.12788 18.7238 9.13063 18.6772 9.14349C18.6305 9.15635 18.5871 9.17902 18.5499 9.21C16.6799 10.29 13.0899 10.07 11.5499 10.03C9.42994 10.03 6.26994 10.59 4.11994 8.91C3.68994 8.8 3.75994 9.36 4.04994 9.73C5.05994 10.62 6.35994 10.72 7.71994 11Z" fill="black"/>
</svg>
