<svg width="24" height="24" viewBox="0 0 24 24" fill="none" xmlns="http://www.w3.org/2000/svg">
<g clip-path="url(#clip0_36_754)">
<path fill-rule="evenodd" clip-rule="evenodd" d="M22.6501 14.58C22.0661 13.8913 21.3294 13.3485 20.4986 12.9947C19.6678 12.641 18.7659 12.4861 17.8647 12.5424C16.9634 12.5987 16.0878 12.8647 15.3075 13.3192C14.5272 13.7736 13.8638 14.4039 13.3701 15.16C11.7301 17.58 12.5801 21.16 14.2101 22.16C14.2764 22.2051 14.3579 22.222 14.4367 22.207C14.5155 22.192 14.585 22.1463 14.6301 22.08C14.6752 22.0137 14.6921 21.9322 14.6771 21.8534C14.6621 21.7747 14.6164 21.7051 14.5501 21.66C13.2501 20.75 12.6701 17.66 14.1301 15.66C14.5573 15.0643 15.1133 14.5725 15.7566 14.2212C16.3999 13.8698 17.1142 13.6679 17.8462 13.6305C18.5783 13.593 19.3094 13.7209 19.9853 14.0048C20.6611 14.2886 21.2643 14.721 21.7501 15.27C24.1701 18.13 22.7501 22.45 18.5001 22.95C17.7242 23.0629 16.9332 23.0084 16.1801 22.79C16.0939 22.7608 15.9997 22.7671 15.9181 22.8074C15.8365 22.8477 15.7743 22.9188 15.7451 23.005C15.716 23.0912 15.7222 23.1854 15.7625 23.267C15.8029 23.3486 15.8739 23.4108 15.9601 23.44C16.8003 23.7179 17.6901 23.8134 18.5701 23.72C19.6161 23.6916 20.6328 23.368 21.5028 22.7867C22.3728 22.2053 23.0608 21.3898 23.4873 20.4343C23.9138 19.4788 24.0616 18.4222 23.9134 17.3864C23.7653 16.3505 23.3274 15.3777 22.6501 14.58Z" fill="black"/>
<path fill-rule="evenodd" clip-rule="evenodd" d="M16.8501 20.51C17.9901 20.57 19.3401 17.4 19.8501 16.37C20.0011 16.2114 20.096 16.0077 20.1201 15.79C20.1136 15.7169 20.0851 15.6475 20.0382 15.5912C19.9912 15.5348 19.9282 15.4941 19.8575 15.4745C19.7868 15.4549 19.7118 15.4574 19.6426 15.4816C19.5733 15.5058 19.5131 15.5506 19.4701 15.61C19.2301 15.9 16.7601 19.5 16.8201 19.61C16.6201 19.61 15.6201 18.44 15.4701 18.35C15.3201 18.26 14.8901 18.52 15.1201 18.86C15.5001 19.43 16.1801 20.47 16.8501 20.51Z" fill="black"/>
<path fill-rule="evenodd" clip-rule="evenodd" d="M10.6301 17.52C10.7091 17.5016 10.7789 17.4556 10.8269 17.3902C10.8749 17.3248 10.8979 17.2445 10.8919 17.1636C10.8859 17.0828 10.8511 17.0067 10.794 16.9492C10.7368 16.8917 10.661 16.8565 10.5801 16.85C7.5767 17.0906 4.55983 16.5964 1.79015 15.41C1.33015 15.41 1.25015 15.9 1.79015 16.24C4.51226 17.6386 7.62315 18.089 10.6301 17.52Z" fill="black"/>
<path fill-rule="evenodd" clip-rule="evenodd" d="M3.60974 13.3C7.31974 13.97 10.8397 14.19 14.2197 12.78C14.2964 12.7422 14.3559 12.6769 14.3866 12.5972C14.4173 12.5174 14.4168 12.4291 14.3853 12.3497C14.3538 12.2703 14.2935 12.2056 14.2165 12.1686C14.1395 12.1316 14.0514 12.125 13.9697 12.15C10.3997 13.48 3.96974 12.8 1.56974 11.79C1.13974 11.79 1.14974 12.31 1.56974 12.56C2.20032 12.926 2.89114 13.1766 3.60974 13.3Z" fill="black"/>
<path fill-rule="evenodd" clip-rule="evenodd" d="M9.65974 9.15997C7.71974 9.21997 3.30974 9.23997 1.56974 8.15997C1.13974 8.15997 0.849738 8.54997 1.56974 8.96997C2.83974 9.80997 5.56974 10.29 8.56974 10.31C11.0697 10.31 13.7897 10.1 15.8297 8.94997C16.1597 8.54997 16.0197 8.04997 15.7297 8.18997C13.8165 9.00588 11.732 9.33898 9.65974 9.15997Z" fill="black"/>
<path fill-rule="evenodd" clip-rule="evenodd" d="M17.0999 3C17.0999 1.69 15.0399 0.579999 13.8499 0.599999C13.8011 0.59153 13.751 0.593841 13.7032 0.606772C13.6553 0.619702 13.6109 0.642938 13.5729 0.674853C13.535 0.706768 13.5045 0.746589 13.4836 0.791527C13.4627 0.836464 13.4518 0.885432 13.4518 0.934999C13.4518 0.984566 13.4627 1.03353 13.4836 1.07847C13.5045 1.12341 13.535 1.16323 13.5729 1.19515C13.6109 1.22706 13.6553 1.2503 13.7032 1.26323C13.751 1.27616 13.8011 1.27847 13.8499 1.27C14.6799 1.27 16.2999 2.18 16.2799 3.01C16.2799 3.55 15.7399 4.11 14.3899 4.54C12.9306 4.93679 11.4219 5.12201 9.90994 5.09C7.90994 5.09 4.97994 5.27 3.17994 4.45C2.5192 4.22847 1.93143 3.83086 1.47994 3.3C1.04994 2.55 2.83994 1.9 3.62994 1.56C6.07994 0.779999 8.87994 0.999999 11.4799 0.999999C11.5595 0.999999 11.6358 0.968392 11.6921 0.912131C11.7483 0.85587 11.7799 0.779564 11.7799 0.699999C11.7799 0.620434 11.7483 0.544128 11.6921 0.487867C11.6358 0.431606 11.5595 0.399999 11.4799 0.399999C7.99994 0.189999 4.87994 -0.140001 1.87994 1.21C0.999942 1.6 0.189942 2.33 0.309942 3.25C-5.78761e-05 5.21 0.239942 7.56 0.129942 8.8C-0.0559982 11.575 -0.0225609 14.3603 0.229942 17.13C0.335831 18.0846 0.804893 18.9618 1.53994 19.58C2.77994 20.58 6.53994 21.26 9.27994 21.1C9.36836 21.0948 9.45127 21.0554 9.51104 20.99C9.5708 20.9246 9.6027 20.8385 9.59994 20.75C9.59994 20.03 7.97994 20.89 4.24994 19.68C3.52681 19.5313 2.84449 19.2277 2.24994 18.79C1.74642 18.4272 1.39122 17.8943 1.24994 17.29C0.619942 13.75 0.859942 5.34 0.869942 4.29C3.09994 6.54 7.11994 6.29 9.93994 6.15C14.4199 6 15.8299 4.87 16.1999 4.6C16.5699 4.33 16.4199 9.52 16.4799 9.95C16.4799 10.0296 16.5115 10.1059 16.5678 10.1621C16.6241 10.2184 16.7004 10.25 16.7799 10.25C16.8595 10.25 16.9358 10.2184 16.9921 10.1621C17.0483 10.1059 17.0799 10.0296 17.0799 9.95C17.4699 5.52 17.1999 7.93 17.0999 3Z" fill="black"/>
</g>
<defs>
<clipPath id="clip0_36_754">
<rect width="24" height="24" fill="white"/>
</clipPath>
</defs>
</svg>
