<svg width="24" height="24" viewBox="0 0 24 24" fill="none" xmlns="http://www.w3.org/2000/svg">
<g clip-path="url(#clip0_36_1220)">
<path fill-rule="evenodd" clip-rule="evenodd" d="M21.9099 19.16C21.4269 19.0919 20.9356 19.2028 20.5286 19.4717C20.1216 19.7406 19.8269 20.149 19.6999 20.62C18.5372 19.8661 17.2288 19.3653 15.8599 19.15C16.0941 18.8428 16.2251 18.4693 16.2341 18.0831C16.243 17.6969 16.1296 17.3177 15.9099 17C17.7699 15.75 17.6499 16.16 19.4199 14.52C19.6422 14.8303 19.9486 15.0705 20.303 15.2122C20.6574 15.354 21.045 15.3914 21.4199 15.32C21.7755 15.2624 22.109 15.1099 22.385 14.8785C22.6611 14.6471 22.8696 14.3454 22.9884 14.0054C23.1072 13.6653 23.132 13.2994 23.0601 12.9465C22.9882 12.5935 22.8223 12.2665 22.5799 12C22.3382 11.7358 22.0281 11.5436 21.6839 11.4448C21.3398 11.3459 20.975 11.3443 20.6299 11.44C20.535 11.4579 20.4508 11.5122 20.3953 11.5914C20.3399 11.6705 20.3177 11.7682 20.3334 11.8636C20.349 11.9589 20.4014 12.0444 20.4792 12.1016C20.5571 12.1589 20.6542 12.1834 20.7499 12.17C21.0151 12.1156 21.2911 12.1688 21.5171 12.3179C21.743 12.467 21.9005 12.6998 21.9549 12.965C22.0093 13.2302 21.9561 13.5061 21.807 13.7321C21.6579 13.9581 21.4251 14.1156 21.1599 14.17C20.9417 14.2218 20.7128 14.2044 20.5049 14.1201C20.297 14.0359 20.1205 13.8891 19.9999 13.7C19.9034 13.5541 19.843 13.3872 19.8239 13.2133C19.8048 13.0394 19.8274 12.8634 19.8899 12.7C19.9498 12.6384 19.9833 12.5559 19.9833 12.47C19.9833 12.3841 19.9498 12.3016 19.8899 12.24C19.5299 11.94 18.8899 12.58 19.1099 13.68C18.2995 14.0291 17.5421 14.4903 16.8599 15.05C16.3442 15.4753 15.8689 15.9473 15.4399 16.46C15.0899 16.22 14.6999 16 14.5099 16.38C14.4679 16.4691 14.4621 16.571 14.4939 16.6643C14.5256 16.7576 14.5923 16.8349 14.6799 16.88C14.9226 16.9914 15.1111 17.1946 15.2039 17.445C15.2967 17.6953 15.2863 17.9723 15.1749 18.215C15.0635 18.4576 14.8603 18.6461 14.6099 18.739C14.3596 18.8318 14.0826 18.8214 13.8399 18.71C13.6373 18.6337 13.4632 18.4967 13.3415 18.3177C13.2198 18.1387 13.1563 17.9264 13.1599 17.71C13.1599 17.41 13.3699 16.96 13.6299 16.87C13.7144 16.8508 13.7881 16.7992 13.8348 16.7262C13.8816 16.6532 13.8978 16.5648 13.8799 16.48C13.7599 15.96 12.6699 16.27 12.2599 17.48C12.134 17.8876 12.1418 18.3249 12.2822 18.7278C12.4225 19.1307 12.688 19.4782 13.0398 19.7194C13.3917 19.9607 13.8115 20.0832 14.2379 20.0689C14.6643 20.0546 15.075 19.9043 15.4099 19.64C16.8799 20.57 16.6999 20.77 19.7199 21.39C19.872 21.9671 20.2167 22.475 20.6967 22.8296C21.1768 23.1842 21.7636 23.3642 22.3599 23.34C22.847 23.2055 23.2704 22.9022 23.5546 22.4844C23.8387 22.0665 23.965 21.5612 23.9109 21.0588C23.8568 20.5564 23.6258 20.0895 23.2593 19.7417C22.8927 19.3939 22.4145 19.1877 21.9099 19.16ZM22.7399 21.33C22.6599 22.08 22.2799 22.33 21.8199 22.33C21.5087 22.3161 21.2077 22.215 20.9513 22.0381C20.6949 21.8613 20.4934 21.6159 20.3699 21.33C20.3658 21.1595 20.4015 20.9903 20.474 20.8359C20.5465 20.6816 20.6539 20.5462 20.7878 20.4404C20.9216 20.3347 21.0782 20.2616 21.2452 20.2268C21.4122 20.192 21.585 20.1965 21.7499 20.24C22.0535 20.3083 22.3332 20.4568 22.5599 20.67C22.6423 20.7564 22.7019 20.862 22.7333 20.9772C22.7647 21.0924 22.767 21.2137 22.7399 21.33Z" fill="black"/>
<path fill-rule="evenodd" clip-rule="evenodd" d="M10.3601 19.17C3.36009 18.99 3.27009 19.02 2.51009 18.87C2.07343 18.8337 1.65988 18.6585 1.33009 18.37C1.63049 17.9411 1.88521 17.4819 2.09009 17C4.48009 10.54 3.87009 6.99997 4.06009 3.73997C4.06009 4.05997 4.11009 1.57997 4.06009 1.49997C4.04484 1.4628 4.02227 1.42906 3.99373 1.40078C3.9652 1.37249 3.93127 1.35022 3.89396 1.3353C3.85665 1.32038 3.81672 1.3131 3.77655 1.3139C3.73638 1.31471 3.69677 1.32357 3.66009 1.33997C3.34009 1.47997 3.43009 1.95997 3.42009 2.11997C3.03009 9.37997 2.74009 10.76 1.72009 14.3C1.47122 15.2484 1.15371 16.1776 0.77009 17.08C0.46009 17.7 0.0500898 18.2 8.97567e-05 18.41C-0.0196087 18.5777 0.0142848 18.7474 0.0969153 18.8947C0.179546 19.042 0.306674 19.1593 0.46009 19.23C1.04196 19.5433 1.66971 19.7627 2.32009 19.88C3.17009 20.01 3.32009 19.97 10.3801 19.88C10.4742 19.8773 10.5635 19.8374 10.6282 19.7689C10.6929 19.7005 10.7277 19.6091 10.7251 19.515C10.7224 19.4208 10.6825 19.3316 10.614 19.2669C10.5456 19.2022 10.4542 19.1673 10.3601 19.17Z" fill="black"/>
<path fill-rule="evenodd" clip-rule="evenodd" d="M13.3103 3.14996C13.5403 4.47996 11.4703 6.63996 13.5703 6.81996C14.5403 6.86304 15.5084 6.69943 16.4103 6.33996L17.6203 5.79996C17.8803 5.67996 17.9303 5.45996 17.8303 5.29996C17.5903 4.90996 16.7103 5.29996 16.0903 5.54996C15.3181 5.71146 14.5281 5.77197 13.7403 5.72996C14.2227 4.6621 14.3147 3.45874 14.0003 2.32996C13.6003 1.99996 13.1603 2.28996 13.3103 3.14996Z" fill="black"/>
<path fill-rule="evenodd" clip-rule="evenodd" d="M14.3702 0.669984C13.2602 0.589984 14.0002 0.609984 5.50016 0.819984C5.40998 0.819984 5.3235 0.855805 5.25974 0.919568C5.19598 0.98333 5.16016 1.06981 5.16016 1.15998C5.16016 1.25016 5.19598 1.33664 5.25974 1.4004C5.3235 1.46416 5.40998 1.49998 5.50016 1.49998C5.50016 1.49998 14.0602 1.78998 14.2702 1.80998C15.2102 1.88998 18.3702 4.80998 18.3602 5.37998C18.3602 6.84998 18.0602 9.24998 17.9102 10.68C17.8995 10.7595 17.921 10.8401 17.9697 10.9038C18.0185 10.9676 18.0906 11.0094 18.1702 11.02C18.2497 11.0306 18.3302 11.0092 18.394 10.9604C18.4578 10.9116 18.4995 10.8395 18.5102 10.76C18.7002 9.53998 19.1902 7.06998 19.3402 5.43998C19.4902 3.80998 15.7102 0.789984 14.3702 0.669984Z" fill="black"/>
<path fill-rule="evenodd" clip-rule="evenodd" d="M19.6803 2.17997C20.6413 3.02291 21.3217 4.13946 21.6303 5.37997C21.6303 6.84997 21.1703 8.86997 21.0203 10.3C21.0097 10.3795 21.0311 10.4601 21.0799 10.5238C21.1286 10.5876 21.2007 10.6294 21.2803 10.64C21.3598 10.6506 21.4404 10.6291 21.5041 10.5804C21.5679 10.5316 21.6097 10.4595 21.6203 10.38C21.8103 9.15997 22.4603 7.06997 22.6203 5.43997C22.5815 4.63864 22.3526 3.85803 21.9527 3.16254C21.5528 2.46706 20.9933 1.87662 20.3203 1.43997C19.3303 0.929966 19.2103 1.89997 19.6803 2.17997Z" fill="black"/>
<path fill-rule="evenodd" clip-rule="evenodd" d="M8.58986 9.40002C8.58986 9.08002 8.38986 9.01002 8.09986 9.06002C7.85346 9.14555 7.62097 9.26684 7.40986 9.42002C6.60619 9.81154 5.91727 10.404 5.40986 11.14C5.08986 11.76 5.81986 12.14 5.96986 12.32C6.56123 12.8359 7.1823 13.3167 7.82986 13.76C7.89468 13.8176 7.97905 13.8483 8.06573 13.8457C8.1524 13.8432 8.23482 13.8076 8.29614 13.7463C8.35745 13.685 8.39302 13.6026 8.39557 13.5159C8.39813 13.4292 8.36746 13.3448 8.30986 13.28C7.99986 12.91 7.56986 12.52 7.18986 12.11C6.80986 11.7 6.97986 11.74 6.55986 11.46C7.73986 10 8.63986 9.87002 8.58986 9.40002Z" fill="black"/>
<path fill-rule="evenodd" clip-rule="evenodd" d="M13.7899 10.09C13.0759 9.61641 12.2729 9.29317 11.4299 9.14001C11.3779 9.16978 11.3348 9.21274 11.3047 9.26454C11.2747 9.31634 11.2589 9.37514 11.2589 9.43501C11.2589 9.49488 11.2747 9.55369 11.3047 9.60549C11.3348 9.65729 11.3779 9.70025 11.4299 9.73001C11.9579 10.0112 12.4658 10.3286 12.9499 10.68C12.7399 11.01 12.0299 11.86 11.6599 12.3C11.2899 12.74 10.6599 12.96 10.9699 13.3C11.2799 13.64 11.8399 13.21 12.2599 12.87C13.2799 12.1 14.8499 11 13.7899 10.09Z" fill="black"/>
</g>
<defs>
<clipPath id="clip0_36_1220">
<rect width="24" height="24" fill="white"/>
</clipPath>
</defs>
</svg>
