<svg width="24" height="24" viewBox="0 0 24 24" fill="none" xmlns="http://www.w3.org/2000/svg">
<path fill-rule="evenodd" clip-rule="evenodd" d="M16.0001 12.06C16.0001 11.67 15.7401 11.53 15.6301 11.33C15.3901 10.87 14.8601 10.44 15.0101 10.09C15.2501 9.55996 16.0101 9.44996 16.5801 9.58996C16.98 9.77471 17.3908 9.93501 17.8101 10.07C18.1801 10.13 18.4701 9.75996 18.8101 9.34996C19.2821 8.8244 19.6426 8.20868 19.8701 7.53996C19.8782 7.42433 19.8503 7.30903 19.7901 7.20996C19.1753 6.56357 18.4716 6.008 17.7001 5.55996C17.7001 5.55996 17.5601 5.41996 17.4601 5.34996C17.744 4.81441 17.8884 4.21602 17.8801 3.60996C17.8333 3.169 17.6643 2.74988 17.392 2.39986C17.1198 2.04984 16.7552 1.78284 16.3393 1.62897C15.9234 1.47509 15.4728 1.44046 15.0383 1.52898C14.6038 1.6175 14.2027 1.82565 13.8801 2.12996C13.3701 2.69996 14.2201 2.99996 14.2901 2.50996L14.6101 2.25996C14.8865 2.11139 15.1975 2.03939 15.511 2.05141C15.8245 2.06343 16.1291 2.15905 16.3933 2.32834C16.6574 2.49764 16.8715 2.73447 17.0134 3.01431C17.1552 3.29415 17.2197 3.60683 17.2001 3.91996C17.1175 4.3749 16.9549 4.81163 16.7201 5.20996C16.3301 6.00996 17.2101 5.86996 19.0201 7.56996C18.7133 8.13254 18.3183 8.64234 17.8501 9.07996L16.8501 8.65996C16.3455 8.48092 15.7943 8.48276 15.2908 8.66517C14.7874 8.84757 14.363 9.19922 14.0901 9.65996C13.6301 10.66 14.3701 11.19 14.7101 11.84C14.9301 12.28 15.0601 11.98 14.7101 12.66C14.44 13.1932 14.104 13.6904 13.7101 14.14C12.7101 13.82 7.21012 10.91 6.55012 9.79996C6.74535 9.07275 7.08549 8.39247 7.55012 7.79996C8.68012 8.39996 9.36012 8.90996 10.3901 8.31996C12.4901 7.09996 11.8101 4.69996 9.44012 4.31996C9.70595 3.70995 10.0415 3.13277 10.4401 2.59996C10.6901 2.32996 11.7001 2.82996 12.0001 2.97996C12.077 3.01842 12.1661 3.02474 12.2476 2.99755C12.3292 2.97036 12.3967 2.91187 12.4351 2.83496C12.4736 2.75805 12.4799 2.66901 12.4527 2.58743C12.4255 2.50585 12.367 2.43842 12.2901 2.39996C10.0601 1.19996 10.0001 1.83996 8.77012 3.99996C8.61012 4.27996 8.41012 4.58996 8.64012 4.86996C8.87012 5.14996 9.56012 5.07996 9.82012 5.16996C10.5201 5.41996 11.1001 6.10996 10.7401 6.75996C10.5001 7.17996 9.91012 7.69996 9.42012 7.62996C7.42012 6.77996 7.53012 6.12996 6.62012 7.45996C6.07997 8.1458 5.73454 8.96448 5.62012 9.82996C5.62012 11.62 13.3701 15.22 13.8701 15.24C14.7501 15.29 16.0001 12.62 16.0001 12.06Z" fill="black"/>
<path fill-rule="evenodd" clip-rule="evenodd" d="M8.71 19.57C8.39 18.18 8.97 14.49 7.33 14.52C5.87 14.52 6.15 15.71 5.63 17.12C5.49 17.51 5.51 17.55 4.63 16.74C4.46092 16.5695 4.3101 16.3818 4.18 16.18C4.26 15.79 4.1 16.08 4.4 13.58C4.51 12.69 4.47 11.65 3.68 11.23C3.43282 11.0933 3.14783 11.0408 2.86817 11.0805C2.58851 11.1202 2.32938 11.2499 2.13 11.45C2.01215 11.2818 1.84919 11.1503 1.65988 11.0707C1.47058 10.9911 1.26263 10.9666 1.06 11C0 11.12 0 12.34 0 13.37C0.06 16.11 2.2 19.05 4.24 20.88L4.86 22.46C4.95 22.73 5.53 22.41 5.43 22.14L5 20.47C5 20.34 0.77 16.99 0.81 13.36C0.81 12.95 0.81 11.84 1.19 11.8C1.77 11.74 1.66 12.26 2.46 14.35C2.74704 15.1346 3.11221 15.8884 3.55 16.6C3.99568 17.2528 4.61115 17.7714 5.33 18.1C6.58 18.33 6.41 16.28 6.79 15.7C6.88 15.55 7.05 15.48 7.33 15.47C8.33 15.47 7.55 19.83 8.21 20.12C8.44 20.23 8.9 19.91 8.75 19.71C8.77 19.69 8.72 19.63 8.71 19.57ZM2.41 11.92C2.52754 11.7881 2.69 11.7048 2.86567 11.6863C3.04133 11.6679 3.21758 11.7155 3.36 11.82C3.76 12.09 3.67 13.07 3.63 13.62C3.58366 14.1568 3.60044 14.6971 3.68 15.23C3.19766 14.1502 2.77372 13.0453 2.41 11.92Z" fill="black"/>
<path fill-rule="evenodd" clip-rule="evenodd" d="M15.2502 19.71C15.1002 19.91 15.5602 20.23 15.7902 20.12C16.4502 19.83 15.7002 15.43 16.6702 15.47C16.9502 15.47 17.1202 15.55 17.2102 15.7C17.5902 16.28 17.4202 18.33 18.6702 18.1C19.389 17.7714 20.0045 17.2527 20.4502 16.6C20.9018 15.89 21.2804 15.1362 21.5802 14.35C22.3802 12.26 22.2702 11.74 22.8502 11.8C23.2602 11.8 23.2302 12.95 23.2302 13.36C23.2302 16.99 19.0902 20.36 19.0402 20.47L18.5702 22.14C18.4702 22.41 19.0502 22.73 19.1402 22.46L19.7602 20.88C21.7602 19.05 23.9402 16.11 24.0002 13.37C24.0002 12.37 24.0002 11.12 22.9402 11C22.7329 10.9605 22.5187 10.982 22.3234 11.0619C22.1282 11.1417 21.9603 11.2766 21.8402 11.45C21.6408 11.2499 21.3817 11.1202 21.102 11.0805C20.8223 11.0408 20.5374 11.0933 20.2902 11.23C19.5002 11.65 19.4602 12.69 19.5702 13.58C19.8802 16.18 19.7102 15.81 19.7902 16.18C19.6601 16.3818 19.5092 16.5695 19.3402 16.74C18.4902 17.55 18.5102 17.51 18.3402 17.12C17.8202 15.71 18.1002 14.54 16.6402 14.52C14.9902 14.52 15.5802 18.18 15.2602 19.57C15.2802 19.63 15.2302 19.69 15.2502 19.71ZM20.3202 15.23C20.3997 14.6971 20.4165 14.1568 20.3702 13.62C20.3702 13.07 20.2402 12.09 20.6402 11.82C20.7826 11.7155 20.9588 11.6678 21.1345 11.6863C21.3102 11.7048 21.4726 11.7881 21.5902 11.92C21.2265 13.0453 20.8025 14.1502 20.3202 15.23Z" fill="black"/>
</svg>
