<svg width="24" height="24" viewBox="0 0 24 24" fill="none" xmlns="http://www.w3.org/2000/svg">
<g clip-path="url(#clip0_36_1059)">
<path fill-rule="evenodd" clip-rule="evenodd" d="M24.0002 14.2799C23.651 13.5712 23.2287 12.9009 22.7402 12.2799C22.3696 11.8205 21.8777 11.4741 21.3202 11.2799C21.0447 11.214 20.7558 11.2314 20.4902 11.3299C20.1002 11.4499 19.6302 11.6799 19.2102 11.8299C18.7902 11.9799 18.6002 11.7699 18.4402 11.5599C18.1202 11.1199 17.8702 10.5599 17.5902 10.1899C17.1807 9.62472 16.6333 9.17375 16.0002 8.8799C15.7944 8.8055 15.5746 8.77766 15.3567 8.79841C15.1389 8.81917 14.9283 8.88798 14.7402 8.9999C14.3923 9.18788 14.1307 9.50325 14.0102 9.8799C13.8615 10.3672 13.8898 10.8914 14.0902 11.3599C14.2556 11.7327 14.4636 12.0851 14.7102 12.4099C15.2379 13.0226 15.732 13.6636 16.1902 14.3299C16.3202 14.5399 16.4602 14.7499 16.5802 14.9699C16.1978 14.7814 15.7952 14.6372 15.3802 14.5399C15.1047 14.49 14.8208 14.5177 14.5602 14.6199C14.3853 14.6954 14.2332 14.8155 14.1191 14.9682C14.0051 15.1208 13.9331 15.3007 13.9102 15.4899C13.891 16.0942 14.0548 16.6903 14.3802 17.1999C14.6827 17.6455 15.0873 18.0123 15.5602 18.2699C16.5002 18.7899 17.6202 18.8199 18.7302 19.2699C18.7683 19.2967 18.8119 19.3149 18.8578 19.3231C18.9037 19.3314 18.9508 19.3295 18.9959 19.3176C19.0409 19.3057 19.0829 19.2841 19.1187 19.2543C19.1546 19.2245 19.1835 19.1873 19.2035 19.1451C19.2234 19.103 19.234 19.057 19.2343 19.0104C19.2346 18.9638 19.2248 18.9177 19.2054 18.8753C19.186 18.8328 19.1576 18.7952 19.1222 18.7649C19.0868 18.7346 19.0451 18.7124 19.0002 18.6999C18.0902 18.2399 17.1502 18.1099 16.3302 17.6999C15.8257 17.4773 15.4029 17.1034 15.1202 16.6299C15.0108 16.4369 14.9332 16.2276 14.8902 16.0099C14.8811 15.8901 14.8811 15.7697 14.8902 15.6499C14.8902 15.5899 14.8902 15.5199 14.9502 15.4999C15.1908 15.4643 15.4361 15.5177 15.6402 15.6499C15.9802 15.7999 16.3402 15.9899 16.6402 16.1099C16.8735 16.1988 17.1206 16.2462 17.3702 16.2499C17.5216 16.2501 17.6673 16.1921 17.7771 16.0878C17.887 15.9836 17.9525 15.8411 17.9602 15.6899C17.9595 15.4648 17.9361 15.2403 17.8902 15.0199C17.8357 14.8011 17.7551 14.5896 17.6502 14.3899C17.5202 14.1399 17.3702 13.8999 17.2402 13.6599C16.7623 12.9641 16.2448 12.2963 15.6902 11.6599C15.5006 11.4122 15.3396 11.1438 15.2102 10.8599C15.1358 10.6938 15.1082 10.5106 15.1302 10.3299C15.1355 10.2709 15.1546 10.2139 15.1858 10.1636C15.2171 10.1132 15.2597 10.0709 15.3102 10.0399C15.4902 9.9299 15.6802 10.0399 15.8502 10.1699C16.1418 10.3962 16.4039 10.6583 16.6302 10.9499C16.9202 11.3099 17.2002 11.8499 17.5302 12.2799C17.7035 12.5089 17.9129 12.7081 18.1502 12.8699C18.3 12.9575 18.4673 13.011 18.6402 13.0266C18.813 13.0421 18.9872 13.0194 19.1502 12.9599C19.6004 12.7983 20.0412 12.6114 20.4702 12.3999C20.7002 12.2999 20.8902 12.1699 21.0302 12.2099C21.4424 12.3291 21.813 12.5611 22.1002 12.8799C22.5727 13.4298 22.9881 14.0262 23.3402 14.6599C23.3962 14.7277 23.4746 14.7733 23.5612 14.7886C23.6478 14.8039 23.737 14.7878 23.8128 14.7433C23.8887 14.6988 23.9462 14.6287 23.975 14.5456C24.0038 14.4625 24.0021 14.3718 23.9702 14.2899L24.0002 14.2799Z" fill="black"/>
<path fill-rule="evenodd" clip-rule="evenodd" d="M6.14018 8.23997C6.17659 8.21852 6.20824 8.18986 6.23317 8.15574C6.2581 8.12162 6.27579 8.08276 6.28516 8.04156C6.29452 8.00035 6.29536 7.95766 6.28763 7.91612C6.27989 7.87457 6.26375 7.83505 6.24018 7.79997C6.19306 7.72787 6.11962 7.67706 6.03554 7.65837C5.95146 7.63969 5.8634 7.65462 5.79018 7.69997L4.73018 8.39997C4.50018 8.56997 4.08018 8.76997 3.73018 9.00997C3.54681 9.15814 3.39108 9.33757 3.27018 9.53997C3.22023 9.64636 3.19434 9.76244 3.19434 9.87997C3.19434 9.9975 3.22023 10.1136 3.27018 10.22C3.42205 10.5193 3.629 10.7873 3.88018 11.01C4.0941 11.1776 4.32543 11.3218 4.57018 11.44C5.06018 11.68 5.57018 11.83 6.08018 12.05C6.16213 12.0819 6.25277 12.0836 6.33586 12.0548C6.41894 12.0259 6.48904 11.9684 6.53358 11.8926C6.57812 11.8168 6.59419 11.7275 6.5789 11.6409C6.56362 11.5543 6.51799 11.476 6.45018 11.42C6.08018 11.15 5.67018 10.92 5.29018 10.66C5.0737 10.5104 4.87858 10.3321 4.71018 10.13C4.65021 10.0911 4.59337 10.0477 4.54018 9.99997L5.38018 9.09997L6.14018 8.23997Z" fill="black"/>
<path fill-rule="evenodd" clip-rule="evenodd" d="M8.88002 6.59995C8.55002 7.23995 8.18002 7.84995 7.88002 8.49995C7.74715 8.77634 7.63029 9.06014 7.53002 9.34995C7.42002 9.62995 7.33002 9.92995 7.24002 10.22C7.04002 10.92 6.90002 11.63 6.76002 12.3299C6.74442 12.4184 6.76153 12.5095 6.80817 12.5863C6.8548 12.6631 6.92777 12.7202 7.01346 12.7472C7.09915 12.7741 7.19171 12.7689 7.27388 12.7327C7.35605 12.6964 7.4222 12.6314 7.46002 12.55C7.74002 11.88 8.07002 11.24 8.36002 10.55C8.55002 10.11 8.74002 9.65995 8.89002 9.19995C9.15002 8.40995 9.30002 7.61995 9.50002 6.81995C9.52689 6.73888 9.52227 6.65065 9.48706 6.57283C9.45186 6.49501 9.38865 6.43329 9.31002 6.39995C9.26871 6.3841 9.22464 6.37672 9.18042 6.37825C9.13621 6.37977 9.09275 6.39018 9.05264 6.40883C9.01252 6.42749 8.97657 6.45403 8.94691 6.48686C8.91726 6.51969 8.89451 6.55815 8.88002 6.59995Z" fill="black"/>
<path fill-rule="evenodd" clip-rule="evenodd" d="M11.25 10.06L10.76 10.63L9.89005 11.5C9.80969 11.5548 9.75415 11.639 9.73543 11.7345C9.71672 11.8299 9.73634 11.9289 9.79005 12.01C9.81547 12.0503 9.84863 12.0851 9.8876 12.1124C9.92657 12.1398 9.97058 12.1591 10.0171 12.1694C10.0636 12.1796 10.1117 12.1805 10.1585 12.172C10.2054 12.1636 10.2501 12.1459 10.29 12.12L11.42 11.37L12.08 10.87C12.3026 10.6716 12.5038 10.4504 12.68 10.21C12.8425 10.0027 12.9523 9.75904 13 9.49999C13.0031 9.40645 12.9859 9.31334 12.9497 9.22705C12.9134 9.14075 12.859 9.0633 12.79 8.99999C12.6283 8.8451 12.4506 8.70767 12.26 8.58999C11.937 8.39459 11.6031 8.21764 11.26 8.05999C10.9344 7.90811 10.6006 7.77457 10.26 7.65999C10.1816 7.62568 10.0929 7.62319 10.0127 7.65304C9.93246 7.6829 9.86697 7.74276 9.83005 7.81999C9.79573 7.89842 9.79324 7.98712 9.8231 8.06735C9.85295 8.14758 9.91281 8.21307 9.99005 8.24999C10.2694 8.42524 10.5366 8.619 10.79 8.82999C11.0409 9.03782 11.278 9.26162 11.5 9.49999C11.63 9.55999 11.81 9.41999 11.25 10.06Z" fill="black"/>
<path fill-rule="evenodd" clip-rule="evenodd" d="M12.9301 2.47995C13.2301 2.53995 13.6801 1.66995 13.6801 1.64995C13.7232 1.56983 13.7471 1.48085 13.7501 1.38995C13.7601 1.29688 13.7601 1.20301 13.7501 1.10995C13.6401 0.00994575 13.3501 0.109946 13.2501 0.0499458C13.1501 -0.0100542 12.9201 0.0499458 12.6101 0.959946C12.57 1.03484 12.543 1.11599 12.5301 1.19995C12.5199 1.28631 12.5199 1.37358 12.5301 1.45995C12.5301 1.45995 12.6401 2.42995 12.9301 2.47995Z" fill="black"/>
<path fill-rule="evenodd" clip-rule="evenodd" d="M17.3403 3.9299C17.4389 3.86776 17.5295 3.79388 17.6103 3.7099C17.6918 3.63046 17.7654 3.5434 17.8303 3.4499C18.5603 2.5199 18.5003 2.4499 18.3703 2.2399C18.2403 2.0299 18.0003 1.9999 17.0503 2.5899C16.9462 2.65753 16.8461 2.73098 16.7503 2.8099C16.665 2.89857 16.5849 2.99206 16.5103 3.0899C15.8303 4.0899 16.0303 4.2699 16.1103 4.3499C16.1903 4.4299 16.3403 4.6099 17.3403 3.9299Z" fill="black"/>
<path fill-rule="evenodd" clip-rule="evenodd" d="M17.54 6.47C17.6 6.85 18.98 6.83 19.01 6.83C19.2097 6.81184 19.4072 6.77501 19.6 6.72C20.8 6.42 20.85 6.33 20.85 6.1C20.85 5.87 20.66 5.61 19.49 5.55C19.3504 5.53526 19.2096 5.53526 19.07 5.55C18.9347 5.57046 18.801 5.60053 18.67 5.64C17.46 6.12 17.52 6.34 17.54 6.47Z" fill="black"/>
<path d="M4.7501 18.29C4.70807 18.2913 4.66671 18.3008 4.62838 18.3181C4.59005 18.3354 4.5555 18.3601 4.52671 18.3907C4.49792 18.4214 4.47545 18.4574 4.46059 18.4967C4.44573 18.5361 4.43877 18.578 4.4401 18.62C4.4401 20.17 4.4401 20.29 4.8701 20.62C5.16098 20.8565 5.50362 21.021 5.8701 21.1C5.84673 21.614 5.98067 22.123 6.25403 22.5589C6.5274 22.9949 6.9272 23.3371 7.4001 23.54C7.82861 23.7411 8.28877 23.8663 8.7601 23.91C9.22248 23.9523 9.68865 23.9185 10.1401 23.81C10.7029 23.7223 11.2269 23.4692 11.6454 23.0827C12.0639 22.6963 12.358 22.1941 12.4901 21.64C12.5103 21.5909 12.5198 21.5381 12.5178 21.4851C12.5158 21.4321 12.5025 21.3802 12.4786 21.3328C12.4548 21.2854 12.4211 21.2437 12.3798 21.2105C12.3384 21.1772 12.2904 21.1533 12.239 21.1403C12.1876 21.1272 12.1339 21.1254 12.0818 21.1349C12.0296 21.1444 11.98 21.165 11.9365 21.1953C11.893 21.2257 11.8565 21.265 11.8295 21.3106C11.8025 21.3563 11.7857 21.4072 11.7801 21.46C11.6176 21.8159 11.3576 22.1185 11.0301 22.3326C10.7027 22.5468 10.3213 22.6637 9.9301 22.67C9.59776 22.7063 9.26245 22.7063 8.9301 22.67C8.58837 22.636 8.25234 22.5587 7.9301 22.44C7.63371 22.3624 7.36139 22.2119 7.13786 22.0024C6.91433 21.7928 6.74668 21.5308 6.6501 21.24L6.9301 21.3C7.97506 21.4925 9.03924 21.5596 10.1001 21.5C10.8319 21.446 11.5507 21.2773 12.2301 21L13.0501 20.5C13.1495 20.4237 13.2401 20.3364 13.3201 20.24C13.4088 20.1401 13.489 20.0331 13.5601 19.92C13.7578 19.6828 13.866 19.3838 13.866 19.075C13.866 18.7662 13.7578 18.4672 13.5601 18.23C13.427 18.0847 13.2675 17.9659 13.0901 17.88C12.3267 17.6625 11.5329 17.5713 10.7401 17.61L8.4401 17.8C7.5801 17.9 6.7201 18.06 5.8501 18.17L4.7501 18.29ZM5.3401 19.29L5.5601 18.87L8.5601 18.72H10.8201C11.3411 18.7024 11.8621 18.7529 12.3701 18.87C12.4815 18.8929 12.5849 18.9446 12.6701 19.02C12.6437 19.098 12.6067 19.172 12.5601 19.24L12.3401 19.5L11.7901 19.83C11.0766 20.1496 10.3107 20.336 9.5301 20.38C8.68813 20.4515 7.84148 20.4482 7.0001 20.37C6.44716 20.3848 5.89968 20.2574 5.4101 20C5.2501 19.87 5.2101 19.65 5.3401 19.31V19.29Z" fill="black"/>
<path d="M13.3201 17.0999C13.5001 16.0999 13.3801 16.0999 13.2101 15.9999C13.0401 15.8999 12.8101 16.0899 12.2101 16.9499C12.1907 16.9952 12.1673 17.0387 12.1401 17.0799C12.1401 17.3999 13.1401 17.7299 13.2901 17.3999L13.3201 17.0999Z" fill="black"/>
<path d="M15.5601 6.45993C15.3168 5.7041 14.8949 5.01806 14.3301 4.45993C13.7874 3.92366 13.1671 3.47195 12.4901 3.11993C11.4043 2.57025 10.2162 2.25179 9.00103 2.18466C7.78584 2.11753 6.56993 2.3032 5.43014 2.72993C4.25836 3.12441 3.18866 3.77388 2.29812 4.63157C1.40758 5.48926 0.718365 6.5338 0.28014 7.68993C-0.0744999 8.82965 -0.0744999 10.0502 0.28014 11.1899C0.617195 12.291 1.17523 13.3118 1.92014 14.1899C2.37014 14.7199 2.92014 15.1899 3.38014 15.6699C3.57595 15.8659 3.75647 16.0765 3.92014 16.2999C4.1871 16.6525 4.41195 17.0351 4.59014 17.4399C4.59014 17.5199 4.65014 17.6099 4.69014 17.6999C4.77014 18.0599 5.42014 17.9299 5.43014 17.6499C5.44014 17.3699 5.32014 17.3199 5.25014 17.1599C5.06629 16.7005 4.83504 16.2614 4.56014 15.8499C4.39217 15.5802 4.20502 15.3228 4.00014 15.0799C3.57014 14.5699 3.07014 14.0799 2.66014 13.5699C2.05037 12.7772 1.60808 11.8688 1.36014 10.8999C1.11948 9.97557 1.16128 9.00031 1.48014 8.09993C1.86194 7.11738 2.4534 6.2299 3.21332 5.49935C3.97323 4.76879 4.88331 4.21274 5.88014 3.86993C6.87022 3.47787 7.9286 3.28742 8.99325 3.30974C10.0579 3.33206 11.1074 3.56671 12.0801 3.99993C12.69 4.29651 13.2555 4.67685 13.7601 5.12993C14.2477 5.5594 14.6278 6.0971 14.8701 6.69993C14.902 6.79043 14.9678 6.86501 15.0536 6.90792C15.1395 6.95083 15.2386 6.95872 15.3301 6.92993C15.3769 6.91536 15.4202 6.89139 15.4574 6.8595C15.4946 6.82761 15.5249 6.78847 15.5464 6.74447C15.5679 6.70048 15.5802 6.65255 15.5826 6.60362C15.585 6.55469 15.5773 6.5058 15.5601 6.45993Z" fill="black"/>
</g>
<defs>
<clipPath id="clip0_36_1059">
<rect width="24" height="24" fill="white"/>
</clipPath>
</defs>
</svg>
