<svg width="24" height="24" viewBox="0 0 24 24" fill="none" xmlns="http://www.w3.org/2000/svg">
<g clip-path="url(#clip0_36_766)">
<path fill-rule="evenodd" clip-rule="evenodd" d="M19.8801 17.44C19.9279 17.1034 19.8845 16.7602 19.7544 16.4462C19.6244 16.1321 19.4125 15.8587 19.1408 15.6544C18.8691 15.4501 18.5476 15.3224 18.2097 15.2847C17.8719 15.247 17.5302 15.3006 17.2201 15.44C16.2797 15.889 15.4292 16.5058 14.7101 17.26C14.2701 17.63 12.7801 18.74 12.7101 18.77C11.8948 18.7618 11.0892 18.5918 10.3401 18.27C10.3401 18.17 10.4101 18.08 10.5301 17.92C11.7601 16.21 13.3601 15.61 12.2301 13.92C12.0539 13.6736 11.804 13.4894 11.5165 13.3942C11.2289 13.2989 10.9186 13.2975 10.6301 13.39C8.81011 13.67 7.00011 15.5 5.27011 16.18C5.19011 16.18 5.11011 16.18 5.09011 16.23C4.80011 14.23 2.94011 14.77 2.23011 14.76C1.52011 14.75 -0.0698928 14.64 0.230107 15.33C0.261327 15.4076 0.321736 15.47 0.39838 15.5036C0.475025 15.5373 0.561803 15.5396 0.640107 15.51C1.15577 15.4368 1.68023 15.4537 2.19011 15.56C3.19011 15.67 3.89011 15.39 4.00011 16.28V22.14C4.00011 22.84 3.94011 23.02 2.83011 23.14C2.16223 23.1891 1.49087 23.1589 0.830107 23.05C0.735955 23.0327 0.638812 23.0536 0.560046 23.108C0.481281 23.1624 0.427346 23.2458 0.410107 23.34C0.392868 23.4341 0.413737 23.5313 0.468122 23.61C0.522508 23.6888 0.605955 23.7427 0.700107 23.76C1.40272 23.9168 2.12021 23.9972 2.84011 24C3.84011 24 4.54011 23.84 4.89011 23L7.24011 22.48C10.9601 23.48 16.0501 23.64 19.3101 21.57C20.5601 20.76 21.9401 19.76 21.2501 18.43C21.1379 18.1528 20.9499 17.913 20.7076 17.7379C20.4652 17.5627 20.1784 17.4595 19.8801 17.44ZM15.3301 18.12C16.3301 17.47 17.6801 16.12 18.4501 16.41C18.6718 16.4857 18.8573 16.6415 18.9701 16.8468C19.083 17.0521 19.1151 17.2922 19.0601 17.52C17.1201 17.95 16.1801 18.36 14.4501 18.59C14.7701 18.43 15.0901 18.26 15.3301 18.12ZM18.6701 20.56C14.4101 23.49 7.44011 21.66 7.17011 21.73C4.86011 22.31 5.06011 22.31 5.07011 22.22C5.21526 20.4837 5.23865 18.7395 5.14011 17C6.47011 16.93 10.8101 13.31 11.4701 14.4C12.1301 15.49 10.9301 15.71 9.70011 17.3C9.07011 18.12 9.22011 18.67 9.60011 19.06C10.1574 19.4592 10.8019 19.7198 11.4801 19.82C13.8301 20.41 17.8301 19.08 18.7001 18.91C19.3901 18.76 19.8801 18.44 20.1801 19.01C20.4801 19.58 19.1301 20.25 18.6701 20.56Z" fill="black"/>
<path fill-rule="evenodd" clip-rule="evenodd" d="M10.9001 10.82C10.9956 10.82 11.0871 10.7821 11.1547 10.7145C11.2222 10.647 11.2601 10.5555 11.2601 10.46C11.2601 10.3645 11.2222 10.2729 11.1547 10.2054C11.0871 10.1379 10.9956 10.1 10.9001 10.1C10.2401 10.07 7.0001 7.41999 6.5001 6.99999C6.0001 6.57999 6.0001 6.86999 6.3501 6.51999C6.7001 6.16999 7.1301 5.88999 7.2801 5.75999C8.47317 4.61115 9.76854 3.57352 11.1501 2.65999C11.2244 2.61755 11.2787 2.54736 11.3012 2.46484C11.3237 2.38232 11.3125 2.29425 11.2701 2.21999C11.2277 2.14573 11.1575 2.09136 11.075 2.06886C10.9924 2.04635 10.9044 2.05755 10.8301 2.09999C8.70738 3.17145 6.74502 4.53467 5.0001 6.14999C4.88961 6.28874 4.81606 6.45323 4.78634 6.6281C4.75661 6.80296 4.77166 6.98251 4.8301 7.14999C5.1001 7.68999 9.9001 10.86 10.9001 10.82Z" fill="black"/>
<path fill-rule="evenodd" clip-rule="evenodd" d="M12.7402 12.11C13.8502 8.54999 16.2502 5.45999 16.9202 0.379989C16.9363 0.336453 16.9427 0.289935 16.9391 0.243661C16.9354 0.197387 16.9217 0.152466 16.8989 0.112015C16.8762 0.0715632 16.8449 0.0365495 16.8072 0.00940259C16.7696 -0.0177443 16.7264 -0.0363743 16.6809 -0.0451949C16.6353 -0.0540156 16.5884 -0.0528157 16.5433 -0.0416785C16.4982 -0.0305413 16.4561 -0.00973353 16.4199 0.0193014C16.3837 0.0483363 16.3542 0.0849031 16.3336 0.126465C16.3129 0.168027 16.3015 0.213589 16.3002 0.259989C15.5002 3.45999 13.0102 7.25999 12.0402 11.93C12.0284 11.976 12.0257 12.0238 12.0324 12.0708C12.0391 12.1178 12.0549 12.163 12.0791 12.2038C12.1032 12.2447 12.1352 12.2804 12.1731 12.3089C12.211 12.3374 12.2542 12.3582 12.3002 12.37C12.3462 12.3818 12.394 12.3845 12.441 12.3778C12.488 12.3711 12.5332 12.3553 12.574 12.3311C12.6149 12.307 12.6506 12.275 12.6791 12.2371C12.7076 12.1991 12.7284 12.156 12.7402 12.11Z" fill="black"/>
<path fill-rule="evenodd" clip-rule="evenodd" d="M18.8003 2.32004C18.734 2.26699 18.6493 2.24246 18.5649 2.25184C18.4806 2.26121 18.4033 2.30373 18.3503 2.37004C18.2973 2.43634 18.2727 2.521 18.2821 2.60539C18.2915 2.68978 18.334 2.76699 18.4003 2.82004C18.8303 3.20004 22.2003 6.19004 22.5003 6.67004C21.4103 8.00004 17.3203 10.47 17.3403 10.56C17.2515 10.5875 17.1763 10.6473 17.1296 10.7277C17.083 10.8081 17.0682 10.9031 17.0884 10.9938C17.1086 11.0845 17.1621 11.1643 17.2384 11.2174C17.3148 11.2704 17.4082 11.2928 17.5003 11.28C17.8803 11.22 23.3103 8.28004 23.7903 6.84004C24.0803 5.92004 22.0003 4.62004 18.8003 2.32004Z" fill="black"/>
</g>
<defs>
<clipPath id="clip0_36_766">
<rect width="24" height="24" fill="white"/>
</clipPath>
</defs>
</svg>
