<svg width="24" height="24" viewBox="0 0 24 24" fill="none" xmlns="http://www.w3.org/2000/svg">
<g clip-path="url(#clip0_36_801)">
<path d="M14.3101 19.62C13.5973 20.0538 12.7573 20.2303 11.9301 20.12C11.5904 20.085 11.2553 20.0146 10.9301 19.91C10.6071 19.809 10.2981 19.6679 10.0101 19.49C9.65414 19.3008 9.34248 19.0379 9.09592 18.719C8.84936 18.4 8.67354 18.0322 8.58015 17.64C8.58015 17.35 8.50015 17.08 8.50015 16.78C8.54863 16.0219 8.51511 15.2608 8.40015 14.51C8.31625 14.0881 8.10716 13.7013 7.80015 13.4C7.6581 13.2768 7.47805 13.2062 7.29015 13.2C7.08511 13.2115 6.88122 13.2382 6.68015 13.28H4.74015H3.92015C3.74845 13.0017 3.59802 12.7109 3.47015 12.41C3.35714 12.1211 3.28316 11.8184 3.25015 11.51C3.22024 11.2742 3.22024 11.0357 3.25015 10.8C3.28411 10.5661 3.34797 10.3376 3.44015 10.12C3.65502 9.45556 4.10242 8.89099 4.70015 8.52997C5.15267 8.30066 5.65284 8.18117 6.16015 8.18117C6.66745 8.18117 7.16763 8.30066 7.62015 8.52997C8.13015 8.75997 11.0701 10.32 9.11015 13.09C9.06114 13.1656 9.04415 13.2575 9.0629 13.3457C9.08165 13.4338 9.13461 13.5109 9.21015 13.56C9.54629 13.856 9.84515 14.1918 10.1001 14.56C10.3512 14.9248 10.5592 15.3174 10.7201 15.73C10.8784 16.1432 11.0054 16.5677 11.1001 17C11.2022 17.3638 11.3755 17.7037 11.6101 18C11.8342 18.2639 12.1311 18.4559 12.4637 18.552C12.7963 18.648 13.1499 18.6439 13.4801 18.54C13.6328 18.5025 13.7831 18.4557 13.9301 18.4L14.3301 18.21C14.3761 18.189 14.4175 18.1591 14.4519 18.1221C14.4863 18.0851 14.5131 18.0417 14.5308 17.9943C14.5484 17.947 14.5566 17.8966 14.5547 17.8461C14.5529 17.7956 14.5412 17.7459 14.5201 17.7C14.4991 17.654 14.4693 17.6126 14.4323 17.5782C14.3953 17.5438 14.3519 17.517 14.3045 17.4993C14.2571 17.4817 14.2068 17.4736 14.1563 17.4754C14.1058 17.4772 14.0561 17.489 14.0101 17.51L13.3601 17.64C13.2067 17.6672 13.0487 17.6496 12.9051 17.5893C12.7614 17.529 12.6382 17.4285 12.5501 17.3C12.4095 17.0345 12.3148 16.7471 12.2701 16.45C12.1786 16.0488 12.0411 15.6595 11.8601 15.29C11.5829 14.8284 11.2467 14.4048 10.8601 14.03C10.5779 13.7749 10.2696 13.5503 9.94015 13.36C9.94015 13.36 10.0201 13.36 10.0501 13.29C11.6701 10.99 10.2601 8.54997 8.17015 7.49997C7.64579 7.21811 7.06979 7.04534 6.47686 6.99206C5.88393 6.93878 5.28636 7.00611 4.72015 7.18997C4.16354 7.404 3.66618 7.74803 3.26956 8.19336C2.87295 8.63868 2.58857 9.1724 2.44015 9.74997C2.35872 10.0503 2.31175 10.359 2.30015 10.67C2.27824 10.985 2.30182 11.3016 2.37015 11.61C2.45339 11.9852 2.58446 12.3481 2.76015 12.69C2.8717 12.8938 2.99525 13.0908 3.13015 13.28C2.79562 13.2886 2.4618 13.3153 2.13015 13.36C1.84319 13.393 1.56119 13.4601 1.29015 13.56C1.09674 13.6325 0.927161 13.7571 0.800149 13.92C0.614462 14.1769 0.475659 14.4647 0.390149 14.77C0.255124 15.3414 0.171458 15.9237 0.140149 16.51C-0.0178197 17.9664 0.0326886 19.4378 0.290149 20.88C0.463122 21.8677 0.848687 22.806 1.42015 23.63C1.47415 23.703 1.55441 23.7521 1.64397 23.767C1.73353 23.782 1.82539 23.7615 1.90015 23.71C1.97246 23.6578 2.02137 23.5793 2.03633 23.4913C2.05129 23.4034 2.03112 23.3132 1.98015 23.24C1.51604 22.4803 1.22894 21.6258 1.14015 20.74C0.985752 19.3842 1.02954 18.0131 1.27015 16.67C1.33015 16.3 1.40015 15.79 1.52015 15.33C1.56812 15.1217 1.64915 14.9226 1.76015 14.74C1.67015 14.58 2.16015 14.66 2.31015 14.64C2.61833 14.5968 2.92897 14.5734 3.24015 14.57H4.75015C7.47015 14.47 7.22015 14.26 7.35015 15.01C7.42528 15.5904 7.46536 16.1748 7.47015 16.76C7.50943 17.7557 7.65356 18.7445 7.90015 19.71C8.13116 20.6665 8.43882 21.6028 8.82015 22.51C8.85595 22.6054 8.92822 22.6828 9.02105 22.725C9.11388 22.7672 9.21967 22.7708 9.31515 22.735C9.41063 22.6992 9.48797 22.6269 9.53017 22.5341C9.57236 22.4412 9.57595 22.3354 9.54015 22.24C9.30194 21.5387 9.10494 20.8242 8.95015 20.1C9.07008 20.2366 9.20048 20.3636 9.34015 20.48C9.71274 20.762 10.1326 20.9754 10.5801 21.11C11.0158 21.2518 11.4721 21.3194 11.9301 21.31C13.0016 21.3057 14.0339 20.907 14.8301 20.19C14.8708 20.1595 14.9049 20.1213 14.9305 20.0774C14.956 20.0336 14.9726 19.9851 14.9791 19.9347C14.9856 19.8844 14.982 19.8333 14.9684 19.7844C14.9549 19.7355 14.9317 19.6898 14.9001 19.65C14.8657 19.6057 14.8222 19.5694 14.7725 19.5435C14.7227 19.5175 14.668 19.5027 14.612 19.4998C14.556 19.497 14.5001 19.5062 14.448 19.527C14.3959 19.5477 14.3489 19.5794 14.3101 19.62Z" fill="black"/>
<path d="M14.1902 4.27999C14.2731 4.21983 14.3291 4.12947 14.3459 4.02843C14.3627 3.92739 14.3391 3.82378 14.2802 3.73999C14.2168 3.65844 14.1248 3.60386 14.0229 3.58717C13.9209 3.57048 13.8164 3.59292 13.7302 3.64999L11.1802 4.86999C10.8298 5.0478 10.4953 5.25522 10.1802 5.48999C10.0332 5.62064 9.94347 5.80379 9.93022 5.99999C9.91629 6.10239 9.9252 6.20661 9.95632 6.30517C9.98744 6.40372 10.04 6.49416 10.1102 6.56999C10.2402 6.71999 10.6402 7.04999 10.6702 7.07999L12.9102 8.91999C12.9739 8.98349 13.0603 9.01915 13.1502 9.01915C13.2402 9.01915 13.3265 8.98349 13.3902 8.91999C13.4537 8.85626 13.4894 8.76996 13.4894 8.67999C13.4894 8.59002 13.4537 8.50371 13.3902 8.43999L11.5602 6.14999L11.4602 6.08999L11.8302 5.92999L14.1902 4.27999Z" fill="black"/>
<path d="M17.1299 8.32998C17.0892 8.35886 17.0546 8.39548 17.028 8.43775C17.0014 8.48002 16.9834 8.52711 16.9751 8.57633C16.9667 8.62555 16.9682 8.67593 16.9793 8.7246C16.9904 8.77327 17.011 8.81927 17.0399 8.85998C17.1016 8.94081 17.1918 8.99511 17.2921 9.01183C17.3924 9.02855 17.4953 9.00643 17.5799 8.94998L20.1299 7.72998C20.4823 7.55975 20.8173 7.35544 21.1299 7.11998C21.2686 6.9955 21.3574 6.82496 21.3799 6.63998C21.3937 6.53911 21.3847 6.43643 21.3536 6.33951C21.3224 6.24258 21.2699 6.15389 21.1999 6.07998C21.0233 5.8992 20.8364 5.72891 20.6399 5.56998L18.3999 3.71998C18.3691 3.68534 18.3316 3.65737 18.2896 3.63776C18.2476 3.61816 18.2021 3.60735 18.1558 3.60598C18.1095 3.60462 18.0634 3.61274 18.0203 3.62984C17.9772 3.64693 17.9381 3.67266 17.9054 3.70542C17.8726 3.73818 17.8469 3.7773 17.8298 3.82036C17.8127 3.86342 17.8046 3.90953 17.8059 3.95584C17.8073 4.00215 17.8181 4.0477 17.8377 4.08968C17.8573 4.13166 17.8853 4.1692 17.9199 4.19998L19.7499 6.44998L19.8499 6.51998C19.7227 6.56391 19.599 6.6174 19.4799 6.67998L17.1299 8.32998Z" fill="black"/>
<path d="M17.2904 2.35996C17.2491 2.34228 17.2047 2.3332 17.1599 2.33325C17.115 2.33331 17.0707 2.34251 17.0295 2.36029C16.9883 2.37807 16.9512 2.40406 16.9204 2.43667C16.8896 2.46929 16.8658 2.50783 16.8504 2.54996C16.4704 3.19996 16.0904 3.82996 15.7704 4.54996C15.6304 4.83996 15.5204 5.13996 15.4104 5.43996C15.3004 5.73996 15.2104 6.03996 15.1304 6.34996C14.9404 7.07996 14.8104 7.79996 14.6704 8.53996C14.6551 8.58853 14.6497 8.63968 14.6546 8.69037C14.6594 8.74106 14.6744 8.79025 14.6987 8.83503C14.723 8.8798 14.756 8.91924 14.7958 8.95101C14.8355 8.98278 14.8813 9.00623 14.9304 9.01996C15.0285 9.04805 15.1337 9.03655 15.2234 8.98794C15.3132 8.93933 15.3803 8.85749 15.4104 8.75996C15.6904 8.07996 16.0004 7.41996 16.2804 6.75996C16.4004 6.46996 16.5204 6.17996 16.6304 5.88996C16.742 5.59838 16.8388 5.30134 16.9204 4.99996C17.1304 4.28996 17.2804 3.57996 17.4804 2.86996C17.5069 2.82505 17.5231 2.77478 17.5277 2.72281C17.5323 2.67085 17.5253 2.6185 17.5071 2.56962C17.4889 2.52073 17.4599 2.47653 17.4225 2.44025C17.385 2.40398 17.3398 2.37655 17.2904 2.35996Z" fill="black"/>
<path d="M23.9002 4.99998C23.3102 -0.38002 24.7102 1.34998 19.7402 0.63998C18.1697 0.409785 16.5869 0.272878 15.0002 0.22998C14.2002 0.22998 13.4102 0.22998 12.6202 0.29998C11.8302 0.36998 11.0002 0.46998 10.2302 0.58998C9.4602 0.70998 8.7702 0.75998 8.0002 0.87998C6.0702 1.20998 6.0002 0.55998 5.9302 2.99998C5.9152 3.21639 5.9152 3.43357 5.9302 3.64998C5.94002 3.84802 5.96341 4.04514 6.0002 4.23998C6.1002 4.73998 6.2802 5.23998 6.3802 5.68998C6.38379 5.7366 6.39696 5.78197 6.41889 5.82327C6.44082 5.86456 6.47102 5.90089 6.50763 5.92999C6.54423 5.95908 6.58644 5.98031 6.63161 5.99236C6.67679 6.0044 6.72397 6.00699 6.7702 5.99998C6.81442 5.99872 6.85794 5.98858 6.89817 5.97017C6.93839 5.95176 6.97451 5.92544 7.00436 5.89279C7.03421 5.86014 7.0572 5.82182 7.07194 5.7801C7.08669 5.73839 7.0929 5.69414 7.0902 5.64998C7.19629 5.07568 7.25648 4.49384 7.2702 3.90998C7.26323 3.57405 7.22642 3.2394 7.1602 2.90998C7.1102 2.54998 7.0002 2.19998 7.0002 1.83998C7.3832 1.76488 7.77069 1.71478 8.1602 1.68998C8.9002 1.63998 9.6402 1.63998 10.3602 1.60998C11.0802 1.57998 11.9102 1.55998 12.6902 1.54998C13.4702 1.53998 14.2402 1.54998 15.0102 1.54998C16.5602 1.54998 18.1002 1.54998 19.6602 1.66998C20.5102 1.72998 21.4102 1.66998 22.2802 1.66998H22.4202C22.4802 2.13998 22.5502 2.60998 22.5802 3.08998C22.6102 3.56998 22.5802 4.08998 22.6402 4.64998C22.7002 5.20998 22.6902 5.64998 22.7202 6.20998C22.8302 7.80998 22.9502 9.39998 22.9902 10.95C22.9979 11.0167 23.0258 11.0795 23.0702 11.13C21.6166 11.3388 20.1446 11.3891 18.6802 11.28L16.8602 11.22H15.6302C14.5117 11.243 13.3959 11.3398 12.2902 11.51C12.2413 11.506 12.1921 11.5127 12.146 11.5296C12.0999 11.5465 12.058 11.5732 12.0232 11.6078C11.9884 11.6424 11.9615 11.6841 11.9443 11.7301C11.9272 11.7761 11.9202 11.8252 11.9238 11.8742C11.9275 11.9231 11.9417 11.9707 11.9655 12.0136C11.9893 12.0566 12.0221 12.0939 12.0616 12.1229C12.1012 12.152 12.1466 12.1721 12.1947 12.182C12.2427 12.1918 12.2924 12.1911 12.3402 12.18C13.0902 12.18 13.8302 12.18 14.5602 12.3C14.4872 12.5561 14.4304 12.8167 14.3902 13.08C14.3753 13.263 14.3753 13.4469 14.3902 13.63V14.18C14.3902 14.62 14.5002 15.03 14.5402 15.46C14.5318 15.5619 14.5638 15.663 14.6293 15.7416C14.6947 15.8201 14.7884 15.8698 14.8902 15.88C14.9404 15.8855 14.9912 15.8807 15.0395 15.8658C15.0877 15.851 15.1324 15.8264 15.1708 15.7936C15.2093 15.7608 15.2406 15.7205 15.2628 15.6752C15.285 15.6298 15.2978 15.5804 15.3002 15.53C15.4202 15.09 15.5302 14.67 15.6102 14.22C15.6255 14.0336 15.6255 13.8463 15.6102 13.66C15.6301 13.4738 15.6301 13.2861 15.6102 13.1C15.5756 12.857 15.5255 12.6165 15.4602 12.38L16.2302 12.45C17.1081 12.5249 17.9892 12.5549 18.8702 12.54C20.3783 12.5254 21.8766 12.2964 23.3202 11.86C23.3697 11.8494 23.4167 11.829 23.4582 11.8C23.4997 11.7709 23.5351 11.7339 23.5621 11.6911C23.5891 11.6482 23.6073 11.6004 23.6155 11.5504C23.6238 11.5004 23.622 11.4493 23.6102 11.4C23.6102 11.34 23.5502 11.31 23.5202 11.27C23.5862 11.2459 23.6435 11.2025 23.6845 11.1454C23.7255 11.0884 23.7484 11.0202 23.7502 10.95C23.8602 9.77998 23.9902 8.56998 24.0102 7.34998C24.0254 6.56508 23.9886 5.78003 23.9002 4.99998Z" fill="black"/>
<path d="M22.5501 17.85C22.4793 17.508 22.2831 17.2048 22.0001 17C21.7717 16.8574 21.5094 16.778 21.2401 16.77C20.835 16.7761 20.4308 16.8095 20.0301 16.87L16.4601 17.37C16.4157 17.3749 16.3727 17.3887 16.3338 17.4107C16.2949 17.4327 16.2608 17.4623 16.2337 17.4979C16.2066 17.5334 16.1869 17.5741 16.176 17.6174C16.1651 17.6608 16.1631 17.7059 16.1701 17.75C16.175 17.7945 16.1888 17.8374 16.2108 17.8764C16.2328 17.9153 16.2624 17.9493 16.298 17.9765C16.3335 18.0036 16.3742 18.0232 16.4175 18.0341C16.4609 18.0451 16.506 18.0471 16.5501 18.04L20.1701 18H20.9101C21.7801 18 21.2801 17.88 21.3801 19.29C21.4701 20.29 22.2601 20.29 20.4401 20.35L16.6001 20.64C16.4985 20.6452 16.4028 20.6899 16.3337 20.7647C16.2646 20.8394 16.2274 20.9382 16.2301 21.04C16.2314 21.0908 16.2428 21.1408 16.2638 21.1871C16.2847 21.2334 16.3147 21.275 16.352 21.3095C16.3893 21.344 16.4331 21.3707 16.4809 21.3879C16.5287 21.4052 16.5794 21.4127 16.6301 21.41L20.4201 21.47C20.8687 21.5203 21.3215 21.5203 21.7701 21.47C22.0656 21.4192 22.3401 21.2837 22.5601 21.08C22.7136 20.8755 22.7945 20.6257 22.7901 20.37C22.7716 19.9781 22.7316 19.5875 22.6701 19.2C22.6695 18.7474 22.6293 18.2957 22.5501 17.85Z" fill="black"/>
</g>
<defs>
<clipPath id="clip0_36_801">
<rect width="24" height="24" fill="white"/>
</clipPath>
</defs>
</svg>
