<svg width="24" height="25" viewBox="0 0 24 25" fill="none" xmlns="http://www.w3.org/2000/svg">
<g clip-path="url(#clip0_36_555)">
<path fill-rule="evenodd" clip-rule="evenodd" d="M7.21976 14.9063C7.48863 14.9426 7.76088 14.9426 8.02976 14.9063C8.29193 14.8662 8.54978 14.7999 8.79976 14.7083C9.35989 14.486 9.89615 14.2032 10.3998 13.8646C10.4752 13.8243 10.5329 13.7553 10.5608 13.6719C10.5887 13.5885 10.5848 13.4971 10.5498 13.4167C10.5093 13.3398 10.443 13.2813 10.3636 13.2525C10.2842 13.2236 10.1973 13.2264 10.1198 13.2604C9.58871 13.4546 9.04366 13.6044 8.48976 13.7083C8.15933 13.7789 7.82552 13.8311 7.48976 13.8646H6.98976C7.57334 13.0682 7.92402 12.1134 7.99976 11.1146C8.19976 9.03126 7.20976 6.94792 4.88976 6.73959C4.14417 6.73499 3.40818 6.91485 2.74234 7.26435C2.0765 7.61386 1.49983 8.12304 1.05976 8.75C0.568217 9.35086 0.274761 10.1002 0.222558 10.8877C0.170355 11.6753 0.36216 12.4595 0.769759 13.125C1.02815 13.5256 1.36997 13.8603 1.76976 14.1042L2.14976 14.3125C1.38268 15.1295 0.801698 16.1156 0.449759 17.1979C0.187019 18.0371 0.0356185 18.9098 -0.000240904 19.7917C-0.0448979 21.0781 0.0355116 22.3659 0.239759 23.6354C0.242161 23.6825 0.253842 23.7286 0.274074 23.7708C0.294306 23.813 0.322656 23.8504 0.357362 23.8807C0.392067 23.911 0.432385 23.9335 0.475806 23.9469C0.519228 23.9602 0.564824 23.9641 0.609759 23.9583C0.691089 23.9479 0.765468 23.9053 0.817563 23.8394C0.869657 23.7735 0.895498 23.6893 0.889759 23.6042C0.828031 22.3601 0.864822 21.1128 0.999759 19.875C1.08699 19.0821 1.23751 18.2981 1.44976 17.5313C1.72954 16.4618 2.20864 15.4601 2.85976 14.5833C3.12976 14.6563 3.39976 14.7292 3.66976 14.7813C3.74269 14.7964 3.81844 14.7808 3.88032 14.7379C3.94221 14.6949 3.98517 14.6281 3.99976 14.5521C4.01435 14.4761 3.99936 14.3972 3.9581 14.3328C3.91685 14.2683 3.85269 14.2235 3.77976 14.2083C1.77976 13.7292 1.41976 12.7604 1.40976 12.7292C1.12549 12.1963 1.01379 11.5821 1.09125 10.9779C1.16872 10.3736 1.43122 9.8115 1.83976 9.37501C2.18903 8.89058 2.6422 8.49794 3.1631 8.22845C3.68399 7.95896 4.25816 7.82008 4.83976 7.82292C6.54976 7.92709 7.22976 9.47917 7.13976 11.0208C7.14987 11.8271 6.90312 12.6141 6.43809 13.2587C5.97307 13.9033 5.31602 14.3692 4.56976 14.5833C4.48756 14.5987 4.41399 14.6459 4.36388 14.7155C4.31378 14.7851 4.29086 14.8718 4.29976 14.9583C4.31446 15.0432 4.36018 15.1189 4.42732 15.1694C4.49445 15.2199 4.57777 15.2413 4.65976 15.2292C5.20077 15.1483 5.71334 14.9261 6.14976 14.5833C6.48852 14.7472 6.84936 14.8561 7.21976 14.9063Z" fill="black"/>
<path fill-rule="evenodd" clip-rule="evenodd" d="M10.5698 15.3125C10.1616 15.715 9.70829 16.0647 9.21977 16.3542C8.73636 16.6328 8.22709 16.8596 7.69977 17.0313C7.29401 17.1353 6.89351 17.2605 6.49977 17.4063C6.22089 17.5133 5.98483 17.7151 5.82977 17.9792C5.60455 18.5531 5.50876 19.1732 5.54977 19.7917C5.54977 21.0938 5.95977 22.698 6.01977 23.5209C6.02103 23.5642 6.03065 23.6068 6.04806 23.6462C6.06547 23.6856 6.09031 23.7209 6.1211 23.7501C6.1519 23.7792 6.18802 23.8016 6.2273 23.816C6.26659 23.8303 6.30824 23.8362 6.34977 23.8334C6.39049 23.832 6.43055 23.8223 6.46767 23.8049C6.50479 23.7874 6.53823 23.7624 6.5661 23.7315C6.59396 23.7005 6.61569 23.6641 6.63005 23.6244C6.6444 23.5847 6.65111 23.5425 6.64977 23.5C6.64977 22.7917 6.53977 21.4896 6.53977 20.2917C6.53977 17.5938 7.14977 18.3542 8.06977 17.9792C8.61937 17.7089 9.14478 17.3882 9.63977 17.0209C10.1436 16.6478 10.6005 16.2104 10.9998 15.7188C11.0277 15.6924 11.05 15.6603 11.0652 15.6244C11.0805 15.5885 11.0884 15.5497 11.0884 15.5105C11.0884 15.4712 11.0805 15.4324 11.0652 15.3965C11.05 15.3606 11.0277 15.3285 10.9998 15.3021C10.9728 15.2699 10.9393 15.2443 10.9017 15.2271C10.8642 15.2099 10.8235 15.2015 10.7824 15.2025C10.7414 15.2035 10.7011 15.2138 10.6643 15.2329C10.6276 15.2519 10.5953 15.2791 10.5698 15.3125Z" fill="black"/>
<path fill-rule="evenodd" clip-rule="evenodd" d="M20.6396 13.677C20.1642 13.7292 19.6849 13.7292 19.2096 13.677C17.7896 13.4687 15.8596 12.177 16.5396 10.0624C16.7688 9.44494 17.136 8.89324 17.6108 8.45304C18.0856 8.01285 18.6542 7.69684 19.2696 7.5312C19.9193 7.32613 20.6155 7.34741 21.2525 7.59179C21.8896 7.83618 22.4327 8.29033 22.7996 8.88536C22.9818 9.18973 23.1041 9.52877 23.1595 9.88279C23.2149 10.2368 23.2022 10.5988 23.1222 10.9476C23.0422 11.2965 22.8964 11.6254 22.6934 11.9151C22.4904 12.2048 22.2342 12.4496 21.9396 12.6354C21.8714 12.6858 21.8249 12.7619 21.8099 12.8476C21.795 12.9332 21.8128 13.0215 21.8596 13.0937C21.8816 13.1312 21.911 13.1634 21.9459 13.1882C21.9807 13.2131 22.0201 13.23 22.0617 13.2379C22.1032 13.2457 22.1459 13.2444 22.1869 13.2339C22.2278 13.2234 22.2663 13.204 22.2996 13.177C22.6833 12.953 23.0206 12.6518 23.2916 12.2908C23.5626 11.9298 23.7621 11.5164 23.8784 11.0744C23.9947 10.6324 24.0255 10.1708 23.9691 9.71633C23.9126 9.26186 23.77 8.8236 23.5496 8.42703C23.1038 7.62334 22.4177 6.99376 21.596 6.63449C20.7744 6.27522 19.8625 6.20602 18.9996 6.43745C18.2162 6.65065 17.4953 7.06154 16.9006 7.63382C16.3059 8.20609 15.8556 8.92214 15.5896 9.7187C15.4225 10.2514 15.3928 10.8205 15.5033 11.369C15.6139 11.9174 15.8609 12.426 16.2196 12.8437C16.0545 12.7834 15.8941 12.7103 15.7396 12.6249C15.2172 12.2628 14.788 11.7728 14.4896 11.1979C14.2447 10.7387 13.9345 10.3208 13.5696 9.95828C13.2766 9.65183 12.9136 9.42797 12.5148 9.30771C12.116 9.18746 11.6944 9.17475 11.2896 9.27078C10.9578 9.41685 10.6662 9.64664 10.441 9.93942C10.2158 10.2322 10.0641 10.5788 9.99956 10.9479C9.94025 11.1835 9.94025 11.431 9.99956 11.6666C10.1051 11.9543 10.2253 12.236 10.3596 12.5104C10.494 12.7802 10.6443 13.0411 10.8096 13.2916C11.2205 13.9487 11.7038 14.5535 12.2496 15.0937C12.8012 15.6356 13.42 16.098 14.0896 16.4687C14.6255 16.7035 15.1729 16.9086 15.7296 17.0833C15.8958 17.1454 16.0538 17.2294 16.1996 17.3333C16.3029 17.7179 16.3699 18.1121 16.3996 18.5104C16.4744 19.1322 16.5045 19.7589 16.4896 20.3854C16.4672 21.3437 16.3937 22.3001 16.2696 23.2499C16.2576 23.3273 16.2757 23.4064 16.3198 23.4699C16.3638 23.5334 16.4303 23.5761 16.5046 23.5885C16.5788 23.6009 16.6548 23.5821 16.7157 23.5362C16.7767 23.4903 16.8176 23.4211 16.8296 23.3437C16.9796 22.3854 17.1296 21.4062 17.1896 20.427C17.2345 19.7647 17.2345 19.0998 17.1896 18.4374C17.1778 18.008 17.1377 17.5799 17.0696 17.1562C17.0274 16.9714 16.9375 16.8021 16.8096 16.6666C16.5897 16.4711 16.3438 16.3097 16.0796 16.1874C15.5796 15.9479 14.9896 15.7916 14.5596 15.5416C13.9785 15.1958 13.441 14.7759 12.9596 14.2916C12.479 13.8034 12.0468 13.2659 11.6696 12.6874C11.5296 12.4583 11.3996 12.2291 11.2796 11.9895C10.8596 11.1979 10.9596 11.2395 11.0196 11.0208C11.0451 10.8558 11.1085 10.6996 11.2042 10.5654C11.2999 10.4312 11.4252 10.323 11.5696 10.2499C11.9096 10.1145 12.3596 10.2499 12.9996 10.7187C13.6396 11.1874 14.0996 12.6145 15.3496 13.302C15.9401 13.6149 16.5975 13.7655 17.2596 13.7395C17.3561 13.8047 17.4563 13.8638 17.5596 13.9166C18.0518 14.1489 18.5803 14.2866 19.1196 14.3229C19.6373 14.3503 20.1563 14.3259 20.6696 14.2499C20.7061 14.2462 20.7415 14.2346 20.7736 14.2161C20.8056 14.1976 20.8338 14.1725 20.8562 14.1423C20.8787 14.112 20.895 14.0774 20.9042 14.0404C20.9134 14.0034 20.9152 13.9648 20.9096 13.927C20.9044 13.857 20.8734 13.7918 20.8231 13.7452C20.7727 13.6986 20.7069 13.6741 20.6396 13.677Z" fill="black"/>
<path fill-rule="evenodd" clip-rule="evenodd" d="M21.54 13.2499C21.5147 13.2167 21.4827 13.1896 21.4464 13.1705C21.41 13.1515 21.3701 13.1409 21.3295 13.1396C21.2888 13.1382 21.2483 13.1461 21.2109 13.1627C21.1734 13.1793 21.1399 13.2042 21.1127 13.2357C21.0854 13.2671 21.065 13.3044 21.053 13.3449C21.041 13.3854 21.0376 13.4282 21.0431 13.4702C21.0485 13.5122 21.0627 13.5524 21.0846 13.5881C21.1065 13.6239 21.1356 13.6542 21.17 13.677C22.0011 14.6568 22.5246 15.8782 22.67 17.177C22.8003 17.9552 22.8805 18.7417 22.91 19.5311C22.9471 20.7541 22.917 21.9784 22.82 23.1978C22.8143 23.2403 22.8169 23.2835 22.8275 23.3249C22.8381 23.3663 22.8565 23.4051 22.8816 23.439C22.9067 23.473 22.9381 23.5014 22.9739 23.5225C23.0096 23.5437 23.0491 23.5573 23.09 23.5624C23.1719 23.5745 23.2553 23.5531 23.3224 23.5026C23.3895 23.4521 23.4353 23.3764 23.45 23.2916C23.7065 22.0538 23.8637 20.796 23.92 19.5311C23.9529 18.6638 23.879 17.7956 23.7 16.9478C23.4014 15.4965 22.6401 14.1931 21.54 13.2499Z" fill="black"/>
<path fill-rule="evenodd" clip-rule="evenodd" d="M7.13978 4.84363C7.18826 5.01937 7.25185 5.1902 7.32978 5.35404C7.39983 5.51561 7.48 5.6722 7.56978 5.8228C7.79991 6.18774 8.05384 6.53578 8.32978 6.86446C8.36743 6.93012 8.42759 6.97846 8.49811 6.99973C8.56864 7.02099 8.64428 7.0136 8.70978 6.97904C8.77471 6.94169 8.82275 6.87904 8.84338 6.80483C8.864 6.73062 8.85551 6.65091 8.81978 6.58321C8.68978 6.17696 8.61978 5.78113 8.48978 5.38529C8.43346 5.21772 8.36665 5.05418 8.28978 4.89571C8.21968 4.73753 8.13951 4.58441 8.04978 4.43738C7.83978 4.0728 7.60978 3.72904 7.37978 3.39571C7.34257 3.318 7.2777 3.25849 7.199 3.22984C7.1203 3.20119 7.03397 3.20567 6.95839 3.24232C6.88281 3.27897 6.82394 3.3449 6.79432 3.42608C6.7647 3.50725 6.76666 3.59727 6.79978 3.67696C6.91978 4.05196 6.99978 4.4478 7.13978 4.84363Z" fill="black"/>
<path fill-rule="evenodd" clip-rule="evenodd" d="M11.6699 5.09367C11.6698 5.16926 11.6979 5.24191 11.7483 5.29632C11.7987 5.35072 11.8673 5.38264 11.9399 5.38534C11.977 5.38821 12.0142 5.38306 12.0493 5.37022C12.0844 5.35738 12.1166 5.33712 12.1438 5.31071C12.1711 5.2843 12.1928 5.25232 12.2076 5.21676C12.2224 5.1812 12.23 5.14285 12.2299 5.10409C12.3199 4.66659 12.4299 4.26034 12.4799 3.81242C12.4901 3.62855 12.4901 3.44421 12.4799 3.26034C12.4895 3.07645 12.4895 2.89215 12.4799 2.70826C12.4799 2.28117 12.3599 1.86451 12.2999 1.42701C12.3 1.3421 12.2691 1.26032 12.2133 1.19838C12.1576 1.13643 12.0812 1.09898 11.9999 1.09367C11.9583 1.09228 11.9169 1.0996 11.8781 1.1152C11.8394 1.1308 11.804 1.15436 11.7742 1.18449C11.7443 1.21462 11.7206 1.25069 11.7044 1.29056C11.6882 1.33043 11.6798 1.37329 11.6799 1.41659C11.6099 1.85409 11.5299 2.27076 11.4899 2.70826C11.4799 2.89214 11.4799 3.07646 11.4899 3.26034C11.48 3.44423 11.48 3.62854 11.4899 3.81242C11.5099 4.24992 11.6099 4.65617 11.6699 5.09367Z" fill="black"/>
<path fill-rule="evenodd" clip-rule="evenodd" d="M15.3097 6.53111C15.6041 6.3108 15.8816 6.06701 16.1397 5.80194C16.2407 5.68595 16.3311 5.5604 16.4097 5.42694C16.4897 5.30194 16.5597 5.16652 16.6297 5.03111C16.7797 4.69777 16.8997 4.37486 17.0397 4.05194C17.0915 3.98316 17.1162 3.8964 17.1088 3.80932C17.1013 3.72223 17.0623 3.64137 16.9997 3.58319C16.9304 3.53448 16.8456 3.51593 16.7634 3.5315C16.6812 3.54707 16.6081 3.59553 16.5597 3.66652C16.2997 3.92694 16.0597 4.16652 15.8197 4.44777C15.7297 4.56236 15.6397 4.67694 15.5597 4.80194C15.4625 4.92969 15.3755 5.06557 15.2997 5.20819C15.1497 5.53111 15.0497 5.85402 14.8897 6.16652C14.864 6.19502 14.8442 6.22859 14.8312 6.26525C14.8182 6.30191 14.8125 6.3409 14.8143 6.37992C14.8161 6.41894 14.8254 6.45718 14.8416 6.49238C14.8579 6.52759 14.8807 6.55903 14.9089 6.58485C14.937 6.61068 14.9698 6.63035 15.0054 6.6427C15.041 6.65505 15.0786 6.65983 15.116 6.65676C15.1534 6.65369 15.1898 6.64283 15.223 6.62483C15.2563 6.60682 15.2858 6.58203 15.3097 6.55194V6.53111Z" fill="black"/>
</g>
<defs>
<clipPath id="clip0_36_555">
<rect width="24" height="25" fill="white"/>
</clipPath>
</defs>
</svg>
