<svg width="24" height="24" viewBox="0 0 24 24" fill="none" xmlns="http://www.w3.org/2000/svg">
<g clip-path="url(#clip0_36_333)">
<path fill-rule="evenodd" clip-rule="evenodd" d="M7.30029 7.05811C6.5948 4.94344 6.03154 2.78395 5.61429 0.594105C5.59818 0.494888 5.61945 0.393223 5.67398 0.308785C5.72851 0.224346 5.81243 0.163139 5.90949 0.137007C6.00655 0.110876 6.10985 0.121678 6.19941 0.167324C6.28896 0.212969 6.3584 0.290213 6.39429 0.384105C7.66768 3.52922 8.65371 6.78317 9.34029 10.1061C9.3558 10.2093 9.33307 10.3146 9.27637 10.4022C9.21967 10.4899 9.13292 10.5537 9.03242 10.5819C8.93193 10.61 8.82461 10.6005 8.73067 10.555C8.63672 10.5096 8.56261 10.4314 8.52229 10.3351C8.2145 9.59055 7.92475 8.83866 7.65329 8.08011C6.89842 9.13289 6.36623 10.3286 6.08929 11.5941C8.85429 11.5931 11.6173 11.7541 14.3653 12.0751C14.4789 12.0685 14.5906 12.1073 14.6756 12.1829C14.7607 12.2586 14.8122 12.365 14.8188 12.4786C14.8254 12.5923 14.7866 12.7039 14.711 12.7889C14.6353 12.874 14.5289 12.9255 14.4153 12.9321C12.898 12.8464 11.3789 12.7964 9.85929 12.7821C11.0005 16.1136 11.6303 19.5989 11.7273 23.1191C11.7273 23.1901 11.7097 23.2599 11.676 23.3224C11.6423 23.3849 11.5937 23.438 11.5343 23.477C11.475 23.516 11.407 23.5396 11.3363 23.5457C11.2655 23.5518 11.1944 23.5403 11.1293 23.5121C11.0193 23.7481 10.4053 23.7511 6.75929 23.7681C5.43129 23.7741 3.70129 23.7821 1.44729 23.8041C1.27965 23.8012 1.11994 23.7322 1.0029 23.6122C0.885854 23.4922 0.820943 23.3308 0.822286 23.1631C0.830286 21.5021 0.863286 19.6201 0.940286 17.7401L0.957286 17.3161C1.16129 12.3071 1.18329 11.7761 1.89429 11.7201C2.94162 11.6575 3.99021 11.6181 5.03929 11.6021C4.9628 10.7101 5.1333 9.81432 5.53211 9.01281C5.93092 8.21131 6.54266 7.53504 7.30029 7.05811ZM2.55229 12.9881C2.32529 15.7411 2.15329 19.8321 2.09929 22.5601C3.44129 22.6041 4.58429 22.6401 5.55929 22.6701C9.00429 22.7781 10.3343 22.8191 10.8433 22.9481C10.6363 21.7441 9.31029 14.7601 8.92029 12.7781C6.79629 12.7781 4.67229 12.8481 2.55229 12.9881Z" fill="black"/>
<path fill-rule="evenodd" clip-rule="evenodd" d="M20.6436 0.0458999C15.3136 -0.5871 14.5286 5.4799 18.6986 6.7619C19.4837 6.98212 20.3209 6.92347 21.0677 6.59594C21.8145 6.26841 22.4247 5.69223 22.7945 4.96546C23.1643 4.23869 23.2709 3.40623 23.096 2.60975C22.9212 1.81326 22.4758 1.10196 21.8356 0.5969C21.7462 0.526352 21.6324 0.494199 21.5194 0.507514C21.4063 0.52083 21.3031 0.578522 21.2326 0.6679C21.162 0.757278 21.1299 0.87102 21.1432 0.984104C21.1565 1.09719 21.2142 1.20035 21.3036 1.2709C21.7031 1.64023 21.9696 2.13117 22.0615 2.66748C22.1535 3.20378 22.0657 3.75544 21.812 4.23677C21.5582 4.7181 21.1526 5.10216 20.6581 5.3293C20.1637 5.55644 19.608 5.61395 19.0776 5.4929C16.4596 4.7129 16.5626 0.8229 20.5916 0.8559C20.6972 0.859649 20.8001 0.822081 20.8784 0.751175C20.9567 0.68027 21.0044 0.581615 21.0111 0.476166C21.0179 0.370717 20.9833 0.266784 20.9147 0.186443C20.846 0.106102 20.7488 0.0556844 20.6436 0.0458999Z" fill="black"/>
<path fill-rule="evenodd" clip-rule="evenodd" d="M22.0022 9.04999C20.5832 6.97199 18.4922 8.42799 17.4252 8.60299C16.2587 8.56894 15.0979 8.42564 13.9582 8.17499C10.5082 8.09299 10.3822 12.539 14.6262 13.019C19.2012 13.526 17.4222 9.81399 18.0162 20.509C18.1122 22.337 18.2902 24.156 20.4282 23.989C22.4982 23.834 22.8562 21.865 23.0162 19.799C23.1342 18.305 23.2462 10.883 22.0022 9.04999ZM21.2652 9.56799C20.2372 8.16899 18.8922 9.39699 17.6212 9.65599C16.3902 9.67599 15.1592 9.57599 13.9472 9.35799C11.9152 9.37499 12.3112 11.475 14.7652 11.728C20.2212 12.291 18.6632 7.50899 19.3312 20.441C19.3942 21.764 19.2742 22.784 20.3462 22.718C22.2342 22.598 21.9832 17.402 21.9832 15.526C22.2511 13.5112 22.004 11.4614 21.2652 9.56799Z" fill="black"/>
</g>
<defs>
<clipPath id="clip0_36_333">
<rect width="24" height="24" fill="white"/>
</clipPath>
</defs>
</svg>
