<svg width="24" height="24" viewBox="0 0 24 24" fill="none" xmlns="http://www.w3.org/2000/svg">
<path fill-rule="evenodd" clip-rule="evenodd" d="M8.83008 13.7298C9.41008 13.1198 9.98008 12.5398 10.5101 12.0798C10.9148 12.1888 11.3311 12.2492 11.7501 12.2598C11.7882 12.2626 11.8265 12.2577 11.8627 12.2456C11.8989 12.2335 11.9324 12.2144 11.9612 12.1893C11.99 12.1642 12.0136 12.1336 12.0305 12.0994C12.0475 12.0652 12.0575 12.028 12.0601 11.9898C12.0628 11.9523 12.0579 11.9145 12.0457 11.8789C12.0334 11.8432 12.0141 11.8104 11.9889 11.7824C11.9637 11.7544 11.9331 11.7317 11.8989 11.7158C11.8648 11.6999 11.8278 11.6911 11.7901 11.6898C9.54008 11.4798 8.49008 10.0898 8.46008 8.62985C8.77073 8.79395 9.11041 8.89586 9.46008 8.92985C9.62246 8.95485 9.78771 8.95485 9.95008 8.92985C10.1151 8.90784 10.2765 8.86413 10.4301 8.79985C10.8169 8.65902 11.1611 8.42147 11.4301 8.10985C11.4301 8.10985 11.4301 8.02985 11.4901 7.98985C11.6146 8.06959 11.745 8.13979 11.8801 8.19985C12.2249 8.3614 12.5873 8.48222 12.9601 8.55985C13.6694 8.692 14.3954 8.70888 15.1101 8.60985C15.1955 9.36827 14.9886 10.1307 14.5315 10.742C14.0745 11.3532 13.4017 11.7673 12.6501 11.8998C12.5642 11.9099 12.4857 11.9533 12.4315 12.0206C12.3773 12.0879 12.3516 12.1738 12.3601 12.2598C12.3725 12.3465 12.418 12.4251 12.4869 12.4791C12.5558 12.5331 12.6429 12.5585 12.7301 12.5498C13.2163 12.5012 13.6883 12.3586 14.1201 12.1298C14.4655 12.5011 14.7768 12.9027 15.0501 13.3298C15.2101 13.5698 15.3601 13.8098 15.5101 14.0598C15.6601 14.3098 15.7901 14.5598 15.9201 14.8198C16.0754 15.1179 16.2123 15.4251 16.3301 15.7398C16.5401 16.0998 17.0501 16.1698 17.2601 15.5398C17.1801 14.8798 17.0801 14.9998 16.8801 14.4198C16.7701 14.1052 16.6329 13.8007 16.4701 13.5098C16.3102 13.2143 16.1154 12.9391 15.8901 12.6898C15.5424 12.31 15.1494 11.9742 14.7201 11.6898C15.1841 11.2411 15.5404 10.6931 15.7621 10.0869C15.9838 9.48064 16.0651 8.83204 16.0001 8.18985C16.0001 7.12898 15.5787 6.11156 14.8285 5.36142C14.0784 4.61127 13.061 4.18985 12.0001 4.18985C10.8624 4.14361 9.75246 4.5484 8.91165 5.31618C8.07083 6.08396 7.56713 7.15265 7.51008 8.28985C7.48041 9.03488 7.67775 9.77136 8.07598 10.4017C8.47421 11.0321 9.05453 11.5266 9.74008 11.8198C9.15525 12.162 8.60295 12.557 8.09008 12.9998C7.63405 13.3947 7.23671 13.8527 6.91008 14.3598C6.58823 14.8268 6.4204 15.3828 6.43008 15.9498C6.43008 16.4198 7.01008 16.6798 7.09008 16.2998C7.17008 15.6098 7.38008 15.5498 7.80008 14.9698C8.12018 14.5377 8.46404 14.1238 8.83008 13.7298ZM12.0001 5.33985C12.7217 5.30813 13.4291 5.54682 13.984 6.00921C14.5388 6.47159 14.9012 7.12439 15.0001 7.83985C14.3892 7.81478 13.7842 7.71057 13.2001 7.52985C12.9021 7.43402 12.6114 7.31706 12.3301 7.17985C12.0526 7.04606 11.7853 6.89232 11.5301 6.71985C11.0991 6.44172 10.7087 6.10518 10.3701 5.71985C10.8823 5.48485 11.4367 5.3556 12.0001 5.33985ZM9.71008 6.07985C9.9904 6.64524 10.3815 7.14854 10.8601 7.55985C10.8601 7.55985 10.8601 7.55985 10.9101 7.60985C10.7792 7.66755 10.6414 7.70789 10.5001 7.72985C10.3369 7.7402 10.1733 7.7402 10.0101 7.72985L9.52008 7.79985C9.19293 7.88823 8.85807 7.94516 8.52008 7.96985C8.66905 7.21423 9.09308 6.54077 9.71008 6.07985Z" fill="black"/>
<path fill-rule="evenodd" clip-rule="evenodd" d="M15.6904 17.6699C15.7198 17.6235 15.7353 17.5698 15.7353 17.5149C15.7353 17.46 15.7198 17.4063 15.6904 17.3599C15.4504 16.9699 14.8904 17.4999 14.2604 17.6499C13.698 17.7784 13.1262 17.862 12.5504 17.8999C11.079 18.0286 9.59663 17.862 8.19043 17.4099C7.48006 17.1949 6.80591 16.8747 6.19043 16.4599C5.5977 16.0776 5.06234 15.613 4.60043 15.0799C3.77612 14.0583 3.23124 12.8402 3.01913 11.5448C2.80703 10.2493 2.93497 8.92104 3.39043 7.68992C3.78127 6.43946 4.43245 5.28593 5.30113 4.30522C6.16981 3.32451 7.2363 2.53885 8.43043 1.99992C9.16413 1.68584 9.92813 1.44793 10.7104 1.28992C11.4611 1.1197 12.2334 1.06574 13.0004 1.12992C15.0967 1.41813 16.998 2.51228 18.3004 4.17992C19.6349 5.85299 20.3613 7.92984 20.3604 10.0699C20.3492 10.8989 20.2452 11.7241 20.0504 12.5299C19.8671 13.3318 19.5273 14.0896 19.0504 14.7599C18.5969 15.2792 18.1019 15.7608 17.5704 16.1999C17.1209 16.4435 16.6928 16.7245 16.2904 17.0399C16.2617 17.0961 16.2491 17.1592 16.2542 17.2221C16.2593 17.285 16.2817 17.3452 16.3191 17.3961C16.3565 17.4469 16.4073 17.4864 16.4658 17.51C16.5243 17.5337 16.5882 17.5406 16.6504 17.5299C17.7934 16.9529 18.8125 16.158 19.6504 15.1899C20.2015 14.4606 20.5902 13.6218 20.7904 12.7299C21.0248 11.8651 21.1557 10.9756 21.1804 10.0799C21.2346 7.73487 20.4788 5.44283 19.0404 3.58992C17.6255 1.68556 15.5159 0.416904 13.1704 0.0599167C12.2801 -0.0429239 11.3792 -0.00580825 10.5004 0.169917C9.6437 0.343366 8.80628 0.601293 8.00043 0.939917C6.65573 1.54518 5.45698 2.43266 4.48555 3.54212C3.51413 4.65158 2.79277 5.95705 2.37043 7.36992C1.89058 8.77158 1.78861 10.2749 2.07476 11.7286C2.36092 13.1822 3.02512 14.5347 4.00043 15.6499C5.12116 16.7807 6.49104 17.6335 8.00043 18.1399C9.52066 18.5317 11.0957 18.6669 12.6604 18.5399C13.267 18.4842 13.8686 18.3839 14.4604 18.2399C14.8842 18.0811 15.2953 17.8906 15.6904 17.6699Z" fill="black"/>
<path fill-rule="evenodd" clip-rule="evenodd" d="M22.0006 21.0799C21.8955 20.5883 21.6686 20.131 21.3406 19.7499C20.9306 19.2599 20.3906 18.8699 19.9306 18.4199C19.4706 17.9699 19.1906 17.6599 18.8106 17.2999C18.6997 17.1925 18.5792 17.0955 18.4506 17.0099C18.3947 16.9504 18.3199 16.9123 18.2389 16.9021C18.1579 16.892 18.0759 16.9104 18.0071 16.9543C17.9383 16.9982 17.887 17.0648 17.8621 17.1425C17.8371 17.2202 17.8402 17.3042 17.8706 17.3799C18.0309 17.5052 18.1753 17.6496 18.3006 17.8099C18.6506 18.1899 18.9806 18.6099 19.3006 18.9899C19.6206 19.3699 20.1906 19.8499 20.5606 20.3399C20.7641 20.61 20.8981 20.9259 20.9506 21.2599C20.9666 21.5492 20.8925 21.8363 20.7385 22.0817C20.5844 22.3271 20.3581 22.5186 20.0906 22.6299C19.8476 22.7981 19.5622 22.8948 19.267 22.9089C18.9718 22.9231 18.6786 22.8541 18.4206 22.7099C18.2038 22.5448 18.0119 22.3495 17.8506 22.1299C17.5825 21.7336 17.3419 21.3193 17.1306 20.8899C16.7706 20.2099 16.4106 19.5299 16.1306 18.8199C15.9806 18.4799 16.0206 18.5899 15.8806 18.2399C15.7406 17.8899 15.2206 18.2399 15.3306 18.4999C15.4806 18.9699 15.4506 18.9899 15.6206 19.4499C15.8506 20.0699 16.1006 20.6799 16.3706 21.2899C16.5646 21.7718 16.7918 22.2396 17.0506 22.6899C17.2552 23.0251 17.5156 23.3227 17.8206 23.5699C18.2454 23.8438 18.7401 23.9894 19.2456 23.9894C19.751 23.9894 20.2458 23.8438 20.6706 23.5699C21.124 23.3451 21.4958 22.9843 21.7342 22.5379C21.9727 22.0915 22.0658 21.5818 22.0006 21.0799Z" fill="black"/>
<path fill-rule="evenodd" clip-rule="evenodd" d="M12.2602 13.4899C12.263 13.4515 12.2578 13.4129 12.245 13.3766C12.2321 13.3403 12.2119 13.307 12.1857 13.2788C12.1594 13.2507 12.1276 13.2282 12.0922 13.2129C12.0569 13.1976 12.0188 13.1898 11.9802 13.1899C11.9422 13.1885 11.9042 13.1947 11.8685 13.2081C11.8328 13.2214 11.8001 13.2417 11.7722 13.2677C11.7443 13.2937 11.7219 13.3249 11.7061 13.3596C11.6903 13.3943 11.6815 13.4318 11.6802 13.4699C11.5902 13.8299 11.4802 14.1699 11.4202 14.5499C11.3729 14.8547 11.3729 15.165 11.4202 15.4699C11.4702 15.8399 11.5502 16.1899 11.6302 16.5499C11.6302 16.6374 11.665 16.7213 11.7269 16.7832C11.7888 16.8451 11.8727 16.8799 11.9602 16.8799C12.0478 16.8799 12.1317 16.8451 12.1936 16.7832C12.2555 16.7213 12.2902 16.6374 12.2902 16.5499C12.2902 16.1899 12.4202 15.8499 12.4602 15.4899C12.4699 15.3367 12.4699 15.1831 12.4602 15.0299C12.4702 14.88 12.4702 14.7297 12.4602 14.5799C12.4302 14.1899 12.3302 13.8499 12.2602 13.4899Z" fill="black"/>
</svg>
