<svg width="24" height="24" viewBox="0 0 24 24" fill="none" xmlns="http://www.w3.org/2000/svg">
<g clip-path="url(#clip0_36_436)">
<path fill-rule="evenodd" clip-rule="evenodd" d="M4.03401 18.5129C5.66801 18.6119 7.30401 18.6829 8.93901 18.7239C9.05301 22.8719 9.08501 23.4739 9.61501 23.4479C10.015 23.4289 10.016 23.3549 10.027 21.5819C10.03 20.9569 10.035 20.1219 10.059 19.0039L10.069 18.7489C10.807 18.7619 11.545 18.7689 12.282 18.7709C12.052 20.3129 12.066 21.8809 12.324 23.4199C12.3232 23.4709 12.3324 23.5215 12.3511 23.5689C12.3698 23.6163 12.3976 23.6595 12.4331 23.6962C12.4685 23.7328 12.5108 23.7621 12.5575 23.7824C12.6043 23.8027 12.6546 23.8136 12.7055 23.8144C12.7565 23.8153 12.8071 23.8061 12.8545 23.7874C12.9019 23.7687 12.9451 23.7408 12.9818 23.7054C13.0184 23.6699 13.0477 23.6276 13.068 23.5809C13.0883 23.5342 13.0992 23.4839 13.1 23.4329C13.469 21.9029 13.5 20.3119 13.195 18.7699C13.848 18.7669 14.501 18.7599 15.154 18.7479C15.253 22.8589 15.322 23.3209 15.812 23.3039C16.223 23.2909 16.224 23.2159 16.243 21.2339C16.249 20.6379 16.256 19.8699 16.277 18.8809L16.286 18.7229C17.7722 18.684 19.2578 18.6216 20.742 18.5359C20.8456 18.5308 20.9432 18.486 21.0146 18.4109C21.0861 18.3358 21.1259 18.2361 21.1259 18.1324C21.1259 18.0287 21.0861 17.929 21.0146 17.8539C20.9432 17.7788 20.8456 17.7341 20.742 17.7289C19.2764 17.6452 17.8095 17.5839 16.342 17.5449C16.3966 16.2213 16.4223 14.8967 16.419 13.5719L17.187 13.5829C18.102 13.5999 18.782 13.6279 19.29 13.6489C20.613 13.7039 20.76 13.7109 20.801 13.3259C20.86 12.7779 18.96 12.4879 16.408 12.3659C16.3875 11.0894 16.3402 9.81344 16.266 8.53891L16.806 8.54591C18.233 8.56291 19.608 8.57991 20.261 8.59091C20.3627 8.58931 20.4601 8.54942 20.5336 8.47918C20.6072 8.40895 20.6516 8.31355 20.6579 8.21204C20.6642 8.11053 20.632 8.01037 20.5677 7.93156C20.5034 7.85276 20.4117 7.8011 20.311 7.78692C18.9417 7.61898 17.5682 7.48694 16.192 7.39091C16.0865 5.8909 15.9435 4.39376 15.763 2.90092C15.7604 2.79801 15.7169 2.70038 15.6423 2.62949C15.5677 2.5586 15.4679 2.52026 15.365 2.52292C15.2621 2.52557 15.1645 2.56899 15.0936 2.64363C15.0227 2.71827 14.9844 2.81801 14.987 2.92092C14.987 3.01392 15.004 4.91491 15.027 7.31791C13.3527 7.22529 11.6759 7.18527 9.99901 7.19792C9.92782 5.74581 9.83314 4.29496 9.71501 2.84592C9.71528 2.74434 9.67518 2.64681 9.60354 2.5748C9.5319 2.50279 9.43459 2.46218 9.33301 2.46192C9.23144 2.46165 9.13391 2.50175 9.0619 2.57339C8.98989 2.64503 8.94928 2.74234 8.94901 2.84392C8.91301 3.60592 8.89601 5.25692 8.88901 7.21392C7.39325 7.24526 5.89866 7.31862 4.40701 7.43392C4.3053 7.43564 4.20844 7.4777 4.13774 7.55084C4.06704 7.62398 4.02829 7.7222 4.03001 7.82392C4.03174 7.92563 4.0738 8.02249 4.14693 8.09319C4.22007 8.16389 4.3183 8.20264 4.42001 8.20092C6.20701 8.25692 6.65701 8.28592 7.06601 8.31192C7.42101 8.33492 7.74601 8.35592 8.88601 8.39192C8.88601 9.69392 8.88801 11.0719 8.89201 12.3779C6.87101 12.4579 5.15201 12.5899 4.30201 12.7319C4.20509 12.7485 4.11815 12.8015 4.05895 12.88C3.99975 12.9585 3.97276 13.0567 3.98348 13.1545C3.9942 13.2522 4.04182 13.3422 4.11663 13.406C4.19144 13.4698 4.28779 13.5027 4.38601 13.4979C4.70101 13.4809 6.62601 13.4879 8.89601 13.5029C8.90301 15.1799 8.91301 16.6459 8.92001 17.5389C7.29101 17.5799 5.66201 17.6489 4.03401 17.7439C3.9367 17.7509 3.84565 17.7945 3.77919 17.866C3.71273 17.9374 3.67578 18.0313 3.67578 18.1289C3.67578 18.2265 3.71273 18.3204 3.77919 18.3919C3.84565 18.4633 3.9367 18.5059 4.03401 18.5129ZM10.16 13.5129C10.163 14.8469 10.146 16.1809 10.109 17.5149C11.7809 17.4869 13.4532 17.4879 15.125 17.5179L15.086 13.5579C13.444 13.5408 11.802 13.5258 10.16 13.5129ZM15.074 12.3179L15.038 8.52392C14.1906 8.51434 13.3433 8.50167 12.496 8.48592C11.6817 8.46681 10.8673 8.44648 10.053 8.42492C10.105 9.72792 10.138 11.0309 10.153 12.3349C11.7929 12.2869 13.4338 12.2812 15.074 12.3179Z" fill="black"/>
<path fill-rule="evenodd" clip-rule="evenodd" d="M4.75397 3.2299C6.01197 1.9969 8.38697 1.9049 12.82 2.0949C12.81 1.4049 12.943 0.728902 13.902 0.332902C15.5142 -0.0195336 17.175 -0.0925946 18.812 0.116902C20.529 0.525902 20.708 1.9539 20.648 3.5819C21.732 5.2759 21.625 9.3379 21.359 19.3899L21.27 22.7999C22.144 22.8179 22.865 22.8429 23.374 22.8749C23.427 22.8762 23.4792 22.888 23.5276 22.9094C23.5761 22.9309 23.6198 22.9618 23.6564 23.0002C23.6929 23.0386 23.7215 23.0838 23.7406 23.1332C23.7596 23.1827 23.7688 23.2354 23.7675 23.2884C23.7662 23.3414 23.7544 23.3936 23.7329 23.4421C23.7114 23.4905 23.6806 23.5343 23.6422 23.5708C23.6038 23.6073 23.5586 23.636 23.5091 23.655C23.4597 23.6741 23.407 23.6832 23.354 23.6819C15.778 24.1119 8.18397 24.1059 0.609966 23.6639C0.508388 23.6626 0.411498 23.621 0.340609 23.5482C0.26972 23.4754 0.23064 23.3775 0.231966 23.2759C0.233292 23.1743 0.274916 23.0774 0.34768 23.0065C0.420444 22.9357 0.518388 22.8966 0.619966 22.8979C0.945966 22.8929 1.97497 22.8779 3.43197 22.8589C3.50397 19.0829 3.45997 15.9739 3.42397 13.4179C3.34097 7.6079 3.29997 4.6559 4.75397 3.2299ZM4.20797 22.8499C8.63197 22.7949 15.998 22.7229 20.448 22.7869C20.448 22.0969 20.446 21.4329 20.445 20.7919C20.43 7.7019 20.425 4.5819 19.079 3.8119C18.657 3.5719 18.104 3.5609 17.378 3.5469C17.142 3.5429 16.888 3.5379 16.614 3.5249C15.6898 3.47853 14.7658 3.42887 13.842 3.3759C9.25497 3.1179 6.92197 2.9859 5.72697 4.0889C4.48997 5.2309 4.47497 7.6969 4.44497 12.7159C4.42897 15.3379 4.40897 18.6579 4.20797 22.8499ZM15.67 2.2319C14.969 2.1959 14.307 2.1619 13.683 2.1329C13.77 1.5309 13.95 1.3199 15.021 1.2899C15.536 1.2839 15.992 1.2709 16.397 1.2599C18.419 1.2019 19.162 1.1809 19.522 2.2409C19.578 2.4069 19.621 2.5679 19.652 2.7229C18.937 2.4009 17.97 2.3429 16.677 2.2829L15.67 2.2319Z" fill="black"/>
</g>
<defs>
<clipPath id="clip0_36_436">
<rect width="24" height="24" fill="white"/>
</clipPath>
</defs>
</svg>
