<svg width="24" height="24" viewBox="0 0 24 24" fill="none" xmlns="http://www.w3.org/2000/svg">
<g clip-path="url(#clip0_36_458)">
<path fill-rule="evenodd" clip-rule="evenodd" d="M13.56 10.59C13.3305 10.3628 13.054 10.1887 12.75 10.08C12.1807 9.9017 11.5941 9.78438 11 9.72996C10.79 9.72996 10.57 9.67996 10.36 9.66996H10.19C10.6708 9.26218 11.0403 8.73919 11.2641 8.14986C11.488 7.56053 11.5588 6.92408 11.47 6.29996C11.3115 5.26697 10.7551 4.33703 9.91969 3.70909C9.0843 3.08114 8.03633 2.80508 7 2.93996C6.03017 2.94165 5.09633 3.30742 4.38334 3.96485C3.67035 4.62228 3.23019 5.52345 3.15 6.48996C3.13282 6.91773 3.20386 7.34445 3.35869 7.74357C3.51353 8.1427 3.74884 8.50569 4.05 8.80996C3.07006 10.2408 2.37411 11.8466 2 13.54C1.82012 14.1154 1.76808 14.7232 1.84754 15.3208C1.92699 15.9184 2.13602 16.4915 2.46 17H2.31C2.00872 16.9741 1.71764 16.8783 1.46 16.72C1.46 16.72 1.46 16.64 1.46 16.58C1.39293 16.3932 1.35253 16.198 1.34 16C1.29 15.58 1.29 15.15 1.27 14.95L1 11.79C0.94 11 0.83 10.27 0.76 9.50996C0.706348 9.00849 0.682972 8.50425 0.69 7.99996C0.69 7.92305 0.659447 7.84929 0.605061 7.7949C0.550675 7.74052 0.476913 7.70996 0.4 7.70996C0.323087 7.70996 0.249325 7.74052 0.194939 7.7949C0.140553 7.84929 0.11 7.92305 0.11 7.99996C0.0446032 8.51084 0.00787904 9.02498 0 9.53996L0 11.85C0 12.62 0 13.13 0.05 13.77C0.0647292 14.2086 0.104796 14.646 0.17 15.08C0.209803 15.5955 0.290049 16.107 0.41 16.61C0.482215 16.9279 0.658108 17.2129 0.91 17.42C1.11757 17.5406 1.34412 17.6252 1.58 17.67L1.16 19.12C1.08 19.39 1.02 19.66 0.96 19.94C0.9 20.22 0.86 20.5 0.82 20.78C0.73 21.44 0.66 22.1 0.59 22.78C0.573961 22.8245 0.567704 22.872 0.571656 22.9192C0.575607 22.9664 0.589674 23.0122 0.6129 23.0535C0.636126 23.0948 0.667967 23.1306 0.706259 23.1585C0.744551 23.1864 0.788396 23.2057 0.834816 23.2151C0.881235 23.2245 0.92914 23.2239 0.975276 23.2131C1.02141 23.2024 1.0647 23.1819 1.10219 23.1529C1.13968 23.124 1.1705 23.0873 1.19255 23.0454C1.21461 23.0034 1.22738 22.9573 1.23 22.91C1.43 22.27 1.65 21.65 1.84 21.01C1.92 20.73 1.99 20.46 2.05 20.18C2.11452 19.8994 2.16458 19.6157 2.2 19.33C2.26 18.81 2.27 18.33 2.28 17.77H3.68C4.08 17.77 4.36 17.93 4.68 18C5.19417 18.0451 5.68573 18.2321 6.1 18.54C6.26099 18.6795 6.40529 18.8372 6.53 19.01C6.67 19.2 6.78 19.4 6.9 19.6C7.16 20.12 7.45 21.99 8.04 22.75C8.13294 22.8837 8.25152 22.9977 8.38885 23.0852C8.52618 23.1727 8.67953 23.2322 8.84 23.26C9.06507 23.2855 9.29295 23.254 9.50265 23.1684C9.71236 23.0828 9.89715 22.9458 10.04 22.77C10.7455 21.7962 11.0983 20.6111 11.04 19.41C11.1185 18.2468 10.828 17.0885 10.21 16.1C10.0056 15.8475 9.75432 15.637 9.47 15.48C8.97 15.2 8.4 15.1 7.89 14.82C7.85744 14.2071 7.85744 13.5929 7.89 12.98C7.91888 12.8977 7.91406 12.8074 7.87659 12.7287C7.83912 12.65 7.77204 12.5894 7.69 12.56C7.6064 12.5307 7.51468 12.5353 7.43437 12.5726C7.35407 12.61 7.2915 12.6772 7.26 12.76C7.26 12.86 7.18 14.28 7.18 14.85C7.17625 15.0379 7.24418 15.2203 7.37 15.36C7.92 15.72 8.55 15.85 9.1 16.18C9.28748 16.2935 9.45062 16.443 9.58 16.62C10.0379 17.4666 10.223 18.4341 10.11 19.39C10.1487 20.3227 9.87414 21.2415 9.33 22C9.22 22.11 9.14 22.19 9.05 22.19C8.96 22.19 9 22.19 8.98 22.12C8.89751 22.0167 8.83016 21.9022 8.78 21.78C8.36 20.91 8.14 19.52 7.92 19.09C7.78574 18.8351 7.63195 18.5911 7.46 18.36C7.28596 18.1146 7.08093 17.8928 6.85 17.7C6.6108 17.5006 6.34055 17.3419 6.05 17.23C5.53383 17.0596 5.00072 16.9456 4.46 16.89C4.03727 16.8603 3.63003 16.7188 3.28 16.48C2.63 15.95 2.61 14.87 2.8 13.73C3.06315 12.1244 3.63722 10.5856 4.49 9.19996C5.17352 9.67055 5.97184 9.94702 6.8 9.99996C6.83757 10.0056 6.87589 10.0035 6.91263 9.99379C6.94936 9.98411 6.98374 9.96706 7.01368 9.94367C7.04361 9.92029 7.06848 9.89105 7.08676 9.85775C7.10503 9.82445 7.11635 9.78778 7.12 9.74996C7.1256 9.71239 7.1235 9.67407 7.11382 9.63734C7.10415 9.6006 7.0871 9.56622 7.06371 9.53628C7.04032 9.50635 7.01109 9.48148 6.97779 9.46321C6.94448 9.44493 6.90781 9.43362 6.87 9.42996C4.84 9.09996 4 7.80996 4.06 6.54996C4.16107 5.83546 4.52401 5.18399 5.07838 4.72202C5.63274 4.26005 6.33898 4.02053 7.06 4.04996C7.83328 3.92125 8.62622 4.10032 9.26914 4.54886C9.91205 4.99741 10.3539 5.67979 10.5 6.44996C10.6377 7.24464 10.4583 8.06164 10.0002 8.72543C9.54206 9.38923 8.84186 9.84684 8.05 9.99996C8.00684 10.0094 7.966 10.0274 7.92992 10.0528C7.89383 10.0783 7.86323 10.1108 7.83993 10.1483C7.81663 10.1859 7.8011 10.2277 7.79427 10.2713C7.78744 10.315 7.78944 10.3596 7.80015 10.4024C7.81087 10.4453 7.83008 10.4856 7.85665 10.5209C7.88321 10.5561 7.9166 10.5857 7.95482 10.6079C7.99304 10.6301 8.03533 10.6443 8.07916 10.6498C8.12299 10.6553 8.16749 10.652 8.21 10.64C8.55299 10.5617 8.88781 10.4512 9.21 10.31L10.09 10.42C10.3339 10.4487 10.5749 10.4989 10.81 10.57C11.3414 10.7002 11.8601 10.8776 12.36 11.1C12.5236 11.1514 12.667 11.2528 12.77 11.39C12.77 11.44 12.77 11.48 12.66 11.56L12.41 11.78L11.87 12.06C11.4552 12.2032 11.0188 12.2742 10.58 12.27C9.82 12.27 9.04 12.2 8.38 12.19C8.33663 12.1858 8.29287 12.1903 8.25125 12.2032C8.20963 12.2161 8.17097 12.2371 8.1375 12.265C8.10404 12.2929 8.07642 12.3271 8.05625 12.3657C8.03609 12.4043 8.02377 12.4466 8.02 12.49C8.01729 12.5333 8.02317 12.5768 8.0373 12.6179C8.05142 12.6589 8.07352 12.6968 8.10232 12.7293C8.13113 12.7619 8.16606 12.7884 8.20513 12.8073C8.2442 12.8263 8.28664 12.8374 8.33 12.84C9.11 12.94 10.07 13.16 10.95 13.19C11.3738 13.1893 11.7951 13.1253 12.2 13C12.313 12.9689 12.4234 12.9287 12.53 12.88C12.69 12.8175 12.844 12.7405 12.99 12.65L13.51 12.21C14 11.42 13.9 10.94 13.56 10.59Z" fill="black"/>
<path fill-rule="evenodd" clip-rule="evenodd" d="M21.1001 5.99986C21.0214 5.96433 20.9322 5.96006 20.8505 5.98791C20.7687 6.01577 20.7007 6.07367 20.6601 6.14986C20.5001 6.45986 20.3501 6.77986 20.2101 7.09986C20.0201 7.56986 19.8501 8.09986 19.6901 8.53986C19.5301 8.97986 19.4101 9.32986 19.3001 9.72986C19.221 10.0088 19.1609 10.2928 19.1201 10.5799L19.0701 11.2299H18.2001C17.4701 11.3099 16.7401 11.3899 16.0001 11.5099C15.2601 11.6299 15.1101 11.6399 14.4001 11.7999C13.6901 11.9599 13.9501 12.4699 14.2601 12.3999C14.8401 12.3399 15.0801 12.3999 15.6601 12.3999C16.5201 12.3999 17.3801 12.3399 18.2401 12.3999H19.4701C19.5989 12.3963 19.7243 12.3582 19.8334 12.2896C19.9424 12.221 20.0311 12.1244 20.0901 12.0099C20.142 11.8582 20.1723 11.7 20.1801 11.5399V10.7699C20.1947 10.5216 20.2248 10.2744 20.2701 10.0299C20.3401 9.63986 20.4401 9.24986 20.5301 8.86986C20.6201 8.48986 20.7601 7.86986 20.9001 7.41986C21.0001 7.10986 21.1101 6.80986 21.2301 6.50986C21.2641 6.47082 21.288 6.42412 21.3 6.37377C21.312 6.32343 21.3115 6.27093 21.2987 6.22079C21.286 6.17064 21.2612 6.12435 21.2266 6.08587C21.192 6.04739 21.1486 6.01788 21.1001 5.99986Z" fill="black"/>
<path fill-rule="evenodd" clip-rule="evenodd" d="M23.6803 13.6699C22.3203 13.5399 20.9703 13.4299 19.6103 13.3999H17.8603C17.2803 13.3999 16.6903 13.3999 16.1103 13.4999C14.7603 13.6299 13.4203 13.8599 12.1103 14.0899C12.0434 14.1076 11.9851 14.1487 11.9458 14.2056C11.9065 14.2626 11.8889 14.3318 11.8961 14.4006C11.9034 14.4694 11.935 14.5334 11.9853 14.581C12.0356 14.6285 12.1012 14.6565 12.1703 14.6599C13.7203 14.5799 15.2503 14.5799 16.7803 14.5499H17.4603C17.3803 15.2799 17.2803 15.9999 17.2603 16.7299V18.2699C17.2603 18.9299 17.3603 19.5799 17.4103 20.2699C17.0888 20.2882 16.7702 20.3419 16.4603 20.4299C15.6248 20.6981 14.8429 21.1111 14.1503 21.6499C14.0875 21.6927 14.0426 21.7571 14.0242 21.8309C14.0058 21.9046 14.0151 21.9826 14.0503 22.0499C14.0916 22.1145 14.156 22.1609 14.2304 22.1795C14.3048 22.1981 14.3835 22.1875 14.4503 22.1499C15.1608 21.8156 15.9149 21.5833 16.6903 21.4599C17.0049 21.4106 17.3221 21.3805 17.6403 21.3699C17.9532 21.345 18.2675 21.345 18.5803 21.3699C19.3403 21.4714 20.068 21.7413 20.7103 22.1599C20.7806 22.2129 20.8691 22.2359 20.9563 22.2237C21.0435 22.2115 21.1223 22.1652 21.1753 22.0949C21.2284 22.0246 21.2513 21.9361 21.2391 21.8489C21.2269 21.7617 21.1806 21.6829 21.1103 21.6299C20.451 21.0178 19.6506 20.5781 18.7803 20.3499C18.5676 20.293 18.35 20.2562 18.1303 20.2399C18.2103 19.6099 18.2703 18.9699 18.3103 18.3399V17.3399V16.3399C18.2603 15.7099 18.1803 15.0899 18.1103 14.4699H19.0603L21.3703 14.3599H23.6703C23.7163 14.3601 23.7618 14.3507 23.804 14.3322C23.8461 14.3138 23.8839 14.2868 23.915 14.2529C23.946 14.219 23.9697 14.179 23.9844 14.1354C23.9991 14.0919 24.0045 14.0457 24.0003 13.9999C24.0004 13.9141 23.967 13.8316 23.9072 13.77C23.8475 13.7084 23.7661 13.6725 23.6803 13.6699Z" fill="black"/>
<path fill-rule="evenodd" clip-rule="evenodd" d="M16.4999 3.91005C16.2779 3.87504 16.0518 3.87504 15.8299 3.91005C15.5992 3.9254 15.3727 3.97949 15.1599 4.07005C14.6731 4.28549 14.267 4.64956 13.9999 5.11005C13.9508 5.16972 13.9275 5.24644 13.935 5.32333C13.9425 5.40022 13.9802 5.47098 14.0399 5.52005C14.0996 5.56911 14.1763 5.59246 14.2532 5.58496C14.3301 5.57746 14.4008 5.53972 14.4499 5.48005C14.7606 5.24494 15.1316 5.10277 15.5199 5.07005L15.9999 5.00005C16.1631 4.99003 16.3267 4.99003 16.4899 5.00005C16.8855 4.95797 17.2854 5.00583 17.6599 5.14005C17.695 5.16361 17.7345 5.17976 17.776 5.1875C17.8176 5.19523 17.8603 5.19439 17.9015 5.18502C17.9427 5.17566 17.9815 5.15797 18.0157 5.13304C18.0498 5.1081 18.0784 5.07646 18.0999 5.04005C18.1239 5.0034 18.1404 4.96233 18.1484 4.91924C18.1563 4.87615 18.1556 4.8319 18.1463 4.78908C18.137 4.74626 18.1193 4.70572 18.0941 4.66983C18.069 4.63394 18.037 4.60342 17.9999 4.58005C17.57 4.2246 17.0515 3.99297 16.4999 3.91005Z" fill="black"/>
<path fill-rule="evenodd" clip-rule="evenodd" d="M12.7698 3.20993C13.5 2.68144 14.3302 2.30717 15.2098 2.10993C15.774 1.95442 16.3548 1.86713 16.9398 1.84993C17.8989 1.76979 18.8528 2.0556 19.6098 2.64993C19.6405 2.68107 19.6771 2.7058 19.7174 2.72268C19.7578 2.73956 19.8011 2.74825 19.8448 2.74825C19.8885 2.74825 19.9318 2.73956 19.9722 2.72268C20.0125 2.7058 20.0491 2.68107 20.0798 2.64993C20.1374 2.58719 20.1694 2.50511 20.1694 2.41993C20.1694 2.33475 20.1374 2.25267 20.0798 2.18993C19.3836 1.41281 18.4264 0.918213 17.3898 0.79993C16.9512 0.749958 16.5084 0.749958 16.0698 0.79993C15.6432 0.858117 15.2241 0.962049 14.8198 1.10993C13.8838 1.46665 13.047 2.04278 12.3798 2.78993C12.3255 2.84431 12.2949 2.91805 12.2949 2.99493C12.2949 3.07181 12.3255 3.14555 12.3798 3.19993C12.4329 3.24782 12.5014 3.27515 12.573 3.27698C12.6445 3.27881 12.7143 3.25503 12.7698 3.20993Z" fill="black"/>
</g>
<defs>
<clipPath id="clip0_36_458">
<rect width="24" height="24" fill="white"/>
</clipPath>
</defs>
</svg>
