<svg width="24" height="24" viewBox="0 0 24 24" fill="none" xmlns="http://www.w3.org/2000/svg">
<g clip-path="url(#clip0_36_545)">
<path d="M17.5704 19.6899C16.5843 18.7068 15.9275 17.442 15.6904 16.0699C15.4102 13.6975 15.3299 11.3058 15.4504 8.91993C15.4374 8.8485 15.3997 8.78389 15.344 8.73738C15.2883 8.69086 15.218 8.66538 15.1454 8.66538C15.0728 8.66538 15.0025 8.69086 14.9467 8.73738C14.891 8.78389 14.8533 8.8485 14.8404 8.91993C14.6454 11.356 14.6454 13.8038 14.8404 16.2399C14.9597 16.9475 15.1507 17.641 15.4104 18.3099C15.7224 18.9162 16.1051 19.4835 16.5504 19.9999C14.7504 20.9999 8.92036 20.5599 7.10036 20.4699C5.50036 20.3899 4.99036 20.6999 4.71036 19.4699C4.30427 16.5854 4.19036 13.6673 4.37036 10.7599C4.54132 9.66204 4.59162 8.54875 4.52036 7.43993C4.45036 6.90993 3.93036 7.15993 3.97036 7.55993C3.62341 9.75715 3.42961 11.9758 3.39036 14.1999C3.36754 16.1531 3.49122 18.1052 3.76036 20.0399C3.83593 20.4123 4.02259 20.7531 4.29572 21.0173C4.56885 21.2815 4.91564 21.4568 5.29036 21.5199C5.85605 21.6082 6.42783 21.6517 7.00036 21.6499C9.43741 21.8787 11.8894 21.9022 14.3304 21.7199C15.8304 21.5399 18.4104 20.8999 17.5704 19.6899Z" fill="black"/>
<path d="M5.62021 7.42989C7.33021 7.42989 14.4202 7.72989 15.9202 7.42989C16.1001 7.39226 16.2662 7.30576 16.4002 7.17989C16.7661 6.72846 17.0203 6.19698 17.1419 5.62874C17.2635 5.0605 17.2493 4.47157 17.1002 3.90989C16.5602 2.12989 14.8902 2.13989 13.0002 2.13989C11.1102 2.13989 9.18021 2.29989 7.85021 2.23989C6.52021 2.17989 4.63021 2.23989 4.55021 2.23989C3.08021 2.07989 1.40021 3.09989 0.740212 5.84989C0.365249 8.16737 0.124846 10.5046 0.020212 12.8499C-0.036902 15.2952 0.0331927 17.7419 0.230212 20.1799C0.26291 20.2581 0.322866 20.3217 0.398949 20.3591C0.475033 20.3964 0.562076 20.4049 0.643921 20.3829C0.725767 20.3609 0.796854 20.3099 0.843987 20.2395C0.891121 20.1691 0.911098 20.0839 0.900212 19.9999C0.777943 16.7236 0.921749 13.4429 1.33021 10.1899C1.61021 8.18989 1.56021 5.31989 2.91021 3.88989C3.08807 3.64669 3.32508 3.45291 3.59877 3.32691C3.87247 3.20092 4.1738 3.14688 4.47423 3.16991C4.77465 3.19294 5.06422 3.29228 5.31552 3.45853C5.56681 3.62477 5.7715 3.85241 5.91021 4.11989C6.05646 4.54676 6.07276 5.00741 5.95705 5.44354C5.84134 5.87968 5.59883 6.27167 5.26021 6.56989C5.12021 6.65989 4.90021 7.41989 5.62021 7.42989ZM6.62021 3.71989C6.18021 2.90989 5.86021 2.89989 6.00021 2.89989C6.69021 2.89989 7.36021 2.97989 7.74021 3.01989C9.62021 3.20989 13.3402 3.07989 15.0402 3.40989C15.3143 3.45611 15.5638 3.59604 15.7462 3.80577C15.9286 4.01551 16.0325 4.28206 16.0402 4.55989C16.2602 6.71989 15.1902 6.35989 14.8402 6.39989C12.6502 6.62989 8.15021 6.73989 5.95021 6.78989C6.34335 6.39555 6.61465 5.89635 6.73169 5.35195C6.84872 4.80755 6.80655 4.24097 6.61021 3.71989H6.62021Z" fill="black"/>
<path d="M8.54042 9.56988C8.12193 9.91224 7.75484 10.313 7.45042 10.7599C6.81042 11.6799 6.86042 11.9299 6.55042 11.7599C6.50347 11.7211 6.44912 11.6922 6.39068 11.675C6.33224 11.6578 6.27091 11.6527 6.21042 11.6599C5.53042 11.9399 6.59042 13.1199 7.37042 12.6599C8.53042 11.7499 8.50042 10.7799 9.00042 10.0499C9.04402 9.98547 9.06421 9.90807 9.05765 9.83058C9.05108 9.75309 9.01815 9.68019 8.96434 9.62404C8.91053 9.56789 8.8391 9.53189 8.76195 9.52203C8.68481 9.51217 8.60662 9.52906 8.54042 9.56988Z" fill="black"/>
<path d="M10.7604 12.4499C11.4294 12.4322 12.097 12.3788 12.7604 12.2899C12.8505 12.2899 12.937 12.254 13.0008 12.1903C13.0645 12.1265 13.1004 12.04 13.1004 11.9499C13.2504 11.0099 9.29035 11.2799 9.23035 11.7799C9.17035 12.2799 10.6004 12.4299 10.7604 12.4499Z" fill="black"/>
<path d="M8.20018 14.4998C7.61018 15.3998 7.33018 15.6298 6.73018 16.6298C6.64067 16.6134 6.55341 16.5866 6.47018 16.5498C6.45431 16.5124 6.43103 16.4787 6.40175 16.4506C6.37246 16.4225 6.33778 16.4006 6.2998 16.3863C6.26181 16.372 6.22132 16.3656 6.18078 16.3674C6.14023 16.3692 6.10047 16.3792 6.0639 16.3968C6.02733 16.4144 5.99471 16.4392 5.96802 16.4698C5.94134 16.5004 5.92113 16.536 5.90863 16.5747C5.89613 16.6133 5.89159 16.654 5.89529 16.6944C5.899 16.7349 5.91087 16.7741 5.93018 16.8098C6.05952 17.0978 6.25892 17.3487 6.51018 17.5398C7.51018 18.2398 8.45018 15.9198 8.82018 14.7998C8.85996 14.7176 8.86545 14.6229 8.83545 14.5367C8.80544 14.4504 8.7424 14.3796 8.66018 14.3398C8.57796 14.3 8.48331 14.2945 8.39704 14.3245C8.31077 14.3545 8.23996 14.4176 8.20018 14.4998Z" fill="black"/>
<path d="M13 16.9999C13.0619 16.9333 13.0963 16.8458 13.0963 16.7549C13.0963 16.664 13.0619 16.5765 13 16.5099C12.79 16.2099 11.71 16.1199 11.47 16.1299C10.7472 16.1758 10.0323 16.3067 9.34004 16.5199C9.23004 16.6699 9.18004 16.7899 9.28004 16.8999C9.38004 17.0099 9.15004 16.9599 10.62 17.2899C11.4197 17.2554 12.2155 17.1585 13 16.9999Z" fill="black"/>
<path d="M23.8604 3.20978C23.2704 1.42978 20.9204 2.33978 20.2504 3.30978C20.1291 3.49035 20.0631 3.70231 20.0604 3.91978C18.4304 4.13978 18.3904 6.60978 18.3604 8.13978C18.4304 10.3498 18.3604 10.9698 18.7904 10.9298C19.2204 10.8898 19.1104 10.5298 19.4204 8.19978C19.7304 5.86978 19.5204 5.19978 20.0704 4.63978C20.1504 4.63978 20.0704 9.04978 20.2604 9.48978C19.9904 10.5498 19.8104 15.8698 19.7404 17.3198C19.6738 17.8101 19.6537 18.3057 19.6804 18.7998C19.9066 19.6598 20.4449 20.4048 21.1904 20.8898C21.8104 21.1998 22.1904 20.6098 22.4004 20.1798C22.956 19.5137 23.2478 18.6668 23.2204 17.7998C23.2204 15.4598 23.1604 17.1498 23.4204 9.31978C23.6251 8.74072 23.7398 8.13364 23.7604 7.51978C23.8904 6.20978 24.1704 4.12978 23.8604 3.20978ZM21.1304 3.99978C21.3919 3.74387 21.716 3.56111 22.0704 3.46978C22.6104 3.36978 22.6304 3.31978 22.7304 3.52978C22.8073 3.71052 22.8513 3.90355 22.8604 4.09978C22.8977 5.71171 22.841 7.32446 22.6904 8.92978C22.6004 8.92978 22.4304 9.00978 22.3704 9.00978H20.8704C20.8004 8.42978 20.7804 9.75978 21.1304 3.99978ZM21.4104 19.6398C21.1399 19.3541 20.9351 19.0128 20.8104 18.6398C20.8904 16.0198 20.6304 11.9098 20.8104 9.74978C21.4251 9.80985 22.043 9.82989 22.6604 9.80978L22.1904 15.9998C22.0904 18.7398 22.2004 18.3898 21.4104 19.5998V19.6398Z" fill="black"/>
</g>
<defs>
<clipPath id="clip0_36_545">
<rect width="24" height="24" fill="white"/>
</clipPath>
</defs>
</svg>
