<svg width="24" height="24" viewBox="0 0 24 24" fill="none" xmlns="http://www.w3.org/2000/svg">
<g clip-path="url(#clip0_36_449)">
<path fill-rule="evenodd" clip-rule="evenodd" d="M23.0702 6.60011C23.0973 5.79831 22.9183 5.00296 22.5502 4.29011C22.1819 3.78213 21.6592 3.40681 21.0602 3.22011C20.6819 3.15536 20.2935 3.1863 19.9302 3.31011C19.5061 3.45714 19.0504 3.48821 18.6102 3.40011C18.5701 3.38985 18.5282 3.38801 18.4874 3.39472C18.4465 3.40142 18.4074 3.41652 18.3726 3.43907C18.3379 3.46162 18.3082 3.49112 18.2854 3.52572C18.2626 3.56032 18.2472 3.59927 18.2402 3.64011C18.2222 3.72228 18.2374 3.80822 18.2823 3.87933C18.3272 3.95045 18.3983 4.00102 18.4802 4.02011C19.0099 4.14989 19.5639 4.14301 20.0902 4.00011C20.3525 3.90496 20.6345 3.87744 20.9102 3.92011C21.3461 4.08072 21.7251 4.36587 22.0002 4.74011C22.3 5.5719 22.4061 6.46114 22.3102 7.34011C22.3102 8.82011 22.2002 10.5301 22.0902 11.6201C21.9502 12.9301 21.8902 14.5601 21.6602 16.1001C21.5902 16.5701 21.5002 17.0201 21.3902 17.4601C20.991 17.4601 20.5927 17.4232 20.2002 17.3501C19.0902 17.1301 18.0602 16.6901 16.8902 16.4601C16.4139 16.3737 15.9239 16.4011 15.4602 16.5401C15.2601 16.5971 15.0746 16.6961 14.9159 16.8307C14.7572 16.9652 14.6291 17.1321 14.5402 17.3201C14.4022 17.6363 14.3242 17.9754 14.3102 18.3201C14.2402 19.0201 14.3102 19.8301 14.3102 20.3801C14.3102 20.9301 14.3102 21.4701 14.2202 22.0101C14.2202 22.2601 14.1502 22.5101 14.1202 22.7601C10.9444 23.0551 7.74277 22.9002 4.61021 22.3001C3.97197 22.2045 3.34964 22.0229 2.76021 21.7601C2.44941 21.6232 2.16246 21.4375 1.91021 21.2101C2.01021 20.5501 2.52021 19.0301 2.57021 18.8301C2.84021 17.4801 3.05021 16.1001 3.19021 14.7101C3.33462 13.3249 3.40472 11.9329 3.40021 10.5401C3.40021 9.70011 3.05021 7.75011 3.06021 6.22011C3.00442 5.6796 3.11613 5.135 3.38021 4.66011C3.64489 4.36319 3.96597 4.12188 4.32478 3.9502C4.68358 3.77853 5.07294 3.67992 5.47021 3.66011C6.78348 3.61909 8.09789 3.68598 9.40021 3.86011C9.47284 3.86289 9.54371 3.83731 9.59782 3.78879C9.65194 3.74027 9.68507 3.67261 9.69021 3.60011C9.69298 3.52483 9.66636 3.45142 9.61596 3.39543C9.56557 3.33944 9.49537 3.30525 9.42021 3.30011C8.09585 3.10697 6.75852 3.0167 5.42021 3.03011C4.44546 3.07913 3.52928 3.51027 2.87021 4.23011C2.50304 4.83035 2.32531 5.52733 2.36021 6.23011C2.36021 7.75011 2.62021 9.72011 2.61021 10.5601C2.58788 11.9211 2.49107 13.2797 2.32021 14.6301C2.15021 15.9801 1.92021 17.3301 1.63021 18.6301C1.63021 18.8301 1.02021 20.4201 0.920211 21.0901C0.892899 21.2084 0.891262 21.3313 0.915411 21.4503C0.939561 21.5693 0.988936 21.6818 1.06021 21.7801C1.42418 22.1657 1.85869 22.478 2.34021 22.7001C3.01575 23.0077 3.72838 23.2262 4.46021 23.3501C7.34021 23.8401 11.8602 24.3501 15.6302 23.5801C18.3502 22.9901 20.6302 21.6901 21.7802 19.2601C22.1871 18.3035 22.4532 17.293 22.5702 16.2601C22.7802 14.7001 22.8102 13.0501 22.9302 11.7301C23.0778 10.0244 23.1246 8.31137 23.0702 6.60011ZM15.4102 22.6001C15.2002 22.6501 14.9802 22.6701 14.7702 22.7101C14.8302 22.4301 14.9102 22.1601 14.9502 21.8801C15.0369 21.4268 15.1169 20.9668 15.1902 20.5001C15.2602 19.9701 15.2702 19.1701 15.3602 18.5001C15.3891 18.2663 15.4497 18.0376 15.5402 17.8201C15.6102 17.6601 15.7902 17.6101 15.9602 17.5701C16.2284 17.5261 16.502 17.5261 16.7702 17.5701C17.9402 17.7001 18.9902 18.0601 20.1202 18.1801C20.4896 18.2104 20.8608 18.2104 21.2302 18.1801C21.1369 18.4401 21.0369 18.6901 20.9302 18.9301C19.9202 21.0001 17.8202 22.0601 15.4102 22.5601V22.6001Z" fill="black"/>
<path fill-rule="evenodd" clip-rule="evenodd" d="M11.89 4.4501C12.086 4.57637 12.2936 4.68353 12.51 4.7701C12.3172 4.96167 12.1368 5.16542 11.97 5.3801C11.8753 5.51842 11.7885 5.66198 11.71 5.8101C11.6291 5.95682 11.5621 6.11083 11.51 6.2701C11.37 6.6501 11.27 7.0201 11.16 7.4001C11.1332 7.43823 11.115 7.48177 11.1068 7.52766C11.0986 7.57354 11.1005 7.62067 11.1124 7.66575C11.1242 7.71083 11.1458 7.75277 11.1756 7.78864C11.2054 7.8245 11.2427 7.85343 11.2848 7.87338C11.3269 7.89334 11.3729 7.90385 11.4195 7.90418C11.4661 7.90451 11.5123 7.89464 11.5547 7.87528C11.5971 7.85592 11.6348 7.82752 11.665 7.79208C11.6953 7.75664 11.7175 7.71501 11.73 7.6701C11.95 7.3501 12.18 7.0501 12.4 6.7301C12.4907 6.59459 12.5741 6.4544 12.65 6.3101C12.73 6.17185 12.8002 6.02816 12.86 5.8801C12.98 5.5801 13.07 5.2901 13.17 5.0001C13.221 5.0052 13.2724 4.99451 13.3171 4.96947C13.3618 4.94443 13.3977 4.90625 13.42 4.8601C13.4368 4.82746 13.4468 4.79174 13.4493 4.75512C13.4518 4.7185 13.4468 4.68176 13.4347 4.64713C13.4225 4.6125 13.4034 4.58071 13.3785 4.55371C13.3537 4.52671 13.3235 4.50507 13.29 4.4901L13.18 4.4301H13.13C12.8397 4.30103 12.5647 4.14004 12.31 3.9501C12.1504 3.81723 12.041 3.63373 12 3.4301C11.8838 3.0829 11.891 2.70623 12.0204 2.36371C12.1497 2.02119 12.3933 1.73381 12.71 1.5501C12.9982 1.32322 13.3364 1.16853 13.6965 1.09895C14.0566 1.02937 14.4281 1.04691 14.78 1.1501C15.142 1.28476 15.4797 1.47726 15.78 1.7201C16.0521 1.92282 16.2406 2.21803 16.31 2.5501C16.3284 2.82852 16.2767 3.10711 16.1596 3.3604C16.0426 3.61369 15.864 3.83362 15.64 4.0001C15.4401 4.21676 15.1884 4.37906 14.9085 4.47177C14.6286 4.56447 14.3298 4.58455 14.04 4.5301C13.9618 4.50612 13.8773 4.51305 13.8039 4.54947C13.7306 4.5859 13.674 4.64904 13.6459 4.7259C13.6177 4.80277 13.62 4.88751 13.6524 4.9627C13.6848 5.03789 13.7448 5.0978 13.82 5.1301C14.2219 5.24236 14.6453 5.25269 15.0521 5.16016C15.459 5.06762 15.8363 4.87513 16.15 4.6001C16.4973 4.35199 16.7765 4.02036 16.9618 3.63585C17.147 3.25133 17.2324 2.82633 17.21 2.4001C17.1639 1.93861 16.9712 1.50404 16.66 1.1601C16.234 0.713151 15.7104 0.370882 15.13 0.160101C14.6086 -0.00163087 14.0552 -0.0314768 13.5194 0.0732378C12.9836 0.177952 12.4822 0.413956 12.06 0.760101C11.6062 1.0788 11.278 1.54595 11.1319 2.0809C10.9858 2.61585 11.0312 3.18501 11.26 3.6901C11.387 4.00213 11.607 4.26748 11.89 4.4501Z" fill="black"/>
<path fill-rule="evenodd" clip-rule="evenodd" d="M19.9401 10.0001C19.9307 9.95977 19.9134 9.92171 19.8891 9.88819C19.8648 9.85467 19.834 9.82635 19.7986 9.80492C19.7632 9.78348 19.7238 9.76935 19.6829 9.76337C19.6419 9.75739 19.6001 9.75968 19.5601 9.7701C18.5105 9.96146 17.4468 10.0652 16.3801 10.0801C15.5901 10.0801 14.8001 10.0801 13.9901 9.9701C13.1801 9.8601 12.4101 9.8201 11.6101 9.7001C10.3285 9.4772 9.03081 9.36013 7.73007 9.3501C6.81332 9.3929 5.92672 9.69074 5.17007 10.2101C5.13237 10.2254 5.09848 10.2488 5.07074 10.2786C5.043 10.3084 5.02208 10.3438 5.00945 10.3825C4.99681 10.4212 4.99276 10.4622 4.99757 10.5026C5.00238 10.543 5.01595 10.5818 5.03732 10.6165C5.05868 10.6511 5.08734 10.6807 5.1213 10.7031C5.15526 10.7255 5.1937 10.7403 5.23394 10.7463C5.27418 10.7524 5.31525 10.7496 5.35431 10.7382C5.39336 10.7267 5.42945 10.7069 5.46007 10.6801C6.16166 10.2993 6.95226 10.1129 7.75007 10.1401C9.00043 10.249 10.2407 10.4529 11.4601 10.7501C12.828 10.9417 14.209 11.0253 15.5901 11.0001C16.9791 10.9498 18.358 10.7418 19.7001 10.3801C19.782 10.361 19.8531 10.3104 19.898 10.2393C19.9429 10.1682 19.958 10.0823 19.9401 10.0001Z" fill="black"/>
<path fill-rule="evenodd" clip-rule="evenodd" d="M15.9102 14.7802C16.9198 14.8408 17.9327 14.7396 18.9102 14.4802C18.9503 14.4703 18.988 14.4527 19.0213 14.4282C19.0545 14.4038 19.0826 14.3731 19.1039 14.3378C19.1253 14.3025 19.1395 14.2634 19.1457 14.2226C19.152 14.1818 19.1501 14.1402 19.1402 14.1002C19.1304 14.0601 19.1128 14.0224 19.0883 13.9891C19.0639 13.9559 19.0332 13.9278 18.9979 13.9065C18.9626 13.8851 18.9234 13.8709 18.8827 13.8647C18.8419 13.8584 18.8003 13.8603 18.7602 13.8702C17.8453 14.0323 16.9105 14.0492 15.9902 13.9202C15.2902 13.8402 14.5902 13.6902 13.9102 13.5502L11.8002 13.0802C10.5836 12.7852 9.3302 12.6707 8.08024 12.7402C7.21791 12.822 6.3896 13.1176 5.67024 13.6002C5.60871 13.6393 5.56487 13.7009 5.54807 13.7719C5.53126 13.8428 5.5428 13.9176 5.58024 13.9802C5.61966 14.0441 5.68232 14.0902 5.75506 14.1089C5.8278 14.1275 5.90494 14.1172 5.97024 14.0802C6.63457 13.7233 7.37615 13.5345 8.13024 13.5302C8.82162 13.5419 9.5094 13.6325 10.1802 13.8002C10.6402 13.9002 11.1102 14.0002 11.5702 14.1202C12.2502 14.2702 12.9702 14.4402 13.7102 14.5602C14.4378 14.6825 15.1728 14.756 15.9102 14.7802Z" fill="black"/>
<path fill-rule="evenodd" clip-rule="evenodd" d="M9.85043 17.1202C9.354 16.9696 8.84542 16.8625 8.33043 16.8002C7.42679 16.7042 6.51409 16.8563 5.69043 17.2402C5.62041 17.2631 5.56225 17.3127 5.52856 17.3782C5.49486 17.4437 5.48835 17.5199 5.51043 17.5902C5.53544 17.6587 5.58535 17.7153 5.65022 17.7486C5.71508 17.782 5.79014 17.7897 5.86043 17.7702C6.23367 17.6824 6.6176 17.6487 7.00043 17.6702C7.30947 17.6892 7.61685 17.7293 7.92043 17.7902L8.86042 17.9702C9.86769 18.195 10.8987 18.2958 11.9304 18.2702C11.972 18.2715 12.0134 18.2645 12.0521 18.2495C12.0909 18.2345 12.1263 18.2119 12.1561 18.183C12.186 18.1541 12.2097 18.1194 12.2259 18.0812C12.2421 18.0429 12.2504 18.0017 12.2504 17.9602C12.2505 17.877 12.2181 17.7971 12.1603 17.7374C12.1024 17.6776 12.0235 17.6428 11.9404 17.6402C11.2291 17.5324 10.5293 17.3583 9.85043 17.1202Z" fill="black"/>
</g>
<defs>
<clipPath id="clip0_36_449">
<rect width="24" height="24" fill="white"/>
</clipPath>
</defs>
</svg>
