<svg width="24" height="24" viewBox="0 0 24 24" fill="none" xmlns="http://www.w3.org/2000/svg">
<g clip-path="url(#clip0_36_424)">
<path fill-rule="evenodd" clip-rule="evenodd" d="M3.30956 4.25013C2.98956 5.12013 3.46956 3.88013 1.52956 10.5701C1.16956 12.0001 0.709557 13.0001 0.379557 14.6001C0.186574 15.4761 0.0595507 16.3652 -0.000443196 17.2601C-0.00574373 17.4079 0.0285421 17.5545 0.0988671 17.6846C0.169192 17.8147 0.273002 17.9236 0.399557 18.0001C1.61956 18.5101 8.85956 19.5901 10.5296 19.7901C10.6133 19.7922 10.695 19.7633 10.7587 19.709C10.8225 19.6546 10.864 19.5786 10.8751 19.4955C10.8863 19.4124 10.8664 19.3282 10.8192 19.2589C10.772 19.1896 10.7009 19.1402 10.6196 19.1201C8.38956 18.7601 2.75956 17.6301 1.10956 17.1201C1.21956 15.0001 2.21956 12.3801 2.59956 10.8501L3.59956 6.85013C3.77956 5.99013 3.99956 4.23013 4.42956 3.78013C4.69956 3.51013 4.68956 3.57013 5.26956 3.67013C5.56956 3.67013 5.67956 3.12013 5.26956 3.03013C4.15956 2.75013 3.99956 2.50013 3.30956 4.25013Z" fill="black"/>
<path fill-rule="evenodd" clip-rule="evenodd" d="M18.1896 6.25014C17.5879 7.7334 17.1877 9.29058 16.9996 10.8801C16.9845 10.9553 16.9988 11.0334 17.0396 11.0984C17.0803 11.1634 17.1444 11.2103 17.2186 11.2295C17.2929 11.2487 17.3717 11.2388 17.4388 11.2017C17.5059 11.1646 17.5563 11.1032 17.5796 11.0301C17.7496 10.5601 17.9196 10.1001 18.0996 9.64014C18.6596 8.17014 20.2596 5.28014 18.6596 4.96014C18.5896 4.96014 17.9896 4.82014 17.4896 4.77014C16.9896 4.72014 16.7296 5.30014 17.3196 5.46014C17.3096 5.47014 18.3796 5.58014 18.1896 6.25014Z" fill="black"/>
<path fill-rule="evenodd" clip-rule="evenodd" d="M17.84 2.34009C13.61 0.860088 14.12 0.880088 13.23 0.680088C11.7589 0.341064 10.2587 0.143498 8.75001 0.0900879C7.22001 0.180088 6.80001 0.760088 6.33001 2.09009C4.92755 5.95048 3.90929 9.93979 3.29001 14.0001C3.21323 14.3863 3.21323 14.7839 3.29001 15.1701C3.38342 15.3725 3.54181 15.538 3.74001 15.6401C5.03001 15.9101 7.74001 16.6401 7.86001 16.6401C8.65001 16.8101 9.86001 17.0101 10.45 17.1501C10.5375 17.1718 10.6299 17.159 10.7081 17.1143C10.7864 17.0696 10.8444 16.9965 10.87 16.9101C10.99 16.4401 10.54 16.4901 8.38001 15.9101C4.02001 14.7501 4.32001 14.8301 4.38001 14.5301C4.44001 14.2301 4.52001 13.5301 4.65001 12.7401C6.32001 3.00009 6.61001 4.07009 6.74001 3.56009C6.88001 3.63009 7.00001 3.56009 8.35001 3.90009C8.92001 4.03009 9.50001 4.21009 10.07 4.37009C13.48 5.26009 13.61 4.90009 15.2 5.31009C15.2699 5.32116 15.3415 5.30717 15.402 5.27059C15.4626 5.23401 15.5083 5.17719 15.5311 5.11017C15.5538 5.04316 15.5521 4.97026 15.5263 4.90437C15.5005 4.83848 15.4522 4.78383 15.39 4.75009C14.52 4.37009 13.04 4.05009 12.09 3.75009C10.4079 3.26361 8.67045 2.99475 6.92001 2.95009H6.85001C7.75001 0.500088 7.85001 0.950088 13.51 1.86009C15.72 2.49009 14.92 2.28009 17.05 2.79009C16.2 3.51009 15.67 5.56009 15.05 7.30009C14.5725 8.68233 14.2374 10.1097 14.05 11.5601C14.0349 11.6353 14.0492 11.7134 14.09 11.7784C14.1307 11.8434 14.1948 11.8903 14.269 11.9095C14.3433 11.9287 14.4221 11.9187 14.4892 11.8816C14.5564 11.8446 14.6067 11.7832 14.63 11.7101C14.9776 10.7023 15.2615 9.67356 15.48 8.63009C15.7273 7.71783 16.0244 6.81982 16.37 5.94009C16.6162 5.15707 16.9238 4.3947 17.29 3.66009C18.07 2.76009 20.04 3.43009 20.29 4.40009C20.3232 5.12038 20.2491 5.84161 20.07 6.54009C19.77 9.81009 18.97 10.6201 19.52 10.8001C19.5574 10.8126 19.597 10.8176 19.6363 10.8149C19.6757 10.8121 19.7141 10.8016 19.7494 10.7839C19.7847 10.7663 19.8162 10.7419 19.842 10.712C19.8679 10.6822 19.8876 10.6475 19.9 10.6101C20.6044 8.79068 21.1498 6.91366 21.53 5.00009C21.72 3.00009 19.45 1.87009 17.84 2.34009Z" fill="black"/>
<path fill-rule="evenodd" clip-rule="evenodd" d="M12.3696 8.16C11.5195 7.73736 10.6189 7.42484 9.68965 7.23C9.61965 7.21 7.47965 7 7.41965 7C7.3869 7.02117 7.35876 7.04874 7.33691 7.08104C7.31506 7.11334 7.29995 7.14971 7.29248 7.18799C7.28501 7.22627 7.28534 7.26566 7.29344 7.3038C7.30155 7.34195 7.31726 7.37807 7.33965 7.41C7.42344 7.53197 7.54187 7.62602 7.67965 7.68C8.26401 7.9178 8.86168 8.12148 9.46965 8.29C9.54965 8.29 12.1896 8.8 12.2696 8.8C12.6296 8.87 12.9996 8.48 12.3696 8.16Z" fill="black"/>
<path fill-rule="evenodd" clip-rule="evenodd" d="M11.8496 12.0001C10.7016 11.4741 9.49704 11.0815 8.25957 10.8301C7.86197 10.799 7.46202 10.8191 7.06957 10.8901C6.60957 10.9501 6.24957 10.8901 6.29957 11.2401C6.34957 11.5901 6.61957 11.5901 7.06957 11.6501C8.58686 12.0808 10.13 12.4148 11.6896 12.6501C11.7692 12.6552 11.8481 12.6322 11.9125 12.585C11.9769 12.5379 12.0226 12.4696 12.0417 12.3921C12.0607 12.3146 12.0519 12.2328 12.0168 12.1612C11.9817 12.0895 11.9225 12.0325 11.8496 12.0001Z" fill="black"/>
<path fill-rule="evenodd" clip-rule="evenodd" d="M22.6392 14.57C22.047 13.8715 21.2999 13.321 20.4573 12.9623C19.6147 12.6036 18.7001 12.4467 17.7861 12.504C16.8722 12.5613 15.9843 12.8312 15.1931 13.2924C14.402 13.7535 13.7295 14.393 13.2292 15.16C11.5592 17.62 12.4292 21.23 14.0792 22.29C14.1468 22.3299 14.2271 22.3427 14.3038 22.3257C14.3805 22.3087 14.4478 22.2632 14.4923 22.1984C14.5367 22.1337 14.5549 22.0544 14.5432 21.9768C14.5315 21.8991 14.4907 21.8288 14.4292 21.78C13.1092 20.86 12.5192 17.7 14.0092 15.72C14.441 15.1138 15.0042 14.613 15.6567 14.255C16.3092 13.897 17.0342 13.6911 17.7775 13.6526C18.5208 13.6141 19.2632 13.7441 19.9492 14.0329C20.6352 14.3216 21.2471 14.7616 21.7392 15.32C24.1792 18.21 22.7392 22.6 18.4292 23.11C17.6426 23.2194 16.8418 23.1615 16.0792 22.94C15.9903 22.9108 15.8935 22.9182 15.8101 22.9604C15.7266 23.0025 15.6633 23.0762 15.6342 23.165C15.605 23.2539 15.6123 23.3507 15.6545 23.4341C15.6967 23.5176 15.7703 23.5808 15.8592 23.61C16.713 23.8885 17.616 23.9839 18.5092 23.89C19.5784 23.867 20.619 23.5399 21.5091 22.9471C22.3993 22.3542 23.1021 21.52 23.5354 20.5422C23.9687 19.5644 24.1145 18.4834 23.9558 17.4258C23.7971 16.3681 23.3404 15.3776 22.6392 14.57Z" fill="black"/>
<path fill-rule="evenodd" clip-rule="evenodd" d="M16.7591 20.5902C17.9191 20.6602 19.2891 17.4302 19.7591 16.3902C19.9074 16.2259 20.0017 16.0199 20.0291 15.8002C20.0252 15.7245 19.9975 15.6519 19.95 15.5928C19.9024 15.5337 19.8374 15.4911 19.7643 15.4712C19.6911 15.4512 19.6135 15.4549 19.5425 15.4816C19.4715 15.5084 19.4108 15.5569 19.3691 15.6202C19.1291 15.9102 16.6191 19.5602 16.6791 19.6202C16.4791 19.6202 15.4591 18.4402 15.3191 18.3502C15.1791 18.2602 14.7191 18.5202 14.9491 18.8602C15.3891 19.4902 16.0791 20.5602 16.7591 20.5902Z" fill="black"/>
</g>
<defs>
<clipPath id="clip0_36_424">
<rect width="24" height="24" fill="white"/>
</clipPath>
</defs>
</svg>
