<svg width="24" height="24" viewBox="0 0 24 24" fill="none" xmlns="http://www.w3.org/2000/svg">
<g clip-path="url(#clip0_36_327)">
<path fill-rule="evenodd" clip-rule="evenodd" d="M22.5898 19.9001C22.1638 19.7057 21.6974 19.6165 21.2298 19.6401C20.8314 19.6751 20.4489 19.813 20.1198 20.0401C19.8563 20.2219 19.6205 20.4409 19.4198 20.6901L18.8198 20.2601C18.6666 20.1584 18.5062 20.0681 18.3398 19.9901C18.1198 19.8901 17.8898 19.8201 17.6698 19.7101C17.4498 19.6001 16.9598 19.4701 16.5998 19.3801H16.5198C16.6589 19.1242 16.725 18.8349 16.7109 18.5439C16.6967 18.2529 16.603 17.9714 16.4398 17.7301C16.7098 17.6501 16.9798 17.5701 17.2498 17.4601C17.5198 17.3501 17.6698 17.2801 17.8798 17.1801C18.0863 17.0788 18.2866 16.9652 18.4798 16.8401C18.8198 16.6301 19.1298 16.4001 19.4798 16.1801L19.6298 16.3001C19.7374 16.392 19.8589 16.4663 19.9898 16.5201C20.2658 16.6616 20.5697 16.7401 20.8798 16.7501C21.0429 16.7601 21.2066 16.7601 21.3698 16.7501C21.4466 16.7402 21.517 16.7018 21.5669 16.6426C21.6169 16.5834 21.6429 16.5076 21.6398 16.4301C21.6372 16.392 21.6272 16.3548 21.6102 16.3206C21.5932 16.2863 21.5697 16.2558 21.5409 16.2307C21.5121 16.2056 21.4786 16.1865 21.4423 16.1744C21.4061 16.1622 21.3679 16.1574 21.3298 16.1601C21.1999 16.17 21.0696 16.17 20.9398 16.1601C20.8218 16.1454 20.7069 16.1116 20.5998 16.0601L20.1298 15.7501C20.0835 15.7018 20.0432 15.6481 20.0098 15.5901C20.0098 15.5901 20.0098 15.5901 20.0098 15.5101L19.9498 15.4401C19.9222 15.3475 19.9133 15.2502 19.9236 15.1541C19.9339 15.058 19.9632 14.9648 20.0098 14.8801C20.1514 14.6247 20.3541 14.4082 20.5998 14.2501C20.8131 14.0769 21.0683 13.963 21.3398 13.9201C21.6328 13.9101 21.925 13.9576 22.1998 14.0601C22.446 14.1409 22.6599 14.2987 22.8098 14.5101C22.899 14.6596 22.9519 14.8281 22.9641 15.0018C22.9762 15.1755 22.9473 15.3496 22.8798 15.5101C22.8139 15.6917 22.7033 15.8538 22.5582 15.9814C22.4131 16.109 22.2383 16.198 22.0498 16.2401C22.0066 16.245 21.9649 16.2585 21.9272 16.28C21.8895 16.3015 21.8565 16.3304 21.8303 16.365C21.8041 16.3996 21.7853 16.4392 21.7748 16.4813C21.7644 16.5235 21.7627 16.5673 21.7698 16.6101C21.7822 16.6968 21.8276 16.7754 21.8966 16.8294C21.9655 16.8834 22.0526 16.9087 22.1398 16.9001C22.4485 16.8642 22.7441 16.7546 23.0017 16.5806C23.2592 16.4066 23.4712 16.1732 23.6198 15.9001C23.7819 15.6108 23.8696 15.2856 23.8748 14.9539C23.8801 14.6222 23.8027 14.2945 23.6498 14.0001C23.4223 13.5546 23.0478 13.2013 22.5898 13.0001C22.1647 12.8036 21.6969 12.7176 21.2298 12.7501C20.8303 12.7804 20.4467 12.9187 20.1198 13.1501C19.6422 13.4591 19.2692 13.9053 19.0498 14.4301C18.9254 14.7794 18.9254 15.1609 19.0498 15.5101L18.0498 15.8901L17.4198 16.1601C17.2098 16.2601 17.0098 16.3701 16.8098 16.4901C16.6098 16.6101 16.1998 16.9001 15.9098 17.1101C15.5572 16.8559 15.1604 16.6694 14.7398 16.5601C14.1372 16.4125 13.5048 16.4438 12.9198 16.6501C12.6173 16.7603 12.3449 16.9398 12.1243 17.1742C11.9038 17.4087 11.7413 17.6915 11.6498 18.0001C11.5732 18.3101 11.5752 18.6344 11.6555 18.9434C11.7358 19.2525 11.8919 19.5366 12.1098 19.7701C12.4732 20.1649 12.936 20.455 13.4498 20.6101C13.8508 20.7244 14.2726 20.746 14.6831 20.6732C15.0937 20.6004 15.4824 20.4352 15.8198 20.1901C15.9036 20.1247 15.9807 20.051 16.0498 19.9701L16.1298 20.0201C16.3898 20.1701 16.6098 20.3501 16.8598 20.5101L17.2098 20.7101C17.3798 20.7701 17.5398 20.8501 17.7198 20.9101C17.8998 20.9701 18.1798 21.0101 18.3998 21.0901L19.0398 21.3201C18.9027 21.6438 18.8837 22.0054 18.986 22.3417C19.0884 22.678 19.3056 22.9677 19.5998 23.1601C19.7098 23.2486 19.8308 23.3225 19.9598 23.3801C20.083 23.4355 20.21 23.4823 20.3398 23.5201C20.5058 23.5694 20.6769 23.5996 20.8498 23.6101C21.0127 23.625 21.1768 23.625 21.3398 23.6101C21.3779 23.6076 21.4151 23.5975 21.4493 23.5806C21.4836 23.5636 21.5141 23.54 21.5392 23.5112C21.5643 23.4824 21.5834 23.449 21.5955 23.4127C21.6076 23.3765 21.6125 23.3382 21.6098 23.3001C21.6129 23.259 21.607 23.2178 21.5924 23.1792C21.5778 23.1407 21.5549 23.1059 21.5253 23.0772C21.4957 23.0486 21.4601 23.0268 21.4211 23.0135C21.3822 23.0001 21.3407 22.9956 21.2998 23.0001C21.1699 23.01 21.0396 23.01 20.9098 23.0001C20.7939 22.976 20.6802 22.9426 20.5698 22.9001L20.0998 22.5901C19.9802 22.4829 19.9019 22.3373 19.8781 22.1785C19.8544 22.0197 19.8868 21.8576 19.9698 21.7201C20.1083 21.4597 20.3115 21.2393 20.5598 21.0801C20.776 20.9135 21.0303 20.8036 21.2998 20.7601C21.5934 20.7403 21.8876 20.7882 22.1598 20.9001C22.3101 20.9419 22.4495 21.0161 22.5682 21.1174C22.6868 21.2188 22.7819 21.3448 22.8467 21.4868C22.9114 21.6288 22.9444 21.7832 22.9432 21.9392C22.942 22.0953 22.9067 22.2492 22.8398 22.3901C22.7733 22.5703 22.6623 22.7309 22.5172 22.8567C22.3721 22.9826 22.1976 23.0698 22.0098 23.1101C21.9284 23.1302 21.8573 23.1796 21.8101 23.2489C21.763 23.3182 21.743 23.4024 21.7542 23.4855C21.7654 23.5686 21.8068 23.6446 21.8706 23.699C21.9344 23.7533 22.016 23.7822 22.0998 23.7801C22.4071 23.7395 22.7007 23.6281 22.9576 23.4545C23.2144 23.281 23.4274 23.0501 23.5798 22.7801C23.7413 22.499 23.8321 22.1828 23.8443 21.8588C23.8565 21.5347 23.7897 21.2126 23.6498 20.9201C23.4288 20.465 23.053 20.1035 22.5898 19.9001ZM13.6898 19.9001C13.3383 19.7459 13.037 19.4965 12.8198 19.1801C12.7305 19.0541 12.6716 18.9092 12.6477 18.7567C12.6239 18.6041 12.6356 18.4481 12.6821 18.3009C12.7286 18.1536 12.8086 18.0192 12.9157 17.908C13.0229 17.7968 13.1543 17.712 13.2998 17.6601C13.6751 17.5257 14.0811 17.5014 14.4698 17.5901C14.8715 17.6493 15.2489 17.8189 15.5598 18.0801C16.2498 18.7901 15.4198 20.6401 13.6898 19.9301V19.9001Z" fill="black"/>
<path fill-rule="evenodd" clip-rule="evenodd" d="M4.85998 1.52998C4.76097 1.51005 4.65898 1.51005 4.55998 1.52998C4.35663 1.49014 4.14665 1.50027 3.94808 1.5595C3.74951 1.61872 3.56829 1.72526 3.41998 1.86998C2.99998 2.50998 2.99998 2.99998 2.32998 7.31998C2.12998 8.66998 1.77998 9.90998 1.53998 11.1C1.27998 12.44 1.04998 13.69 0.779978 14.87C0.528228 15.7422 0.32129 16.6266 0.159978 17.52C0.134566 17.6655 0.147996 17.8152 0.198913 17.9539C0.249829 18.0926 0.33643 18.2154 0.449978 18.31C1.36547 18.6644 2.31326 18.929 3.27998 19.1C5.77998 19.65 9.11998 20.23 9.68998 20.33C9.73136 20.3387 9.77407 20.3392 9.81563 20.3314C9.8572 20.3235 9.89679 20.3075 9.93213 20.2843C9.96747 20.261 9.99785 20.231 10.0215 20.1959C10.0452 20.1609 10.0616 20.1214 10.07 20.08C10.0787 20.0386 10.0792 19.9959 10.0714 19.9543C10.0635 19.9128 10.0475 19.8732 10.0243 19.8378C10.001 19.8025 9.97098 19.7721 9.93592 19.7485C9.90085 19.7248 9.86145 19.7083 9.81998 19.7C9.24998 19.58 5.94998 18.85 3.48998 18.2C2.7246 18.0195 1.97006 17.7958 1.22998 17.53C1.33998 16.79 1.81998 15.22 1.83998 15.11C2.01998 14.29 2.19998 13.45 2.34998 12.56C2.84998 9.66998 3.13998 7.01998 3.92998 3.06998C3.92998 3.06998 4.00998 2.56998 4.01998 2.55998C4.12816 2.48108 4.25032 2.4234 4.37998 2.38998C4.60998 2.32998 4.78998 2.38998 4.86998 2.31998C5.10998 2.13998 5.11998 1.59998 4.85998 1.52998Z" fill="black"/>
<path fill-rule="evenodd" clip-rule="evenodd" d="M18.0001 9.28017C18.0801 8.94017 18.1401 8.61017 18.1901 8.28017C18.2401 7.95017 18.2901 7.62017 18.3301 7.28017C18.4101 6.56017 18.4501 5.81017 18.5301 4.90017C18.5449 4.84447 18.5449 4.78586 18.5301 4.73017C18.5301 4.73017 18.6101 4.66017 18.6201 4.60017C18.638 4.51535 18.6218 4.4269 18.575 4.35393C18.5282 4.28095 18.4546 4.22931 18.3701 4.21017C18.0932 4.05274 17.7868 3.95402 17.4701 3.92017C17.1801 3.92017 16.8401 4.42017 17.0601 4.66017C17.1513 4.77748 17.2834 4.85605 17.4301 4.88017H17.9101C17.7101 5.73017 17.5201 6.45017 17.3601 7.13017C17.2901 7.47017 17.2201 7.80017 17.1601 8.13017C17.1001 8.46017 17.0501 8.79017 17.0101 9.13017C16.9401 9.84017 16.3401 12.4702 16.2801 13.3802C16.2729 13.417 16.2732 13.4549 16.2809 13.4916C16.2887 13.5283 16.3037 13.5631 16.3252 13.5939C16.3466 13.6247 16.3741 13.6508 16.4058 13.6708C16.4376 13.6908 16.473 13.7042 16.5101 13.7102C16.5469 13.7174 16.5848 13.7171 16.6215 13.7093C16.6582 13.7016 16.693 13.6865 16.7238 13.6651C16.7546 13.6436 16.7807 13.6162 16.8007 13.5844C16.8207 13.5527 16.8341 13.5172 16.8401 13.4802C16.8801 13.2102 17.9301 9.60017 18.0001 9.28017Z" fill="black"/>
<path fill-rule="evenodd" clip-rule="evenodd" d="M20.78 3.93005C20.6941 3.56597 20.5304 3.22481 20.3 2.93005C20.0608 2.5858 19.7294 2.31596 19.3438 2.15146C18.9582 1.98697 18.5341 1.93449 18.12 2.00005H17.75C16.62 1.77005 15.8 1.51005 14.68 1.27005C14.28 1.17005 13.84 1.10005 13.33 1.01005C12.82 0.920053 12.12 0.780053 11.53 0.720053C7.26002 0.260053 7.11002 -0.169947 6.00002 0.830053C5.86825 0.946546 5.75376 1.08124 5.66002 1.23005C4.92002 2.42005 4.77002 4.48005 3.30002 12.2301C3.18002 12.8301 2.81002 13.7801 2.69002 14.6201C2.61357 15.0353 2.63065 15.4623 2.74002 15.8701C2.81986 16.0439 2.94077 16.1957 3.09233 16.3124C3.24389 16.4291 3.42156 16.5073 3.61002 16.5401C4.74002 16.8601 7.37002 16.9701 9.46002 17.3801C9.5014 17.3904 9.54445 17.3924 9.58662 17.3859C9.62879 17.3794 9.66923 17.3646 9.70557 17.3422C9.7419 17.3198 9.7734 17.2904 9.79821 17.2557C9.82302 17.221 9.84063 17.1817 9.85002 17.1401C9.86825 17.0566 9.85343 16.9694 9.80867 16.8967C9.76392 16.8239 9.69271 16.7714 9.61002 16.7501C8.14002 16.3801 6.39002 16.1401 5.11002 15.8901C4.41002 15.7601 3.48002 15.6901 3.65002 15.4801C3.65002 15.4801 3.71002 15.5501 3.72002 15.5901C3.66035 15.2155 3.68772 14.8323 3.80002 14.4701C3.96002 13.7501 4.23002 12.9801 4.35002 12.4701C4.54002 11.6201 4.77002 10.7701 4.90002 9.91005C5.90002 3.16005 5.44002 3.91005 6.29002 2.23005C6.42288 1.96992 6.58384 1.72513 6.77002 1.50005C7.0252 1.17563 7.3745 0.9381 7.77002 0.820053C8.64002 1.07005 9.50002 1.29005 10.38 1.46005C11.26 1.63005 12.2 1.79005 13.16 1.97005C14.57 2.15005 15.48 2.34005 16.5 2.49005L16.92 2.55005C15.7 3.55005 15.73 4.10005 14.79 7.55005C14.7 7.86005 14.63 8.16005 14.57 8.47005C14.51 8.78005 14.47 9.08005 14.43 9.39005C14.33 10.1201 13.64 13.6601 13.58 14.3901C13.5729 14.4321 13.5743 14.4752 13.5841 14.5168C13.5939 14.5583 13.6119 14.5975 13.6371 14.6319C13.6622 14.6664 13.694 14.6955 13.7306 14.7175C13.7672 14.7395 13.8078 14.754 13.85 14.7601C13.9336 14.7746 14.0194 14.7554 14.0888 14.7066C14.1582 14.6579 14.2054 14.5836 14.22 14.5001C14.4 13.7901 15.22 10.2901 15.43 9.59005C15.51 9.29005 15.58 8.98005 15.64 8.68005C15.7087 8.37626 15.7621 8.06921 15.8 7.76005C16.07 5.26005 16.86 3.61005 17.41 3.20005C17.5573 3.06837 17.7318 2.97064 17.921 2.91375C18.1102 2.85687 18.3096 2.84221 18.5051 2.87082C18.7007 2.89943 18.8875 2.97061 19.0525 3.07934C19.2175 3.18806 19.3566 3.33168 19.46 3.50005C19.6246 3.72947 19.7248 3.99881 19.75 4.28005C19.7841 4.61251 19.7841 4.94759 19.75 5.28005C19.75 5.88005 19.66 6.51005 19.58 7.12005C19.5134 7.7516 19.4133 8.37915 19.28 9.00005L19 10.2601C18.9702 10.338 18.9468 10.4183 18.93 10.5001H18.68C18.5428 10.4914 18.4078 10.461 18.28 10.4101C17.98 10.4101 17.76 10.8601 18.28 11.0701C18.4612 11.1681 18.664 11.2194 18.87 11.2194C19.076 11.2194 19.2788 11.1681 19.46 11.0701C19.5525 11.0251 19.6241 10.9464 19.66 10.8501C19.7082 10.7133 19.7449 10.5728 19.77 10.4301L20.16 9.23005C20.3542 8.60659 20.5111 7.97214 20.63 7.33005C20.7471 6.69154 20.8305 6.04732 20.88 5.40005C20.9138 4.90779 20.8801 4.41322 20.78 3.93005Z" fill="black"/>
<path fill-rule="evenodd" clip-rule="evenodd" d="M14.8001 5.32013C14.8123 5.27942 14.8163 5.23669 14.8118 5.19443C14.8073 5.15217 14.7944 5.11123 14.774 5.074C14.7535 5.03676 14.7258 5.00398 14.6925 4.97756C14.6592 4.95114 14.621 4.93162 14.5801 4.92013C13.6701 4.61013 12.7501 4.31013 11.8101 4.08013C11.4101 3.98013 11.0001 3.90013 10.5901 3.83013C10.1801 3.76013 9.77008 3.71013 9.36008 3.68013C8.39826 3.61357 7.43363 3.59688 6.47008 3.63013C6.42819 3.62225 6.38508 3.6237 6.34381 3.63437C6.30254 3.64505 6.26414 3.6647 6.23133 3.69191C6.19852 3.71912 6.17211 3.75324 6.15399 3.79182C6.13586 3.8304 6.12646 3.8725 6.12646 3.91513C6.12646 3.95775 6.13586 3.99986 6.15399 4.03844C6.17211 4.07702 6.19852 4.11113 6.23133 4.13834C6.26414 4.16555 6.30254 4.1852 6.34381 4.19588C6.38508 4.20656 6.42819 4.20801 6.47008 4.20013C7.54008 4.35013 8.59008 4.59013 9.66008 4.78013C10.3001 4.89013 10.9401 4.98013 11.5701 5.07013C12.5701 5.22013 13.5001 5.35013 14.4501 5.55013C14.5263 5.56025 14.6037 5.54257 14.6679 5.50034C14.7322 5.4581 14.7791 5.39413 14.8001 5.32013Z" fill="black"/>
<path fill-rule="evenodd" clip-rule="evenodd" d="M12.86 8.56017C12.8943 8.48174 12.8968 8.39304 12.867 8.31281C12.8371 8.23258 12.7773 8.16709 12.7 8.13016C12.4769 8.01562 12.2423 7.92511 12 7.86016C11.67 7.75016 11.32 7.68016 11 7.60016C10.68 7.52016 10.49 7.49016 10.23 7.45016C9.84214 7.40029 9.45099 7.38023 9.06003 7.39016C8.39927 7.42946 7.7451 7.54352 7.11003 7.73016C7.07326 7.73542 7.03788 7.74786 7.00592 7.76679C6.97396 7.78571 6.94604 7.81074 6.92376 7.84046C6.90147 7.87017 6.88526 7.90399 6.87604 7.93997C6.86682 7.97595 6.86478 8.01339 6.87003 8.05016C6.87528 8.08694 6.88773 8.12231 6.90665 8.15427C6.92558 8.18623 6.95061 8.21415 6.98032 8.23644C7.01004 8.25872 7.04385 8.27494 7.07983 8.28416C7.11582 8.29338 7.15326 8.29542 7.19003 8.29016H7.93003C8.43003 8.29016 8.93003 8.41016 9.39003 8.46016C9.85003 8.51016 10.39 8.46017 10.86 8.56017H11.86C12.0535 8.5756 12.2447 8.6125 12.43 8.67016C12.5026 8.70858 12.5868 8.71859 12.6663 8.69826C12.7458 8.67792 12.8149 8.62868 12.86 8.56017Z" fill="black"/>
<path fill-rule="evenodd" clip-rule="evenodd" d="M10.2299 11.0001C9.96156 10.9168 9.68749 10.8533 9.40988 10.8101C9.13258 10.7571 8.85188 10.7236 8.56988 10.7101C7.90164 10.6925 7.23303 10.726 6.56988 10.8101C6.50343 10.8226 6.44344 10.8579 6.40028 10.91C6.35712 10.962 6.3335 11.0275 6.3335 11.0951C6.3335 11.1627 6.35712 11.2282 6.40028 11.2803C6.44344 11.3323 6.50343 11.3676 6.56988 11.3801C7.30988 11.4801 7.97988 11.6601 8.67988 11.7901C9.10988 11.8701 9.51988 11.9301 9.94988 11.9901C10.5799 12.0901 11.2199 12.1601 11.8499 12.3001C11.9321 12.3255 12.021 12.3177 12.0976 12.2785C12.1742 12.2393 12.2324 12.1717 12.2599 12.0901C12.2852 12.0079 12.2775 11.919 12.2383 11.8424C12.199 11.7658 12.1314 11.7076 12.0499 11.6801C11.4579 11.416 10.85 11.1889 10.2299 11.0001Z" fill="black"/>
</g>
<defs>
<clipPath id="clip0_36_327">
<rect width="24" height="24" fill="white"/>
</clipPath>
</defs>
</svg>
