<svg width="24" height="24" viewBox="0 0 24 24" fill="none" xmlns="http://www.w3.org/2000/svg">
<g clip-path="url(#clip0_36_482)">
<path fill-rule="evenodd" clip-rule="evenodd" d="M0.635538 6.03405C1.03921 5.39957 1.66735 4.94069 2.39454 4.74905C2.49598 4.72823 2.60154 4.74857 2.688 4.80558C2.77445 4.86259 2.83472 4.95161 2.85554 5.05305C2.87636 5.1545 2.85603 5.26006 2.79901 5.34651C2.742 5.43297 2.65298 5.49323 2.55154 5.51405C2.07873 5.68304 1.68829 6.02618 1.45998 6.47337C1.23168 6.92056 1.18274 7.43805 1.32317 7.92011C1.4636 8.40218 1.7828 8.81242 2.21555 9.06704C2.64831 9.32166 3.16195 9.40143 3.65154 9.29005C4.10048 9.17836 4.49461 8.90968 4.76265 8.53262C5.03068 8.15555 5.15491 7.69501 5.11287 7.2343C5.07082 6.77359 4.86527 6.34315 4.53341 6.02084C4.20154 5.69852 3.76528 5.50563 3.30354 5.47705C3.19772 5.4702 3.09862 5.4228 3.02686 5.34473C2.9551 5.26666 2.9162 5.16393 2.91826 5.05791C2.92032 4.95189 2.96318 4.85074 3.03792 4.77552C3.11267 4.7003 3.21353 4.65679 3.31954 4.65405C3.82451 4.6815 4.31424 4.8367 4.74284 5.10512C5.17144 5.37353 5.52487 5.74637 5.77002 6.18869C6.01516 6.63101 6.14399 7.12834 6.14443 7.63405C6.14488 8.13976 6.01691 8.6373 5.77254 9.08005C6.56215 9.03174 7.34797 9.22286 8.0272 9.6284C8.70644 10.0339 9.24747 10.635 9.57954 11.3531C11.2545 14.1491 12.1505 16.2621 10.8395 19.2631C13.7625 22.3441 11.5055 24.7501 9.51154 23.7851C8.41796 23.0085 7.53477 21.972 6.94154 20.7691C6.82354 20.3681 6.85654 20.2431 6.82654 20.2261C6.81054 20.2161 6.77354 20.2421 6.67854 20.2711C6.29554 20.3841 6.13254 20.4071 6.03154 20.4981C5.90454 20.6111 5.87354 20.8301 5.63054 21.4631C5.59554 21.5571 5.56154 21.6531 5.52754 21.7511C5.26454 22.4911 4.97154 23.3201 4.22554 23.7041C3.94996 23.8378 3.64559 23.9012 3.33953 23.8888C3.03348 23.8764 2.73526 23.7884 2.47144 23.6328C2.20761 23.4772 1.98638 23.2587 1.82745 22.9969C1.66852 22.735 1.57682 22.4379 1.56054 22.1321C1.57903 20.8855 1.95871 19.6711 2.65354 18.6361C3.09238 18.148 3.59805 17.7245 4.15554 17.3781C3.57028 16.5488 3.27629 15.5491 3.31954 14.5351C3.30798 14.3293 3.29531 14.1236 3.28154 13.9181C3.20454 12.7331 3.12654 11.5261 3.48154 10.6081L3.45954 10.6101C2.90121 10.6673 2.33805 10.566 1.83461 10.318C1.33117 10.0699 0.907808 9.68495 0.613051 9.20732C0.318294 8.7297 0.164067 8.17869 0.168044 7.61745C0.172021 7.05622 0.334042 6.50745 0.635538 6.03405ZM3.32954 19.1721C3.75583 18.6752 4.25601 18.2468 4.81254 17.9021V17.9091C5.02453 18.0221 5.25745 18.0905 5.4969 18.1099C5.73636 18.1294 5.97726 18.0995 6.20473 18.0222C6.43219 17.9449 6.64138 17.8218 6.81937 17.6604C6.99735 17.499 7.14036 17.3029 7.23954 17.0841C7.55454 16.4911 7.53354 15.8661 7.49754 14.8161C7.47954 14.2771 7.45754 13.6261 7.47554 12.8091C7.47937 12.754 7.47209 12.6987 7.45414 12.6465C7.43619 12.5943 7.40793 12.5462 7.37103 12.5051C7.33414 12.4641 7.28937 12.4308 7.23938 12.4074C7.18939 12.384 7.13521 12.3708 7.08004 12.3688C7.02487 12.3667 6.96985 12.3757 6.91824 12.3953C6.86663 12.4149 6.81949 12.4447 6.77961 12.4829C6.73973 12.521 6.70793 12.5669 6.68611 12.6176C6.66428 12.6683 6.65286 12.7228 6.65254 12.7781C6.62254 14.2511 6.62254 14.8901 6.62254 15.2331C6.62254 15.5761 6.62254 15.6231 6.59254 15.9101C6.42454 17.5581 5.01754 17.4141 4.59054 15.9861C4.32717 14.4565 4.28206 12.8973 4.45654 11.3551C4.55019 11.0959 4.70338 10.8624 4.90378 10.6732C5.10418 10.4841 5.34619 10.3447 5.61032 10.2662C5.87445 10.1877 6.15332 10.1723 6.42449 10.2212C6.69566 10.2702 6.95154 10.3821 7.17154 10.5481C8.16343 11.3333 8.91523 12.381 9.34154 13.5721C10.0516 14.6159 10.3225 15.8972 10.0955 17.1391C10.0088 17.7998 9.80856 18.4406 9.50354 19.0331C9.41937 19.1801 9.39673 19.3544 9.44054 19.5181C9.45754 19.5781 9.58754 19.7271 9.76554 19.9311C10.3695 20.6251 11.5295 21.9551 10.7195 22.6051C9.93054 23.2311 8.00954 20.6401 8.00954 19.8691C8.00754 19.6941 8.01954 19.5191 8.04654 19.3451C8.02255 19.1906 7.93894 19.0517 7.81366 18.9582C7.68839 18.8647 7.53144 18.8241 7.37654 18.8451C5.15054 19.1671 4.94854 19.8181 4.66254 20.7351C4.63054 20.8391 4.59654 20.9481 4.55854 21.0591C4.53154 21.1401 4.50354 21.2311 4.47354 21.3291C4.31554 21.8401 4.10754 22.5161 3.72054 22.7361C3.59949 22.7916 3.46687 22.8173 3.33383 22.8111C3.20078 22.8048 3.07118 22.7667 2.95589 22.7C2.8406 22.6333 2.74299 22.5399 2.67124 22.4277C2.59949 22.3155 2.5557 22.1877 2.54354 22.0551C2.53932 21.0406 2.81101 20.044 3.32954 19.1721Z" fill="black"/>
<path fill-rule="evenodd" clip-rule="evenodd" d="M17.1587 3.174C13.4897 3.174 9.22366 2.285 9.18866 4.914C9.17066 6.329 10.4577 6.905 11.8677 7.089C15.4397 7.555 14.5827 6.457 15.0117 8.33899C15.8427 11.953 17.4337 14.036 22.9077 12.167C22.9594 12.1499 23.0072 12.1228 23.0484 12.0872C23.0896 12.0516 23.1233 12.0082 23.1477 11.9595C23.172 11.9108 23.1865 11.8578 23.1903 11.8034C23.194 11.7491 23.187 11.6946 23.1697 11.643C22.9867 11.067 22.4627 11.541 21.0057 11.772C14.5717 12.794 17.0197 5.894 15.3027 5.946C9.71066 6.101 10.1037 4.75399 10.8797 4.468C11.5927 4.206 16.4457 4.534 18.7417 4.371C18.8353 4.37672 18.929 4.3601 19.015 4.32249C19.101 4.28489 19.1768 4.22738 19.2362 4.15471C19.2956 4.08204 19.3369 3.99629 19.3566 3.90453C19.3763 3.81278 19.3739 3.71765 19.3497 3.627C19.2527 3.177 18.7357 3.127 18.0127 2.372C17.1527 1.465 17.6377 0.963995 18.3827 1.101C21.4277 1.68 23.0527 4.932 23.7047 4.337C23.7806 4.26714 23.8258 4.17004 23.8303 4.06695C23.8348 3.96387 23.7982 3.8632 23.7287 3.787C17.9477 -2.896 15.0407 0.825995 17.1587 3.174Z" fill="black"/>
</g>
<defs>
<clipPath id="clip0_36_482">
<rect width="24" height="24" fill="white"/>
</clipPath>
</defs>
</svg>
