<svg width="24" height="24" viewBox="0 0 24 24" fill="none" xmlns="http://www.w3.org/2000/svg">
<g clip-path="url(#clip0_36_742)">
<path fill-rule="evenodd" clip-rule="evenodd" d="M10.2901 14.6C11.2504 14.574 12.2103 14.6613 13.1501 14.86C13.1501 15.06 13.1501 15.28 13.1001 15.47C13.0903 15.5166 13.0897 15.5647 13.0985 15.6115C13.1072 15.6584 13.1251 15.703 13.1511 15.743C13.1771 15.7829 13.2107 15.8173 13.25 15.8443C13.2893 15.8712 13.3335 15.8901 13.3801 15.9C13.4268 15.9098 13.4749 15.9104 13.5217 15.9017C13.5685 15.8929 13.6132 15.875 13.6531 15.849C13.6931 15.823 13.7275 15.7894 13.7544 15.7501C13.7814 15.7108 13.8003 15.6666 13.8101 15.62C13.8101 15.44 13.8101 15.23 13.9001 15.05C14.0901 15.0825 14.2773 15.1293 14.4601 15.19C14.5479 15.2278 14.6469 15.2301 14.7364 15.1966C14.8258 15.163 14.8989 15.0962 14.9401 15.01C14.9605 14.9673 14.9723 14.921 14.9747 14.8738C14.9772 14.8266 14.9704 14.7793 14.9546 14.7348C14.9388 14.6902 14.9144 14.6492 14.8827 14.614C14.8511 14.5789 14.8128 14.5503 14.7701 14.53C14.5401 14.41 14.2801 14.34 14.0401 14.24C14.2145 13.1691 14.2948 12.0849 14.2801 11C14.4801 11 14.6801 11 14.8701 10.94C15.6864 10.8364 16.4903 10.6522 17.2701 10.39C17.3155 10.3763 17.3577 10.3537 17.3943 10.3237C17.4309 10.2936 17.4613 10.2566 17.4836 10.2148C17.5059 10.173 17.5197 10.1272 17.5243 10.0801C17.5288 10.0329 17.524 9.98529 17.5101 9.93999C17.4803 9.84765 17.4153 9.77074 17.3293 9.72585C17.2432 9.68095 17.143 9.67167 17.0501 9.69999C16.307 9.89185 15.5466 10.0091 14.7801 10.05H14.2601C14.209 9.36261 14.1222 8.67836 14.0001 7.99999C13.8819 7.32399 13.7216 6.65603 13.5201 5.99999C14.6657 5.70822 15.7782 5.2994 16.8401 4.77999C17.5508 5.6275 18.0663 6.62098 18.3501 7.68999C18.4539 8.14461 18.5274 8.60563 18.5701 9.06999C18.6368 9.53032 18.6702 9.99485 18.6701 10.46C18.6674 10.5565 18.7025 10.6502 18.7678 10.7212C18.8332 10.7922 18.9238 10.8348 19.0201 10.84C19.0674 10.8413 19.1145 10.8333 19.1587 10.8164C19.2029 10.7996 19.2433 10.7742 19.2777 10.7417C19.312 10.7092 19.3397 10.6702 19.359 10.627C19.3783 10.5838 19.3889 10.5373 19.3901 10.49C19.4 9.99279 19.3833 9.49541 19.3401 8.99999C19.3007 8.4995 19.2305 8.00189 19.1301 7.50999C18.6832 5.47818 17.4825 3.69142 15.7701 2.50999C14.0444 1.35784 12.0045 0.767542 9.93015 0.819987C7.3834 0.80938 4.91993 1.72652 3.00015 3.39999C2.07978 4.26124 1.34041 5.29739 0.825298 6.44782C0.310181 7.59824 0.0296602 8.83985 0.000146404 10.1C-0.045477 11.0274 0.0592083 11.956 0.310146 12.85C0.566305 13.7401 0.968436 14.5815 1.50015 15.34C2.15486 16.2859 3.00802 17.0777 4.00015 17.66C4.97597 18.2507 6.08137 18.594 7.22015 18.66C7.3061 18.6655 7.39082 18.6373 7.45621 18.5812C7.52161 18.5252 7.5625 18.4458 7.57015 18.36C7.57285 18.3171 7.5669 18.2742 7.55266 18.2337C7.53842 18.1932 7.51617 18.156 7.48725 18.1242C7.45832 18.0925 7.42331 18.0669 7.38429 18.049C7.34528 18.0311 7.30306 18.0212 7.26015 18.02C7.10015 18 7.00015 18 6.79015 18V17.92C6.45342 17.0346 6.24791 16.1048 6.18015 15.16C6.70015 15.05 7.18015 14.96 7.76015 14.88C8.59793 14.742 9.44245 14.6485 10.2901 14.6ZM9.88015 1.99999H10.0001H10.5801C11.2756 2.96903 11.7967 4.05191 12.1201 5.19999C11.2866 5.29204 10.4487 5.33878 9.61015 5.33999C9.01015 5.33999 8.40015 5.33999 7.78015 5.27999C7.95374 4.69845 8.18488 4.13566 8.47015 3.59999C8.85567 2.99777 9.33119 2.45817 9.88015 1.99999ZM7.09015 7.33999C7.18015 6.97999 7.29015 6.63999 7.39015 6.33999H7.60015C8.26138 6.45287 8.92966 6.5197 9.60015 6.53999C10.5515 6.56615 11.503 6.49579 12.4401 6.32999C12.6001 6.92999 12.7401 7.54999 12.8601 8.18999C12.9801 8.78999 13.0701 9.40999 13.1401 10.03L11.2601 9.99999C10.0001 9.99999 8.73015 9.90999 7.49015 9.81999L6.49015 9.73999C6.64546 8.92947 6.84577 8.12824 7.09015 7.33999ZM16.3001 4.20999C15.2832 4.5686 14.2355 4.83304 13.1701 4.99999C12.7741 3.92472 12.2215 2.91381 11.5301 1.99999C12.8431 2.13998 14.1059 2.58147 15.2201 3.28999C15.6104 3.55929 15.9722 3.86754 16.3001 4.20999ZM3.85015 4.30999C5.19401 3.13444 6.85182 2.37678 8.62015 2.12999C8.30556 2.4411 8.01474 2.77538 7.75015 3.12999C7.30779 3.7645 6.93562 4.44516 6.64015 5.15999C5.77015 4.99999 4.92015 4.79999 4.06015 4.65999C4.01705 4.64428 3.97108 4.63802 3.92535 4.64163C3.87962 4.64525 3.8352 4.65865 3.7951 4.68094C3.75501 4.70323 3.72017 4.73387 3.69296 4.7708C3.66574 4.80773 3.64679 4.85007 3.63737 4.89497C3.62796 4.93987 3.62831 4.98626 3.6384 5.03101C3.64849 5.07576 3.66808 5.11782 3.69584 5.15433C3.72361 5.19085 3.7589 5.22097 3.79933 5.24265C3.83975 5.26433 3.88437 5.27706 3.93015 5.27999C4.73015 5.50999 5.51015 5.78999 6.31015 6.02999C6.19015 6.34999 6.06015 6.65999 5.95015 7.02999C5.68189 7.89576 5.46814 8.77749 5.31015 9.66999L5.00015 9.59999C3.75078 9.44194 2.5166 9.18105 1.31015 8.81999C1.64494 7.08084 2.53648 5.49784 3.85015 4.30999ZM6.00015 17.76C5.43072 17.5748 4.88654 17.3195 4.38015 17C3.52009 16.4302 2.78792 15.6879 2.23015 14.82C1.3424 13.4293 0.941435 11.7832 1.09015 10.14C1.09015 9.89999 1.17015 9.68999 1.20015 9.46999C2.49501 9.97873 3.834 10.367 5.20015 10.63C5.13015 11.26 5.07015 11.91 5.06015 12.55C5.0533 13.1781 5.0867 13.8061 5.16015 14.43C4.67015 14.63 4.16015 14.84 3.74015 15.07C3.70137 15.0864 3.66621 15.1102 3.63667 15.1402C3.60714 15.1702 3.5838 15.2057 3.56801 15.2447C3.55222 15.2837 3.54428 15.3255 3.54465 15.3676C3.54501 15.4097 3.55368 15.4513 3.57015 15.49C3.60523 15.5666 3.66827 15.6269 3.74636 15.6585C3.82445 15.6901 3.91167 15.6906 3.99015 15.66C4.40983 15.5164 4.83715 15.3962 5.27015 15.3C5.41522 16.146 5.66027 16.9718 6.00015 17.76ZM6.15015 14.11V13.7C6.16138 12.7512 6.24832 11.8049 6.41015 10.87C7.15015 10.98 7.90015 11.07 8.65015 11.11C9.40015 11.15 10.4301 11.11 11.3401 11.11L13.2601 11.02C13.3463 11.9742 13.363 12.9334 13.3101 13.89C12.545 13.6383 11.7529 13.4772 10.9501 13.41C10.3708 13.37 9.78946 13.37 9.21015 13.41C8.63799 13.4559 8.06987 13.5428 7.51015 13.67C7.03156 13.7876 6.56067 13.9345 6.10015 14.11H6.15015Z" fill="black"/>
<path fill-rule="evenodd" clip-rule="evenodd" d="M23.9999 16.56C23.982 16.3214 23.9486 16.0842 23.8999 15.85C23.7999 15.34 23.6499 14.85 23.5399 14.37C23.5626 14.0049 23.4404 13.6456 23.1999 13.37C22.9963 13.1633 22.7554 12.997 22.4899 12.88C22.1422 12.7167 21.771 12.6087 21.3899 12.56C21.2958 12.544 21.1992 12.5662 21.1213 12.6215C21.0828 12.6489 21.05 12.6836 21.0249 12.7237C20.9998 12.7637 20.9828 12.8083 20.9749 12.855C20.9671 12.9016 20.9684 12.9493 20.979 12.9954C20.9896 13.0415 21.0091 13.085 21.0365 13.1236C21.0918 13.2014 21.1758 13.254 21.2699 13.27C21.5192 13.3285 21.7608 13.4157 21.9899 13.53C22.2008 13.6206 22.3887 13.7573 22.5399 13.93C22.6211 14.0539 22.6499 14.2049 22.6199 14.35C22.6151 14.4171 22.5955 14.4823 22.5627 14.5411C22.5299 14.5998 22.4846 14.6506 22.4299 14.69C22.0207 14.939 21.5578 15.0865 21.0799 15.12C20.2849 15.1897 19.484 15.1493 18.6999 15L17.8499 14.77L17.3099 14.52C17.2302 14.48 17.1608 14.4223 17.107 14.3512C17.0533 14.2801 17.0166 14.1975 16.9999 14.11C17.0068 14.0125 17.0355 13.9178 17.084 13.833C17.1325 13.7482 17.1994 13.6753 17.2799 13.62C17.6699 13.3257 18.1105 13.1054 18.5799 12.97C19.0429 12.8469 19.5261 12.8197 19.9999 12.89C20.0413 12.9003 20.0844 12.9023 20.1265 12.8958C20.1687 12.8893 20.2091 12.8745 20.2455 12.8521C20.2818 12.8297 20.3133 12.8003 20.3381 12.7656C20.3629 12.7309 20.3806 12.6916 20.3899 12.65C20.4047 12.5652 20.3857 12.4781 20.3372 12.4071C20.2886 12.3361 20.2142 12.2869 20.1299 12.27C19.5466 12.1442 18.9432 12.1442 18.3599 12.27C17.7672 12.3738 17.1981 12.5839 16.6799 12.89C16.4561 13.0189 16.2666 13.1997 16.1273 13.4173C15.9881 13.6348 15.9032 13.8827 15.8799 14.14C15.861 14.3925 15.9129 14.6453 16.0299 14.87C15.9216 15.2981 15.8382 15.7322 15.7799 16.17V17.12V17.49C15.4614 17.346 15.1251 17.2452 14.7799 17.19C14.6846 17.1754 14.5874 17.1986 14.509 17.2546C14.4305 17.3107 14.3771 17.3951 14.3599 17.49C14.3479 17.5849 14.3721 17.6808 14.4277 17.7587C14.4833 17.8366 14.5662 17.8906 14.6599 17.91C14.9102 17.9602 15.1524 18.0443 15.3799 18.16C15.583 18.2497 15.7639 18.3828 15.9099 18.55C15.9099 18.7 15.9599 18.83 15.9799 18.97V19.1C15.953 19.187 15.9049 19.2661 15.8399 19.33C15.4298 19.5755 14.967 19.7195 14.4899 19.75C13.71 19.8527 12.9199 19.8527 12.1399 19.75L11.2899 19.51L10.7499 19.26C10.6714 19.221 10.6027 19.1648 10.549 19.0956C10.4953 19.0263 10.458 18.9457 10.4399 18.86C10.4437 18.7618 10.4711 18.6659 10.5199 18.5806C10.5686 18.4953 10.6373 18.423 10.7199 18.37C11.1071 18.0712 11.5486 17.8505 12.0199 17.72C12.4917 17.5724 12.9904 17.5314 13.4799 17.6C13.5213 17.6087 13.564 17.6092 13.6056 17.6013C13.6472 17.5935 13.6868 17.5775 13.7221 17.5542C13.7574 17.531 13.7878 17.501 13.8115 17.4659C13.8351 17.4308 13.8516 17.3914 13.8599 17.35C13.8687 17.3086 13.8692 17.2659 13.8613 17.2243C13.8535 17.1827 13.8375 17.1431 13.8142 17.1078C13.791 17.0725 13.7609 17.0421 13.7259 17.0184C13.6908 16.9948 13.6514 16.9783 13.6099 16.97C13.0266 16.8442 12.4232 16.8442 11.8399 16.97C11.2461 17.0752 10.6766 17.2888 10.1599 17.6C9.93385 17.7262 9.7425 17.9064 9.60292 18.1245C9.46334 18.3426 9.37986 18.5918 9.35994 18.85C9.36651 19.0102 9.39684 19.1686 9.44994 19.32C9.44994 19.48 9.37994 19.64 9.34994 19.82C9.33973 19.9731 9.33973 20.1268 9.34994 20.28C9.35513 20.4382 9.37522 20.5955 9.40994 20.75C9.4674 21.0555 9.54763 21.3564 9.64994 21.65C9.60214 21.718 9.58272 21.802 9.59579 21.8841C9.60885 21.9663 9.65338 22.0401 9.71994 22.09C9.965 22.3223 10.2451 22.5147 10.5499 22.66C10.8364 22.8094 11.1339 22.9364 11.4399 23.04C11.7899 23.1452 12.1477 23.2221 12.5099 23.27C12.8755 23.3099 13.2444 23.3099 13.6099 23.27C14.3356 23.167 15.0349 22.926 15.6699 22.56C15.7139 22.5416 15.7539 22.5147 15.7875 22.4809C15.8211 22.4471 15.8477 22.407 15.8658 22.3628C15.8839 22.3187 15.8932 22.2715 15.893 22.2238C15.8929 22.1761 15.8833 22.129 15.8649 22.085C15.8466 22.041 15.8197 22.001 15.7859 21.9674C15.752 21.9338 15.7119 21.9072 15.6678 21.8891C15.6237 21.871 15.5765 21.8617 15.5288 21.8619C15.4811 21.862 15.4339 21.8716 15.3899 21.89C14.9055 22.033 14.4048 22.1136 13.8999 22.13C13.5303 22.1545 13.1595 22.1545 12.7899 22.13C12.4182 22.1206 12.0474 22.0872 11.6799 22.03C11.3426 22.0191 11.0073 21.9722 10.6799 21.89L10.4199 21.78C10.4199 21.44 10.5099 21.11 10.5499 20.78V20.4L10.8299 20.55C11.0127 20.627 11.1997 20.6938 11.3899 20.75C11.5808 20.8038 11.7744 20.8472 11.9699 20.88C12.8713 21.0188 13.7886 21.0188 14.6899 20.88C15.1001 20.8027 15.4974 20.6681 15.8699 20.48C15.9299 20.84 16.0399 21.16 16.1299 21.48C16.1325 21.5273 16.1444 21.5736 16.1649 21.6163C16.1853 21.659 16.2141 21.6972 16.2494 21.7288C16.2847 21.7604 16.3259 21.7847 16.3706 21.8004C16.4153 21.816 16.4626 21.8227 16.5099 21.82C16.6063 21.8148 16.6969 21.7721 16.7622 21.7012C16.8276 21.6302 16.8627 21.5364 16.8599 21.44C16.8599 21.21 16.9299 20.98 16.9699 20.75C17.4682 21.0516 18.007 21.2806 18.5699 21.43C18.9349 21.5089 19.3066 21.5524 19.6799 21.56C20.0455 21.5699 20.411 21.5397 20.7699 21.47C21.6162 21.3175 22.4266 21.0089 23.1599 20.56C23.2444 20.5171 23.3085 20.4427 23.3385 20.3528C23.3684 20.263 23.3618 20.1649 23.3199 20.08C23.3007 20.0363 23.2727 19.9971 23.2377 19.9647C23.2028 19.9323 23.1616 19.9073 23.1166 19.8914C23.0717 19.8755 23.0239 19.8689 22.9764 19.8721C22.9288 19.8753 22.8824 19.8882 22.8399 19.91C22.1339 20.1671 21.3911 20.3089 20.6399 20.33H19.6999C19.3899 20.33 19.0699 20.33 18.7599 20.27C18.162 20.2261 17.5712 20.112 16.9999 19.93C17.0098 19.8102 17.0098 19.6898 16.9999 19.57V19.41V18.14C17.4874 18.4276 18.0124 18.6464 18.5599 18.79C18.9249 18.8689 19.2966 18.9124 19.6699 18.92C20.0355 18.9299 20.401 18.8997 20.7599 18.83C21.5287 18.6798 22.266 18.399 22.9399 18C22.9885 18.2975 23.0119 18.5985 23.0099 18.9C23.0029 18.9467 23.0055 18.9944 23.0174 19.0402C23.0294 19.086 23.0505 19.1288 23.0794 19.1662C23.1084 19.2036 23.1447 19.2347 23.186 19.2577C23.2273 19.2807 23.2729 19.2951 23.3199 19.3C23.3673 19.307 23.4155 19.3045 23.4619 19.2927C23.5083 19.2809 23.5518 19.2599 23.59 19.231C23.6282 19.2022 23.6602 19.166 23.6843 19.1246C23.7083 19.0832 23.7238 19.0374 23.7299 18.99C23.8792 18.4343 23.9697 17.8645 23.9999 17.29C24.0151 17.0469 24.0151 16.8031 23.9999 16.56ZM20.6399 17.69H19.6999C19.3899 17.69 19.0699 17.69 18.7599 17.63C18.1611 17.5799 17.5703 17.459 16.9999 17.27V17.08V16.17V15.69L17.4199 15.93C17.6029 16.0037 17.7899 16.0672 17.9799 16.12C18.1695 16.1786 18.3635 16.222 18.5599 16.25C19.4612 16.3893 20.3786 16.3893 21.2799 16.25C21.8252 16.1496 22.3452 15.9423 22.8099 15.64C22.8 15.8365 22.8 16.0334 22.8099 16.23C22.8099 16.59 22.8699 16.95 22.9099 17.3C22.1737 17.5566 21.3997 17.6884 20.6199 17.69H20.6399Z" fill="black"/>
</g>
<defs>
<clipPath id="clip0_36_742">
<rect width="24" height="24" fill="white"/>
</clipPath>
</defs>
</svg>
