<svg width="24" height="24" viewBox="0 0 24 24" fill="none" xmlns="http://www.w3.org/2000/svg">
<path fill-rule="evenodd" clip-rule="evenodd" d="M14.7596 18C14.3851 18.18 13.975 18.2734 13.5596 18.2734C13.1441 18.2734 12.734 18.18 12.3596 18C11.7718 17.7562 11.2507 17.3757 10.8396 16.89C11.0596 16.89 11.2696 16.82 11.4796 16.77C12.1496 16.63 12.7896 16.45 13.4796 16.27C13.5206 16.2629 13.5598 16.2475 13.5948 16.2249C13.6298 16.2022 13.6599 16.1727 13.6832 16.1382C13.7066 16.1036 13.7227 16.0647 13.7307 16.0238C13.7386 15.9829 13.7382 15.9408 13.7296 15.9C13.7235 15.8591 13.7093 15.8198 13.6878 15.7844C13.6663 15.749 13.6379 15.7183 13.6044 15.6941C13.5708 15.6699 13.5328 15.6526 13.4924 15.6433C13.4521 15.634 13.4103 15.6329 13.3696 15.64C12.6796 15.7 11.9896 15.71 11.2996 15.78C11.0096 15.78 10.7196 15.84 10.4296 15.88V15.65C10.4528 15.3356 10.5064 15.0241 10.5896 14.72C10.5896 14.66 10.5896 14.6 10.6596 14.53H11.0696C11.6896 14.47 12.3196 14.38 12.9396 14.29C13.0244 14.2825 13.1034 14.2434 13.1608 14.1804C13.2182 14.1175 13.2499 14.0352 13.2496 13.95C13.247 13.908 13.2362 13.8668 13.2177 13.829C13.1992 13.7911 13.1734 13.7573 13.1419 13.7294C13.1103 13.7015 13.0735 13.6802 13.0336 13.6666C12.9938 13.6529 12.9516 13.6473 12.9096 13.65L11.1096 13.53C11.493 12.8749 12.0603 12.3466 12.7411 12.0106C13.4219 11.6747 14.1863 11.5458 14.9396 11.64C14.9758 11.6472 15.0131 11.6468 15.0492 11.639C15.0853 11.6311 15.1194 11.6159 15.1494 11.5944C15.1794 11.5728 15.2046 11.5453 15.2236 11.5136C15.2425 11.4819 15.2548 11.4467 15.2596 11.41C15.2795 11.3662 15.2882 11.318 15.2849 11.2699C15.2815 11.2219 15.2663 11.1754 15.2405 11.1347C15.2147 11.094 15.1791 11.0604 15.1371 11.0369C15.095 11.0133 15.0477 11.0007 14.9996 11C13.8435 10.751 12.6359 10.9589 11.6296 11.58C10.9171 12.046 10.3353 12.6863 9.93955 13.44H9.39955C8.76955 13.5 8.14955 13.63 7.51955 13.73C7.48275 13.7326 7.44681 13.7423 7.4138 13.7588C7.38079 13.7753 7.35136 13.7981 7.3272 13.826C7.30304 13.8539 7.28462 13.8862 7.27301 13.9213C7.2614 13.9563 7.25683 13.9932 7.25955 14.03C7.26463 14.1034 7.29741 14.1721 7.35125 14.2223C7.4051 14.2724 7.47598 14.3002 7.54955 14.3C8.18955 14.35 8.79955 14.43 9.42955 14.47H9.50955C9.38962 14.8998 9.32905 15.3439 9.32955 15.79V16.02C8.76955 16.16 8.21955 16.33 7.64955 16.51C7.61344 16.5172 7.5791 16.5315 7.5485 16.552C7.5179 16.5725 7.49164 16.5988 7.47121 16.6295C7.45078 16.6601 7.43658 16.6945 7.42944 16.7306C7.42229 16.7667 7.42233 16.8039 7.42955 16.84C7.43677 16.8761 7.45104 16.9105 7.47153 16.9411C7.49203 16.9717 7.51835 16.9979 7.54899 17.0184C7.57963 17.0388 7.614 17.053 7.65013 17.0601C7.68626 17.0673 7.72344 17.0672 7.75955 17.06C8.39955 17.01 9.02955 17.01 9.66955 16.96C10.2531 17.7872 11.0877 18.4044 12.0496 18.72C12.5368 18.9035 13.0588 18.9762 13.5777 18.933C14.0966 18.8897 14.5993 18.7316 15.0496 18.47C15.1214 18.4228 15.1726 18.3501 15.193 18.2667C15.2135 18.1832 15.2015 18.095 15.1596 18.02C15.1051 17.9717 15.0358 17.9433 14.9631 17.9397C14.8903 17.9361 14.8186 17.9574 14.7596 18Z" fill="black"/>
<path fill-rule="evenodd" clip-rule="evenodd" d="M21.4997 13.28C21.3489 12.5461 21.107 11.834 20.7797 11.16C20.3786 10.3216 19.8963 9.52443 19.3397 8.78003C18.8268 8.09713 18.2362 7.47628 17.5797 6.93003C17.7797 6.85003 17.9897 6.77003 18.1897 6.67003C18.2645 6.63318 18.3226 6.56939 18.3523 6.49148C18.3819 6.41356 18.381 6.3273 18.3497 6.25003C18.3146 6.17101 18.2499 6.10892 18.1695 6.07713C18.089 6.04534 17.9994 6.04638 17.9197 6.08003C17.6687 6.17978 17.4115 6.26329 17.1497 6.33003C17.4741 5.84746 17.7584 5.33909 17.9997 4.81003C18.2871 4.18099 18.4468 3.50121 18.4697 2.81003C18.4662 2.37341 18.3884 1.94057 18.2397 1.53003C18.1262 1.21076 17.9294 0.927647 17.6697 0.71003C17.5022 0.619877 17.3149 0.572687 17.1247 0.572687C16.9345 0.572687 16.7472 0.619877 16.5797 0.71003C16.0897 0.89003 15.4397 1.28003 14.9097 1.51003C14.7297 1.58003 14.5997 1.67003 14.4997 1.65003C14.3997 1.63003 14.3197 1.44003 14.2297 1.30003C14.0719 1.02605 13.8877 0.768155 13.6797 0.53003C13.5302 0.371709 13.3498 0.245774 13.1497 0.16003C12.8478 0.0601008 12.5217 0.0601008 12.2197 0.16003C11.7846 0.282007 11.3724 0.474566 10.9997 0.73003C9.9997 1.45003 10.1397 1.22003 9.5997 0.94003C9.11987 0.622638 8.57146 0.423841 7.9997 0.36003C7.5397 0.36003 7.0897 0.68003 7.1597 1.68003L7.2497 2.44003L7.4697 3.50003C7.53121 3.74788 7.60803 3.99168 7.6997 4.23003C7.7875 4.47167 7.88763 4.70865 7.9997 4.94003C8.17361 5.32998 8.37408 5.70754 8.5997 6.07003L8.8597 6.43003H8.4997C8.10995 6.3338 7.73372 6.18935 7.3797 6.00003C7.34536 5.98206 7.30755 5.9717 7.26885 5.96964C7.23014 5.96759 7.19145 5.97389 7.1554 5.98812C7.11934 6.00235 7.08678 6.02418 7.05991 6.05212C7.03305 6.08005 7.01251 6.11345 6.9997 6.15003C6.96653 6.21553 6.95943 6.29117 6.97985 6.3617C7.00027 6.43222 7.04667 6.49238 7.1097 6.53003C7.24548 6.61116 7.3857 6.68461 7.5297 6.75003C6.77246 7.45701 6.05787 8.20833 5.3897 9.00003C4.69346 9.81419 4.06471 10.6837 3.5097 11.6C3.23376 12.0441 2.99943 12.5128 2.8097 13C2.62232 13.5043 2.47519 14.0225 2.3697 14.55C2.1115 15.5902 2.10471 16.677 2.3499 17.7204C2.59509 18.7637 3.08521 19.7337 3.7797 20.55C5.23596 22.0874 7.13305 23.1355 9.2097 23.55C12.1012 24.3076 15.164 24.0644 17.8997 22.86C18.8086 22.397 19.6053 21.7409 20.234 20.9377C20.8628 20.1344 21.3084 19.2035 21.5397 18.21C21.6584 17.7576 21.7387 17.296 21.7797 16.83C21.8148 16.3674 21.8148 15.9027 21.7797 15.44C21.7446 14.7137 21.651 13.9913 21.4997 13.28ZM9.1397 5.75003C8.93853 5.40411 8.76467 5.04301 8.6197 4.67003C8.5397 4.46003 8.4597 4.23003 8.3997 4.01003C8.3397 3.79003 8.2697 3.55003 8.2197 3.32003L8.0697 2.32003V1.63003C8.0697 1.20003 7.9697 1.16003 8.5597 1.47003C8.9197 1.66003 9.2797 1.91003 9.5597 2.06003C9.7979 2.19065 10.0688 2.24969 10.3397 2.23003C10.7008 2.16851 11.043 2.02482 11.3397 1.81003C11.6574 1.57024 11.9916 1.35304 12.3397 1.16003C12.4048 1.11993 12.4772 1.09311 12.5527 1.0811C12.6282 1.06908 12.7054 1.07212 12.7797 1.09003C12.9297 1.15003 13.0197 1.31003 13.1297 1.46003C13.2853 1.71867 13.4591 1.96595 13.6497 2.20003C13.8079 2.39198 14.0206 2.53144 14.2597 2.60003C14.6016 2.65284 14.9514 2.59687 15.2597 2.44003C16.7697 1.76003 17.1197 1.00003 17.4397 2.00003C17.5257 2.26938 17.5794 2.548 17.5997 2.83003C17.6091 3.41996 17.4968 4.00549 17.2697 4.55003C16.9932 5.25467 16.6376 5.92563 16.2097 6.55003C15.7997 6.61003 15.3697 6.66003 14.9397 6.69003H12.6297C11.8597 6.69003 11.0397 6.69003 10.3097 6.57003H9.6297C9.45181 6.30567 9.28824 6.03194 9.1397 5.75003ZM20.8897 16.75C20.85 17.1734 20.7696 17.592 20.6497 18C20.4375 18.8628 20.0381 19.6683 19.4799 20.3595C18.9217 21.0508 18.2184 21.6108 17.4197 22C14.8937 23.087 12.0743 23.2878 9.4197 22.57C7.5479 22.2212 5.82956 21.3027 4.4997 19.94C3.87775 19.2429 3.43087 18.4075 3.1961 17.5032C2.96133 16.5989 2.94543 15.6517 3.1497 14.74C3.31828 13.759 3.65668 12.8148 4.1497 11.95C4.65771 11.0405 5.23968 10.1742 5.8897 9.36003C6.54036 8.55292 7.24533 7.79115 7.9997 7.08003C7.9997 7.08003 7.9997 7.00003 8.0597 7.00003C8.14477 7.03448 8.23155 7.06452 8.3197 7.09003C8.93653 7.27341 9.56449 7.41704 10.1997 7.52003C10.7097 7.60003 11.1997 7.69003 11.7897 7.73003C12.6015 7.80004 13.4179 7.80004 14.2297 7.73003C15.1508 7.65498 16.0602 7.47378 16.9397 7.19003C16.9536 7.22969 16.9739 7.26684 16.9997 7.30003C17.671 7.86311 18.269 8.50814 18.7797 9.22003C19.2918 9.9395 19.7338 10.7063 20.0997 11.51C20.384 12.1493 20.5889 12.8209 20.7097 13.51C20.8417 14.1961 20.9186 14.8917 20.9397 15.59C20.9501 15.9874 20.9334 16.385 20.8897 16.78V16.75Z" fill="black"/>
</svg>
