<svg width="24" height="24" viewBox="0 0 24 24" fill="none" xmlns="http://www.w3.org/2000/svg">
<g clip-path="url(#clip0_36_710)">
<path fill-rule="evenodd" clip-rule="evenodd" d="M19.0604 10.61C18.8904 10.07 16.1904 7.22 15.1604 6.94C14.465 6.88051 13.7658 6.88051 13.0704 6.94C11.8936 6.88956 10.7148 6.90959 9.54042 7C9.13042 7 8.28042 6.85 7.93042 7.22C7.20197 7.88103 6.5109 8.58211 5.86042 9.32C5.44154 9.75663 5.06951 10.2359 4.75042 10.75C4.56042 11.15 4.93042 11.53 5.20042 12C5.47042 12.47 6.77042 14.65 8.00042 16.63C8.77042 17.89 10.2204 19.28 10.6404 19.9C10.6802 19.9663 10.7447 20.0141 10.8197 20.0328C10.8947 20.0516 10.9741 20.0398 11.0404 20C11.1067 19.9602 11.1545 19.8957 11.1733 19.8207C11.192 19.7457 11.1802 19.6663 11.1404 19.6C11.222 18.0644 11.1618 16.5245 10.9604 15C10.7217 13.932 10.387 12.8878 9.96042 11.88C11.2251 12.0447 12.5058 12.0447 13.7704 11.88C13.5855 12.3268 13.3717 12.761 13.1304 13.18C12.5783 14.4078 12.1495 15.6874 11.8504 17C11.832 17.0394 11.8216 17.082 11.8197 17.1255C11.8178 17.1689 11.8244 17.2123 11.8393 17.2531C11.8542 17.294 11.8769 17.3315 11.9063 17.3636C11.9356 17.3957 11.971 17.4216 12.0104 17.44C12.0498 17.4584 12.0925 17.4688 12.1359 17.4707C12.1793 17.4727 12.2227 17.466 12.2636 17.4511C12.3044 17.4363 12.3419 17.4135 12.374 17.3842C12.4061 17.3548 12.432 17.3194 12.4504 17.28C13.3135 15.7797 13.9854 14.1772 14.4504 12.51C14.5516 12.2914 14.6191 12.0588 14.6504 11.82C15.7904 11.68 16.9204 11.52 18.0404 11.44C17.6504 12.3 12.5704 18.95 11.8304 19.34C11.7522 19.3811 11.6935 19.4516 11.6672 19.536C11.641 19.6204 11.6493 19.7118 11.6904 19.79C11.7315 19.8682 11.802 19.9269 11.8864 19.9532C11.9708 19.9795 12.0622 19.9711 12.1404 19.93C12.9704 19.52 16.8604 14.66 17.4304 13.93C18.1004 13 19.3904 11.71 19.0604 10.61ZM14.4304 8C14.8604 8 15.0104 8 15.5404 8.44C15.0915 8.99101 14.6964 9.58371 14.3604 10.21C13.86 9.63855 13.3293 9.09443 12.7704 8.58C12.5228 8.40825 12.2888 8.21769 12.0704 8.01C12.3602 7.99505 12.6506 7.99505 12.9404 8.01C13.4369 8.03614 13.9344 8.0328 14.4304 8ZM9.54042 8.1C11.0704 8.1 10.9604 7.94 10.8404 8.18C10.7604 8.26 9.05042 9.97 8.95042 10.18C8.834 9.52481 8.64621 8.88433 8.39042 8.27C8.75021 8.10639 9.14785 8.04415 9.54042 8.09V8.1ZM9.29042 12.1C9.96042 16.53 9.91042 14.28 10.3904 18.73C9.00042 17.07 8.92042 17 6.00042 11.55C6.00042 11.55 5.76042 11.27 5.65042 11.09C5.85042 10.78 6.40042 10.24 6.65042 9.96C7.0259 9.53286 7.43018 9.13192 7.86042 8.76C7.9305 9.47389 8.07803 10.178 8.30042 10.86H6.81042C5.93042 10.69 5.90042 11.34 6.27042 11.45L9.27042 11.77C9.26042 11.9 9.29042 12 9.29042 12.05V12.1ZM9.57042 10.9C9.97042 10.43 11.2804 9.45 11.5704 9.09C12.3104 9.67 13.4604 10.71 13.5704 10.88C12.2376 10.9436 10.9022 10.9336 9.57042 10.85V10.9ZM15.0604 10.81C15.3239 10.1518 15.6593 9.52462 16.0604 8.94C16.7405 9.49226 17.3883 10.0832 18.0004 10.71C17.0004 10.69 16.0004 10.71 15.0604 10.76V10.81Z" fill="black"/>
<path fill-rule="evenodd" clip-rule="evenodd" d="M3.87085 5.74991C3.91593 5.8255 3.9892 5.88008 4.07453 5.90165C4.15986 5.92321 4.25026 5.91 4.32585 5.86491C4.40143 5.81983 4.45601 5.74656 4.47758 5.66123C4.49915 5.5759 4.48593 5.4855 4.44085 5.40991C4.28085 4.99991 4.15085 4.60991 4.00085 4.22991C3.70017 3.68756 3.2532 3.24059 2.71085 2.93991C2.47085 2.81991 2.37085 3.03991 2.32085 3.09991C1.91085 3.66991 3.80085 5.66991 3.87085 5.74991Z" fill="black"/>
<path fill-rule="evenodd" clip-rule="evenodd" d="M20.1303 5.70997C21.5503 4.10997 20.8003 5.22997 21.6303 3.40997C21.7103 3.22997 21.7103 3.10997 21.6803 3.05997C21.6503 3.00997 21.5303 2.77997 21.2903 2.89997C20.7479 3.20064 20.3009 3.64762 20.0003 4.18997C19.8103 4.56997 19.6803 4.94997 19.5203 5.35997C19.4739 5.44086 19.4615 5.53687 19.4859 5.62689C19.5102 5.71691 19.5694 5.79355 19.6503 5.83997C19.7312 5.88638 19.8272 5.89876 19.9172 5.87438C20.0072 5.85 20.0839 5.79086 20.1303 5.70997Z" fill="black"/>
<path fill-rule="evenodd" clip-rule="evenodd" d="M3.94047 13.54C4.24047 13.54 4.45047 13.17 4.07047 12.87C3.58898 12.5862 3.04803 12.4185 2.49047 12.38C2.03047 12.38 0.240467 12.45 0.0304665 12.85C-0.0395335 12.97 0.0304665 13.07 0.120467 13.19C0.390467 13.48 3.38047 13.54 3.94047 13.54Z" fill="black"/>
<path fill-rule="evenodd" clip-rule="evenodd" d="M24.0003 12.81C22.9309 12.2945 21.7072 12.1982 20.5703 12.54C20.3583 12.6131 20.154 12.7069 19.9603 12.82C19.5903 13.11 19.7803 13.5 20.0903 13.5C21.2336 13.5777 22.382 13.4901 23.5003 13.24C23.6391 13.2161 23.7761 13.1827 23.9103 13.14C24.0003 13 24.0003 12.93 24.0003 12.81Z" fill="black"/>
<path fill-rule="evenodd" clip-rule="evenodd" d="M5.21094 17.5499C3.89094 18.6899 4.46094 17.6599 2.01094 20.7499C1.93094 20.9199 2.01094 21.2599 2.44094 21.0899C3.75918 20.332 4.87962 19.2732 5.71094 17.9999C5.75604 17.932 5.77522 17.8501 5.76497 17.7692C5.75472 17.6883 5.71573 17.6138 5.65511 17.5592C5.59449 17.5046 5.51628 17.4737 5.43475 17.472C5.35321 17.4703 5.27378 17.498 5.21094 17.5499Z" fill="black"/>
<path fill-rule="evenodd" clip-rule="evenodd" d="M20.1706 18.55C19.7306 18.16 19.1706 17.88 18.7906 17.5C18.4106 17.12 17.9906 17.63 18.2906 17.95C18.8535 18.7203 19.4754 19.4458 20.1506 20.12C20.3306 20.29 21.5506 21.12 21.7806 21.12C22.0106 21.12 22.1006 20.97 21.9906 20.74C22.0006 20.66 20.4606 18.8 20.1706 18.55Z" fill="black"/>
</g>
<defs>
<clipPath id="clip0_36_710">
<rect width="24" height="24" fill="white"/>
</clipPath>
</defs>
</svg>
