<svg width="24" height="24" viewBox="0 0 24 24" fill="none" xmlns="http://www.w3.org/2000/svg">
<g clip-path="url(#clip0_36_786)">
<path fill-rule="evenodd" clip-rule="evenodd" d="M3.51097 0.235999C-0.692026 0.371999 0.0569739 3.464 0.0439739 17.548C0.0439739 19.755 -0.184026 22.152 1.80997 23.276C2.99797 23.941 4.29397 23.902 13.507 23.843C20 23.81 22.543 24.408 23.607 20.676C24.037 18.496 24.115 16.26 23.837 14.056C23.597 2.676 24.201 1.557 21.583 0.695999C19.166 -0.112001 6.04897 0.149999 3.51097 0.234999V0.235999ZM13.945 1.189C8.96897 1.254 2.74197 1.501 2.50797 1.539C1.05997 1.829 1.36597 6.497 1.39397 17.548C1.41197 23.756 0.783974 22.473 18.131 22.544C19.237 22.544 20.823 22.654 21.657 21.908C22.5857 20.5989 23.0214 19.0034 22.887 17.404C22.349 3.981 24.2 1.891 20.663 1.374C18.46 1.052 16.176 1.159 13.945 1.189Z" fill="black"/>
<path fill-rule="evenodd" clip-rule="evenodd" d="M10.2352 9.41511C7.37516 9.90811 8.45116 10.0111 7.28916 8.81211C5.32016 6.81611 2.21316 8.58911 4.70216 12.0331C3.60916 13.2081 2.92116 14.5481 4.18916 15.5461C4.59664 15.8441 5.09911 15.9826 5.60171 15.9354C6.1043 15.8882 6.57224 15.6587 6.91716 15.2901C8.97016 13.7501 7.47916 13.9121 10.5922 14.2861C10.0502 15.4161 8.95216 17.4841 9.47816 18.8801C9.62256 19.2606 9.9062 19.572 10.2716 19.7512C10.637 19.9304 11.0569 19.9639 11.4462 19.8451C13.7682 19.3801 15.0392 16.4851 16.1192 14.7121C17.1432 14.8113 18.1768 14.7031 19.1582 14.3941C21.5132 13.3371 21.5852 8.61011 15.5472 8.76411C14.878 7.23281 14.077 5.76261 13.1532 4.37011C11.1612 2.06311 7.47916 3.62611 10.2352 9.41511ZM15.2392 10.0151C14.5592 10.1291 14.6052 9.57211 13.7192 7.93511C13.1392 6.83911 11.9672 4.14911 10.9152 4.75011C9.71116 5.44011 11.5772 9.19511 11.7412 9.68211C11.7763 9.77299 11.7912 9.87044 11.7849 9.96767C11.7785 10.0649 11.7511 10.1596 11.7045 10.2451C11.6578 10.3307 11.5931 10.4051 11.5148 10.4631C11.4366 10.5211 11.3466 10.5614 11.2512 10.5811C7.73516 11.1861 7.56816 11.3091 7.26316 10.9091C6.80116 10.3061 6.35716 9.55611 5.72316 9.29511C5.65635 9.2672 5.58379 9.25582 5.51165 9.26195C5.4395 9.26807 5.3699 9.29151 5.30875 9.33028C5.2476 9.36906 5.1967 9.42201 5.16039 9.48465C5.12408 9.54729 5.10342 9.61777 5.10016 9.69011C5.22753 10.4347 5.57113 11.1254 6.08816 11.6761C6.75016 12.5721 4.15816 13.8291 5.01816 14.4991C5.87816 15.1691 7.39916 12.5821 8.22816 12.6741C13.1912 13.2801 12.7452 12.8261 11.1532 16.1521C9.57516 19.3191 11.6392 19.2651 13.4352 16.6911C14.9752 14.4451 15.0362 13.4111 15.7652 13.4161C17.6462 13.4341 19.2552 13.7661 19.3582 11.9121C19.5532 9.67711 17.4582 9.66611 15.2392 10.0151Z" fill="black"/>
</g>
<defs>
<clipPath id="clip0_36_786">
<rect width="24" height="24" fill="white"/>
</clipPath>
</defs>
</svg>
