<svg width="24" height="24" viewBox="0 0 24 24" fill="none" xmlns="http://www.w3.org/2000/svg">
<g clip-path="url(#clip0_36_704)">
<path fill-rule="evenodd" clip-rule="evenodd" d="M20.9003 17.2498C20.8938 16.9726 20.8535 16.6972 20.7803 16.4298C20.7468 16.3194 20.6805 16.2217 20.5903 16.1498C20.3602 15.9774 20.0932 15.861 19.8103 15.8098C19.92 14.9811 19.869 14.1391 19.6603 13.3298C19.4838 12.6522 19.14 12.0298 18.6603 11.5198C18.2534 11.1383 17.7573 10.8652 17.2174 10.7254C16.6775 10.5857 16.1111 10.5837 15.5703 10.7198C14.523 10.9298 13.5821 11.4994 12.9103 12.3298C12.5456 12.8197 12.3116 13.3944 12.2303 13.9998C12.1734 14.7344 12.207 15.4733 12.3303 16.1998C12.1926 16.2072 12.0557 16.2239 11.9203 16.2498C11.7529 16.2708 11.5885 16.311 11.4303 16.3698C11.3875 16.3834 11.3478 16.4053 11.3136 16.4344C11.2793 16.4634 11.2511 16.4989 11.2307 16.5389C11.2102 16.5789 11.1979 16.6225 11.1944 16.6673C11.1909 16.7121 11.1963 16.7571 11.2103 16.7998C11.2252 16.8572 11.2608 16.9071 11.3103 16.9398V19.1498C11.3103 19.8898 11.3103 20.6498 11.2503 21.3998C11.2503 21.7398 11.1403 22.6298 11.1403 23.0198C11.136 23.1385 11.153 23.257 11.1903 23.3698C11.2367 23.4711 11.3046 23.5611 11.3892 23.6336C11.4738 23.7061 11.5731 23.7594 11.6803 23.7898C11.9378 23.8603 12.2033 23.8973 12.4703 23.8998H15.3303C16.0603 23.8998 16.8103 23.9798 17.5503 23.9898H18.5503C18.998 23.9982 19.4458 23.9748 19.8903 23.9198C20.0957 23.8842 20.2865 23.7905 20.4403 23.6498C20.653 23.3918 20.7789 23.0734 20.8003 22.7398C20.8903 22.0198 20.8503 20.8698 20.8703 20.2698C20.8903 19.6698 20.9403 18.1498 20.9003 17.2498ZM13.0603 14.1298C13.1639 13.7072 13.3739 13.3182 13.6703 12.9998C14.2306 12.4108 14.968 12.0211 15.7703 11.8898C16.1337 11.7847 16.5171 11.7689 16.888 11.8438C17.2588 11.9187 17.6061 12.0819 17.9003 12.3198C18.3989 12.7837 18.7472 13.3862 18.9003 14.0498C19.0323 14.6063 19.0861 15.1784 19.0603 15.7498H17.6003L15.6003 15.8398L13.0003 16.1198C12.9254 15.457 12.9456 14.7869 13.0603 14.1298ZM19.7503 20.2198C19.6503 23.2198 19.9203 22.7298 18.4903 22.8298H15.3603L12.5203 22.9298C12.3557 22.9115 12.1921 22.8848 12.0303 22.8498L12.0803 21.3998C12.0803 20.6398 12.0803 19.8798 12.0303 19.1098C11.9803 18.3398 11.9603 17.6598 11.9103 16.9298H12.1603H13.0603L15.7103 16.7498H17.6003H19.2003C19.418 16.7661 19.6312 16.8203 19.8303 16.9098V16.9998C19.9003 17.7098 19.7903 19.4998 19.7503 20.2198Z" fill="black"/>
<path fill-rule="evenodd" clip-rule="evenodd" d="M16.1102 18.8198C15.1102 18.6798 14.2902 20.0098 15.1102 20.6598C15.2366 20.7581 15.3836 20.8265 15.5402 20.8598C15.6674 20.9049 15.8024 20.9237 15.9371 20.9152C16.0718 20.9066 16.2034 20.8709 16.3239 20.8102C16.4445 20.7495 16.5515 20.665 16.6385 20.5618C16.7255 20.4586 16.7907 20.3389 16.8302 20.2098C16.8917 20.0725 16.9214 19.9231 16.9171 19.7727C16.9128 19.6222 16.8747 19.4747 16.8055 19.3411C16.7363 19.2075 16.6378 19.0913 16.5174 19.001C16.397 18.9107 16.2578 18.8488 16.1102 18.8198Z" fill="black"/>
<path fill-rule="evenodd" clip-rule="evenodd" d="M4.49023 8.3799C4.62023 6.0899 4.71023 4.03989 4.73023 3.37989C4.72766 3.04487 4.75443 2.71025 4.81023 2.37989C4.83668 2.13795 4.95045 1.91396 5.13023 1.74989C5.42493 1.53149 5.76797 1.38742 6.13023 1.32989C6.20023 1.79989 6.39023 2.59989 6.56023 3.22989C6.65489 3.59949 6.80312 3.95324 7.00023 4.27989C7.37299 4.4861 7.77922 4.6249 8.20023 4.68989C9.00023 4.85989 10.0802 5.00989 10.6002 5.07989C11.2659 5.13125 11.9346 5.13125 12.6002 5.07989C13.0759 5.06693 13.5474 4.98611 14.0002 4.83989C14.322 4.64458 14.5712 4.34967 14.7102 3.99989C15.1085 3.09104 15.4426 2.15542 15.7102 1.19989C16.0401 1.32172 16.314 1.56004 16.4802 1.86989C16.6068 2.08314 16.7139 2.30739 16.8002 2.53989C16.8868 2.77315 16.9504 3.01429 16.9902 3.25989C17.1116 4.00442 17.1851 4.75596 17.2102 5.50989V8.94989C17.2089 8.99455 17.2164 9.03903 17.2322 9.08079C17.2481 9.12255 17.2721 9.16078 17.3027 9.19328C17.3333 9.22579 17.3701 9.25193 17.4109 9.27023C17.4516 9.28852 17.4956 9.2986 17.5402 9.2999C17.6245 9.3028 17.7067 9.27333 17.7699 9.21754C17.8331 9.16175 17.8726 9.08387 17.8802 8.9999C17.9302 7.7899 18.0002 6.66989 17.9902 5.51989C17.9816 4.7305 17.9248 3.94237 17.8202 3.15989C17.7776 2.86397 17.7073 2.57269 17.6102 2.28989C17.5189 2.00485 17.3983 1.73005 17.2502 1.46989C17.022 1.04587 16.6743 0.698163 16.2502 0.469895C15.649 0.19319 14.9918 0.0596927 14.3302 0.0798946L8.32023 -0.000105373C7.54297 -0.0305457 6.76475 0.0264789 6.00023 0.169895C5.41155 0.256409 4.85429 0.49032 4.38023 0.849895C4.08052 1.11748 3.86219 1.46403 3.75023 1.84989C3.62704 2.32649 3.56984 2.81774 3.58023 3.30989C3.58023 4.12989 3.42023 6.81989 3.30023 9.56989C3.20023 12.0499 3.12023 14.5699 3.09023 15.8499C3.0417 16.9053 3.11891 17.9627 3.32023 18.9999C3.4053 19.52 3.64182 20.0035 4.00023 20.3899C4.37403 20.6526 4.81405 20.805 5.27023 20.8299C6.15958 20.878 7.05088 20.878 7.94023 20.8299H9.94023C10.0207 20.8299 10.0981 20.7987 10.156 20.7427C10.2138 20.6867 10.2476 20.6104 10.2502 20.5299C10.2502 20.4905 10.2425 20.4515 10.2274 20.4151C10.2123 20.3787 10.1902 20.3456 10.1624 20.3178C10.1345 20.2899 10.1014 20.2678 10.065 20.2527C10.0286 20.2377 9.98963 20.2299 9.95023 20.2299H7.95023C7.44023 20.2299 6.52023 20.2299 5.72023 20.1599C5.30158 20.1655 4.8896 20.0547 4.53023 19.8399C4.23427 19.4398 4.07002 18.9575 4.06023 18.4599C3.96064 17.6103 3.94056 16.7532 4.00023 15.8999C4.10023 14.4299 4.32023 11.2199 4.49023 8.3799ZM8.29023 1.10989L14.2902 1.02989H14.9702C14.8102 1.45989 14.5102 2.18989 14.1902 2.84989C13.7502 3.84989 14.0002 3.99989 12.5002 3.99989C11.8894 4.01475 11.2782 3.99137 10.6702 3.92989L7.57023 3.57989C7.43023 3.28989 7.19023 2.67989 6.99023 2.10989C6.88146 1.80814 6.78801 1.50108 6.71023 1.18989C7.23426 1.12496 7.76232 1.09822 8.29023 1.10989Z" fill="black"/>
</g>
<defs>
<clipPath id="clip0_36_704">
<rect width="24" height="24" fill="white"/>
</clipPath>
</defs>
</svg>
