<svg width="24" height="24" viewBox="0 0 24 24" fill="none" xmlns="http://www.w3.org/2000/svg">
<g clip-path="url(#clip0_36_1202)">
<path d="M18.4398 18.07C17.7898 18.2 17.2898 18.99 17.8298 19.53C17.994 19.6848 18.1929 19.798 18.4098 19.86C20.1198 20.24 19.9198 17.77 18.4398 18.07Z" fill="black"/>
<path d="M23.9102 20.0001C23.3452 19.504 22.7204 19.0807 22.0502 18.7401C22.9102 18.1601 23.6502 17.87 23.6402 17.13C23.5547 16.3427 23.2017 15.6085 22.6402 15.0501C21.9502 14.5501 21.4802 14.9401 20.5002 15.5101C20.5002 14.6901 20.6002 14.0201 19.9402 13.6101C19.223 13.2393 18.4131 13.0864 17.6102 13.1701C16.5602 13.4101 16.6102 14.3201 16.6102 15.5601L15.5502 15.0001C14.4402 14.4301 13.6202 15.5701 13.2902 16.7601C13.0602 17.6301 13.3902 17.9601 14.1602 18.4401C14.9302 18.9201 14.4302 18.5201 14.5702 19.3901C12.7702 20.6001 13.0202 20.3901 13.8802 22.1101C14.1041 22.4078 14.3741 22.6677 14.6802 22.88C14.9093 22.984 15.1631 23.0212 15.4125 22.9876C15.6618 22.954 15.8967 22.8509 16.0902 22.6901C16.8602 22.2201 16.7502 22.05 16.7602 22.4001C16.7702 22.7501 16.7002 23.4001 17.0502 23.6001C17.6202 23.9501 19.6702 24.08 20.0502 23.39C20.2602 23.0301 20.2802 23.0201 20.2202 22.4501C20.2136 22.3678 20.1745 22.2916 20.1117 22.2382C20.0489 22.1847 19.9674 22.1584 19.8852 22.1651C19.803 22.1717 19.7268 22.2107 19.6733 22.2735C19.6199 22.3363 19.5936 22.4178 19.6002 22.5001C19.6002 22.9801 19.6002 22.8201 19.4902 23.0601C19.3802 23.3 17.8402 22.9501 17.5802 22.9101V21.39C17.5803 21.3155 17.5601 21.2424 17.5217 21.1785C17.4834 21.1146 17.4284 21.0623 17.3625 21.0274C17.2967 20.9924 17.2226 20.9761 17.1482 20.9801C17.0738 20.984 17.0019 21.0082 16.9402 21.0501C16.4502 21.3701 15.6702 22.0501 15.2102 22.1101C14.7502 22.1701 14.4702 20.9001 14.3602 20.6901C14.8902 20.4601 14.3602 20.8001 15.4902 20.0701C15.5896 20.0051 15.6643 19.9088 15.7023 19.7963C15.7404 19.6839 15.7397 19.562 15.7002 19.4501C15.4802 18.7801 15.9602 18.4501 15.5102 18.0601C14.6502 17.3801 14.9002 17.5701 14.4002 17.2001C14.4869 16.8161 14.6539 16.4549 14.8902 16.1401C14.8902 16.0901 14.9602 16.0201 15.0202 16.0501C17.0202 17.3101 16.7502 17.2501 17.4302 16.9901C18.1102 16.7301 17.8002 14.4001 17.9002 14.3801C18.3921 14.3925 18.8773 14.4977 19.3302 14.6901C19.3902 16.9101 19.5202 16.9101 19.7602 17.0301C19.8465 17.0811 19.9449 17.108 20.0452 17.108C20.1455 17.108 20.2439 17.0811 20.3302 17.0301C22.0902 15.9201 21.9902 15.9601 22.1002 16.0301C22.2102 16.1001 22.3902 16.3401 22.6802 17.2101C21.3402 18.2101 21.2102 18.2101 21.1702 18.4901C21.0402 19.4901 20.8802 19.1901 23.1702 20.4901C23.0842 21.0633 22.7927 21.5857 22.3502 21.96C21.7425 21.6712 21.1575 21.3369 20.6002 20.9601C20.5621 20.9338 20.5192 20.9153 20.474 20.9056C20.4287 20.8959 20.382 20.8952 20.3365 20.9036C20.291 20.9119 20.2476 20.9292 20.2088 20.9543C20.17 20.9794 20.1364 21.012 20.1102 21.0501C20.0839 21.0881 20.0654 21.131 20.0557 21.1763C20.046 21.2215 20.0453 21.2682 20.0537 21.3137C20.0621 21.3592 20.0793 21.4026 20.1044 21.4414C20.1296 21.4803 20.1621 21.5138 20.2002 21.5401C20.7942 21.9803 21.4229 22.3716 22.0802 22.71C23.0002 23 24.3302 20.8401 23.9102 20.0001Z" fill="black"/>
<path fill-rule="evenodd" clip-rule="evenodd" d="M17.0001 7.00003C16.7701 2.70003 16.9001 3.00003 16.9001 3.00003C16.9001 1.22003 13.3601 -0.0699712 13.3601 0.900029C13.36 0.988496 13.3945 1.0735 13.4561 1.13698C13.5177 1.20046 13.6016 1.23743 13.6901 1.24003C14.2507 1.29955 14.7855 1.50658 15.2401 1.84003C16.8301 2.94003 16.0501 3.97003 14.2401 4.56003C12.2401 5.22003 5.56006 5.56003 3.16006 4.48003C2.48977 4.25107 1.89494 3.84299 1.44006 3.30003C1.11006 2.71003 2.17006 2.17003 2.28006 2.10003C3.61393 1.40919 5.08827 1.03291 6.59006 1.00003C10.4901 0.720029 11.5901 1.36003 11.5901 0.720029C11.5928 0.680614 11.5877 0.64105 11.5751 0.60361C11.5624 0.56617 11.5426 0.53159 11.5165 0.501857C11.4905 0.472123 11.4589 0.447822 11.4235 0.430347C11.388 0.412873 11.3495 0.402569 11.3101 0.400029C8.81006 0.200029 5.21006 -0.159971 2.69006 0.810029C1.61006 1.23003 0.110063 2.00003 0.290063 3.25003C6.29425e-05 5.11003 0.220063 7.77003 0.130063 8.90003C-0.0489972 11.7213 -0.0289475 14.5516 0.190063 17.37C0.293495 18.3414 0.748788 19.2413 1.47006 19.9C3.72006 21.79 8.84006 21.66 11.6701 20.9C11.7589 20.8801 11.8362 20.8258 11.885 20.7489C11.9337 20.672 11.95 20.5789 11.9301 20.49C11.9102 20.4012 11.8558 20.3239 11.7789 20.2751C11.702 20.2264 11.6089 20.2101 11.5201 20.23C9.08984 20.7483 6.56785 20.6416 4.19006 19.92C3.46841 19.7722 2.78658 19.4722 2.19006 19.04C1.83214 18.7254 1.55131 18.3327 1.36925 17.8923C1.18719 17.4519 1.10878 16.9756 1.14006 16.5C1.00006 15.46 0.820063 5.36003 0.830063 4.31003C3.00006 6.60003 7.00006 6.30003 9.80006 6.20003C11.6901 6.11003 14.5901 5.81003 16.0501 4.58003C15.9844 6.70172 16.0445 8.82545 16.2301 10.94C16.2221 10.9833 16.2237 11.0278 16.2348 11.0704C16.2459 11.113 16.2663 11.1526 16.2945 11.1865C16.3226 11.2203 16.3579 11.2475 16.3977 11.2662C16.4376 11.2849 16.481 11.2946 16.5251 11.2946C16.5691 11.2946 16.6126 11.2849 16.6524 11.2662C16.6923 11.2475 16.7275 11.2203 16.7557 11.1865C16.7838 11.1526 16.8042 11.113 16.8153 11.0704C16.8264 11.0278 16.8281 10.9833 16.8201 10.94C17.0193 9.63676 17.0796 8.31603 17.0001 7.00003Z" fill="black"/>
<path fill-rule="evenodd" clip-rule="evenodd" d="M9.39 8.72006C6.99781 8.66913 4.61205 8.45194 2.25 8.07006C1.63 7.82006 1.13 8.39006 1.98 8.73006C4.15505 9.41483 6.43119 9.7226 8.71 9.64006C11.05 9.64006 13.57 9.33006 15.35 8.20006C15.75 7.95006 15.82 7.42006 14.94 7.59006C13.1826 8.3289 11.2964 8.71293 9.39 8.72006Z" fill="black"/>
<path fill-rule="evenodd" clip-rule="evenodd" d="M6.21991 13.71C8.18082 13.9875 10.1776 13.865 12.0899 13.35C13.1317 13.0989 14.1517 12.7645 15.1399 12.35C15.2165 12.3122 15.2761 12.247 15.3068 12.1672C15.3375 12.0875 15.337 11.9991 15.3055 11.9197C15.274 11.8403 15.2137 11.7757 15.1367 11.7387C15.0597 11.7017 14.9716 11.695 14.8899 11.72C11.2199 13.15 4.76991 13.05 1.88991 11.72C1.32991 11.55 1.41991 12.18 1.88991 12.49C3.24806 13.154 4.71492 13.5673 6.21991 13.71Z" fill="black"/>
<path fill-rule="evenodd" clip-rule="evenodd" d="M6.3003 17.57C8.11589 17.7218 9.94335 17.5006 11.6703 16.92C11.7143 16.9095 11.7558 16.8904 11.7924 16.8639C11.829 16.8373 11.8601 16.8038 11.8837 16.7653C11.9074 16.7268 11.9233 16.6839 11.9304 16.6393C11.9375 16.5946 11.9358 16.549 11.9253 16.505C11.9148 16.461 11.8957 16.4195 11.8692 16.3829C11.8426 16.3463 11.8091 16.3152 11.7706 16.2915C11.7321 16.2679 11.6893 16.252 11.6446 16.2449C11.5999 16.2377 11.5543 16.2395 11.5103 16.25C9.93825 16.5757 8.32324 16.6399 6.7303 16.44C3.6003 16.32 4.7303 16.54 1.9603 15.62C1.4603 15.49 1.3303 15.98 1.9603 16.37C3.28572 17.1221 4.77675 17.5344 6.3003 17.57Z" fill="black"/>
</g>
<defs>
<clipPath id="clip0_36_1202">
<rect width="24" height="24" fill="white"/>
</clipPath>
</defs>
</svg>
