<svg width="24" height="24" viewBox="0 0 24 24" fill="none" xmlns="http://www.w3.org/2000/svg">
<g clip-path="url(#clip0_36_1121)">
<path d="M11.7699 13.43C11.9267 13.4172 12.0742 13.3504 12.1873 13.2409C12.3003 13.1315 12.372 12.9863 12.3899 12.83C12.4728 10.4963 12.4361 8.15995 12.2799 5.83002C12.1599 5.57002 12.2799 5.57002 11.9199 5.35002C11.1999 4.90002 6.33994 3.39002 5.76994 4.00002C5.26994 5.29002 5.48994 10.77 5.55994 11C5.81994 11.83 10.6899 13.61 11.7699 13.43ZM6.20994 4.55002H6.55994C8.19461 4.8719 9.79268 5.35769 11.3299 6.00002C11.3299 6.24002 11.5799 6.12002 11.3299 12.3C9.6156 11.9534 7.95456 11.3817 6.38994 10.6C6.37994 10.54 6.14994 7.29002 6.20994 4.55002Z" fill="black"/>
<path d="M16.5003 4.10001C16.5003 4.18001 16.9503 9.74001 16.9003 10.1C16.9003 10.1 15.2603 11.17 14.9703 11.32C14.1403 11.77 13.1403 12.2 12.7803 12.32C12.5803 12.56 12.5503 13.02 13.0703 12.88C14.5618 12.4079 15.9919 11.76 17.3303 10.95C17.8235 11.0461 18.3109 11.1696 18.7903 11.32C20.5603 11.78 21.3803 11.61 21.5903 11.77C21.8903 12.1 23.0503 11.42 20.3703 10.55C19.565 10.3174 18.7281 10.2128 17.8903 10.24C17.9782 8.03434 17.8341 5.82555 17.4603 3.65001C17.4445 3.55676 17.4106 3.46754 17.3603 3.38742C17.3101 3.30731 17.2446 3.23787 17.1675 3.18308C17.0904 3.1283 17.0033 3.08923 16.9111 3.06811C16.819 3.04699 16.7235 3.04424 16.6303 3.06001C15.2102 3.44013 13.8599 4.0444 12.6303 4.85001C12.3903 5.13001 12.4303 5.49001 12.7703 5.52001C13.951 4.89631 15.2037 4.41943 16.5003 4.10001Z" fill="black"/>
<path d="M3.54006 12.39C4.1186 12.1714 4.66646 11.879 5.17006 11.52C5.23663 11.4946 5.29198 11.4463 5.32621 11.3838C5.36044 11.3213 5.37131 11.2487 5.35687 11.1789C5.34244 11.1091 5.30364 11.0468 5.24742 11.003C5.19121 10.9592 5.12125 10.9369 5.05006 10.94C3.05006 10.94 1.72006 12.22 1.96006 12.65C2.20006 13.08 2.82006 12.64 3.54006 12.39Z" fill="black"/>
<path d="M7.45992 3.51997C8.14992 3.18997 11.1799 2.19997 11.2599 2.17997C12.6796 2.26297 14.0905 2.4569 15.4799 2.75997C15.533 2.81566 15.606 2.848 15.6828 2.84988C15.7597 2.85176 15.8342 2.82301 15.8899 2.76997C15.9456 2.71692 15.978 2.64393 15.9798 2.56704C15.9817 2.49015 15.953 2.41566 15.8999 2.35997C14.377 1.58895 12.7056 1.15575 10.9999 1.08997C9.78648 1.49794 8.61455 2.02029 7.49992 2.64997C7.10992 2.85997 6.43992 3.19997 6.59992 3.64997C6.75992 4.09997 7.32992 3.57997 7.45992 3.51997Z" fill="black"/>
<path d="M18.5202 21.3999C18.6017 19.1889 18.5516 16.975 18.3702 14.7699C18.3702 14.4999 18.3702 14.4999 18.0102 14.2999C17.2802 13.9199 12.3702 13.0299 11.8102 13.6399C11.7502 13.7799 11.6302 13.4099 11.5702 15.6399C11.4902 18.7099 11.5702 19.7699 11.9402 20.3199C12.6702 20.9399 16.7302 22.6599 17.8602 22.3899C18.1502 22.3399 18.5502 22.3799 18.5202 21.3999ZM17.4002 21.2899C15.9791 21.0053 14.5915 20.5729 13.2602 19.9999C13.0117 19.9209 12.7679 19.8274 12.5302 19.7199C12.307 17.8788 12.2135 16.0242 12.2502 14.1699C12.3402 13.8099 16.9302 14.7999 17.4302 15.0899C17.5702 16.0599 17.4202 20.9199 17.4002 21.2899Z" fill="black"/>
<path d="M10.1602 20.4199C9.71017 20.6199 9.23017 20.8699 8.80017 21.0999C8.14017 21.4499 8.06017 21.4999 7.80017 21.6099C7.27017 21.9499 7.00017 22.4899 7.80017 22.4899C8.98866 22.2005 10.114 21.6955 11.1202 20.9999C11.7502 20.2899 11.6102 19.7099 11.1202 19.9999L10.1602 20.4199Z" fill="black"/>
<path d="M7.06013 21.5099C7.09013 19.9999 7.00013 15.9999 7.00013 15.4599C6.96282 15.277 6.87133 15.1096 6.73757 14.9794C6.60381 14.8492 6.43397 14.7623 6.25013 14.7299C5.47013 14.5999 1.00013 12.9399 0.370134 13.5899L0.230134 13.9999C-0.189866 14.4299 0.0701339 20.2699 0.170134 20.5799C0.390134 21.2899 3.76013 22.4399 4.47013 22.6599C5.11828 22.8532 5.79467 22.9344 6.47013 22.8999C6.59799 22.8912 6.71934 22.8403 6.81522 22.7552C6.91111 22.6702 6.97613 22.5558 7.00013 22.4299C7.00013 22.2199 7.06013 21.5099 7.06013 21.5099ZM5.92013 21.8799C4.498 21.585 3.1105 21.1427 1.78013 20.5599C1.41013 20.3999 0.890134 20.2899 1.00013 20.1699C1.01257 20.0469 1.01257 19.923 1.00013 19.7999C1.00013 19.7999 0.460134 13.9999 1.17013 14.1099C2.80519 14.4396 4.40315 14.932 5.94013 15.5799C5.94013 15.8199 6.18013 15.7199 5.92013 21.8799Z" fill="black"/>
<path d="M10.5904 14.12C10.6311 14.1035 10.6681 14.0793 10.6995 14.0485C10.7308 14.0178 10.7558 13.9812 10.7729 13.9408C10.7901 13.9004 10.7992 13.857 10.7996 13.8131C10.8 13.7692 10.7918 13.7257 10.7754 13.685C10.7589 13.6443 10.7347 13.6072 10.7039 13.5758C10.6732 13.5445 10.6366 13.5195 10.5962 13.5024C10.5558 13.4852 10.5124 13.4761 10.4685 13.4757C10.4246 13.4753 10.3811 13.4835 10.3404 13.5C9.48842 13.6616 8.6495 13.8855 7.83035 14.17C7.60163 14.285 7.38688 14.4259 7.19035 14.59C6.86035 15 7.06035 15.09 7.65035 15.18C8.70197 15.071 9.71114 14.7071 10.5904 14.12Z" fill="black"/>
<path d="M23.56 12.65C23.5304 12.4619 23.4276 12.2931 23.2739 12.1807C23.1202 12.0682 22.9282 12.0213 22.74 12.05C21.2513 12.4888 19.8359 13.146 18.54 14C18.12 14.27 18.37 14.81 18.88 14.55C20.0624 13.9302 21.3101 13.4439 22.6 13.1C22.6 13.66 22.66 12.97 22.86 16.84C23 19.44 23.06 18.98 22.8 19.19C21.6718 20.0012 20.4496 20.6727 19.16 21.19C18.61 21.59 18.53 22.05 19.16 21.99C20.89 21.3 23.77 19.99 23.97 19.37C24.0791 17.1218 23.9416 14.8683 23.56 12.65Z" fill="black"/>
</g>
<defs>
<clipPath id="clip0_36_1121">
<rect width="24" height="24" fill="white"/>
</clipPath>
</defs>
</svg>
