<svg width="24" height="24" viewBox="0 0 24 24" fill="none" xmlns="http://www.w3.org/2000/svg">
<g clip-path="url(#clip0_36_973)">
<path fill-rule="evenodd" clip-rule="evenodd" d="M22.27 12.6799L22.02 12.0799C21.9742 11.9779 21.8973 11.8929 21.8003 11.8373C21.7033 11.7816 21.5912 11.758 21.48 11.7699C21.16 11.8199 20.83 11.9399 20.48 11.9699C20.4025 11.9719 20.326 11.9524 20.259 11.9135C20.1919 11.8747 20.1369 11.8181 20.1 11.7499C20.0614 11.683 20.0411 11.6072 20.0411 11.5299C20.0411 11.4527 20.0614 11.3768 20.1 11.3099C20.2318 11.0658 20.4043 10.846 20.61 10.6599C20.69 10.5799 20.92 10.3899 21.05 10.2399C21.1682 10.1145 21.2389 9.95186 21.25 9.77992C21.2598 9.65771 21.2427 9.53483 21.2 9.41992C21.2 9.28992 21.03 9.10992 21.01 9.02992L20.42 7.81992C20.3215 7.6267 20.2113 7.43968 20.09 7.25992C19.9918 7.12845 19.85 7.03627 19.69 6.99992C19.5615 6.97173 19.4285 6.97173 19.3 6.99992C19.18 6.99992 19 7.14992 18.93 7.17992L18 7.61992C17.91 7.51992 17.82 7.43992 17.8 7.41992C17.5802 7.18567 17.3051 7.01032 17 6.90992C16.7032 6.8148 16.3896 6.78412 16.08 6.81992C15.5492 6.8778 15.0616 7.13952 14.72 7.54992C14.5499 7.74801 14.4221 7.97889 14.3447 8.22829C14.2673 8.47768 14.2419 8.7403 14.27 8.99992C14.2925 9.14324 14.3294 9.28395 14.38 9.41992C14.4024 9.48497 14.4291 9.54844 14.46 9.60992L14.08 9.76992L13.48 10.0599C12.96 10.5099 13.18 10.9899 13.74 10.7699L14.37 10.5199C14.55 10.4599 14.79 10.4199 15 10.3499C15.123 10.3074 15.2405 10.2504 15.35 10.1799C15.4344 10.1057 15.492 10.0056 15.5137 9.89532C15.5354 9.785 15.52 9.6706 15.47 9.56992C15.47 9.50992 15.36 9.35992 15.36 9.34992L15.24 8.90992C15.2382 8.65864 15.331 8.41587 15.5 8.22992C15.6878 8.07407 15.9261 7.99226 16.17 7.99992C16.3141 7.99599 16.4574 8.02329 16.59 8.07992C16.7063 8.12798 16.8092 8.20346 16.89 8.29992C16.89 8.29992 17.1 8.65992 17.18 8.77992C17.2415 8.88273 17.3276 8.96859 17.4306 9.0297C17.5337 9.09082 17.6503 9.12526 17.77 9.12992C17.8908 9.1094 18.0063 9.06522 18.11 8.99992L18.43 8.80992L19.32 8.45992L19.87 9.53992L19.92 9.68992L19.75 9.80992C19.3894 10.1889 19.1313 10.6535 19 11.1599C18.9537 11.3743 18.9567 11.5963 19.0087 11.8094C19.0606 12.0224 19.1602 12.2209 19.3 12.3899C19.4195 12.5638 19.5771 12.7082 19.7608 12.8122C19.9444 12.9162 20.1494 12.9769 20.36 12.9899C20.6773 12.9767 20.9907 12.916 21.29 12.8099C21.37 12.9299 21.48 13.0499 21.48 13.0599C21.68 13.4499 21.91 13.8399 22.11 14.2299C22.16 14.3399 22.2 14.4599 22.25 14.5699C22.06 14.6599 21.88 14.7599 21.68 14.8399C21.27 15.0099 20.84 15.1099 20.42 15.2499C20 15.3899 19.56 15.5899 19.15 15.7599L17.63 16.6899L16.63 17.1799C16.5213 17.229 16.4365 17.3192 16.3943 17.4308C16.3521 17.5424 16.3559 17.6662 16.405 17.7749C16.4541 17.8837 16.5443 17.9685 16.6559 18.0106C16.7675 18.0528 16.8913 18.049 17 17.9999C17.9026 17.7297 18.7849 17.3955 19.64 16.9999C19.93 16.8799 20.23 16.7699 20.52 16.6299C20.81 16.4899 21.12 16.3299 21.4 16.1699C21.697 15.978 21.9841 15.7711 22.26 15.5499L22.2 16.6599C22.2 17.3399 22.2 17.5299 21.35 18.1299C20.7298 18.5061 20.085 18.8402 19.42 19.1299C18.86 19.4299 18.26 19.6899 17.67 19.9399C17.36 20.0799 17.03 20.2099 16.67 20.3399C16.67 20.0899 16.76 19.0499 16.31 19.0499C15.86 19.0499 15.53 19.2999 15.66 20.1299C15.71 20.4599 15.76 20.3499 15.87 20.6699L13.37 21.6699C12.45 22.0599 11.6 22.5299 10.69 22.8999C10.3195 23.0534 9.93852 23.1804 9.55 23.2799C9.45055 23.3025 9.36412 23.3636 9.30973 23.4499C9.25535 23.5361 9.23746 23.6405 9.26 23.7399C9.28255 23.8394 9.34367 23.9258 9.42994 23.9802C9.51621 24.0346 9.62055 24.0525 9.72 24.0299C10.1552 23.9384 10.5831 23.8147 11 23.6599C11.94 23.3599 12.83 22.9599 13.76 22.6599C15.02 22.2199 16.31 21.8399 17.54 21.3499C18.3855 21.0082 19.2073 20.6107 20 20.1599C20.6988 19.7932 21.3675 19.3719 22 18.8999C22.4329 18.541 22.7754 18.0855 23 17.5699C23.0558 17.4655 23.0834 17.3483 23.08 17.2299C23.08 17.0099 22.98 16.6999 22.97 16.5499C22.9 13.5099 23.74 16.0699 22.27 12.6799Z" fill="black"/>
<path fill-rule="evenodd" clip-rule="evenodd" d="M8.42986 23.1799C7.87009 22.9334 7.39905 22.5217 7.07986 21.9999C6.5609 21.1064 6.11286 20.1735 5.73986 19.2099C5.49986 18.6899 5.27986 18.1599 5.05986 17.6299C4.69986 16.8299 3.57986 13.9999 3.54986 13.9099C3.26986 13.2199 2.93986 12.5399 2.66986 11.8499C2.55986 11.5699 2.44986 11.2899 2.34986 10.9999C2.24986 10.7099 2.09986 10.1799 1.99986 9.75991C1.92634 9.50997 1.86626 9.25628 1.81986 8.99991C1.75918 8.77942 1.75774 8.54683 1.81568 8.3256C1.87362 8.10438 1.98889 7.90235 2.14986 7.73991C2.32986 7.48991 2.52986 7.25991 2.72986 7.02991C2.82437 7.85373 2.96458 8.67166 3.14986 9.47991C3.34986 10.3699 3.67986 11.0599 3.94986 11.9599C4.04986 12.2799 4.07986 12.4399 4.25986 12.9099C4.32891 13.0095 4.42891 13.0835 4.54433 13.1204C4.65975 13.1573 4.78412 13.1551 4.89814 13.114C5.01215 13.073 5.10942 12.9954 5.17483 12.8934C5.24024 12.7914 5.27013 12.6707 5.25986 12.5499C5.10986 12.1599 5.06986 12.0299 4.94986 11.7399C4.53986 10.7399 4.15986 9.73991 3.84986 8.73991C3.66986 7.99991 3.48986 7.30991 3.34986 6.59991C3.34986 6.59991 3.34986 6.53991 3.28986 6.49991C4.49986 6.05991 5.69986 5.49991 6.91986 5.06991C7.45829 4.8672 8.00948 4.70017 8.56986 4.56991C8.93841 4.38977 9.32354 4.24577 9.71986 4.13991C9.81986 4.32991 9.96986 4.59991 10.0899 4.87991C10.2043 5.11756 10.2851 5.36998 10.3299 5.62991C10.3299 5.62991 10.3299 5.74991 10.3299 5.62991C10.263 5.74581 10.1824 5.85325 10.0899 5.94991C9.86089 6.19182 9.67186 6.46861 9.52986 6.76991C9.45265 6.94299 9.41275 7.13039 9.41275 7.31991C9.41275 7.50944 9.45265 7.69683 9.52986 7.86991C9.66827 8.26846 9.92245 8.61664 10.2599 8.86991C10.6191 9.12556 11.0645 9.22972 11.4999 9.15991H11.6899C11.6841 9.193 11.6841 9.22683 11.6899 9.25991L12.0199 10.0899C12.3199 10.6099 12.8799 10.1399 12.7899 9.71991L12.5399 8.93991C12.4783 8.72272 12.4048 8.50907 12.3199 8.29991C12.2846 8.21977 12.2292 8.15008 12.1592 8.09753C12.0891 8.04499 12.0067 8.01137 11.9199 7.99991C11.8244 7.97808 11.7253 7.97808 11.6299 7.99991C11.5499 7.99991 11.2599 8.06991 11.2699 8.16991C11.1315 8.15434 11.0018 8.09475 10.8999 7.99991C10.7593 7.86912 10.6559 7.70354 10.5999 7.51991C10.5819 7.48069 10.5726 7.43806 10.5726 7.39491C10.5726 7.35177 10.5819 7.30913 10.5999 7.26991C10.7479 7.0523 10.9226 6.85409 11.1199 6.67991C11.3384 6.44868 11.4965 6.16699 11.5799 5.85991C11.6163 5.51924 11.5647 5.1749 11.4299 4.85991C11.2348 4.33635 10.9939 3.83105 10.7099 3.34991C10.6264 3.22116 10.5072 3.11949 10.367 3.05734C10.2267 2.99518 10.0713 2.97523 9.91986 2.99991C9.34874 3.10644 8.78441 3.24669 8.22986 3.41991C7.64047 3.61166 7.06565 3.8456 6.50986 4.11991C5.23986 4.68991 3.99986 5.40991 2.76986 5.99991L2.54986 6.14991C2.21986 6.48991 1.85986 6.83991 1.54986 7.21991C1.32328 7.48582 1.11924 7.77013 0.939863 8.06991C0.892026 8.17368 0.864853 8.28576 0.859863 8.39991C0.859863 8.61991 0.909863 8.93991 0.909863 9.06991C0.909863 9.37991 0.969863 9.67991 1.02986 9.98991C1.08986 10.2999 1.18986 10.8599 1.27986 11.2999C1.38083 11.7414 1.51112 12.1757 1.66986 12.5999C1.88986 13.1999 2.13986 13.7999 2.36986 14.3999C2.79986 15.4899 3.21986 16.5799 3.68986 17.6499C4.01986 18.3699 4.37986 19.0799 4.75986 19.7699C5.21564 20.7519 5.75075 21.695 6.35986 22.5899C6.82757 23.2365 7.48983 23.7166 8.24986 23.9599C8.32137 23.9796 8.39722 23.9767 8.46703 23.9517C8.53683 23.9266 8.5972 23.8806 8.63986 23.8199C8.69642 23.8762 8.77051 23.9115 8.84986 23.9199C8.90008 23.924 8.95061 23.9178 8.99835 23.9017C9.04609 23.8856 9.09003 23.8599 9.12748 23.8262C9.16494 23.7925 9.19511 23.7514 9.21615 23.7057C9.2372 23.6599 9.24867 23.6103 9.24986 23.5599C9.36207 23.1099 9.43897 22.6519 9.47986 22.1899C9.20986 21.6699 8.91986 21.4999 8.47986 21.8799C8.3771 22.3056 8.3601 22.7476 8.42986 23.1799Z" fill="black"/>
<path fill-rule="evenodd" clip-rule="evenodd" d="M11.6099 1.74996L11.8899 2.10996C11.9899 2.21996 12.0899 2.32997 12.1999 2.42997C13.1999 3.42997 13.1999 3.42996 13.4599 3.33996C13.9099 3.11996 13.2599 1.81996 13.1799 1.67996C13.0907 1.5188 12.9796 1.37073 12.8499 1.23996C12.7309 1.10492 12.5967 0.984113 12.4499 0.879965C11.1399 -0.120035 10.9099 0.219965 10.8199 0.359965C10.7299 0.499965 10.7799 0.719965 11.6099 1.74996Z" fill="black"/>
<path fill-rule="evenodd" clip-rule="evenodd" d="M15.5298 2.99997C15.6398 2.99997 15.8498 3.10997 16.3698 1.99997C16.4229 1.8952 16.4632 1.7844 16.4898 1.66997C16.4898 1.55997 16.4898 1.44997 16.5498 1.33997C16.6498 0.279973 16.6898 0.139973 16.4198 0.0199731C16.3098 0.0199731 15.9898 -0.200027 15.4198 1.01997C15.3569 1.13304 15.3098 1.25416 15.2798 1.37997C15.2421 1.50014 15.2186 1.62433 15.2098 1.74997C15.2098 1.74997 15.1598 2.99997 15.5298 2.99997Z" fill="black"/>
<path fill-rule="evenodd" clip-rule="evenodd" d="M19.2298 3.99999C19.3798 3.92999 19.5198 3.84999 19.6598 3.76999L20.0898 3.49999C21.2598 2.72999 21.4898 2.67999 21.3598 2.31999C21.2998 2.16999 21.2098 1.84999 19.5598 2.39999C19.3737 2.46547 19.1931 2.54572 19.0198 2.63999C18.8465 2.7383 18.6825 2.8521 18.5298 2.97999C18.2898 3.19999 17.3198 4.21999 17.6798 4.55999C18.0398 4.89999 17.9098 4.68999 19.2298 3.99999Z" fill="black"/>
<path fill-rule="evenodd" clip-rule="evenodd" d="M15.9997 17.24L15.4297 15.76C15.5997 15.66 15.7897 15.58 15.7997 15.57C16.1395 15.2852 16.404 14.9212 16.5697 14.51C16.6945 14.1921 16.7258 13.8451 16.6597 13.51C16.6243 13.3069 16.5475 13.1133 16.4339 12.9412C16.3204 12.7692 16.1726 12.6224 15.9997 12.51C15.5582 12.2251 15.0319 12.1015 14.5097 12.16L13.9297 12.28L13.7997 12.12L13.1697 11C13.1697 11 12.9897 10.43 12.8197 10.38C12.3397 10.24 11.4297 11.09 11.0497 11.32C10.9018 11.4098 10.7481 11.49 10.5897 11.56C10.4997 11.56 10.0897 11.71 9.92974 11.79C9.81598 11.8556 9.72784 11.9578 9.67974 12.08C9.66271 12.1692 9.66271 12.2608 9.67974 12.35C9.67974 12.5 9.80974 12.8 9.80974 12.92C9.82537 13.1734 9.78083 13.427 9.67974 13.66C9.60296 13.8495 9.46115 14.0055 9.27974 14.1C9.21861 14.1341 9.14976 14.1521 9.07974 14.1521C9.00972 14.1521 8.94086 14.1341 8.87974 14.1C8.66134 13.9771 8.46799 13.8143 8.30974 13.62C8.15538 13.429 7.98834 13.2485 7.80974 13.08C7.64611 12.9526 7.44692 12.8792 7.23974 12.87C7.09764 12.8783 6.95685 12.9018 6.81974 12.94C6.45974 13.02 6.08974 13.21 5.74974 13.25H5.61974C5.29974 13.12 4.43974 13.7 4.55974 14.04C4.55974 14.11 5.55974 16.42 5.90974 17.24C6.16974 17.89 6.42974 18.53 6.70974 19.16C6.90008 19.6442 7.14144 20.1068 7.42974 20.54C7.60929 20.7611 7.82177 20.9534 8.05974 21.11C8.45165 21.3209 8.88558 21.442 9.33009 21.4645C9.7746 21.487 10.2185 21.4103 10.6297 21.24C11.3141 21.0524 11.9828 20.8116 12.6297 20.52C13.2502 20.2186 13.8543 19.8848 14.4397 19.52C14.6897 19.37 15.1597 19.18 15.5197 18.95C15.5197 19.03 16.2097 18.54 16.2697 18.3C16.2925 17.9271 16.1981 17.5565 15.9997 17.24ZM15.0697 14.72C15.0697 14.72 14.6197 15.02 14.4697 15.14C14.3661 15.2141 14.287 15.3174 14.2424 15.4368C14.1979 15.5562 14.19 15.6861 14.2197 15.81L14.7997 17.6L14.8997 17.78L14.6997 17.89C14.3597 18.08 13.9397 18.25 13.6997 18.38C13.1497 18.71 12.5897 19.02 11.9997 19.3C11.4278 19.5738 10.8361 19.8045 10.2297 19.99C9.9354 20.0906 9.62975 20.1544 9.31974 20.18C9.0529 20.2039 8.78439 20.1591 8.53974 20.05C8.37697 19.9629 8.23926 19.8355 8.13974 19.68C7.92184 19.3615 7.72797 19.0272 7.55974 18.68C7.15974 17.93 6.78974 17.17 6.42974 16.4C6.06974 15.63 5.87974 15.16 5.60974 14.53H5.81974C7.65974 14.05 6.97974 14.16 7.34974 14.53C7.6813 14.8966 8.10135 15.172 8.56974 15.33C8.76621 15.3924 8.97355 15.413 9.17847 15.3907C9.38339 15.3683 9.58137 15.3033 9.75974 15.2C10.0928 15.0132 10.3587 14.7263 10.5197 14.38C10.7403 13.9235 10.8236 13.4129 10.7597 12.91C10.7349 12.8183 10.6906 12.733 10.6297 12.66C10.7697 12.59 10.9197 12.47 10.9597 12.45C11.1454 12.3496 11.3257 12.2394 11.4997 12.12C11.8097 11.9 12.1097 11.65 12.4297 11.43L13.0297 12.62C13.0868 12.7918 13.1641 12.9563 13.2597 13.11C13.3374 13.2079 13.4472 13.2752 13.5697 13.3C13.7057 13.3201 13.8438 13.3201 13.9797 13.3C14.1797 13.3 14.4097 13.2 14.5897 13.19C14.8367 13.1757 15.0827 13.2312 15.2997 13.35C15.3827 13.3881 15.4557 13.445 15.513 13.5161C15.5703 13.5873 15.6102 13.6708 15.6297 13.76C15.6518 13.9407 15.6131 14.1237 15.5197 14.28C15.3969 14.4487 15.2485 14.5972 15.0797 14.72H15.0697Z" fill="black"/>
</g>
<defs>
<clipPath id="clip0_36_973">
<rect width="24" height="24" fill="white"/>
</clipPath>
</defs>
</svg>
