<svg width="24" height="24" viewBox="0 0 24 24" fill="none" xmlns="http://www.w3.org/2000/svg">
<g clip-path="url(#clip0_36_964)">
<path fill-rule="evenodd" clip-rule="evenodd" d="M9.10992 20.5299C8.91857 20.265 8.69332 20.0263 8.43992 19.8199C8.06983 19.5514 7.66209 19.3392 7.22992 19.1899C7.32112 19.133 7.40801 19.0695 7.48992 18.9999C7.95537 18.6482 8.28313 18.1447 8.41645 17.5767C8.54977 17.0087 8.48025 16.412 8.21992 15.8899C7.97868 15.3361 7.55614 14.8809 7.0218 14.5992C6.48746 14.3175 5.87315 14.2261 5.27992 14.3399C4.75125 14.4591 4.25587 14.6948 3.82992 15.0299C3.36177 15.3667 3.01182 15.8426 2.82992 16.3899C2.70638 16.7993 2.68185 17.2322 2.75835 17.6529C2.83484 18.0737 3.01018 18.4702 3.26992 18.8099C3.41842 18.977 3.59018 19.1218 3.77992 19.2399C3.55198 19.3005 3.33083 19.3843 3.11992 19.4899C2.76263 19.7085 2.4476 19.9897 2.18992 20.3199C1.95312 20.645 1.77074 21.0063 1.64992 21.3899C1.41192 22.1593 1.43654 22.986 1.71992 23.7399C1.74526 23.8163 1.79844 23.8803 1.86886 23.9192C1.93928 23.9581 2.02178 23.9691 2.09992 23.9499C2.17771 23.9267 2.24329 23.8739 2.28256 23.8028C2.32182 23.7318 2.33165 23.6481 2.30992 23.5699C2.26187 23.0767 2.33393 22.5792 2.51992 22.1199C2.65027 21.7659 2.825 21.4299 3.03992 21.1199C3.21349 20.8181 3.44052 20.5504 3.70992 20.3299C3.88029 20.189 4.0686 20.0713 4.26992 19.9799C4.61701 19.8331 4.9747 19.7128 5.33992 19.6199C5.38896 19.6082 5.4349 19.5861 5.4746 19.555C5.51429 19.524 5.54681 19.4847 5.56992 19.4399C5.64244 19.421 5.70523 19.3756 5.74595 19.3126C5.78666 19.2497 5.80235 19.1738 5.78992 19.0999C5.77304 19.0209 5.72596 18.9516 5.65872 18.9067C5.59147 18.8619 5.50937 18.8451 5.42992 18.8599C5.16775 18.9098 4.89701 18.8888 4.64564 18.7992C4.39426 18.7095 4.17136 18.5544 3.99992 18.3499C3.8562 18.1108 3.77209 17.8406 3.75468 17.5621C3.73728 17.2837 3.78709 17.0051 3.89992 16.7499C4.03956 16.4484 4.25702 16.1895 4.52992 15.9999C4.82913 15.7812 5.16917 15.6248 5.52992 15.5399C5.88148 15.4625 6.24884 15.5052 6.57331 15.6611C6.89778 15.8169 7.16065 16.0771 7.31992 16.3999C7.50921 16.7266 7.5807 17.1084 7.52246 17.4815C7.46422 17.8546 7.27978 18.1964 6.99992 18.4499C6.91227 18.5288 6.81479 18.596 6.70992 18.6499L6.34992 18.7799C6.17992 18.7799 5.99992 19.1699 5.98992 19.1799C5.96522 19.2687 5.97657 19.3637 6.02151 19.4443C6.06645 19.5248 6.14134 19.5843 6.22992 19.6099C6.78328 19.8336 7.28143 20.1748 7.68992 20.6099C7.85989 20.7823 8.01385 20.9697 8.14992 21.1699C8.28855 21.3671 8.41223 21.5743 8.51992 21.7899C8.79443 22.3125 8.91902 22.9009 8.87992 23.4899C8.87139 23.5287 8.87057 23.5687 8.8775 23.6078C8.88444 23.6468 8.89901 23.6841 8.92037 23.7175C8.9635 23.7851 9.03168 23.8327 9.10992 23.8499C9.18816 23.8672 9.27004 23.8526 9.33756 23.8095C9.40507 23.7663 9.45268 23.6982 9.46992 23.6199C9.73747 22.9053 9.76902 22.1238 9.55992 21.3899C9.4576 21.0807 9.30561 20.7903 9.10992 20.5299Z" fill="black"/>
<path fill-rule="evenodd" clip-rule="evenodd" d="M19.0698 20.53C18.8776 20.2625 18.6487 20.0235 18.3898 19.82C18.0233 19.5515 17.6189 19.3392 17.1898 19.19C17.2698 19.14 17.3698 19.1 17.4498 19.04C17.9137 18.687 18.2402 18.1836 18.3734 17.6161C18.5066 17.0486 18.4382 16.4525 18.1798 15.93C17.9371 15.3773 17.5143 14.9233 16.9804 14.6418C16.4464 14.3603 15.8329 14.268 15.2398 14.38C14.7104 14.4972 14.2146 14.7331 13.7898 15.07C13.3226 15.4077 12.9729 15.8833 12.7898 16.43C12.6676 16.8401 12.6447 17.2735 12.723 17.6942C12.8012 18.115 12.9783 18.5111 13.2398 18.85C13.3847 19.0168 13.5532 19.1616 13.7398 19.28C13.5129 19.344 13.2921 19.4276 13.0798 19.53C12.7276 19.7516 12.4163 20.0324 12.1598 20.36C11.9154 20.6803 11.7323 21.0431 11.6198 21.43C11.3763 22.1986 11.401 23.0272 11.6898 23.78C11.713 23.8578 11.7658 23.9233 11.8369 23.9626C11.9079 24.0019 11.9916 24.0117 12.0698 23.99C12.1476 23.9668 12.2131 23.9139 12.2524 23.8429C12.2917 23.7718 12.3015 23.6882 12.2798 23.61C12.2289 23.1167 12.301 22.6185 12.4898 22.16C12.6166 21.8063 12.788 21.4703 12.9998 21.16C13.1799 20.8599 13.4099 20.5928 13.6798 20.37C13.847 20.2248 14.036 20.1067 14.2398 20.02C14.5835 19.8732 14.9378 19.7529 15.2998 19.66C15.3494 19.6496 15.3959 19.628 15.4358 19.5968C15.4757 19.5656 15.5078 19.5256 15.5298 19.48C15.6036 19.4632 15.6679 19.4183 15.709 19.3547C15.7501 19.2912 15.7647 19.2141 15.7498 19.14C15.7426 19.1012 15.7278 19.0643 15.7063 19.0313C15.6848 18.9982 15.657 18.9698 15.6245 18.9475C15.592 18.9252 15.5554 18.9095 15.5169 18.9014C15.4783 18.8932 15.4385 18.8927 15.3998 18.9C15.1195 18.9546 14.8295 18.9281 14.5638 18.8236C14.2981 18.7191 14.0677 18.5409 13.8998 18.31C13.7561 18.0708 13.6719 17.8006 13.6545 17.5222C13.6371 17.2437 13.687 16.9652 13.7998 16.71C13.9414 16.3954 14.1705 16.1281 14.4598 15.94C14.758 15.7196 15.0984 15.563 15.4598 15.48C15.8113 15.4026 16.1787 15.4452 16.5032 15.6011C16.8276 15.757 17.0905 16.0172 17.2498 16.34C17.4653 16.6641 17.5585 17.0544 17.5127 17.4409C17.4669 17.8275 17.2851 18.1852 16.9998 18.45C16.9138 18.5264 16.82 18.5934 16.7198 18.65C16.4398 18.78 16.1398 18.75 15.9998 19.18C15.9751 19.2688 15.9864 19.3638 16.0314 19.4443C16.0763 19.5248 16.1512 19.5844 16.2398 19.61C16.7918 19.8361 17.2895 20.177 17.6998 20.61C17.8668 20.785 18.0205 20.9722 18.1598 21.17C18.2952 21.3673 18.4155 21.5746 18.5198 21.79C18.7978 22.3116 18.9258 22.9 18.8898 23.49C18.8795 23.5288 18.8774 23.5693 18.8835 23.609C18.8897 23.6487 18.9041 23.6867 18.9257 23.7205C18.9473 23.7544 18.9757 23.7833 19.0091 23.8056C19.0426 23.8279 19.0802 23.843 19.1198 23.85C19.1978 23.8651 19.2787 23.8497 19.3457 23.8069C19.4127 23.7641 19.4607 23.6972 19.4798 23.62C19.744 22.9043 19.7721 22.1228 19.5598 21.39C19.4452 21.0782 19.2796 20.7875 19.0698 20.53Z" fill="black"/>
<path fill-rule="evenodd" clip-rule="evenodd" d="M6.62011 4.50991C6.23011 4.68991 5.86011 4.84991 5.50011 5.05991C5.25182 5.20711 5.01149 5.36734 4.78012 5.53991C4.64042 5.64554 4.50687 5.75906 4.38012 5.87991C4.26696 5.99383 4.19335 6.14104 4.17012 6.29991C4.15116 6.42815 4.16405 6.55908 4.20764 6.68115C4.25124 6.80323 4.32421 6.9127 4.42012 6.99991C4.70395 7.20812 5.00897 7.38577 5.33011 7.52991L6.08011 7.80991C6.16631 7.83776 6.26004 7.83023 6.34068 7.78897C6.42132 7.74771 6.48227 7.67611 6.51012 7.58991C6.53796 7.50372 6.53043 7.40999 6.48917 7.32935C6.44791 7.24871 6.37631 7.18776 6.29011 7.15991L5.80012 6.74991C5.80012 6.74991 5.58011 6.59991 5.42011 6.47991L5.56011 6.40991L7.00011 4.99991C7.05145 4.94835 7.08301 4.88038 7.08928 4.80789C7.09555 4.73541 7.07612 4.66302 7.03439 4.60342C6.99267 4.54381 6.93131 4.50078 6.86106 4.48186C6.7908 4.46294 6.71613 4.46933 6.65012 4.49991L6.62011 4.50991Z" fill="black"/>
<path fill-rule="evenodd" clip-rule="evenodd" d="M9.64006 2.73001C9.30006 3.31001 8.92006 3.85001 8.64006 4.44001C8.50006 4.69001 8.37006 4.96001 8.25006 5.23001C8.13006 5.50001 7.99006 5.91001 7.89006 6.23001C7.67006 7.03001 7.53006 7.84001 7.29006 8.64001C7.26361 8.68332 7.2469 8.73186 7.24108 8.78228C7.23526 8.83269 7.24047 8.88377 7.25636 8.93197C7.27224 8.98016 7.29842 9.02433 7.33307 9.06141C7.36772 9.09848 7.41002 9.12758 7.45704 9.14668C7.50405 9.16578 7.55466 9.17443 7.60535 9.17202C7.65604 9.16962 7.70561 9.15622 7.7506 9.13275C7.7956 9.10929 7.83496 9.07632 7.86595 9.03613C7.89693 8.99594 7.91881 8.94949 7.93006 8.90001C8.21006 8.36001 8.46006 7.81001 8.69006 7.25001C8.92006 6.69001 9.10006 6.15001 9.33006 5.61001L10.2001 3.00001C10.2165 2.96332 10.2253 2.92372 10.2261 2.88355C10.2269 2.84337 10.2197 2.80345 10.2047 2.76614C10.1898 2.72883 10.1675 2.6949 10.1393 2.66636C10.111 2.63782 10.0772 2.61526 10.0401 2.60001C9.96966 2.5649 9.88828 2.55886 9.81346 2.58317C9.73865 2.60749 9.67637 2.66022 9.64006 2.73001Z" fill="black"/>
<path fill-rule="evenodd" clip-rule="evenodd" d="M12.2798 7.15C12.413 7.06312 12.5341 6.95887 12.6398 6.84C12.7392 6.73203 12.8234 6.6109 12.8898 6.48C12.9312 6.38251 12.9465 6.27593 12.9343 6.17072C12.922 6.06552 12.8825 5.96532 12.8198 5.88C12.6489 5.66084 12.4427 5.4716 12.2098 5.32C11.7192 5.08136 11.2111 4.88077 10.6898 4.72C10.6193 4.67968 10.5359 4.66862 10.4573 4.68919C10.3788 4.70976 10.3115 4.76032 10.2698 4.83C10.2485 4.86454 10.2344 4.90305 10.2284 4.94319C10.2224 4.98333 10.2246 5.02428 10.2349 5.06354C10.2452 5.10281 10.2633 5.13958 10.2882 5.17163C10.3131 5.20367 10.3443 5.23034 10.3798 5.25L11.2498 5.95L11.6198 6.26L11.2398 6.66L10.5298 7.23C10.491 7.25432 10.4575 7.28623 10.4314 7.32381C10.4052 7.3614 10.3869 7.40387 10.3776 7.4487C10.3682 7.49353 10.368 7.53978 10.377 7.58468C10.386 7.62958 10.4039 7.6722 10.4298 7.71C10.4531 7.74847 10.4841 7.78175 10.5208 7.80781C10.5575 7.83386 10.5992 7.85214 10.6432 7.8615C10.6872 7.87087 10.7327 7.87113 10.7768 7.86227C10.8209 7.85342 10.8628 7.83563 10.8998 7.81L11.7198 7.45C11.9175 7.37213 12.1054 7.27145 12.2798 7.15Z" fill="black"/>
<path fill-rule="evenodd" clip-rule="evenodd" d="M14.61 9.53995C15.5931 8.0117 15.9743 6.17311 15.68 4.37995C15.5133 3.65323 15.1956 2.96967 14.7477 2.37361C14.2998 1.77754 13.7316 1.28228 13.08 0.919954C11.8014 0.179407 10.317 -0.125906 8.84998 0.0499543C7.08805 0.199766 5.38911 0.776377 3.89998 1.72995C2.90111 2.44121 2.14109 3.43831 1.71998 4.58995C1.25639 5.83145 1.29224 7.20434 1.81998 8.41995C2.32973 9.61952 3.27217 10.5834 4.45998 11.12C4.80246 11.2671 5.16187 11.3712 5.52998 11.43C6.05641 11.5109 6.58751 11.5576 7.11998 11.57C7.42312 11.5851 7.72684 11.5851 8.02998 11.57H8.36998C8.43998 11.79 8.51998 12 8.56998 12.22C8.67998 12.69 8.76998 13.16 8.83998 13.64L8.99998 14.45L9.13998 14.93C9.12995 14.9625 9.12995 14.9974 9.13998 15.03C9.17429 15.0954 9.22168 15.1531 9.27922 15.1996C9.33675 15.246 9.40319 15.2801 9.47444 15.2998C9.54569 15.3194 9.62022 15.3243 9.69341 15.314C9.76661 15.3037 9.83692 15.2785 9.89998 15.24C10.1098 15.1247 10.2883 14.9599 10.42 14.76C10.6077 14.4421 10.7651 14.1073 10.89 13.76L11.26 12.6L11.67 11.37C12.2695 11.3181 12.8484 11.1253 13.3593 10.8072C13.8702 10.4892 14.2987 10.055 14.61 9.53995ZM10.44 12.28L9.94998 13.28L9.87998 13.42C9.73998 13.02 9.59998 12.63 9.42998 12.24C9.25998 11.85 9.11998 11.56 8.93998 11.24C8.75998 10.92 8.93998 11.24 8.93998 11.18C8.93998 11.12 8.93998 11.18 8.87998 11.18C8.84149 11.1382 8.79123 11.1092 8.73587 11.0967C8.68051 11.0842 8.62266 11.0888 8.56998 11.11C8.37615 11.0971 8.18468 11.0601 7.99998 11C7.70998 11 7.41998 10.95 7.12998 10.93C6.63018 10.8996 6.13263 10.8395 5.63998 10.75C5.33271 10.6847 5.03404 10.584 4.74998 10.45C3.78341 9.94947 3.04079 9.10331 2.66998 8.07995C2.28553 7.08727 2.29627 5.98497 2.69998 4.99995C3.1743 3.81341 4.06737 2.84206 5.20998 2.26995C6.4016 1.69593 7.6841 1.33386 8.99998 1.19995C10.2212 1.03972 11.4617 1.2745 12.54 1.86995C13.0772 2.14333 13.5508 2.52685 13.9298 2.99552C14.3089 3.46418 14.5849 4.00746 14.74 4.58995C14.9884 5.88068 14.8384 7.21645 14.31 8.41995C14.1103 9.00973 13.7515 9.53288 13.2733 9.93167C12.7951 10.3305 12.216 10.5894 11.6 10.68C11.5138 10.6473 11.4181 10.65 11.3339 10.6874C11.2496 10.7249 11.1835 10.7941 11.15 10.88L10.44 12.28Z" fill="black"/>
<path fill-rule="evenodd" clip-rule="evenodd" d="M22.4498 6.37997C22.263 5.62834 21.9225 4.92355 21.4498 4.30997C20.9832 3.69258 20.3593 3.21186 19.6433 2.91809C18.9274 2.62431 18.1456 2.52826 17.3798 2.63997C17.3365 2.64198 17.2942 2.65334 17.2557 2.67328C17.2172 2.69322 17.1835 2.72126 17.1569 2.75547C17.1303 2.78968 17.1114 2.82926 17.1016 2.87147C17.0917 2.91367 17.0911 2.95752 17.0998 2.99997C17.1009 3.04082 17.1105 3.081 17.1281 3.11786C17.1458 3.15473 17.171 3.18745 17.2021 3.21389C17.2333 3.24032 17.2697 3.25988 17.3089 3.27127C17.3482 3.28266 17.3894 3.28562 17.4298 3.27997C18.0591 3.2681 18.6806 3.42049 19.233 3.72212C19.7854 4.02375 20.2496 4.46418 20.5798 4.99997C20.9179 5.52108 21.1648 6.09597 21.3098 6.69997C21.4762 7.30179 21.5204 7.93081 21.4398 8.54997C21.3664 9.21114 21.1293 9.84356 20.7498 10.39C20.3763 10.9381 19.8197 11.3351 19.1798 11.51C19.0919 11.5314 19.0157 11.5861 18.9672 11.6626C18.9187 11.739 18.9018 11.8313 18.9198 11.92C18.9198 11.92 18.9198 11.98 18.9798 12.01C18.902 11.9759 18.8144 11.9714 18.7335 11.9971C18.6525 12.0229 18.5837 12.0772 18.5398 12.15L18.0098 12.94L17.9198 13.04C17.9029 12.8197 17.8627 12.6018 17.7998 12.39C17.7593 12.2019 17.6772 12.0252 17.5595 11.8729C17.4419 11.7207 17.2917 11.5967 17.1198 11.51C16.9686 11.4455 16.8023 11.4247 16.6398 11.45C16.4098 11.45 16.0998 11.63 15.9498 11.65C15.6886 11.698 15.4248 11.7314 15.1598 11.75L13.9098 11.81C13.8696 11.8073 13.8293 11.8127 13.7912 11.8259C13.7531 11.8392 13.7181 11.8599 13.6882 11.887C13.6584 11.9141 13.6343 11.9469 13.6174 11.9835C13.6005 12.0201 13.5911 12.0597 13.5898 12.1C13.5895 12.1799 13.6191 12.2571 13.6727 12.3163C13.7264 12.3755 13.8003 12.4125 13.8798 12.42L16.0098 12.67C16.8398 12.67 16.4598 11.74 17.0098 14.24C17.0098 14.34 17.4498 14.85 17.8898 14.46C18.0398 14.32 18.4098 13.92 18.4298 13.89L18.7398 13.4L19.1798 12.49C19.2118 12.439 19.2287 12.3801 19.2287 12.32C19.2287 12.2598 19.2118 12.2009 19.1798 12.15C19.2485 12.1692 19.3212 12.1692 19.3898 12.15C20.2193 11.9972 20.9673 11.5541 21.4998 10.9C22.0397 10.2619 22.4111 9.49861 22.5798 8.67997C22.6979 7.91265 22.6536 7.12911 22.4498 6.37997Z" fill="black"/>
</g>
<defs>
<clipPath id="clip0_36_964">
<rect width="24" height="24" fill="white"/>
</clipPath>
</defs>
</svg>
