<svg width="24" height="24" viewBox="0 0 24 24" fill="none" xmlns="http://www.w3.org/2000/svg">
<g clip-path="url(#clip0_36_1164)">
<path fill-rule="evenodd" clip-rule="evenodd" d="M2.74995 10.15C2.74995 10.67 2.93995 11.15 2.99995 11.63C2.99722 11.679 3.00452 11.7279 3.02139 11.774C3.03826 11.82 3.06434 11.8621 3.09805 11.8976C3.13175 11.9332 3.17236 11.9615 3.2174 11.9809C3.26243 12.0002 3.31094 12.0101 3.35994 12.01C3.45907 12.0128 3.55534 11.9767 3.62821 11.9094C3.70108 11.8421 3.74476 11.7491 3.74995 11.65L3.89995 10.51C5.02681 10.3485 6.162 10.2517 7.29995 10.22C7.29995 10.63 7.39995 11.04 7.45995 11.45C7.45725 11.4986 7.46417 11.5473 7.48031 11.5932C7.49645 11.6392 7.52149 11.6814 7.55401 11.7177C7.58652 11.7539 7.62586 11.7834 7.66978 11.8044C7.7137 11.8254 7.76133 11.8375 7.80995 11.84C7.9101 11.8429 8.00751 11.8071 8.08198 11.7401C8.15646 11.6731 8.20228 11.5799 8.20995 11.48C8.27995 11.04 8.36995 10.62 8.42995 10.19H9.42995C10.1299 10.19 10.8199 10.19 11.5099 10.25V11.14V11.85L10.7999 11.91C10.1799 12.01 9.58994 12.18 8.98994 12.3C8.90153 12.3052 8.81861 12.3447 8.75885 12.41C8.69909 12.4754 8.66719 12.5615 8.66995 12.65C8.67757 12.7367 8.7181 12.8171 8.7832 12.8747C8.84831 12.9324 8.93303 12.9629 9.01995 12.96C9.72995 13.02 10.4099 13.12 11.1399 13.12H11.5799V13.26C11.5684 13.3579 11.5954 13.4563 11.6551 13.5347C11.7148 13.613 11.8026 13.6652 11.8999 13.68C11.9488 13.6885 11.9988 13.6868 12.047 13.6751C12.0952 13.6633 12.1404 13.6418 12.1798 13.6117C12.2192 13.5817 12.252 13.5438 12.2761 13.5005C12.3003 13.4572 12.3152 13.4094 12.3199 13.36C12.3247 13.2668 12.3247 13.1733 12.3199 13.08C12.9399 13.08 13.5299 12.94 14.1399 12.95C14.1886 12.9571 14.2382 12.9543 14.2857 12.942C14.3333 12.9296 14.378 12.9079 14.4171 12.8781C14.4562 12.8484 14.489 12.8111 14.5135 12.7685C14.538 12.7259 14.5538 12.6788 14.5599 12.63C14.567 12.5814 14.5642 12.5318 14.5519 12.4842C14.5395 12.4367 14.5178 12.392 14.4881 12.3529C14.4583 12.3138 14.421 12.281 14.3784 12.2565C14.3358 12.232 14.2887 12.2162 14.2399 12.21C13.6665 12.0592 13.0809 11.9588 12.4899 11.91C12.5602 11.5801 12.6103 11.2461 12.6399 10.91V10.3H13.7499L15.6399 10.44C15.6399 10.77 15.7299 11.11 15.7999 11.44C15.8012 11.4895 15.8124 11.5382 15.8328 11.5833C15.8532 11.6284 15.8825 11.6689 15.9189 11.7025C15.9552 11.736 15.998 11.762 16.0445 11.7787C16.0911 11.7955 16.1405 11.8027 16.1899 11.8C16.2898 11.7924 16.383 11.7466 16.45 11.6721C16.517 11.5976 16.5528 11.5002 16.5499 11.4C16.5499 11.1 16.6199 10.81 16.6699 10.51C17.1699 10.51 17.6699 10.56 18.1799 10.62L20.3099 10.78C20.3099 11.12 20.3899 11.45 20.4099 11.78C20.4071 11.8802 20.4429 11.9776 20.5099 12.0521C20.5769 12.1266 20.67 12.1724 20.7699 12.18C20.8194 12.1827 20.8688 12.1755 20.9154 12.1587C20.9619 12.142 21.0047 12.116 21.041 12.0825C21.0774 12.0489 21.1067 12.0084 21.1271 11.9633C21.1475 11.9182 21.1587 11.8695 21.1599 11.82C21.2825 11.3321 21.3793 10.8381 21.4499 10.34C21.4699 10.1205 21.4699 9.89959 21.4499 9.68004C21.5011 9.45668 21.5312 9.22902 21.5399 9.00004C21.1799 7.06004 21.1499 7.22004 20.9799 7.18004C20.6569 7.10179 20.3297 7.04169 19.9999 7.00004C19.2399 6.87004 18.4499 6.82004 17.6999 6.72004C16.2677 6.51822 14.8256 6.39471 13.3799 6.35004C11.9183 6.32378 10.4563 6.37385 8.99995 6.50004C7.82995 6.64004 6.67995 6.70004 5.54995 6.86004C2.63995 7.25004 2.99995 7.50004 2.74995 9.11004C2.69989 9.4549 2.69989 9.80518 2.74995 10.15ZM19.5599 7.77004C19.8399 7.77004 20.1099 7.83004 20.3899 7.87004C20.3899 8.28004 20.3899 8.68004 20.3399 9.10004V9.71004V9.97004L18.3999 9.68004C17.8999 9.60004 17.3999 9.55004 16.8899 9.47004C16.8954 9.43358 16.8954 9.3965 16.8899 9.36004V8.74004C16.8899 8.37004 16.8099 8.02004 16.7599 7.66004H17.5699C18.2299 7.72004 18.8899 7.72004 19.5599 7.77004ZM15.9999 7.65004C15.9099 7.99004 15.7999 8.32004 15.7399 8.65004C15.7046 8.85493 15.6846 9.06217 15.6799 9.27004C15.1099 9.19004 14.5499 9.08004 13.9799 9.03004C13.5599 9.03004 13.1399 9.03004 12.7199 8.98004C12.7199 8.51004 12.6299 8.04004 12.6099 7.57004H13.3699C14.2099 7.59004 15.0899 7.62004 15.9999 7.65004ZM9.12995 7.65004C10.0399 7.59004 10.9499 7.65004 11.8599 7.65004C11.7599 8.09004 11.6799 8.54004 11.6199 8.99004H10.9599C10.1499 8.99004 9.34995 9.09004 8.53995 9.16004C8.54496 9.07344 8.54496 8.98663 8.53995 8.90004C8.53995 8.50004 8.44994 8.12004 8.39994 7.74004L9.12995 7.65004ZM5.66995 7.65004H7.66995C7.55551 8.00762 7.46202 8.37157 7.38995 8.74004V9.15004C6.27994 9.29004 5.17995 9.50004 4.08995 9.75004V9.00004C4.03641 8.63903 4.00635 8.27494 3.99995 7.91004C4.54182 7.80867 5.08959 7.74187 5.63995 7.71004L5.66995 7.65004Z" fill="black"/>
<path fill-rule="evenodd" clip-rule="evenodd" d="M23.0002 20C22.3417 19.7859 21.7632 19.3781 21.3402 18.83C20.97 18.2925 20.7776 17.6525 20.7902 17C20.7597 16.0211 20.6051 15.05 20.3302 14.11C20.2077 13.7519 20.0027 13.4277 19.7317 13.1637C19.4607 12.8996 19.1313 12.7031 18.7702 12.59C18.7224 12.5667 18.6702 12.5538 18.6171 12.552C18.564 12.5502 18.5111 12.5595 18.4619 12.5794C18.4126 12.5993 18.368 12.6293 18.3311 12.6675C18.2941 12.7057 18.2656 12.7512 18.2473 12.8011C18.229 12.851 18.2214 12.9042 18.225 12.9572C18.2285 13.0102 18.2432 13.0619 18.2679 13.1089C18.2927 13.1559 18.3271 13.1972 18.3688 13.2301C18.4105 13.263 18.4587 13.2868 18.5102 13.3C18.7346 13.4056 18.9306 13.5632 19.0819 13.7597C19.2332 13.9563 19.3354 14.186 19.3802 14.43C19.4855 14.9327 19.5258 15.4469 19.5002 15.96V17.09C19.567 17.9969 19.9409 18.854 20.5602 19.52C21.1809 20.1331 21.9851 20.5264 22.8502 20.64C22.8937 20.6544 22.9397 20.6596 22.9853 20.6552C23.031 20.6509 23.0752 20.6371 23.1152 20.6147C23.1552 20.5923 23.1901 20.5618 23.2176 20.5252C23.2452 20.4886 23.2648 20.4466 23.2753 20.402C23.2857 20.3574 23.2868 20.3111 23.2784 20.266C23.2699 20.221 23.2522 20.1782 23.2263 20.1404C23.2005 20.1025 23.167 20.0705 23.128 20.0464C23.0891 20.0222 23.0456 20.0064 23.0002 20Z" fill="black"/>
<path fill-rule="evenodd" clip-rule="evenodd" d="M9.27 15.83C9.2243 15.8484 9.18286 15.876 9.14825 15.9111C9.11364 15.9461 9.08659 15.9879 9.06878 16.0338C9.05097 16.0798 9.04277 16.1289 9.0447 16.1781C9.04663 16.2273 9.05865 16.2756 9.08 16.32C9.15951 16.5335 9.17918 16.7646 9.13688 16.9884C9.09458 17.2123 8.99193 17.4203 8.84 17.59C8.56444 17.8867 8.25955 18.1547 7.93 18.39C7.56651 18.6918 7.23174 19.0265 6.93 19.39C6.64792 19.8022 6.40678 20.241 6.21 20.7C5.95 21.35 5.78 22.02 5.57 22.7C5.53957 22.7811 5.54126 22.8708 5.57471 22.9507C5.60816 23.0306 5.67086 23.0948 5.75 23.13C5.82113 23.1603 5.90083 23.1639 5.97436 23.14C6.04789 23.1161 6.11028 23.0664 6.15 23C6.43 22.47 6.69 22 6.97 21.49C7.22941 21.0189 7.53779 20.5765 7.89 20.17C8.15986 19.8637 8.45056 19.5763 8.76 19.31C9.12018 18.9701 9.43299 18.5833 9.69 18.16C9.90212 17.8427 10.0219 17.4728 10.0361 17.0914C10.0502 16.71 9.95807 16.3321 9.77 16C9.72317 15.9141 9.64577 15.849 9.55315 15.8175C9.46054 15.786 9.35948 15.7905 9.27 15.83Z" fill="black"/>
<path fill-rule="evenodd" clip-rule="evenodd" d="M16.3802 19.41C16.0784 19.0465 15.7437 18.7117 15.3802 18.41C15.0506 18.1747 14.7457 17.9067 14.4702 17.61C14.3183 17.4402 14.2156 17.2322 14.1733 17.0084C14.131 16.7846 14.1507 16.5534 14.2302 16.34C14.2515 16.2956 14.2635 16.2473 14.2655 16.198C14.2674 16.1488 14.2592 16.0997 14.2414 16.0538C14.2236 16.0078 14.1965 15.9661 14.1619 15.931C14.1273 15.8959 14.0859 15.8684 14.0402 15.85C13.9483 15.8119 13.8454 15.8104 13.7525 15.8457C13.6595 15.8811 13.5836 15.9505 13.5402 16.04C13.3561 16.3697 13.2661 16.7438 13.2802 17.1212C13.2944 17.4986 13.412 17.8649 13.6202 18.18C13.8772 18.6033 14.19 18.9901 14.5502 19.33C14.8596 19.5963 15.1503 19.8836 15.4202 20.19C15.7723 20.5987 16.0838 21.0408 16.3502 21.51C16.6202 22 16.8802 22.51 17.1602 23.02C17.1961 23.0968 17.2601 23.1569 17.3391 23.1877C17.4181 23.2186 17.5059 23.2178 17.5843 23.1857C17.6628 23.1535 17.7258 23.0924 17.7604 23.015C17.7951 22.9376 17.7985 22.8499 17.7702 22.77C17.5602 22.06 17.3902 21.39 17.1302 20.77C16.9268 20.2924 16.6756 19.8368 16.3802 19.41Z" fill="black"/>
<path fill-rule="evenodd" clip-rule="evenodd" d="M6.25033 14.59C6.34033 14.42 6.41033 14.24 6.50033 14.08C6.56207 13.9178 6.64262 13.7634 6.74033 13.62C6.83368 13.4892 6.95717 13.3829 7.10033 13.31C7.15176 13.3077 7.20216 13.2948 7.2483 13.272C7.29445 13.2492 7.33532 13.217 7.36832 13.1774C7.40131 13.1379 7.42569 13.092 7.43991 13.0425C7.45412 12.993 7.45785 12.9411 7.45087 12.8901C7.44388 12.8391 7.42633 12.7901 7.39933 12.7463C7.37233 12.7024 7.33649 12.6647 7.29408 12.6355C7.25168 12.6063 7.20365 12.5863 7.15307 12.5768C7.10249 12.5672 7.05047 12.5683 7.00033 12.58C6.70342 12.593 6.41376 12.6758 6.15487 12.8218C5.89598 12.9677 5.67515 13.1727 5.51033 13.42C5.31687 13.6722 5.17732 13.9615 5.10033 14.27C5.01511 14.7045 4.98154 15.1476 5.00033 15.59C4.99006 15.632 4.98845 15.6758 4.99558 15.7185C5.00271 15.7612 5.01844 15.802 5.04181 15.8385C5.06518 15.875 5.09572 15.9063 5.13156 15.9306C5.1674 15.9549 5.20781 15.9717 5.25033 15.98C5.33514 15.9979 5.42359 15.9817 5.49657 15.9349C5.56954 15.8881 5.62118 15.8145 5.64033 15.73C5.77033 15.39 6.00033 15 6.25033 14.59Z" fill="black"/>
<path fill-rule="evenodd" clip-rule="evenodd" d="M17.8299 13.42C17.663 13.1725 17.4403 12.9676 17.1798 12.8217C16.9193 12.6758 16.6282 12.593 16.3299 12.58C16.282 12.5702 16.2326 12.5699 16.1846 12.5791C16.1365 12.5883 16.0907 12.607 16.0499 12.6339C16.009 12.6608 15.9739 12.6955 15.9464 12.736C15.919 12.7766 15.8998 12.8221 15.89 12.87C15.8801 12.9179 15.8798 12.9673 15.889 13.0154C15.8983 13.0635 15.9169 13.1092 15.9438 13.1501C15.9708 13.1909 16.0055 13.2261 16.046 13.2535C16.0865 13.281 16.132 13.3002 16.18 13.31C16.3267 13.3816 16.4538 13.488 16.5499 13.62C16.6477 13.7634 16.7282 13.9178 16.79 14.08C16.87 14.24 16.95 14.42 17.04 14.59C17.27 15.02 17.52 15.39 17.68 15.73C17.6882 15.7725 17.705 15.8129 17.7293 15.8488C17.7536 15.8846 17.7849 15.9152 17.8214 15.9385C17.8579 15.9619 17.8987 15.9776 17.9414 15.9848C17.9841 15.9919 18.0279 15.9903 18.0699 15.98C18.1545 15.9609 18.2281 15.9092 18.2749 15.8363C18.3217 15.7633 18.3379 15.6748 18.3199 15.59C18.3466 15.148 18.3164 14.7043 18.2299 14.27C18.1565 13.9622 18.0203 13.6728 17.8299 13.42Z" fill="black"/>
<path fill-rule="evenodd" clip-rule="evenodd" d="M8.35999 13.5601C8.03033 13.6986 7.72615 13.8913 7.45999 14.1301C7.34464 14.2289 7.24366 14.3433 7.15999 14.4701C7.07359 14.5962 7.0062 14.7343 6.95999 14.8801C6.87183 15.206 6.8281 15.5424 6.82999 15.8801C6.80426 15.9636 6.81173 16.0539 6.85084 16.1321C6.88995 16.2104 6.95769 16.2705 7.03999 16.3001C7.12357 16.3258 7.21385 16.3183 7.29206 16.2792C7.37028 16.2401 7.43042 16.1724 7.45999 16.0901C7.65999 15.7901 7.89999 15.5901 8.09999 15.3201C8.29999 15.0501 8.27999 15.0201 8.36999 14.8701C8.4961 14.6181 8.6433 14.3772 8.80999 14.1501C8.88296 14.0876 8.92959 13.9999 8.94049 13.9045C8.95139 13.809 8.92576 13.713 8.86874 13.6357C8.81173 13.5585 8.72756 13.5056 8.63318 13.4879C8.53879 13.4701 8.44118 13.4888 8.35999 13.5401V13.5601Z" fill="black"/>
<path fill-rule="evenodd" clip-rule="evenodd" d="M14.4 13.65C14.3437 13.7303 14.3206 13.8292 14.3355 13.9261C14.3504 14.023 14.4022 14.1104 14.48 14.17C14.6467 14.3972 14.7939 14.6381 14.92 14.89C15.01 15.04 15.09 15.2 15.19 15.34C15.29 15.48 15.63 15.81 15.83 16.11C15.8393 16.156 15.8582 16.1995 15.8856 16.2376C15.913 16.2756 15.9481 16.3074 15.9888 16.3309C16.0294 16.3543 16.0745 16.3688 16.1212 16.3734C16.1679 16.378 16.215 16.3725 16.2594 16.3575C16.3038 16.3425 16.3445 16.3181 16.3788 16.2861C16.4131 16.2541 16.4401 16.2152 16.4581 16.1719C16.4762 16.1286 16.4848 16.082 16.4834 16.0351C16.482 15.9882 16.4706 15.9422 16.45 15.9C16.4552 15.5628 16.4148 15.2265 16.33 14.9C16.2792 14.7562 16.2121 14.6186 16.13 14.49C16.0432 14.3657 15.9426 14.2516 15.83 14.15C15.5623 13.9133 15.2585 13.7208 14.93 13.58C14.8503 13.5196 14.7499 13.493 14.6506 13.5061C14.5514 13.5192 14.4613 13.5709 14.4 13.65Z" fill="black"/>
<path fill-rule="evenodd" clip-rule="evenodd" d="M23.9402 11.83C23.9402 11.13 24.0102 10.36 24.0002 9.60002C24.009 8.23433 23.8613 6.87212 23.5602 5.54002C23.5688 5.4942 23.567 5.44704 23.5549 5.40202C23.5428 5.357 23.5206 5.3153 23.4902 5.28002C23.2902 4.65002 23.6602 5.09002 21.2202 4.73002L18.6602 4.39002C18.7422 3.94004 18.8834 3.50291 19.0802 3.09002C19.2003 2.81391 19.3513 2.55225 19.5302 2.31002C19.6531 2.10957 19.8229 1.94202 20.025 1.82182C20.2271 1.70161 20.4554 1.63236 20.6902 1.62002C20.7388 1.62704 20.7884 1.62431 20.836 1.61196C20.8836 1.59962 20.9282 1.57792 20.9673 1.54813C21.0064 1.51834 21.0392 1.48105 21.0637 1.43845C21.0882 1.39585 21.104 1.34879 21.1102 1.30002C21.1172 1.25136 21.1145 1.2018 21.1021 1.15422C21.0898 1.10663 21.0681 1.06199 21.0383 1.02289C21.0085 0.983784 20.9712 0.951011 20.9286 0.92648C20.886 0.90195 20.839 0.886155 20.7902 0.880017C20.4018 0.773031 19.9916 0.774241 19.6038 0.883516C19.2161 0.992791 18.8655 1.20597 18.5902 1.50002C18.457 1.64367 18.3396 1.80125 18.2402 1.97002C18.0913 2.20705 17.9832 2.4673 17.9202 2.74002C17.8098 3.25079 17.8098 3.77924 17.9202 4.29002L17.3402 4.22002C16.2702 4.11002 15.2102 4.04002 14.1402 4.02002C12.5602 4.02002 10.9702 4.08002 9.39018 4.11002C7.54018 4.21002 5.70018 4.32002 3.88018 4.55002C0.42018 5.00002 0.67018 5.30002 0.55018 7.29002C0.49018 8.23002 0.33018 9.35002 0.24018 10.42C0.16018 11.09 0.11018 11.75 0.0801796 12.32C0.0501796 12.89 0.0801796 13.32 0.0801796 13.63C0.0919305 14.2138 0.200053 14.7915 0.40018 15.34C0.501399 15.641 0.698001 15.9008 0.96018 16.08C1.09273 16.1549 1.23894 16.2025 1.39018 16.22H2.47018H2.57018C2.57018 16.48 2.57018 16.76 2.50018 16.98C2.50107 17.6369 2.29459 18.2773 1.91018 18.81C1.49008 19.3656 0.911227 19.7806 0.25018 20C0.207466 20.0093 0.167105 20.0272 0.131584 20.0527C0.0960633 20.0781 0.0661365 20.1106 0.0436492 20.1481C0.0211618 20.1856 0.00659063 20.2273 0.000834277 20.2706C-0.00492208 20.3139 -0.00174159 20.358 0.0101796 20.4C0.0314329 20.4849 0.0855023 20.5578 0.160506 20.6028C0.23551 20.6478 0.325313 20.6612 0.41018 20.64C1.28149 20.5127 2.08644 20.1014 2.70018 19.47C3.32371 18.7909 3.69754 17.9198 3.76018 17V15.87C3.73595 15.3575 3.77288 14.8438 3.87018 14.34C3.91516 14.0948 4.01864 13.864 4.17184 13.6673C4.32503 13.4706 4.52343 13.3137 4.75018 13.21C4.83485 13.1689 4.90124 13.0978 4.93648 13.0105C4.97172 12.9232 4.97331 12.8259 4.94094 12.7376C4.90857 12.6492 4.84455 12.5759 4.76127 12.532C4.67799 12.4882 4.58139 12.4767 4.49018 12.5C4.13611 12.6236 3.81642 12.8295 3.5574 13.1007C3.29837 13.3719 3.1074 13.7007 3.00018 14.06C2.82044 14.553 2.70613 15.0673 2.66018 15.59C2.48018 15.59 2.13018 15.54 1.82018 15.51C1.71847 15.5072 1.61897 15.4797 1.53018 15.43C1.39759 15.2811 1.32304 15.0894 1.32018 14.89C1.26956 14.4816 1.26956 14.0685 1.32018 13.66C1.32018 13.1 1.43018 12.27 1.50018 11.33C1.55018 10.57 1.57018 9.74002 1.58018 8.94002C1.61064 7.89606 1.54368 6.85154 1.38018 5.82002C2.24622 5.64966 3.12083 5.52614 4.00018 5.45002C5.81018 5.32002 7.63018 5.33002 9.45018 5.35002C11.2702 5.37002 13.1202 5.24002 14.9602 5.25002H17.3002L21.1402 5.54002C21.5302 5.54002 21.9602 5.54002 22.3802 5.64002C22.5567 5.66449 22.7308 5.70465 22.9002 5.76002C22.9002 6.10002 22.9502 6.47002 22.9502 6.91002C22.9502 7.91002 22.8102 9.21002 22.7602 10.41C22.6802 11.84 22.6902 13.18 22.7602 13.98L22.9002 15.57C22.8027 15.67 22.6698 15.7275 22.5302 15.73C22.2919 15.767 22.0513 15.7871 21.8102 15.79C21.7212 15.8046 21.6404 15.8503 21.582 15.919C21.5237 15.9877 21.4916 16.0749 21.4916 16.165C21.4916 16.2551 21.5237 16.3423 21.582 16.411C21.6404 16.4797 21.7212 16.5254 21.8102 16.54C22.1983 16.5934 22.592 16.5934 22.9802 16.54C23.222 16.4885 23.44 16.3584 23.6002 16.17C23.7187 15.9942 23.7909 15.7912 23.8102 15.58C23.8427 15.0639 23.8427 14.5462 23.8102 14.03C23.8102 13.48 23.8902 12.71 23.9402 11.83Z" fill="black"/>
<path fill-rule="evenodd" clip-rule="evenodd" d="M11.8603 16L11.5003 15.94C11.3772 15.9303 11.2535 15.9303 11.1303 15.94C10.9103 15.99 9.98032 16.26 10.0003 16.6C10.0003 16.71 10.0003 16.9 11.1303 17.15H11.4603H11.7903C12.9403 17 13.0003 16.9 13.0003 16.68C13.0003 16.46 13.0003 16.25 11.8603 16Z" fill="black"/>
</g>
<defs>
<clipPath id="clip0_36_1164">
<rect width="24" height="24" fill="white"/>
</clipPath>
</defs>
</svg>
