<svg width="24" height="24" viewBox="0 0 24 24" fill="none" xmlns="http://www.w3.org/2000/svg">
<g clip-path="url(#clip0_36_1022)">
<path fill-rule="evenodd" clip-rule="evenodd" d="M22.8902 2.72005C19.3902 -1.10995 6.89021 -0.589954 1.37021 2.36005C1.28534 2.40381 1.22133 2.47949 1.19226 2.57044C1.1632 2.6614 1.17145 2.76018 1.21521 2.84505C1.25897 2.92992 1.33465 2.99392 1.42561 3.02299C1.51657 3.05206 1.61534 3.04381 1.70021 3.00005C7.15021 0.210046 19.1002 0.0700462 22.0902 3.44005C22.6302 4.06005 21.6902 12.44 21.1702 14.68C20.6502 16.92 16.1702 20.88 13.9502 22.21C12.4902 23.09 12.3202 23.06 10.8902 22.21C8.17021 20.55 3.06021 15.83 2.89021 14.66C2.89021 14.49 1.06021 5.05005 1.23021 4.38005C1.23663 4.30491 1.21631 4.22992 1.17283 4.1683C1.12935 4.10669 1.06551 4.06241 0.992561 4.04328C0.919617 4.02414 0.84226 4.03139 0.774135 4.06373C0.706011 4.09607 0.651498 4.15143 0.620211 4.22005C0.430211 5.07005 2.08021 14.37 2.10021 14.7C2.23021 16.53 10.1002 24.02 12.4602 24C14.8202 23.98 21.6302 18.09 22.3502 15C22.7002 13.38 24.0502 4.00005 22.8902 2.72005Z" fill="black"/>
<path fill-rule="evenodd" clip-rule="evenodd" d="M11.1103 12.0801C12.5503 12.9201 15.0403 11.5901 14.2703 10.0101C14.2345 9.92121 14.1649 9.85022 14.0768 9.81272C13.9886 9.77521 13.8892 9.77425 13.8003 9.81006C13.7115 9.84586 13.6405 9.91549 13.603 10.0036C13.5655 10.0918 13.5645 10.1912 13.6003 10.2801C13.8603 11.0601 12.3503 11.5301 11.7703 11.0901C11.5901 10.9036 11.4894 10.6544 11.4894 10.3951C11.4894 10.1357 11.5901 9.88652 11.7703 9.70006C12.0073 9.53046 12.2857 9.42794 12.5761 9.40331C12.8665 9.37867 13.1582 9.43282 13.4203 9.56006C13.4904 9.57496 13.5635 9.56591 13.6278 9.53435C13.6921 9.5028 13.744 9.45057 13.7751 9.38603C13.8063 9.32149 13.8148 9.24837 13.7994 9.17839C13.7841 9.10841 13.7456 9.04561 13.6903 9.00006C10.8903 7.41006 9.14034 10.7601 11.1103 12.0801Z" fill="black"/>
<path fill-rule="evenodd" clip-rule="evenodd" d="M7.10006 13.69C7.22006 13.88 7.77006 14.69 7.86006 14.8C8.01972 14.9245 8.21063 15.0025 8.41177 15.0254C8.61291 15.0484 8.81648 15.0154 9.00006 14.93C9.34969 14.7663 9.68431 14.5722 10.0001 14.35C10.1783 14.45 10.3619 14.5401 10.5501 14.62C10.5501 15.41 10.3801 16.27 11.0201 16.62C11.5031 16.8223 12.0289 16.9013 12.5501 16.85C12.7901 16.85 13.7801 16.74 13.8901 16.71C14.0613 16.6458 14.2129 16.5384 14.3303 16.3982C14.4477 16.258 14.5269 16.0898 14.5601 15.91C14.6301 15.4728 14.6301 15.0272 14.5601 14.59C14.7001 14.52 14.7701 14.49 14.9201 14.4C15.3398 14.6988 15.8357 14.8721 16.3501 14.9C17.4401 14.78 17.8101 13.5 18.2001 12.83C18.2631 12.7255 18.2922 12.6039 18.2832 12.4821C18.2743 12.3603 18.2277 12.2443 18.1501 12.15C16.6201 10.36 16.7201 11.26 16.6801 10.37C17.0001 10.14 17.8001 9.73003 18.0001 9.23003C18.3901 8.23003 17.4601 7.36003 17.0601 6.69003C17.01 6.60584 16.9349 6.53938 16.8453 6.49993C16.7557 6.46049 16.6559 6.45004 16.5601 6.47003C16.1879 6.55291 15.8207 6.6564 15.4601 6.78003C14.3101 7.17003 15.0601 7.18003 14.1401 6.83003C14.0001 6.00003 14.2301 4.93003 13.0001 4.74003C12.4249 4.72047 11.8491 4.75395 11.2801 4.84003C11.2086 4.84255 11.1396 4.86691 11.0824 4.90981C11.0252 4.95272 10.9825 5.01213 10.9601 5.08003C10.7984 5.63203 10.6879 6.19776 10.6301 6.77003C10.4118 6.8398 10.2035 6.93726 10.0101 7.06003C8.82006 6.27003 8.38006 5.73003 7.34006 7.47003C7.23006 7.66003 6.78006 8.53003 6.75006 8.64003C6.52006 9.45003 7.75006 9.97003 8.17006 10.22C8.15512 10.4731 8.15512 10.7269 8.17006 10.98C6.74006 11.7 6.00006 11.87 7.10006 13.69ZM8.85006 11.69C8.93427 11.6441 9.0024 11.5735 9.0453 11.4877C9.08821 11.4018 9.10382 11.305 9.09006 11.21C8.85006 9.65003 9.58006 9.99003 8.23006 9.27003C8.10006 9.20003 7.65006 9.01003 7.55006 8.83003C7.79022 8.21042 8.1278 7.63315 8.55006 7.12003C9.03006 7.24003 9.77006 8.12003 10.1601 7.82003C10.7001 7.41003 11.2201 7.43003 11.2301 7.07003C11.221 6.54591 11.3057 6.02438 11.4801 5.53003C13.6101 5.36003 13.1801 5.44003 13.3301 7.22003C13.3383 7.30026 13.3689 7.37655 13.4184 7.44021C13.4679 7.50387 13.5343 7.55232 13.6101 7.58003C15.3001 8.46003 14.1401 8.02003 16.4101 7.50003C16.6101 7.80003 17.1801 8.50003 17.0401 8.88003C15.3501 10.01 15.5801 9.58003 15.5801 11.14C15.5801 11.66 15.9101 11.47 16.9801 12.66C16.8601 12.91 16.4801 13.73 16.2001 13.76C14.2001 12.76 15.2001 13.17 13.7301 13.66C13.0301 13.89 13.4301 14.78 13.4001 15.57C13.1024 15.6778 12.7863 15.7254 12.4701 15.71C12.2213 15.7452 11.9688 15.7452 11.7201 15.71V14.3C11.7229 14.1746 11.6842 14.0517 11.6101 13.9504C11.536 13.8492 11.4305 13.7752 11.3101 13.74C10.3101 13.46 10.1801 12.98 9.71006 13.29C8.35006 14.17 8.61006 14.09 8.41006 13.82C8.07126 13.4058 7.80116 12.9399 7.61006 12.44C8.00251 12.1512 8.41713 11.8937 8.85006 11.67V11.69Z" fill="black"/>
</g>
<defs>
<clipPath id="clip0_36_1022">
<rect width="24" height="24" fill="white"/>
</clipPath>
</defs>
</svg>
