<svg width="24" height="24" viewBox="0 0 24 24" fill="none" xmlns="http://www.w3.org/2000/svg">
<g clip-path="url(#clip0_36_986)">
<path fill-rule="evenodd" clip-rule="evenodd" d="M9.1797 21.63C8.96371 21.4837 8.76859 21.3088 8.5997 21.11L8.4197 21L9.2597 20.1L10.0197 19.26C10.0553 19.2377 10.086 19.2084 10.11 19.1739C10.1339 19.1394 10.1506 19.1004 10.159 19.0593C10.1674 19.0181 10.1674 18.9757 10.1589 18.9346C10.1505 18.8934 10.1337 18.8545 10.1097 18.82C10.0865 18.7841 10.0563 18.7531 10.0209 18.7291C9.98552 18.705 9.94567 18.6883 9.90371 18.6799C9.86176 18.6715 9.81855 18.6716 9.77664 18.6802C9.73472 18.6888 9.69496 18.7058 9.6597 18.73L8.6097 19.42C8.3797 19.59 7.9597 19.79 7.6097 20.03C7.42614 20.1752 7.27319 20.3553 7.1597 20.56C7.10922 20.6645 7.08301 20.779 7.08301 20.895C7.08301 21.011 7.10922 21.1255 7.1597 21.23C7.31157 21.5293 7.51852 21.7973 7.7697 22.02C7.98256 22.1841 8.21021 22.328 8.4497 22.45C8.9397 22.68 9.4497 22.83 9.9497 23.06C10.0335 23.1078 10.1327 23.121 10.2261 23.0967C10.3196 23.0724 10.3998 23.0126 10.4497 22.93C10.4762 22.8892 10.4938 22.8434 10.5016 22.7954C10.5094 22.7474 10.5071 22.6984 10.4949 22.6513C10.4826 22.6043 10.4607 22.5603 10.4306 22.5222C10.4004 22.4841 10.3627 22.4527 10.3197 22.43C9.9997 22.11 9.5597 21.89 9.1797 21.63Z" fill="black"/>
<path fill-rule="evenodd" clip-rule="evenodd" d="M13.1498 17.4001C13.0701 17.3736 12.9833 17.3786 12.9072 17.4139C12.831 17.4492 12.7711 17.5122 12.7398 17.5901C12.4098 18.2301 12.0398 18.8301 11.7398 19.4801C11.6054 19.7537 11.4852 20.0341 11.3798 20.3201C11.2798 20.6101 11.1798 20.9001 11.0998 21.1901C10.8998 21.8901 10.7598 22.5901 10.6198 23.3001C10.6059 23.3454 10.6011 23.393 10.6057 23.4401C10.6102 23.4873 10.6241 23.5331 10.6464 23.5749C10.6687 23.6167 10.699 23.6537 10.7356 23.6838C10.7722 23.7138 10.8144 23.7364 10.8598 23.7501C10.9526 23.7784 11.0529 23.7691 11.1389 23.7242C11.2249 23.6793 11.2899 23.6024 11.3198 23.5101C11.5998 22.8401 11.9298 22.2101 12.2198 21.5101C12.4098 21.0601 12.5898 20.6201 12.7398 20.1601C12.9998 19.3801 13.1498 18.5801 13.3398 17.7901C13.3629 17.7131 13.3562 17.6302 13.321 17.558C13.2858 17.4857 13.2246 17.4293 13.1498 17.4001Z" fill="black"/>
<path fill-rule="evenodd" clip-rule="evenodd" d="M16.0998 19.54C15.7782 19.3421 15.4441 19.165 15.0998 19.01C14.776 18.8568 14.4418 18.7265 14.0998 18.62C14.0611 18.6017 14.0192 18.5913 13.9765 18.5894C13.9337 18.5876 13.8911 18.5943 13.851 18.6092C13.8109 18.6241 13.7742 18.6469 13.7431 18.6763C13.712 18.7056 13.687 18.7409 13.6698 18.78C13.6516 18.8179 13.6413 18.8591 13.6396 18.9011C13.6379 18.9431 13.6447 18.9851 13.6596 19.0244C13.6746 19.0636 13.6974 19.0995 13.7267 19.1297C13.7559 19.1599 13.791 19.1838 13.8298 19.2C14.1059 19.3754 14.3698 19.5691 14.6198 19.78C14.8704 19.9845 15.1076 20.2049 15.3298 20.44L15.4498 20.5C15.3368 20.6798 15.2098 20.8504 15.0698 21.01L14.5798 21.57L13.7198 22.44C13.6378 22.4933 13.5802 22.5768 13.5596 22.6723C13.539 22.7679 13.557 22.8677 13.6098 22.95C13.6662 23.0283 13.7503 23.0823 13.845 23.1008C13.9397 23.1194 14.038 23.1012 14.1198 23.05L15.2398 22.31L15.8998 21.81C16.1165 21.6088 16.314 21.3878 16.4898 21.15C16.6358 20.9386 16.7285 20.695 16.7598 20.44C16.7752 20.3469 16.7687 20.2514 16.741 20.1612C16.7132 20.071 16.6649 19.9884 16.5998 19.92C16.446 19.7772 16.2785 19.6499 16.0998 19.54Z" fill="black"/>
<path fill-rule="evenodd" clip-rule="evenodd" d="M14.1895 8.44006C14.2042 8.34521 14.1967 8.24825 14.1675 8.15681C14.1384 8.06537 14.0884 7.98195 14.0215 7.91312C13.9546 7.84429 13.8726 7.79193 13.782 7.76016C13.6915 7.7284 13.5948 7.71809 13.4995 7.73006C13.3347 7.75016 13.1829 7.82991 13.0728 7.95426C12.9626 8.07861 12.9019 8.23896 12.9019 8.40506C12.9019 8.57115 12.9626 8.7315 13.0728 8.85585C13.1829 8.9802 13.3347 9.05995 13.4995 9.08006C13.5887 9.092 13.6794 9.08409 13.7651 9.05689C13.8508 9.02968 13.9295 8.98386 13.9954 8.9227C14.0613 8.86154 14.1129 8.78655 14.1465 8.70311C14.1801 8.61967 14.1948 8.52984 14.1895 8.44006Z" fill="black"/>
<path fill-rule="evenodd" clip-rule="evenodd" d="M10.5396 8.54003C10.5543 8.44518 10.5468 8.34822 10.5176 8.25678C10.4885 8.16534 10.4385 8.08193 10.3716 8.0131C10.3047 7.94427 10.2227 7.89191 10.1321 7.86014C10.0416 7.82837 9.94487 7.81807 9.84964 7.83003C9.68477 7.85014 9.53296 7.92989 9.42285 8.05424C9.31274 8.17859 9.25195 8.33894 9.25195 8.50503C9.25195 8.67113 9.31274 8.83148 9.42285 8.95583C9.53296 9.08018 9.68477 9.15993 9.84964 9.18003C9.93813 9.18852 10.0274 9.17818 10.1116 9.1497C10.1958 9.12123 10.273 9.07525 10.3382 9.01481C10.4034 8.95436 10.455 8.88081 10.4897 8.79898C10.5244 8.71715 10.5415 8.6289 10.5396 8.54003Z" fill="black"/>
<path fill-rule="evenodd" clip-rule="evenodd" d="M10.5599 11.74C10.7743 11.8655 11.0129 11.9439 11.2599 11.97C11.4976 11.9982 11.7385 11.9813 11.9699 11.92C12.4959 11.7881 12.9614 11.4814 13.2899 11.05C13.3583 10.9808 13.3967 10.8873 13.3967 10.79C13.3967 10.6927 13.3583 10.5993 13.2899 10.53C13.2207 10.4616 13.1273 10.4233 13.0299 10.4233C12.9326 10.4233 12.8392 10.4616 12.7699 10.53C12.5694 10.6556 12.3454 10.7391 12.1116 10.7752C11.8777 10.8113 11.639 10.7993 11.4099 10.74C11.285 10.7264 11.1612 10.703 11.0399 10.67C10.7164 10.6117 10.427 10.4331 10.2299 10.17C10.1948 10.091 10.1301 10.0289 10.0497 9.99711C9.96927 9.96532 9.87959 9.96636 9.79993 10C9.76027 10.0152 9.72416 10.0385 9.69384 10.0682C9.66353 10.098 9.63966 10.1337 9.62372 10.1731C9.60778 10.2125 9.6001 10.2547 9.60117 10.2972C9.60224 10.3397 9.61203 10.3815 9.62993 10.42C9.67915 10.6946 9.78791 10.9551 9.94858 11.1831C10.1093 11.4112 10.3179 11.6013 10.5599 11.74Z" fill="black"/>
<path fill-rule="evenodd" clip-rule="evenodd" d="M4.6796 18.63C4.61945 19.0238 4.58937 19.4216 4.5896 19.82C4.56974 20.2164 4.56974 20.6136 4.5896 21.01C4.67409 21.9331 4.84143 22.8468 5.0896 23.74C5.09803 23.7867 5.11559 23.8312 5.14129 23.8711C5.16698 23.9109 5.2003 23.9453 5.23933 23.9723C5.27836 23.9992 5.32233 24.0182 5.36871 24.0281C5.41509 24.038 5.46297 24.0386 5.5096 24.03C5.5569 24.0229 5.60223 24.0061 5.64281 23.9808C5.68338 23.9555 5.71833 23.9221 5.74551 23.8827C5.77268 23.8434 5.7915 23.7989 5.80081 23.752C5.81011 23.7051 5.8097 23.6567 5.7996 23.61C5.7996 23.11 5.7296 22.61 5.7196 22.1C5.7096 21.59 5.7196 21.1 5.7196 20.6V19.1V17.32C5.7196 16.54 4.8796 17.25 4.7196 17.82C4.7596 18.15 4.7296 18.3 4.6796 18.63Z" fill="black"/>
<path fill-rule="evenodd" clip-rule="evenodd" d="M15.1398 14.4601C15.0506 14.4218 14.9501 14.4192 14.859 14.4526C14.7679 14.4861 14.693 14.5532 14.6498 14.6401C14.4127 15.0058 14.0906 15.3088 13.7109 15.523C13.3313 15.7372 12.9055 15.8563 12.4698 15.8701C11.9563 15.9327 11.4354 15.8885 10.9398 15.7401C10.6164 15.6552 10.3136 15.5055 10.0498 15.3001C9.86367 15.1441 9.71355 14.9496 9.6098 14.7301C9.6098 14.6401 9.4698 14.5601 9.1998 14.7301C9.1998 14.7301 8.8598 15.0901 8.9098 15.2201C8.99559 15.519 9.14577 15.7954 9.34981 16.0301C9.75326 16.5033 10.2844 16.8505 10.8798 17.0301C11.4533 17.1884 12.0556 17.2123 12.6398 17.1001C13.2316 17.005 13.7893 16.7603 14.26 16.3893C14.7308 16.0183 15.099 15.5332 15.3298 14.9801C15.3564 14.9344 15.3726 14.8834 15.3772 14.8308C15.3819 14.7782 15.3749 14.7252 15.3568 14.6755C15.3386 14.6259 15.3098 14.5809 15.2723 14.5436C15.2348 14.5064 15.1896 14.4779 15.1398 14.4601Z" fill="black"/>
<path fill-rule="evenodd" clip-rule="evenodd" d="M18.0999 18.7401C18.0999 19.3401 18.2399 19.9401 18.3199 20.5401C18.4499 21.4301 18.6099 22.3101 18.7199 23.2201C18.7199 23.3155 18.7579 23.4071 18.8254 23.4746C18.8929 23.5421 18.9845 23.5801 19.0799 23.5801C19.1754 23.5801 19.267 23.5421 19.3345 23.4746C19.402 23.4071 19.4399 23.3155 19.4399 23.2201C19.4399 22.3101 19.5199 21.4201 19.4399 20.5201C19.4399 20.1301 19.4399 19.7501 19.3499 19.3701C19.3144 18.9866 19.2543 18.6058 19.1699 18.2301C19.1276 17.9803 19.0708 17.7333 18.9999 17.4901C18.8999 17.0901 18.1399 16.3701 17.9399 16.9001C17.9999 17.6901 17.9999 17.9401 18.0999 18.7401Z" fill="black"/>
<path fill-rule="evenodd" clip-rule="evenodd" d="M23.1898 21.7C23.036 21.0766 22.8286 20.4676 22.5698 19.88C22.1247 18.9134 21.5603 18.0063 20.8898 17.18C20.2085 16.3576 19.4256 15.6251 18.5598 15C17.3794 14.1642 16.0317 13.5945 14.6098 13.33C14.9534 13.0387 15.2562 12.7023 15.5098 12.33C16.2863 11.143 16.6838 9.74803 16.6498 8.32999C16.6498 8.23186 16.6108 8.13775 16.5414 8.06836C16.472 7.99897 16.3779 7.95999 16.2798 7.95999C16.1816 7.95999 16.0875 7.99897 16.0181 8.06836C15.9487 8.13775 15.9098 8.23186 15.9098 8.32999C15.8566 9.3706 15.5438 10.3813 14.9998 11.27C14.5442 12.0997 13.784 12.72 12.8798 13C12.089 13.2062 11.2535 13.1608 10.4898 12.87C9.96598 12.6911 9.47833 12.4202 9.04976 12.07C8.503 11.6139 8.07598 11.0311 7.80584 10.3723C7.5357 9.71348 7.43063 8.99865 7.49976 8.28999C7.50683 8.24848 7.50537 8.20596 7.49547 8.16503C7.48557 8.12411 7.46743 8.08563 7.44216 8.05194C7.4169 8.01825 7.38504 7.99007 7.34852 7.9691C7.312 7.94813 7.27159 7.93482 7.22976 7.92999C7.14365 7.91857 7.05651 7.94156 6.98724 7.99398C6.91798 8.0464 6.87217 8.12401 6.85976 8.20999C6.69203 9.05065 6.73679 9.91989 6.99 10.7389C7.2432 11.5579 7.69684 12.3007 8.30976 12.9C8.51993 13.0998 8.7475 13.2806 8.98976 13.44C7.71826 13.7303 6.51354 14.2597 5.43976 15C4.57514 15.6189 3.79226 16.3446 3.10976 17.16C2.4392 17.9863 1.8748 18.8934 1.42976 19.86C1.17094 20.4476 0.963496 21.0566 0.809763 21.68C0.640669 22.312 0.573159 22.9668 0.609763 23.62C0.600616 23.6676 0.602402 23.7166 0.614986 23.7635C0.627569 23.8103 0.650622 23.8536 0.682403 23.8902C0.714185 23.9268 0.753864 23.9557 0.798447 23.9747C0.84303 23.9937 0.891352 24.0024 0.939763 24C0.981793 23.9987 1.02316 23.9891 1.06149 23.9718C1.09982 23.9546 1.13437 23.9299 1.16316 23.8992C1.19195 23.8686 1.21441 23.8326 1.22927 23.7932C1.24413 23.7539 1.2511 23.712 1.24976 23.67C1.271 23.092 1.38582 22.5212 1.58976 21.98C1.78771 21.4254 2.03539 20.8899 2.32976 20.38C2.80176 19.5553 3.36169 18.7841 3.99976 18.08C4.28976 17.73 5.42976 16.74 5.94976 16.21C6.32188 15.8905 6.71256 15.5933 7.11976 15.32C8.1296 14.8239 9.176 14.406 10.2498 14.07C11.2139 14.4164 12.2611 14.4583 13.2498 14.19C13.3498 14.19 13.4398 14.07 13.5398 14.03C14.0231 14.1177 14.5006 14.2346 14.9698 14.38C15.6701 14.6118 16.3412 14.9239 16.9698 15.31C18.1013 16.087 19.1208 17.0157 19.9998 18.07C20.6087 18.7761 21.1573 19.5321 21.6398 20.33C21.9341 20.8399 22.1818 21.3754 22.3798 21.93C22.5837 22.4712 22.6985 23.042 22.7198 23.62C22.7184 23.662 22.7254 23.7039 22.7403 23.7432C22.7551 23.7826 22.7776 23.8186 22.8064 23.8492C22.8352 23.8799 22.8697 23.9046 22.908 23.9218C22.9464 23.9391 22.9877 23.9487 23.0298 23.95C23.0718 23.9513 23.1137 23.9444 23.153 23.9295C23.1923 23.9146 23.2284 23.8922 23.259 23.8634C23.2897 23.8346 23.3143 23.8 23.3316 23.7617C23.3489 23.7234 23.3585 23.682 23.3598 23.64C23.4062 22.9884 23.3488 22.3336 23.1898 21.7Z" fill="black"/>
<path fill-rule="evenodd" clip-rule="evenodd" d="M4.69965 8.19002C5.19969 8.03345 5.71127 7.91642 6.22965 7.84002C7.01965 7.71002 7.82965 7.64002 8.61965 7.56002C9.61965 7.44002 10.4996 7.38002 11.4196 7.32002C12.3396 7.26002 13.2896 7.20002 14.2196 7.21002C15.4856 7.21841 16.7492 7.32203 17.9996 7.52002C18.0917 7.53276 18.1852 7.51039 18.2615 7.45735C18.3378 7.40432 18.3914 7.3245 18.4116 7.23378C18.4317 7.14305 18.417 7.04807 18.3703 6.9677C18.3236 6.88733 18.2484 6.82747 18.1596 6.80002C17.9396 6.74002 17.7296 6.72002 17.5096 6.67002C17.6028 6.34487 17.6499 6.00826 17.6496 5.67002C17.6063 5.08465 17.4783 4.50865 17.2696 3.96002C17.102 3.5265 16.8909 3.11105 16.6396 2.72002C16.3782 2.32386 16.0617 1.96695 15.6996 1.66002C15.0733 1.13954 14.3088 0.812888 13.4996 0.720022C13.1726 0.401341 12.77 0.170821 12.3296 0.0500222C11.5798 -0.10959 10.7993 -0.0399022 10.0896 0.250022C9.7226 0.392095 9.38394 0.598683 9.08965 0.860022C9.03404 0.925842 8.98387 0.996073 8.93965 1.07002C8.14703 1.34064 7.43049 1.79662 6.84965 2.40002C6.55639 2.70103 6.30115 3.03687 6.08965 3.40002C5.87263 3.77484 5.7014 4.17437 5.57965 4.59002C5.375 5.44123 5.375 6.32882 5.57965 7.18002C5.21604 7.28229 4.85876 7.40583 4.50965 7.55002C4.4636 7.562 4.42069 7.58378 4.38385 7.61389C4.34702 7.644 4.31712 7.68172 4.29623 7.72446C4.27533 7.7672 4.26393 7.81396 4.26279 7.86152C4.26165 7.90909 4.27082 7.95633 4.28965 8.00002C4.30297 8.04021 4.32439 8.07724 4.35258 8.10883C4.38077 8.14043 4.41513 8.16591 4.45355 8.18371C4.49196 8.20151 4.53362 8.21126 4.57594 8.21234C4.61827 8.21343 4.66037 8.20583 4.69965 8.19002ZM15.2596 2.94002C15.6114 3.38762 15.9164 3.87015 16.1696 4.38002C16.3701 4.73251 16.5342 5.10442 16.6596 5.49002C16.75 5.81526 16.7738 6.15537 16.7296 6.49002C15.7635 6.28881 14.7844 6.15515 13.7996 6.09002C13.8896 5.77002 13.9996 5.44002 14.0596 5.09002C14.1614 4.60046 14.2415 4.10665 14.2996 3.61002C14.3348 3.19743 14.3348 2.78261 14.2996 2.37002C14.2746 2.1646 14.2242 1.96307 14.1496 1.77002C14.2696 1.85002 14.3896 1.93002 14.4996 2.02002C14.781 2.30247 15.0354 2.61046 15.2596 2.94002ZM10.5496 1.39002C11.0091 1.20386 11.5119 1.15185 11.9996 1.24002C12.2284 1.28307 12.4445 1.37742 12.6315 1.51599C12.8186 1.65455 12.9718 1.83372 13.0796 2.04002C13.1912 2.25455 13.2592 2.48907 13.2796 2.73002C13.3047 3.02282 13.3047 3.31722 13.2796 3.61002C13.2796 4.13002 13.2296 4.61002 13.1796 5.03002C13.1293 5.36718 13.0592 5.70109 12.9696 6.03002C12.2469 5.99017 11.5224 5.99017 10.7996 6.03002C10.4296 6.03002 10.0496 6.14002 9.67965 6.20002C9.58965 5.82002 9.50965 5.45002 9.45965 5.08002C9.41266 4.59818 9.39263 4.1141 9.39965 3.63002C9.37647 3.29709 9.37647 2.96295 9.39965 2.63002C9.42734 2.44852 9.48478 2.27283 9.56965 2.11002C9.65102 1.95489 9.77171 1.82385 9.91965 1.73002C10.1147 1.59093 10.3263 1.47671 10.5496 1.39002ZM7.15965 4.05002C7.32577 3.73334 7.51988 3.43214 7.73965 3.15002C7.92497 2.90478 8.13252 2.67715 8.35965 2.47002C8.35479 2.87188 8.38491 3.27339 8.44965 3.67002C8.51455 4.21193 8.61139 4.74953 8.73965 5.28002C8.8278 5.64525 8.93461 6.00572 9.05965 6.36002L8.45965 6.45002C7.71965 6.63002 6.99965 6.79002 6.26965 7.00002C6.29398 6.31322 6.43956 5.63613 6.69965 5.00002C6.83709 4.67591 6.99062 4.35885 7.15965 4.05002Z" fill="black"/>
</g>
<defs>
<clipPath id="clip0_36_986">
<rect width="24" height="24" fill="white"/>
</clipPath>
</defs>
</svg>
