<svg width="24" height="24" viewBox="0 0 24 24" fill="none" xmlns="http://www.w3.org/2000/svg">
<g clip-path="url(#clip0_36_383)">
<path d="M23.6298 12.8799C22.7598 10.3299 20.1298 12.4099 18.0098 13.9399C18.0098 12.0999 18.2298 10.8299 15.0998 10.4799C17.8198 8.87995 16.5798 5.22995 14.0998 4.73995C11.9098 4.36995 9.79979 5.88995 10.1898 8.19995C10.2663 8.65208 10.4508 9.07906 10.7276 9.44466C11.0044 9.81025 11.3654 10.1036 11.7798 10.2999C10.0998 10.2999 8.43979 10.3699 6.77979 10.4999C7.60539 10.258 8.34895 9.79459 8.92979 9.15995C10.9298 6.49995 8.92979 2.51995 5.92979 1.92995C5.17808 1.78993 4.40556 1.80647 3.66054 1.97853C2.91551 2.1506 2.21397 2.47448 1.59979 2.92995C1.00062 3.41351 0.540189 4.04712 0.265319 4.76635C-0.0095498 5.48557 -0.0890547 6.26476 0.0348892 7.02468C0.158833 7.7846 0.481805 8.49814 0.970963 9.09275C1.46012 9.68736 2.09802 10.1418 2.81979 10.4099C2.89179 10.4381 2.97171 10.4383 3.04386 10.4105C3.11601 10.3828 3.17519 10.3291 3.20979 10.2599C3.03979 10.8699 4.34979 10.7199 3.67979 10.7899C3.5905 10.8 3.50851 10.8441 3.4508 10.913C3.39309 10.9818 3.36409 11.0703 3.36979 11.1599C3.43979 11.8299 4.16979 11.1599 9.73979 11.1599C11.7896 11.1072 13.8397 11.2579 15.8598 11.6099C16.5298 11.7999 16.8598 11.9999 16.9198 12.6099V16.7499C16.9198 17.8299 16.9198 19.5499 16.2998 20.3999C15.8298 21.0099 13.9598 20.8599 13.1598 20.8999C10.3149 21.2106 7.44207 21.1602 4.60979 20.7499C1.99979 20.1699 1.99979 20.4399 1.84979 17.9999C1.77979 16.9999 1.21979 12.5099 2.17979 11.7599C2.48115 11.6297 2.79206 11.5227 3.10979 11.4399C3.16385 11.4005 3.20371 11.3447 3.22341 11.2807C3.24311 11.2168 3.24159 11.1482 3.21909 11.0852C3.19659 11.0222 3.1543 10.9682 3.09856 10.9312C3.04281 10.8942 2.97659 10.8762 2.90979 10.8799C2.55482 10.8771 2.20745 10.9828 1.91431 11.183C1.62116 11.3832 1.39626 11.6683 1.26979 11.9999C1.00178 13.0112 0.870609 14.0538 0.879788 15.0999C0.879788 15.4199 1.04979 19.0999 1.10979 19.4699C1.14512 19.8415 1.28374 20.1958 1.50994 20.4927C1.73615 20.7896 2.04092 21.0173 2.38979 21.1499C4.18641 21.7313 6.05324 22.0677 7.93979 22.1499C9.69979 22.2199 11.4598 22.0899 13.2098 22.0099C15.6998 21.8899 17.6098 22.3299 17.9698 18.7999C19.1098 19.5399 21.3998 20.7999 22.7498 20.6999C23.8398 20.5999 23.7498 19.3099 23.7998 18.5099C24.1251 16.6411 24.0673 14.7257 23.6298 12.8799ZM3.24979 10.2199C3.38979 9.70995 2.49979 9.92995 1.55979 8.68995C1.28454 8.32164 1.08456 7.90271 0.971275 7.45709C0.857989 7.01146 0.833617 6.54789 0.899552 6.09284C0.965487 5.6378 1.12044 5.20021 1.35555 4.80507C1.59066 4.40993 1.90132 4.06498 2.26979 3.78995C2.74337 3.42473 3.29282 3.17034 3.8777 3.04552C4.46258 2.92071 5.06801 2.92863 5.64943 3.0687C6.23084 3.20878 6.77345 3.47745 7.23732 3.85494C7.70118 4.23242 8.0745 4.70912 8.32979 5.24995C8.60102 5.7777 8.72985 6.36708 8.70354 6.95986C8.67723 7.55265 8.4967 8.1283 8.17979 8.62995C7.5903 9.20231 6.87242 9.62532 6.0861 9.86365C5.29978 10.102 4.46785 10.1487 3.65979 9.99995C3.57629 9.97764 3.48742 9.98797 3.41126 10.0288C3.3351 10.0697 3.27736 10.138 3.24979 10.2199ZM10.9998 8.09995C11.0004 7.75861 11.0781 7.42181 11.2269 7.11462C11.3757 6.80743 11.5919 6.53775 11.8594 6.32567C12.1268 6.11358 12.4387 5.96454 12.7717 5.88964C13.1047 5.81474 13.4503 5.81591 13.7828 5.89306C14.1153 5.9702 14.4262 6.12135 14.6922 6.33524C14.9582 6.54912 15.1726 6.82025 15.3193 7.12844C15.4661 7.43663 15.5414 7.77395 15.5398 8.11528C15.5381 8.45662 15.4595 8.79319 15.3098 9.09995C14.9703 9.60017 14.4571 9.95653 13.8698 10.0999C13.687 10.1207 13.5025 10.1207 13.3198 10.0999C12.755 10.1097 12.2063 9.91119 11.7784 9.54233C11.3505 9.17348 11.0734 8.66005 10.9998 8.09995ZM22.5698 19.6999C21.5423 19.6812 20.5368 19.3988 19.6498 18.8799C18.4398 18.2799 18.3198 18.0499 18.0198 18.1499V14.6999C19.1793 13.8354 20.4687 13.1603 21.8398 12.6999C21.9236 12.6795 22.0107 12.6771 22.0955 12.6929C22.1803 12.7086 22.2608 12.7422 22.3317 12.7913C22.4026 12.8405 22.4622 12.9041 22.5067 12.978C22.5512 13.0518 22.5795 13.1343 22.5898 13.2199C23.1298 15.07 22.6298 19.3399 22.5698 19.6999Z" fill="black"/>
<path d="M3.84 13.8499C3.71 19.3599 3.9 19.2799 8.44 18.9099C9.31 18.8199 10.75 19.0099 11.44 18.0399C11.8342 17.305 11.9445 16.4509 11.75 15.6399C11.57 14.1899 11.49 12.9899 9.92 12.7099C8.03 12.3799 6.5 13.2099 4.73 13.2499C4.67749 13.2496 4.62562 13.2614 4.57846 13.2845C4.53129 13.3076 4.49011 13.3413 4.45814 13.3829C4.42618 13.4246 4.40429 13.4731 4.3942 13.5246C4.38412 13.5761 4.3861 13.6293 4.4 13.6799C4.36635 13.6208 4.31358 13.5748 4.25035 13.5496C4.18713 13.5244 4.1172 13.5214 4.05207 13.5412C3.98693 13.5609 3.93046 13.6023 3.89192 13.6584C3.85338 13.7145 3.83507 13.782 3.84 13.8499ZM9.72 13.6499C10.67 13.8699 10.55 14.7299 10.63 15.7499C10.82 17.9999 10.38 17.5499 8.32 17.7499C7.7 17.8299 5.32 18.2999 4.9 17.8199C4.48 17.3399 4.46 13.8199 4.43 13.7399C4.82 14.3999 7.8 13.1999 9.72 13.6499Z" fill="black"/>
<path d="M15.4699 14.5699C14.8859 14.3956 14.2684 14.3647 13.6699 14.4799C12.9999 14.6699 12.6699 14.6299 12.4999 14.9499C12.4399 15.0599 12.4999 15.1799 12.6899 15.3099C12.7995 15.3526 12.9135 15.3828 13.0299 15.3999L13.7199 15.5599C14.3181 15.5753 14.9133 15.4699 15.4699 15.2499C15.5601 15.2499 15.6465 15.2141 15.7103 15.1503C15.7741 15.0866 15.8099 15.0001 15.8099 14.9099C15.8099 14.8197 15.7741 14.7332 15.7103 14.6695C15.6465 14.6057 15.5601 14.5699 15.4699 14.5699Z" fill="black"/>
<path d="M15.4599 16.49C15.1607 16.3685 14.8487 16.2813 14.5299 16.23C13.9527 16.2385 13.3825 16.3573 12.8499 16.58C12.8058 16.6027 12.7689 16.6371 12.7431 16.6794C12.7173 16.7218 12.7036 16.7704 12.7036 16.82C12.7036 16.8696 12.7173 16.9182 12.7431 16.9605C12.7689 17.0029 12.8058 17.0373 12.8499 17.06C13.2179 17.1735 13.5918 17.2669 13.9699 17.34C14.1663 17.355 14.3635 17.355 14.5599 17.34C14.8699 17.34 15.1299 17.19 15.4299 17.15C15.4793 17.1644 15.5314 17.1675 15.5822 17.1588C15.633 17.1502 15.6811 17.1302 15.723 17.1003C15.7649 17.0703 15.7994 17.0312 15.824 16.986C15.8486 16.9408 15.8626 16.8905 15.865 16.8391C15.8673 16.7876 15.8579 16.7363 15.8375 16.689C15.8171 16.6418 15.7863 16.5997 15.7473 16.5661C15.7083 16.5325 15.6621 16.5082 15.6124 16.495C15.5626 16.4818 15.5105 16.4801 15.4599 16.49Z" fill="black"/>
</g>
<defs>
<clipPath id="clip0_36_383">
<rect width="24" height="24" fill="white"/>
</clipPath>
</defs>
</svg>
