<svg width="24" height="24" viewBox="0 0 24 24" fill="none" xmlns="http://www.w3.org/2000/svg">
<g clip-path="url(#clip0_36_345)">
<path d="M16.8603 8.68986C16.8059 8.63551 16.7322 8.60498 16.6553 8.60498C16.5784 8.60498 16.5047 8.63551 16.4503 8.68986C14.4503 8.84986 14.2003 10.2699 14.1703 12.1299C14.1703 13.1299 14.1003 17.2199 14.1703 17.8799C14.3003 19.0599 14.8303 19.8799 16.0303 19.8799C16.7803 19.9299 16.9403 19.6299 17.1803 18.7699C17.7403 16.7599 17.2003 9.08986 16.8603 8.68986ZM16.2603 18.7599H16.1503C15.1503 18.7599 15.2903 17.7599 15.2003 16.1699C15.0003 11.1199 14.8903 10.5399 15.3303 9.90986C15.4674 9.73933 15.6389 9.59957 15.8336 9.49965C16.0282 9.39972 16.2418 9.34187 16.4603 9.32986C16.4603 9.19986 16.4603 11.1999 16.5203 13.1399C16.6003 16.6399 16.6903 17.9999 16.2603 18.7599Z" fill="black"/>
<path d="M23.4301 17.1599C22.8801 16.4999 22.2301 16.4499 21.6001 16.1099C21.8991 15.5471 22.0686 14.9246 22.0962 14.288C22.1239 13.6513 22.0091 13.0165 21.7601 12.4299C21.4274 11.6552 20.8833 10.9898 20.1901 10.5099C20.7701 9.72988 20.0801 0.719878 12.3501 -0.000121832C7.6301 -0.320122 3.1101 1.70988 1.8901 6.36988C1.49329 8.17797 1.37526 10.0361 1.5401 11.8799C1.15277 12.4019 0.898473 13.0104 0.799226 13.6527C0.699978 14.2951 0.758769 14.952 0.970509 15.5665C1.18225 16.1811 1.54056 16.7347 2.01443 17.1796C2.4883 17.6245 3.06345 17.9473 3.6901 18.1199C4.00905 18.251 4.34638 18.332 4.6901 18.3599C5.1801 18.3599 5.2001 17.8499 4.6901 17.6399C4.42182 17.5629 4.16082 17.4625 3.9101 17.3399C0.200101 15.7299 2.0001 10.3899 5.0901 10.5699C5.5801 10.5699 5.7201 10.0599 5.0901 9.85988C4.52397 9.81622 3.95566 9.90978 3.4334 10.1326C2.91114 10.3554 2.45034 10.701 2.0901 11.1399C2.0901 8.02988 2.5401 5.18988 4.9301 3.13988C7.9301 0.619878 14.5501 -0.240122 17.7201 4.04988C18.971 5.8158 19.6229 7.93621 19.5801 10.0999C18.9401 9.75988 17.5801 9.40988 17.5801 9.99988C17.5852 10.0786 17.6201 10.1524 17.6777 10.2063C17.7353 10.2601 17.8112 10.29 17.8901 10.2899C19.8901 10.2899 21.5801 13.1799 20.7401 15.2899C20.5199 15.8491 20.1563 16.3404 19.6858 16.7143C19.2153 17.0883 18.6546 17.3316 18.0601 17.4199C17.9646 17.4119 17.8699 17.4422 17.7968 17.5041C17.7236 17.566 17.6781 17.6544 17.6701 17.7499C17.6621 17.8454 17.6924 17.9401 17.7543 18.0132C17.8162 18.0864 17.9046 18.1319 18.0001 18.1399C19.2137 18.0209 20.3432 17.4668 21.1801 16.5799C21.8301 16.9899 23.6201 17.3499 22.8701 18.9199C22.1201 20.4899 20.5201 19.8199 19.4601 19.8299C16.1601 19.8299 18.0401 23.1799 11.8601 22.3999C9.2101 21.9999 7.5701 21.6699 6.7801 21.8599C6.78494 21.6228 6.73737 21.3877 6.64079 21.1712C6.54421 20.9546 6.40101 20.7621 6.22141 20.6074C6.04181 20.4526 5.83025 20.3394 5.60184 20.2759C5.37343 20.2124 5.13381 20.2001 4.9001 20.2399C1.9701 20.2399 2.4201 20.5599 2.1601 21.5599C1.4601 21.2999 0.160101 21.1899 0.0901008 21.6899C0.0845181 21.7333 0.0876171 21.7773 0.0992177 21.8195C0.110818 21.8617 0.130689 21.9011 0.157674 21.9356C0.184659 21.97 0.21822 21.9987 0.256405 22.0201C0.29459 22.0414 0.336637 22.0549 0.380101 22.0599C1.0201 22.3499 1.2201 22.5999 2.0301 22.3499C2.01187 22.6291 2.08564 22.9066 2.2401 23.1399C2.6301 23.6999 4.3701 24.1399 5.7301 23.7599C6.00843 23.6757 6.25391 23.5075 6.43293 23.2783C6.61195 23.0492 6.71575 22.7703 6.7301 22.4799C8.5701 22.0699 13.7301 24.9499 17.1301 22.6099C17.7901 22.1399 17.9801 21.3399 18.6101 21.0799C19.6101 20.6699 20.8601 21.1499 22.0001 20.7799C23.6401 20.3499 24.4401 18.3499 23.4301 17.1599ZM5.6101 22.6699C4.75137 22.9647 3.81883 22.9647 2.9601 22.6699C2.7201 22.3799 2.9601 21.4399 2.9601 21.1999C3.72639 21.1272 4.49865 21.1474 5.2601 21.2599C6.0701 21.4999 5.6201 22.5899 5.6101 22.6699Z" fill="black"/>
<path d="M5.36015 18.4798C5.55015 19.4798 5.88015 20.1098 6.89015 20.0398C7.18083 20.0189 7.46381 19.9368 7.72058 19.7989C7.97734 19.6611 8.2021 19.4706 8.38015 19.2398C8.90015 18.3598 8.80015 17.7098 8.75015 12.2398C8.75015 10.3498 8.48015 8.96984 6.47015 8.80984C6.27015 8.63984 5.99015 8.74984 5.87015 9.32984C5.44911 12.3607 5.27853 15.421 5.36015 18.4798ZM6.46015 9.47984C8.34015 9.73984 7.99015 11.1398 7.73015 16.2898C7.78288 17.0802 7.67399 17.873 7.41015 18.6198C7.23304 18.7761 7.00632 18.8647 6.77015 18.8698C6.77015 18.8698 6.68015 18.8698 6.66015 18.8698C6.50987 18.5544 6.41193 18.2167 6.37015 17.8698C6.31015 17.4098 6.46015 9.60984 6.46015 9.52984V9.47984Z" fill="black"/>
</g>
<defs>
<clipPath id="clip0_36_345">
<rect width="24" height="24" fill="white"/>
</clipPath>
</defs>
</svg>
