<svg width="24" height="24" viewBox="0 0 24 24" fill="none" xmlns="http://www.w3.org/2000/svg">
<g clip-path="url(#clip0_36_334)">
<path d="M23.4704 13.1899C22.5216 12.3364 21.3553 11.7619 20.1004 11.5299C19.5707 11.4213 19.0311 11.3677 18.4904 11.3699C17.9502 11.3781 17.4116 11.4316 16.8804 11.5299C15.6564 11.7855 14.4965 12.2854 13.4704 12.9999C13.2933 14.6938 13.2265 16.3974 13.2704 18.0999C13.2898 18.8634 13.4633 19.6151 13.7804 20.3099C14.0653 20.8438 14.4448 21.3216 14.9004 21.7199C15.565 22.2556 16.2668 22.7435 17.0004 23.1799C17.2898 23.3539 17.5943 23.5012 17.9104 23.6199C18.1603 23.7174 18.423 23.778 18.6904 23.7999C18.956 23.7969 19.2182 23.739 19.4604 23.6299C19.7364 23.4898 20.0036 23.3329 20.2604 23.1599C21.0652 22.666 21.8189 22.0931 22.5104 21.4499C23.0003 20.9897 23.3975 20.4397 23.6804 19.8299C23.9426 19.0343 24.0512 18.1961 24.0004 17.3599C24.0114 15.9525 23.8332 14.5499 23.4704 13.1899ZM23.1704 17.3499C23.17 18.0647 23.0378 18.7732 22.7804 19.4399C22.5303 19.9198 22.1909 20.3474 21.7804 20.6999C21.1116 21.2682 20.3919 21.7737 19.6304 22.2099C19.4227 22.3514 19.2055 22.4783 18.9804 22.5899C18.8782 22.6422 18.7651 22.6696 18.6504 22.6699C18.4797 22.6374 18.3146 22.5801 18.1604 22.4999C17.9617 22.4296 17.7707 22.3391 17.5904 22.2299C16.8954 21.8308 16.2273 21.3865 15.5904 20.8999C15.1957 20.606 14.857 20.2436 14.5904 19.8299C14.2218 19.0543 14.024 18.2086 14.0104 17.3499C13.9104 15.9399 14.0104 14.4099 14.0104 13.3499C14.9635 12.9313 15.9753 12.6615 17.0104 12.5499C17.4804 12.5499 18.0104 12.4699 18.4504 12.4599C18.9281 12.4531 19.4057 12.4765 19.8804 12.5299C20.3204 12.5799 22.8204 13.0099 22.9404 13.8699C23.1106 15.0219 23.1875 16.1856 23.1704 17.3499Z" fill="black"/>
<path d="M21.0901 17.0001C20.4901 16.9401 19.9101 16.8301 19.3101 16.7701H19.1101C19.0601 16.1901 18.9601 15.6201 18.9501 15.0201C18.9509 14.9469 18.9249 14.876 18.8771 14.8207C18.8293 14.7653 18.7629 14.7293 18.6904 14.7195C18.6179 14.7097 18.5443 14.7267 18.4835 14.7673C18.4227 14.8079 18.3788 14.8693 18.3601 14.9401C18.1906 15.5121 18.0701 16.0976 18.0001 16.6901C17.3262 16.7345 16.6573 16.8348 16.0001 16.9901C15.9567 16.9867 15.9131 16.9928 15.8723 17.0079C15.8316 17.023 15.7946 17.0469 15.7639 17.0777C15.7333 17.1086 15.7097 17.1458 15.6948 17.1866C15.68 17.2275 15.6742 17.2711 15.6778 17.3145C15.6815 17.3578 15.6946 17.3998 15.7161 17.4376C15.7376 17.4754 15.7671 17.5081 15.8025 17.5334C15.8379 17.5586 15.8784 17.5759 15.9212 17.5839C15.9639 17.592 16.0079 17.5907 16.0501 17.5801C16.6401 17.5801 17.2001 17.7201 17.7701 17.7801H18.0001V18.1101C18.0701 18.7101 18.2001 19.2901 18.2701 19.8901C18.27 19.9342 18.2789 19.978 18.2961 20.0187C18.3133 20.0594 18.3385 20.0962 18.3702 20.127C18.4019 20.1578 18.4395 20.1819 18.4807 20.1979C18.5219 20.2138 18.5659 20.2214 18.6101 20.2201C18.7002 20.2201 18.7867 20.1842 18.8505 20.1205C18.9142 20.0567 18.9501 19.9702 18.9501 19.8801C19.0101 19.2001 19.0801 18.5401 19.0901 17.8801V17.8201H19.2701C19.8625 17.7931 20.4533 17.7364 21.0401 17.6501C21.0843 17.6501 21.128 17.6412 21.1687 17.624C21.2094 17.6068 21.2462 17.5816 21.277 17.5499C21.3078 17.5182 21.3319 17.4806 21.3479 17.4394C21.3639 17.3982 21.3714 17.3542 21.3701 17.3101C21.3683 17.2334 21.339 17.16 21.2876 17.1031C21.2362 17.0462 21.1661 17.0096 21.0901 17.0001Z" fill="black"/>
<path d="M11.3102 17.5C10.9492 17.443 10.5853 17.4063 10.2202 17.39H8.64017C8.11017 17.39 7.64017 17.39 7.17017 17.34C6.44017 17.34 5.70017 17.24 4.96017 17.18C4.30047 17.1446 3.64487 17.0543 3.00017 16.91C2.64274 16.8206 2.30411 16.6682 2.00017 16.46C1.70947 16.2421 1.51564 15.919 1.46017 15.56C1.35353 14.899 1.31999 14.2283 1.36017 13.56L1.18017 6.99999C1.10513 6.04145 1.10513 5.07852 1.18017 4.11999C1.23663 3.56483 1.4637 3.0408 1.83017 2.61999C2.0628 2.37487 2.35601 2.1955 2.68017 2.09999C3.28291 1.9517 3.89971 1.86789 4.52017 1.84999L9.38017 1.44999L13.8902 1.23999C14.8902 1.23999 15.9502 1.16999 16.9802 1.18999C17.6494 1.2039 18.3172 1.25732 18.9802 1.34999C19.3161 1.39005 19.6499 1.44679 19.9802 1.51999C20.1664 1.55803 20.3432 1.63282 20.5002 1.73999C20.7578 1.93945 20.9608 2.20091 21.0902 2.49999C21.2418 2.81723 21.3494 3.15366 21.4102 3.49999C21.4702 3.83999 21.5002 4.18999 21.5302 4.49999C21.5302 5.03999 21.5302 5.57999 21.5802 6.11999V9.83999C21.5853 9.9284 21.6248 10.0113 21.6902 10.0711C21.7555 10.1308 21.8416 10.1627 21.9302 10.16C21.9744 10.1587 22.0179 10.1486 22.0581 10.1302C22.0984 10.1118 22.1345 10.0854 22.1643 10.0528C22.1942 10.0201 22.2172 9.98182 22.2319 9.94011C22.2467 9.8984 22.2529 9.85415 22.2502 9.80999L22.3502 6.09999V4.45999C22.3338 4.08162 22.2971 3.7044 22.2402 3.32999C22.1657 2.81926 22.0033 2.32529 21.7602 1.86999C21.592 1.5387 21.361 1.24324 21.0802 0.999986C20.8337 0.821893 20.5553 0.692881 20.2602 0.619986C19.887 0.541997 19.5097 0.485239 19.1302 0.449986C18.4256 0.331271 17.7141 0.257787 17.0002 0.229986C15.9502 0.179986 14.9002 0.229986 13.8602 0.229986L9.33017 0.329986L4.42017 0.699986C3.71768 0.720559 3.01984 0.82121 2.34017 0.999986C1.82531 1.15791 1.36245 1.45151 1.00017 1.84999C0.486165 2.4378 0.158915 3.16541 0.0601704 3.93999C-0.00790777 4.95911 -0.00122321 5.98184 0.0801704 6.99999L0.37017 13.59C0.349131 14.3211 0.409502 15.0522 0.55017 15.77C0.670062 16.3356 1.00309 16.8334 1.48017 17.16C1.90109 17.4272 2.36968 17.6106 2.86017 17.7C3.53642 17.8273 4.22216 17.8975 4.91017 17.91C5.65017 17.91 6.40017 17.99 7.15017 18.01H8.64017H10.2102C10.5448 18.0168 10.8787 18.0435 11.2102 18.09C11.2483 18.0971 11.2875 18.0966 11.3254 18.0883C11.3633 18.0801 11.3992 18.0643 11.4309 18.0419C11.4626 18.0195 11.4895 17.991 11.51 17.958C11.5305 17.9251 11.5441 17.8883 11.5502 17.85C11.5574 17.8112 11.5569 17.7715 11.5488 17.7329C11.5406 17.6943 11.525 17.6578 11.5027 17.6253C11.4804 17.5928 11.4519 17.565 11.4189 17.5435C11.3859 17.522 11.3489 17.5072 11.3102 17.5Z" fill="black"/>
<path d="M15.6202 9.45996C15.7434 9.36142 15.8455 9.23896 15.9202 9.09996C15.9817 8.95211 15.9974 8.7892 15.9653 8.63231C15.9332 8.47542 15.8548 8.33178 15.7402 8.21996C15.346 7.85765 14.9014 7.55448 14.4202 7.31996C13.4202 6.78996 12.4202 6.25996 11.4202 5.68996C10.7535 5.30996 10.0868 4.91996 9.42016 4.51996C8.61016 3.95996 8.77016 6.09996 8.73016 10.52V12.03V12.61C8.68895 12.7702 8.66548 12.9346 8.66016 13.1C8.66501 13.1752 8.68648 13.2484 8.72302 13.3143C8.75955 13.3802 8.81024 13.4372 8.87144 13.4812C8.93264 13.5252 9.00283 13.5551 9.07696 13.5687C9.15109 13.5823 9.22732 13.5793 9.30016 13.56C9.45158 13.546 9.59996 13.5089 9.74016 13.45C9.97429 13.3446 10.2014 13.2244 10.4202 13.09L12.2502 11.89L14.7502 9.99996C14.9402 9.89996 15.3702 9.66996 15.6202 9.45996ZM11.5402 10.9L9.80016 12.07H9.72016V12L9.67016 10.47L9.40016 5.31996C9.92016 5.67996 10.4002 6.02996 11.0002 6.36996C11.9581 7.03746 12.9604 7.63885 14.0002 8.16996C15.4502 8.83996 14.9102 8.64996 14.1702 9.16996L11.5402 10.9Z" fill="black"/>
</g>
<defs>
<clipPath id="clip0_36_334">
<rect width="24" height="24" fill="white"/>
</clipPath>
</defs>
</svg>
