<svg width="24" height="24" viewBox="0 0 24 24" fill="none" xmlns="http://www.w3.org/2000/svg">
<g clip-path="url(#clip0_36_404)">
<path fill-rule="evenodd" clip-rule="evenodd" d="M11.3601 4.78015C11.9393 4.73598 12.521 4.73598 13.1001 4.78015C13.5501 4.84015 13.7501 4.07015 13.3101 4.00015C11.7609 3.83979 10.1993 3.83979 8.65011 4.00015C8.17011 4.12015 8.33011 4.40015 8.65011 4.63015C9.5235 4.92303 10.4597 4.97485 11.3601 4.78015Z" fill="black"/>
<path fill-rule="evenodd" clip-rule="evenodd" d="M12.4902 8.90013C12.579 8.88421 12.6579 8.83366 12.7095 8.75958C12.761 8.6855 12.7811 8.59397 12.7652 8.50513C12.7492 8.41628 12.6987 8.33739 12.6246 8.28582C12.5505 8.23425 12.459 8.21421 12.3702 8.23013C11.1137 8.33722 9.84919 8.30368 8.60016 8.13013C8.52361 8.15854 8.45759 8.2097 8.41097 8.27674C8.36434 8.34377 8.33936 8.42347 8.33936 8.50513C8.33936 8.58678 8.36434 8.66648 8.41097 8.73351C8.45759 8.80055 8.52361 8.85171 8.60016 8.88013C9.87217 9.23118 11.2146 9.23808 12.4902 8.90013Z" fill="black"/>
<path fill-rule="evenodd" clip-rule="evenodd" d="M12.5299 12.1301C12.6057 12.1029 12.6693 12.0497 12.7096 11.9799C12.7498 11.9102 12.764 11.8284 12.7496 11.7492C12.7352 11.67 12.6931 11.5984 12.6309 11.5473C12.5687 11.4962 12.4904 11.4688 12.4099 11.4701C11.272 11.3804 10.1276 11.424 8.99986 11.6001C8.93348 11.637 8.8797 11.693 8.84546 11.7608C8.81122 11.8287 8.7981 11.9052 8.80779 11.9805C8.81748 12.0559 8.84953 12.1266 8.89981 12.1836C8.95009 12.2405 9.01629 12.2811 9.08986 12.3001C10.2163 12.6838 11.4467 12.6229 12.5299 12.1301Z" fill="black"/>
<path fill-rule="evenodd" clip-rule="evenodd" d="M12.8201 6.8092e-05C12.7299 6.8092e-05 12.6434 0.0358894 12.5797 0.0996518C12.5159 0.163414 12.4801 0.249894 12.4801 0.340068C12.4801 0.430242 12.5159 0.516722 12.5797 0.580484C12.6434 0.644247 12.7299 0.680068 12.8201 0.680068C17.0001 0.740068 16.3101 7.00007 15.9101 11.1901C15.5401 14.0001 14.8401 15.1901 12.1401 14.9101C11.0776 14.8777 10.0609 14.4703 9.27008 13.7601C9.05041 13.4997 8.88699 13.1967 8.79007 12.8701C8.6046 12.3278 8.45757 11.773 8.35008 11.2101C8.09361 9.95005 7.97624 8.6657 8.00008 7.38007C7.95528 6.03134 8.11029 4.68341 8.46008 3.38007C8.6612 2.73182 9.03272 2.14947 9.53581 1.69387C10.0389 1.23827 10.6551 0.926134 11.3201 0.790068C11.3937 0.772007 11.4577 0.726754 11.4993 0.663405C11.5409 0.600055 11.557 0.523304 11.5444 0.448578C11.5317 0.373851 11.4912 0.306688 11.4311 0.260587C11.3709 0.214486 11.2955 0.192865 11.2201 0.200068C10.3316 0.355847 9.50876 0.769946 8.85427 1.39064C8.19979 2.01134 7.74269 2.81111 7.54007 3.69007C6.71007 6.41007 6.87008 12.6901 8.42008 14.5001C9.38341 15.4376 10.6572 15.9891 12.0001 16.0501C15.4401 16.4101 16.5601 14.6701 16.9401 11.3201C17.2801 6.48007 17.6801 -0.0699319 12.8201 6.8092e-05Z" fill="black"/>
<path fill-rule="evenodd" clip-rule="evenodd" d="M19 9.61015C18.9907 9.51998 18.946 9.43718 18.8757 9.37999C18.8053 9.32279 18.7152 9.29587 18.625 9.30515C18.5348 9.31443 18.452 9.35916 18.3948 9.42948C18.3376 9.49981 18.3107 9.58998 18.32 9.68015C18.45 11.2902 18.46 13.6802 17.71 15.0502C16.49 17.4102 13.14 17.9001 10.59 17.3801C8.27999 17.0001 6.78999 16.1902 6.06999 14.0002C5.53805 12.5982 5.37618 11.0828 5.59999 9.60015C5.69999 9.12015 4.91999 8.51015 4.85999 10.0102C4.75841 11.4278 4.90391 12.8523 5.28999 14.2202C5.54203 15.4061 6.1998 16.467 7.14999 17.2201C8.66872 18.2233 10.4499 18.7556 12.27 18.7501C12.27 18.8301 11.99 20.4601 11.97 20.7501C11.9305 21.805 12.0042 22.861 12.19 23.9001C12.2216 23.9497 12.2652 23.9905 12.3168 24.0187C12.3684 24.047 12.4262 24.0618 12.485 24.0618C12.5438 24.0618 12.6016 24.047 12.6532 24.0187C12.7047 23.9905 12.7484 23.9497 12.78 23.9001C12.9453 22.8701 13.0554 21.832 13.11 20.7902C13.11 20.3402 13.04 19.9002 13 19.4502C13 19.3002 13.08 18.8201 12.93 18.7501C13.9265 18.7228 14.9094 18.5126 15.83 18.1301C19.19 16.5801 19.45 13.2801 19 9.61015Z" fill="black"/>
</g>
<defs>
<clipPath id="clip0_36_404">
<rect width="24" height="24" fill="white"/>
</clipPath>
</defs>
</svg>
