<svg width="24" height="24" viewBox="0 0 24 24" fill="none" xmlns="http://www.w3.org/2000/svg">
<g clip-path="url(#clip0_36_320)">
<path fill-rule="evenodd" clip-rule="evenodd" d="M22.5199 5.15012C22.2199 4.58012 21.0899 3.82012 20.2399 2.46012C19.8652 1.84614 19.6075 1.16802 19.4799 0.460116C19.4519 0.345779 19.3918 0.2418 19.3068 0.160339C19.2218 0.0788783 19.1154 0.023304 18.9999 0.000115748C18.881 -0.0241653 18.7575 -0.0123933 18.6452 0.0339251C18.533 0.0802435 18.4372 0.159001 18.3699 0.260116C17.5853 1.09765 16.725 1.8609 15.7999 2.54012C15.3474 2.94419 14.989 3.44255 14.7499 4.00012C14.5979 4.34292 14.5001 4.70727 14.4599 5.08012C14.4224 5.59478 14.4493 6.11211 14.5399 6.62012V6.96012C14.4543 6.91976 14.3738 6.86941 14.2999 6.81012C14.1783 6.70993 14.0766 6.58782 13.9999 6.45012C13.921 6.30841 13.8605 6.15718 13.8199 6.00012C13.7299 5.71012 13.6799 5.41012 13.5999 5.12012C13.5639 4.93424 13.5172 4.7506 13.4599 4.57012C13.4173 4.47697 13.3535 4.39504 13.2736 4.33082C13.1938 4.2666 13.1001 4.22185 12.9999 4.20012C12.8866 4.17407 12.7684 4.17888 12.6576 4.21406C12.5468 4.24923 12.4475 4.31349 12.3699 4.40012C12.2038 4.62824 12.0503 4.86526 11.9099 5.11012C11.687 5.52461 11.5253 5.96923 11.4299 6.43012C11.34 6.88086 11.3097 7.34148 11.3399 7.80012C11.408 9.40216 12.0712 10.9212 13.1999 12.0601C13.2699 12.1201 14.4599 13.4701 17.8399 13.5701C18.984 13.5263 20.086 13.1272 20.9929 12.4283C21.8997 11.7294 22.5662 10.7653 22.8999 9.67012C23.3408 8.16872 23.2053 6.55682 22.5199 5.15012ZM22.0499 9.43012C21.9184 9.99541 21.6733 10.5281 21.3295 10.9957C20.9857 11.4632 20.5503 11.856 20.0499 12.1501C20.1355 11.9881 20.2026 11.8171 20.2499 11.6401C20.374 11.1293 20.3233 10.5915 20.1057 10.1129C19.8882 9.63435 19.5164 9.24252 19.0499 9.00012C19.006 8.97582 18.9576 8.96043 18.9077 8.95482C18.8577 8.94921 18.8072 8.95349 18.7589 8.96742C18.7106 8.98135 18.6655 9.00465 18.6262 9.036C18.587 9.06735 18.5542 9.10612 18.5299 9.15012C18.5057 9.19411 18.4903 9.24246 18.4847 9.2924C18.479 9.34234 18.4833 9.39289 18.4973 9.44118C18.5112 9.48947 18.5345 9.53454 18.5658 9.57382C18.5972 9.6131 18.636 9.64582 18.6799 9.67012C18.9486 9.85594 19.1482 10.1254 19.2477 10.4365C19.3472 10.7476 19.3409 11.0829 19.2299 11.3901C19.1453 11.6741 18.9639 11.9194 18.7174 12.0838C18.4709 12.2482 18.1746 12.3211 17.8799 12.2901C17.6021 12.293 17.3278 12.2269 17.0817 12.0978C16.8356 11.9686 16.6254 11.7805 16.4699 11.5501C16.311 11.3267 16.2257 11.0593 16.2257 10.7851C16.2257 10.5109 16.311 10.2436 16.4699 10.0201C16.625 9.80202 16.8357 9.62938 17.0799 9.52012C17.3703 9.39331 17.6716 9.29291 17.9799 9.22012C18.0239 9.21224 18.066 9.19577 18.1036 9.17165C18.1412 9.14754 18.1737 9.11625 18.1993 9.07957C18.2248 9.04289 18.2429 9.00154 18.2524 8.95788C18.262 8.91422 18.2628 8.86911 18.2549 8.82512C18.2471 8.78112 18.2306 8.73911 18.2065 8.70148C18.1824 8.66385 18.1511 8.63134 18.1144 8.60581C18.0777 8.58027 18.0364 8.56221 17.9927 8.55265C17.9491 8.5431 17.9039 8.54224 17.8599 8.55012C17.4146 8.58833 16.977 8.68933 16.5599 8.85012C16.2374 8.97321 15.9493 9.17215 15.7199 9.43012C15.3742 9.79716 15.1563 10.2661 15.0986 10.767C15.0409 11.2679 15.1466 11.7741 15.3999 12.2101C15.4602 12.3015 15.5271 12.3884 15.5999 12.4701C14.9293 12.3056 14.3169 11.9597 13.8299 11.4701C12.9014 10.4587 12.3904 9.1331 12.3999 7.76012C12.3897 7.393 12.4301 7.02622 12.5199 6.67012C12.5199 6.55012 12.5899 6.43012 12.6299 6.31012V6.38012C12.7005 6.63135 12.8012 6.87312 12.9299 7.10012C13.0923 7.36335 13.2986 7.59675 13.5399 7.79012C13.7731 7.972 14.0328 8.11702 14.3099 8.22012C14.3099 8.22012 15.0499 8.44011 15.3099 8.50012C15.4473 8.53323 15.5913 8.52738 15.7255 8.48322C15.8598 8.43905 15.979 8.35833 16.0699 8.25012C16.1843 8.07968 16.234 7.87396 16.2099 7.67012C16.2099 7.33012 15.7999 6.59012 15.7799 6.41012C15.7259 6.07954 15.6992 5.74508 15.6999 5.41012C15.7052 5.10396 15.7697 4.80172 15.8899 4.52012C16.072 4.14086 16.3268 3.80108 16.6399 3.52012C17.2299 2.95012 17.9399 2.46012 18.5599 1.89012C18.7299 2.32628 18.948 2.74217 19.2099 3.13012C20.0799 4.45012 21.2099 5.13012 21.5499 5.70012C22.1755 6.83772 22.3538 8.16791 22.0499 9.43012Z" fill="black"/>
<path fill-rule="evenodd" clip-rule="evenodd" d="M8.84012 13.8102C8.80599 13.7698 8.76292 13.7379 8.71431 13.7171C8.6657 13.6963 8.61291 13.6871 8.56012 13.6902C8.51544 13.6928 8.47171 13.7041 8.43143 13.7236C8.39115 13.7431 8.35511 13.7703 8.32538 13.8038C8.29565 13.8372 8.27281 13.8762 8.25818 13.9185C8.24355 13.9608 8.23741 14.0055 8.24012 14.0502V18.3202V19.7302C8.24012 19.8802 8.12012 20.1602 8.12012 20.3002C8.12002 20.3856 8.13675 20.4702 8.16935 20.5491C8.20195 20.628 8.24978 20.6998 8.31012 20.7602C8.38985 20.8495 8.49303 20.9146 8.60793 20.9482C8.72283 20.9818 8.84485 20.9825 8.96012 20.9502C9.43892 20.8475 9.89811 20.6686 10.3201 20.4202C11.2101 19.9302 12.0501 19.2002 12.8101 18.7002C13.0801 18.5202 13.5101 18.3202 13.8101 18.0802C14.0168 17.9444 14.1965 17.7715 14.3401 17.5702C14.4188 17.4554 14.4609 17.3194 14.4609 17.1802C14.4609 17.041 14.4188 16.905 14.3401 16.7902C14.0098 16.4226 13.6447 16.0877 13.2501 15.7902C12.6595 15.3534 12.0452 14.9494 11.4101 14.5802C10.7693 14.1976 10.1007 13.8633 9.41012 13.5802C9.35929 13.5484 9.30166 13.5292 9.24195 13.5239C9.18224 13.5187 9.12214 13.5276 9.06655 13.5501C9.01097 13.5725 8.96148 13.6078 8.92213 13.653C8.88277 13.6982 8.85467 13.7521 8.84012 13.8102ZM12.4701 16.6202C12.4701 16.6702 12.8601 16.8902 13.0901 17.1002L12.9501 17.1702C12.6301 17.3502 12.2701 17.5102 12.0401 17.6602C11.3901 18.0702 10.6701 18.6602 9.95012 19.1202C9.74012 19.2502 9.54012 19.3702 9.34012 19.4702L9.25012 18.3002L8.92012 14.2402L9.04012 14.3202C9.66451 14.6076 10.2662 14.9419 10.8401 15.3202C11.4094 15.72 11.9537 16.1541 12.4701 16.6202Z" fill="black"/>
<path fill-rule="evenodd" clip-rule="evenodd" d="M20.76 14.4501C20.7562 14.3988 20.7423 14.3488 20.7191 14.3029C20.6959 14.257 20.6639 14.2162 20.6249 14.1827C20.5858 14.1493 20.5406 14.1239 20.4917 14.108C20.4428 14.0921 20.3913 14.086 20.34 14.0901C20.2896 14.0925 20.2402 14.1052 20.1948 14.1275C20.1495 14.1497 20.1092 14.181 20.0764 14.2194C20.0436 14.2578 20.019 14.3025 20.0042 14.3508C19.9893 14.3991 19.9845 14.4499 19.99 14.5001L20.21 20.6401V21.7601C20.2275 21.9881 20.1933 22.2171 20.11 22.4301C20.05 22.3601 19.83 22.4901 19.59 22.5201C18.42 22.6501 15.94 22.7001 13.23 22.7301C8.59001 22.7801 3.23001 22.7301 2.71001 22.5901C2.62001 22.5901 2.34001 22.3401 2.18001 22.3501C2.18484 22.2935 2.18484 22.2366 2.18001 22.1801V21.1801C2.18001 20.5201 1.99001 17.2701 2.00001 14.4501C1.97853 13.274 2.03867 12.0978 2.18001 10.9301C2.18001 10.6901 2.39001 10.4801 2.34001 10.4001C3.434 10.1769 4.54433 10.0431 5.66001 10.0001C7.88001 9.85007 10.43 9.77007 11.13 9.76007C11.2211 9.75747 11.3076 9.71944 11.3711 9.65409C11.4345 9.58873 11.47 9.50119 11.47 9.41007C11.4674 9.31899 11.4294 9.23251 11.364 9.16902C11.2987 9.10553 11.2111 9.07003 11.12 9.07007C10.32 9.07007 7.12001 9.07007 4.70001 9.18007C3.7055 9.17633 2.71444 9.29727 1.75001 9.54007C1.53504 9.70596 1.38046 9.93783 1.31001 10.2001C1.14672 10.8323 1.04293 11.4785 1.00001 12.1301C0.730012 15.1301 0.860012 20.3701 0.900012 21.2301V22.4301C0.91389 22.6805 0.978532 22.9254 1.09001 23.1501C1.18264 23.3256 1.33013 23.4661 1.51001 23.5501C1.77837 23.6776 2.06011 23.7749 2.35001 23.8401C5.98294 24.0526 9.62436 24.0793 13.26 23.9201C16.02 23.8401 18.54 23.6901 19.73 23.5301C20.0487 23.4997 20.3598 23.4152 20.65 23.2801C20.9201 23.0364 21.091 22.7017 21.13 22.3401C21.185 21.7614 21.185 21.1788 21.13 20.6001L20.76 14.4501Z" fill="black"/>
</g>
<defs>
<clipPath id="clip0_36_320">
<rect width="24" height="24" fill="white"/>
</clipPath>
</defs>
</svg>
