<svg width="24" height="24" viewBox="0 0 24 24" fill="none" xmlns="http://www.w3.org/2000/svg">
<g clip-path="url(#clip0_36_396)">
<path fill-rule="evenodd" clip-rule="evenodd" d="M18.9996 5.64014H14.8396C12.9096 5.64014 10.9796 5.73014 9.05958 5.84014C6.63958 5.98014 4.20958 6.19014 1.77958 6.36014C1.19958 6.52014 1.27958 7.05014 1.77958 7.13014H9.11958C11.0396 7.13014 12.9496 6.96014 14.8696 6.90014C16.2496 6.83014 17.6196 6.76014 18.9996 6.72014H22.0496C22.6196 6.61014 22.5696 5.89014 21.8996 5.89014C20.9196 5.71014 19.9996 5.66014 18.9996 5.64014Z" fill="black"/>
<path fill-rule="evenodd" clip-rule="evenodd" d="M23.9998 8.34004C24.0469 7.22077 23.963 6.09983 23.7498 5.00004C23.575 4.19209 23.1805 3.4481 22.6098 2.85004C22.0683 2.30996 21.3668 1.95923 20.6098 1.85004C19.6493 1.7453 18.6803 1.7453 17.7198 1.85004L0.999805 2.85004C0.920028 2.85238 0.844005 2.88444 0.786653 2.93995C0.7293 2.99545 0.694759 3.07038 0.689805 3.15004C0.611082 3.15963 0.538447 3.19725 0.485192 3.25601C0.431937 3.31478 0.401626 3.39075 0.399805 3.47004C0.399805 5.31004 0.119805 9.32004 0.0498047 12.17V15.94C0.0998047 16.78 0.0498047 17.94 0.149805 18.87C0.217853 19.3574 0.373707 19.8283 0.609805 20.26C1.04186 20.9114 1.6899 21.3895 2.4398 21.61C3.92669 22.0036 5.46229 22.1821 6.9998 22.14C9.71913 22.193 12.4394 22.1062 15.1498 21.88C17.8598 21.66 20.5598 21.32 23.2198 20.88C23.3136 20.8593 23.396 20.8038 23.4505 20.7247C23.5051 20.6457 23.5276 20.5489 23.5137 20.4539C23.4998 20.3588 23.4503 20.2726 23.3754 20.2125C23.3005 20.1525 23.2056 20.123 23.1098 20.13C20.4598 20.47 17.7798 20.72 15.1098 20.85C12.4448 20.9837 9.7748 20.9837 7.1098 20.85C5.89884 20.8523 4.69029 20.7418 3.4998 20.52C2.82951 20.433 2.21779 20.0932 1.7898 19.57C1.578 19.1639 1.45527 18.7173 1.4298 18.26C1.3398 17.42 1.3798 16.52 1.3198 15.81C1.1998 14.59 1.1498 13.36 1.1198 12.13C1.0698 9.62004 1.1198 5.53004 1.1198 3.48004C3.0398 3.48004 8.5398 3.40004 12.8598 3.30004C15.0798 3.30004 16.9798 3.18004 17.8598 3.15004C18.7275 3.06005 19.6021 3.06005 20.4698 3.15004C20.958 3.21643 21.4147 3.4291 21.7798 3.76004C22.1905 4.18751 22.4744 4.72066 22.5998 5.30004C22.7098 5.70004 22.9098 8.21004 22.9198 8.30004L22.9998 12.85V16.75C22.9998 17.63 22.9998 18.5 23.0898 19.37C23.0924 19.42 23.1047 19.4689 23.1262 19.514C23.1477 19.5592 23.1779 19.5996 23.2151 19.633C23.2523 19.6665 23.2957 19.6923 23.3428 19.7089C23.3899 19.7256 23.4399 19.7327 23.4898 19.73C23.5393 19.7288 23.588 19.7176 23.6331 19.6972C23.6781 19.6767 23.7187 19.6475 23.7522 19.6111C23.7858 19.5748 23.8117 19.532 23.8285 19.4855C23.8452 19.4389 23.8525 19.3895 23.8498 19.34V16.76C23.8498 15.46 23.9298 14.16 23.9798 12.86L23.9998 8.34004Z" fill="black"/>
<path fill-rule="evenodd" clip-rule="evenodd" d="M12.0699 15C12.8299 14.59 13.5299 14 14.1799 13.54C14.4099 13.39 14.7799 13.21 15.0499 13.01C15.2347 12.8883 15.3943 12.7322 15.5199 12.55C15.5974 12.4403 15.639 12.3093 15.639 12.175C15.639 12.0407 15.5974 11.9097 15.5199 11.8C15.2306 11.4755 14.9126 11.1776 14.5699 10.91C14.0669 10.5458 13.5427 10.2119 12.9999 9.91002C12.4555 9.60228 11.8908 9.33166 11.3099 9.10002C11.2246 9.06075 11.1274 9.05543 11.0383 9.08515C10.9492 9.11486 10.8747 9.17738 10.8299 9.26002C10.7641 9.21752 10.6882 9.19335 10.6099 9.19002C10.5652 9.19257 10.5215 9.20391 10.4812 9.2234C10.4409 9.24289 10.4049 9.27014 10.3752 9.30358C10.3455 9.33703 10.3226 9.37601 10.308 9.4183C10.2934 9.46059 10.2872 9.50535 10.2899 9.55002V13.17V14.37C10.2899 14.5 10.1699 14.74 10.1699 14.86C10.1712 15.0244 10.2357 15.1819 10.3499 15.3C10.4294 15.3866 10.531 15.45 10.6437 15.4835C10.7564 15.5169 10.876 15.5192 10.9899 15.49C11.3723 15.3813 11.7363 15.2161 12.0699 15ZM10.9999 9.81002C11.5265 10.0615 12.0315 10.3558 12.5099 10.69C12.9908 11.0225 13.4516 11.3831 13.8899 11.77L14.2999 12.08L13.5199 12.52C12.9599 12.88 12.3599 13.36 11.7299 13.76L11.3299 14.01L11.2699 13.14L10.9999 9.80002V9.81002Z" fill="black"/>
<path fill-rule="evenodd" clip-rule="evenodd" d="M3.62965 18.1C3.54286 18.1148 3.46518 18.1626 3.41296 18.2335C3.36074 18.3044 3.33804 18.3927 3.34965 18.48C3.35574 18.5235 3.37047 18.5654 3.39297 18.6032C3.41548 18.641 3.44531 18.6739 3.48071 18.7C3.51612 18.7261 3.55637 18.7448 3.59912 18.7551C3.64187 18.7654 3.68625 18.7671 3.72965 18.76C4.29965 18.71 4.86965 18.68 5.42965 18.67H6.49965C6.75965 19.81 6.81965 20.02 7.14965 20C7.47965 19.98 7.49965 19.73 7.61965 18.68H9.48965C11.0196 18.6 12.5496 18.55 14.0696 18.44C16.3596 18.29 18.6296 18.05 20.9296 17.89C20.9796 17.8887 21.0287 17.8776 21.0743 17.8573C21.1199 17.837 21.1611 17.8079 21.1955 17.7717C21.2298 17.7354 21.2567 17.6928 21.2746 17.6462C21.2925 17.5996 21.301 17.5499 21.2996 17.5C21.2945 17.4001 21.2512 17.3059 21.1786 17.2371C21.106 17.1682 21.0097 17.1299 20.9096 17.13C18.5896 17.13 16.2996 17.13 13.9996 17.2C12.4696 17.26 10.9996 17.39 9.41965 17.49L7.61965 17.64C7.62451 17.5667 7.62451 17.4933 7.61965 17.42C7.25965 16 6.99965 16 6.86965 16C6.73965 16 6.48965 16 6.37965 17.52C6.37466 17.5966 6.37466 17.6734 6.37965 17.75L5.37965 17.84C4.79965 17.92 4.21965 18 3.62965 18.1Z" fill="black"/>
</g>
<defs>
<clipPath id="clip0_36_396">
<rect width="24" height="24" fill="white"/>
</clipPath>
</defs>
</svg>
