<svg width="24" height="24" viewBox="0 0 24 24" fill="none" xmlns="http://www.w3.org/2000/svg">
<g clip-path="url(#clip0_36_268)">
<path d="M7.70033 15.6798C6.53033 15.3298 4.97033 15.5898 5.32033 15.9798C4.80033 16.5498 8.00033 16.8298 8.00033 15.9998C7.99428 15.9203 7.96123 15.8452 7.90667 15.787C7.85212 15.7288 7.77931 15.691 7.70033 15.6798Z" fill="black"/>
<path d="M17.7399 15.84C17.2715 15.7439 16.7864 15.768 16.3299 15.91C16.2399 15.91 16.2399 16.05 16.1999 16.12C16.1599 16.19 16.1999 16.29 16.2999 16.43C16.3999 16.57 16.9099 16.77 16.9899 16.82C18.5499 17.22 19.1499 16.44 18.7899 16.09C18.7399 16 18.9999 16.18 17.7399 15.84Z" fill="black"/>
<path d="M10.2699 12.78C10.0113 12.6463 9.72053 12.5872 9.43021 12.6092C9.13989 12.6313 8.86142 12.7336 8.62591 12.9048C8.3904 13.076 8.20713 13.3093 8.09658 13.5786C7.98603 13.848 7.95256 14.1428 7.9999 14.43C8.0265 14.7319 8.14394 15.0187 8.33672 15.2525C8.52951 15.4864 8.78861 15.6563 9.0799 15.74C9.45734 15.8349 9.85636 15.7898 10.2031 15.6132C10.5499 15.4365 10.8209 15.1402 10.9661 14.7791C11.1113 14.418 11.1207 14.0166 10.9927 13.6491C10.8648 13.2815 10.608 12.9728 10.2699 12.78ZM8.9999 14.1C8.9499 13.39 9.6199 12.9 10.1299 13.83C10.5099 14.55 9.0899 15.15 8.9999 14.1Z" fill="black"/>
<path d="M12.8999 12.89C12.7008 13.0897 12.5462 13.3293 12.4463 13.593C12.3463 13.8566 12.3032 14.1385 12.3199 14.42C12.3799 15.63 13.6299 16.05 14.7599 15.67C14.9695 15.5984 15.1592 15.4785 15.3138 15.3199C15.4684 15.1613 15.5835 14.9686 15.6497 14.7573C15.7159 14.5459 15.7314 14.322 15.695 14.1036C15.6585 13.8851 15.5711 13.6784 15.4399 13.5C15.1599 13.1107 14.7495 12.835 14.2832 12.723C13.817 12.6111 13.3261 12.6703 12.8999 12.89ZM13.5299 14.56C13.3999 14.5 13.3799 14.32 13.3699 14.16C13.3266 13.935 13.362 13.702 13.4699 13.5C13.6926 13.4336 13.9306 13.4394 14.1498 13.5167C14.369 13.5939 14.558 13.7386 14.6899 13.93C15.0899 14.77 14.2099 14.63 13.5299 14.56Z" fill="black"/>
<path d="M6.12998 5.53989C6.55998 4.11989 5.99998 3.64989 5.86998 3.62989C5.73998 3.60989 5.59998 3.67989 5.46998 3.77989C5.33998 3.87989 5.17998 4.62989 5.46998 5.53989C5.48826 5.61358 5.53069 5.67904 5.5905 5.72583C5.6503 5.77261 5.72405 5.79803 5.79998 5.79803C5.87592 5.79803 5.94966 5.77261 6.00947 5.72583C6.06928 5.67904 6.1117 5.61358 6.12998 5.53989Z" fill="black"/>
<path d="M18.58 3.59985C18.45 3.50985 18.36 3.34985 18.18 3.45985C18 3.56985 17.51 3.98985 17.92 5.36985C17.9339 5.45128 17.9762 5.52516 18.0393 5.57842C18.1025 5.63169 18.1824 5.6609 18.265 5.6609C18.3476 5.6609 18.4276 5.63169 18.4907 5.57842C18.5538 5.52516 18.5961 5.45128 18.61 5.36985C18.63 5.28985 19.16 3.99985 18.58 3.59985Z" fill="black"/>
<path d="M4.87014 7.79993C4.87014 7.70976 4.83432 7.62328 4.77056 7.55952C4.70679 7.49575 4.62031 7.45993 4.53014 7.45993C3.89014 7.26993 2.92014 8.06993 2.53014 8.63993C2.46014 8.75993 2.53014 8.95993 2.89014 9.01993C3.25014 9.07993 4.87014 8.50993 4.87014 7.79993Z" fill="black"/>
<path d="M19.5302 7.29C19.4391 7.28996 19.3515 7.32546 19.2862 7.38895C19.2208 7.45244 19.1828 7.53892 19.1802 7.63C19.1802 7.75 21.2702 9.63 21.4502 8.69C21.4502 8.62 21.5302 8.55 21.4502 8.47C21.2102 8 20.1802 7.09 19.5302 7.29Z" fill="black"/>
<path d="M6.49034 7.99996C6.67348 8.27906 6.91668 8.51369 7.20216 8.68671C7.48764 8.85973 7.80818 8.96675 8.14034 8.99996C8.23142 8.99735 8.3179 8.95933 8.38139 8.89398C8.44488 8.82862 8.48038 8.74108 8.48034 8.64996C8.54034 8.44996 7.89034 7.64996 6.76034 7.48996C6.69653 7.47639 6.63003 7.48399 6.57093 7.51162C6.51183 7.53924 6.46334 7.58538 6.43281 7.64303C6.40229 7.70069 6.39139 7.76673 6.40177 7.83113C6.41215 7.89554 6.44325 7.95481 6.49034 7.99996Z" fill="black"/>
<path d="M17.29 7.24985C16.51 7.33985 15.48 8.08985 15.57 8.40985C15.57 8.50002 15.6058 8.5865 15.6696 8.65026C15.7333 8.71402 15.8198 8.74985 15.91 8.74985C16.2542 8.77144 16.5968 8.6872 16.8917 8.50845C17.1866 8.32969 17.4198 8.06498 17.56 7.74985C17.6027 7.70392 17.6299 7.64576 17.6378 7.58356C17.6458 7.52136 17.634 7.45824 17.6042 7.40306C17.5744 7.34789 17.5281 7.30343 17.4717 7.27595C17.4153 7.24847 17.3518 7.23934 17.29 7.24985Z" fill="black"/>
<path d="M14.4702 17.54C13.6961 17.3923 12.9071 17.3386 12.1202 17.38C10.8202 17.49 9.21015 17.32 8.66015 18.84C8.43155 19.3792 8.23128 19.9299 8.06016 20.49C7.97016 21.01 8.63016 20.99 8.77016 20.72C9.51016 19.47 9.31015 18.91 10.2502 18.65C10.7602 18.52 14.6402 18.28 14.9002 18.92C15.0802 19.34 15.2002 19.82 15.4002 20.19L15.5602 20.59C15.7002 20.91 16.3502 20.8 16.3502 20.43C16.1502 19.8 15.5702 18.07 15.5202 17.98C15.2602 17.56 14.7702 17.58 14.4702 17.54Z" fill="black"/>
<path d="M23.8801 5.87993C23.6201 4.57993 23.3501 3.08993 20.3101 1.92993C19.57 1.63663 18.7694 1.52885 17.978 1.616C17.1867 1.70315 16.4287 1.98259 15.7701 2.42993C12.8401 4.16993 12.7701 6.00993 13.2401 8.61993C12.4468 8.5294 11.647 8.50932 10.8501 8.55993C11.2396 7.29051 11.1287 5.9202 10.5401 4.72993C9.95865 3.86078 9.18982 3.13296 8.29013 2.59993C7.62885 2.15416 6.86876 1.87652 6.07585 1.79113C5.28293 1.70574 4.48116 1.81518 3.74013 2.10993C-1.58987 4.10993 -0.719867 11.0499 3.21013 12.5499C3.21013 13.9399 2.94013 18.9399 3.30013 20.2999C3.37423 20.5691 3.51059 20.817 3.6982 21.0237C3.88581 21.2305 4.11941 21.3902 4.38013 21.4899C6.10904 22.0546 7.91176 22.3612 9.73013 22.3999C11.7872 22.4262 13.844 22.3327 15.8901 22.1199C16.9931 22.0902 18.0868 21.9085 19.1401 21.5799C19.7311 21.3463 20.2526 20.9655 20.6552 20.4737C21.0577 19.9819 21.3279 19.3955 21.4401 18.7699C21.6801 17.5199 21.5001 15.8999 21.3101 12.3599C21.3204 12.3071 21.3204 12.2528 21.3101 12.1999C23.5001 11.1199 24.3401 8.34993 23.8801 5.87993ZM2.62013 11.1299C1.97408 10.5386 1.52401 9.76404 1.33013 8.90993C-0.149867 2.99993 6.79013 0.869934 9.83013 5.20993C10.0883 5.60164 10.2431 6.05229 10.2801 6.51993C10.8101 11.9999 4.87013 13.1299 2.62013 11.1299ZM20.5601 18.5899C20.4575 19.0485 20.2391 19.473 19.9257 19.8231C19.6123 20.1733 19.2145 20.4373 18.7701 20.5899C17.6901 20.9899 7.57013 21.6699 4.77013 20.5299C4.62141 20.4865 4.48759 20.4028 4.38347 20.2881C4.27934 20.1734 4.20897 20.0321 4.18013 19.8799C3.88643 17.5053 3.77277 15.1118 3.84013 12.7199C5.20721 13.0303 6.63981 12.8522 7.88926 12.2165C9.13872 11.5808 10.1261 10.5277 10.6801 9.23993C11.5759 9.54347 12.544 9.56095 13.4501 9.28993C13.7234 9.95395 14.1309 10.5543 14.6471 11.0534C15.1634 11.5524 15.7772 11.9394 16.4501 12.1899C17.7677 12.7635 19.2474 12.8451 20.6201 12.4199C20.6901 15.6199 20.8301 17.4299 20.5601 18.5899ZM14.0801 9.12993C13.8202 8.22416 13.7187 7.28027 13.7801 6.33993C13.9901 4.21993 16.9001 2.49993 18.7801 2.69993C22.0101 3.02993 23.4801 5.83993 22.7801 8.69993C21.5601 13.3899 15.4301 12.3099 14.0801 9.12993Z" fill="black"/>
</g>
<defs>
<clipPath id="clip0_36_268">
<rect width="24" height="24" fill="white"/>
</clipPath>
</defs>
</svg>
