<svg width="321" height="301" viewBox="0 0 321 301" fill="none" xmlns="http://www.w3.org/2000/svg">
<path d="M136.17 236.333C132.45 217.132 146.244 173.275 153.605 153.747C156.059 154.908 176.594 150.908 183.181 141.359C188.451 133.719 197.4 130.719 201.779 129.358C207.591 127.551 217.277 127.809 219.085 132.197L221.022 136.713C227.351 154.908 221.84 182.566 217.923 194.911L203.458 197.492C192.506 179.736 198.12 158.091 202.296 149.488C197.853 155.476 185.377 161.79 179.694 164.199C179.436 180.071 155.155 234.785 149.86 238.269C145.624 241.056 138.968 238.14 136.17 236.333Z" fill="black"/>
<path d="M145.447 239.496L143.638 242.782M137.954 237.413L134.504 246.525L134.208 247.305C133.88 248.094 133.652 249.417 134.208 250.545C134.6 251.339 135.381 252.037 136.792 252.382C140.202 253.214 153.025 254.117 159.01 254.464C160.044 254.594 162.008 254.1 161.594 251.08C161.181 248.06 159.01 245.297 156.556 244.182C154.565 243.277 149.431 241.873 143.638 242.782L137.954 237.413ZM141.83 243.14C142.438 242.995 143.041 242.876 143.638 242.782L141.83 243.14Z" stroke="black" stroke-width="2" stroke-linecap="round"/>
<path d="M205.521 196.791C205.392 200.62 205.741 208.159 206.686 209.311C207.852 210.731 209.276 210.86 217.951 208.149C224.892 205.981 227.663 205.955 229.346 205.697C230.511 205.518 231.936 205.362 231.936 202.47C231.936 198.857 230.511 196.404 226.109 195.888C222.587 195.475 217.563 197.609 215.491 198.727V195.243" stroke="black" stroke-width="2" stroke-linecap="round"/>
<path d="M188.947 66.8784C175.647 68.2225 149.51 73.8878 151.37 85.7953C151.655 86.8064 152.474 88.4196 154.001 89.9371C155.471 91.3987 157.598 92.7716 160.538 93.4319" stroke="black" stroke-width="2" stroke-linecap="round"/>
<path d="M154 89.937C158.159 96.4085 170.352 110.465 185.848 114.917" stroke="black" stroke-width="2" stroke-linecap="round"/>
<path d="M185.748 114.917C186.695 113.645 189.185 111.345 192.107 111.236" stroke="black" stroke-width="2" stroke-linecap="round"/>
<path d="M192.107 111.236C192.021 107.602 188.955 98.2297 177.381 89.8157" stroke="black" stroke-width="2" stroke-linecap="round"/>
<path d="M174.034 92.8279C175.235 90.883 178.926 86.7543 184.075 85.7994" stroke="black" stroke-width="2" stroke-linecap="round"/>
<path d="M202.817 89.1462C203.375 89.8056 204.491 91.5988 204.491 93.4972" stroke="black" stroke-width="2" stroke-linecap="round"/>
<path d="M202.685 116.929C205.323 116.8 210.831 116.413 211.765 115.897C212.933 115.253 213.192 115.253 213.192 113.963C213.192 112.673 202.685 114.866 202.685 110.739C203.637 109.793 205.176 107.669 203.723 106.74C202.27 105.812 199.226 108.503 197.886 109.965C196.503 111.426 193.398 113.731 192.049 111.254" stroke="black" stroke-width="2" stroke-linecap="round"/>
<path d="M186.083 114.866C187.25 118.262 191.453 124.358 198.924 121.572C206.396 118.786 206.707 117.316 205.929 116.929" stroke="black" stroke-width="2" stroke-linecap="round"/>
<path d="M250.43 116.311C252.245 115.815 256.214 113.506 257.563 108.242C258.911 102.977 257.087 102.951 256.006 103.596" stroke="black" stroke-width="2" stroke-linecap="round"/>
<path d="M243.686 112.5C244.247 109.575 246.228 103.932 249.651 104.758" stroke="black" stroke-width="2" stroke-linecap="round"/>
<path d="M245.113 107.725C242.726 105.764 241.265 110.263 240.833 112.758C238.136 113.583 237.115 117.489 236.942 119.338C243.185 119.979 247.621 118.302 250.43 116.311C252.15 115.092 253.26 113.754 253.802 112.758C255.142 109.188 257.096 101.739 254.191 100.5C251.286 99.2612 250.473 102.048 250.43 103.596C250.741 107.106 248.917 110.994 247.966 112.5" stroke="black" stroke-width="2" stroke-linecap="round"/>
<path d="M207.503 116.887C213.123 122.134 226.878 129.971 236.942 119.339" stroke="black" stroke-width="2" stroke-linecap="round"/>
<path d="M206.499 117.595C206.499 120.031 205.896 125.583 203.486 128.305" stroke="black" stroke-width="2" stroke-linecap="round"/>
<path d="M153.952 123.285C148.648 130.444 141.223 146.624 153.952 154.076" stroke="black" stroke-width="2" stroke-linecap="round"/>
<path d="M312.595 92.4931L315.607 87.4728" stroke="black" stroke-width="2" stroke-linecap="round"/>
<path d="M314.067 95.1174L319.624 94.859" stroke="black" stroke-width="2" stroke-linecap="round"/>
<path d="M312.93 98.183L316.277 102.534" stroke="black" stroke-width="2" stroke-linecap="round"/>
<path d="M203.527 255.823H113.121V300" stroke="black" stroke-width="2" stroke-linecap="round"/>
<path d="M266.384 211.776H192.403V265.64" stroke="black" stroke-width="2" stroke-linecap="round"/>
<path d="M315.273 150.032H255.261V221.981" stroke="black" stroke-width="2" stroke-linecap="round"/>
<path d="M304.667 103.036V160.108" stroke="black" stroke-width="2" stroke-linecap="round"/>
<path d="M304.667 83.1219V87.9749" stroke="black" stroke-width="2" stroke-linecap="round"/>
<path d="M187.435 118.109L113.344 126.631C104.774 119.765 106.848 109.515 108.956 105.248L160.458 99.0745" stroke="black" stroke-width="2" stroke-linecap="round"/>
<path d="M212.863 116.051L238.292 113.608" stroke="black" stroke-width="2" stroke-linecap="round"/>
<path d="M256.879 110.907L273.53 109.749L295.861 99.6274C293.176 96.7772 294.649 94.2382 295.767 93.3299L273.53 88.1422L185.499 95.4732" stroke="black" stroke-width="2" stroke-linecap="round"/>
<path d="M100.977 105.354L108.525 104.542C103.29 116.269 109.29 124.247 113.121 127.351L104.312 128.64C96.9487 119.673 98.8467 109.638 100.977 105.354Z" fill="black"/>
<path d="M296.664 100.191C293.862 97.2672 295.436 93.7851 296.603 92.6605L307.24 95.2855L296.664 100.191Z" fill="black"/>
<path d="M273.771 88.1422C270.993 91.6692 267.104 100.891 273.771 109.562" stroke="black" stroke-width="2"/>
<path d="M209.784 69.1366C211.998 67.7741 228.652 69.0874 231.889 48.1389C237.432 48.2038 240.447 43.6631 236.217 41.7199C231.708 39.3948 232.047 35.1262 232.864 32.6111C234.162 29.3126 234.241 25.8496 233.961 25.1252" stroke="black" stroke-width="2" stroke-linecap="round"/>
<path d="M227.002 40.5744C227.631 40.5817 228.15 39.8228 228.161 38.8793C228.172 37.9358 227.671 37.165 227.042 37.1576C226.413 37.1503 225.894 37.9091 225.883 38.8527C225.872 39.7962 226.373 40.567 227.002 40.5744Z" fill="black"/>
<path d="M223.91 33.66C224.835 32.6713 227.227 31.2252 229.393 33.3494" stroke="black" stroke-width="2" stroke-linecap="round"/>
<path d="M217.628 52.9098C219.328 55.5254 221.194 56.2681 224.819 54.5802" stroke="black" stroke-width="2" stroke-linecap="round"/>
<path d="M203.714 34.5767C203.32 35.4415 202.99 37.4048 204.821 38.3392" stroke="black" stroke-width="2" stroke-linecap="round"/>
<path d="M184.203 25.6959C182.047 37.4954 188.795 46.3777 193.687 53.2061C198.912 50.3833 207.475 43.6708 204.191 42.9462C200.739 42.1848 197.098 32.7688 200.45 29.8885C204.383 26.5091 207.928 31.6223 208.604 35.4994L211.772 30.0211C210.876 26.1894 210.525 19.4681 216.286 23.2361C222.047 27.0041 230.497 26.0171 234.003 25.0526C240.914 20.1057 251.651 8.56678 239.312 1.98652C229.049 -3.48645 215.694 3.43287 207.542 9.65024C202.022 8.19304 187.144 9.60767 184.203 25.6959Z" fill="black"/>
<path d="M194.07 52.4155C196.565 55.419 197.804 57.9131 197.65 63.0797" stroke="black" stroke-width="2" stroke-linecap="round"/>
<path d="M191.295 69.9967C190.421 66.9497 189.909 61.1382 194.85 62.2677C201.025 63.6795 213.612 69.7862 212.69 73.1712" stroke="black" stroke-width="2" stroke-linecap="round"/>
<path d="M212.69 77.9342C217.209 82.1178 218.213 84.7953 218.882 89.8157" stroke="black" stroke-width="2" stroke-linecap="round"/>
<path d="M1 213.635C7.13774 213.076 21.6005 216.736 31.2616 235.559C31.5143 236.051 32.2269 236.064 32.4786 235.571C42.3883 216.172 54.5509 196.492 92.9946 220.187C93.5856 220.551 94.3611 219.891 94.0682 219.262C87.831 205.847 84.4603 180.265 113.525 167.573C114.108 167.318 114.082 166.452 113.472 166.273L105.954 164.076C105.265 163.874 105.34 162.929 106.055 162.864C113.799 162.167 124.725 162.621 120.964 167.191C116.572 172.526 115.492 175.899 116.563 181.469" stroke="black" stroke-width="2" stroke-linecap="round"/>
</svg>
