<svg width="214" height="202" viewBox="0 0 214 202" fill="none" xmlns="http://www.w3.org/2000/svg">
<path d="M100.453 183.428C103.298 184.09 111.371 184.54 112.959 179.458" stroke="black" stroke-width="2" stroke-linecap="round"/>
<path d="M104.621 172.311C109.385 176.877 116.929 184.222 120.899 178.266L123.281 174.296" stroke="black" stroke-width="2" stroke-linecap="round"/>
<path d="M104.621 160.003C110.047 165.164 126.695 177.551 134 173.104C135.324 172.244 138.01 169.491 138.169 165.362" stroke="black" stroke-width="2" stroke-linecap="round"/>
<path d="M117.723 153.055C124.406 158.283 139.162 167.626 144.72 163.179C150.278 158.733 144.521 152.592 140.948 150.078L116.929 130.624" stroke="black" stroke-width="2" stroke-linecap="round"/>
<path d="M48.6416 134.198C51.6193 135.762 54.9044 139.818 55.9864 143.528C57.376 148.292 61.28 152.394 62.9342 153.652" stroke="black" stroke-width="2" stroke-linecap="round"/>
<path d="M108.195 107.597C104.225 106.009 93.1084 102.793 84.374 104.222C75.6397 105.652 76.4338 102.833 72.265 100.451L48.6426 85.9595" stroke="black" stroke-width="2" stroke-linecap="round"/>
<path d="M139.956 106.406L148.69 101.841M147.698 157.82C151.35 156.867 157.425 151.468 160.005 148.887L170.129 143.527" stroke="black" stroke-width="2" stroke-linecap="round"/>
<path d="M140.75 127.646C134.927 131.153 120.343 135.467 108.592 126.257" stroke="black" stroke-width="2" stroke-linecap="round"/>
<path d="M108.591 126.258C104.224 132.411 93.981 144.163 87.9463 141.94C81.9117 139.716 84.6379 133.205 86.7553 130.228C92.909 117.92 112.164 95.9256 139.955 106.407" stroke="black" stroke-width="2" stroke-linecap="round"/>
<path d="M100.85 176.281C100.691 182.157 98.7987 184.685 97.8723 185.214C93.3562 187.795 88.3439 183.824 89.7427 180.597C90.7029 178.81 91.9893 175.122 92.5126 173.502C93.7304 169.73 101.009 170.405 100.85 176.281Z" stroke="black" stroke-width="2" stroke-linecap="round"/>
<path d="M84.3732 181.84C77.7033 183.27 77.6239 176.481 80.6015 173.106C81.5557 172.025 83.9364 169.802 86.9538 167.349C89.9711 164.896 91.9165 166.989 92.512 168.342C93.2984 170.128 91.043 180.411 84.3732 181.84Z" stroke="black" stroke-width="2" stroke-linecap="round"/>
<path d="M73.2567 173.9C65.9516 173.741 66.3089 167.349 69.2866 164.57C71.6025 162.122 77.5048 157.582 82.5866 159.012C87.6684 160.441 86.5568 165.165 85.3657 167.547C84.3732 169.731 80.5618 174.058 73.2567 173.9Z" stroke="black" stroke-width="2" stroke-linecap="round"/>
<path d="M75.6388 151.865C67.8573 149.959 61.2801 154.644 58.9641 157.224C57.3761 159.289 57.5084 161.658 57.7731 162.584C59.6788 167.348 68.4925 163.908 72.6612 161.592C76.896 159.143 83.4203 153.77 75.6388 151.865Z" stroke="black" stroke-width="2" stroke-linecap="round"/>
<path d="M86.3584 80.4009C87.5494 83.0477 89.5742 89.572 88.145 94.495" stroke="black" stroke-width="2" stroke-linecap="round"/>
<path d="M93.7031 85.3657C94.034 86.8214 94.6957 90.3284 94.6957 92.7105" stroke="black" stroke-width="2" stroke-linecap="round"/>
<path d="M118.517 71.27L123.082 87.3492" stroke="black" stroke-width="2" stroke-linecap="round"/>
<path d="M131.42 78.4165L130.03 87.9449" stroke="black" stroke-width="2" stroke-linecap="round"/>
<path d="M143.727 85.3657L136.779 90.7254" stroke="black" stroke-width="2" stroke-linecap="round"/>
<circle cx="6.35981" cy="102.834" r="6.15375" fill="black"/>
<path d="M16.4735 103.359C26.8838 102.287 43.2187 103.555 45.1493 111.607C47.0799 119.66 39.7076 122.605 35.78 123.071C20.827 125.448 1 124.33 1 111.607" stroke="black" stroke-width="2" stroke-linecap="round"/>
<circle cx="12.7119" cy="114.346" r="1.18359" stroke="black" stroke-width="2"/>
<path d="M22.8359 113.163C23.6829 113.163 24.2188 113.773 24.2188 114.346C24.2187 114.92 23.6829 115.53 22.8359 115.53C21.9891 115.53 21.4541 114.92 21.4541 114.346C21.4541 113.773 21.9891 113.163 22.8359 113.163Z" stroke="black" stroke-width="2"/>
<circle cx="32.96" cy="114.346" r="1.18359" stroke="black" stroke-width="2"/>
<circle cx="179.062" cy="177.076" r="5.75673" fill="black"/>
<path d="M188.421 172.907C191.913 172.907 201.888 172.907 206.581 172.907C210.382 172.907 212.212 173.748 212.212 179.633C212.212 185.352 212.165 192.759 212.212 195.748C212.245 197.85 211.198 200.176 207.707 200.512C204.216 200.849 190.204 200.653 183.635 200.512C181.195 200.512 176.878 199.129 176.878 193.506L176.878 187.2" stroke="black" stroke-width="2" stroke-linecap="round"/>
<path d="M186.01 182.833L194.744 188.788" stroke="black" stroke-width="2" stroke-linecap="round"/>
<path d="M194.744 188.788L210.625 174.098" stroke="black" stroke-width="2" stroke-linecap="round"/>
<path d="M182.834 193.948L189.237 185.214M198.77 185.214L207.449 193.948" stroke="black" stroke-width="2" stroke-linecap="round"/>
<path d="M181.942 80.022L161.297 95.7041C135.094 115.753 160.702 138.251 170.23 143.346L200.602 123.892" stroke="black" stroke-width="2" stroke-linecap="round"/>
<path d="M94.0605 29.2824C97.0382 28.8854 103.43 26.6224 105.177 20.7466" stroke="black" stroke-width="2" stroke-linecap="round"/>
<path d="M84.333 24.5184C86.3181 24.5846 90.8838 23.6053 93.2659 19.1587" stroke="black" stroke-width="2" stroke-linecap="round"/>
<path d="M75.4004 17.3717C78.5765 16.712 85.4846 14.6577 87.7079 11.7173" stroke="black" stroke-width="2" stroke-linecap="round"/>
<path d="M103.877 39.3201C84.741 43.4018 66.8856 25.2269 59.025 13.8374C58.2894 12.7716 58.8083 11.3216 60.0361 10.9098L89.2758 1.1039C90.0143 0.856236 90.8251 1.06314 91.3826 1.60713C100.945 10.9383 117.344 15.5778 127.846 17.3195C129.661 17.6204 130.305 20.0375 128.825 21.1292L104.62 38.9829C104.399 39.1456 104.145 39.2629 103.877 39.3201Z" stroke="black" stroke-width="2" stroke-linecap="round"/>
</svg>
