<svg width="119" height="152" viewBox="0 0 119 152" fill="none" xmlns="http://www.w3.org/2000/svg">
<path d="M66.5136 106.674C72.1498 106.535 85.1542 104.719 90.3437 102.988C93.4749 101.945 96.1051 103.114 95.7711 106.955C95.4371 110.796 83.4551 117.674 73.644 119.271C67.6599 120.245 53.5208 121.609 44.837 119.271C36.1531 116.933 26.189 126.368 22.2924 131.378C19.7874 134.509 13.7755 142.817 9.76758 151" stroke="black" stroke-width="2" stroke-linecap="round"/>
<path d="M67.3809 103.824C73.5737 102.919 87.6548 99.9441 91.3867 98.1878C94.9354 96.5179 97.2316 98.1878 97.8578 100.693C97.997 101.389 97.8578 103.031 96.1879 104.033" stroke="black" stroke-width="2" stroke-linecap="round"/>
<path d="M61.5361 98.1866C66.546 95.96 77.4009 92.4252 80.7408 96.0991" stroke="black" stroke-width="2" stroke-linecap="round"/>
<path d="M65.5029 100.692C66.1292 100.275 74.6878 98.605 82.8289 95.4738C84.5684 94.9171 88.2563 94.6805 89.0913 98.1875" stroke="black" stroke-width="2" stroke-linecap="round"/>
<path d="M42.958 106.955C51.795 108.973 68.9261 111.213 66.7551 104.032C64.6981 97.2284 55.1071 96.509 49.8443 97.0442C49.3088 97.0986 48.7688 96.95 48.3303 96.6381C34.3634 86.7045 15.4913 99.3689 8.09738 107.79C5.31409 111.13 3.92245 113.008 1 117.601" stroke="black" stroke-width="2" stroke-linecap="round"/>
<path d="M41.2882 36.6434C41.0192 36.6422 40.9013 36.9781 41.1185 37.1368C46.6428 41.1745 58.6637 47.8707 68.5464 46.2919C68.7404 46.261 68.9389 46.2837 69.119 46.3618L78.1588 50.2834" stroke="black" stroke-width="2" stroke-linecap="round"/>
<path d="M32.7291 21.6104C31.6158 21.9583 29.4309 23.5308 29.5979 27.0378C29.8648 31.4865 33.2442 34.2994 34.9005 35.4628C36.9879 36.7153 38.683 36.6113 40.4527 36.6401C41.576 36.6584 41.2877 36.6438 41.2877 36.6438C42.4706 36.5703 44.7111 35.7148 44.2101 32.8805" stroke="black" stroke-width="2" stroke-linecap="round"/>
<path d="M36.4867 15.1387C34.8863 15.6953 31.8943 17.7689 32.7293 21.6098C33.5642 25.4507 34.2048 26.5558 34.4832 27.1124C35.4487 29.2045 37.0088 30.4307 37.7436 30.8284C37.7963 30.857 37.8465 30.8879 37.8954 30.9225C38.8981 31.6317 41.374 32.5878 44.2103 32.88C44.999 32.9612 47.5974 33.0315 48.1765 33.0909C50.4727 33.0909 51.934 32.2058 51.099 28.6098" stroke="black" stroke-width="2" stroke-linecap="round"/>
<path d="M40.3252 7.83203C38.7827 7.83203 35.4428 9.502 36.4865 15.1382C37.3215 19.6471 38.2403 21.6845 39.4928 23.1457C40.7453 24.607 42.4153 26.2769 44.9202 27.0367L51.01 28.5867C51.069 28.6017 51.1293 28.6113 51.1901 28.6154L52.3381 28.6919C52.4842 28.7016 52.6308 28.6812 52.7638 28.62C54.026 28.0395 55.8627 26.3866 54.4386 23.6968" stroke="black" stroke-width="2" stroke-linecap="round"/>
<path d="M91.3097 25.8596L84.3637 22.475C84.0576 22.3258 83.8509 22.0329 83.7983 21.6964C83.03 16.7802 79.14 7.37098 68.8427 5.11844C58.1549 2.78048 50.473 1.50017 47.9681 1.15226C45.2544 0.665184 39.9105 1.06876 40.2444 6.57967C40.2706 7.01055 40.2977 7.42807 40.3256 7.83216C40.655 12.5963 41.7895 14.1698 43.2507 16.3908C45.5908 19.8375 48.0076 21.3266 49.0956 21.8934C51.0992 22.9371 56.5265 25.3669 56.9441 20.1482V18.0435" stroke="black" stroke-width="2" stroke-linecap="round"/>
<path d="M68.8423 5.11768C65.9198 5.32642 56.3592 6.8294 51.5163 7.8314C46.6733 8.8334 47.8284 13.1196 49.0113 15.1375C51.2001 18.2383 59.0203 18.0453 61.7486 16.9259C62.2592 16.7164 62.936 16.6667 63.38 16.9946C68.2519 20.592 69.9084 20.1474 76.6497 20.1474" stroke="black" stroke-width="2" stroke-linecap="round"/>
<path d="M54.5234 27.1123L54.4394 53.1304" stroke="black" stroke-width="2" stroke-linecap="round"/>
<rect x="50.0117" y="54.3389" width="8.85481" height="4.67989" rx="2.33994" stroke="black" stroke-width="2"/>
<path d="M54.4395 59.6011L54.4395 74.6308" stroke="black" stroke-width="2" stroke-linecap="round"/>
<path d="M101.753 63.4526L77.9553 50.0928C74.8937 44.5958 72.6533 32.5165 86.5141 27.3395C99.2417 22.5858 111.349 28.5741 117.194 31.9142" stroke="black" stroke-width="2" stroke-linecap="round"/>
<path d="M48.8033 67.3809H52.4394C53.544 67.3809 54.4394 68.2763 54.4394 69.3809V71.6433C54.4394 72.7478 53.544 73.6433 52.4394 73.6433H50.5776C49.9435 73.6433 49.4295 73.1292 49.4295 72.4951V72.182C49.4295 71.7209 49.8033 71.347 50.2645 71.347H50.3689C50.7724 71.347 51.0995 71.0199 51.0995 70.6164C51.0995 70.2129 50.7724 69.8858 50.3689 69.8858H48.8033C48.1115 69.8858 47.5508 69.3251 47.5508 68.6333C47.5508 67.9416 48.1115 67.3809 48.8033 67.3809Z" fill="black"/>
</svg>
