<svg width="204" height="151" viewBox="0 0 204 151" fill="none" xmlns="http://www.w3.org/2000/svg">
<path d="M61.4473 84.7249C62.8974 84.7249 64.3473 85.0149 65.6045 85.7375C81.1934 94.6986 85.3987 119.355 83.8574 134.768C83.2157 146.957 74.5551 149.202 66.8564 149.202H40.8721C25.1547 148.561 24.085 138.724 23.8711 134.768C21.0118 105.221 33.9715 90.3495 42.2588 85.635C43.4311 84.9682 44.7763 84.7249 46.125 84.7249H61.4473ZM53.707 102.717C51.774 102.717 50.207 104.284 50.207 106.217V106.299C49.6557 106.511 49.1104 106.788 48.5879 107.147C46.8294 108.355 45.7234 110.217 45.3584 112.51C45.0807 114.255 45.4006 115.867 46.1855 117.252C46.9274 118.561 47.9854 119.496 48.9434 120.166C49.9052 120.839 50.9404 121.363 51.8066 121.773C52.8146 122.249 53.3779 122.479 54.0498 122.817C54.6133 123.1 54.902 123.378 55.04 123.554C55.1732 123.724 55.1934 123.83 55.1973 123.859C55.2005 123.883 55.2155 124.006 55.0029 124.166C54.5042 124.542 53.9087 124.774 53.2344 124.866C52.209 125.006 51.1102 124.803 50.2695 124.419C48.5116 123.616 46.4354 124.39 45.6318 126.148C44.8283 127.906 45.6023 129.982 47.3604 130.785C48.2334 131.184 49.2066 131.496 50.2363 131.69C50.4576 133.41 51.9268 134.739 53.707 134.739C55.64 134.738 57.207 133.171 57.207 131.239V130.942C57.8969 130.632 58.5733 130.242 59.2178 129.756C61.3097 128.179 62.4959 125.628 62.1357 122.932C61.7697 120.193 59.913 117.93 57.1934 116.563C56.4805 116.204 55.4225 115.739 54.7988 115.445C54.0337 115.083 53.425 114.759 52.9551 114.43C52.4817 114.099 52.3196 113.878 52.2754 113.8C52.2739 113.798 52.2428 113.791 52.2715 113.611C52.327 113.262 52.4121 113.092 52.4512 113.027C52.4861 112.968 52.5147 112.941 52.5508 112.916C52.6521 112.847 52.9866 112.691 53.7207 112.688C54.9666 112.683 56.4741 113.129 57.4531 113.621C59.1802 114.489 61.2843 113.793 62.1523 112.066C63.0202 110.339 62.3235 108.235 60.5967 107.366C59.6721 106.902 58.4956 106.45 57.2041 106.132C57.159 104.238 55.6116 102.717 53.707 102.717Z" fill="black"/>
<rect x="41.5518" y="77.0642" width="23.6628" height="6.34042" rx="3.17021" stroke="black" stroke-width="2"/>
<rect x="82.1211" y="33.7202" width="38.4942" height="7.69885" rx="3.84942" fill="black"/>
<path d="M44.0807 73.818L37.0234 60.9866" stroke="black" stroke-width="2" stroke-linecap="round"/>
<path d="M63.3271 73.818L70.0636 60.6658" stroke="black" stroke-width="2" stroke-linecap="round"/>
<path d="M36.7021 60.6652C38.8407 61.0929 43.567 61.2426 45.3634 58.4197C47.1597 55.5968 49.5336 56.3881 50.4959 57.1366L53.383 59.7029" stroke="black" stroke-width="2" stroke-linecap="round"/>
<path d="M70.0635 60.4074C67.9249 60.8351 63.1987 60.9848 61.4023 58.1619C59.6059 55.339 57.2321 56.1303 56.2697 56.8788L53.3826 59.7032" stroke="black" stroke-width="2" stroke-linecap="round"/>
<path d="M84.4989 31.7958L72.6299 9.02002" stroke="black" stroke-width="2" stroke-linecap="round"/>
<path d="M118.823 31.7958L130.372 8.69922" stroke="black" stroke-width="2" stroke-linecap="round"/>
<path d="M72.6299 8.93166C76.3313 9.66829 84.5113 9.92611 87.6204 5.06434C90.7296 0.202566 94.8381 1.56534 96.5037 2.85444L101.501 7.27425" stroke="black" stroke-width="2" stroke-linecap="round"/>
<path d="M130.372 8.29006C126.671 9.02669 118.491 9.28451 115.382 4.42274C112.272 -0.439036 108.164 0.923735 106.498 2.21284L101.501 7.07722" stroke="black" stroke-width="2" stroke-linecap="round"/>
<rect x="1.35584" y="144.893" width="31.5506" height="8.77863" rx="4.38931" transform="rotate(-61.5197 1.35584 144.893)" stroke="black" stroke-width="2"/>
<rect x="132.655" y="119.407" width="31.5506" height="8.77863" rx="4.38931" stroke="black" stroke-width="2"/>
<rect x="137.146" y="130.314" width="31.5506" height="8.77863" rx="4.38931" stroke="black" stroke-width="2"/>
<rect x="132.655" y="141.221" width="31.5506" height="8.77863" rx="4.38931" stroke="black" stroke-width="2"/>
<rect x="165.375" y="141.221" width="31.5506" height="8.77863" rx="4.38931" stroke="black" stroke-width="2"/>
<rect x="170.508" y="131.597" width="31.5506" height="8.77863" rx="4.38931" stroke="black" stroke-width="2"/>
<rect x="166.017" y="121.332" width="31.5506" height="8.77863" rx="4.38931" stroke="black" stroke-width="2"/>
<rect x="160.242" y="110.426" width="31.5506" height="8.77863" rx="4.38931" stroke="black" stroke-width="2"/>
<rect x="163.45" y="99.5186" width="31.5506" height="8.77863" rx="4.38931" stroke="black" stroke-width="2"/>
<path d="M73.46 55.5339C77.3094 50.5082 80.6501 46.2311 87.3866 43.9856H116.257C128.661 50.5082 148.845 70.29 147.561 112.313" stroke="black" stroke-width="2" stroke-linecap="round"/>
<path d="M83.4043 147.279H127.993" stroke="black" stroke-width="2" stroke-linecap="round"/>
<path d="M101.821 111.806V116.163" stroke="black" stroke-width="2" stroke-linecap="round"/>
<path d="M101.821 83.0868V78.6306" stroke="black" stroke-width="2" stroke-linecap="round"/>
<path d="M109.841 85.046C107.805 84.0279 104.713 83.0757 101.822 83.0868C98.3374 83.1001 95.1449 84.5126 94.4435 88.8954C93.5184 94.6759 100.531 96.751 104.708 98.8397C110.483 101.727 110.431 107.139 106.954 109.747C105.39 110.919 103.615 111.563 101.822 111.806C99.1997 112.161 96.5388 111.661 94.4435 110.709" stroke="black" stroke-width="2" stroke-linecap="round"/>
</svg>
