<svg width="164" height="152" viewBox="0 0 164 152" fill="none" xmlns="http://www.w3.org/2000/svg">
<path d="M93.833 39.8662H117.113C119.947 39.8662 125.116 37.2832 123.388 26.916C121.566 15.9841 130.259 16.0751 133.914 17.4008C135.804 18.0762 139.016 20.925 136.748 26.916C133.914 34.4049 135.736 40.2775 141.607 40.2775H160.659C161.764 40.2775 162.659 41.173 162.659 42.2775V110.519C162.659 111.631 161.756 112.53 160.644 112.521C155.329 112.476 141.152 112.375 138.368 112.539C134.926 112.741 135.524 116.496 137.558 121.243C140.594 128.328 137.457 136.974 127.234 135.211C121.364 134.199 118.934 127.924 121.364 121.243C123.793 114.563 120.959 112.539 118.327 112.539C112.98 112.539 100.473 112.471 95.1426 112.539" stroke="#A0A0A0" stroke-width="2" stroke-linecap="round"/>
<path d="M24.3656 111.55V100.481V85.9596C24.3656 82.4329 24.8648 79.3557 20.6196 79.1137C16.3744 78.8717 14.3528 83.6776 7.07528 82.018C3.23444 81.1421 3.95208e-06 77.2467 0 72.6828C-6.82618e-06 64.7997 8.55567 60.0433 16.7786 65.2146C24.3656 69.9859 24.3656 61.0656 24.3656 58.1613V40.2461C24.3656 39.1415 25.2611 38.2461 26.3656 38.2461H53.0713C58.7316 38.661 55.295 45.0919 53.6778 49.0335C50.4433 56.9166 54.8233 61.3422 57.923 62.5177C68.8392 65.2146 71.4672 53.5974 67.8285 49.0335C62.8532 42.7932 64.1897 38.8684 66.6155 38.8684H92.159C93.321 38.8684 94.2531 39.856 94.2357 41.0178C94.1766 44.9675 94.3105 52.237 94.3105 59.406C94.3105 70.1934 104.014 66.6667 104.014 66.8742C104.014 67.0816 118.554 63.0005 119.782 74.3424C120.59 81.8106 112.706 86.5818 104.014 83.8849C97.0598 81.7273 95.9277 84.3 95.9277 86.5818V111.55C95.9277 112.655 95.0323 113.55 93.9277 113.55H65.9198C65.222 113.55 64.5636 113.187 64.2394 112.569C61.1125 106.608 64.4445 103.704 66.4134 98.8214C68.8392 92.8054 66.188 87.7952 62.1682 86.5818C56.9122 84.9953 47.6132 87.8266 51.4541 98.8214C54.416 107.3 54.2842 113.55 49.4326 113.55H26.3656C25.2611 113.55 24.3656 112.655 24.3656 111.55Z" fill="black"/>
<path d="M96.9639 135.413C98.2459 137.64 100.891 142.458 101.215 143.915" stroke="#A0A0A0" stroke-width="2" stroke-linecap="round"/>
<path d="M91.9036 136.627C91.2288 138.449 90.8914 143.874 94.94 151" stroke="#A0A0A0" stroke-width="2" stroke-linecap="round"/>
<path d="M84.2111 135.413C81.5795 137.842 76.1948 143.51 75.709 146.749" stroke="#A0A0A0" stroke-width="2" stroke-linecap="round"/>
<path d="M92.7128 16.5869C95.3444 14.1577 100.729 8.48969 101.215 5.25079" stroke="#A0A0A0" stroke-width="2" stroke-linecap="round"/>
<path d="M85.0212 15.3726C85.696 13.5507 86.0334 8.12554 81.9848 0.999977" stroke="#A0A0A0" stroke-width="2" stroke-linecap="round"/>
<path d="M79.96 16.5869C78.6779 14.3602 76.0328 9.54233 75.7089 8.08482" stroke="#A0A0A0" stroke-width="2" stroke-linecap="round"/>
</svg>
