<svg width="183" height="152" viewBox="0 0 183 152" fill="none" xmlns="http://www.w3.org/2000/svg">
<path d="M40.6952 66.6923C37.5689 65.368 34.1308 64.635 30.5216 64.635C16.1082 64.635 4.42383 76.3197 4.42383 90.7327C4.42383 105.146 16.1082 116.83 30.5216 116.83C44.9348 116.83 56.6191 105.146 56.6191 90.7327C56.6191 84.433 54.3871 78.6548 50.6706 74.1452" stroke="black" stroke-width="2" stroke-linecap="round"/>
<path d="M95.3232 43.1824C99.0831 55.6414 114.609 83.0365 146.634 92.9448" stroke="black" stroke-width="2" stroke-linecap="round"/>
<path d="M146.634 96.2627C147.592 109.607 148.934 138.152 146.634 145.583" stroke="black" stroke-width="2" stroke-linecap="round"/>
<path d="M147.961 148.678C153.785 152.143 165.743 154.339 166.981 135.408C168.22 116.476 166.023 92.575 164.77 82.991" stroke="black" stroke-width="2" stroke-linecap="round"/>
<path d="M168.529 88.0779C174.501 81.2217 192.194 56.6722 171.626 20.8433" stroke="black" stroke-width="2" stroke-linecap="round"/>
<path d="M166.54 14.8728C156.145 4.25566 150.616 0.235474 143.538 6.02619C140.884 8.19765 140.221 13.1032 144.202 19.2959" stroke="black" stroke-width="2" stroke-linecap="round"/>
<path d="M87.5824 17.968C86.6977 12.2177 88.4909 3.19072 96.2079 1.15965C100.41 0.0536402 106.16 4.9749 107.709 7.79492" stroke="black" stroke-width="2" stroke-linecap="round"/>
<path d="M115.449 33.2288C118.908 47.9459 131.548 75.679 154.469 69.0948C154.552 69.0709 154.633 69.0391 154.709 68.9984C160.643 65.8083 166.603 53.6463 155.702 36.7674" stroke="black" stroke-width="2" stroke-linecap="round"/>
<path d="M116.776 36.989L143.316 20.8438C147.538 17.6414 157.996 12.0534 166.435 14.9759C166.649 15.0502 166.837 15.1843 166.984 15.3574L170.996 20.0994C171.371 20.5423 171.416 21.1783 171.098 21.6639C165.626 30.0377 161.656 32.0594 154.154 36.989" stroke="black" stroke-width="2" stroke-linecap="round"/>
<path d="M98.1974 51.365L55.291 81.4437" stroke="black" stroke-width="2" stroke-linecap="round"/>
<path d="M122.748 51.5859C138.451 44.7293 137.787 44.7293 154.375 36.989" stroke="black" stroke-width="2" stroke-linecap="round"/>
<path d="M56.8398 86.3105L103.506 61.5398" stroke="black" stroke-width="2" stroke-linecap="round"/>
<path d="M128.189 41.8729L146.546 31.478" stroke="black" stroke-width="2" stroke-linecap="round"/>
<path d="M94.6592 39.2001C93.0668 41.8541 90.2358 43.6236 88.0242 45.1719L10.3945 105.551C9.09653 106.328 8.03886 105.112 7.59653 104.228C6.79905 102.633 7.51934 101.807 7.96163 101.348C35.6813 72.5966 80.593 26.3282 85.3702 20.8433" stroke="black" stroke-width="2" stroke-linecap="round"/>
<path d="M107.708 7.79443C110.219 11.0896 113.08 15.9045 115.317 20.4934C115.404 20.673 115.449 20.87 115.449 21.0699V33.671" stroke="black" stroke-width="2" stroke-linecap="round"/>
<path d="M48.5693 68.1922L85.0619 34.3538" stroke="black" stroke-width="2" stroke-linecap="round"/>
<path d="M84.043 66.6263L95.7648 58.4431" stroke="black" stroke-width="2" stroke-linecap="round"/>
<path d="M94.6592 39.4211C96.3551 34.9979 102.754 25.0456 114.785 20.6221" stroke="black" stroke-width="2" stroke-linecap="round"/>
<path d="M85.5918 20.6233C90.8264 17.232 103.285 11.1131 111.247 13.7671" stroke="black" stroke-width="2" stroke-linecap="round"/>
<path d="M17.9145 136.293C27.8085 136.293 35.8291 134.313 35.8291 131.87C35.8291 129.427 27.8085 127.446 17.9145 127.446C8.02061 127.446 0 129.427 0 131.87C0 134.313 8.02061 136.293 17.9145 136.293Z" fill="black"/>
<path d="M7.07715 79.2329C11.3531 76.0627 19.4625 71.9335 29.415 79.2329" stroke="black" stroke-width="2" stroke-linecap="round"/>
<path d="M34.9443 86.7527C38.1882 90.4387 43.7026 101.173 39.81 114.62" stroke="black" stroke-width="2" stroke-linecap="round"/>
</svg>
