<svg width="187" height="150" viewBox="0 0 187 150" fill="none" xmlns="http://www.w3.org/2000/svg">
<path d="M60.9096 8.7874C86.7041 4.60403 112.437 28.3824 117.977 62.546C123.518 96.7094 106.619 127.401 80.8249 131.584C55.0307 135.767 29.299 111.99 23.7583 77.8265C18.2176 43.6631 35.1153 12.971 60.9096 8.7874Z" stroke="black" stroke-width="2"/>
<path d="M65.0231 22.2559C74.4684 20.7242 83.9357 24.4848 91.6182 31.9624C99.3006 39.4399 105.141 50.5916 107.26 63.6561C109.379 76.7209 107.362 89.1475 102.437 98.6699C97.5115 108.192 89.718 114.752 80.2727 116.284C70.8272 117.816 61.3592 114.056 53.6765 106.578C45.9941 99.1003 40.1535 87.9479 38.0346 74.8831C35.9159 61.8186 37.9326 49.3926 42.8579 39.8704C47.7834 30.3479 55.5776 23.7878 65.0231 22.2559Z" stroke="black" stroke-width="2"/>
<ellipse cx="75.9754" cy="69.7911" rx="18.1809" ry="24.5142" transform="rotate(-9.21208 75.9754 69.7911)" fill="black"/>
<path d="M34.1997 125.171C67.031 156.772 103.556 138.304 111.354 118.4C107.881 138.254 84.3547 149.518 64.7738 150C43.2281 150 16.3473 132.148 8.96011 115.937C-18.2241 56.2834 23.1874 14.2963 43.844 8.41406C5.06153 26.6766 -1.08626 91.2085 34.1997 125.171Z" fill="black"/>
<path d="M75.6494 64.4323L134.131 27.0417L145.827 19.6992" stroke="black" stroke-width="2" stroke-linecap="round"/>
<path d="M132.694 24.0086L134.053 14.6895C134.102 14.3582 134.313 14.0731 134.615 13.9299L158.041 2.84297C158.934 2.42031 159.834 3.41088 159.327 4.2593L154.23 12.8002C153.854 13.4311 154.263 14.239 154.995 14.3082L165.8 15.3303C166.737 15.419 167.044 16.6357 166.26 17.1579L146.228 30.5131C145.974 30.6819 145.658 30.7262 145.368 30.6336L134.131 27.0419" stroke="black" stroke-width="2" stroke-linecap="round"/>
<path d="M77.9062 68.742L151.113 42.5224L164.103 37.8354" stroke="black" stroke-width="2" stroke-linecap="round"/>
<path d="M150.354 39.2526L153.664 30.4357C153.782 30.1223 154.049 29.8885 154.375 29.8129L179.622 23.9616C180.585 23.7386 181.253 24.8978 180.578 25.6192L173.781 32.8807C173.279 33.4171 173.508 34.2936 174.208 34.5168L184.548 37.8134C185.445 38.0994 185.486 39.3535 184.61 39.6972L162.195 48.4864C161.912 48.5975 161.593 48.5736 161.33 48.4214L151.113 42.522" stroke="black" stroke-width="2" stroke-linecap="round"/>
<path d="M135.04 60.3134L139.451 52.9618C139.623 52.6763 139.925 52.4947 140.257 52.4776L163.196 51.2993C164.182 51.2487 164.637 52.5062 163.847 53.0983L156.928 58.2818C156.344 58.7196 156.411 59.6157 157.053 59.9622L165.288 64.4035C166.111 64.8478 165.928 66.0791 165.01 66.2639L143.977 70.5003C143.674 70.5614 143.359 70.4785 143.125 70.276L135.151 63.3721" stroke="black" stroke-width="2" stroke-linecap="round"/>
<path d="M79.1378 73.0496L135.151 63.3705L147.43 61.2486" stroke="black" stroke-width="2" stroke-linecap="round"/>
</svg>
