<svg width="589" height="400" viewBox="0 0 589 400" fill="none" xmlns="http://www.w3.org/2000/svg">
<path d="M237.867 355.428C248.871 321.636 266.957 264.36 272.106 240.228C272.127 240.128 272.188 240.045 272.275 239.991C294.709 226.038 318.975 218.447 327.136 216.932C327.236 216.914 327.332 216.939 327.416 216.996C348.202 231.528 361.062 240.41 369.012 247.971C389.227 267.2 393.076 304.072 392.722 328.072C392.722 328.209 392.646 328.33 392.529 328.395L384.194 333C383.989 333.113 383.735 333.016 383.651 332.798C376.848 314.513 364.161 300.082 355.86 273.858C355.866 274.07 355.684 274.257 355.459 274.251C332.904 273.675 331.998 272.376 311.644 266.156C299.498 304.898 264.812 343.127 247.606 359.57C247.498 359.673 247.344 359.698 247.205 359.641L238.086 355.891C237.902 355.815 237.806 355.617 237.867 355.428Z" fill="black"/>
<path d="M299.195 131.586C301.095 128.737 321.747 121.143 314.091 94.2923C320.761 91.3191 321.868 84.2262 315.737 84.2289C309.062 83.9284 307.117 78.6339 306.711 75.1744C306.449 70.5123 304.637 66.3251 303.904 65.6124" stroke="black" stroke-width="2" stroke-linecap="round"/>
<path d="M304.356 87.6201C305.236 87.2277 305.472 85.8394 304.884 84.5192C304.295 83.199 303.105 82.4468 302.224 82.8392C301.344 83.2316 301.108 84.6199 301.697 85.9401C302.285 87.2603 303.476 88.0125 304.356 87.6201Z" fill="black"/>
<path d="M296.574 81.3599C297.137 79.6676 299.203 76.6207 302.965 77.97" stroke="black" stroke-width="2" stroke-linecap="round"/>
<path d="M299.651 107.854C303.125 110.048 305.767 109.91 309.176 105.895" stroke="black" stroke-width="2" stroke-linecap="round"/>
<path d="M272.909 93.5736C272.914 94.8253 273.6 97.3563 276.304 97.4669" stroke="black" stroke-width="2" stroke-linecap="round"/>
<path d="M244.673 93.6843C248.587 108.992 261.551 115.907 271.163 121.386C275.862 115.132 282.415 102.386 278.086 103.327C273.536 104.315 263.997 95.0514 266.423 89.7595C269.269 83.5506 276.326 87.7181 279.269 91.9859L280.044 83.6866C276.864 79.5943 272.744 71.7444 281.712 73.0826C290.68 74.4209 300.249 68.5884 303.913 65.5051C309.461 55.7813 315.96 36.0629 297.571 34.9801C282.277 34.0794 270.104 49.7102 263.77 61.6373C256.363 62.9319 239.337 72.8133 244.673 93.6843Z" fill="black"/>
<path d="M271.188 120.23C275.826 122.451 278.682 124.753 281.341 131.021" stroke="black" stroke-width="2" stroke-linecap="round"/>
<path d="M275.746 176.067C277.184 186.192 278.078 213.126 270.352 240.713C270.254 241.062 270.65 241.35 270.946 241.142C279.214 235.352 300.813 223.217 328.603 216.037C328.788 215.989 328.911 215.82 328.889 215.631C327.082 200.343 326.108 168.207 334.933 159.801C334.981 159.755 335.036 159.726 335.101 159.711C353.298 155.51 391.909 142.128 403.168 121.223C403.183 121.192 403.195 121.16 403.202 121.126C404.011 117.346 404.566 109.629 400.467 108.3C400.387 108.274 400.3 108.278 400.22 108.31C373.345 119.178 343.392 128.179 304.893 135.007" stroke="black" stroke-width="2" stroke-linecap="round"/>
<path d="M275.747 188.982C257.361 209.039 240.253 216.678 227.211 222.376C218.099 227.021 198.341 230.353 207.181 215.953C245.167 168.545 253.525 160.302 262.451 152.135C267.578 147.445 269.859 144.538 282.774 141.119" stroke="black" stroke-width="2" stroke-linecap="round"/>
<path d="M222.565 369.799C221.806 364.86 236.557 357.643 239.09 356.313L246.877 359.352C246.269 363.151 244.345 365.367 243.458 366L222.565 369.799Z" stroke="black" stroke-width="2"/>
<path d="M387.807 339.41C384.768 338.803 384.642 334.472 384.958 332.383L391.795 328.964C393.884 329.534 399.468 331.015 405.091 332.383C410.713 333.75 409.964 335.612 408.889 336.371L387.807 339.41Z" stroke="black" stroke-width="2"/>
<path d="M348.348 376.258C348.348 389.371 337.719 400 324.607 400C311.495 400 300.865 389.371 300.865 376.258C300.865 363.146 311.495 352.517 324.607 352.517C337.719 352.517 348.348 363.146 348.348 376.258Z" fill="black"/>
<path d="M185.718 379.106L463.02 328.204" stroke="black" stroke-width="2" stroke-linecap="round"/>
<path d="M429.212 59.8281H413.257C411.684 59.8281 410.408 61.1037 410.408 62.6771V74.453C410.408 76.0264 411.684 77.302 413.257 77.302H429.212C430.785 77.302 432.061 76.0264 432.061 74.453V62.6771C432.061 61.1037 430.785 59.8281 429.212 59.8281Z" stroke="black" stroke-width="2"/>
<path d="M456.183 55.2714H445.546C443.973 55.2714 442.697 56.5469 442.697 58.1204V73.315C442.697 74.8885 443.973 76.164 445.546 76.164H456.183C457.756 76.164 459.032 74.8885 459.032 73.315V58.1204C459.032 56.5469 457.756 55.2714 456.183 55.2714Z" stroke="black" stroke-width="2"/>
<path d="M483.152 45.7758H472.896C471.322 45.7758 470.047 47.0513 470.047 48.6248V73.3161C470.047 74.8895 471.322 76.165 472.896 76.165H483.152C484.726 76.165 486.001 74.8895 486.001 73.3161V48.6248C486.001 47.0513 484.726 45.7758 483.152 45.7758Z" stroke="black" stroke-width="2"/>
<path d="M510.883 36.0892H500.247C498.149 36.0892 496.448 37.79 496.448 39.8879V73.3161C496.448 75.414 498.149 77.1148 500.247 77.1148H510.883C512.981 77.1148 514.682 75.414 514.682 73.3161V39.8879C514.682 37.79 512.981 36.0892 510.883 36.0892Z" fill="black"/>
<path d="M538.993 53.751H528.737C527.163 53.751 525.888 55.0265 525.888 56.6V73.3141C525.888 74.8875 527.163 76.1631 528.737 76.1631H538.993C540.567 76.1631 541.842 74.8875 541.842 73.3141V56.6C541.842 55.0265 540.567 53.751 538.993 53.751Z" stroke="black" stroke-width="2"/>
<path d="M567.483 63.2467H556.847C555.274 63.2467 553.998 64.5222 553.998 66.0957V73.3132C553.998 74.8866 555.274 76.1622 556.847 76.1622H567.483C569.057 76.1622 570.332 74.8866 570.332 73.3132V66.0957C570.332 64.5222 569.057 63.2467 567.483 63.2467Z" stroke="black" stroke-width="2"/>
<path d="M505.759 30.8689C505.455 31.2185 504.915 31.2185 504.611 30.8689L501.337 27.0907C500.911 26.5987 501.261 25.8334 501.91 25.8334H508.459C509.109 25.8334 509.458 26.5987 509.033 27.0907L505.759 30.8689Z" fill="black"/>
<path d="M524.178 0C526.276 0 527.977 1.70089 527.977 3.79883V24.3115C527.977 26.4094 526.276 28.1104 524.178 28.1104H487.331C485.233 28.1104 483.532 26.4094 483.532 24.3115V3.79883C483.532 1.70089 485.233 0 487.331 0H524.178ZM489.99 20.1338C489.151 20.1338 488.471 20.8141 488.471 21.6533C488.471 22.4924 489.151 23.1729 489.99 23.1729C490.829 23.1728 491.51 22.4924 491.51 21.6533C491.51 20.8142 490.829 20.1339 489.99 20.1338ZM497.207 20.1338C496.368 20.134 495.688 20.8143 495.688 21.6533C495.689 22.4923 496.368 23.1726 497.207 23.1729H507.084C507.923 23.1729 508.603 22.4924 508.604 21.6533C508.604 20.8141 507.923 20.1338 507.084 20.1338H497.207ZM489.99 12.2969C488.809 12.2969 487.851 13.2549 487.851 14.4365C487.851 15.6181 488.809 16.5762 489.99 16.5762C491.172 16.5761 492.13 15.6181 492.13 14.4365C492.13 13.2549 491.172 12.297 489.99 12.2969ZM497.207 12.915C496.368 12.9153 495.688 13.5956 495.688 14.4346C495.689 15.2734 496.368 15.9529 497.207 15.9531H521.519C522.358 15.9531 523.038 15.2735 523.038 14.4346C523.038 13.5954 522.358 12.915 521.519 12.915H497.207ZM489.99 14.2969C490.067 14.297 490.13 14.3595 490.13 14.4365C490.13 14.5135 490.067 14.5761 489.99 14.5762C489.913 14.5762 489.851 14.5135 489.851 14.4365C489.851 14.3594 489.913 14.2969 489.99 14.2969ZM489.99 5.31641C489.151 5.31641 488.471 5.99677 488.471 6.83594C488.471 7.67511 489.151 8.35547 489.99 8.35547H499.866C500.705 8.35547 501.386 7.67511 501.386 6.83594C501.386 5.99677 500.705 5.31641 499.866 5.31641H489.99Z" fill="black"/>
<path d="M75.5418 294.383C81.5118 291.313 88.3216 290.28 94.9336 291.441C101.545 292.602 107.596 295.893 112.163 300.813C116.73 305.733 119.563 312.012 120.229 318.691C120.896 325.371 119.359 332.085 115.855 337.811C112.35 343.536 107.069 347.958 100.817 350.403C94.5651 352.848 87.6853 353.181 81.2265 351.351C74.7676 349.522 69.0845 345.63 65.0431 340.27C61.002 334.91 58.8247 328.375 58.8429 321.662L89.612 321.747L75.5418 294.383Z" stroke="black" stroke-width="2"/>
<path d="M53.1445 318.327C53.1445 312.77 54.6872 307.323 57.6007 302.591C60.5143 297.86 64.6845 294.03 69.6463 291.529L83.1539 318.327H53.1445Z" fill="black"/>
<path d="M434.842 107.923C435.275 108.932 435.434 111.16 432.946 112.512C432.764 112.612 432.563 112.708 432.35 112.797C429.239 114.097 428.464 111.96 428.464 110.729V109.475" stroke="black" stroke-width="2" stroke-linecap="round"/>
<path d="M434.439 104.821C435.274 105.325 436.418 106.605 434.841 107.922C434.724 108.021 434.591 108.119 434.439 108.218C432.619 109.416 430.032 109.574 428.463 109.474C428.175 109.456 427.924 109.43 427.715 109.399C426.868 109.163 425.504 108.243 426.819 106.46" stroke="black" stroke-width="2" stroke-linecap="round"/>
<path d="M433.842 101.128C434.689 101.325 436.144 102.103 435.187 103.639C434.23 105.175 429.409 106.15 427.118 106.445C427.02 106.455 426.921 106.46 426.818 106.46C425.914 106.456 425.025 106.018 425.025 104.821C425.025 103.129 427.217 102.556 427.715 102.457" stroke="black" stroke-width="2" stroke-linecap="round"/>
<path d="M428.832 96.1035C429.679 96.4481 430.196 97.6982 428.164 98.7614C426.131 99.8247 426.621 101.272 427.119 101.863C427.917 102.552 430.496 103.074 434.439 99.6477C438.386 96.2213 432.198 94.0845 428.464 93.4445" stroke="black" stroke-width="2" stroke-linecap="round"/>
<path d="M420.095 99.6504C421.789 98.3213 425.086 96.4603 424.729 99.6504C424.368 102.841 422.089 104.229 420.991 104.525" stroke="black" stroke-width="2" stroke-linecap="round"/>
<path d="M420.095 112.443C421.086 111.59 422.777 108.8 421.584 104.466" stroke="black" stroke-width="2" stroke-linecap="round"/>
<path d="M420.82 98.6152L418.955 88.51" stroke="black" stroke-width="2" stroke-linecap="round"/>
<path d="M427.502 86.7993L428.775 97.129" stroke="black" stroke-width="2" stroke-linecap="round"/>
<path d="M430.427 113.165C430.427 115.985 431.779 119.697 428.775 120.588C425.109 121.675 424.721 118.361 423.973 114.946L422.021 104.702" stroke="black" stroke-width="2" stroke-linecap="round"/>
<path d="M419.715 94.7781C417.625 95.1579 412.725 97.2852 409.838 102.755C406.951 108.225 404.205 109.973 403.19 110.163" stroke="black" stroke-width="2" stroke-linecap="round"/>
<path d="M403.761 119.659C409.079 120.229 420.057 120.001 423.704 116.05" stroke="black" stroke-width="2" stroke-linecap="round"/>
<path d="M419.905 88.3196C429.976 88.3196 438.139 80.1561 438.139 70.086C438.139 60.0159 429.976 51.8524 419.905 51.8524C409.835 51.8524 401.672 60.0159 401.672 70.086C401.672 80.1561 409.835 88.3196 419.905 88.3196Z" stroke="black" stroke-width="2"/>
<path d="M587.973 105.432C580.688 106.927 584.103 116.959 578.765 119.629C572.391 122.815 570.196 104.874 571.024 97.2591C571.263 93.9201 575.149 92.4352 575.673 97.2591C576.232 102.384 569.873 122.254 562.587 114.586L557.725 108.957C556.372 107.291 553.71 104.977 551.457 108.957C549.204 112.937 545.615 111.622 544.103 110.467L539.351 107.009" stroke="black" stroke-width="2" stroke-linecap="round"/>
<path d="M542.758 91.6824L504.931 85.2748C504.558 85.2114 504.33 85.6771 504.615 85.9316L522.135 101.711C522.165 101.736 522.192 101.757 522.23 101.77C523.78 102.38 529.728 100.036 532.896 98.6187C533.109 98.523 533.356 98.64 533.421 98.8649C534.15 101.42 535.031 103.782 535.483 104.908C535.552 105.073 535.734 105.165 535.856 105.033C536.703 104.099 536.82 99.342 536.76 96.6119C536.756 96.417 536.896 96.2518 537.09 96.2142C539.419 95.7595 542.568 93.7139 543.909 92.7019" stroke="black" stroke-width="2" stroke-linecap="round"/>
<path d="M533.272 98.3483C529.238 96.4911 519.031 91.8401 510.48 88.0919" stroke="black" stroke-width="2" stroke-linecap="round"/>
<path d="M535.551 105.187L527.954 100.629" stroke="black" stroke-width="2" stroke-linecap="round"/>
<path d="M534.032 94.5498L523.775 91.5109" stroke="black" stroke-width="2" stroke-linecap="round"/>
<path d="M277.543 142.793C274.821 139.628 271.009 132.954 277.543 131.587C285.71 129.878 304.134 130.257 304.893 134.816" stroke="black" stroke-width="2" stroke-linecap="round"/>
<path d="M190.056 242.719C191.533 243.517 195.987 243.822 201.984 238.649C207.982 233.476 209.293 228.865 209.199 227.206" stroke="black" stroke-width="2" stroke-linecap="round"/>
<path d="M182.634 242.594C182.466 244.022 183.414 246.21 188.549 243.546L190.055 242.72L192.675 241.283" stroke="black" stroke-width="2" stroke-linecap="round"/>
<path d="M181.298 238.17C180.092 238.878 178.148 240.708 180.025 242.36C180.591 242.858 181.528 242.872 182.635 242.592C185.196 241.945 188.67 239.725 190.581 238.299" stroke="black" stroke-width="2" stroke-linecap="round"/>
<path d="M203.682 220.202C200.85 219.162 195.001 217.133 191.114 218.483C190.139 218.849 187.927 219.354 186.887 218.442C185.587 217.303 183.122 220.226 186.473 222.181C189.825 224.137 192.009 222.063 191.565 225.168C191.209 227.652 184.332 231.682 180.937 233.386C179.718 233.939 177.703 235.54 179.401 237.528C179.822 238.02 180.49 238.201 181.297 238.168C183.751 238.067 187.493 235.987 189.491 234.639" stroke="black" stroke-width="2" stroke-linecap="round"/>
<path d="M104.178 83.5138C114.189 93.7607 132.789 98.2762 142.593 99.5088C143.286 99.5962 143.53 100.497 142.967 100.912L117.172 119.938C117.088 120 116.991 120.045 116.89 120.068C97.7907 124.33 79.9844 105.317 72.9189 94.5162C72.6496 94.1049 72.8502 93.5586 73.3167 93.4021L103.382 83.3193C103.663 83.2251 103.971 83.3022 104.178 83.5138Z" stroke="black" stroke-width="2" stroke-linecap="round"/>
<path d="M89.4072 99.1189C92.4462 98.4876 99.0558 96.5222 101.183 93.7089" stroke="black" stroke-width="2" stroke-linecap="round"/>
<path d="M97.9541 105.954C99.8534 106.018 104.222 105.081 106.501 100.826" stroke="black" stroke-width="2" stroke-linecap="round"/>
<path d="M107.261 110.514C110.11 110.134 116.226 107.969 117.897 102.347" stroke="black" stroke-width="2" stroke-linecap="round"/>
<path d="M40.1041 162.906C30.0925 173.153 11.4927 177.669 1.68878 178.901C0.995904 178.989 0.752046 179.89 1.31425 180.305L27.1094 199.331C27.1934 199.393 27.2902 199.437 27.392 199.46C46.4911 203.722 64.2973 184.71 71.3628 173.909C71.6322 173.497 71.4316 172.951 70.9651 172.795L40.8995 162.712C40.6192 162.618 40.3111 162.695 40.1041 162.906Z" stroke="black" stroke-width="2" stroke-linecap="round"/>
<path d="M54.8745 178.511C51.8356 177.88 45.2259 175.914 43.0986 173.101" stroke="black" stroke-width="2" stroke-linecap="round"/>
<path d="M46.3273 185.347C44.4279 185.41 40.0595 184.473 37.7803 180.219" stroke="black" stroke-width="2" stroke-linecap="round"/>
<path d="M37.02 189.907C34.171 189.527 28.0552 187.362 26.3838 181.74" stroke="black" stroke-width="2" stroke-linecap="round"/>
</svg>
