<svg width="461" height="425" viewBox="0 0 461 425" fill="none" xmlns="http://www.w3.org/2000/svg">
<g clip-path="url(#clip0_120_2235)">
<path d="M241.561 106.893C241.114 107.015 240.733 107.309 240.502 107.712C240.272 108.115 240.211 108.592 240.332 109.04C240.332 109.04 241.616 113.881 240.903 118.96C240.547 121.499 239.702 124.035 238.048 126.083C236.395 128.131 233.94 129.774 229.96 130.514C229.734 130.556 229.518 130.642 229.325 130.767C229.133 130.892 228.966 131.054 228.836 131.243C228.706 131.433 228.614 131.646 228.567 131.871C228.519 132.095 228.516 132.327 228.558 132.553C228.6 132.779 228.686 132.995 228.811 133.188C228.936 133.38 229.098 133.546 229.288 133.676C229.478 133.806 229.691 133.898 229.916 133.945C230.141 133.993 230.373 133.996 230.599 133.954C235.267 133.086 238.602 130.969 240.772 128.281C242.941 125.593 243.952 122.417 244.369 119.445C245.203 113.501 243.711 108.124 243.711 108.124C243.65 107.902 243.547 107.694 243.406 107.512C243.266 107.33 243.091 107.177 242.891 107.063C242.691 106.949 242.471 106.875 242.243 106.846C242.015 106.816 241.783 106.832 241.561 106.893Z" fill="black"/>
<path d="M259.626 141.434C259.171 141.528 258.773 141.799 258.519 142.187C253.9 149.237 248.202 150.528 243.367 150.275C238.533 150.021 234.809 148.044 234.809 148.044C234.4 147.824 233.921 147.776 233.477 147.91C233.032 148.044 232.659 148.348 232.44 148.757C232.22 149.166 232.172 149.645 232.306 150.09C232.44 150.534 232.745 150.907 233.153 151.126C233.153 151.126 237.489 153.471 243.185 153.77C248.881 154.069 256.182 152.14 261.447 144.104C261.701 143.716 261.79 143.243 261.696 142.789C261.601 142.335 261.33 141.937 260.942 141.683C260.75 141.557 260.535 141.47 260.309 141.427C260.083 141.385 259.851 141.387 259.626 141.434Z" fill="black"/>
<path d="M265.25 107.45C264.789 107.403 264.328 107.542 263.968 107.836C263.609 108.129 263.381 108.553 263.334 109.015C263.005 112.281 263.846 114.931 265.479 116.659C267.112 118.386 269.401 119.103 271.593 118.977C273.785 118.851 275.949 117.912 277.526 116.211C279.104 114.511 280.018 112.012 279.685 109.143C279.658 108.915 279.587 108.694 279.475 108.493C279.363 108.292 279.213 108.115 279.033 107.973C278.852 107.83 278.646 107.724 278.425 107.661C278.203 107.598 277.972 107.58 277.744 107.607C277.283 107.66 276.862 107.895 276.574 108.259C276.287 108.622 276.155 109.085 276.208 109.546C276.436 111.505 275.874 112.847 274.96 113.833C274.046 114.818 272.704 115.408 271.392 115.483C270.079 115.559 268.869 115.151 268.023 114.256C267.177 113.361 266.561 111.89 266.816 109.367C266.839 109.138 266.817 108.907 266.751 108.687C266.685 108.467 266.576 108.262 266.43 108.084C266.285 107.906 266.106 107.758 265.903 107.649C265.701 107.54 265.479 107.473 265.25 107.45Z" fill="black"/>
<path d="M229.28 108.187C228.818 108.228 228.391 108.45 228.093 108.806C227.795 109.162 227.65 109.621 227.691 110.083C227.897 112.428 227.3 113.885 226.43 114.838C225.56 115.79 224.313 116.287 222.961 116.308C220.258 116.35 217.434 114.652 217.264 110.715C217.255 110.485 217.199 110.26 217.102 110.051C217.005 109.843 216.868 109.656 216.699 109.5C216.53 109.345 216.331 109.225 216.115 109.146C215.899 109.067 215.67 109.032 215.441 109.042C215.211 109.051 214.985 109.107 214.777 109.204C214.569 109.301 214.381 109.438 214.226 109.607C214.071 109.776 213.95 109.975 213.872 110.191C213.793 110.406 213.757 110.636 213.767 110.865C214.012 116.549 218.623 119.874 223.015 119.806C225.211 119.772 227.429 118.932 229.014 117.198C230.599 115.463 231.45 112.883 231.177 109.776C231.136 109.314 230.913 108.887 230.558 108.589C230.202 108.291 229.742 108.146 229.28 108.187Z" fill="black"/>
<path d="M223.826 98.3514C215.315 98.3514 208.377 105.289 208.377 113.799C208.377 122.309 215.315 129.247 223.826 129.247C232.338 129.247 239.276 122.309 239.276 113.799C239.276 105.289 232.338 98.3514 223.826 98.3514ZM223.826 101.858C230.443 101.858 235.769 107.183 235.769 113.799C235.769 120.415 230.443 125.74 223.826 125.74C217.21 125.74 211.884 120.415 211.884 113.799C211.884 107.183 217.21 101.858 223.826 101.858Z" fill="black"/>
<path d="M270.105 95.9093C261.063 95.9093 253.697 103.276 253.697 112.316C253.697 121.357 261.063 128.722 270.105 128.722C279.146 128.722 286.514 121.357 286.514 112.316C286.514 103.276 279.146 95.9092 270.105 95.9093ZM270.105 99.4029C277.258 99.4029 283.02 105.164 283.02 112.316C283.02 119.469 277.258 125.228 270.105 125.228C262.952 125.228 257.191 119.469 257.191 112.316C257.191 105.164 262.952 99.4029 270.105 99.4029Z" fill="black"/>
<path d="M246.051 98.4562C241.683 98.0616 237.175 99.6425 232.619 102.762C232.429 102.892 232.267 103.057 232.141 103.25C232.016 103.442 231.93 103.658 231.887 103.884C231.845 104.11 231.848 104.342 231.895 104.567C231.943 104.791 232.034 105.005 232.164 105.194C232.293 105.384 232.459 105.546 232.652 105.672C232.844 105.797 233.06 105.884 233.286 105.926C233.512 105.968 233.744 105.966 233.969 105.918C234.194 105.871 234.407 105.779 234.597 105.65C238.722 102.825 242.419 101.642 245.735 101.942C249.051 102.241 252.18 103.991 255.27 107.691C255.568 108.046 255.995 108.27 256.457 108.311C256.919 108.352 257.379 108.208 257.735 107.911C258.091 107.613 258.314 107.186 258.356 106.724C258.397 106.262 258.253 105.803 257.956 105.447C254.453 101.254 250.419 98.8508 246.051 98.4562Z" fill="black"/>
<path d="M271.87 85.5158C267.827 85.2099 263.656 86.2456 259.537 88.4544C259.335 88.563 259.156 88.7105 259.01 88.8883C258.864 89.0662 258.755 89.2709 258.689 89.4909C258.623 89.711 258.6 89.9418 258.623 90.1705C258.646 90.3992 258.713 90.6211 258.822 90.8236C258.931 91.0262 259.078 91.2054 259.256 91.3509C259.434 91.4965 259.639 91.6056 259.859 91.6721C260.079 91.7385 260.31 91.7609 260.538 91.7381C260.767 91.7152 260.989 91.6475 261.192 91.5389C268.578 87.5773 274.83 87.7423 281.13 93.2611C281.479 93.5668 281.935 93.7215 282.398 93.6908C282.861 93.6602 283.293 93.4468 283.599 93.0977C283.905 92.7486 284.059 92.2925 284.029 91.8295C283.998 91.3664 283.785 90.9344 283.436 90.6286C279.829 87.4688 275.913 85.8218 271.87 85.5158Z" fill="black"/>
<path d="M227.025 86.6987C219.403 86.5688 213.547 89.4224 209.619 94.7278C209.343 95.1007 209.226 95.568 209.295 96.0268C209.363 96.4857 209.611 96.8986 209.984 97.1748C210.168 97.3117 210.378 97.4108 210.601 97.4666C210.824 97.5223 211.056 97.5337 211.284 97.4999C211.511 97.466 211.73 97.3877 211.927 97.2693C212.124 97.151 212.296 96.9948 212.432 96.81C216.874 90.8115 223.508 88.5421 234.389 91.2406C234.84 91.3519 235.316 91.2798 235.714 91.0401C236.111 90.8004 236.397 90.4128 236.508 89.9624C236.62 89.5121 236.548 89.0361 236.308 88.6388C236.069 88.2415 235.682 87.9555 235.232 87.8437C232.304 87.1176 229.566 86.7421 227.025 86.6987Z" fill="black"/>
<path d="M299.251 119.973C298.788 119.944 298.332 120.099 297.984 120.406C297.636 120.712 297.424 121.145 297.394 121.608C296.48 135.944 292.16 145.56 285.21 151.682C285.038 151.834 284.897 152.018 284.795 152.224C284.694 152.431 284.634 152.655 284.62 152.885C284.605 153.114 284.636 153.344 284.71 153.562C284.785 153.779 284.901 153.98 285.053 154.152C285.36 154.5 285.793 154.712 286.256 154.741C286.719 154.771 287.175 154.615 287.523 154.308C295.304 147.454 299.933 136.772 300.887 121.83C300.916 121.367 300.76 120.911 300.454 120.563C300.147 120.215 299.715 120.002 299.251 119.973Z" fill="black"/>
<path d="M309.451 99.5995C308.751 99.6836 308.045 99.8715 307.351 100.169C304.351 101.449 302.296 104.427 300.735 107.02C299.174 109.613 298.212 111.948 298.212 111.948C298.124 112.161 298.079 112.389 298.079 112.619C298.079 112.849 298.125 113.076 298.213 113.289C298.301 113.501 298.43 113.694 298.593 113.856C298.756 114.019 298.949 114.148 299.162 114.235C299.591 114.412 300.073 114.412 300.501 114.234C300.93 114.055 301.27 113.714 301.447 113.285C301.447 113.285 302.324 111.168 303.735 108.824C305.145 106.481 307.195 104.039 308.726 103.386C310.481 102.635 311.501 102.911 312.494 103.924C313.487 104.937 314.325 107.022 314.358 109.949C314.402 113.537 313.724 120.932 305.395 130.471C305.392 130.474 305.39 130.476 305.387 130.479C305.048 130.87 303.237 132.143 302.028 132.346C301.423 132.447 301.058 132.375 300.757 132.16C300.457 131.945 300.042 131.445 299.788 130.119C299.745 129.893 299.658 129.678 299.532 129.486C299.406 129.294 299.243 129.129 299.053 129C298.863 128.87 298.649 128.78 298.424 128.734C298.199 128.687 297.966 128.685 297.741 128.728C297.515 128.771 297.3 128.859 297.107 128.985C296.915 129.111 296.75 129.274 296.62 129.464C296.491 129.655 296.401 129.869 296.354 130.094C296.308 130.319 296.306 130.551 296.35 130.777C296.713 132.675 297.509 134.139 298.721 135.007C299.933 135.874 301.383 136.002 302.605 135.798C305.047 135.39 306.937 134.031 308.028 132.775C316.894 122.619 317.905 114.07 317.853 109.912C317.813 106.368 316.881 103.407 314.989 101.477C313.57 100.03 311.54 99.3504 309.442 99.6029L309.451 99.5995Z" fill="black"/>
<path d="M228.366 0.0864371C218.631 -0.247274 189.835 -0.943433 168.655 26.5049C165.974 29.9813 162.554 35.7967 161.752 43.2847C160.951 50.7726 162.868 59.8812 170.557 69.5224C175.075 75.1788 191.75 89.6245 225.23 82.2044C232.663 80.5598 252.87 74.4279 265.89 52.5714C267.645 58.6688 271.942 70.5187 281.082 79.1152C287.532 85.1808 296.081 87.9974 304.189 88.0561C312.296 88.1146 320.052 85.446 324.896 80.1523C334.919 69.2108 341.403 48.8579 327.345 22.9083C324.191 17.0852 319.191 11.2406 312.498 7.62076C305.805 4.00085 297.378 2.70396 287.894 5.99528C282.295 7.93941 273.831 12.2964 267.509 23.1366C263.95 17.1816 252.232 0.896438 228.364 0.0864371H228.366ZM228.245 3.58321C255.26 4.50007 265.959 27.3692 265.959 27.3692C266.1 27.6665 266.321 27.9183 266.597 28.0957C266.874 28.2732 267.195 28.369 267.524 28.3725C267.852 28.3759 268.176 28.2869 268.456 28.1154C268.736 27.9438 268.963 27.6968 269.109 27.4025C275.082 15.3799 283.455 11.242 289.042 9.30175C297.667 6.30858 304.893 7.48615 310.833 10.6989C316.773 13.9115 321.388 19.2581 324.268 24.575C337.755 49.4696 331.408 67.8623 322.316 77.7878C318.349 82.1228 311.527 84.6075 304.216 84.5546C296.905 84.5018 289.197 81.9398 283.482 76.5651C271.868 65.6426 268.246 47.8329 268.246 47.8329C268.176 47.4759 267.997 47.1497 267.733 46.8994C267.469 46.6492 267.133 46.4875 266.773 46.4368C266.413 46.386 266.046 46.4487 265.723 46.6162C265.4 46.7837 265.137 47.0477 264.971 47.3714C252.783 71.1205 231.896 77.1454 224.477 78.7869C192.169 85.9479 177.029 72.0117 173.296 67.3387C166.093 58.306 164.526 50.2806 165.235 43.6574C165.944 37.0342 169.027 31.7593 171.43 28.6427C191.664 2.42219 218.559 3.25271 228.248 3.5848L228.245 3.58321Z" fill="black"/>
<path fill-rule="evenodd" clip-rule="evenodd" d="M266.528 48.1728C266.528 48.1728 270.118 66.4009 282.282 77.8413C294.446 89.2817 314.796 88.5997 323.607 78.97C333.165 68.5365 339.58 49.1633 325.808 23.7412C319.774 12.6012 306.578 1.36377 288.47 7.64827C282.647 9.67002 273.739 14.1521 267.543 26.6236C267.543 26.6236 256.296 2.78476 228.305 1.83478C218.593 1.50188 190.748 0.738604 170.041 27.5735C164.957 34.1666 157.032 49.7561 171.925 68.4309C176.05 73.5949 191.958 87.7877 224.854 80.4964C232.487 78.8075 254.023 72.5394 266.528 48.1728Z" fill="black"/>
<path d="M303.203 84.5563C302.975 84.5835 302.754 84.6555 302.554 84.768C302.354 84.8805 302.177 85.0315 302.035 85.2122C301.893 85.3929 301.788 85.5999 301.726 85.8212C301.664 86.0425 301.646 86.2739 301.673 86.5021C301.673 86.5021 303.13 99.9542 300.096 108.171C299.936 108.606 299.955 109.088 300.149 109.509C300.343 109.93 300.697 110.257 301.132 110.418C301.568 110.579 302.049 110.56 302.47 110.366C302.892 110.171 303.219 109.818 303.38 109.383C306.94 99.7366 305.15 86.085 305.15 86.085C305.094 85.6243 304.858 85.2044 304.493 84.9177C304.128 84.631 303.664 84.501 303.203 84.5563Z" fill="black"/>
<path d="M327.419 71.8172C326.962 71.9003 326.557 72.1613 326.293 72.5429C326.029 72.9245 325.927 73.3953 326.01 73.8518C326.01 73.8518 329.238 91.1335 314.675 106.595C314.518 106.762 314.394 106.959 314.313 107.173C314.231 107.388 314.193 107.617 314.2 107.847C314.207 108.077 314.259 108.303 314.353 108.513C314.448 108.722 314.582 108.911 314.75 109.069C314.917 109.226 315.114 109.349 315.329 109.431C315.544 109.512 315.773 109.551 316.002 109.544C316.232 109.537 316.458 109.485 316.668 109.39C316.877 109.296 317.066 109.161 317.224 108.994C332.869 92.383 329.454 73.2236 329.454 73.2236C329.37 72.7674 329.109 72.363 328.728 72.0993C328.346 71.8355 327.875 71.7341 327.419 71.8172Z" fill="black"/>
<path d="M326.331 84.7847C318.844 89.0962 311.441 90.2003 303.868 89.7674C303.405 89.7412 302.95 89.9001 302.604 90.2091C302.258 90.5181 302.049 90.9518 302.022 91.4151C301.996 91.8781 302.155 92.3327 302.463 92.6788C302.772 93.0249 303.206 93.2343 303.669 93.261C311.72 93.7212 319.941 92.5035 328.078 87.8184C328.277 87.7038 328.452 87.551 328.592 87.3688C328.732 87.1867 328.835 86.9788 328.895 86.7569C328.954 86.535 328.97 86.3035 328.94 86.0756C328.911 85.8477 328.836 85.6277 328.722 85.4286C328.607 85.2293 328.454 85.0547 328.272 84.9145C328.09 84.7744 327.882 84.6714 327.66 84.6117C327.438 84.5519 327.206 84.5364 326.978 84.5661C326.75 84.5958 326.531 84.67 326.331 84.7847Z" fill="black"/>
<path d="M324.169 91.9306C317.588 96.2761 310.85 97.8165 303.757 97.305C303.294 97.2716 302.837 97.4234 302.486 97.727C302.135 98.0307 301.919 98.4613 301.885 98.9241C301.852 99.387 302.004 99.8443 302.307 100.195C302.611 100.546 303.042 100.762 303.505 100.795C311.273 101.356 318.907 99.5984 326.098 94.8501C326.29 94.7235 326.455 94.5604 326.583 94.37C326.712 94.1796 326.802 93.9658 326.848 93.7406C326.894 93.5155 326.896 93.2834 326.852 93.0577C326.808 92.8321 326.721 92.6172 326.594 92.4254C326.338 92.0382 325.939 91.7686 325.484 91.6759C325.029 91.5831 324.556 91.6747 324.169 91.9306Z" fill="black"/>
<path d="M282.566 102.64C282.103 102.605 281.646 102.756 281.295 103.059C280.943 103.361 280.726 103.791 280.691 104.254C280.657 104.717 280.808 105.174 281.111 105.526C281.413 105.877 281.843 106.094 282.306 106.129L302.477 107.64C302.94 107.674 303.397 107.523 303.749 107.221C304.1 106.918 304.317 106.488 304.352 106.025C304.369 105.796 304.341 105.566 304.269 105.348C304.197 105.129 304.083 104.927 303.933 104.753C303.783 104.579 303.6 104.436 303.395 104.332C303.19 104.229 302.966 104.167 302.737 104.149L282.566 102.64Z" fill="black"/>
<path d="M193.107 122.528C192.879 122.559 192.66 122.635 192.462 122.752C192.264 122.868 192.09 123.022 191.952 123.206C191.813 123.389 191.712 123.598 191.654 123.82C191.596 124.043 191.583 124.274 191.614 124.502C191.614 124.502 195.636 154.615 217.911 169.755C219.782 171.026 227.987 176.933 239.454 178.793C250.92 180.654 265.821 178.396 280.852 164.035C281.188 163.715 281.382 163.274 281.393 162.81C281.404 162.346 281.23 161.897 280.909 161.561C280.75 161.395 280.56 161.262 280.35 161.169C280.14 161.076 279.913 161.025 279.683 161.02C279.453 161.015 279.224 161.055 279.01 161.138C278.796 161.221 278.6 161.346 278.433 161.505C264.093 175.205 250.594 177.056 240.015 175.339C229.436 173.623 221.953 168.269 219.877 166.86C199.244 152.835 195.08 124.019 195.08 124.019C195.016 123.559 194.772 123.144 194.402 122.864C194.032 122.584 193.566 122.463 193.106 122.526L193.107 122.528Z" fill="black"/>
<path d="M196.947 79.8971C196.496 79.7907 196.02 79.8682 195.625 80.1123C195.231 80.3565 194.949 80.7473 194.843 81.199C194.843 81.199 193.87 85.3154 193.074 90.5682C192.677 93.1875 192.315 96.0843 192.143 98.9366C191.659 98.2947 191.12 97.6769 190.506 97.124C189.252 95.9932 187.63 95.1035 185.731 95.0672C183.638 95.0266 181.721 96.202 180.181 97.9978C178.642 99.7937 177.42 102.287 176.743 105.351C175.388 111.479 176.25 119.893 181.656 129.45C182.355 130.681 183.951 133.619 186.633 135.246C187.975 136.06 189.818 136.487 191.574 135.769C193.33 135.052 194.788 133.443 196.118 130.879C196.224 130.675 196.288 130.452 196.308 130.223C196.328 129.994 196.302 129.763 196.233 129.544C196.163 129.325 196.051 129.121 195.903 128.945C195.755 128.77 195.573 128.625 195.369 128.519C194.957 128.306 194.477 128.265 194.035 128.405C193.593 128.545 193.224 128.856 193.011 129.267C191.896 131.417 190.877 132.273 190.249 132.529C189.622 132.786 189.176 132.696 188.449 132.255C186.997 131.374 185.345 128.856 184.703 127.724C179.652 118.794 179.021 111.27 180.162 106.108C180.733 103.527 181.757 101.538 182.84 100.275C183.922 99.0124 185.004 98.5529 185.664 98.5656C186.522 98.5818 187.327 98.9685 188.164 99.7232C189.001 100.478 189.796 101.582 190.441 102.72C191.732 104.997 192.414 107.308 192.414 107.308C192.54 107.733 192.822 108.094 193.203 108.319C193.585 108.544 194.037 108.616 194.47 108.521C194.902 108.426 195.282 108.17 195.534 107.805C195.785 107.441 195.889 106.995 195.824 106.557C195.198 102.444 195.763 96.1968 196.536 91.0931C197.31 85.9894 198.251 82.003 198.251 82.003C198.304 81.7793 198.312 81.5473 198.275 81.3203C198.239 81.0934 198.157 80.8758 198.036 80.6803C197.916 80.4847 197.757 80.3149 197.571 80.1805C197.384 80.0461 197.173 79.9497 196.949 79.8971H196.947Z" fill="black"/>
<path d="M174.354 69.1926C173.891 69.1664 173.436 69.3253 173.09 69.6343C172.744 69.9433 172.535 70.3771 172.508 70.8403C172.508 70.8403 172.191 76.3833 172.661 83.2558C173.13 90.1283 174.3 98.349 177.683 104.102C177.8 104.3 177.954 104.473 178.138 104.612C178.321 104.75 178.53 104.851 178.753 104.909C178.975 104.967 179.207 104.98 179.435 104.948C179.663 104.916 179.882 104.84 180.08 104.723C180.278 104.607 180.451 104.452 180.59 104.269C180.728 104.085 180.829 103.876 180.886 103.654C180.944 103.431 180.957 103.2 180.925 102.972C180.893 102.744 180.817 102.525 180.7 102.327C177.904 97.5732 176.607 89.6564 176.153 83.018C175.699 76.3796 176.002 71.0401 176.002 71.0401C176.015 70.8106 175.983 70.5808 175.908 70.3638C175.832 70.1467 175.714 69.9466 175.561 69.775C175.408 69.6034 175.223 69.4636 175.016 69.3637C174.809 69.2638 174.584 69.2057 174.354 69.1926Z" fill="black"/>
<path d="M174.428 76.0608C174.2 76.0275 173.968 76.0394 173.746 76.0957C173.523 76.152 173.313 76.2517 173.129 76.3891C172.756 76.6662 172.51 77.08 172.442 77.5392C172.375 77.9984 172.493 78.4654 172.77 78.8376C172.77 78.8376 174.356 80.8998 177.895 82.9544C181.434 85.0091 187.04 87.2131 195.398 88.0434C195.86 88.0892 196.321 87.9498 196.68 87.6557C197.039 87.3615 197.267 86.9368 197.312 86.475C197.358 86.0132 197.219 85.552 196.925 85.1931C196.63 84.8341 196.206 84.6068 195.744 84.5609C187.837 83.7754 182.745 81.7248 179.652 79.9287C176.558 78.1326 175.577 76.7475 175.577 76.7475C175.3 76.3752 174.887 76.1282 174.428 76.0608Z" fill="black"/>
<path d="M175.127 86.15C174.669 86.0761 174.201 86.1867 173.825 86.4576C173.638 86.592 173.48 86.7618 173.359 86.9574C173.238 87.1529 173.157 87.3705 173.12 87.5974C173.083 87.8244 173.092 88.0562 173.145 88.28C173.197 88.5037 173.294 88.7149 173.428 88.9014C173.428 88.9014 173.854 89.4608 174.581 90.0718C175.309 90.6827 176.419 91.4547 178.02 92.2126C181.221 93.7286 186.376 95.189 194.401 95.3098C194.864 95.3168 195.312 95.1393 195.645 94.8164C195.978 94.4934 196.17 94.0514 196.177 93.5876C196.18 93.3577 196.139 93.1294 196.054 92.9158C195.969 92.7021 195.843 92.5074 195.683 92.3425C195.523 92.1775 195.332 92.0456 195.121 91.9545C194.91 91.8634 194.683 91.8148 194.453 91.8114C186.83 91.6967 182.194 90.3159 179.519 89.0489C178.181 88.4153 177.33 87.8097 176.832 87.3917C176.334 86.9737 176.267 86.8525 176.267 86.8525C175.996 86.4764 175.585 86.2237 175.127 86.15Z" fill="black"/>
<path d="M193.847 101.466C193.383 101.454 192.933 101.626 192.596 101.946C192.26 102.265 192.064 102.705 192.051 103.169C192.045 103.399 192.085 103.628 192.167 103.842C192.25 104.057 192.374 104.253 192.532 104.42C192.69 104.587 192.88 104.721 193.09 104.814C193.3 104.908 193.527 104.959 193.756 104.964C193.756 104.964 204.439 105.263 212.535 107.191C212.759 107.244 212.99 107.253 213.217 107.217C213.444 107.18 213.662 107.099 213.858 106.979C214.053 106.858 214.223 106.701 214.358 106.514C214.493 106.328 214.59 106.117 214.643 105.894C214.75 105.442 214.674 104.967 214.431 104.572C214.188 104.177 213.798 103.894 213.347 103.786C204.666 101.719 193.847 101.466 193.847 101.466Z" fill="black"/>
<path d="M216.641 172.366C216.417 172.316 216.185 172.31 215.959 172.35C215.732 172.39 215.516 172.474 215.322 172.597C215.322 172.597 191.786 187.357 192.678 210.467C192.691 210.809 192.804 211.139 193.003 211.417C193.201 211.695 193.477 211.909 193.796 212.032C194.114 212.155 194.462 212.183 194.796 212.111C195.13 212.038 195.436 211.87 195.676 211.626C195.676 211.626 200.222 207.013 205.054 203.621C207.47 201.925 209.989 200.576 211.71 200.226C212.571 200.05 213.165 200.118 213.531 200.287C213.898 200.457 214.202 200.719 214.499 201.558C214.575 201.774 214.694 201.974 214.848 202.145C215.002 202.316 215.188 202.455 215.395 202.554C215.603 202.652 215.828 202.71 216.057 202.722C216.287 202.734 216.517 202.7 216.733 202.623C216.95 202.547 217.15 202.428 217.321 202.274C217.491 202.12 217.63 201.934 217.729 201.727C217.828 201.519 217.885 201.294 217.897 201.065C217.909 200.835 217.876 200.606 217.799 200.389C217.27 198.895 216.276 197.703 215.003 197.112C213.73 196.522 212.342 196.524 211.011 196.795C208.35 197.337 205.644 198.93 203.043 200.757C200.508 202.537 198.137 204.563 196.335 206.191C198.286 187.83 217.203 175.548 217.203 175.548C217.594 175.299 217.87 174.905 217.971 174.452C218.071 173.999 217.988 173.524 217.739 173.133C217.489 172.742 217.095 172.466 216.641 172.366Z" fill="black"/>
<path d="M227.804 177.171C227.589 177.09 227.36 177.051 227.13 177.058C226.9 177.065 226.674 177.118 226.464 177.212C226.255 177.307 226.066 177.442 225.908 177.609C225.751 177.777 225.628 177.974 225.547 178.189C225.547 178.189 213.335 210.368 215.889 244.552C215.907 244.781 215.969 245.004 216.072 245.21C216.176 245.415 216.319 245.597 216.493 245.747C216.667 245.897 216.869 246.012 217.088 246.083C217.306 246.155 217.537 246.183 217.766 246.166C217.995 246.149 218.219 246.087 218.424 245.983C218.629 245.88 218.812 245.737 218.962 245.562C219.112 245.388 219.226 245.186 219.298 244.968C219.369 244.75 219.398 244.519 219.38 244.29C216.9 211.098 228.822 179.426 228.822 179.426C228.986 178.992 228.971 178.511 228.78 178.088C228.589 177.665 228.238 177.335 227.804 177.171Z" fill="black"/>
<path d="M258.928 185.535C258.479 185.653 258.096 185.944 257.862 186.345C257.862 186.345 242.226 213.031 239.023 240.704C238.97 241.165 239.102 241.629 239.39 241.992C239.678 242.356 240.099 242.59 240.56 242.644C240.789 242.67 241.02 242.651 241.241 242.588C241.462 242.525 241.669 242.419 241.849 242.277C242.029 242.134 242.179 241.957 242.291 241.756C242.403 241.555 242.474 241.334 242.5 241.106C245.582 214.476 260.885 188.108 260.885 188.108C261.119 187.708 261.184 187.23 261.066 186.781C260.948 186.333 260.656 185.949 260.256 185.715C260.057 185.6 259.837 185.524 259.61 185.493C259.382 185.462 259.15 185.476 258.928 185.535Z" fill="black"/>
<path d="M223.742 187.745C223.279 187.767 222.843 187.972 222.53 188.315C222.217 188.657 222.054 189.11 222.075 189.574C222.333 195.172 223.566 199.479 225.715 202.556C227.864 205.632 231.008 207.372 234.479 207.643C241.423 208.184 249.454 203.531 257.06 195.229C257.215 195.059 257.335 194.861 257.414 194.645C257.492 194.429 257.527 194.2 257.517 193.97C257.507 193.741 257.452 193.515 257.354 193.307C257.257 193.099 257.12 192.912 256.95 192.757C256.781 192.601 256.582 192.481 256.366 192.403C256.15 192.324 255.921 192.289 255.691 192.299C255.462 192.309 255.236 192.365 255.028 192.462C254.82 192.559 254.633 192.697 254.478 192.866C247.28 200.722 239.833 204.55 234.752 204.154C232.212 203.956 230.206 202.872 228.586 200.553C226.965 198.233 225.808 194.573 225.571 189.412C225.549 188.949 225.344 188.513 225.002 188.2C224.659 187.888 224.206 187.724 223.742 187.745Z" fill="black"/>
<path d="M279.589 174.889C279.362 174.858 279.13 174.872 278.908 174.93C278.685 174.988 278.477 175.089 278.294 175.228C278.11 175.367 277.956 175.541 277.84 175.739C277.724 175.937 277.648 176.157 277.617 176.384C277.585 176.612 277.599 176.844 277.657 177.066C277.715 177.288 277.817 177.497 277.956 177.68C277.956 177.68 280.55 181.088 281.307 186.767C282.015 192.082 281.06 199.286 274.424 207.541C273.125 205.769 271.048 203.101 268.078 200.545C265.93 198.696 263.563 197.095 260.866 196.959C259.518 196.891 258.085 197.287 256.914 198.212C255.743 199.137 254.839 200.506 254.138 202.303C254.055 202.517 254.014 202.746 254.019 202.976C254.024 203.205 254.074 203.432 254.166 203.642C254.258 203.853 254.391 204.043 254.557 204.202C254.723 204.361 254.919 204.486 255.133 204.57C255.347 204.653 255.576 204.694 255.805 204.689C256.035 204.684 256.262 204.634 256.472 204.541C256.683 204.449 256.873 204.315 257.032 204.149C257.191 203.983 257.316 203.788 257.399 203.574C257.945 202.172 258.556 201.375 259.084 200.959C259.611 200.542 260.061 200.423 260.69 200.454C261.948 200.518 263.916 201.581 265.794 203.198C269.55 206.431 272.912 211.376 272.912 211.376C273.061 211.598 273.259 211.782 273.49 211.916C273.722 212.049 273.981 212.128 274.247 212.146C274.514 212.164 274.781 212.12 275.028 212.019C275.275 211.918 275.496 211.761 275.673 211.562C284.21 201.933 285.651 192.865 284.777 186.305C283.903 179.746 280.746 175.566 280.746 175.566C280.607 175.383 280.433 175.229 280.235 175.113C280.036 174.996 279.817 174.92 279.589 174.889Z" fill="black"/>
<path d="M105.827 232.472C77.3013 232.844 55.5783 236.483 55.5783 236.483C55.1224 236.559 54.7151 236.812 54.4453 237.187C54.1755 237.563 54.0651 238.029 54.1382 238.486C55.9092 249.531 57.1623 260.169 57.9463 270.439C57.9817 270.901 58.1995 271.331 58.5516 271.633C58.9038 271.935 59.3614 272.085 59.8241 272.05C60.0533 272.033 60.2769 271.97 60.482 271.867C60.6872 271.763 60.8699 271.62 61.0197 271.445C61.1695 271.271 61.2834 271.069 61.355 270.85C61.4267 270.632 61.4545 270.402 61.4371 270.172C60.688 260.358 59.4776 250.188 57.84 239.688C62.0877 239.021 87.1556 235.306 118.344 236.032C152.452 236.827 192.442 243.236 216.107 264.795C216.28 264.953 216.483 265.074 216.704 265.152C216.926 265.23 217.16 265.263 217.394 265.248C217.628 265.234 217.857 265.172 218.067 265.068C218.277 264.963 218.463 264.818 218.616 264.639C218.616 264.639 220.272 262.646 225.54 259.544C230.809 256.442 239.561 252.383 253.35 248.733C280.693 241.497 327.936 235.912 406.855 242.511C406.238 245.173 402.822 260.239 400.932 282.999C400.913 283.228 400.939 283.458 401.009 283.677C401.079 283.896 401.192 284.099 401.34 284.274C401.489 284.45 401.671 284.594 401.875 284.699C402.08 284.805 402.303 284.868 402.532 284.887C402.761 284.906 402.992 284.88 403.211 284.81C403.43 284.74 403.633 284.627 403.808 284.479C403.983 284.33 404.128 284.148 404.233 283.944C404.338 283.74 404.402 283.516 404.421 283.287C406.465 258.685 410.662 241.316 410.662 241.316C410.721 241.071 410.727 240.816 410.678 240.569C410.63 240.321 410.529 240.087 410.381 239.883C410.234 239.678 410.044 239.508 409.825 239.383C409.606 239.259 409.362 239.183 409.111 239.161C328.675 232.268 280.565 237.911 252.454 245.351C238.398 249.071 229.343 253.243 223.764 256.528C220.151 258.656 218.339 260.158 217.231 261.176C192.288 239.411 152.35 233.323 118.425 232.532C114.116 232.432 109.902 232.419 105.827 232.472ZM60.0937 317.635C59.6309 317.604 59.1746 317.758 58.8251 318.063C58.4757 318.368 58.2617 318.799 58.2302 319.262C55.6375 357.565 46.5232 390.841 34.8267 422.212C34.719 422.501 34.6898 422.814 34.742 423.118C34.7943 423.423 34.9263 423.708 35.1244 423.945C35.3225 424.182 35.5798 424.362 35.8701 424.467C36.1605 424.573 36.4736 424.599 36.7775 424.544C101.214 412.913 150.279 412.958 183.206 415.898C216.133 418.838 232.8 424.63 232.8 424.63C233.238 424.782 233.719 424.754 234.137 424.551C234.554 424.349 234.874 423.988 235.027 423.55C235.102 423.333 235.134 423.103 235.12 422.873C235.106 422.644 235.047 422.42 234.947 422.213C234.847 422.006 234.706 421.821 234.534 421.668C234.362 421.516 234.162 421.399 233.945 421.324C233.945 421.324 216.749 415.38 183.519 412.413C150.802 409.492 102.346 409.471 39.0725 420.623C50.3535 389.851 59.1782 357.088 61.7226 319.498C61.738 319.269 61.7081 319.039 61.6346 318.821C61.5611 318.603 61.4454 318.402 61.2942 318.229C61.1429 318.056 60.959 317.915 60.753 317.813C60.5471 317.711 60.3231 317.65 60.0937 317.635ZM402.237 327.631C402.008 327.649 401.784 327.712 401.579 327.816C401.375 327.921 401.192 328.065 401.043 328.24C400.894 328.415 400.781 328.617 400.71 328.836C400.639 329.055 400.612 329.285 400.63 329.514C402.967 358.789 411.018 389.587 430.831 412.254C420.715 410.033 396.899 405.352 367.514 403.286C328.277 400.528 279.064 402.375 239.052 421.149C238.844 421.247 238.657 421.384 238.502 421.554C238.347 421.724 238.227 421.923 238.149 422.139C238.071 422.355 238.036 422.585 238.047 422.814C238.058 423.044 238.114 423.269 238.211 423.477C238.309 423.685 238.447 423.872 238.616 424.027C238.786 424.182 238.985 424.302 239.201 424.38C239.418 424.458 239.647 424.492 239.877 424.482C240.106 424.471 240.331 424.415 240.54 424.318C279.629 405.977 328.347 404.04 367.268 406.777C406.189 409.513 435.233 416.863 435.233 416.863C435.603 416.956 435.994 416.926 436.345 416.777C436.697 416.628 436.99 416.367 437.18 416.036C437.37 415.705 437.447 415.32 437.398 414.942C437.349 414.563 437.177 414.21 436.909 413.938C415.194 391.868 406.562 359.829 404.119 329.235C404.082 328.773 403.863 328.344 403.51 328.043C403.157 327.743 402.699 327.594 402.237 327.631Z" fill="black"/>
<path d="M216.636 261.877C216.206 262.049 215.861 262.386 215.678 262.812C215.495 263.239 215.489 263.72 215.661 264.151C215.661 264.151 218.699 271.706 222.592 293.981C226.485 316.255 231.173 353.099 234.313 411.233C234.338 411.696 234.546 412.131 234.891 412.44C235.237 412.75 235.691 412.91 236.154 412.885C236.384 412.873 236.609 412.816 236.816 412.717C237.023 412.618 237.209 412.479 237.363 412.308C237.516 412.137 237.635 411.937 237.711 411.72C237.788 411.504 237.821 411.274 237.808 411.044C234.663 352.802 229.963 315.828 226.04 293.378C222.117 270.928 218.911 262.852 218.911 262.852C218.739 262.421 218.402 262.077 217.976 261.894C217.549 261.711 217.067 261.705 216.636 261.877Z" fill="black"/>
<path d="M289.086 177.856C287.406 177.827 286.469 177.88 286.469 177.88C286.24 177.893 286.015 177.951 285.808 178.051C285.601 178.151 285.415 178.291 285.262 178.462C285.109 178.634 284.992 178.834 284.916 179.051C284.84 179.268 284.808 179.498 284.821 179.727C284.834 179.957 284.892 180.181 284.992 180.388C285.092 180.595 285.232 180.781 285.404 180.934C285.575 181.087 285.775 181.204 285.992 181.28C286.21 181.356 286.439 181.388 286.669 181.375C286.669 181.375 300.889 180.559 317.698 187.319C334.508 194.078 353.761 208.28 363.863 238.776C363.935 238.994 364.049 239.196 364.2 239.37C364.35 239.544 364.533 239.687 364.738 239.79C364.944 239.894 365.168 239.955 365.397 239.972C365.626 239.989 365.857 239.96 366.075 239.888C366.293 239.815 366.495 239.701 366.669 239.55C366.843 239.4 366.985 239.217 367.089 239.011C367.192 238.806 367.253 238.582 367.27 238.353C367.287 238.124 367.258 237.894 367.185 237.675C356.766 206.22 336.543 191.123 319.005 184.071C305.851 178.782 294.126 177.944 289.086 177.856Z" fill="black"/>
<path d="M199.654 179.61C199.654 179.61 151.456 182.283 124.96 233.779C124.747 234.192 124.707 234.672 124.849 235.114C124.991 235.556 125.302 235.923 125.715 236.136C126.127 236.348 126.607 236.388 127.049 236.246C127.491 236.105 127.859 235.793 128.071 235.381C153.806 185.367 199.838 183.103 199.838 183.104C200.301 183.079 200.736 182.872 201.046 182.527C201.357 182.183 201.517 181.729 201.493 181.266C201.481 181.036 201.424 180.811 201.325 180.604C201.226 180.396 201.087 180.211 200.917 180.057C200.746 179.903 200.546 179.784 200.33 179.708C200.113 179.631 199.883 179.598 199.654 179.61Z" fill="black"/>
<path d="M54.7056 281.586C54.4926 281.499 54.2645 281.456 54.0345 281.457C53.8046 281.459 53.5772 281.506 53.3654 281.595C53.1536 281.685 52.9616 281.815 52.8002 281.979C52.6388 282.143 52.5113 282.337 52.4249 282.55C52.2506 282.98 52.2544 283.462 52.4352 283.889C52.6161 284.316 52.9592 284.655 53.3892 284.829C53.3892 284.829 63.7144 289.046 71.175 290.589C74.4901 291.278 78.367 292.892 81.3367 294.774C84.3062 296.655 86.1175 298.968 86.1994 299.852C86.3505 301.451 85.8764 302.588 84.9893 303.291C84.1025 303.995 82.601 304.4 80.2074 303.789C77.4465 303.081 70.4409 301.261 63.7221 299.569C60.3624 298.723 57.0741 297.909 54.4137 297.279C51.7534 296.65 49.845 296.213 48.7612 296.082C48.533 296.054 48.3017 296.072 48.0803 296.134C47.8589 296.196 47.6518 296.3 47.471 296.442C47.2901 296.584 47.139 296.76 47.0262 296.96C46.9134 297.161 46.841 297.381 46.8134 297.609C46.7858 297.837 46.8035 298.069 46.8653 298.29C46.9271 298.511 47.0319 298.718 47.1738 298.899C47.3156 299.08 47.4917 299.231 47.6919 299.344C47.8922 299.457 48.1127 299.529 48.3409 299.557C48.869 299.621 50.977 300.063 53.608 300.686C56.239 301.308 59.5165 302.119 62.8673 302.963C69.569 304.651 76.562 306.467 79.3397 307.18C82.4751 307.981 85.2528 307.55 87.1652 306.033C89.0777 304.516 89.9225 302.049 89.6838 299.523C89.3823 296.292 86.5626 293.939 83.2097 291.815C79.8555 289.689 75.7179 287.955 71.8871 287.158C65.0557 285.746 54.7071 281.583 54.7071 281.583L54.7056 281.586Z" fill="black"/>
<path d="M76.9072 303.245C76.6904 303.322 76.4909 303.44 76.32 303.594C76.1491 303.748 76.0103 303.934 75.9113 304.142C75.8123 304.349 75.7551 304.574 75.7432 304.804C75.7312 305.033 75.7646 305.263 75.8414 305.48C75.8414 305.48 76.1999 306.603 76.0809 307.665C76.0216 308.196 75.8632 308.644 75.5638 309.002C75.2644 309.359 74.7955 309.71 73.7542 309.918C71.5318 310.362 66.0357 310.323 60.8756 309.935C55.7155 309.549 50.53 308.784 49.0851 308.32C48.6432 308.178 48.163 308.217 47.7501 308.429C47.3373 308.641 47.0256 309.008 46.8837 309.45C46.7417 309.892 46.7811 310.372 46.9932 310.785C47.2053 311.198 47.5726 311.509 48.0145 311.651C50.4348 312.429 55.319 313.029 60.6139 313.426C65.909 313.823 71.2535 313.986 74.4393 313.35C76.098 313.018 77.4025 312.256 78.2458 311.248C79.0891 310.241 79.4433 309.073 79.5574 308.054C79.7855 306.017 79.1402 304.31 79.1402 304.31C79.0636 304.094 78.9449 303.894 78.7911 303.723C78.6373 303.552 78.4513 303.413 78.2437 303.314C78.0362 303.215 77.8113 303.158 77.5817 303.146C77.3521 303.134 77.1223 303.168 76.9056 303.245L76.9072 303.245Z" fill="black"/>
<path d="M44.5512 265.612C43.2878 265.643 42.0222 265.757 40.7622 265.965C38.1027 266.403 36.1061 267.53 34.7907 269.032C33.4751 270.535 32.8588 272.317 32.5497 273.964C32.2405 275.611 32.2217 277.168 32.1801 278.335C32.159 278.918 32.1314 279.407 32.0882 279.7C32.0752 279.789 32.0606 279.808 32.0451 279.849C31.9696 279.9 31.4053 280.33 30.616 280.843C29.7648 281.398 28.7308 282.082 27.8119 283.013C26.8932 283.943 26.0488 285.194 25.8928 286.773C25.7368 288.352 26.3222 290.058 27.6121 291.724C29.5995 294.286 30.1376 296.612 30.6874 299.025C31.2371 301.438 31.8136 304.101 34.1418 306.195C35.4864 307.408 35.9664 309.547 36.5081 312.066C37.0501 314.585 37.7516 317.647 40.6128 319.249C44.8587 321.634 50.5351 321.863 55.7387 321.541C60.9431 321.219 65.6823 320.252 67.8623 319.762C69.2691 319.446 70.4011 318.695 71.109 317.767C71.8175 316.837 72.1176 315.802 72.2382 314.893C72.4795 313.075 72.0336 311.526 72.0336 311.526C71.9127 311.079 71.619 310.697 71.2169 310.466C70.8148 310.234 70.3373 310.172 69.8893 310.293C69.4411 310.413 69.0592 310.707 68.8275 311.109C68.5958 311.511 68.5333 311.988 68.6538 312.437C68.6538 312.437 68.8982 313.45 68.768 314.432C68.703 314.922 68.5526 315.347 68.3255 315.645C68.0983 315.943 67.8113 316.187 67.0963 316.347C65.0212 316.815 60.4262 317.744 55.5246 318.047C50.623 318.35 45.4236 317.935 42.3289 316.197C40.943 315.42 40.463 313.777 39.9371 311.331C39.4112 308.886 38.9371 305.801 36.4907 303.596C35.0266 302.279 34.6611 300.678 34.1085 298.251C33.5558 295.825 32.8323 292.737 30.3859 289.583C29.463 288.391 29.3295 287.651 29.3821 287.119C29.4349 286.587 29.7269 286.062 30.3083 285.473C30.8898 284.884 31.721 284.307 32.5319 283.779C33.3429 283.251 34.0898 282.892 34.8063 282.066C35.3877 281.398 35.4722 280.783 35.5565 280.214C35.641 279.644 35.6632 279.071 35.685 278.46C35.728 277.239 35.758 275.879 35.9957 274.611C36.2337 273.344 36.6646 272.213 37.4295 271.34C38.1945 270.466 39.3123 269.753 41.3375 269.419C49.9988 267.986 60.0211 272.008 65.8053 274.871C72.06 277.968 79.3578 284.324 81.4546 286.239C81.4573 286.239 81.46 286.239 81.4627 286.239C81.5759 286.341 81.978 286.863 82.2176 287.414C82.4572 287.965 82.5492 288.555 82.5063 288.844C82.4632 289.134 82.5176 289.155 82.0669 289.35C81.6166 289.545 80.4911 289.726 78.5586 289.412C78.1006 289.337 77.6318 289.448 77.2552 289.719C76.8787 289.99 76.6252 290.4 76.5507 290.858C76.4763 291.316 76.5869 291.785 76.8582 292.161C77.1295 292.538 77.5391 292.791 77.9972 292.866C80.3076 293.242 82.0464 293.174 83.4579 292.563C84.8694 291.952 85.7831 290.609 85.9686 289.358C86.154 288.107 85.8457 286.98 85.4278 286.018C85.0105 285.058 84.4991 284.272 83.8179 283.652C81.6099 281.636 74.3273 275.182 67.3628 271.734C62.0927 269.125 53.4023 265.387 44.5589 265.611L44.5512 265.612Z" fill="black"/>
<path d="M30.9284 307.062C30.9284 307.062 9.83543 323.225 1.26484 354.826C-0.217386 360.284 -0.649487 368.039 1.36001 375.896C3.36934 383.752 7.89997 391.719 16.3432 397.113C19.1737 398.922 23.828 399.81 29.3867 399.672C34.9454 399.534 41.343 398.243 47.1741 395.054C47.5808 394.831 47.8825 394.456 48.0128 394.011C48.143 393.566 48.0912 393.087 47.8687 392.68C47.7585 392.478 47.6096 392.3 47.4305 392.156C47.2514 392.012 47.0457 391.904 46.825 391.84C46.6044 391.775 46.3732 391.755 46.1446 391.779C45.916 391.804 45.6946 391.874 45.4929 391.984C40.2639 394.844 34.3786 396.046 29.2995 396.172C24.2204 396.298 19.881 395.221 18.229 394.164C10.6188 389.303 6.59055 382.221 4.75094 375.028C2.91124 367.835 3.33999 360.54 4.64309 355.743C12.9144 325.246 33.0568 309.841 33.0568 309.841C33.2393 309.701 33.3925 309.527 33.5075 309.328C33.6226 309.129 33.6974 308.909 33.7276 308.681C33.7578 308.454 33.7428 308.222 33.6835 308C33.6242 307.778 33.5217 307.57 33.3819 307.387C33.2422 307.205 33.0679 307.052 32.869 306.937C32.67 306.822 32.4503 306.747 32.2225 306.717C31.9946 306.687 31.7631 306.701 31.5411 306.761C31.319 306.82 31.1108 306.922 30.9284 307.062Z" fill="black"/>
<path fill-rule="evenodd" clip-rule="evenodd" d="M58.5553 334.856C57.7676 341.595 56.7931 348.18 55.64 354.627C18.2208 351.68 29.0373 321.451 31.0918 316.408C32.7646 312.316 33.7635 313.388 34.5755 318.252C38.181 339.874 58.5553 334.856 58.5553 334.856Z" fill="black"/>
<path d="M412.918 292.003C412.486 291.834 412.005 291.844 411.58 292.03C411.58 292.03 394.262 299.592 388.414 302.901C386.577 303.945 385.287 305.071 384.502 306.36C383.716 307.648 383.521 309.172 383.967 310.446C384.858 312.995 387.527 314.266 390.371 314.443C396.369 314.815 409.232 313.872 415.686 312.137C416.134 312.016 416.516 311.723 416.748 311.321C416.98 310.919 417.042 310.441 416.921 309.993C416.801 309.545 416.507 309.163 416.105 308.931C415.703 308.699 415.225 308.637 414.777 308.757C409.213 310.253 395.846 311.275 390.589 310.949C388.732 310.834 387.47 309.859 387.271 309.29C387.171 309.006 387.141 308.752 387.49 308.18C387.838 307.609 388.65 306.793 390.14 305.946C395.371 302.986 412.983 295.237 412.983 295.237C413.194 295.144 413.384 295.011 413.543 294.845C413.702 294.68 413.827 294.484 413.911 294.27C413.994 294.056 414.035 293.827 414.03 293.598C414.025 293.368 413.975 293.141 413.883 292.931C413.696 292.506 413.349 292.172 412.917 292.003L412.918 292.003Z" fill="black"/>
<path d="M393.768 311.127C393.552 311.048 393.322 311.012 393.093 311.022C392.863 311.032 392.637 311.087 392.429 311.184C392.429 311.184 391.341 311.682 390.235 312.548C389.131 313.412 387.705 314.754 387.747 316.855C387.777 318.559 388.665 320.348 390.362 321.568C392.06 322.788 394.477 323.492 397.729 323.541C403.952 323.633 415.981 322.749 415.981 322.749C416.444 322.716 416.875 322.5 417.179 322.149C417.482 321.798 417.634 321.341 417.601 320.878C417.567 320.415 417.351 319.985 417 319.681C416.649 319.377 416.192 319.225 415.729 319.259C415.729 319.259 403.593 320.129 397.78 320.042C395.016 320.002 393.324 319.385 392.407 318.726C391.49 318.067 391.257 317.417 391.246 316.791C391.246 316.789 391.246 316.786 391.246 316.783C391.238 316.565 391.651 315.882 392.392 315.302C393.134 314.722 393.906 314.355 393.906 314.355C394.114 314.258 394.301 314.121 394.457 313.952C394.612 313.783 394.733 313.584 394.811 313.368C394.89 313.153 394.926 312.923 394.916 312.694C394.906 312.464 394.851 312.239 394.754 312.03C394.558 311.61 394.203 311.284 393.768 311.125V311.127Z" fill="black"/>
<path d="M417.262 274.828C412.844 274.958 407.393 276.903 401.552 281.803C399.336 283.659 395.9 286.918 392.748 290.075C389.596 293.232 386.865 296.076 385.722 297.747C385.152 298.579 384.75 299.464 384.65 300.44C384.55 301.416 384.839 302.517 385.545 303.307C386.955 304.886 389.221 305.157 392.209 304.737C392.669 304.673 393.084 304.428 393.363 304.058C393.642 303.687 393.763 303.221 393.698 302.761C393.634 302.302 393.389 301.887 393.019 301.608C392.648 301.329 392.182 301.208 391.722 301.272C389.269 301.616 388.235 301.065 388.155 300.976C388.115 300.931 388.112 300.987 388.132 300.797C388.151 300.606 388.28 300.206 388.611 299.723C389.222 298.828 392.122 295.656 395.224 292.549C398.327 289.441 401.768 286.188 403.798 284.488C414.53 275.484 422.383 278.657 423.928 280.794C426.565 284.462 430.065 287.461 434.496 291.405C436.587 293.266 438.598 295.641 439.795 297.66C440.393 298.669 440.779 299.595 440.91 300.213C441.041 300.831 440.924 300.961 440.95 300.93C440.282 301.73 438.621 303.094 437.261 304.823C435.9 306.552 434.746 309.037 435.67 311.714C436.178 313.187 436.029 314.859 435.11 317.177C434.191 319.495 432.499 322.34 430.234 325.778C428.101 329.023 426.131 330.445 424.288 331.122C422.447 331.799 420.604 331.739 418.647 331.551C416.959 331.384 412.693 330.394 408.401 329.243C404.108 328.092 399.655 326.775 397.134 325.959C396.119 325.628 395.723 325.251 395.532 324.97C395.341 324.688 395.289 324.409 395.316 324.023C395.371 323.251 395.868 322.385 395.868 322.385C395.994 322.192 396.08 321.977 396.122 321.751C396.165 321.525 396.162 321.293 396.115 321.068C396.067 320.843 395.976 320.63 395.846 320.44C395.716 320.251 395.55 320.089 395.358 319.963C395.165 319.838 394.95 319.751 394.724 319.709C394.498 319.667 394.266 319.669 394.041 319.717C393.816 319.764 393.603 319.855 393.413 319.985C393.223 320.115 393.061 320.281 392.936 320.474C392.936 320.474 391.96 321.869 391.826 323.777C391.758 324.731 391.932 325.896 392.634 326.933C393.336 327.969 394.5 328.784 396.052 329.289C398.672 330.138 403.14 331.456 407.492 332.623C411.845 333.79 415.947 334.801 418.304 335.033C420.39 335.234 422.877 335.37 425.492 334.408C428.107 333.448 430.724 331.398 433.154 327.702C435.461 324.198 437.265 321.222 438.358 318.466C439.451 315.709 439.829 313.054 438.973 310.573C438.533 309.296 438.983 308.289 440.008 306.988C441.032 305.686 442.537 304.481 443.632 303.17C444.535 302.088 444.583 300.691 444.328 299.488C444.073 298.286 443.523 297.097 442.799 295.876C441.351 293.433 439.168 290.883 436.817 288.79C432.365 284.827 429.061 281.948 426.761 278.748C425.057 276.391 421.674 274.706 417.256 274.836L417.262 274.828Z" fill="black"/>
<path d="M441.489 311.523C441.325 311.685 441.195 311.877 441.105 312.088C441.016 312.3 440.969 312.527 440.967 312.757C440.965 312.987 441.009 313.215 441.095 313.428C441.181 313.641 441.309 313.835 441.47 313.999C441.47 313.999 458.189 331.255 456.371 350.77C455.302 362.178 453.485 373.455 448.286 380.91C443.086 388.365 434.711 392.466 418.892 389.716C418.435 389.637 417.964 389.742 417.585 390.009C417.205 390.276 416.947 390.683 416.868 391.14C416.828 391.367 416.834 391.599 416.884 391.823C416.934 392.048 417.028 392.26 417.16 392.448C417.293 392.636 417.461 392.796 417.655 392.919C417.849 393.042 418.066 393.126 418.292 393.166C434.938 396.059 445.249 391.383 451.156 382.911C457.064 374.44 458.775 362.642 459.857 351.096C461.872 329.461 443.965 311.546 443.965 311.546C443.804 311.382 443.612 311.251 443.4 311.161C443.189 311.071 442.961 311.024 442.732 311.022C442.502 311.021 442.274 311.064 442.06 311.15C441.847 311.237 441.653 311.364 441.489 311.525L441.489 311.523Z" fill="black"/>
<path fill-rule="evenodd" clip-rule="evenodd" d="M403.188 337.633C403.188 337.633 412.859 344.413 423.505 341.408C427.817 340.191 436.806 336.618 439.21 325.364C439.681 323.131 442.101 320.241 442.718 324.747C443.441 329.968 442.604 342.594 435.661 351.607C434.2 353.498 425.332 365.182 405.648 353.377C404.609 348.148 403.797 342.878 403.188 337.633Z" fill="black"/>
</g>
<defs>
<clipPath id="clip0_120_2235">
<rect width="460.016" height="424.727" fill="white"/>
</clipPath>
</defs>
</svg>
