<svg width="442" height="413" viewBox="0 0 442 413" fill="none" xmlns="http://www.w3.org/2000/svg">
<path d="M19.2227 409.415C18.7585 409.415 18.3134 409.599 17.9852 409.927C17.657 410.255 17.4727 410.7 17.4727 411.165C17.4727 411.629 17.657 412.074 17.9852 412.402C18.3134 412.73 18.7585 412.915 19.2227 412.915H426.172C426.636 412.915 427.081 412.73 427.409 412.402C427.737 412.074 427.922 411.629 427.922 411.165C427.922 410.7 427.737 410.255 427.409 409.927C427.081 409.599 426.636 409.415 426.172 409.415H19.2227Z" fill="black"/>
<path d="M390.645 350.215C385.777 350.215 381.795 354.2 381.795 359.067C381.795 363.934 385.777 367.916 390.645 367.917C395.512 367.917 399.496 363.934 399.496 359.067C399.496 354.2 395.512 350.215 390.645 350.215ZM390.645 353.715C393.621 353.715 395.998 356.09 395.998 359.067C395.998 362.043 393.621 364.418 390.645 364.418C387.668 364.418 385.293 362.043 385.293 359.067C385.293 356.09 387.668 353.715 390.645 353.715Z" fill="black"/>
<path d="M389.43 281.907C383.11 281.659 376.069 282.114 368.232 283.475C368.006 283.514 367.789 283.598 367.595 283.721C367.401 283.844 367.233 284.005 367.101 284.193C366.968 284.381 366.875 284.593 366.824 284.817C366.774 285.042 366.769 285.274 366.808 285.5C366.888 285.958 367.146 286.364 367.525 286.631C367.905 286.898 368.375 287.004 368.832 286.924C399.315 281.629 416.466 290.286 426.26 300.114C430.131 303.998 432.584 307.913 434.439 311.418C411.258 288.123 376.178 286.36 348.58 308.063C314.837 334.6 327.515 380.012 327.515 380.012C327.577 380.234 327.682 380.441 327.824 380.621C327.966 380.802 328.142 380.953 328.342 381.066C328.542 381.179 328.763 381.251 328.991 381.279C329.219 381.306 329.45 381.289 329.672 381.227C330.119 381.103 330.498 380.806 330.726 380.402C330.954 379.998 331.013 379.52 330.889 379.073C330.889 379.073 318.867 335.883 350.744 310.813C379.985 287.818 417.143 292.174 438.68 321.647C438.916 321.97 439.256 322.202 439.643 322.305C440.029 322.408 440.44 322.375 440.805 322.212C441.171 322.049 441.469 321.765 441.651 321.409C441.833 321.052 441.887 320.644 441.805 320.252C441.805 320.252 439.267 308.208 428.738 297.643C420.842 289.719 408.387 282.65 389.43 281.907Z" fill="black"/>
<path d="M361.727 299.709C361.52 299.81 361.335 299.95 361.183 300.123C361.031 300.295 360.914 300.495 360.839 300.712C360.764 300.93 360.732 301.159 360.746 301.389C360.76 301.618 360.819 301.843 360.92 302.049L389.068 359.832C389.169 360.039 389.309 360.224 389.482 360.376C389.654 360.529 389.854 360.646 390.071 360.72C390.288 360.795 390.518 360.827 390.748 360.813C390.977 360.799 391.202 360.74 391.408 360.639C391.615 360.538 391.8 360.398 391.952 360.226C392.104 360.054 392.221 359.854 392.296 359.636C392.371 359.419 392.403 359.189 392.389 358.96C392.375 358.73 392.316 358.506 392.215 358.299L364.066 300.516C363.966 300.309 363.825 300.125 363.653 299.972C363.481 299.82 363.281 299.703 363.064 299.628C362.846 299.553 362.616 299.522 362.387 299.536C362.158 299.55 361.933 299.609 361.727 299.709Z" fill="black"/>
<path d="M325.117 159.405C322.448 159.405 320.468 161.495 319.207 164.102C317.946 166.709 317.238 170.095 317.238 173.823C317.238 177.55 317.946 180.937 319.207 183.543C320.468 186.15 322.448 188.243 325.117 188.243C327.786 188.243 329.764 186.15 331.025 183.543C332.287 180.937 332.996 177.55 332.996 173.823C332.996 170.095 332.287 166.709 331.025 164.102C329.764 161.495 327.786 159.405 325.117 159.405ZM325.117 162.901C325.834 162.901 326.921 163.646 327.879 165.625C328.837 167.605 329.5 170.552 329.5 173.823C329.5 177.093 328.837 180.043 327.879 182.022C326.921 184.001 325.834 184.747 325.117 184.747C324.4 184.747 323.311 184.001 322.354 182.022C321.396 180.043 320.732 177.093 320.732 173.823C320.732 170.552 321.396 167.605 322.354 165.625C323.311 163.646 324.4 162.901 325.117 162.901Z" fill="black"/>
<path d="M323.639 159.368C320.544 159.425 313.691 160.223 308.387 165.688V165.69C305.935 168.221 304.454 171.751 304.375 175.348C304.296 178.945 305.751 182.691 309.172 185.083C315.566 189.554 322.181 188.646 325.344 188.229C325.572 188.199 325.791 188.124 325.99 188.009C326.19 187.894 326.364 187.741 326.504 187.559C326.644 187.376 326.746 187.168 326.806 186.946C326.865 186.724 326.88 186.492 326.85 186.264C326.82 186.036 326.745 185.817 326.63 185.617C326.515 185.418 326.362 185.244 326.179 185.104C325.997 184.964 325.789 184.862 325.566 184.802C325.344 184.743 325.113 184.728 324.885 184.758C321.688 185.18 316.483 185.924 311.178 182.213C308.748 180.515 307.817 178.081 307.875 175.424C307.933 172.768 309.112 169.972 310.901 168.126C316.728 162.121 324.941 162.893 324.941 162.893C325.403 162.939 325.864 162.799 326.223 162.505C326.582 162.211 326.81 161.787 326.856 161.325C326.901 160.863 326.762 160.402 326.468 160.043C326.174 159.684 325.749 159.457 325.287 159.411C325.287 159.411 324.672 159.348 323.641 159.368L323.639 159.368Z" fill="black"/>
<path d="M325.307 184.764C325.101 184.866 324.917 185.008 324.765 185.181C324.614 185.354 324.498 185.555 324.424 185.773C324.35 185.99 324.321 186.221 324.336 186.45C324.351 186.68 324.412 186.904 324.514 187.11L372.902 285.096C373.004 285.303 373.146 285.487 373.319 285.638C373.491 285.79 373.693 285.906 373.911 285.98C374.128 286.054 374.359 286.084 374.588 286.069C374.818 286.053 375.042 285.993 375.248 285.891C375.454 285.789 375.638 285.648 375.79 285.475C375.941 285.302 376.057 285.1 376.131 284.883C376.205 284.665 376.235 284.435 376.219 284.205C376.204 283.976 376.143 283.751 376.041 283.545L327.651 185.559C327.445 185.143 327.083 184.825 326.643 184.676C326.204 184.527 325.723 184.559 325.307 184.764Z" fill="black"/>
<path d="M330.748 169.245C330.292 169.333 329.891 169.598 329.631 169.983C329.502 170.174 329.413 170.388 329.367 170.613C329.321 170.838 329.32 171.07 329.364 171.296C329.408 171.521 329.496 171.736 329.623 171.928C329.75 172.119 329.913 172.284 330.103 172.413C333.799 174.907 334.616 177.963 333.93 181.092C333.243 184.222 330.762 187.373 327.412 189.094C327 189.307 326.688 189.674 326.547 190.116C326.405 190.557 326.444 191.037 326.656 191.45C326.868 191.863 327.235 192.174 327.677 192.316C328.119 192.458 328.599 192.419 329.012 192.208C333.252 190.029 336.401 186.166 337.35 181.842C338.298 177.519 336.754 172.681 332.06 169.512C331.87 169.384 331.656 169.294 331.431 169.248C331.206 169.202 330.974 169.201 330.748 169.245Z" fill="black"/>
<path d="M336.902 169.499C336.71 169.625 336.545 169.787 336.415 169.978C336.286 170.168 336.196 170.381 336.149 170.606C336.102 170.832 336.101 171.064 336.144 171.289C336.187 171.515 336.274 171.73 336.4 171.922C338.799 175.575 339.14 179.108 338.328 181.504C337.515 183.901 335.803 185.259 333.037 185.108C332.574 185.083 332.119 185.243 331.774 185.553C331.428 185.863 331.22 186.297 331.195 186.76C331.182 186.99 331.215 187.22 331.291 187.437C331.367 187.654 331.486 187.853 331.639 188.025C331.793 188.196 331.978 188.335 332.186 188.435C332.393 188.534 332.618 188.592 332.847 188.604C337.021 188.831 340.41 186.262 341.642 182.627C342.875 178.993 342.205 174.39 339.324 170.002C339.069 169.615 338.672 169.344 338.217 169.249C337.763 169.155 337.29 169.244 336.902 169.499Z" fill="black"/>
<path d="M335.61 164.061C332.269 163.842 329.553 164.698 329.553 164.698C329.11 164.835 328.74 165.143 328.524 165.554C328.308 165.964 328.263 166.444 328.401 166.887C328.469 167.107 328.58 167.311 328.727 167.488C328.874 167.664 329.054 167.81 329.258 167.918C329.461 168.025 329.684 168.09 329.913 168.111C330.142 168.132 330.373 168.108 330.592 168.04C330.592 168.04 332.752 167.383 335.381 167.555C338.01 167.728 340.825 168.598 342.686 171.834C345.64 176.974 342.657 182.783 337.438 183.672C336.981 183.751 336.573 184.007 336.305 184.386C336.037 184.765 335.93 185.235 336.008 185.692C336.086 186.149 336.342 186.557 336.721 186.825C337.099 187.094 337.568 187.201 338.026 187.124C345.567 185.839 349.785 177.163 345.719 170.09C343.2 165.707 338.951 164.28 335.61 164.061Z" fill="black"/>
<path d="M281.808 184.262C278.418 181.399 273.236 182.208 270.253 185.739C267.271 189.27 267.341 194.515 270.731 197.378C274.122 200.242 279.304 199.433 282.286 195.901C285.269 192.37 285.199 187.125 281.808 184.262ZM279.551 186.934C281.33 188.436 281.501 191.406 279.612 193.643C277.723 195.88 274.767 196.208 272.988 194.706C271.21 193.204 271.037 190.233 272.926 187.996C274.815 185.759 277.773 185.433 279.551 186.934Z" fill="black"/>
<path d="M184.273 119.122C183.896 119.392 183.641 119.801 183.566 120.259C183.49 120.716 183.599 121.186 183.869 121.563C183.869 121.563 191.104 131.763 193.687 143.004C193.741 143.239 193.842 143.459 193.984 143.653C193.984 143.653 196.577 147.114 202.769 151.514C208.961 155.915 218.852 161.388 233.73 165.838C266.666 175.688 301.15 172.706 301.15 172.706C301.379 172.686 301.602 172.622 301.806 172.516C302.011 172.41 302.192 172.266 302.34 172.09C302.488 171.914 302.6 171.711 302.67 171.492C302.74 171.273 302.765 171.042 302.746 170.813C302.706 170.351 302.484 169.923 302.129 169.624C301.775 169.325 301.316 169.18 300.853 169.219C300.853 169.219 266.839 172.086 234.734 162.485C220.202 158.138 210.672 152.836 204.797 148.661C199.148 144.646 197.097 141.937 196.937 141.723C194.048 129.777 186.715 119.526 186.715 119.526C186.444 119.149 186.035 118.894 185.578 118.818C185.12 118.742 184.651 118.852 184.273 119.122Z" fill="black"/>
<path d="M211.877 60.4028C211.656 60.3392 211.425 60.3198 211.196 60.3457C210.968 60.3716 210.747 60.4422 210.545 60.5536C210.344 60.665 210.167 60.8149 210.024 60.9948C209.881 61.1747 209.774 61.381 209.711 61.602C209.289 63.0687 208.722 64.0101 208.191 64.5337C207.661 65.0572 207.207 65.227 206.598 65.2309C205.379 65.2389 203.277 64.1378 201.15 61.5649C200.855 61.2074 200.429 60.9818 199.967 60.9379C199.506 60.894 199.045 61.0352 198.688 61.3306C198.51 61.477 198.364 61.6569 198.256 61.86C198.148 62.0631 198.081 62.2855 198.06 62.5144C198.038 62.7433 198.061 62.9743 198.129 63.1941C198.196 63.4139 198.307 63.6182 198.453 63.7954C200.947 66.8125 203.68 68.75 206.621 68.7309C208.092 68.7209 209.55 68.1108 210.65 67.0239C211.751 65.937 212.536 64.4382 213.074 62.5688C213.138 62.348 213.157 62.1168 213.132 61.8884C213.106 61.66 213.035 61.439 212.924 61.2379C212.813 61.0367 212.663 60.8595 212.484 60.7162C212.304 60.5729 212.098 60.4664 211.877 60.4028Z" fill="black"/>
<path d="M204.734 80.9673C204.51 80.9145 204.278 80.9063 204.051 80.9432C203.825 80.98 203.607 81.0612 203.412 81.1821C203.017 81.4262 202.735 81.817 202.629 82.2686C202.522 82.7202 202.599 83.1956 202.843 83.5903C204.408 86.1225 207.208 87.591 210.548 87.4653C211.012 87.4475 211.449 87.2464 211.765 86.9062C212.08 86.566 212.247 86.1144 212.23 85.6509C212.212 85.1874 212.011 84.7499 211.671 84.4345C211.331 84.1192 210.879 83.9518 210.416 83.9693C208.016 84.0596 206.815 83.3603 205.82 81.7505C205.576 81.3558 205.185 81.0741 204.734 80.9673Z" fill="black"/>
<path d="M224.261 74.0728C223.819 73.9353 223.339 73.9792 222.929 74.1949C222.518 74.4106 222.21 74.7804 222.072 75.2232C222.072 75.2232 219.713 82.6285 214.756 88.0298C212.277 90.7304 209.226 92.8738 205.543 93.52C201.86 94.1662 197.409 93.3877 191.865 89.7388C191.556 89.5355 191.192 89.4351 190.823 89.4519C190.453 89.4688 190.099 89.602 189.81 89.8325C189.81 89.8325 186.916 92.1611 184.668 96.5844C182.42 101.008 180.739 107.666 182.801 116.28C182.854 116.503 182.951 116.714 183.086 116.9C183.221 117.086 183.391 117.244 183.587 117.364C183.783 117.484 184.001 117.565 184.228 117.601C184.455 117.637 184.686 117.628 184.91 117.575C185.133 117.521 185.344 117.424 185.53 117.289C185.716 117.154 185.874 116.984 185.994 116.788C186.114 116.592 186.195 116.375 186.231 116.148C186.267 115.921 186.258 115.689 186.205 115.465C184.336 107.656 185.854 101.977 187.789 98.1704C189.163 95.4658 190.418 94.1154 191.197 93.3637C196.77 96.7105 201.822 97.7262 206.148 96.9672C210.803 96.1505 214.51 93.4722 217.334 90.395C222.982 84.2405 225.414 76.2641 225.414 76.2641C225.482 76.0446 225.507 75.8137 225.486 75.5847C225.465 75.3558 225.399 75.1331 225.292 74.9296C225.185 74.7261 225.039 74.5457 224.862 74.3986C224.685 74.2516 224.481 74.1409 224.261 74.0728Z" fill="black"/>
<path d="M198.59 0.0122152C197.011 -0.0281048 195.402 0.0314555 193.776 0.18995C180.916 1.44297 166.906 8.94573 158.592 23.0357C148.251 27.1834 140.394 40.6288 141.981 57.686C142.872 67.2865 147.282 74.984 152.826 79.9653C158.371 84.9466 165.096 87.3406 170.813 85.8931C176.052 84.5652 178.463 82.269 179.143 79.936C179.823 77.6031 178.666 75.6704 178.666 75.6704C178.487 75.37 178.222 75.1301 177.905 74.9818C177.588 74.8335 177.234 74.7836 176.889 74.8384C173.962 75.3028 171.884 74.5644 170.274 73.2134C168.664 71.8623 167.556 69.7946 167.086 67.6157C166.616 65.4368 166.809 63.1835 167.531 61.6079C168.253 60.0323 169.284 59.1285 171.076 58.9907C173.126 58.8331 174.493 59.3261 175.596 60.1314C176.699 60.9366 177.534 62.1264 178.133 63.4165C179.332 65.9968 179.504 68.7642 179.504 68.7642C179.52 69.0742 179.619 69.3743 179.789 69.6338C179.96 69.8932 180.196 70.1027 180.474 70.2406C180.752 70.3786 181.062 70.4401 181.372 70.4188C181.681 70.3976 181.98 70.2943 182.237 70.1196C186.626 67.1375 188.451 61.891 189.319 57.5298C189.752 55.3537 189.936 53.3462 190.014 51.8794C196.205 53.8426 202.425 52.6798 207.828 51.8364C210.886 51.3591 213.699 51.0401 216.112 51.3755C218.313 51.6816 220.159 52.5727 221.905 54.354C221.583 56.0623 221.448 57.6831 221.53 59.2017C221.505 59.3017 221.489 59.4036 221.483 59.5064C221.513 59.5262 221.545 59.5451 221.577 59.563C222.351 70.0769 231.424 75.9204 231.424 75.9204C231.62 76.041 231.837 76.1218 232.064 76.1583C232.291 76.1948 232.523 76.1862 232.747 76.1331C232.97 76.08 233.181 75.9833 233.368 75.8486C233.554 75.7139 233.712 75.5438 233.832 75.3481C234.076 74.9531 234.153 74.4775 234.046 74.0259C233.939 73.5743 233.657 73.1836 233.262 72.9399C233.262 72.9399 226.184 68.5543 225.141 60.2758C235.999 56.9087 244.591 46.7766 246.084 36.563C246.867 31.212 245.559 25.7362 241.409 21.6469C237.432 17.7296 230.963 15.2058 221.746 14.6294C219.961 9.44685 216.326 5.50172 211.604 3.09616C207.789 1.15289 203.327 0.133166 198.59 0.0122152ZM198.496 3.51417C202.784 3.62721 206.746 4.5508 210.014 6.21534C214.37 8.43472 217.507 11.8937 218.836 16.7212C218.934 17.0787 219.143 17.3957 219.433 17.6267C219.723 17.8577 220.079 17.9906 220.449 18.0064C229.778 18.3997 235.632 20.8687 238.953 24.1411C242.275 27.4135 243.279 31.5592 242.621 36.0571C241.412 44.3287 234.063 53.2946 225.129 56.5884C225.212 55.7477 225.22 54.9429 225.441 54.0396C225.508 53.7672 225.509 53.4828 225.443 53.2102C225.377 52.9375 225.247 52.6848 225.062 52.4732C222.637 49.6867 219.648 48.3333 216.594 47.9087C213.54 47.4841 210.42 47.8885 207.287 48.3774C201.022 49.3554 194.787 50.6507 189.059 47.9517C188.787 47.8237 188.488 47.7676 188.189 47.7886C187.89 47.8097 187.601 47.9072 187.35 48.0719C187.1 48.2366 186.896 48.4629 186.758 48.7292C186.62 48.9954 186.553 49.2926 186.562 49.5923C186.562 49.5923 186.669 52.9167 185.887 56.8462C185.299 59.799 184.189 62.9721 182.346 65.27C182.093 64.2209 181.869 63.1523 181.307 61.9419C180.536 60.2827 179.396 58.5707 177.66 57.3032C175.924 56.0358 173.589 55.2866 170.809 55.5005C167.766 55.7343 165.473 57.6983 164.35 60.1489C163.227 62.5995 163.054 65.5284 163.664 68.354C164.274 71.1796 165.694 73.9379 168.024 75.8931C169.993 77.5457 172.664 78.4842 175.734 78.3911C175.764 78.63 175.876 78.6323 175.781 78.9575C175.531 79.8166 174.554 81.3344 169.953 82.5005C165.82 83.547 160.064 81.762 155.166 77.3618C150.268 72.9616 146.274 66.0754 145.465 57.3618C143.964 41.226 151.754 29.1509 160.387 26.0317C160.777 25.8909 161.104 25.6161 161.311 25.2564C168.987 11.881 182.212 4.8322 194.115 3.67237C195.603 3.52739 197.067 3.47649 198.496 3.51417Z" fill="black"/>
<path fill-rule="evenodd" clip-rule="evenodd" d="M223.182 59.0922C223.112 57.4002 223.262 55.5762 223.742 53.6222C215.112 43.7072 201.022 55.5242 188.312 49.5352C188.312 49.5352 188.772 63.5622 181.252 68.6712C181.252 68.6712 180.602 56.5022 170.942 57.2452C161.272 57.9882 163.692 78.7032 177.162 76.5662C177.162 76.5662 180.222 81.7032 170.382 84.1972C160.532 86.6912 145.422 75.8382 143.722 57.5242C142.162 40.7572 150.152 27.8682 159.792 24.3852C175.742 -3.40682 214.672 -4.98983 220.522 16.2572C258.942 17.8772 244.762 53.8332 223.182 59.0922Z" fill="black"/>
<path d="M161.927 107.233C156.48 107.716 150.795 110.373 145.82 114.53C134.272 124.187 110.329 149.429 98.232 194.696C97.6889 196.705 98.2821 198.865 99.7887 200.313C99.7989 200.323 99.8092 200.333 99.8197 200.342C104.381 204.519 117.702 214.276 140.54 212.711C144.837 212.417 149.851 211.848 155.269 208.606C160.687 205.364 166.445 199.538 172.697 188.983C172.933 188.584 173.001 188.107 172.886 187.658C172.771 187.208 172.482 186.823 172.083 186.586C171.684 186.35 171.208 186.282 170.758 186.397C170.309 186.512 169.923 186.801 169.687 187.2C163.628 197.43 158.242 202.75 153.472 205.604C148.702 208.458 144.486 208.935 140.302 209.221C118.571 210.71 106.304 201.523 102.208 197.78C101.623 197.211 101.398 196.391 101.611 195.606C101.611 195.604 101.611 195.602 101.611 195.6C113.494 151.133 136.99 126.474 148.062 117.215C152.586 113.435 157.716 111.12 162.234 110.719C166.752 110.318 170.566 111.662 173.253 115.371C174.473 117.057 175.477 120.191 176.082 123.871C176.686 127.552 176.949 131.775 177.021 135.748C177.165 143.696 176.558 150.621 176.558 150.621C176.533 150.912 176.58 151.204 176.696 151.471C176.812 151.739 176.993 151.973 177.222 152.153C209.305 177.28 250.275 180.808 256.449 181.221C254.48 187.32 252.204 191.557 250.351 193.954C248.551 196.281 247.499 196.978 247.201 197.163C224.329 199.743 203.606 195.024 186.986 187.588C170.263 180.106 157.693 169.836 151.443 161.797C145.52 154.188 145.461 148.829 146.576 145.25C147.691 141.671 150.066 139.885 150.066 139.885C150.249 139.747 150.404 139.574 150.52 139.376C150.637 139.177 150.714 138.958 150.745 138.731C150.777 138.503 150.764 138.271 150.707 138.049C150.649 137.826 150.548 137.617 150.41 137.434C150.271 137.25 150.098 137.096 149.9 136.979C149.702 136.863 149.483 136.786 149.255 136.754C149.028 136.722 148.796 136.736 148.573 136.793C148.351 136.851 148.142 136.952 147.958 137.09C147.958 137.09 144.681 139.563 143.234 144.209C141.786 148.856 142.254 155.69 148.681 163.948C155.431 172.629 168.347 183.084 185.556 190.784C202.766 198.484 224.274 203.376 248.025 200.606C248.259 200.579 248.486 200.504 248.691 200.387C248.691 200.387 250.748 199.161 253.121 196.094C255.493 193.027 258.357 188.021 260.566 180.174C260.637 179.921 260.651 179.654 260.605 179.395C260.559 179.136 260.455 178.89 260.301 178.677C260.147 178.463 259.947 178.287 259.716 178.161C259.484 178.036 259.227 177.964 258.964 177.952C258.964 177.952 213.574 175.662 180.109 149.924C180.216 148.602 180.653 142.95 180.521 135.686C180.447 131.605 180.182 127.245 179.535 123.305C178.888 119.365 177.915 115.842 176.089 113.319C172.677 108.609 167.374 106.75 161.927 107.233Z" fill="black"/>
<path d="M280.176 177.051C278.922 177.045 277.583 177.21 276.133 177.479C267.921 179.006 259.094 177.961 259.094 177.961C258.865 177.934 258.634 177.951 258.412 178.013C258.191 178.074 257.984 178.179 257.803 178.321C257.622 178.463 257.47 178.639 257.357 178.839C257.244 179.04 257.172 179.26 257.144 179.489C257.089 179.95 257.219 180.414 257.505 180.779C257.791 181.144 258.211 181.38 258.672 181.436C258.672 181.436 267.844 182.58 276.771 180.92C279.401 180.432 281.184 180.443 282.484 180.928C283.784 181.414 284.858 182.389 286.082 184.526C287.079 186.274 287.198 189.176 286.205 191.249C285.212 193.322 283.527 194.71 280.01 194.186C279.551 194.118 279.083 194.235 278.711 194.511C278.338 194.787 278.09 195.2 278.021 195.659C277.953 196.118 278.07 196.585 278.346 196.958C278.622 197.331 279.035 197.579 279.494 197.647C284.257 198.356 287.832 195.955 289.361 192.762C290.891 189.569 290.796 185.726 289.123 182.792V182.79C287.667 180.247 285.933 178.479 283.711 177.649C282.6 177.234 281.431 177.057 280.178 177.051L280.176 177.051Z" fill="black"/>
<path d="M272.38 183.901C267.192 186.291 264.47 191.227 260.564 194.022C258.971 195.159 257.464 194.909 256.031 194.323C254.598 193.736 253.58 192.825 253.58 192.825C253.237 192.513 252.784 192.349 252.32 192.371C251.857 192.393 251.421 192.597 251.109 192.94C250.954 193.11 250.834 193.309 250.756 193.525C250.678 193.741 250.644 193.971 250.654 194.2C250.665 194.43 250.721 194.655 250.819 194.863C250.916 195.071 251.054 195.258 251.224 195.413C251.224 195.413 252.63 196.712 254.705 197.561C256.779 198.41 259.862 198.824 262.599 196.87C262.599 196.869 262.599 196.868 262.599 196.868C267.333 193.48 270.031 188.837 273.843 187.081C274.052 186.984 274.24 186.848 274.396 186.679C274.552 186.511 274.673 186.313 274.753 186.097C274.833 185.881 274.869 185.652 274.86 185.422C274.851 185.193 274.797 184.967 274.701 184.758C274.507 184.337 274.153 184.01 273.718 183.849C273.283 183.689 272.802 183.707 272.38 183.901Z" fill="black"/>
<path d="M284.488 176.723C283.399 176.742 282.246 176.89 281.035 177.188C280.812 177.243 280.601 177.341 280.416 177.477C280.23 177.613 280.074 177.784 279.955 177.981C279.835 178.177 279.756 178.395 279.721 178.623C279.687 178.85 279.697 179.082 279.752 179.305C279.806 179.528 279.904 179.739 280.04 179.924C280.176 180.11 280.348 180.266 280.544 180.385C280.741 180.505 280.959 180.584 281.186 180.619C281.414 180.654 281.646 180.643 281.869 180.588C285.835 179.614 288.195 180.508 289.8 182.114C291.406 183.719 292.234 186.3 292.191 188.817C292.148 191.334 291.198 193.654 289.91 194.727C288.622 195.8 287.027 196.152 284.095 194.331C283.701 194.086 283.226 194.007 282.774 194.113C282.322 194.218 281.93 194.499 281.685 194.893C281.564 195.088 281.482 195.305 281.445 195.532C281.407 195.759 281.415 195.991 281.467 196.215C281.52 196.438 281.615 196.65 281.749 196.837C281.883 197.023 282.053 197.182 282.248 197.303C286.011 199.641 289.752 199.414 292.15 197.417C294.548 195.419 295.635 192.174 295.691 188.877C295.747 185.581 294.736 182.101 292.275 179.639C290.429 177.793 287.754 176.668 284.488 176.723Z" fill="black"/>
<path d="M290.345 176.868C289.357 176.835 288.308 176.9 287.205 177.077C286.978 177.113 286.76 177.194 286.564 177.314C286.368 177.435 286.198 177.593 286.064 177.779C285.929 177.965 285.832 178.176 285.779 178.4C285.726 178.624 285.717 178.856 285.754 179.083C285.79 179.31 285.871 179.527 285.991 179.723C286.112 179.919 286.27 180.089 286.456 180.224C286.642 180.359 286.853 180.455 287.077 180.508C287.301 180.562 287.532 180.57 287.76 180.534C291.385 179.952 293.64 180.78 295.142 182.139C296.645 183.499 297.44 185.561 297.529 187.682C297.618 189.804 296.957 191.906 295.904 193.149C294.851 194.392 293.638 194.959 291.562 194.354C291.117 194.224 290.638 194.276 290.231 194.499C289.824 194.723 289.522 195.098 289.392 195.544C289.262 195.989 289.315 196.468 289.538 196.875C289.761 197.282 290.136 197.583 290.582 197.713C293.801 198.652 296.797 197.513 298.576 195.413C300.355 193.312 301.149 190.43 301.027 187.536C300.905 184.642 299.823 181.656 297.49 179.545C295.74 177.962 293.312 176.967 290.345 176.868Z" fill="black"/>
<path d="M305.451 174.028C304.068 174.601 300.847 175.506 298.096 176.204C295.345 176.901 292.996 177.43 292.996 177.43C292.544 177.533 292.15 177.811 291.903 178.203C291.655 178.595 291.574 179.07 291.676 179.522C291.778 179.975 292.056 180.368 292.448 180.616C292.84 180.864 293.315 180.946 293.768 180.844C293.768 180.844 296.154 180.306 298.955 179.596C301.757 178.886 304.906 178.043 306.793 177.26C307.222 177.082 307.562 176.741 307.739 176.312C307.916 175.884 307.916 175.402 307.738 174.973C307.56 174.545 307.219 174.204 306.79 174.027C306.362 173.85 305.88 173.85 305.451 174.028Z" fill="black"/>
<path d="M304.537 187.534C301.048 187.542 298.278 188.889 298.278 188.889C298.07 188.988 297.884 189.127 297.731 189.298C297.577 189.469 297.459 189.669 297.382 189.885C297.306 190.102 297.272 190.332 297.285 190.561C297.297 190.791 297.354 191.016 297.453 191.223C297.552 191.431 297.691 191.617 297.862 191.771C298.033 191.924 298.233 192.043 298.449 192.12C298.666 192.197 298.896 192.23 299.125 192.218C299.355 192.206 299.58 192.148 299.787 192.049C299.787 192.049 301.957 191.04 304.545 191.034C307.133 191.028 309.881 191.757 311.889 195.895C311.889 195.896 311.889 195.896 311.889 195.897C316.931 206.272 365.075 300.194 365.075 300.194C365.286 300.607 365.654 300.918 366.095 301.06C366.537 301.203 367.017 301.163 367.43 300.952C367.635 300.847 367.816 300.703 367.965 300.528C368.114 300.353 368.227 300.15 368.298 299.931C368.368 299.713 368.395 299.482 368.377 299.253C368.358 299.024 368.295 298.801 368.19 298.596C368.19 298.596 319.877 204.327 315.037 194.368V194.366C312.495 189.126 308.026 187.526 304.537 187.534Z" fill="black"/>
<path d="M320.475 207.895C320.475 207.895 314.851 208.865 308.811 213.891C302.771 218.917 296.191 228.05 293.664 244.067C288.731 275.408 285.662 298.498 285.733 315.436C285.772 323.293 284.889 330.977 288.504 339.008C291.681 346.067 298.645 353.155 311.791 360.834L281.848 361.434C281.618 361.439 281.391 361.488 281.181 361.581C280.97 361.673 280.78 361.806 280.621 361.971C280.461 362.137 280.336 362.333 280.253 362.547C280.169 362.761 280.129 362.989 280.133 363.219C280.138 363.449 280.187 363.676 280.28 363.886C280.372 364.097 280.505 364.287 280.67 364.447C280.836 364.606 281.032 364.731 281.246 364.814C281.46 364.898 281.689 364.939 281.918 364.934L318.057 364.208C318.445 364.199 318.819 364.062 319.121 363.818C319.422 363.574 319.634 363.237 319.723 362.859C319.812 362.481 319.773 362.085 319.612 361.732C319.451 361.379 319.178 361.089 318.834 360.909C302.106 352.15 294.876 344.637 291.696 337.571C288.515 330.505 289.273 323.526 289.233 315.418C289.164 298.92 292.195 275.91 297.121 244.612C299.535 229.309 305.639 221.083 311.049 216.581C316.459 212.078 321.049 211.348 321.049 211.348C321.276 211.31 321.493 211.229 321.688 211.107C321.883 210.985 322.052 210.826 322.186 210.639C322.32 210.452 322.415 210.241 322.467 210.017C322.519 209.793 322.526 209.561 322.489 209.334C322.451 209.108 322.369 208.891 322.247 208.696C322.126 208.5 321.967 208.331 321.78 208.198C321.593 208.064 321.382 207.968 321.158 207.916C320.934 207.865 320.702 207.857 320.475 207.895Z" fill="black"/>
<path fill-rule="evenodd" clip-rule="evenodd" d="M89.3569 360.831C89.3569 363.302 88.3751 365.672 86.6276 367.42C84.88 369.168 82.5098 370.149 80.0383 370.149C78.8146 370.149 77.6029 369.908 76.4723 369.44C75.3417 368.972 74.3144 368.285 73.4491 367.42C72.5838 366.555 71.8974 365.527 71.4291 364.397C70.9608 363.266 70.7197 362.055 70.7197 360.831C70.7197 359.607 70.9608 358.395 71.4291 357.265C71.8974 356.134 72.5838 355.107 73.4491 354.242C74.3144 353.376 75.3417 352.69 76.4723 352.222C77.6029 351.753 78.8146 351.512 80.0383 351.512C82.5098 351.512 84.88 352.494 86.6276 354.242C88.3751 355.989 89.3569 358.359 89.3569 360.831Z" fill="black"/>
<path d="M87.3379 281.667L3.84771 282.364C3.38391 282.368 2.94074 282.556 2.61553 282.887C2.29032 283.217 2.10969 283.664 2.11334 284.127C2.11512 284.357 2.16216 284.585 2.25176 284.796C2.34137 285.008 2.47178 285.2 2.63555 285.361C2.79933 285.522 2.99322 285.65 3.20623 285.736C3.41924 285.822 3.64719 285.866 3.87701 285.864L87.3672 285.167C87.831 285.162 88.2742 284.974 88.5994 284.644C88.9246 284.313 89.1053 283.867 89.1016 283.403C89.0998 283.173 89.0528 282.946 88.9632 282.734C88.8736 282.523 88.7432 282.331 88.5794 282.169C88.4156 282.008 88.2217 281.881 88.0087 281.795C87.7957 281.708 87.5678 281.665 87.3379 281.667Z" fill="black"/>
<path d="M37.7538 225.479C34.456 225.497 30.4336 225.57 26.4472 225.676C22.4608 225.783 18.5144 225.922 15.3632 226.075C12.2121 226.227 10.0996 226.329 8.88858 226.579C7.31518 226.902 5.19809 227.299 3.48819 229.04C1.77769 230.781 0.729751 233.577 0.435451 238.118C0.147651 242.557 0.0131573 251.588 0.0018573 260.059C-0.0081427 264.294 0.0228602 268.378 0.0798602 271.651C0.13786 274.924 0.206351 277.274 0.355251 278.481C0.407374 278.906 0.613423 279.297 0.934474 279.58C1.25553 279.864 1.6693 280.019 2.09744 280.018L54.6873 279.866L67.0271 279.831C67.4909 279.829 67.9352 279.643 68.2622 279.314C68.5893 278.986 68.7723 278.54 68.7713 278.077C68.7708 277.847 68.725 277.619 68.6366 277.407C68.5482 277.195 68.4189 277.002 68.256 276.84C68.0931 276.678 67.8999 276.55 67.6874 276.462C67.4749 276.375 67.2472 276.33 67.0174 276.331L56.5584 276.36C56.6144 274.81 56.8983 267.104 57.1541 257.336C57.2943 251.985 57.4112 246.494 57.447 242.047C57.483 237.601 57.4991 234.467 57.2284 232.836C57.2284 232.835 57.2284 232.834 57.2284 232.832C56.7503 229.99 54.6811 228.109 52.365 227.16C50.0488 226.212 47.3991 225.904 44.822 225.623C43.5151 225.481 41.0517 225.461 37.7538 225.479ZM37.7738 228.979C41.0353 228.961 43.6655 229.017 44.4436 229.102C46.9765 229.378 49.3855 229.722 51.0393 230.399C52.6914 231.075 53.5029 231.796 53.7757 233.409C53.8747 234.007 53.983 237.612 53.9475 242.02C53.9125 246.428 53.7963 251.905 53.6565 257.245C53.3994 267.062 53.1093 274.926 53.0569 276.372L3.76992 276.514C3.69992 275.367 3.62192 274.058 3.57852 271.588C3.52152 268.348 3.49647 264.281 3.50247 260.063C3.51347 251.628 3.65595 242.544 3.92825 238.344C4.19385 234.246 5.09734 232.398 5.98684 231.493C6.87634 230.587 8.00982 230.333 9.59622 230.006C9.88022 229.948 12.4186 229.721 15.5318 229.571C18.645 229.42 22.5753 229.28 26.5415 229.174C30.5076 229.069 34.5122 228.996 37.7738 228.979Z" fill="black"/>
<path d="M55.5801 236.295C37.6554 237.549 19.8747 237.781 2.09571 237.846C1.63159 237.848 1.18708 238.034 0.859995 238.363C0.532914 238.692 0.350016 239.138 0.351572 239.602C0.35234 239.832 0.398415 240.06 0.487192 240.272C0.57597 240.484 0.705654 240.676 0.868906 240.838C1.03216 241 1.22577 241.129 1.43861 241.216C1.65145 241.303 1.87941 241.347 2.10938 241.346C19.9104 241.281 37.7689 241.048 55.8242 239.786C56.287 239.753 56.7179 239.538 57.0222 239.188C57.3266 238.838 57.4795 238.381 57.4473 237.918C57.4147 237.456 57.1998 237.025 56.8496 236.72C56.4995 236.416 56.0429 236.263 55.5801 236.295Z" fill="black"/>
<path d="M58.8141 282.032C58.8141 282.032 46.2299 287.217 34.0465 297.858C21.8631 308.499 9.90181 324.824 11.5172 346.877C11.5479 347.284 11.7196 347.667 12.0027 347.961C12.2857 348.254 12.6624 348.439 13.0676 348.485C13.4728 348.53 13.8812 348.433 14.2222 348.209C14.5631 347.986 14.8153 347.65 14.9352 347.26C14.9352 347.26 18.5299 335.533 27.8336 323.752C37.1373 311.972 51.944 300.286 74.6989 300.196C86.3338 300.15 100.28 302.359 112.195 309.149C124.11 315.939 134.062 327.207 138.041 345.78C139.646 353.283 139.977 358.724 141.279 363.457C142.581 368.191 145.048 372.156 150.416 375.815C152.995 377.574 155.443 379.112 159.617 380.206C163.791 381.299 169.664 382.005 179.533 382.436C199.271 383.298 235.052 383.032 304.816 382.034C305.046 382.031 305.273 381.982 305.484 381.891C305.696 381.8 305.887 381.669 306.047 381.504C306.208 381.339 306.334 381.144 306.419 380.93C306.504 380.717 306.546 380.488 306.543 380.258C306.539 380.028 306.491 379.802 306.4 379.59C306.309 379.379 306.177 379.188 306.012 379.028C305.847 378.868 305.652 378.742 305.439 378.657C305.225 378.572 304.997 378.53 304.767 378.534C235.011 379.532 199.207 379.791 179.685 378.938C169.924 378.512 164.249 377.8 160.504 376.819C156.759 375.838 154.918 374.647 152.388 372.922C147.536 369.614 145.807 366.722 144.654 362.53C143.501 358.337 143.118 352.784 141.463 345.047C137.292 325.578 126.575 313.315 113.927 306.108C101.28 298.901 86.7702 296.648 74.6852 296.696C50.73 296.791 34.8213 309.257 25.0875 321.582C20.5535 327.324 17.426 332.955 15.2594 337.452C17.0484 321.395 26.4533 309.136 36.3492 300.493C48.0584 290.266 60.15 285.266 60.15 285.266C60.5789 285.089 60.9198 284.749 61.0978 284.32C61.2758 283.892 61.2763 283.41 61.0992 282.981C60.922 282.552 60.5817 282.211 60.1532 282.033C59.7247 281.855 59.243 281.855 58.8141 282.032Z" fill="black"/>
<path d="M113.376 305.803C113.183 305.679 112.967 305.594 112.74 305.554C112.514 305.513 112.282 305.518 112.058 305.567C111.833 305.616 111.62 305.709 111.432 305.84C111.243 305.972 111.082 306.139 110.958 306.333L80.2376 354.295C80.1136 354.489 80.0289 354.705 79.9884 354.931C79.9478 355.157 79.9523 355.389 80.0014 355.614C80.0506 355.839 80.1434 356.051 80.2747 356.24C80.4061 356.428 80.5734 356.589 80.7669 356.713C80.9606 356.837 81.1767 356.922 81.403 356.962C81.6294 357.003 81.8615 356.998 82.086 356.949C82.3106 356.899 82.5232 356.806 82.7117 356.675C82.9003 356.543 83.0611 356.376 83.1849 356.182L113.906 308.221C114.03 308.028 114.114 307.812 114.155 307.585C114.195 307.359 114.191 307.127 114.142 306.903C114.093 306.678 114 306.465 113.868 306.277C113.737 306.088 113.57 305.927 113.376 305.803Z" fill="black"/>
<path d="M83.2324 360.241C83.0026 360.239 82.7749 360.283 82.562 360.37C82.3492 360.457 82.1556 360.585 81.9922 360.746C81.8288 360.908 81.6988 361.1 81.6096 361.312C81.5205 361.524 81.474 361.751 81.4727 361.981C81.4714 362.211 81.5154 362.439 81.6022 362.651C81.689 362.864 81.8167 363.058 81.9783 363.221C82.1399 363.385 82.3321 363.515 82.544 363.604C82.7558 363.693 82.9831 363.739 83.2129 363.741L142.783 364.071C143.013 364.072 143.241 364.028 143.454 363.941C143.666 363.855 143.86 363.727 144.023 363.565C144.187 363.404 144.317 363.211 144.406 363C144.495 362.788 144.542 362.56 144.543 362.331C144.544 362.101 144.5 361.873 144.413 361.66C144.327 361.447 144.199 361.254 144.037 361.09C143.876 360.927 143.684 360.797 143.472 360.708C143.26 360.619 143.033 360.572 142.803 360.571L83.2324 360.241Z" fill="black"/>
<path d="M68.4787 168.805C64.3093 168.827 60.0193 169.674 55.7228 170.846C45.8417 173.539 37.5948 183.601 33.9923 188.479C33.9923 188.481 33.9923 188.483 33.9923 188.485C32.3053 190.737 32.226 193.815 33.7638 196.155C33.7697 196.163 33.7757 196.172 33.7818 196.18C36.4386 200.076 40.3553 202.986 44.2544 204.999C48.1536 207.011 51.995 208.139 54.8913 208.282C57.6648 208.418 62.7239 208.821 67.4712 208.63C69.8449 208.534 72.1464 208.297 74.1413 207.751C76.1361 207.204 77.9643 206.364 78.9654 204.616C81.6415 199.935 84.5552 194.741 86.4419 190.065C87.3853 187.727 88.081 185.522 88.3306 183.483C88.5802 181.445 88.3976 179.456 87.2134 177.889C83.1541 172.519 78.0408 169.857 72.6081 169.077C71.2499 168.882 69.8728 168.798 68.4831 168.805L68.4787 168.805ZM68.4957 172.311C69.7336 172.302 70.9383 172.374 72.1051 172.542C76.7723 173.212 80.855 175.288 84.4157 179.999C84.4157 179.999 84.4157 180 84.4157 180.001C84.8115 180.524 85.0403 181.513 84.8512 183.057C84.6621 184.602 84.0678 186.582 83.1911 188.754C81.4379 193.099 78.5874 198.218 75.9235 202.878C75.6746 203.312 74.7773 203.947 73.2106 204.376C71.6439 204.805 69.5484 205.044 67.3258 205.133C62.8806 205.313 57.9547 204.928 55.0582 204.786C52.9744 204.683 49.371 203.704 45.8551 201.889C42.3457 200.078 38.887 197.446 36.6832 194.223C35.9483 193.097 35.9839 191.655 36.7907 190.581C36.794 190.577 36.7974 190.573 36.8007 190.569C40.2018 185.962 48.5097 176.439 56.6425 174.223C60.776 173.096 64.7821 172.337 68.4957 172.311Z" fill="black"/>
<path fill-rule="evenodd" clip-rule="evenodd" d="M77.7522 203.19C77.6522 203.376 77.5421 203.561 77.4421 203.746C74.9421 208.112 60.6422 206.811 54.9722 206.533C49.9922 206.288 40.0822 202.32 35.2222 195.194C34.8122 194.572 34.5521 193.881 34.4521 193.175C42.7921 192.991 55.6321 193.017 61.2821 194.643C67.8921 196.539 73.1622 198.277 77.7522 203.19Z" fill="black"/>
<path d="M69.6873 168.835C69.2245 168.868 68.7938 169.083 68.49 169.434C68.49 169.434 56.8438 182.647 58.8044 198.483C58.8327 198.711 58.9056 198.932 59.019 199.131C59.1325 199.331 59.2843 199.507 59.4657 199.648C59.6471 199.79 59.8545 199.894 60.0762 199.955C60.2978 200.016 60.5294 200.033 60.7576 200.004C60.9858 199.976 61.206 199.903 61.406 199.79C61.606 199.676 61.7817 199.525 61.923 199.343C62.0643 199.162 62.1684 198.954 62.2295 198.733C62.2906 198.511 62.3075 198.279 62.2791 198.051C60.5598 184.164 71.1345 171.725 71.1345 171.725C71.438 171.375 71.59 170.918 71.557 170.455C71.5241 169.993 71.3089 169.562 70.9587 169.258C70.7851 169.108 70.5833 168.993 70.3651 168.92C70.1469 168.847 69.9167 168.818 69.6873 168.835Z" fill="black"/>
<path d="M151.4 111.202C151.176 111.155 150.943 111.152 150.718 111.195C150.492 111.237 150.276 111.324 150.084 111.45C150.084 111.45 132.79 122.753 113.977 135.622C104.57 142.056 94.7841 148.881 86.5762 154.891C78.3683 160.901 71.7941 166.022 68.5567 169.362C68.3967 169.527 68.2706 169.722 68.1859 169.935C68.1011 170.149 68.0593 170.377 68.0627 170.607C68.0661 170.837 68.1148 171.063 68.2059 171.274C68.297 171.485 68.4288 171.676 68.5937 171.836C68.7588 171.996 68.9537 172.122 69.1674 172.207C69.3811 172.291 69.6094 172.333 69.8392 172.329C70.069 172.326 70.2958 172.277 70.5067 172.186C70.7176 172.094 70.9084 171.962 71.0683 171.797C73.8809 168.896 80.4855 163.688 88.6425 157.715C96.7996 151.743 106.565 144.932 115.953 138.51C134.73 125.667 152 114.379 152 114.379C152.388 114.125 152.66 113.728 152.755 113.274C152.851 112.819 152.762 112.346 152.508 111.957C152.382 111.765 152.219 111.599 152.029 111.469C151.839 111.34 151.626 111.249 151.4 111.202Z" fill="black"/>
<path d="M29.1538 160.389C28.0068 160.224 26.7566 160.719 26.0249 161.653C24.5615 163.521 24.8815 166.317 26.8432 169.569C30.7011 175.964 37.8162 180.095 44.8569 180.76C45.319 180.804 45.7793 180.662 46.1368 180.366C46.4943 180.07 46.7196 179.644 46.7632 179.182C46.8067 178.72 46.665 178.26 46.3695 177.903C46.0739 177.545 45.6487 177.32 45.187 177.276C39.3077 176.721 33.0413 173.071 29.8393 167.762C28.3802 165.343 28.683 164.169 28.769 163.954C28.84 163.982 28.9324 163.988 29.1382 164.282C29.1382 164.282 29.1382 164.283 29.1382 164.284C31.1596 167.166 34.3645 168.728 37.8901 169.399C41.4156 170.069 45.3417 169.905 49.2397 169.28C61.1565 167.368 68.9096 172.079 68.9096 172.079C69.1065 172.197 69.3248 172.276 69.5521 172.31C69.7794 172.345 70.0112 172.334 70.2342 172.278C70.4573 172.223 70.6672 172.124 70.8522 171.988C71.0371 171.851 71.1934 171.68 71.312 171.483C71.4306 171.286 71.5091 171.068 71.5432 170.84C71.5773 170.613 71.5663 170.381 71.5108 170.158C71.4553 169.935 71.3565 169.725 71.2198 169.54C71.0832 169.355 70.9114 169.199 70.7143 169.081C70.7143 169.081 61.7481 163.727 48.685 165.823C45.0629 166.404 41.4863 166.521 38.5444 165.961C35.6024 165.402 33.374 164.225 32.0054 162.274C31.299 161.265 30.3004 160.554 29.1538 160.389Z" fill="black"/>
<path d="M101.088 187.969C92.2633 189.9 85.0605 188.131 85.0605 188.131C84.6099 188.021 84.1337 188.093 83.7367 188.334C83.3396 188.574 83.0542 188.962 82.9433 189.413C82.8325 189.863 82.9049 190.339 83.1447 190.736C83.3846 191.133 83.7723 191.418 84.2226 191.53C84.2226 191.53 92.1805 193.502 101.836 191.389C102.06 191.34 102.273 191.247 102.462 191.116C102.651 190.985 102.812 190.817 102.936 190.624C103.06 190.43 103.144 190.214 103.185 189.988C103.225 189.762 103.221 189.53 103.172 189.305C103.123 189.081 103.03 188.868 102.899 188.679C102.767 188.49 102.6 188.329 102.407 188.205C102.213 188.081 101.997 187.997 101.771 187.956C101.544 187.916 101.312 187.92 101.088 187.969Z" fill="black"/>
<path d="M156.088 203.833C155.742 204.142 155.532 204.575 155.506 205.039C155.479 205.502 155.638 205.957 155.947 206.303C158.534 209.201 163.496 211.386 170.092 213.7C176.687 216.014 184.882 218.271 193.594 220.463C211.018 224.848 230.53 228.978 243.017 232.571C255.369 236.125 262.059 241.082 265.857 247.112C269.656 253.141 270.631 260.486 270.863 269.001C270.956 272.409 269.696 278.383 267.601 285.284C265.507 292.184 262.613 300.089 259.56 307.782C253.456 323.168 246.662 337.819 244.5 341.854C244.5 341.855 244.5 341.855 244.5 341.856C243.196 344.295 243.022 346.728 243.996 348.645C244.97 350.563 246.772 351.787 248.805 352.753C252.87 354.683 258.272 355.695 262.478 356.989C266.653 358.274 268.502 359.631 269.033 360.393C269.299 360.774 269.322 360.972 269.303 361.239C269.284 361.506 269.16 361.872 268.91 362.301C268.91 362.302 268.91 362.303 268.91 362.303C268.824 362.452 268.143 362.965 266.91 363.274C265.677 363.583 264.044 363.741 262.453 363.788C259.27 363.881 256.281 363.561 256.281 363.561C256.053 363.536 255.821 363.557 255.601 363.621C255.38 363.685 255.174 363.793 254.995 363.937C254.816 364.081 254.667 364.259 254.556 364.46C254.446 364.662 254.376 364.883 254.351 365.112C254.327 365.34 254.347 365.572 254.412 365.792C254.477 366.013 254.584 366.218 254.728 366.397C254.873 366.576 255.051 366.725 255.252 366.836C255.454 366.946 255.676 367.015 255.904 367.04C255.904 367.04 259.075 367.388 262.555 367.286C264.294 367.235 266.117 367.08 267.76 366.669C269.402 366.257 271.015 365.642 271.933 364.065C272.353 363.346 272.724 362.492 272.795 361.487C272.866 360.482 272.577 359.356 271.904 358.391C270.558 356.462 268.021 355.033 263.508 353.643C259.015 352.261 253.675 351.19 250.308 349.59C248.625 348.791 247.539 347.889 247.119 347.061C246.699 346.234 246.626 345.304 247.586 343.508V343.506C249.964 339.069 256.664 324.574 262.814 309.073C265.89 301.321 268.812 293.346 270.951 286.299C273.09 279.253 274.478 273.212 274.361 268.905C274.123 260.184 273.152 252.124 268.818 245.245C264.484 238.366 256.854 232.908 243.986 229.206C231.254 225.542 211.775 221.429 194.447 217.069C185.783 214.889 177.661 212.646 171.25 210.397C164.839 208.148 160.106 205.706 158.558 203.971C158.249 203.625 157.815 203.416 157.352 203.39C156.888 203.364 156.434 203.523 156.088 203.833Z" fill="black"/>
<path d="M59.3623 278.103C69.0923 256.931 124.822 257.91 124.822 257.91C85.9223 233.381 103.482 201.119 103.482 201.119C109.322 205.575 121.422 212.267 140.422 210.966C140.912 210.932 141.412 210.896 141.902 210.852C158.102 226.121 199.342 232.046 229.052 237.488C258.752 242.931 268.862 260.415 264.892 277.991C260.932 295.567 236.042 356.019 231.392 357.18C200.792 364.832 184.442 345.452 184.982 341.824C186.042 334.817 214.892 277.658 214.892 277.658L59.3623 278.103Z" fill="black"/>
<path d="M103.118 199.409C102.871 199.461 102.638 199.566 102.436 199.717C102.234 199.868 102.067 200.06 101.946 200.282C101.946 200.282 97.3233 208.765 97.8168 220.391C98.2701 231.07 103.29 244.457 119.459 256.268C114.351 256.348 106.175 256.641 95.4672 258.338C87.8018 259.554 79.8032 261.433 72.9945 264.413C66.1858 267.393 60.4711 271.498 57.7718 277.372C57.6488 277.639 57.5951 277.933 57.6156 278.226C57.6361 278.519 57.7301 278.803 57.8892 279.05C58.0482 279.298 58.267 279.501 58.5254 279.641C58.7838 279.782 59.0734 279.855 59.3675 279.854L212.071 279.417C210.98 281.583 205.478 292.48 198.76 306.35C195.084 313.941 191.374 321.752 188.508 328.124C187.075 331.309 185.852 334.134 184.946 336.407C184.04 338.68 183.446 340.281 183.252 341.563C183.252 341.564 183.252 341.566 183.252 341.567C183.073 342.769 183.479 343.633 184.02 344.657C184.56 345.681 185.347 346.796 186.387 347.983C188.467 350.356 191.562 352.995 195.662 355.264C203.863 359.803 216.108 362.806 231.817 358.878C232.884 358.611 233.287 358.051 233.819 357.432C234.35 356.813 234.891 356.041 235.485 355.098C236.673 353.213 238.059 350.653 239.598 347.571C242.677 341.407 246.356 333.169 250.016 324.417C257.335 306.913 264.541 287.513 266.6 278.378V278.376C268.682 269.155 267.047 259.769 260.971 252.102C254.895 244.434 244.51 238.541 229.368 235.766C214.482 233.04 196.781 230.201 180.842 226.159C164.903 222.116 150.747 216.782 143.104 209.579C142.924 209.409 142.709 209.279 142.475 209.199C142.241 209.118 141.993 209.088 141.746 209.11C141.277 209.152 140.788 209.187 140.301 209.221C121.761 210.49 110.128 203.988 104.543 199.727C104.343 199.574 104.111 199.467 103.865 199.412C103.619 199.357 103.364 199.356 103.118 199.409ZM104.321 203.739C110.893 208.28 122.679 213.935 140.541 212.711C140.798 212.694 141.067 212.671 141.331 212.651C149.958 220.41 164.187 225.546 179.979 229.551C196.137 233.649 213.91 236.494 228.735 239.21C243.293 241.877 252.813 247.447 258.225 254.276C263.636 261.105 265.071 269.251 263.184 277.606C261.282 286.047 254.064 305.661 246.786 323.067C243.147 331.77 239.485 339.96 236.465 346.006C234.955 349.029 233.6 351.522 232.522 353.233C231.983 354.089 231.508 354.75 231.162 355.153C230.823 355.548 230.512 355.598 230.959 355.485C216.071 359.206 204.845 356.347 197.356 352.202C193.611 350.129 190.808 347.718 189.018 345.676C188.123 344.655 187.481 343.722 187.112 343.022C186.743 342.323 186.755 341.793 186.711 342.085C186.782 341.614 187.322 339.897 188.196 337.704C189.07 335.51 190.277 332.719 191.698 329.561C194.539 323.244 198.24 315.45 201.909 307.876C209.246 292.726 216.453 278.446 216.453 278.446C216.588 278.179 216.652 277.881 216.639 277.583C216.626 277.284 216.536 276.993 216.379 276.739C216.222 276.484 216.002 276.274 215.74 276.129C215.479 275.984 215.184 275.908 214.885 275.909L62.5259 276.344C65.0816 272.809 69.2035 269.892 74.3949 267.62C80.7722 264.829 88.5308 262.982 96.0142 261.795C110.981 259.423 124.789 259.661 124.79 259.661C125.172 259.668 125.545 259.549 125.854 259.324C126.162 259.098 126.389 258.778 126.498 258.412C126.607 258.045 126.594 257.654 126.46 257.296C126.325 256.938 126.078 256.634 125.754 256.43C106.698 244.414 101.762 230.88 101.311 220.243C100.938 211.445 103.346 205.812 104.319 203.739L104.321 203.739Z" fill="black"/>
<path fill-rule="evenodd" clip-rule="evenodd" d="M157.253 205.137C165.523 214.402 218.283 223.631 243.503 230.888C268.723 238.145 272.143 251.716 272.613 268.952C272.693 271.699 272.042 275.536 270.892 280.036C270.892 280.036 276.322 257.035 254.792 242.749C234.832 229.504 194.393 232.914 157.253 214.99C155.983 214.376 150.442 219.343 148.662 220.512C146.882 221.68 134.772 214.1 134.772 214.1L135.133 211.129C136.833 211.142 138.592 211.091 140.422 210.966C145.442 210.622 151.003 209.952 157.253 205.137Z" fill="black"/>
<path d="M134.121 276.262C133.691 276.435 133.347 276.771 133.164 277.198C133.074 277.409 133.025 277.636 133.023 277.866C133.02 278.096 133.062 278.324 133.148 278.538C133.233 278.751 133.36 278.946 133.521 279.11C133.681 279.275 133.873 279.406 134.084 279.497C155.837 288.812 167.763 313.112 172.315 335.553C174.59 346.774 175.013 357.493 173.992 365.411C173.482 369.369 172.6 372.626 171.506 374.827C170.412 377.027 169.226 378.01 168.158 378.192C167.701 378.27 167.293 378.526 167.025 378.904C166.756 379.283 166.649 379.752 166.727 380.209C166.765 380.436 166.848 380.653 166.97 380.848C167.093 381.042 167.252 381.211 167.44 381.344C167.627 381.477 167.839 381.571 168.063 381.622C168.288 381.673 168.52 381.68 168.746 381.641C171.351 381.198 173.276 379.126 174.639 376.385C176.001 373.645 176.92 370.073 177.463 365.858C178.55 357.427 178.089 346.418 175.744 334.858C171.055 311.737 158.798 286.272 135.461 276.278C135.25 276.187 135.023 276.139 134.793 276.137C134.563 276.134 134.335 276.177 134.121 276.262Z" fill="black"/>
<path d="M186.705 275.991C186.476 276.003 186.251 276.061 186.044 276.161C185.836 276.261 185.651 276.4 185.498 276.572C185.344 276.743 185.226 276.943 185.15 277.16C185.074 277.377 185.042 277.607 185.055 277.836C185.055 277.836 185.16 279.496 184.012 281.526C182.864 283.555 180.534 285.91 174.893 286.891C171.907 287.411 168.806 288.824 167.225 291.856C165.644 294.888 165.807 299.098 168.25 304.649C172.722 314.835 172.207 323.405 171.11 329.627C171.029 330.084 171.133 330.554 171.399 330.935C171.665 331.315 172.071 331.574 172.528 331.655C172.754 331.695 172.986 331.69 173.211 331.641C173.435 331.591 173.648 331.498 173.836 331.366C174.024 331.235 174.185 331.067 174.309 330.873C174.432 330.679 174.517 330.463 174.557 330.237C175.719 323.645 176.262 314.186 171.455 303.239C169.248 298.224 169.414 295.233 170.33 293.475C171.247 291.718 173.14 290.75 175.494 290.34C181.953 289.217 185.429 286.134 187.061 283.25C188.692 280.367 188.551 277.641 188.551 277.641C188.525 277.178 188.317 276.744 187.971 276.434C187.625 276.125 187.17 275.965 186.707 275.991H186.705Z" fill="black"/>
<path d="M192.217 348.838C191.785 348.667 191.303 348.675 190.877 348.859C190.451 349.043 190.116 349.389 189.945 349.821C189.945 349.821 185.111 361.349 188.642 370.854C188.958 371.704 189.536 372.128 190.097 372.473C190.659 372.818 191.284 373.082 192.01 373.329C193.46 373.822 195.308 374.232 197.498 374.596C201.878 375.325 207.607 375.847 213.687 376.11C225.849 376.635 239.183 376.233 246.115 373.875C249.505 372.724 251.669 370.246 251.916 367.483C252.163 364.72 250.359 361.994 247.265 360.729C244.453 359.579 241.806 359.251 239.478 358.692C237.151 358.133 235.158 357.412 233.168 355.551C233 355.394 232.803 355.272 232.587 355.191C232.372 355.11 232.143 355.073 231.913 355.08C231.683 355.088 231.457 355.141 231.248 355.236C231.039 355.332 230.85 355.467 230.693 355.635C230.377 355.974 230.208 356.425 230.223 356.889C230.239 357.353 230.438 357.791 230.777 358.108C233.317 360.482 236.083 361.477 238.66 362.096C241.237 362.715 243.642 363.03 245.939 363.969C247.956 364.794 248.533 366.017 248.43 367.172C248.326 368.328 247.41 369.739 244.99 370.561C239.332 372.485 225.788 373.128 213.84 372.612C207.865 372.354 202.232 371.835 198.074 371.143C195.995 370.797 194.28 370.402 193.14 370.014C192.571 369.82 192.145 369.624 191.931 369.493C191.718 369.361 191.796 369.293 191.921 369.635C189.113 362.076 193.199 351.11 193.199 351.11C193.37 350.678 193.362 350.197 193.178 349.771C192.994 349.345 192.648 349.009 192.217 348.838Z" fill="black"/>
<path d="M175.106 349.69C174.917 349.822 174.757 349.99 174.634 350.185C174.511 350.379 174.428 350.595 174.388 350.822C174.349 351.048 174.354 351.281 174.405 351.505C174.455 351.729 174.549 351.941 174.682 352.129C174.682 352.129 179.525 358.939 189.299 360.2C189.759 360.259 190.224 360.133 190.591 359.849C190.959 359.566 191.199 359.148 191.258 358.688C191.288 358.46 191.272 358.228 191.212 358.006C191.152 357.784 191.049 357.576 190.908 357.394C190.768 357.212 190.593 357.06 190.394 356.945C190.194 356.831 189.974 356.756 189.746 356.727C181.38 355.648 177.543 350.116 177.543 350.116C177.276 349.736 176.87 349.478 176.412 349.398C175.955 349.318 175.485 349.423 175.106 349.69Z" fill="black"/>
<path d="M80.0425 310.788C107.742 310.788 130.233 333.276 130.233 360.976C130.233 388.676 107.742 411.165 80.0425 411.165C52.3425 411.165 29.8525 388.676 29.8525 360.976C29.8525 333.276 52.3425 310.788 80.0425 310.788ZM78.4125 326.588C58.9525 326.588 43.1425 342.392 43.1425 361.859C43.1425 381.326 58.9525 397.13 78.4125 397.13C97.8825 397.13 113.693 381.326 113.693 361.859C113.693 342.392 97.8825 326.588 78.4125 326.588Z" fill="black"/>
<path d="M80.043 309.038C51.3959 309.038 28.1016 332.33 28.1016 360.977C28.1016 389.624 51.3958 412.915 80.043 412.915C108.69 412.915 131.982 389.624 131.982 360.977C131.982 332.33 108.69 309.038 80.043 309.038ZM80.043 312.538C106.796 312.538 128.482 334.224 128.482 360.977C128.482 387.73 106.796 409.415 80.043 409.415C53.2902 409.415 31.6016 387.73 31.6016 360.977C31.6016 334.224 53.2902 312.538 80.043 312.538ZM78.4121 324.838C58.0047 324.838 41.3926 341.445 41.3926 361.86C41.3926 382.274 58.0047 398.879 78.4121 398.879C98.8291 398.879 115.441 382.274 115.441 361.86C115.441 341.445 98.8291 324.838 78.4121 324.838ZM78.4121 328.338C96.9351 328.338 111.941 343.34 111.941 361.86C111.941 380.379 96.9351 395.379 78.4121 395.379C59.8996 395.379 44.8926 380.379 44.8926 361.86C44.8926 343.34 59.8996 328.338 78.4121 328.338Z" fill="black"/>
<path d="M388.473 309.438C416.543 309.438 439.333 332.229 439.333 360.301C439.333 388.373 416.543 411.165 388.473 411.165C360.403 411.165 337.603 388.373 337.603 360.301C337.603 332.229 360.403 309.438 388.473 309.438ZM388.473 326.419C368.853 326.419 352.922 342.348 352.922 361.969C352.922 381.589 368.853 397.518 388.473 397.518C408.093 397.518 424.022 381.589 424.022 361.969C424.022 342.348 408.093 326.419 388.473 326.419Z" fill="black"/>
<path d="M388.473 307.688C359.455 307.688 335.852 331.282 335.852 360.301C335.852 389.321 359.455 412.915 388.473 412.915C417.49 412.915 441.082 389.32 441.082 360.301C441.082 331.282 417.49 307.688 388.473 307.688ZM388.473 311.188C415.595 311.188 437.582 333.176 437.582 360.301C437.582 387.426 415.595 409.415 388.473 409.415C361.35 409.415 339.352 387.426 339.352 360.301C339.352 333.177 361.35 311.188 388.473 311.188ZM388.473 324.668C367.905 324.668 351.172 341.401 351.172 361.969C351.172 382.536 367.905 399.268 388.473 399.268C409.04 399.268 425.771 382.536 425.771 361.969C425.771 341.401 409.04 324.668 388.473 324.668ZM388.473 328.168C407.145 328.168 422.271 343.295 422.271 361.969C422.271 380.642 407.145 395.768 388.473 395.768C369.8 395.768 354.672 380.642 354.672 361.969C354.672 343.295 369.8 328.168 388.473 328.168Z" fill="black"/>
</svg>
