<svg width="600" height="500" viewBox="0 0 600 500" fill="none" xmlns="http://www.w3.org/2000/svg">
<path d="M275.858 336.334C272.139 317.132 285.932 273.275 293.294 253.747C295.747 254.908 316.283 250.908 322.869 241.359C328.139 233.72 337.088 230.719 341.467 229.358C347.279 227.551 356.966 227.809 358.774 232.197L360.711 236.713C367.04 254.908 361.529 282.566 357.611 294.911L343.146 297.492C332.194 279.736 337.808 258.091 341.984 249.489C337.541 255.476 325.065 261.79 319.383 264.199C319.124 280.071 294.844 334.785 289.548 338.269C285.312 341.056 278.657 338.14 275.858 336.334Z" fill="black"/>
<path d="M285.135 339.496L283.327 342.782M277.643 337.413L274.192 346.524L273.896 347.305C273.568 348.094 273.341 349.417 273.896 350.544C274.288 351.339 275.07 352.037 276.48 352.381C279.89 353.214 292.714 354.117 298.699 354.464C299.732 354.594 301.696 354.099 301.282 351.08C300.869 348.06 298.699 345.297 296.245 344.181C294.254 343.277 289.12 341.873 283.327 342.782L277.643 337.413ZM281.518 343.14C282.126 342.994 282.73 342.876 283.327 342.782L281.518 343.14Z" stroke="black" stroke-width="2" stroke-linecap="round"/>
<path d="M345.209 296.791C345.079 300.62 345.428 308.158 346.374 309.311C347.539 310.731 348.964 310.86 357.639 308.149C364.579 305.981 367.35 305.955 369.033 305.697C370.199 305.518 371.623 305.361 371.623 302.47C371.623 298.856 370.199 296.404 365.796 295.888C362.274 295.475 357.251 297.609 355.179 298.727V295.242" stroke="black" stroke-width="2" stroke-linecap="round"/>
<path d="M328.636 166.878C315.335 168.223 289.199 173.888 291.058 185.795C291.343 186.806 292.162 188.42 293.689 189.937C295.16 191.399 297.287 192.772 300.227 193.432" stroke="black" stroke-width="2" stroke-linecap="round"/>
<path d="M293.689 189.937C297.849 196.409 310.041 210.465 325.537 214.917" stroke="black" stroke-width="2" stroke-linecap="round"/>
<path d="M325.437 214.917C326.384 213.645 328.873 211.345 331.796 211.236" stroke="black" stroke-width="2" stroke-linecap="round"/>
<path d="M331.796 211.235C331.709 207.601 328.644 198.23 317.069 189.815" stroke="black" stroke-width="2" stroke-linecap="round"/>
<path d="M313.723 192.828C314.924 190.883 318.614 186.754 323.763 185.8" stroke="black" stroke-width="2" stroke-linecap="round"/>
<path d="M342.506 189.146C343.063 189.806 344.179 191.599 344.179 193.497" stroke="black" stroke-width="2" stroke-linecap="round"/>
<path d="M342.374 216.929C345.011 216.8 350.52 216.413 351.454 215.897C352.621 215.253 352.881 215.253 352.881 213.963C352.881 212.673 342.374 214.866 342.374 210.739C343.325 209.793 344.864 207.669 343.412 206.74C341.959 205.812 338.915 208.503 337.575 209.965C336.191 211.426 333.086 213.731 331.737 211.254" stroke="black" stroke-width="2" stroke-linecap="round"/>
<path d="M325.771 214.866C326.939 218.262 331.142 224.358 338.613 221.572C346.084 218.787 346.396 217.316 345.617 216.929" stroke="black" stroke-width="2" stroke-linecap="round"/>
<path d="M390.118 216.311C391.934 215.815 395.902 213.506 397.251 208.242C398.6 202.977 396.775 202.951 395.695 203.596" stroke="black" stroke-width="2" stroke-linecap="round"/>
<path d="M383.375 212.5C383.937 209.575 385.917 203.932 389.341 204.758" stroke="black" stroke-width="2" stroke-linecap="round"/>
<path d="M384.801 207.725C382.415 205.764 380.954 210.263 380.521 212.758C377.824 213.583 376.804 217.489 376.631 219.338C382.873 219.979 387.309 218.302 390.118 216.311C391.838 215.092 392.949 213.754 393.49 212.758C394.831 209.188 396.784 201.739 393.879 200.5C390.974 199.261 390.162 202.048 390.118 203.596C390.43 207.106 388.605 210.994 387.655 212.5" stroke="black" stroke-width="2" stroke-linecap="round"/>
<path d="M347.191 216.887C352.811 222.134 366.567 229.971 376.631 219.339" stroke="black" stroke-width="2" stroke-linecap="round"/>
<path d="M346.187 217.595C346.187 220.031 345.585 225.583 343.175 228.305" stroke="black" stroke-width="2" stroke-linecap="round"/>
<path d="M293.642 223.285C288.338 230.444 280.913 246.624 293.642 254.076" stroke="black" stroke-width="2" stroke-linecap="round"/>
<path d="M452.283 192.493L455.295 187.473" stroke="black" stroke-width="2" stroke-linecap="round"/>
<path d="M453.756 195.118L459.312 194.859" stroke="black" stroke-width="2" stroke-linecap="round"/>
<path d="M452.618 198.183L455.965 202.534" stroke="black" stroke-width="2" stroke-linecap="round"/>
<path d="M343.215 355.823H252.81V400" stroke="#A0A0A0" stroke-width="2" stroke-linecap="round"/>
<path d="M406.072 311.777H332.092V365.641" stroke="#A0A0A0" stroke-width="2" stroke-linecap="round"/>
<path d="M454.961 250.032H394.949V321.981" stroke="#A0A0A0" stroke-width="2" stroke-linecap="round"/>
<path d="M444.355 203.036V260.108" stroke="#A0A0A0" stroke-width="2" stroke-linecap="round"/>
<path d="M444.355 183.122V187.975" stroke="black" stroke-width="2" stroke-linecap="round"/>
<path d="M327.124 218.109L253.033 226.631C244.462 219.765 246.536 209.515 248.644 205.248L300.147 199.074" stroke="black" stroke-width="2" stroke-linecap="round"/>
<path d="M352.552 216.051L377.98 213.608" stroke="black" stroke-width="2" stroke-linecap="round"/>
<path d="M396.568 210.907L413.219 209.749L435.549 199.627C432.865 196.777 434.337 194.238 435.456 193.33L413.219 188.142L325.188 195.473" stroke="black" stroke-width="2" stroke-linecap="round"/>
<path d="M240.666 205.354L248.213 204.542C242.979 216.269 248.979 224.247 252.809 227.351L244 228.64C236.637 219.673 238.535 209.638 240.666 205.354Z" fill="black"/>
<path d="M436.352 200.191C433.551 197.267 435.125 193.785 436.292 192.661L446.928 195.286L436.352 200.191Z" fill="black"/>
<path d="M413.46 188.142C410.682 191.669 406.792 200.891 413.46 209.562" stroke="black" stroke-width="2"/>
<path d="M349.473 169.137C351.686 167.774 368.34 169.087 371.578 148.139C377.121 148.204 380.135 143.663 375.906 141.72C371.397 139.395 371.735 135.126 372.552 132.611C373.851 129.313 373.929 125.85 373.649 125.125" stroke="black" stroke-width="2" stroke-linecap="round"/>
<path d="M366.692 140.574C367.321 140.582 367.84 139.823 367.851 138.879C367.862 137.936 367.361 137.165 366.732 137.158C366.103 137.15 365.584 137.909 365.573 138.853C365.562 139.796 366.063 140.567 366.692 140.574Z" fill="black"/>
<path d="M363.599 133.66C364.523 132.672 366.915 131.225 369.082 133.35" stroke="black" stroke-width="2" stroke-linecap="round"/>
<path d="M357.316 152.91C359.016 155.526 360.882 156.268 364.507 154.58" stroke="black" stroke-width="2" stroke-linecap="round"/>
<path d="M343.402 134.577C343.008 135.442 342.678 137.405 344.508 138.339" stroke="black" stroke-width="2" stroke-linecap="round"/>
<path d="M323.892 125.696C321.735 137.495 328.483 146.378 333.375 153.206C338.6 150.383 347.163 143.671 343.879 142.946C340.427 142.185 336.786 132.769 340.139 129.888C344.072 126.509 347.617 131.622 348.293 135.499L351.46 130.021C350.565 126.189 350.213 119.468 355.974 123.236C361.735 127.004 370.186 126.017 373.691 125.053C380.602 120.106 391.34 108.567 379.001 101.987C368.737 96.5135 355.382 103.433 347.23 109.65C341.71 108.193 326.832 109.608 323.892 125.696Z" fill="black"/>
<path d="M333.759 152.416C336.254 155.419 337.493 157.913 337.339 163.08" stroke="black" stroke-width="2" stroke-linecap="round"/>
<path d="M330.983 169.997C330.109 166.95 329.598 161.138 334.538 162.268C340.713 163.68 353.3 169.786 352.378 173.171" stroke="black" stroke-width="2" stroke-linecap="round"/>
<path d="M352.379 177.934C356.897 182.118 357.901 184.795 358.571 189.816" stroke="black" stroke-width="2" stroke-linecap="round"/>
<path d="M140.688 313.635C146.826 313.076 161.289 316.736 170.95 335.559C171.203 336.051 171.915 336.064 172.167 335.571C182.077 316.172 194.239 296.492 232.683 320.187C233.274 320.551 234.05 319.891 233.757 319.262C227.52 305.847 224.149 280.265 253.214 267.573C253.797 267.318 253.771 266.452 253.16 266.273L245.642 264.076C244.953 263.874 245.028 262.929 245.743 262.864C253.488 262.167 264.414 262.621 260.652 267.191C256.261 272.526 255.181 275.899 256.251 281.469" stroke="#A0A0A0" stroke-width="2" stroke-linecap="round"/>
</svg>
