<svg width="600" height="500" viewBox="0 0 600 500" fill="none" xmlns="http://www.w3.org/2000/svg">
<path d="M294.243 332.73C297.088 333.392 305.161 333.842 306.749 328.76" stroke="black" stroke-width="2" stroke-linecap="round"/>
<path d="M298.411 321.613C303.175 326.179 310.719 333.524 314.689 327.569L317.071 323.598" stroke="black" stroke-width="2" stroke-linecap="round"/>
<path d="M298.411 309.305C303.837 314.466 320.485 326.853 327.79 322.406C329.114 321.546 331.8 318.793 331.959 314.664" stroke="black" stroke-width="2" stroke-linecap="round"/>
<path d="M311.513 302.357C318.196 307.585 332.952 316.928 338.51 312.481C344.068 308.035 338.311 301.894 334.738 299.38L310.719 279.926" stroke="black" stroke-width="2" stroke-linecap="round"/>
<path d="M242.432 283.5C245.409 285.064 248.694 289.121 249.776 292.83C251.166 297.594 255.07 301.697 256.724 302.954" stroke="black" stroke-width="2" stroke-linecap="round"/>
<path d="M301.985 256.899C298.015 255.311 286.898 252.095 278.164 253.525C269.43 254.954 270.224 252.135 266.055 249.753L242.433 235.262" stroke="black" stroke-width="2" stroke-linecap="round"/>
<path d="M333.746 255.708L342.48 251.143M341.488 307.122C345.14 306.169 351.215 300.77 353.795 298.189L363.919 292.829" stroke="black" stroke-width="2" stroke-linecap="round"/>
<path d="M334.54 276.948C328.717 280.455 314.134 284.769 302.382 275.559" stroke="black" stroke-width="2" stroke-linecap="round"/>
<path d="M302.381 275.56C298.014 281.713 287.771 293.465 281.736 291.242C275.702 289.018 278.428 282.507 280.545 279.53C286.699 267.222 305.954 245.228 333.746 255.709" stroke="black" stroke-width="2" stroke-linecap="round"/>
<path d="M294.64 325.583C294.481 331.459 292.589 333.987 291.662 334.516C287.146 337.097 282.134 333.127 283.533 329.9C284.493 328.112 285.779 324.425 286.303 322.804C287.52 319.033 294.799 319.707 294.64 325.583Z" stroke="black" stroke-width="2" stroke-linecap="round"/>
<path d="M278.163 331.142C271.493 332.572 271.414 325.783 274.392 322.408C275.346 321.327 277.726 319.104 280.744 316.651C283.761 314.198 285.707 316.291 286.302 317.644C287.088 319.43 284.833 329.713 278.163 331.142Z" stroke="black" stroke-width="2" stroke-linecap="round"/>
<path d="M267.047 323.202C259.742 323.043 260.099 316.651 263.077 313.872C265.393 311.424 271.295 306.884 276.377 308.314C281.458 309.743 280.347 314.467 279.156 316.849C278.163 319.033 274.352 323.36 267.047 323.202Z" stroke="black" stroke-width="2" stroke-linecap="round"/>
<path d="M269.429 301.167C261.647 299.261 255.07 303.946 252.754 306.527C251.166 308.591 251.298 310.96 251.563 311.886C253.469 316.651 262.283 313.21 266.451 310.894C270.686 308.446 277.21 303.073 269.429 301.167Z" stroke="black" stroke-width="2" stroke-linecap="round"/>
<path d="M280.148 229.703C281.339 232.35 283.364 238.874 281.935 243.797" stroke="#A0A0A0" stroke-width="2" stroke-linecap="round"/>
<path d="M287.493 234.668C287.824 236.124 288.486 239.631 288.486 242.013" stroke="#A0A0A0" stroke-width="2" stroke-linecap="round"/>
<path d="M312.307 220.572L316.872 236.651" stroke="#A0A0A0" stroke-width="2" stroke-linecap="round"/>
<path d="M325.21 227.719L323.82 237.247" stroke="#A0A0A0" stroke-width="2" stroke-linecap="round"/>
<path d="M337.517 234.668L330.569 240.028" stroke="#A0A0A0" stroke-width="2" stroke-linecap="round"/>
<circle cx="200.15" cy="252.136" r="6.15375" fill="#A0A0A0"/>
<path d="M210.264 252.661C220.674 251.589 237.009 252.857 238.939 260.909C240.87 268.962 233.498 271.907 229.57 272.373C214.617 274.75 194.79 273.632 194.79 260.909" stroke="#A0A0A0" stroke-width="2" stroke-linecap="round"/>
<circle cx="206.502" cy="263.648" r="1.18359" stroke="#A0A0A0" stroke-width="2"/>
<path d="M216.626 262.465C217.473 262.465 218.009 263.075 218.009 263.648C218.009 264.222 217.473 264.832 216.626 264.832C215.779 264.832 215.244 264.222 215.244 263.648C215.244 263.075 215.779 262.465 216.626 262.465Z" stroke="#A0A0A0" stroke-width="2"/>
<circle cx="226.75" cy="263.648" r="1.18359" stroke="#A0A0A0" stroke-width="2"/>
<circle cx="372.852" cy="326.378" r="5.75673" fill="#A0A0A0"/>
<path d="M382.212 322.209C385.703 322.209 395.678 322.209 400.371 322.209C404.172 322.209 406.002 323.05 406.002 328.935C406.002 334.654 405.955 342.061 406.002 345.05C406.035 347.152 404.988 349.478 401.497 349.814C398.006 350.151 383.994 349.955 377.425 349.814C374.985 349.814 370.668 348.431 370.668 342.808L370.668 336.502" stroke="#A0A0A0" stroke-width="2" stroke-linecap="round"/>
<path d="M379.8 332.135L388.534 338.09" stroke="#A0A0A0" stroke-width="2" stroke-linecap="round"/>
<path d="M388.534 338.09L404.415 323.4" stroke="#A0A0A0" stroke-width="2" stroke-linecap="round"/>
<path d="M376.624 343.25L383.027 334.516M392.56 334.516L401.239 343.25" stroke="#A0A0A0" stroke-width="2" stroke-linecap="round"/>
<path d="M375.732 229.324L355.087 245.006C328.884 265.056 354.492 287.553 364.02 292.648L394.392 273.195" stroke="black" stroke-width="2" stroke-linecap="round"/>
<path d="M287.851 178.585C290.828 178.188 297.22 175.925 298.967 170.049" stroke="#A0A0A0" stroke-width="2" stroke-linecap="round"/>
<path d="M278.123 173.821C280.108 173.887 284.674 172.908 287.056 168.461" stroke="#A0A0A0" stroke-width="2" stroke-linecap="round"/>
<path d="M269.19 166.674C272.367 166.014 279.275 163.96 281.498 161.02" stroke="#A0A0A0" stroke-width="2" stroke-linecap="round"/>
<path d="M297.667 188.622C278.531 192.704 260.676 174.529 252.815 163.14C252.079 162.074 252.598 160.624 253.826 160.212L283.066 150.406C283.804 150.158 284.615 150.365 285.173 150.909C294.735 160.241 311.134 164.88 321.636 166.622C323.451 166.923 324.095 169.34 322.615 170.431L298.41 188.285C298.189 188.448 297.935 188.565 297.667 188.622Z" stroke="#A0A0A0" stroke-width="2" stroke-linecap="round"/>
</svg>
