<svg width="600" height="500" viewBox="0 0 600 500" fill="none" xmlns="http://www.w3.org/2000/svg">
<path d="M307.417 280.674C313.053 280.535 326.058 278.719 331.247 276.988C334.378 275.945 337.008 277.114 336.674 280.955C336.34 284.796 324.358 291.674 314.547 293.271C308.563 294.245 294.424 295.609 285.74 293.271C277.056 290.933 267.092 300.368 263.196 305.378C260.691 308.509 254.679 316.817 250.671 325" stroke="#A0A0A0" stroke-width="2" stroke-linecap="round"/>
<path d="M308.284 277.824C314.477 276.919 328.558 273.944 332.29 272.188C335.839 270.518 338.135 272.188 338.761 274.693C338.9 275.389 338.761 277.031 337.091 278.033" stroke="#A0A0A0" stroke-width="2" stroke-linecap="round"/>
<path d="M302.439 272.187C307.449 269.96 318.304 266.425 321.644 270.099" stroke="#A0A0A0" stroke-width="2" stroke-linecap="round"/>
<path d="M306.406 274.692C307.032 274.275 315.591 272.605 323.732 269.474C325.472 268.917 329.16 268.681 329.995 272.187" stroke="#A0A0A0" stroke-width="2" stroke-linecap="round"/>
<path d="M283.861 280.955C292.698 282.973 309.829 285.213 307.658 278.032C305.601 271.228 296.01 270.509 290.748 271.044C290.212 271.099 289.672 270.95 289.234 270.638C275.267 260.704 256.395 273.369 249.001 281.79C246.217 285.13 244.826 287.008 241.903 291.601" stroke="#A0A0A0" stroke-width="2" stroke-linecap="round"/>
<path d="M282.192 210.643C281.922 210.642 281.805 210.978 282.022 211.137C287.546 215.175 299.567 221.871 309.45 220.292C309.644 220.261 309.842 220.284 310.022 220.362L319.062 224.283" stroke="black" stroke-width="2" stroke-linecap="round"/>
<path d="M273.632 195.61C272.519 195.958 270.334 197.531 270.501 201.038C270.768 205.487 274.147 208.299 275.804 209.463C277.891 210.715 279.586 210.611 281.356 210.64C282.479 210.658 282.191 210.644 282.191 210.644C283.374 210.57 285.614 209.715 285.113 206.881" stroke="black" stroke-width="2" stroke-linecap="round"/>
<path d="M277.39 189.139C275.79 189.695 272.798 191.769 273.633 195.61C274.468 199.451 275.108 200.556 275.386 201.112C276.352 203.205 277.912 204.431 278.647 204.828C278.7 204.857 278.75 204.888 278.799 204.923C279.801 205.632 282.277 206.588 285.114 206.88C285.902 206.961 288.501 207.031 289.08 207.091C291.376 207.091 292.837 206.206 292.002 202.61" stroke="black" stroke-width="2" stroke-linecap="round"/>
<path d="M281.228 181.832C279.686 181.832 276.346 183.502 277.39 189.138C278.225 193.647 279.144 195.685 280.396 197.146C281.649 198.607 283.319 200.277 285.824 201.037L291.913 202.587C291.972 202.602 292.033 202.611 292.093 202.615L293.241 202.692C293.388 202.702 293.534 202.681 293.667 202.62C294.929 202.04 296.766 200.387 295.342 197.697" stroke="black" stroke-width="2" stroke-linecap="round"/>
<path d="M332.213 199.86L325.267 196.475C324.961 196.326 324.754 196.033 324.702 195.696C323.933 190.78 320.043 181.371 309.746 179.118C299.058 176.78 291.376 175.5 288.871 175.152C286.158 174.665 280.814 175.069 281.148 180.58C281.174 181.011 281.201 181.428 281.229 181.832C281.558 186.596 282.693 188.17 284.154 190.391C286.494 193.838 288.911 195.327 289.999 195.893C292.002 196.937 297.43 199.367 297.847 194.148V192.043" stroke="black" stroke-width="2" stroke-linecap="round"/>
<path d="M309.746 179.118C306.823 179.326 297.263 180.829 292.42 181.831C287.577 182.833 288.732 187.12 289.915 189.138C292.103 192.238 299.924 192.045 302.652 190.926C303.163 190.716 303.839 190.667 304.283 190.995C309.155 194.592 310.812 194.147 317.553 194.147" stroke="black" stroke-width="2" stroke-linecap="round"/>
<path d="M295.427 201.112L295.343 227.13" stroke="black" stroke-width="2" stroke-linecap="round"/>
<rect x="290.915" y="228.339" width="8.85481" height="4.67989" rx="2.33994" stroke="black" stroke-width="2"/>
<path d="M295.343 233.601L295.343 248.631" stroke="black" stroke-width="2" stroke-linecap="round"/>
<path d="M342.656 237.453L318.859 224.093C315.797 218.596 313.557 206.517 327.417 201.34C340.145 196.586 352.252 202.574 358.097 205.914" stroke="black" stroke-width="2" stroke-linecap="round"/>
<path d="M289.707 241.381H293.343C294.447 241.381 295.343 242.276 295.343 243.381V245.643C295.343 246.748 294.447 247.643 293.343 247.643H291.481C290.847 247.643 290.333 247.129 290.333 246.495V246.182C290.333 245.721 290.707 245.347 291.168 245.347H291.272C291.676 245.347 292.003 245.02 292.003 244.616C292.003 244.213 291.676 243.886 291.272 243.886H289.707C289.015 243.886 288.454 243.325 288.454 242.633C288.454 241.942 289.015 241.381 289.707 241.381Z" fill="black"/>
</svg>
