<svg width="600" height="500" viewBox="0 0 600 500" fill="none" xmlns="http://www.w3.org/2000/svg">
<path d="M145.996 391.981C142.757 389.108 157.149 389.321 164.252 389.188C165.274 390.624 166.027 390.651 167.874 390.983C168.727 393.177 149.235 394.853 145.996 391.981Z" fill="#A0A0A0"/>
<path d="M256.741 174.879C256.083 177.262 255.592 185.008 258.178 191.364" stroke="black" stroke-width="2" stroke-linecap="round"/>
<path d="M281.849 134.058C287.879 138.805 297.239 149.053 288.142 153.222C287.608 153.466 287.314 154.057 287.466 154.621C289.256 161.249 288.973 174.935 275.088 184.203C274.881 184.341 274.722 184.546 274.647 184.781L271.916 193.326" stroke="black" stroke-width="2" stroke-linecap="round"/>
<path d="M275.88 168.991C275.666 169.933 276.222 171.88 280.158 172.131" stroke="black" stroke-width="2" stroke-linecap="round"/>
<path d="M254.646 192.922C260.784 190.722 272.473 188.03 272.473 195.639V196.96C272.473 197.852 273.492 198.357 274.196 197.811" stroke="#A0A0A0" stroke-width="2" stroke-linecap="round"/>
<path d="M274.196 197.81C284.051 190.175 304.102 174.879 311.167 163.3" stroke="black" stroke-width="2" stroke-linecap="round"/>
<path d="M286.439 144.263C286.439 146.327 285.814 148.142 284.871 149.41C283.927 150.678 282.732 151.328 281.532 151.328C280.332 151.328 279.137 150.678 278.194 149.41C277.25 148.142 276.626 146.327 276.626 144.263C276.626 142.199 277.25 140.384 278.194 139.116C279.137 137.848 280.332 137.198 281.532 137.198C282.732 137.198 283.927 137.848 284.871 139.116C285.814 140.384 286.439 142.199 286.439 144.263Z" stroke="black" stroke-width="2" stroke-linecap="round"/>
<path d="M263.673 150.543L275.841 146.225" stroke="black" stroke-width="2" stroke-linecap="round"/>
<path d="M273.094 142.3C273.404 140.992 274.544 137.982 276.626 136.413" stroke="black" stroke-width="2" stroke-linecap="round"/>
<path d="M282.121 145.44C282.988 145.44 283.691 144.913 283.691 144.263C283.691 143.612 282.988 143.085 282.121 143.085C281.254 143.085 280.551 143.612 280.551 144.263C280.551 144.913 281.254 145.44 282.121 145.44Z" fill="black"/>
<path d="M288.1 223.861C295.985 219.309 314.778 201.844 326.867 168.402" stroke="black" stroke-width="2" stroke-linecap="round"/>
<path d="M276.782 274.183C276.059 266.467 275.481 249.44 278.951 243.06C282.421 236.68 285.754 227.553 288.099 223.861" stroke="#A0A0A0" stroke-width="2" stroke-linecap="round"/>
<path d="M254.646 192.542L209.508 245.53" stroke="#A0A0A0" stroke-width="2" stroke-linecap="round"/>
<path d="M209.508 245.693C212.854 245.241 221.554 245.46 229.585 249.956C239.623 255.577 250.252 265.462 276.627 274.183" stroke="#A0A0A0" stroke-width="2" stroke-linecap="round"/>
<path d="M276.625 274.183L267.598 280.463" stroke="#A0A0A0" stroke-width="2" stroke-linecap="round"/>
<path d="M209.512 245.53C208.9 247.425 208.293 251.846 213.432 257.305" stroke="#A0A0A0" stroke-width="2" stroke-linecap="round"/>
<path d="M242.478 207.064C235.173 213.149 216.651 225.985 200.999 228.655C197.347 230.159 191.06 234.385 195.129 239.253C199.199 244.121 201.912 250.048 202.76 252.403C203.412 254.563 205.036 257.573 208.949 250.664" stroke="#A0A0A0" stroke-width="2" stroke-linecap="round"/>
<path d="M196.555 241.212C193.522 243.001 186.451 246.417 182.425 245.781C178.399 245.146 175.715 246.841 174.876 247.768C174.424 248.497 174.14 249.993 176.618 250.152C179.095 250.311 182.038 250.218 183.199 250.152" stroke="#A0A0A0" stroke-width="2" stroke-linecap="round"/>
<path d="M186.35 247.493C184.992 249.014 180.374 252.473 172.768 254.134C171.28 254.41 169.275 256.001 171.992 257.869C174.32 259.322 180.762 257.994 184.021 256.001" stroke="#A0A0A0" stroke-width="2" stroke-linecap="round"/>
<path d="M183.986 255.735C181.491 256.991 177.001 260.335 178.996 263.665C179.636 264.326 182.335 264.378 188.015 259.303L192.237 255.735" stroke="#A0A0A0" stroke-width="2" stroke-linecap="round"/>
<path d="M192.449 255.811L188.138 259.411C186.897 262.679 185.003 270.613 190.097 266.213C193.82 262.412 193.036 259.172 194.604 258.211C196.171 257.251 199.698 253.544 201.265 251.81" stroke="#A0A0A0" stroke-width="2" stroke-linecap="round"/>
<path d="M192.632 249.455C192.11 251.071 191.693 254.825 194.199 256.913" stroke="#A0A0A0" stroke-width="2" stroke-linecap="round"/>
<path d="M240.123 381.731C242.592 381.077 247.569 377.767 247.725 369.759C247.881 361.752 251.169 347.975 252.793 342.087L268.776 271.436" stroke="#A0A0A0" stroke-width="2" stroke-linecap="round"/>
<path d="M274.664 157.608C275.097 157.608 275.449 157.345 275.449 157.019C275.449 156.694 275.097 156.431 274.664 156.431C274.23 156.431 273.879 156.694 273.879 157.019C273.879 157.345 274.23 157.608 274.664 157.608Z" fill="black"/>
<path d="M277.215 159.963C277.54 159.963 277.804 159.788 277.804 159.571C277.804 159.354 277.54 159.178 277.215 159.178C276.89 159.178 276.626 159.354 276.626 159.571C276.626 159.788 276.89 159.963 277.215 159.963Z" fill="black"/>
<path d="M271.523 161.533C271.74 161.533 271.916 161.182 271.916 160.748C271.916 160.315 271.74 159.963 271.523 159.963C271.307 159.963 271.131 160.315 271.131 160.748C271.131 161.182 271.307 161.533 271.523 161.533Z" fill="black"/>
<path d="M213.529 151.984C223.068 134.254 237.311 132.024 243.241 133.126C255.555 114.268 272.562 108.047 282.922 113.685C291.21 118.195 284.42 129.562 279.99 134.681L275.689 128.46C272.718 134.215 264.222 132.089 260.051 130.793C263.635 138.31 269.356 157.739 257.315 175.313C245.274 192.888 230.144 193.199 222.52 188.144C215.483 183.155 203.99 169.714 213.529 151.984Z" fill="black"/>
<path d="M208.722 384.086C210.023 386.122 214.356 389.966 221.282 389.049" stroke="#A0A0A0" stroke-width="2" stroke-linecap="round"/>
<path d="M219.631 246.708C217.175 253.733 205.669 268.173 195.391 286.322C188.539 297.706 172.198 323.126 161.649 333.742C160.227 335.758 158.895 340.338 164.946 342.523C169.6 344.475 171.694 349.002 172.315 353.842C173.09 359.891 182.98 364.379 189.574 359.891C194.829 356.313 209.94 330.545 221.356 315.984C224.262 312.276 226.93 309.295 229.133 307.593" stroke="#A0A0A0" stroke-width="2" stroke-linecap="round"/>
<path d="M221.637 316.182L208.722 384.086C215.286 382.334 233.319 379.027 244.44 379.027" stroke="#A0A0A0" stroke-width="2" stroke-linecap="round"/>
<path d="M157.355 378.474C146.657 357.736 156.574 343.935 161.938 340.518C170.253 343.133 170.477 351.851 171.826 355.992L168.714 364.513C166.631 368.178 167.846 375.348 168.714 378.474C172.311 392.959 166.882 394.351 164.218 390.472L157.355 378.474Z" fill="black"/>
<path d="M214.398 397.491C210.794 394.637 217.922 393.53 225.154 393.113C227.674 395.366 244.409 396.135 245.226 396.657C237.527 399.159 217.556 399.991 214.398 397.491Z" fill="#A0A0A0"/>
<path d="M250.596 396.269C223.272 400.015 217.602 389.208 218.182 382.89C222.881 380.928 235.802 380.214 241.894 379.768C240.153 383.871 242.329 383.336 243.852 384.451C245.81 385.789 251.248 387.424 254.294 387.572C267.999 388.242 257.267 395.303 250.596 396.269Z" fill="black"/>
<path d="M314.96 128.749C316.212 128.03 318.793 127.768 319.107 132.478" stroke="black" stroke-width="2" stroke-linecap="round"/>
<path d="M312.434 141.31C312.565 139.478 312.434 135.304 310.864 133.263C308.902 130.712 308.509 125.806 312.434 126.198C313.68 126.323 314.473 127.358 314.96 128.75C315.7 130.865 315.732 133.803 315.574 135.618" stroke="black" stroke-width="2" stroke-linecap="round"/>
<path d="M309.967 146.412C309.808 144.646 309.137 140.564 307.724 138.366C305.958 135.618 305.762 128.553 309.491 129.338" stroke="black" stroke-width="2" stroke-linecap="round"/>
<path d="M312.435 159.758C311.453 159.758 309.373 158.816 308.902 155.048C308.431 151.28 306.743 148.899 305.958 148.179C305.5 147.067 305.016 144.764 306.743 144.45C307.76 144.265 308.963 145.251 309.967 146.412L311.65 148.768" stroke="black" stroke-width="2" stroke-linecap="round"/>
<path d="M321.462 142.291C321.92 141.441 322.364 139.269 320.48 137.385C318.125 135.03 318.714 132.871 320.088 132.282C321.462 131.693 323.424 132.086 325.387 137.973C327.349 143.076 330.254 156.029 326.957 167.019" stroke="black" stroke-width="2" stroke-linecap="round"/>
<path d="M330.428 111.582L333.507 105.984" stroke="black" stroke-width="2" stroke-linecap="round"/>
<path d="M303.799 114.227L309.294 117.759" stroke="black" stroke-width="2" stroke-linecap="round"/>
<path d="M313.77 100L319.145 112.36" stroke="black" stroke-width="2" stroke-linecap="round"/>
<path d="M332.799 128.561C332.799 124.44 333.757 117.562 338.742 123.791C341.809 128.269 342.959 137.186 340.659 141.702" stroke="black" stroke-width="2" stroke-linecap="round"/>
<path d="M322.638 132.357C321.999 130.086 321.679 125.855 325.513 127.101L329.731 135.667" stroke="black" stroke-width="2" stroke-linecap="round"/>
<path d="M329.731 135.667L325.513 127.101C325.194 124.57 326.855 120.482 330.881 123.792L332.798 128.561L334.715 133.331" stroke="black" stroke-width="2" stroke-linecap="round"/>
<path d="M334.808 147.786C333.761 150.076 332.649 155.283 336.574 157.795" stroke="black" stroke-width="2" stroke-linecap="round"/>
<path d="M339.714 144.45C340.63 141.833 343.403 136.639 347.172 136.796C350.94 136.953 347.957 141.898 347.172 143.665L341.676 154.459C340.499 157.403 338.733 162.701 342.854 168.785C346.975 174.28 361.187 188.411 376.495 190.766" stroke="black" stroke-width="2" stroke-linecap="round"/>
<path d="M373.666 272.8C374.843 276.987 379.161 286.695 387.011 292.033M361.498 265.931L377.002 270.445L361.498 265.931ZM376.217 278.295C377.918 272.735 380.103 258.945 375.236 248.268C369.152 234.923 365.423 217.849 368.367 206.466C370.722 197.36 379.292 195.999 383.282 196.457C389.562 197.178 400.396 204.7 399.768 225.11C398.983 250.623 393.095 272.408 384.656 289.286L376.217 278.295Z" stroke="#A0A0A0" stroke-width="2" stroke-linecap="round"/>
<path d="M369.937 287.519C369.937 277.51 369.872 270.445 368.76 267.698C383.832 273.35 402.123 271.884 409.384 270.445C409.581 270.903 411.19 275.273 416.057 289.089C422.141 306.36 417.823 364.058 416.057 370.535C414.291 377.011 409.581 377.208 402.712 376.422C397.217 375.794 389.955 360.722 387.011 353.264C373.274 327.555 369.937 299.263 369.937 287.519Z" fill="black"/>
<path d="M423.228 235.329C425.174 240.105 429.578 252.246 431.619 262.609C425.993 266.599 410.169 274.174 391.329 271.819L361.498 265.931C360.321 256.053 360.182 230.894 368.033 208.442C368.033 206.415 370.094 200.735 374.647 198.223" stroke="#A0A0A0" stroke-width="2" stroke-linecap="round"/>
<path d="M421.552 252.39C421.468 251.13 423.794 241.962 423.228 235.329C422.912 231.631 422.509 227.016 422.003 221.395C420.59 205.695 415.003 193.658 412.386 189.602C409.769 185.546 403.578 183.112 398.672 184.878" stroke="#A0A0A0" stroke-width="2" stroke-linecap="round"/>
<path d="M417.784 357.564C419.476 320.755 411.973 285.975 407.813 272.407C418.303 270.992 426.566 266.457 429.598 264.95C432.643 276.433 437.1 305.915 438.933 319.418C443.501 334.204 442.528 355.467 441.471 364.25C442.147 369.598 437.805 371.722 435.549 372.115C423.537 376.048 418.7 364.053 417.784 357.564Z" fill="black"/>
<path d="M322.247 131.693C325.583 137.058 330.529 150.063 326.761 168.589C327.088 172.58 332.912 185.775 337.359 191.747C344.228 200.971 358.554 211.373 367.386 214.316" stroke="black" stroke-width="2" stroke-linecap="round"/>
<path d="M383.139 187.71C380.542 186.112 361.012 187.652 357.215 163.084C350.713 163.161 347.179 157.835 352.139 155.557C357.427 152.83 357.03 147.824 356.072 144.874C354.549 141.006 354.457 136.944 354.785 136.095" stroke="black" stroke-width="2" stroke-linecap="round"/>
<path d="M362.607 154.254C361.678 154.265 360.912 153.144 360.896 151.751C360.88 150.358 361.619 149.22 362.548 149.209C363.477 149.198 364.243 150.319 364.259 151.712C364.275 153.105 363.536 154.243 362.607 154.254Z" fill="black"/>
<path d="M366.571 146.104C365.486 144.945 362.681 143.249 360.14 145.74" stroke="black" stroke-width="2" stroke-linecap="round"/>
<path d="M373.939 168.68C371.945 171.747 369.757 172.618 365.506 170.639" stroke="black" stroke-width="2" stroke-linecap="round"/>
<path d="M390.257 147.179C390.719 148.193 391.106 150.496 388.959 151.592" stroke="black" stroke-width="2" stroke-linecap="round"/>
<path d="M413.139 136.764C415.668 150.602 407.754 161.019 402.017 169.027C395.889 165.717 385.847 157.844 389.698 156.995C393.747 156.102 398.017 145.059 394.085 141.681C389.472 137.718 385.315 143.715 384.522 148.261L380.807 141.837C381.858 137.343 382.27 129.461 375.514 133.88C368.757 138.298 358.847 137.141 354.736 136.01C346.631 130.208 334.038 116.676 348.509 108.959C360.546 102.54 376.208 110.655 385.768 117.947C392.242 116.238 409.69 117.897 413.139 136.764Z" fill="black"/>
<path d="M401.566 168.1C398.64 171.622 397.187 174.547 397.368 180.607" stroke="black" stroke-width="2" stroke-linecap="round"/>
<path d="M419.735 399.872C395.399 400.853 383.82 395.971 383.82 392.611C383.82 391.237 383.035 389.863 388.53 387.901C386.175 391.106 387.039 397.203 409.333 395.947C412.931 396.143 421.03 395.201 424.641 389.863H426.407C444.07 385.349 454.472 389.055 454.472 392.414C454.472 395.775 439.949 399.057 419.735 399.872Z" fill="#A0A0A0"/>
<path d="M424.295 389.777C437.44 391.033 439.098 380.488 438.284 375.058" stroke="#A0A0A0" stroke-width="2" stroke-linecap="round"/>
<path d="M406.883 380.161C406.883 381.011 406.687 382.869 405.902 383.497C404.92 384.282 387.258 382.319 387.65 391.151C387.454 392.394 389.416 394.291 394.126 394.88C400.751 395.708 419.741 398.125 424.295 389.777C424.56 389.291 424.776 388.768 424.938 388.207L426.705 380.749" stroke="#A0A0A0" stroke-width="2" stroke-linecap="round"/>
</svg>
