<svg width="600" height="500" viewBox="0 0 600 500" fill="none" xmlns="http://www.w3.org/2000/svg">
<path d="M334.354 215.017H317.428L316.63 222.549H334.833L334.354 215.017Z" fill="black"/>
<path d="M335.841 229.139H315.997L315.061 237.299H336.402L335.841 229.139Z" fill="black"/>
<path d="M337.014 244.204H314.251L313.178 252.991H337.658L337.014 244.204Z" fill="black"/>
<path d="M338.317 260.209H311.912L310.667 269.311H334.005L338.913 266.8L338.317 260.209Z" fill="black"/>
<path d="M309.098 282.65L318.199 208.738M334.206 208.738L338.913 266.016" stroke="black" stroke-width="2" stroke-linecap="round"/>
<path d="M315.218 208.738H337.972" stroke="black" stroke-width="2" stroke-linecap="round"/>
<path d="M315.218 194.616H337.972" stroke="black" stroke-width="2" stroke-linecap="round"/>
<path d="M318.514 198.068V204.031" stroke="black" stroke-width="2" stroke-linecap="round"/>
<path d="M333.892 198.068V204.031" stroke="black" stroke-width="2" stroke-linecap="round"/>
<circle cx="326.673" cy="200.893" r="2.82464" fill="black"/>
<rect x="323.849" y="189.279" width="5.64927" height="2.82464" rx="1.41232" fill="black"/>
<path d="M301.408 193.517L240.521 175" stroke="black" stroke-width="2" stroke-linecap="round"/>
<path d="M298.741 202.147L186.54 197.597" stroke="black" stroke-width="2" stroke-linecap="round"/>
<path d="M297.172 208.268L180.42 244.047" stroke="black" stroke-width="2" stroke-linecap="round"/>
<path d="M303.292 217.527L210.863 283.436" stroke="black" stroke-width="2" stroke-linecap="round"/>
<path d="M242.562 308.765C248.391 306.985 291.863 294.912 307.391 284.246" stroke="#A0A0A0" stroke-width="2" stroke-linecap="round"/>
<path d="M283.825 307.15C291.474 294.882 300.917 286.689 319.826 276.891C343.462 264.642 348.862 262.492 358.972 247.385" stroke="#A0A0A0" stroke-width="2" stroke-linecap="round"/>
<path d="M358.972 247.384C361.099 251.587 366.51 262.331 370.457 268.08M366.203 265.907C370.204 267.454 378.66 272.542 380.479 280.521C382.298 288.5 389.658 294.227 392.631 297.638" stroke="#A0A0A0" stroke-width="2" stroke-linecap="round"/>
<path d="M367.262 279.878C370.107 284.27 375.434 289.873 392.218 296.852" stroke="#A0A0A0" stroke-width="2" stroke-linecap="round"/>
<path d="M414.262 322.124C409.306 316.066 397.799 302.415 391.412 296.272" stroke="#A0A0A0" stroke-width="2" stroke-linecap="round"/>
<path d="M358.972 247.384C357.521 253.25 354.974 266.447 358.606 273.895" stroke="#A0A0A0" stroke-width="2" stroke-linecap="round"/>
<path d="M356.401 268.278C353.215 269.974 349.154 276.189 358.716 289.379" stroke="#A0A0A0" stroke-width="2" stroke-linecap="round"/>
<path d="M349.038 291.954C351.61 292.221 357.127 292.14 358.622 289.679" stroke="#A0A0A0" stroke-width="2" stroke-linecap="round"/>
<path d="M352.509 316.702L349.039 291.954" stroke="#A0A0A0" stroke-width="2" stroke-linecap="round"/>
</svg>
