<svg width="600" height="500" viewBox="0 0 600 500" fill="none" xmlns="http://www.w3.org/2000/svg">
<path d="M259.918 258.725C261.368 258.725 262.818 259.015 264.075 259.738C279.664 268.699 283.869 293.355 282.328 308.768C281.686 320.957 273.026 323.203 265.327 323.203H239.343C223.625 322.561 222.556 312.725 222.342 308.768C219.482 279.222 232.442 264.35 240.729 259.635C241.902 258.968 243.247 258.725 244.596 258.725H259.918ZM252.178 276.717C250.245 276.717 248.678 278.284 248.678 280.217V280.299C248.126 280.511 247.581 280.788 247.059 281.147C245.3 282.355 244.194 284.217 243.829 286.51C243.551 288.255 243.871 289.867 244.656 291.252C245.398 292.561 246.456 293.497 247.414 294.167C248.376 294.839 249.411 295.363 250.277 295.773C251.285 296.249 251.849 296.479 252.52 296.817C253.084 297.1 253.373 297.378 253.511 297.554C253.644 297.724 253.664 297.83 253.668 297.859C253.671 297.883 253.686 298.006 253.474 298.167C252.975 298.543 252.379 298.775 251.705 298.867C250.68 299.006 249.581 298.804 248.74 298.419C246.982 297.616 244.906 298.39 244.103 300.148C243.299 301.906 244.073 303.982 245.831 304.786C246.704 305.185 247.677 305.496 248.707 305.69C248.928 307.41 250.397 308.739 252.178 308.739C254.111 308.739 255.678 307.172 255.678 305.239V304.942C256.368 304.632 257.044 304.242 257.688 303.756C259.78 302.179 260.967 299.628 260.606 296.932C260.24 294.193 258.384 291.93 255.664 290.563C254.951 290.205 253.893 289.74 253.269 289.445C252.504 289.083 251.896 288.759 251.426 288.43C250.952 288.099 250.79 287.878 250.746 287.8C250.745 287.799 250.713 287.791 250.742 287.611C250.798 287.262 250.883 287.092 250.922 287.027C250.957 286.969 250.985 286.941 251.021 286.917C251.123 286.847 251.457 286.691 252.191 286.688C253.437 286.683 254.945 287.129 255.924 287.622C257.651 288.489 259.755 287.793 260.623 286.066C261.491 284.339 260.794 282.235 259.067 281.367C258.143 280.902 256.966 280.45 255.675 280.132C255.63 278.239 254.082 276.717 252.178 276.717Z" fill="black"/>
<rect x="240.022" y="251.064" width="23.6628" height="6.34042" rx="3.17021" stroke="black" stroke-width="2"/>
<rect x="280.592" y="207.72" width="38.4942" height="7.69885" rx="3.84942" fill="#A0A0A0"/>
<path d="M242.551 247.818L235.494 234.987" stroke="black" stroke-width="2" stroke-linecap="round"/>
<path d="M261.798 247.818L268.534 234.666" stroke="black" stroke-width="2" stroke-linecap="round"/>
<path d="M235.173 234.665C237.311 235.093 242.038 235.243 243.834 232.42C245.63 229.597 248.004 230.388 248.967 231.137L251.854 233.703" stroke="black" stroke-width="2" stroke-linecap="round"/>
<path d="M268.534 234.408C266.396 234.835 261.669 234.985 259.873 232.162C258.077 229.339 255.703 230.131 254.74 230.879L251.853 233.703" stroke="black" stroke-width="2" stroke-linecap="round"/>
<path d="M282.97 205.796L271.101 183.02" stroke="black" stroke-width="2" stroke-linecap="round"/>
<path d="M317.294 205.796L328.842 182.699" stroke="black" stroke-width="2" stroke-linecap="round"/>
<path d="M271.101 182.932C274.802 183.668 282.982 183.926 286.091 179.064C289.2 174.203 293.309 175.565 294.974 176.854L299.971 181.274" stroke="black" stroke-width="2" stroke-linecap="round"/>
<path d="M328.843 182.29C325.141 183.027 316.961 183.285 313.852 178.423C310.743 173.561 306.635 174.924 304.969 176.213L299.972 181.077" stroke="black" stroke-width="2" stroke-linecap="round"/>
<rect x="199.827" y="318.893" width="31.5506" height="8.77863" rx="4.38931" transform="rotate(-61.5197 199.827 318.893)" stroke="#A0A0A0" stroke-width="2"/>
<rect x="331.126" y="293.407" width="31.5506" height="8.77863" rx="4.38931" stroke="#A0A0A0" stroke-width="2"/>
<rect x="335.617" y="304.314" width="31.5506" height="8.77863" rx="4.38931" stroke="#A0A0A0" stroke-width="2"/>
<rect x="331.126" y="315.221" width="31.5506" height="8.77863" rx="4.38931" stroke="#A0A0A0" stroke-width="2"/>
<rect x="363.846" y="315.221" width="31.5506" height="8.77863" rx="4.38931" stroke="#A0A0A0" stroke-width="2"/>
<rect x="368.979" y="305.597" width="31.5506" height="8.77863" rx="4.38931" stroke="#A0A0A0" stroke-width="2"/>
<rect x="364.487" y="295.332" width="31.5506" height="8.77863" rx="4.38931" stroke="#A0A0A0" stroke-width="2"/>
<rect x="358.713" y="284.426" width="31.5506" height="8.77863" rx="4.38931" stroke="#A0A0A0" stroke-width="2"/>
<rect x="361.921" y="273.519" width="31.5506" height="8.77863" rx="4.38931" stroke="#A0A0A0" stroke-width="2"/>
<path d="M271.931 229.534C275.78 224.508 279.121 220.231 285.857 217.986H314.728C327.132 224.508 347.315 244.29 346.032 286.313" stroke="black" stroke-width="2" stroke-linecap="round"/>
<path d="M281.875 321.279H326.464" stroke="black" stroke-width="2" stroke-linecap="round"/>
<path d="M300.292 285.806V290.163" stroke="black" stroke-width="2" stroke-linecap="round"/>
<path d="M300.292 257.087V252.63" stroke="black" stroke-width="2" stroke-linecap="round"/>
<path d="M308.312 259.046C306.275 258.028 303.183 257.075 300.292 257.087C296.808 257.1 293.616 258.512 292.914 262.895C291.989 268.676 299.002 270.751 303.179 272.839C308.954 275.727 308.901 281.139 305.425 283.746C303.861 284.919 302.086 285.563 300.292 285.806C297.67 286.161 295.01 285.661 292.914 284.709" stroke="black" stroke-width="2" stroke-linecap="round"/>
</svg>
