<svg width="600" height="500" viewBox="0 0 600 500" fill="none" xmlns="http://www.w3.org/2000/svg">
<path d="M107.061 233.073C109.421 233.073 111.334 231.16 111.334 228.8C111.334 226.44 109.421 224.527 107.061 224.527C104.701 224.527 102.788 226.44 102.788 228.8C102.788 231.16 104.701 233.073 107.061 233.073Z" stroke="#A0A0A0" stroke-width="2"/>
<path d="M115.434 229.235C124.052 228.348 137.575 229.397 139.174 236.064C140.772 242.731 134.669 245.169 131.417 245.555C119.038 247.522 102.624 246.596 102.624 236.064" stroke="#A0A0A0" stroke-width="2" stroke-linecap="round"/>
<path d="M112.32 239.318C112.865 239.318 113.306 238.877 113.306 238.332C113.306 237.788 112.865 237.346 112.32 237.346C111.775 237.346 111.334 237.788 111.334 238.332C111.334 238.877 111.775 239.318 112.32 239.318Z" stroke="#A0A0A0" stroke-width="2"/>
<path d="M121.852 238.332C121.852 238.811 121.405 239.318 120.701 239.318C119.997 239.318 119.551 238.811 119.551 238.332C119.551 237.853 119.997 237.346 120.701 237.346C121.405 237.346 121.852 237.853 121.852 238.332Z" stroke="#A0A0A0" stroke-width="2"/>
<path d="M129.083 239.318C129.627 239.318 130.069 238.877 130.069 238.332C130.069 237.788 129.627 237.346 129.083 237.346C128.538 237.346 128.097 237.788 128.097 238.332C128.097 238.877 128.538 239.318 129.083 239.318Z" stroke="#A0A0A0" stroke-width="2"/>
<path d="M431.302 112.777C433.48 112.777 435.246 111.012 435.246 108.833C435.246 106.655 433.48 104.889 431.302 104.889C429.123 104.889 427.357 106.655 427.357 108.833C427.357 111.012 429.123 112.777 431.302 112.777Z" stroke="#A0A0A0" stroke-width="2"/>
<path d="M439.05 105.381C441.94 105.381 450.199 105.381 454.083 105.381C457.23 105.381 458.745 106.077 458.745 110.95C458.745 115.684 458.706 121.816 458.745 124.291C458.772 126.031 457.906 127.957 455.016 128.235C452.125 128.513 440.526 128.351 435.087 128.235C433.067 128.235 429.493 127.09 429.493 122.434V117.214" stroke="#A0A0A0" stroke-width="2" stroke-linecap="round"/>
<path d="M437.053 113.599L444.284 118.529" stroke="#A0A0A0" stroke-width="2" stroke-linecap="round"/>
<path d="M444.284 118.529L457.431 106.368" stroke="#A0A0A0" stroke-width="2" stroke-linecap="round"/>
<path d="M447.616 115.571L451.209 119.187L454.801 122.802" stroke="#A0A0A0" stroke-width="2" stroke-linecap="round"/>
<path d="M434.424 122.802L439.724 115.571" stroke="#A0A0A0" stroke-width="2" stroke-linecap="round"/>
<path d="M460.206 359.279C459.114 360.373 458.172 361.316 457.523 361.966C455.832 363.659 454.056 362.671 453.38 361.966L442.59 351.571C440.998 350.09 439.651 348.628 433.631 342.884C433.015 342.267 432.038 340.691 433.062 339.324C434.086 337.957 439.841 330.78 442.59 327.362C443.425 326.154 445.237 324.717 447.549 326.867C449.54 328.718 456.366 335.126 462.197 339.998" stroke="#A0A0A0" stroke-width="2" stroke-linecap="round"/>
<path d="M442.477 327.731C442.816 333.966 445.104 344.003 456.938 347.781" stroke="#A0A0A0" stroke-width="2" stroke-linecap="round"/>
<path d="M472.486 348.263C471.944 346.885 467.78 345.279 466.205 348.263C464.584 351.341 465.824 353.934 466.879 354.443C468.227 355.092 470.205 355.431 472.296 351.695" stroke="#A0A0A0" stroke-width="2" stroke-linecap="round"/>
<path d="M472.832 346.344C472.71 347.064 472.585 347.367 472.487 348.263C472.359 349.43 472.276 350.654 472.296 351.695C472.336 353.521 472.697 354.781 473.723 354.173C475.78 352.953 476.891 351.952 477.187 350.932C477.68 349.216 477.683 345.931 474.909 343.783C471.563 341.19 467.79 341.26 464.822 343.783C461.875 346.287 461.069 350.295 461.23 352.375C461.407 354.65 463.105 359.535 468.644 359.612C474.183 359.688 477.184 356.702 477.644 355.304" stroke="#A0A0A0" stroke-width="2" stroke-linecap="round"/>
<path d="M180.849 307.212C179.667 302.651 175.744 294.238 169.504 297.082C163.264 299.925 166.904 305.02 169.504 307.212C171.254 308.397 175.015 309.665 176.063 305.257C177.111 300.849 172.695 299.036 171.454 300.992C170.799 301.762 170.06 303.693 172.34 305.257" stroke="#A0A0A0" stroke-width="2" stroke-linecap="round"/>
<path d="M208.695 85.9763C208.406 84.3441 210.113 83.0885 211.585 83.8513L214.529 85.3767C215.697 85.9827 217.09 85.975 218.251 85.3557L221.176 83.7963C222.639 83.0166 224.361 84.2525 224.09 85.8879L223.549 89.1589C223.334 90.4576 223.772 91.7796 224.72 92.6931L227.107 94.9935C228.3 96.1437 227.657 98.1629 226.019 98.4109L222.74 98.9063C221.439 99.1031 220.317 99.9278 219.741 101.112L218.291 104.093C217.566 105.584 215.446 105.596 214.704 104.114L213.22 101.149C212.63 99.9722 211.499 99.16 210.195 98.9781L206.911 98.5199C205.27 98.2907 204.603 96.2789 205.784 95.1151L208.145 92.7874C209.082 91.863 209.505 90.5363 209.275 89.2401L208.695 85.9763Z" stroke="#A0A0A0" stroke-width="2"/>
<path d="M310.184 233.045V260.983" stroke="black" stroke-width="2" stroke-linecap="round"/>
<path d="M331.219 236.332V262.955" stroke="black" stroke-width="2" stroke-linecap="round"/>
<path d="M282.019 357.312C275.073 358.177 258.812 361.367 255.251 367.853C254.182 369.799 252.942 374.535 256.533 377.907C260.123 381.28 266.685 380.394 269.516 379.529L286.026 372.88" stroke="black" stroke-width="2" stroke-linecap="round"/>
<path d="M376.675 308.365C363.715 308.782 306.472 336.494 279.471 350.299C277.171 365.51 286.874 376.432 292.013 379.991C318.927 372.178 374.167 356.342 379.811 355.508C385.455 354.675 391.047 350.646 393.137 348.736C407.77 331.65 396.97 317.134 389.74 312.011C384.594 308.364 380.151 308.253 376.675 308.365Z" fill="black"/>
<path d="M255.272 304.488C264.455 305.101 304.514 320.626 323.495 328.763L280.086 350.454C260.66 356.151 248.726 354.275 245.081 353.047C224.043 342.911 232.286 317.906 240.645 308.643C246.032 304.058 251.982 304.269 255.272 304.488Z" fill="black"/>
<path d="M357.476 360.271C363.215 363.029 366.318 366.642 367.892 369.606C371.264 377.323 365.209 381.961 358.297 379.78C354.477 378.575 353.577 377.767 351.553 376.09C350.527 375.238 345.732 370.783 340.258 365.521" stroke="black" stroke-width="2" stroke-linecap="round"/>
<path d="M247.651 235.564L251.324 302.312C251.616 307.614 255.999 311.763 261.309 311.763H371.178C376.701 311.763 381.178 307.286 381.178 301.763V233.484C381.178 227.909 376.619 223.41 371.044 223.485L257.501 225.016C251.816 225.092 247.338 229.887 247.651 235.564Z" fill="black"/>
<rect x="251.021" y="312.914" width="130.156" height="6.24486" rx="3.12243" fill="black"/>
<path d="M331.548 188.674C342.997 188.51 368.195 197.219 378.22 224.664" stroke="black" stroke-width="2" stroke-linecap="round"/>
<path d="M306.404 188.509C280.274 193.603 267.784 204.778 257.924 226.307" stroke="black" stroke-width="2" stroke-linecap="round"/>
<path d="M393.832 214.502L400.241 203.82" stroke="black" stroke-width="2" stroke-linecap="round"/>
<path d="M400.241 217.461L408.951 210.23" stroke="black" stroke-width="2" stroke-linecap="round"/>
<path d="M401.556 222.39C403.254 223.048 407.11 223.672 408.951 220.911" stroke="black" stroke-width="2" stroke-linecap="round"/>
<path d="M233.437 212.502L223.577 202.313" stroke="black" stroke-width="2" stroke-linecap="round"/>
<path d="M243.462 210.859L237.546 195.575" stroke="black" stroke-width="2" stroke-linecap="round"/>
<path d="M230.972 218.254L223.577 215.461" stroke="black" stroke-width="2" stroke-linecap="round"/>
<path d="M384.793 243.097C390.873 252.629 397.776 263.968 384.793 285.304" stroke="black" stroke-width="2" stroke-linecap="round"/>
<path d="M331.712 189.495C333.191 185.222 331.843 182.347 330.529 181.799C322.64 189.03 310.676 186.346 306.239 181.964C304.662 183.41 305.582 187.687 306.239 189.002C314.785 198.468 326.946 193.165 331.712 189.495Z" fill="black"/>
<path d="M296.708 215.789L297.371 214.772C301.091 209.061 308.333 206.781 314.655 209.33C320.331 211.619 326.834 210.031 330.817 205.384L335.985 199.355" stroke="black" stroke-width="2" stroke-linecap="round"/>
<path d="M245.27 249.151C242.805 254.958 239.88 269.036 247.9 278.896" stroke="black" stroke-width="2" stroke-linecap="round"/>
<path d="M354.372 122.316C350.756 135.299 348.949 136.449 343.69 142.201C343.69 136.516 342.713 126.975 342.713 123.002C325.494 123.002 310.962 115.973 305.849 112.458C306.032 124.377 294.858 132.171 294.858 132.171C294.858 132.171 296.461 136.984 297.377 147.757C298.109 156.375 296.003 154.71 294.858 152.8C291.561 142.164 286.157 145.006 283.867 147.757C255.769 102.102 298.979 93.2809 307.222 94.1213C313.45 88.8036 322.136 84.6363 328.242 84.0251C350.263 81.8207 360.234 101.265 354.372 122.316Z" fill="black"/>
<path d="M295.243 160.924C298.201 178.984 318.056 191.969 332.384 177.34C346.711 162.711 343.844 135.933 342.313 123.437" stroke="black" stroke-width="2" stroke-linecap="round"/>
<path d="M283.542 146.638C281.734 151.075 283.43 160.907 295.243 160.907" stroke="black" stroke-width="2" stroke-linecap="round"/>
<path d="M288.753 149.075C288.491 150.025 288.7 152.274 291.628 153.677" stroke="black" stroke-width="2" stroke-linecap="round"/>
<path d="M341.915 158.607C345.771 156.999 348.489 151.047 347.443 141.515" stroke="black" stroke-width="2" stroke-linecap="round"/>
<path d="M320.223 169.453C324.002 170.439 323.763 167.726 326.632 165.345" stroke="black" stroke-width="2" stroke-linecap="round"/>
<ellipse cx="331.506" cy="146.495" rx="2.46508" ry="2.46508" fill="black"/>
<ellipse cx="309.813" cy="146.823" rx="2.46508" ry="2.46508" fill="black"/>
<path d="M304.446 141.187C304.965 139.659 307.203 136.834 312.006 137.75" stroke="black" stroke-width="2" stroke-linecap="round"/>
<path d="M327.453 138.229C328.599 137.236 331.714 135.847 335.013 138.229" stroke="black" stroke-width="2" stroke-linecap="round"/>
<path d="M319.502 145.13C319.119 148.375 318.859 154.957 320.88 155.319" stroke="black" stroke-width="2" stroke-linecap="round"/>
<path d="M414.21 294.206C458.088 306.367 536.905 320.336 501.145 278.923C489.86 267.803 473.207 254.765 446.42 243.261" stroke="#A0A0A0" stroke-width="2" stroke-linecap="round"/>
<path d="M461.704 209.239C488.984 191.765 532.928 155.665 490.463 151.063C447.998 146.462 409.225 162.403 395.146 170.948" stroke="#A0A0A0" stroke-width="2" stroke-linecap="round"/>
<path d="M356.034 183.703C374.111 144.755 403.364 64.0321 375.755 52.7256C341.244 38.5924 296.544 79.3484 260.061 176.637" stroke="#A0A0A0" stroke-width="2" stroke-linecap="round"/>
<path d="M219.857 150.152C179.429 128.021 96.8984 93.9813 90.1934 134.869C83.4884 175.756 165.406 209.862 207.202 221.804" stroke="#A0A0A0" stroke-width="2" stroke-linecap="round"/>
<path d="M217.934 243.261C158.936 273.335 85.0134 314.928 125.96 336.606C142.722 345.48 185.615 340.057 205.335 332.004" stroke="#A0A0A0" stroke-width="2" stroke-linecap="round"/>
<ellipse cx="314.456" cy="440.14" rx="81.3476" ry="9.86031" fill="#A0A0A0"/>
</svg>
