<svg width="600" height="500" viewBox="0 0 600 500" fill="none" xmlns="http://www.w3.org/2000/svg">
<path d="M218.883 282.19L206.693 234.48L365.291 193.96L367.616 203.06" stroke="black" stroke-width="2"/>
<path d="M224.665 304.822L233.945 341.145L237.37 340.27" stroke="black" stroke-width="2"/>
<path d="M292.781 334.26L299.48 332.63" stroke="black" stroke-width="2" stroke-linecap="round"/>
<path d="M310.163 330.094L365.482 316.768" stroke="black" stroke-width="2" stroke-linecap="round"/>
<path d="M288.796 335.164L238.883 346.89L227.593 299.492" stroke="black" stroke-width="2" stroke-linecap="round"/>
<path d="M223.602 282.834L213.337 239.803L372.561 201.82L387.775 265.599" stroke="black" stroke-width="2" stroke-linecap="round"/>
<path d="M174.372 220.286C172.784 220.626 171.268 221.126 169.834 221.752L170.604 225.34C168.693 226.258 166.979 227.442 165.484 228.864L162.403 226.871C161.288 228.012 160.316 229.278 159.453 230.612C158.59 231.947 157.834 233.352 157.251 234.837L160.332 236.83C159.648 238.777 159.272 240.826 159.218 242.945L155.63 243.714C155.647 245.278 155.813 246.866 156.154 248.454C156.494 250.042 156.994 251.558 157.62 252.992L161.208 252.222C162.126 254.133 163.31 255.847 164.732 257.342L162.739 260.423C163.88 261.538 165.146 262.51 166.48 263.373C167.815 264.236 169.22 264.992 170.705 265.575L172.698 262.494C174.645 263.178 176.694 263.554 178.813 263.608L179.582 267.196C181.146 267.179 182.734 267.013 184.322 266.672C185.91 266.332 187.426 265.832 188.86 265.206L188.09 261.618C190 260.7 191.715 259.516 193.21 258.094L196.291 260.087C197.406 258.946 198.378 257.68 199.241 256.346C200.104 255.011 200.86 253.606 201.443 252.121L198.362 250.128C199.045 248.181 199.422 246.132 199.476 244.013L203.064 243.244C203.047 241.68 202.881 240.092 202.54 238.504C202.2 236.916 201.7 235.4 201.074 233.966L197.486 234.736C196.568 232.826 195.384 231.111 193.962 229.616L195.955 226.535C194.814 225.42 193.548 224.448 192.214 223.585C190.879 222.722 189.474 221.966 187.989 221.383L185.996 224.464C184.049 223.781 182 223.404 179.881 223.35L179.112 219.762C177.548 219.779 175.96 219.945 174.372 220.286V220.286ZM176.859 231.882C183.261 230.509 189.571 234.59 190.944 240.992C192.317 247.393 188.236 253.703 181.834 255.076C175.433 256.449 169.123 252.368 167.75 245.967C166.377 239.565 170.458 233.255 176.859 231.882Z" fill="#A0A0A0"/>
<path d="M266.735 250.693C265.155 251.07 263.65 251.603 262.232 252.262L263.083 255.831C261.194 256.793 259.507 258.016 258.045 259.472L254.92 257.55C253.831 258.716 252.888 260.004 252.056 261.358C251.223 262.712 250.5 264.134 249.951 265.632L253.077 267.554C252.438 269.515 252.108 271.572 252.102 273.692L248.533 274.544C248.586 276.107 248.788 277.69 249.165 279.27C249.542 280.85 250.076 282.354 250.735 283.773L254.304 282.922C255.266 284.811 256.489 286.497 257.944 287.959L256.023 291.085C257.188 292.174 258.476 293.117 259.83 293.949C261.184 294.781 262.607 295.505 264.105 296.054L266.026 292.928C267.988 293.567 270.045 293.897 272.165 293.903L273.016 297.472C274.58 297.419 276.163 297.216 277.743 296.84C279.323 296.463 280.827 295.929 282.246 295.27L281.394 291.701C283.283 290.739 284.97 289.516 286.432 288.061L289.558 289.982C290.647 288.816 291.589 287.528 292.422 286.174C293.254 284.82 293.978 283.398 294.526 281.9L291.401 279.978C292.04 278.017 292.369 275.96 292.375 273.84L295.944 272.989C295.892 271.425 295.689 269.842 295.312 268.262C294.935 266.682 294.401 265.178 293.743 263.759L290.173 264.611C289.211 262.722 287.989 261.035 286.533 259.573L288.455 256.447C287.289 255.358 286.001 254.416 284.647 253.583C283.293 252.751 281.871 252.027 280.373 251.478L278.451 254.604C276.489 253.965 274.432 253.635 272.312 253.63L271.461 250.061C269.898 250.113 268.315 250.316 266.735 250.693V250.693ZM269.487 262.229C275.855 260.71 282.256 264.646 283.775 271.014C285.295 277.382 281.359 283.784 274.991 285.303C268.622 286.822 262.221 282.886 260.702 276.518C259.183 270.15 263.118 263.749 269.487 262.229Z" stroke="black" stroke-width="2" stroke-linecap="round" stroke-linejoin="round"/>
<path d="M279.415 303.437C278.655 303.618 277.932 303.875 277.249 304.192L277.659 305.908C276.75 306.371 275.939 306.959 275.236 307.659L273.733 306.735C273.209 307.295 272.756 307.915 272.355 308.566C271.955 309.217 271.607 309.901 271.343 310.622L272.846 311.546C272.539 312.489 272.381 313.478 272.378 314.498L270.661 314.907C270.687 315.659 270.784 316.42 270.965 317.18C271.147 317.94 271.403 318.664 271.72 319.346L273.437 318.936C273.899 319.845 274.487 320.656 275.187 321.359L274.263 322.862C274.824 323.386 275.443 323.839 276.094 324.24C276.746 324.64 277.43 324.988 278.15 325.252L279.074 323.749C280.018 324.056 281.007 324.215 282.026 324.217L282.436 325.934C283.188 325.908 283.949 325.811 284.709 325.63C285.469 325.448 286.192 325.192 286.874 324.875L286.465 323.158C287.373 322.696 288.184 322.108 288.888 321.408L290.391 322.332C290.914 321.771 291.368 321.152 291.768 320.501C292.168 319.85 292.516 319.166 292.78 318.445L291.277 317.521C291.584 316.578 291.743 315.588 291.746 314.569L293.462 314.159C293.437 313.408 293.339 312.646 293.158 311.886C292.977 311.126 292.72 310.403 292.403 309.721L290.687 310.13C290.224 309.222 289.636 308.411 288.936 307.708L289.86 306.204C289.3 305.681 288.68 305.227 288.029 304.827C287.378 304.427 286.694 304.079 285.974 303.815L285.049 305.318C284.106 305.011 283.117 304.852 282.097 304.849L281.688 303.133C280.936 303.158 280.175 303.256 279.415 303.437V303.437ZM280.738 308.985C283.801 308.255 286.879 310.147 287.61 313.21C288.341 316.272 286.448 319.351 283.385 320.082C280.323 320.812 277.244 318.919 276.514 315.857C275.783 312.794 277.676 309.716 280.738 308.985Z" stroke="black" stroke-opacity="0.7" stroke-width="2" stroke-linecap="round" stroke-linejoin="round"/>
<path d="M366.832 298.606L374.725 280.259C382.073 263.181 402.863 256.598 418.701 266.335C434.566 276.089 438.056 297.664 426.075 311.922L413.227 327.214C404.446 337.664 389.337 340.108 377.709 332.959C366.058 325.796 361.427 311.169 366.832 298.606Z" stroke="#A0A0A0" stroke-width="2"/>
<path d="M371.673 289.159L374.819 281.309C381.729 264.067 402.502 257.202 418.326 266.93C434.182 276.679 437.408 298.373 425.073 312.313L419.47 318.646C410.295 329.015 394.995 331.29 383.201 324.039C371.378 316.77 366.51 302.041 371.673 289.159Z" fill="#A0A0A0"/>
<circle cx="272.22" cy="273.596" r="4.97548" transform="rotate(-13.417 272.22 273.596)" stroke="black" stroke-width="2"/>
<circle cx="272.221" cy="273.597" r="7.51053" transform="rotate(-13.417 272.221 273.597)" stroke="black" stroke-width="2"/>
<path d="M263.699 237.095L285.716 329.388" stroke="black" stroke-width="2" stroke-linecap="round" stroke-dasharray="12 12"/>
<path d="M303.354 225.402L318.983 290.923" stroke="black" stroke-width="2" stroke-linecap="round" stroke-dasharray="12 12"/>
<path d="M327.365 221.45L345.18 296.13" stroke="black" stroke-width="2" stroke-linecap="round" stroke-dasharray="12 12"/>
<path d="M353.446 223.134L367.648 282.667" stroke="black" stroke-width="2" stroke-linecap="round" stroke-dasharray="12 12"/>
<path d="M259.725 320.324L303.053 309.988" stroke="black" stroke-width="2" stroke-linecap="round" stroke-dasharray="12 12"/>
<path d="M237.211 282.134L370.368 250.37" stroke="black" stroke-width="2" stroke-linecap="round" stroke-dasharray="12 12"/>
<path d="M260.817 324.904L265.397 323.811" stroke="black" stroke-width="2" stroke-linecap="round"/>
<path d="M310.184 308.661L340.478 301.434" stroke="black" stroke-width="2" stroke-linecap="round"/>
<path d="M311.191 312.887L339.02 306.249" stroke="black" stroke-width="2" stroke-linecap="round"/>
<path d="M311.779 315.353L326.927 311.74" stroke="black" stroke-width="2" stroke-linecap="round"/>
<path d="M261.406 327.37L270.917 325.101" stroke="black" stroke-width="2" stroke-linecap="round"/>
<path d="M315.672 251.913L320.768 243.623" stroke="black" stroke-opacity="0.6" stroke-width="2" stroke-linecap="round"/>
<path d="M313.017 265.914L332.061 234.936" stroke="black" stroke-opacity="0.6" stroke-width="2" stroke-linecap="round"/>
<path d="M317.65 268.059L323.836 257.992M335.967 238.436L329.624 248.581" stroke="black" stroke-opacity="0.6" stroke-width="2" stroke-linecap="round"/>
<path d="M321.118 272.096L325.868 264.37M341.504 238.938L336.866 246.482" stroke="black" stroke-opacity="0.6" stroke-width="2" stroke-linecap="round"/>
<path d="M323.068 278.605L329.477 268.181M347.737 238.255L341.761 248.214" stroke="black" stroke-opacity="0.6" stroke-width="2" stroke-linecap="round"/>
<path d="M329.265 278.207L334.051 270.423M350.272 244.231L345.745 251.293" stroke="black" stroke-opacity="0.6" stroke-width="2" stroke-linecap="round"/>
<path d="M334.925 278.682L339.909 270.475M352.987 248.94L347.736 257.813" stroke="black" stroke-opacity="0.6" stroke-width="2" stroke-linecap="round"/>
<path d="M338.977 281.773L358.058 250.389" stroke="black" stroke-opacity="0.6" stroke-width="2" stroke-linecap="round"/>
<path d="M349.733 273.956L355.523 264.511" stroke="black" stroke-opacity="0.6" stroke-width="2" stroke-linecap="round"/>
<path d="M330.264 235.584C328.684 235.961 327.18 236.495 325.761 237.154L326.612 240.723C324.723 241.685 323.037 242.908 321.575 244.363L318.449 242.442C317.36 243.608 316.418 244.895 315.585 246.249C314.753 247.603 314.029 249.026 313.48 250.524L316.606 252.445C315.967 254.407 315.637 256.464 315.632 258.584L312.062 259.435C312.115 260.999 312.318 262.582 312.695 264.162C313.071 265.742 313.605 267.246 314.264 268.665L317.833 267.813C318.795 269.702 320.018 271.389 321.474 272.851L319.552 275.977C320.718 277.066 322.006 278.008 323.36 278.841C324.714 279.673 326.136 280.397 327.634 280.945L329.556 277.82C331.517 278.459 333.574 278.788 335.694 278.794L336.546 282.363C338.109 282.311 339.692 282.108 341.272 281.731C342.852 281.354 344.356 280.82 345.775 280.162L344.924 276.592C346.813 275.63 348.499 274.408 349.961 272.952L353.087 274.874C354.176 273.708 355.118 272.42 355.951 271.066C356.783 269.712 357.507 268.29 358.056 266.792L354.93 264.87C355.569 262.908 355.899 260.851 355.904 258.732L359.474 257.88C359.421 256.317 359.218 254.734 358.841 253.154C358.464 251.574 357.931 250.069 357.272 248.651L353.703 249.502C352.741 247.613 351.518 245.927 350.062 244.464L351.984 241.339C350.818 240.25 349.53 239.307 348.176 238.475C346.822 237.642 345.4 236.919 343.902 236.37L341.98 239.496C340.019 238.857 337.962 238.527 335.842 238.521L334.99 234.952C333.427 235.005 331.844 235.207 330.264 235.584V235.584ZM333.016 247.121C339.384 245.602 345.786 249.537 347.305 255.906C348.824 262.274 344.888 268.675 338.52 270.194C332.152 271.714 325.75 267.778 324.231 261.41C322.712 255.041 326.648 248.64 333.016 247.121Z" stroke="black" stroke-width="2" stroke-linecap="round" stroke-linejoin="round"/>
<path d="M230.214 259.046L283.23 246.399" stroke="black" stroke-width="2" stroke-linecap="round"/>
<path d="M261.168 300.621L293.929 292.806" stroke="black" stroke-width="2" stroke-linecap="round"/>
<path d="M303.968 290.409L357.336 277.678" stroke="black" stroke-width="2" stroke-linecap="round"/>
<path d="M314.801 239.053L347.209 231.322" stroke="black" stroke-width="2" stroke-linecap="round"/>
<path d="M316.493 339.956C315.044 338.326 313.414 335.972 313.052 333.437C312.803 331.692 310.94 330.479 309.793 330.54" stroke="#A0A0A0" stroke-width="2" stroke-linecap="round"/>
<path d="M309.974 333.438C309.974 332.11 310.082 329.491 306.896 329.636" stroke="#A0A0A0" stroke-width="2" stroke-linecap="round"/>
<path d="M307.62 332.172C307.137 330.783 305.769 328.152 303.307 329.455" stroke="#A0A0A0" stroke-width="2" stroke-linecap="round"/>
<path d="M305.628 333.8C304.843 333.317 303.817 331.338 303.093 328.73C302.369 326.123 298.566 323.901 296.755 323.117C295.79 322.694 293.858 322.465 293.858 324.928C293.858 327.101 299.182 328.984 299.472 332.171C299.761 335.358 299.592 336.758 299.472 337.06C299.17 337.663 298.095 338.4 296.212 336.516C294.329 334.633 291.866 334.162 290.599 334.525C289.512 334.887 287.991 336.118 290.599 338.146C292.536 339.653 298.892 342.456 304.542 349.554" stroke="#A0A0A0" stroke-width="2" stroke-linecap="round"/>
<path d="M366.418 368.136C351.642 354.084 330.927 341.32 322.021 341.32C305.906 341.32 306.136 349.16 308.336 353.261C308.405 353.39 308.486 353.503 308.584 353.611C313.198 358.697 324.134 369.84 332.162 375" stroke="#A0A0A0" stroke-width="2" stroke-linecap="round"/>
<path d="M167.838 364.442C171.314 359.517 180.392 345.883 184.315 339.273C187.002 334.746 189.017 329.713 189.748 326.291C191.196 319.51 195.361 307.278 208.036 324.118C211.035 328.102 213.952 331.74 201.82 355.28" stroke="#A0A0A0" stroke-width="2" stroke-linecap="round"/>
<path d="M212.96 320.352C215.61 317.091 220.4 311.995 222.336 308.428L225.496 303.026C227.636 299.588 228.552 296.785 229.37 295.265C229.733 294.589 229.96 294.076 230.463 293.072C230.92 292.161 231.322 291.24 231.003 290.486C230.759 289.907 229.74 288.896 227.618 289.473C225.497 290.051 224.05 291.843 223.592 292.666C223.133 293.349 221.14 295.822 220.594 296.365C219.326 297.626 213.078 302.856 209.182 299.792" stroke="#A0A0A0" stroke-width="2" stroke-linecap="round"/>
<path d="M208.423 294.726C211.658 293.016 217.941 289.933 220.13 287.816C222.377 287.381 227.928 288.109 227.368 285.128C227.251 284.507 225.297 282.967 222.392 282.444C220.301 282.068 218.785 281.921 217.048 282.854C216.063 283.383 215.673 283.571 214.401 284.416C213.414 284.851 212.813 285.353 212.007 285.907C211.179 286.476 209.98 287.381 208.303 288.963" stroke="#A0A0A0" stroke-width="2" stroke-linecap="round"/>
<path d="M214.401 284.417C213.874 284.13 211.594 284.149 208.907 285.48C205.971 286.934 205.47 287.484 204.333 288.234C203.196 288.984 200.922 290.484 200.032 291.208C198.457 292.489 197.022 293.932 196.456 294.66C195.458 296.2 196.014 297.366 197.514 300.234" stroke="#A0A0A0" stroke-width="2" stroke-linecap="round"/>
<path d="M198.413 305.558C198.413 307.468 197.98 311.992 196.655 315.763" stroke="#A0A0A0" stroke-width="2" stroke-linecap="round"/>
<path d="M224.695 291.208L199.125 305.179C196.036 306.388 193.887 302.153 197.128 300.723L208.406 294.711M228.251 289.217L232.98 286.66L230.741 283.079L227.54 284.696" stroke="#A0A0A0" stroke-width="2" stroke-linecap="round"/>
<path d="M233.618 286.312L236.284 282.367" stroke="#A0A0A0" stroke-width="2" stroke-linecap="round"/>
<path d="M231.376 282.745L236.284 282.367" stroke="#A0A0A0" stroke-width="2" stroke-linecap="round"/>
<path d="M243.577 207.286C244.1 212.741 236.352 213.797 236.017 207.554L235.259 158.482L235.016 146.58C234.993 145.46 235.895 144.539 237.015 144.539L242.217 144.539M243.577 207.286L242.683 158.482L242.217 144.539M243.577 207.286L252.173 207.286C253.316 207.286 254.226 206.33 254.171 205.189L251.918 158.482L251.36 146.447C251.31 145.379 250.43 144.539 249.362 144.539L242.217 144.539" stroke="black" stroke-width="2" stroke-linecap="round"/>
<path d="M316.852 127.054C320.613 124.883 325.422 126.172 327.594 129.933L345.348 160.684C347.519 164.445 346.231 169.255 342.47 171.426L284.746 204.753C280.985 206.925 276.175 205.636 274.004 201.875L256.249 171.124C254.078 167.362 255.367 162.553 259.128 160.381L316.852 127.054Z" stroke="black" stroke-width="2"/>
<ellipse cx="262.981" cy="167.035" rx="1.99183" ry="2.1729" transform="rotate(-30 262.981 167.035)" fill="black"/>
<path d="M328.326 169.035L339.617 162.516M334.073 169.899L341.428 165.653" stroke="black" stroke-width="2" stroke-linecap="round"/>
<path d="M276.474 187.821C278.743 186.22 285.014 184.4 292.873 188.927C293.59 189.34 294.518 188.811 294.485 187.985C294.109 178.576 295.19 169.08 313.011 168.741C314.048 168.721 314.58 167.139 313.811 166.442C308.833 161.928 304.183 153.63 310.835 143.539C311.26 142.894 310.682 141.999 309.932 142.182C309.085 142.388 308.636 141.411 309.385 140.963C312.094 139.341 314.983 138.226 314.614 140.445C314.076 143.668 314.432 145.305 316.187 147.332" stroke="black" stroke-width="2" stroke-linecap="round"/>
</svg>
