<svg width="600" height="500" viewBox="0 0 600 500" fill="none" xmlns="http://www.w3.org/2000/svg">
<path d="M312.503 213.866H335.782C338.616 213.866 343.786 211.283 342.058 200.916C340.236 189.984 348.929 190.075 352.584 191.401C354.474 192.076 357.685 194.925 355.418 200.916C352.584 208.405 354.406 214.278 360.277 214.278H379.329C380.434 214.278 381.329 215.173 381.329 216.278V284.519C381.329 285.631 380.426 286.53 379.314 286.521C373.999 286.476 359.822 286.375 357.038 286.539C353.596 286.741 354.194 290.496 356.228 295.243C359.264 302.328 356.127 310.974 345.904 309.211C340.034 308.199 337.604 301.924 340.034 295.243C342.463 288.563 339.629 286.539 336.997 286.539C331.65 286.539 319.143 286.471 313.813 286.539" stroke="#A0A0A0" stroke-width="2" stroke-linecap="round"/>
<path d="M243.036 285.55V274.481V259.96C243.036 256.433 243.535 253.356 239.289 253.114C235.044 252.872 233.023 257.678 225.745 256.018C221.904 255.142 218.67 251.247 218.67 246.683C218.67 238.8 227.226 234.043 235.449 239.215C243.036 243.986 243.036 235.066 243.036 232.161V214.246C243.036 213.142 243.931 212.246 245.036 212.246H271.741C277.402 212.661 273.965 219.092 272.348 223.033C269.113 230.917 273.493 235.342 276.593 236.518C287.509 239.215 290.137 227.597 286.498 223.033C281.523 216.793 282.86 212.868 285.285 212.868H310.829C311.991 212.868 312.923 213.856 312.906 215.018C312.847 218.968 312.98 226.237 312.98 233.406C312.98 244.193 322.684 240.667 322.684 240.874C322.684 241.082 337.224 237.001 338.452 248.342C339.26 255.811 331.376 260.582 322.684 257.885C315.73 255.727 314.598 258.3 314.598 260.582V285.55C314.598 286.655 313.702 287.55 312.598 287.55H284.59C283.892 287.55 283.233 287.187 282.909 286.569C279.782 280.608 283.114 277.704 285.083 272.821C287.509 266.805 284.858 261.795 280.838 260.582C275.582 258.995 266.283 261.827 270.124 272.821C273.086 281.3 272.954 287.55 268.102 287.55H245.036C243.931 287.55 243.036 286.655 243.036 285.55Z" fill="black"/>
<path d="M315.634 309.413C316.916 311.64 319.561 316.458 319.885 317.915" stroke="#A0A0A0" stroke-width="2" stroke-linecap="round"/>
<path d="M310.573 310.627C309.899 312.449 309.561 317.874 313.61 325" stroke="#A0A0A0" stroke-width="2" stroke-linecap="round"/>
<path d="M302.881 309.413C300.249 311.842 294.865 317.51 294.379 320.749" stroke="#A0A0A0" stroke-width="2" stroke-linecap="round"/>
<path d="M311.383 190.587C314.014 188.158 319.399 182.49 319.885 179.251" stroke="#A0A0A0" stroke-width="2" stroke-linecap="round"/>
<path d="M303.691 189.373C304.366 187.551 304.703 182.126 300.655 175" stroke="#A0A0A0" stroke-width="2" stroke-linecap="round"/>
<path d="M298.63 190.587C297.348 188.36 294.703 183.542 294.379 182.085" stroke="#A0A0A0" stroke-width="2" stroke-linecap="round"/>
</svg>
