<svg width="600" height="500" viewBox="0 0 600 500" fill="none" xmlns="http://www.w3.org/2000/svg">
<path d="M250.043 240.692C246.917 239.368 243.478 238.635 239.869 238.635C225.456 238.635 213.771 250.319 213.771 264.732C213.771 279.146 225.456 290.83 239.869 290.83C254.282 290.83 265.967 279.146 265.967 264.732C265.967 258.433 263.735 252.655 260.018 248.145" stroke="black" stroke-width="2" stroke-linecap="round"/>
<path d="M304.671 217.182C308.431 229.641 323.957 257.036 355.982 266.944" stroke="#A0A0A0" stroke-width="2" stroke-linecap="round"/>
<path d="M355.981 270.262C356.94 283.606 358.282 312.151 355.981 319.582" stroke="#A0A0A0" stroke-width="2" stroke-linecap="round"/>
<path d="M357.309 322.677C363.133 326.143 375.09 328.339 376.329 309.407C377.568 290.475 375.371 266.575 374.117 256.991" stroke="#A0A0A0" stroke-width="2" stroke-linecap="round"/>
<path d="M377.877 262.077C383.848 255.221 401.542 230.672 380.973 194.843" stroke="#A0A0A0" stroke-width="2" stroke-linecap="round"/>
<path d="M375.887 188.872C365.492 178.255 359.963 174.235 352.886 180.026C350.232 182.197 349.568 187.103 353.549 193.295" stroke="#A0A0A0" stroke-width="2" stroke-linecap="round"/>
<path d="M296.93 191.968C296.045 186.217 297.839 177.19 305.556 175.159C309.758 174.053 315.508 178.974 317.056 181.794" stroke="#A0A0A0" stroke-width="2" stroke-linecap="round"/>
<path d="M324.797 207.228C328.255 221.945 340.896 249.678 363.817 243.094C363.899 243.07 363.981 243.038 364.056 242.998C369.991 239.808 375.951 227.646 365.049 210.767" stroke="#A0A0A0" stroke-width="2" stroke-linecap="round"/>
<path d="M326.124 210.989L352.664 194.843C356.886 191.641 367.344 186.053 375.782 188.975C375.996 189.05 376.185 189.184 376.331 189.357L380.344 194.099C380.719 194.542 380.763 195.178 380.446 195.663C374.974 204.037 371.003 206.059 363.501 210.989" stroke="black" stroke-width="2" stroke-linecap="round"/>
<path d="M307.545 225.364L264.639 255.443" stroke="black" stroke-width="2" stroke-linecap="round"/>
<path d="M332.096 225.585C347.799 218.729 347.135 218.729 363.723 210.988" stroke="black" stroke-width="2" stroke-linecap="round"/>
<path d="M266.188 260.31L312.854 235.539" stroke="black" stroke-width="2" stroke-linecap="round"/>
<path d="M337.537 215.872L355.894 205.478" stroke="black" stroke-width="2" stroke-linecap="round"/>
<path d="M304.007 213.2C302.414 215.854 299.584 217.623 297.372 219.171L219.742 279.55C218.444 280.327 217.387 279.112 216.944 278.227C216.147 276.633 216.867 275.807 217.309 275.348C245.029 246.596 289.941 200.328 294.718 194.843" stroke="black" stroke-width="2" stroke-linecap="round"/>
<path d="M317.056 181.794C319.566 185.089 322.428 189.904 324.664 194.493C324.752 194.673 324.797 194.87 324.797 195.069V207.671" stroke="#A0A0A0" stroke-width="2" stroke-linecap="round"/>
<path d="M257.917 242.191L294.41 208.353" stroke="black" stroke-width="2" stroke-linecap="round"/>
<path d="M293.391 240.626L305.112 232.442" stroke="black" stroke-width="2" stroke-linecap="round"/>
<path d="M304.007 213.421C305.703 208.997 312.102 199.045 324.133 194.622" stroke="black" stroke-width="2" stroke-linecap="round"/>
<path d="M294.939 194.623C300.174 191.232 312.633 185.113 320.595 187.767" stroke="black" stroke-width="2" stroke-linecap="round"/>
<path d="M227.262 310.292C237.156 310.292 245.177 308.312 245.177 305.869C245.177 303.426 237.156 301.446 227.262 301.446C217.368 301.446 209.348 303.426 209.348 305.869C209.348 308.312 217.368 310.292 227.262 310.292Z" fill="#A0A0A0"/>
<path d="M216.425 253.233C220.701 250.062 228.81 245.933 238.763 253.233" stroke="black" stroke-width="2" stroke-linecap="round"/>
<path d="M244.292 260.752C247.536 264.438 253.05 275.173 249.158 288.62" stroke="black" stroke-width="2" stroke-linecap="round"/>
</svg>
