<svg width="600" height="500" viewBox="0 0 600 500" fill="none" xmlns="http://www.w3.org/2000/svg">
<path d="M235.987 296.469C237.447 292.346 236.83 288.689 235.987 283.693C234.933 277.447 233.176 263.424 242.077 254.469C249.199 247.304 257.304 243.627 260.466 242.685" stroke="#A0A0A0" stroke-width="2" stroke-linecap="round"/>
<path d="M253.938 296.297C254.448 294.513 259.454 286.756 258.818 281.523C258.589 280.034 258.749 276.61 261.91 274.823" stroke="#A0A0A0" stroke-width="2" stroke-linecap="round"/>
<path d="M251.087 261.252C253.492 257.3 260.02 252.147 265.173 251.288C270.327 250.429 270.783 253.933 270.118 255.42C269.121 257.651 266.952 260.117 262.613 264.814C258.315 269.468 255.968 278.084 255.695 282.194" stroke="#A0A0A0" stroke-width="2" stroke-linecap="round"/>
<path d="M336.257 247.347C332.917 244.481 324.61 239.408 318.104 242.047C317.514 242.282 316.288 243.389 316.1 245.934" stroke="#A0A0A0" stroke-width="2" stroke-linecap="round"/>
<path d="M353.231 288.575C352.917 287.319 352.264 283.298 352.641 280.094C353.113 276.089 352.686 260.972 346.085 256.614" stroke="#A0A0A0" stroke-width="2" stroke-linecap="round"/>
<path d="M352.097 256.957L338.521 256.067" stroke="black" stroke-width="2" stroke-linecap="round"/>
<ellipse cx="352.028" cy="252.82" rx="3.60751" ry="4.9818" fill="black"/>
<path d="M347.152 255.673C345.32 252.704 346.665 250.308 347.95 249.131C348.271 248.836 348.709 248.723 349.144 248.744L351.478 248.852C352.58 248.903 353.432 249.837 353.383 250.939L353.209 254.834C353.158 255.986 352.147 256.855 351 256.734L348.492 256.468C347.948 256.41 347.439 256.138 347.152 255.673Z" fill="black"/>
<path d="M307.907 248.886C307.807 249.774 306.826 250.266 306.055 249.815C305.13 249.275 305.284 247.894 306.305 247.57C307.158 247.299 308.007 247.997 307.907 248.886Z" fill="black"/>
<path d="M261.768 251.976L260.123 206.603C260.123 199.906 261.369 188.557 275.282 188.745C289.196 188.933 296.748 188.824 298.785 188.745" stroke="black" stroke-width="2" stroke-linecap="round"/>
<path d="M314.767 188.746H338.152C344.615 188.864 350.138 191.683 350.138 202.491C350.138 213.3 349.819 235.895 349.349 247.682" stroke="black" stroke-width="2" stroke-linecap="round"/>
<path d="M329.765 303.684C320.129 304.389 294.358 306.267 278.807 306.933C272.226 306.933 263.507 306.087 262.473 294.245L261.768 265.932" stroke="black" stroke-width="2" stroke-linecap="round"/>
<circle cx="306.677" cy="183.418" r="4.32537" stroke="black" stroke-width="2"/>
<path d="M299.391 186.325C300.234 188.764 299.039 190.546 296.346 191.132C295.058 191.413 293.255 191.437 289.789 192.656C285.457 194.181 284.637 198.519 284.52 202.271C284.427 205.272 286.16 206.257 289.204 206.374C298.064 206.335 317.04 206.609 322.106 206.609C327.375 206.609 328.141 204.615 328.312 203.326C329.155 196.948 326.907 194.391 324.916 193.477C323.98 193.047 321.24 191.976 317.774 191.132C314.308 190.288 313.684 189.139 314.027 187.498C314.87 183.464 314.378 180.189 314.027 179.056C313.637 177.493 311.357 174.507 305.362 175.07C297.868 175.773 298.337 183.277 299.391 186.325Z" stroke="black" stroke-width="2" stroke-linecap="round"/>
<path d="M340.415 246.822L340.862 203.36C340.862 202.422 340.33 200.78 338.164 200.78C335.935 200.78 330.93 200.858 328.662 200.78" stroke="black" stroke-width="2" stroke-linecap="round"/>
<path d="M283.969 200.78H273.178C272.004 200.663 269.752 201.343 270.128 205.002C270.503 208.662 272.317 265.402 273.178 293.315C273.138 294.723 273.764 297.491 276.579 297.303C278.721 297.16 312.05 295.283 331.998 294.407" stroke="black" stroke-width="2" stroke-linecap="round"/>
<path d="M343.68 247.338L344.298 204.167C344.298 202.875 343.735 200.994 340.544 201.464" stroke="black" stroke-width="2" stroke-linecap="round"/>
<path d="M271.095 201.112C269.922 201.112 267.223 201.112 267.341 204.168C267.453 207.104 268.514 237.173 268.866 251.118" stroke="black" stroke-width="2" stroke-linecap="round"/>
<path d="M268.866 257.871L269.922 294.535C270.039 295.828 270.509 297.708 276.14 297.238" stroke="black" stroke-width="2" stroke-linecap="round"/>
<path d="M282.455 221.039H304.444" stroke="black" stroke-width="2" stroke-linecap="round"/>
<path d="M282.603 228.839L330.075 228.604" stroke="black" stroke-width="2" stroke-linecap="round"/>
<path d="M282.72 236.712L319.969 236.36" stroke="black" stroke-width="2" stroke-linecap="round"/>
<path d="M283.078 248.94L301.403 248.111" stroke="black" stroke-width="2" stroke-linecap="round"/>
<path d="M345.055 248.197C344.196 249.8 342.306 251.976 344.367 256.099" stroke="black" stroke-width="2" stroke-linecap="round"/>
<path d="M317.74 267.298C316.594 268.662 315.953 272.556 322.55 277.229C325.814 279.347 332.582 285.784 333.544 294.579" stroke="#A0A0A0" stroke-width="2" stroke-linecap="round"/>
<path d="M316.022 253.521C315.408 254.672 315.139 256.887 317.053 259.009C317.996 260.055 319.469 261.077 321.691 261.939" stroke="#A0A0A0" stroke-width="2" stroke-linecap="round"/>
<path d="M317.053 259.009C315.825 260.785 314.705 264.428 317.74 267.297C318.526 268.04 321.137 269.419 322.55 270.013" stroke="#A0A0A0" stroke-width="2" stroke-linecap="round"/>
<path d="M340.908 324.645C337.243 316.112 332.113 297.64 340.908 292.005C351.903 284.962 366.161 300.938 371.143 314.681" stroke="#A0A0A0" stroke-width="2" stroke-linecap="round"/>
<path d="M352.269 248.711L311.833 245.8C311.61 245.784 311.38 245.805 311.166 245.868C305.548 247.511 307.652 250.637 309.723 252.452C310.016 252.709 310.388 252.853 310.775 252.888L319.63 253.693" stroke="black" stroke-width="2" stroke-linecap="round"/>
<path d="M228.857 317.942C229.716 309.925 235.695 293.563 245.864 295.625C256.034 297.686 258.805 316.067 258.92 325" stroke="#A0A0A0" stroke-width="2" stroke-linecap="round"/>
<path d="M329.25 272.075C322.722 264.688 318.943 258.847 319.802 251.46C320.28 247.343 322.651 245.645 324.822 247.701C327.704 250.43 329.937 253.865 333.074 255.24C333.689 255.526 335.64 256.099 338.526 256.099" stroke="#A0A0A0" stroke-width="2" stroke-linecap="round"/>
</svg>
