<svg width="600" height="500" viewBox="0 0 600 500" fill="none" xmlns="http://www.w3.org/2000/svg">
<path d="M390.962 359.036C380.57 350.568 394.65 349.574 402.989 350.135V355.668L422.955 360.72C416.621 363.687 401.354 367.503 390.962 359.036Z" fill="#A0A0A0"/>
<path d="M445.568 353.984C438.833 354.754 436.828 351.739 436.668 350.135H451.101C452.063 351.098 452.304 353.215 445.568 353.984Z" fill="#A0A0A0"/>
<path d="M430.413 330.651C422.956 330.651 418.866 330.17 412.853 329.689" stroke="#A0A0A0" stroke-width="2" stroke-linecap="round"/>
<path d="M436.187 333.538V356.631" stroke="#A0A0A0" stroke-width="2" stroke-linecap="round"/>
<path d="M418.867 334.74L402.99 333.538" stroke="#A0A0A0" stroke-width="2" stroke-linecap="round"/>
<path d="M426.323 337.146V360.479" stroke="#A0A0A0" stroke-width="2" stroke-linecap="round"/>
<path d="M426.083 360.961L436.186 356.871" stroke="#A0A0A0" stroke-width="2" stroke-linecap="round"/>
<path d="M412.612 329.689L402.99 333.538" stroke="#A0A0A0" stroke-width="2" stroke-linecap="round"/>
<path d="M402.749 333.778V355.909" stroke="#A0A0A0" stroke-width="2" stroke-linecap="round"/>
<path d="M402.509 355.668L426.083 360.961" stroke="#A0A0A0" stroke-width="2" stroke-linecap="round"/>
<path d="M430.413 331.132V324.396" stroke="#A0A0A0" stroke-width="2" stroke-linecap="round"/>
<path d="M451.341 349.895V326.561" stroke="#A0A0A0" stroke-width="2" stroke-linecap="round"/>
<path d="M462.647 318.864V344.843" stroke="#A0A0A0" stroke-width="2" stroke-linecap="round"/>
<path d="M451.341 350.376L462.647 344.843" stroke="#A0A0A0" stroke-width="2" stroke-linecap="round"/>
<path d="M462.647 318.623L437.148 317.661" stroke="#A0A0A0" stroke-width="2" stroke-linecap="round"/>
<path d="M430.413 324.397L437.149 317.661" stroke="#A0A0A0" stroke-width="2" stroke-linecap="round"/>
<path d="M451.341 326.321L462.406 319.104" stroke="#A0A0A0" stroke-width="2" stroke-linecap="round"/>
<path d="M451.341 349.896H437.148" stroke="#A0A0A0" stroke-width="2" stroke-linecap="round"/>
<path d="M430.654 324.396L444.366 324.878" stroke="#A0A0A0" stroke-width="2" stroke-linecap="round"/>
<path d="M238.436 369.162C238.676 362.426 265.618 364.591 267.302 364.832V369.162L275.481 374.935C263.052 375.256 238.243 374.55 238.436 369.162Z" fill="#A0A0A0"/>
<path d="M305.31 368.44V343.903" stroke="#A0A0A0" stroke-width="2" stroke-linecap="round"/>
<path d="M284.381 374.694V347.752" stroke="#A0A0A0" stroke-width="2" stroke-linecap="round"/>
<path d="M267.062 368.44V341.498" stroke="#A0A0A0" stroke-width="2" stroke-linecap="round"/>
<path d="M267.062 341.498L286.065 336.687" stroke="#A0A0A0" stroke-width="2" stroke-linecap="round"/>
<path d="M305.309 343.663L284.381 347.512" stroke="#A0A0A0" stroke-width="2" stroke-linecap="round"/>
<path d="M284.381 374.935L305.309 368.68" stroke="#A0A0A0" stroke-width="2" stroke-linecap="round"/>
<path d="M305.309 343.663L286.064 336.687" stroke="#A0A0A0" stroke-width="2" stroke-linecap="round"/>
<path d="M267.062 341.738L284.622 347.512" stroke="#A0A0A0" stroke-width="2" stroke-linecap="round"/>
<path d="M328.761 367.959C324.334 360.261 338.463 359.138 346.08 359.539V365.072L370.857 367.959C358.669 371.166 333.187 375.656 328.761 367.959Z" fill="#A0A0A0"/>
<path d="M383.125 357.615L373.743 367.237" stroke="#A0A0A0" stroke-width="2" stroke-linecap="round"/>
<path d="M371.579 337.889L347.283 336.206" stroke="#A0A0A0" stroke-width="2" stroke-linecap="round"/>
<path d="M357.146 329.951L383.125 331.154" stroke="#A0A0A0" stroke-width="2" stroke-linecap="round"/>
<path d="M346.801 336.206L345.599 364.11" stroke="#A0A0A0" stroke-width="2" stroke-linecap="round"/>
<path d="M383.125 331.635V357.134" stroke="#A0A0A0" stroke-width="2" stroke-linecap="round"/>
<path d="M373.743 346.79V367.237" stroke="#A0A0A0" stroke-width="2" stroke-linecap="round"/>
<path d="M346.802 336.206L357.146 329.951" stroke="#A0A0A0" stroke-width="2" stroke-linecap="round"/>
<path d="M373.744 367.237L345.358 364.351" stroke="#A0A0A0" stroke-width="2" stroke-linecap="round"/>
<path d="M323.744 187.671C324.787 187.35 327.545 187.045 330.239 188.392" stroke="black" stroke-width="2" stroke-linecap="round"/>
<path d="M314.122 200.18C315.982 200.18 317.489 198.564 317.489 196.571C317.489 194.579 315.982 192.963 314.122 192.963C312.262 192.963 310.754 194.579 310.754 196.571C310.754 198.564 312.262 200.18 314.122 200.18Z" fill="black"/>
<path d="M341.545 204.991C343.405 204.991 344.913 203.375 344.913 201.382C344.913 199.39 343.405 197.774 341.545 197.774C339.686 197.774 338.178 199.39 338.178 201.382C338.178 203.375 339.686 204.991 341.545 204.991Z" fill="black"/>
<path d="M305.943 190.798C306.184 189.274 307.675 186.372 311.717 186.949" stroke="black" stroke-width="2" stroke-linecap="round"/>
<path d="M336.734 190.317C338.659 188.633 343.47 186.276 347.319 190.317" stroke="black" stroke-width="2" stroke-linecap="round"/>
<path d="M326.39 194.406C328.636 198.095 331.779 206.001 326.39 208.118L323.744 209.08" stroke="black" stroke-width="2" stroke-linecap="round"/>
<path d="M317.249 216.537C317.81 218.061 319.943 220.579 323.985 218.462" stroke="black" stroke-width="2" stroke-linecap="round"/>
<path d="M239.79 181.176C231.9 207.156 253.822 225.999 265.77 232.173C276.547 225.63 291.91 222.31 298.485 221.348C290.307 214.613 287.821 202.264 287.179 196.571C282.85 198.015 271.303 192.482 276.595 181.176C280.829 172.131 285.415 176.766 287.179 180.214L298.967 185.506C298.967 174.537 306.504 170.832 310.273 170.351C312.582 168.811 315.084 163.776 316.046 161.451C317.201 170.495 329.036 177.086 334.809 179.251C342.314 173.286 348.36 176.766 350.445 179.251L355.737 178.53C366.081 175.002 384.652 162.942 376.184 142.928C367.717 122.914 350.204 126.57 342.507 130.9C316.142 113.388 289.665 138.999 279.722 153.993C269.699 152.229 247.681 155.196 239.79 181.176Z" fill="black"/>
<path d="M298.726 185.746L287.18 179.733" stroke="black" stroke-width="2" stroke-linecap="round"/>
<path d="M323.503 185.265C323.503 193.562 317.833 199.939 311.235 199.939C304.637 199.939 298.967 193.562 298.967 185.265C298.967 176.968 304.637 170.592 311.235 170.592C317.833 170.592 323.503 176.968 323.503 185.265Z" stroke="black" stroke-width="2"/>
<path d="M355.257 190.558C355.257 198.854 349.587 205.231 342.989 205.231C336.391 205.231 330.721 198.854 330.721 190.558C330.721 182.26 336.391 175.884 342.989 175.884C349.587 175.884 355.257 182.26 355.257 190.558Z" stroke="black" stroke-width="2"/>
<path d="M355.738 236.929C374.212 222.111 363.676 202.129 355.978 193.87C351.745 213.884 341.946 222.496 337.696 224.42L344.432 228.029L355.738 236.929Z" fill="black"/>
<path d="M288.624 185.265C288.223 180.855 283.091 170.351 277.559 180.214C275.153 184.704 273.421 194.31 285.737 196.812" stroke="black" stroke-width="2" stroke-linecap="round"/>
<path d="M284.534 183.582C283.411 184.544 281.743 187.046 284.053 189.355" stroke="black" stroke-width="2" stroke-linecap="round"/>
<path d="M354.295 196.09C352.948 203.788 349.965 210.76 346.837 215.094C344.882 217.803 341.714 221.224 337.675 224.205" stroke="black" stroke-width="2" stroke-linecap="round"/>
<path d="M286.939 196.812C286.779 206.594 290.596 221.108 308.109 228.806C310.802 229.99 313.451 230.669 316.025 230.943" stroke="black" stroke-width="2" stroke-linecap="round"/>
<path d="M336.013 240.593C332.164 239.63 328.476 242.758 327.112 244.442C326.39 245.965 326.054 248.964 330.48 248.772C336.013 248.531 337.696 240.593 344.191 253.342C349.387 263.541 349.724 283.571 349.243 292.312" stroke="black" stroke-width="2" stroke-linecap="round" stroke-linejoin="round"/>
<path d="M323.42 237.946C322.165 240.673 321.146 245.788 327.112 244.441" stroke="black" stroke-width="2" stroke-linecap="round" stroke-linejoin="round"/>
<path d="M325.742 228.565C322.374 230.008 317.49 235.204 319.415 238.668C319.655 239.069 320.377 239.823 321.339 239.63C321.761 239.546 322.448 238.813 323.421 237.947C325.226 236.34 328.016 234.279 331.923 235.06" stroke="black" stroke-width="2" stroke-linecap="round" stroke-linejoin="round"/>
<path d="M393.058 311.166C395.463 299.379 393.12 271.72 363.676 245.163L344.191 228.084L331.923 221.589L329.518 221.108L320.377 223.273L319.414 224.235L316.287 230.008C315.806 231.211 317.875 232.606 321.339 231.451" stroke="black" stroke-width="2" stroke-linecap="round" stroke-linejoin="round"/>
<path d="M297.764 222.311C282.128 224.395 241.537 233.358 216.938 269.7C193.755 303.95 219.975 318.383 239.46 319.105" stroke="black" stroke-width="2" stroke-linecap="round" stroke-linejoin="round"/>
<path d="M129.893 323.915L238.382 318.623" stroke="black" stroke-width="2" stroke-linecap="round" stroke-linejoin="round"/>
<path d="M267.971 317.421L470.107 308.614" stroke="black" stroke-width="2" stroke-linecap="round"/>
<path d="M249.951 319.474C250.248 320.396 250.029 321.059 248.871 321.159C245.442 321.453 241.37 316.137 239.763 313.443" stroke="black" stroke-width="2" stroke-linecap="round"/>
<path d="M249.943 309.034C251.654 311.769 254.638 315.982 257.254 318.372C257.016 320.209 255.221 323.001 249.951 319.474C249.149 316.985 244.585 312.609 244.585 312.341" stroke="black" stroke-width="2" stroke-linecap="round"/>
<path d="M254.585 306.463C257.858 310.076 263.8 317.816 261.371 319.873C260.94 320.237 260.392 320.273 259.764 320.059C259.016 319.804 258.157 319.197 257.253 318.372C254.637 315.982 251.653 311.769 249.941 309.034" stroke="black" stroke-width="2" stroke-linecap="round"/>
<path d="M227.674 315.878C233.15 309.02 250.657 294.155 260.658 303.156C264.646 307.136 269.617 314.33 266.759 317.269C265.331 318.372 262.238 316.902 260.243 313.963" stroke="black" stroke-width="2" stroke-linecap="round"/>
<path d="M247.183 276.767C243.735 279.493 238.33 286.581 244.296 293.124" stroke="black" stroke-width="2" stroke-linecap="round"/>
</svg>
