<svg width="600" height="500" viewBox="0 0 600 500" fill="none" xmlns="http://www.w3.org/2000/svg">
<path d="M240.06 308.709C222.619 294.724 264.325 287.613 287.353 286.11C287.82 286.079 288.233 286.387 288.368 286.835C295.29 309.713 312.865 318.998 320.92 321.225C301.649 323.145 257.703 322.854 240.06 308.709Z" fill="#A0A0A0"/>
<ellipse cx="338.404" cy="232.817" rx="2.38406" ry="2.38406" fill="black"/>
<ellipse cx="338.404" cy="310.695" rx="2.38406" ry="2.38406" fill="black"/>
<ellipse cx="377.344" cy="271.755" rx="2.38406" ry="2.38406" fill="black"/>
<ellipse cx="299.464" cy="271.755" rx="2.38406" ry="2.38406" fill="black"/>
<path d="M338.403 267.192C341.143 267.192 343.363 269.413 343.363 272.152C343.363 274.892 341.143 277.112 338.403 277.112C335.664 277.112 333.443 274.892 333.443 272.152C333.443 269.413 335.664 267.192 338.403 267.192Z" stroke="black" stroke-width="2"/>
<path d="M318.537 272.153H333.636" stroke="black" stroke-width="2" stroke-linecap="round"/>
<path d="M253.769 234.605C251.981 234.34 247.968 233.572 246.22 232.618" stroke="#A0A0A0" stroke-width="2" stroke-linecap="round"/>
<path d="M295.69 240.962C290.325 241.426 278.246 241.598 268.074 237.783" stroke="#A0A0A0" stroke-width="2" stroke-linecap="round"/>
<path d="M285.557 268.776C271.849 269.107 242.723 268.418 230.326 263.809" stroke="#A0A0A0" stroke-width="2" stroke-linecap="round"/>
<path d="M251.386 282.881C237.545 282.418 206.804 280.497 194.565 276.524" stroke="#A0A0A0" stroke-width="2" stroke-linecap="round"/>
<path d="M338.404 267.584V241.558" stroke="black" stroke-width="2" stroke-linecap="round"/>
<path d="M387.675 255.465C393.834 255.862 406.549 259.24 405.357 251.492C404.773 247.696 400.903 246.85 398.583 246.892C398.225 246.898 397.883 246.741 397.665 246.457C394.974 242.943 388.625 237.974 382.085 243.145" stroke="#A0A0A0" stroke-width="2" stroke-linecap="round"/>
<path d="M313.57 202.317C315.16 195.827 322.908 184.794 341.186 192.582L346.947 195.466" stroke="#A0A0A0" stroke-width="2" stroke-linecap="round"/>
<path d="M341.186 192.581C345.093 189.932 354.695 187.098 359.463 196.952" stroke="#A0A0A0" stroke-width="2" stroke-linecap="round"/>
<path d="M305.425 202.913H320.127" stroke="#A0A0A0" stroke-width="2" stroke-linecap="round"/>
<path d="M257.359 186.142C256.813 182.744 253.492 180.097 249.397 180.097C248.624 180.097 247.851 180.216 247.168 180.374C245.075 177.173 241.117 175 236.568 175C229.835 175 224.421 179.741 224.421 185.55" stroke="#A0A0A0" stroke-width="2" stroke-miterlimit="10" stroke-linecap="round" stroke-linejoin="round"/>
<path d="M257.359 186.142C262.227 186.656 266.003 190.251 266.003 194.637C266.003 199.379 261.59 203.211 256.131 203.211L229.334 203.172H226.605C221.145 203.172 216.732 199.339 216.732 194.598C216.732 190.488 220.054 187.09 224.467 186.221C226.468 185.813 231.691 185.052 236.568 185.273M257.359 186.221C255.873 185.971 251.945 186.182 248.124 189.027" stroke="#A0A0A0" stroke-width="2" stroke-miterlimit="10" stroke-linecap="round" stroke-linejoin="round"/>
<circle cx="338.404" cy="271.757" r="46.2839" stroke="black" stroke-width="2"/>
<path d="M338.404 219.512C367.258 219.512 390.648 242.902 390.648 271.756C390.648 300.609 367.258 324 338.404 324C309.551 324 286.16 300.609 286.16 271.756C286.16 242.902 309.551 219.512 338.404 219.512Z" stroke="black" stroke-width="2"/>
</svg>
