<svg width="600" height="500" viewBox="0 0 600 500" fill="none" xmlns="http://www.w3.org/2000/svg">
<path d="M268.287 183.787C294.081 179.604 319.814 203.382 325.354 237.546C330.895 271.709 313.996 302.401 288.202 306.584C262.408 310.767 236.676 286.99 231.135 252.827C225.595 218.663 242.492 187.971 268.287 183.787Z" stroke="black" stroke-width="2"/>
<path d="M272.4 197.256C281.845 195.724 291.313 199.485 298.995 206.962C306.678 214.44 312.518 225.592 314.637 238.656C316.756 251.721 314.739 264.148 309.814 273.67C304.888 283.192 297.095 289.752 287.65 291.284C278.204 292.816 268.736 289.056 261.053 281.578C253.371 274.1 247.53 262.948 245.412 249.883C243.293 236.819 245.31 224.393 250.235 214.87C255.16 205.348 262.955 198.788 272.4 197.256Z" stroke="black" stroke-width="2"/>
<ellipse cx="283.352" cy="244.791" rx="18.1809" ry="24.5142" transform="rotate(-9.21208 283.352 244.791)" fill="black"/>
<path d="M241.577 300.171C274.408 331.772 310.933 313.304 318.731 293.4C315.258 313.254 291.732 324.518 272.151 325C250.605 325 223.724 307.148 216.337 290.937C189.153 231.283 230.564 189.296 251.221 183.414C212.438 201.677 206.291 266.208 241.577 300.171Z" fill="black"/>
<path d="M283.026 239.432L341.508 202.042L353.204 194.699" stroke="#A0A0A0" stroke-width="2" stroke-linecap="round"/>
<path d="M340.071 199.009L341.43 189.689C341.479 189.358 341.689 189.073 341.992 188.93L365.418 177.843C366.311 177.42 367.211 178.411 366.704 179.259L361.607 187.8C361.231 188.431 361.64 189.239 362.372 189.308L373.177 190.33C374.114 190.419 374.421 191.636 373.637 192.158L353.604 205.513C353.351 205.682 353.035 205.726 352.745 205.634L341.508 202.042" stroke="#A0A0A0" stroke-width="2" stroke-linecap="round"/>
<path d="M285.283 243.742L358.49 217.522L371.48 212.835" stroke="#A0A0A0" stroke-width="2" stroke-linecap="round"/>
<path d="M357.732 214.253L361.042 205.436C361.16 205.122 361.427 204.889 361.753 204.813L387 198.962C387.963 198.739 388.631 199.898 387.956 200.619L381.159 207.881C380.657 208.417 380.886 209.294 381.586 209.517L391.926 212.813C392.823 213.099 392.864 214.353 391.988 214.697L369.573 223.486C369.289 223.597 368.971 223.574 368.708 223.421L358.491 217.522" stroke="#A0A0A0" stroke-width="2" stroke-linecap="round"/>
<path d="M342.417 235.313L346.828 227.962C347 227.676 347.302 227.495 347.634 227.478L370.573 226.299C371.559 226.249 372.014 227.506 371.224 228.098L364.305 233.282C363.721 233.72 363.788 234.616 364.43 234.962L372.665 239.403C373.488 239.848 373.305 241.079 372.387 241.264L351.354 245.5C351.05 245.561 350.736 245.479 350.502 245.276L342.528 238.372" stroke="#A0A0A0" stroke-width="2" stroke-linecap="round"/>
<path d="M286.515 248.05L342.528 238.371L354.807 236.249" stroke="#A0A0A0" stroke-width="2" stroke-linecap="round"/>
</svg>
