<svg width="800" height="500" viewBox="0 0 800 500" fill="none" xmlns="http://www.w3.org/2000/svg">
<path d="M343.379 405.428C354.382 371.636 372.469 314.36 377.617 290.228C377.639 290.127 377.7 290.045 377.787 289.991C400.221 276.037 424.487 268.446 432.648 266.931C432.748 266.913 432.844 266.938 432.928 266.996C453.714 281.528 466.574 290.409 474.524 297.971C494.74 317.2 498.588 354.072 498.234 378.072C498.234 378.209 498.158 378.33 498.041 378.395L489.706 383C489.501 383.113 489.247 383.016 489.163 382.798C482.36 364.513 469.673 350.082 461.372 323.858C461.378 324.07 461.196 324.257 460.971 324.251C438.416 323.675 437.51 322.376 417.156 316.156C405.01 354.898 370.324 393.127 353.118 409.57C353.009 409.673 352.855 409.698 352.717 409.641L343.598 405.891C343.414 405.815 343.317 405.617 343.379 405.428Z" fill="black"/>
<path d="M404.706 181.588C406.605 178.739 427.258 171.145 419.602 144.294C426.271 141.321 427.379 134.228 421.248 134.231C414.573 133.93 412.628 128.636 412.222 125.176C411.96 120.514 410.148 116.327 409.415 115.614" stroke="black" stroke-width="2" stroke-linecap="round"/>
<path d="M409.867 137.618C410.747 137.226 410.983 135.838 410.395 134.517C409.806 133.197 408.615 132.445 407.735 132.837C406.855 133.23 406.619 134.618 407.207 135.938C407.796 137.259 408.987 138.011 409.867 137.618Z" fill="black"/>
<path d="M402.085 131.359C402.648 129.667 404.714 126.62 408.476 127.969" stroke="black" stroke-width="2" stroke-linecap="round"/>
<path d="M405.163 157.853C408.637 160.047 411.279 159.909 414.687 155.894" stroke="black" stroke-width="2" stroke-linecap="round"/>
<path d="M378.421 143.573C378.425 144.824 379.111 147.355 381.816 147.466" stroke="black" stroke-width="2" stroke-linecap="round"/>
<path d="M350.185 143.684C354.099 158.991 367.063 165.907 376.675 171.385C381.374 165.132 387.927 152.386 383.598 153.327C379.048 154.315 369.508 145.051 371.935 139.759C374.781 133.55 381.838 137.718 384.78 141.986L385.556 133.686C382.376 129.594 378.255 121.744 387.224 123.082C396.192 124.421 405.761 118.588 409.425 115.505C414.973 105.781 421.471 86.0625 403.083 84.9796C387.789 84.0789 375.615 99.7098 369.282 111.637C361.874 112.931 344.848 122.813 350.185 143.684Z" fill="black"/>
<path d="M376.699 170.228C381.338 172.449 384.194 174.751 386.853 181.019" stroke="black" stroke-width="2" stroke-linecap="round"/>
<path d="M381.258 226.068C382.695 236.194 383.59 263.128 375.864 290.715C375.766 291.063 376.161 291.351 376.458 291.143C384.725 285.353 406.325 273.218 434.115 266.038C434.299 265.99 434.423 265.821 434.401 265.632C432.594 250.344 431.62 218.208 440.445 209.802C440.493 209.756 440.548 209.727 440.613 209.712C458.81 205.511 497.421 192.129 508.68 171.224C508.695 171.193 508.707 171.161 508.714 171.127C509.523 167.347 510.078 159.629 505.979 158.301C505.9 158.274 505.812 158.279 505.732 158.311C478.857 169.179 448.903 178.18 410.405 185.008" stroke="black" stroke-width="2" stroke-linecap="round"/>
<path d="M381.258 238.984C362.872 259.041 345.764 266.679 332.722 272.377C323.61 277.022 303.852 280.355 312.692 265.955C350.678 218.547 359.035 210.304 367.962 202.137C373.089 197.446 375.37 194.54 388.285 191.121" stroke="black" stroke-width="2" stroke-linecap="round"/>
<path d="M328.076 419.8C327.316 414.862 342.068 407.644 344.601 406.315L352.388 409.354C351.78 413.153 349.855 415.368 348.969 416.002L328.076 419.8Z" stroke="black" stroke-width="2"/>
<path d="M493.318 389.411C490.279 388.803 490.154 384.473 490.469 382.383L497.307 378.965C499.396 379.534 504.98 381.016 510.602 382.383C516.224 383.751 515.476 385.612 514.401 386.372L493.318 389.411Z" stroke="black" stroke-width="2"/>
<path d="M453.86 426.258C453.86 439.371 443.231 450 430.119 450C417.006 450 406.377 439.371 406.377 426.258C406.377 413.146 417.006 402.517 430.119 402.517C443.231 402.517 453.86 413.146 453.86 426.258Z" fill="black"/>
<path d="M291.229 429.108L568.532 378.206" stroke="black" stroke-width="2" stroke-linecap="round"/>
<path d="M534.723 109.829H518.769C517.195 109.829 515.92 111.105 515.92 112.678V124.454C515.92 126.027 517.195 127.303 518.769 127.303H534.723C536.297 127.303 537.572 126.027 537.572 124.454V112.678C537.572 111.105 536.297 109.829 534.723 109.829Z" fill="black"/>
<path d="M561.694 105.271H551.058C549.485 105.271 548.209 106.546 548.209 108.12V123.314C548.209 124.888 549.485 126.163 551.058 126.163H561.694C563.268 126.163 564.543 124.888 564.543 123.314V108.12C564.543 106.546 563.268 105.271 561.694 105.271Z" stroke="#A0A0A0" stroke-width="2"/>
<path d="M588.665 95.7732H578.409C576.835 95.7732 575.56 97.0487 575.56 98.6222V123.314C575.56 124.887 576.835 126.163 578.409 126.163H588.665C590.238 126.163 591.514 124.887 591.514 123.314V98.6222C591.514 97.0487 590.238 95.7732 588.665 95.7732Z" stroke="#A0A0A0" stroke-width="2"/>
<path d="M616.395 86.0869H605.759C603.661 86.0869 601.96 87.7876 601.96 89.8856V123.314C601.96 125.412 603.661 127.113 605.759 127.113H616.395C618.493 127.113 620.194 125.412 620.194 123.314V89.8856C620.194 87.7876 618.493 86.0869 616.395 86.0869Z" fill="#A0A0A0"/>
<path d="M644.505 103.751H634.248C632.675 103.751 631.399 105.027 631.399 106.6V123.314C631.399 124.888 632.675 126.163 634.248 126.163H644.505C646.078 126.163 647.354 124.888 647.354 123.314V106.6C647.354 105.027 646.078 103.751 644.505 103.751Z" stroke="#A0A0A0" stroke-width="2"/>
<path d="M672.995 113.247H662.359C660.785 113.247 659.51 114.523 659.51 116.096V123.314C659.51 124.887 660.785 126.163 662.359 126.163H672.995C674.569 126.163 675.844 124.887 675.844 123.314V116.096C675.844 114.523 674.569 113.247 672.995 113.247Z" stroke="#A0A0A0" stroke-width="2"/>
<path d="M611.27 80.8661C610.966 81.2157 610.427 81.2157 610.123 80.8661L606.849 77.0879C606.423 76.5959 606.773 75.8306 607.422 75.8306H613.971C614.621 75.8306 614.97 76.5959 614.545 77.0879L611.27 80.8661Z" fill="#A0A0A0"/>
<path d="M629.691 49.9998H592.844C590.746 49.9998 589.045 51.7005 589.045 53.7984V74.3112C589.045 76.4092 590.746 78.1099 592.844 78.1099H629.691C631.789 78.1099 633.489 76.4092 633.489 74.3112V53.7984C633.489 51.7005 631.789 49.9998 629.691 49.9998Z" fill="#A0A0A0"/>
<path d="M627.031 62.915H602.72C601.88 62.915 601.2 63.5953 601.2 64.4345C601.2 65.2737 601.88 65.954 602.72 65.954H627.031C627.87 65.954 628.551 65.2737 628.551 64.4345C628.551 63.5953 627.87 62.915 627.031 62.915Z" fill="white"/>
<path d="M596.642 64.435C596.642 63.8056 596.131 63.2954 595.502 63.2954C594.873 63.2954 594.362 63.8056 594.362 64.435C594.362 65.0644 594.873 65.5746 595.502 65.5746C596.131 65.5746 596.642 65.0644 596.642 64.435Z" stroke="white" stroke-width="2"/>
<path d="M612.596 70.1326H602.72C601.88 70.1326 601.2 70.8129 601.2 71.652C601.2 72.4912 601.88 73.1715 602.72 73.1715H612.596C613.435 73.1715 614.116 72.4912 614.116 71.652C614.116 70.8129 613.435 70.1326 612.596 70.1326Z" fill="white"/>
<path d="M605.379 55.3174H595.503C594.664 55.3174 593.983 55.9977 593.983 56.8369C593.983 57.676 594.664 58.3563 595.503 58.3563H605.379C606.219 58.3563 606.899 57.676 606.899 56.8369C606.899 55.9977 606.219 55.3174 605.379 55.3174Z" fill="white"/>
<path d="M597.022 71.652C597.022 70.8129 596.342 70.1326 595.503 70.1326C594.664 70.1326 593.983 70.8129 593.983 71.652C593.983 72.4912 594.664 73.1715 595.503 73.1715C596.342 73.1715 597.022 72.4912 597.022 71.652Z" fill="white"/>
<path d="M181.053 344.383C187.023 341.313 193.832 340.28 200.444 341.441C207.056 342.602 213.107 345.893 217.674 350.813C222.241 355.733 225.073 362.012 225.74 368.692C226.406 375.371 224.87 382.086 221.366 387.811C217.861 393.536 212.58 397.959 206.328 400.403C200.076 402.848 193.196 403.181 186.737 401.351C180.278 399.522 174.595 395.63 170.554 390.27C166.513 384.91 164.335 378.375 164.354 371.662L195.123 371.747L181.053 344.383Z" stroke="#A0A0A0" stroke-width="2"/>
<path d="M158.655 368.329C158.655 362.772 160.198 357.325 163.111 352.593C166.025 347.862 170.195 344.032 175.157 341.531L188.665 368.329H158.655Z" fill="#A0A0A0"/>
<path d="M540.354 157.922C540.787 158.93 540.946 161.159 538.458 162.51C538.276 162.611 538.074 162.706 537.862 162.796C534.751 164.095 533.976 161.958 533.976 160.728V159.474" stroke="black" stroke-width="2" stroke-linecap="round"/>
<path d="M539.95 154.82C540.786 155.324 541.93 156.604 540.353 157.922C540.235 158.02 540.102 158.118 539.95 158.217C538.131 159.416 535.544 159.573 533.975 159.474C533.686 159.456 533.436 159.429 533.227 159.399C532.38 159.162 531.016 158.243 532.33 156.459" stroke="black" stroke-width="2" stroke-linecap="round"/>
<path d="M539.355 151.127C540.202 151.324 541.657 152.102 540.7 153.638C539.742 155.174 534.922 156.149 532.631 156.444C532.532 156.454 532.434 156.459 532.331 156.459C531.427 156.455 530.538 156.017 530.538 154.82C530.538 153.128 532.73 152.555 533.228 152.457" stroke="black" stroke-width="2" stroke-linecap="round"/>
<path d="M534.344 146.107C535.191 146.451 535.708 147.702 533.675 148.765C531.643 149.828 532.133 151.276 532.631 151.866C533.428 152.555 536.008 153.077 539.951 149.651C543.897 146.225 537.709 144.088 533.975 143.448" stroke="black" stroke-width="2" stroke-linecap="round"/>
<path d="M525.606 149.651C527.301 148.321 530.598 146.46 530.241 149.651C529.88 152.841 527.601 154.229 526.503 154.525" stroke="black" stroke-width="2" stroke-linecap="round"/>
<path d="M525.606 162.441C526.598 161.588 528.288 158.798 527.096 154.463" stroke="black" stroke-width="2" stroke-linecap="round"/>
<path d="M526.333 148.614L524.468 138.509" stroke="black" stroke-width="2" stroke-linecap="round"/>
<path d="M533.015 136.799L534.287 147.129" stroke="black" stroke-width="2" stroke-linecap="round"/>
<path d="M535.94 163.164C535.94 165.985 537.292 169.697 534.287 170.588C530.622 171.675 530.234 168.361 529.486 164.946L527.533 154.702" stroke="black" stroke-width="2" stroke-linecap="round"/>
<path d="M525.227 144.777C523.138 145.157 518.238 147.284 515.351 152.754C512.464 158.224 509.717 159.972 508.703 160.162" stroke="black" stroke-width="2" stroke-linecap="round"/>
<path d="M509.272 169.658C514.591 170.228 525.569 170 529.215 166.049" stroke="black" stroke-width="2" stroke-linecap="round"/>
<path d="M525.417 138.319C535.487 138.319 543.651 130.155 543.651 120.085C543.651 110.015 535.487 101.851 525.417 101.851C515.347 101.851 507.184 110.015 507.184 120.085C507.184 130.155 515.347 138.319 525.417 138.319Z" stroke="black" stroke-width="2"/>
<path d="M693.485 155.431C686.199 156.926 689.614 166.958 684.277 169.627C677.903 172.814 675.708 154.873 676.536 147.258C676.775 143.919 680.661 142.434 681.185 147.258C681.744 152.382 675.385 172.253 668.099 164.585L663.236 158.956C661.884 157.29 659.221 154.975 656.969 158.956C654.716 162.936 651.126 161.62 649.614 160.465L644.862 157.007" stroke="#A0A0A0" stroke-width="2" stroke-linecap="round"/>
<path d="M648.27 141.682L610.442 135.274C610.07 135.211 609.842 135.676 610.127 135.931L627.647 151.71C627.677 151.735 627.704 151.756 627.742 151.77C629.291 152.379 635.24 150.036 638.408 148.618C638.621 148.522 638.868 148.639 638.932 148.864C639.662 151.419 640.543 153.781 640.995 154.907C641.063 155.073 641.246 155.164 641.367 155.032C642.214 154.098 642.332 149.341 642.271 146.611C642.268 146.416 642.408 146.251 642.602 146.213C644.931 145.759 648.08 143.713 649.421 142.701" stroke="#A0A0A0" stroke-width="2" stroke-linecap="round"/>
<path d="M638.785 148.35C634.751 146.493 624.544 141.842 615.993 138.094" stroke="#A0A0A0" stroke-width="2" stroke-linecap="round"/>
<path d="M641.064 155.188L633.467 150.63" stroke="#A0A0A0" stroke-width="2" stroke-linecap="round"/>
<path d="M639.544 144.552L629.288 141.513" stroke="#A0A0A0" stroke-width="2" stroke-linecap="round"/>
<path d="M383.054 192.794C380.332 189.629 376.52 182.956 383.054 181.588C391.221 179.879 409.645 180.259 410.404 184.817" stroke="black" stroke-width="2" stroke-linecap="round"/>
<path d="M295.567 292.72C297.045 293.518 301.499 293.823 307.496 288.65C313.493 283.477 314.805 278.866 314.711 277.207" stroke="black" stroke-width="2" stroke-linecap="round"/>
<path d="M288.146 292.593C287.978 294.02 288.926 296.209 294.061 293.544L295.567 292.719L298.186 291.282" stroke="black" stroke-width="2" stroke-linecap="round"/>
<path d="M286.809 288.172C285.602 288.88 283.659 290.71 285.536 292.362C286.102 292.86 287.039 292.874 288.146 292.594C290.707 291.946 294.181 289.726 296.092 288.301" stroke="black" stroke-width="2" stroke-linecap="round"/>
<path d="M309.193 270.205C306.362 269.165 300.513 267.136 296.626 268.486C295.65 268.853 293.439 269.357 292.399 268.445C291.098 267.306 288.634 270.229 291.985 272.184C295.337 274.14 297.52 272.067 297.076 275.171C296.721 277.655 289.843 281.685 286.449 283.39C285.23 283.942 283.215 285.543 284.913 287.531C285.334 288.023 286.002 288.205 286.809 288.172C289.263 288.071 293.005 285.99 295.003 284.643" stroke="black" stroke-width="2" stroke-linecap="round"/>
<path d="M209.689 133.512C219.7 143.759 238.3 148.275 248.104 149.508C248.797 149.595 249.041 150.496 248.478 150.911L222.683 169.937C222.599 169.999 222.502 170.044 222.4 170.066C203.301 174.329 185.495 155.316 178.43 144.515C178.16 144.104 178.361 143.557 178.827 143.401L208.893 133.318C209.173 133.224 209.482 133.301 209.689 133.512Z" stroke="#A0A0A0" stroke-width="2" stroke-linecap="round"/>
<path d="M194.918 149.118C197.957 148.487 204.567 146.521 206.694 143.708" stroke="#A0A0A0" stroke-width="2" stroke-linecap="round"/>
<path d="M203.465 155.956C205.364 156.019 209.733 155.082 212.012 150.828" stroke="#A0A0A0" stroke-width="2" stroke-linecap="round"/>
<path d="M212.772 160.515C215.621 160.135 221.737 157.969 223.409 152.347" stroke="#A0A0A0" stroke-width="2" stroke-linecap="round"/>
<path d="M145.615 212.905C135.603 223.151 117.004 227.667 107.2 228.9C106.507 228.987 106.263 229.888 106.825 230.303L132.62 249.329C132.704 249.391 132.801 249.436 132.903 249.458C152.002 253.721 169.808 234.708 176.874 223.907C177.143 223.496 176.943 222.949 176.476 222.793L146.41 212.71C146.13 212.616 145.822 212.693 145.615 212.905Z" stroke="#A0A0A0" stroke-width="2" stroke-linecap="round"/>
<path d="M160.385 228.51C157.346 227.879 150.737 225.913 148.609 223.1" stroke="#A0A0A0" stroke-width="2" stroke-linecap="round"/>
<path d="M151.839 235.348C149.94 235.411 145.571 234.474 143.292 230.22" stroke="#A0A0A0" stroke-width="2" stroke-linecap="round"/>
<path d="M142.532 239.906C139.683 239.527 133.567 237.361 131.896 231.739" stroke="#A0A0A0" stroke-width="2" stroke-linecap="round"/>
</svg>
