<svg width="24" height="24" viewBox="0 0 24 24" fill="none" xmlns="http://www.w3.org/2000/svg">
<g clip-path="url(#clip0_36_971)">
<path fill-rule="evenodd" clip-rule="evenodd" d="M4.4798 3.36001C4.67116 3.34795 4.85138 3.26583 4.98603 3.12933C5.12069 2.99283 5.20035 2.81152 5.2098 2.62001C5.19943 2.41486 5.10855 2.22208 4.95689 2.08353C4.80524 1.94498 4.60505 1.87185 4.3998 1.88001C4.29972 1.88339 4.20145 1.90761 4.11126 1.95112C4.02106 1.99463 3.94094 2.05648 3.87601 2.13271C3.81107 2.20893 3.76275 2.29787 3.73413 2.39383C3.70551 2.48979 3.69723 2.59067 3.7098 2.69001C3.72516 2.88015 3.81433 3.05673 3.95824 3.18195C4.10215 3.30717 4.28936 3.37108 4.4798 3.36001Z" fill="white"/>
<path fill-rule="evenodd" clip-rule="evenodd" d="M8.15964 2.62C8.15577 2.51886 8.13201 2.41947 8.0897 2.32752C8.04739 2.23557 7.98736 2.15287 7.91306 2.08414C7.83876 2.01541 7.75163 1.962 7.65667 1.92697C7.56171 1.89195 7.46077 1.87598 7.35964 1.88C7.16338 1.88928 6.97884 1.97615 6.84663 2.12149C6.71442 2.26683 6.64535 2.45874 6.65464 2.655C6.66392 2.85126 6.75079 3.0358 6.89613 3.16801C7.04147 3.30022 7.23338 3.36928 7.42964 3.36C7.621 3.34794 7.80121 3.26582 7.93587 3.12932C8.07052 2.99282 8.15018 2.81151 8.15964 2.62Z" fill="white"/>
<path fill-rule="evenodd" clip-rule="evenodd" d="M11 2.62C10.9961 2.51886 10.9723 2.41947 10.93 2.32752C10.8877 2.23557 10.8277 2.15287 10.7534 2.08414C10.6791 2.01541 10.592 1.962 10.497 1.92697C10.402 1.89195 10.3011 1.87598 10.2 1.88C10.0037 1.88928 9.81917 1.97615 9.68696 2.12149C9.55475 2.26683 9.48569 2.45874 9.49497 2.655C9.50425 2.85126 9.59112 3.0358 9.73646 3.16801C9.8818 3.30022 10.0737 3.36928 10.27 3.36C10.4613 3.34794 10.6415 3.26582 10.7762 3.12932C10.9109 2.99282 10.9905 2.81151 11 2.62Z" fill="white"/>
<path fill-rule="evenodd" clip-rule="evenodd" d="M23.3898 2.68001C23.3045 2.2086 23.1242 1.75948 22.8598 1.36001C22.4605 0.834687 21.879 0.477928 21.2298 0.360005C20.0008 0.190949 18.7584 0.140717 17.5198 0.210005C15.9998 0.120005 14.4198 0.0500054 12.8798 5.42589e-06C11.3398 -0.0499946 9.78981 5.42589e-06 8.22981 5.42589e-06C7.00169 0.0214497 5.77605 0.118299 4.55981 0.290005C3.73694 0.411516 2.92915 0.619329 2.14981 0.910005C2.08143 0.942687 2.02796 1.00004 2.00013 1.07053C1.9723 1.14102 1.97219 1.21943 1.99981 1.29001C2.01202 1.32612 2.03147 1.35936 2.05698 1.38769C2.08249 1.41603 2.11352 1.43885 2.14816 1.45477C2.1828 1.47068 2.22033 1.47936 2.25844 1.48026C2.29656 1.48116 2.33445 1.47427 2.36981 1.46001C3.1087 1.20451 3.8732 1.03015 4.64981 0.940005C5.84331 0.833446 7.04202 0.796717 8.23981 0.830005C9.47981 0.830005 10.6998 0.880005 11.9198 0.930005C13.7598 1.02001 15.5998 1.14001 17.4498 1.29001C18.1798 1.34001 19.4498 1.21001 20.5198 1.35001C20.7886 1.35405 21.0537 1.41391 21.2981 1.52581C21.5425 1.6377 21.7611 1.79918 21.9398 2.00001C22.1231 2.27429 22.2459 2.58453 22.2998 2.91001C22.4022 3.46038 22.4358 4.02135 22.3998 4.58001C22.3825 4.51292 22.3439 4.45325 22.2898 4.40997C22.2357 4.3667 22.1691 4.34214 22.0998 4.34001C21.4698 4.34001 20.8398 4.34001 20.1998 4.27001C18.7098 4.18001 17.1998 4.01001 15.7398 3.90001C14.2798 3.79001 13.0898 3.77001 11.7398 3.78001C10.3898 3.79001 9.09981 3.85001 7.73981 3.92001C6.37981 3.99001 5.00981 4.12001 3.64981 4.35001C3.00981 4.46001 2.37981 4.61001 1.75981 4.78001C1.83981 3.78001 1.94981 2.78001 2.11981 1.78001C2.13007 1.73793 2.13169 1.6942 2.12456 1.65148C2.11743 1.60876 2.1017 1.56793 2.07833 1.53147C2.05495 1.495 2.02442 1.46366 1.98858 1.43935C1.95273 1.41503 1.91233 1.39825 1.86981 1.39001C1.82702 1.37982 1.78259 1.37856 1.73929 1.3863C1.696 1.39405 1.65476 1.41064 1.61817 1.43504C1.58157 1.45944 1.55039 1.49112 1.52659 1.52811C1.50278 1.56509 1.48686 1.60659 1.47981 1.65001C1.02428 3.6232 0.726672 5.62954 0.589807 7.65001C0.519807 8.65001 0.469807 9.65001 0.449807 10.65C0.429807 11.65 0.449807 12.65 0.449807 13.65C0.429964 14.6243 0.523934 15.5975 0.729807 16.55C0.87376 17.2971 1.29089 17.9638 1.89981 18.42C2.14284 18.5743 2.41525 18.6764 2.69981 18.72C3.07872 18.7607 3.4609 18.7607 3.83981 18.72C3.91667 18.7101 3.98702 18.6717 4.03699 18.6125C4.08697 18.5532 4.11295 18.4774 4.10981 18.4C4.10727 18.3619 4.09723 18.3247 4.08026 18.2904C4.06328 18.2562 4.03972 18.2257 4.01091 18.2006C3.98211 18.1755 3.94863 18.1563 3.9124 18.1442C3.87617 18.1321 3.83791 18.1273 3.79981 18.13C3.46406 18.1406 3.12827 18.1104 2.79981 18.04C2.61777 18.0083 2.44618 17.9328 2.29981 17.82C1.8989 17.4541 1.64032 16.9582 1.56981 16.42C1.44934 15.5249 1.43256 14.6189 1.51981 13.72C1.51981 12.32 1.58981 10.91 1.60981 9.50001C1.62981 8.09001 1.60981 6.75001 1.73981 5.39001C2.39928 5.23778 3.06708 5.12426 3.73981 5.05001C5.08981 4.91001 6.44981 4.90001 7.73981 4.89001H15.6098C17.0898 4.89001 18.6098 5.00001 20.0798 5.02001H22.0298C22.0952 5.01744 22.1579 4.99358 22.2085 4.95205C22.259 4.91053 22.2946 4.85363 22.3098 4.79001L21.9998 17.79C21.9998 18.23 21.9998 18.52 21.6598 18.62C21.2591 18.7183 20.8405 18.7183 20.4398 18.62C20.3971 18.6113 20.3531 18.6111 20.3103 18.6194C20.2676 18.6278 20.2269 18.6446 20.1906 18.6687C20.1544 18.6929 20.1233 18.724 20.0991 18.7603C20.0749 18.7965 20.0582 18.8372 20.0498 18.88C20.0348 18.966 20.0535 19.0544 20.1019 19.127C20.1503 19.1996 20.2247 19.2508 20.3098 19.27C20.6206 19.3847 20.9519 19.4333 21.2825 19.4126C21.6131 19.392 21.9357 19.3025 22.2298 19.15C22.4031 18.9826 22.5383 18.7798 22.6263 18.5555C22.7143 18.3312 22.753 18.0906 22.7398 17.85L23.3998 4.70001C23.477 4.02868 23.4736 3.35054 23.3898 2.68001Z" fill="white"/>
<path fill-rule="evenodd" clip-rule="evenodd" d="M17.1099 18.8L12.7199 9.89002V9.83002V9.67002C12.7256 9.63189 12.7235 9.59302 12.714 9.55567C12.7044 9.51833 12.6875 9.48328 12.6642 9.45255C12.6409 9.42182 12.6117 9.39605 12.5784 9.37673C12.545 9.3574 12.5082 9.34493 12.4699 9.34002C12.4318 9.33439 12.3929 9.33642 12.3556 9.34599C12.3182 9.35556 12.2832 9.37248 12.2524 9.39576C12.2217 9.41904 12.1959 9.4482 12.1766 9.48156C12.1573 9.51492 12.1448 9.55179 12.1399 9.59002C11.982 10.5268 11.6423 11.4237 11.1399 12.23C10.6348 13.0408 9.95066 13.7249 9.13992 14.23C7.97671 14.8034 6.88293 15.508 5.87992 16.33C5.40389 16.8032 5.12513 17.4393 5.09992 18.11C5.08129 18.4813 5.14313 18.8523 5.28121 19.1975C5.41929 19.5427 5.63034 19.854 5.89992 20.11C6.25576 20.4523 6.69836 20.6909 7.17992 20.8C7.55728 21.5882 8.04929 22.316 8.63992 22.96C9.09256 23.4462 9.66501 23.8048 10.2999 24C10.9181 24.1152 11.5567 24.0384 12.1299 23.78C12.3903 23.678 12.6132 23.4988 12.7687 23.2664C12.9242 23.034 13.0049 22.7596 12.9999 22.48C12.9954 22.2723 12.9091 22.0747 12.7599 21.93C12.4961 21.7083 12.2152 21.5077 11.9199 21.33C11.6419 21.1286 11.39 20.8935 11.1699 20.63C11.0395 20.4685 10.9256 20.2943 10.8299 20.11C11.2908 19.9439 11.7618 19.807 12.2399 19.7L13.8999 19.46C14.2089 19.425 14.5209 19.425 14.8299 19.46C15.142 19.4934 15.4501 19.5571 15.7499 19.65C15.8799 19.65 16.2499 19.88 16.4999 19.96C16.658 20.0266 16.8333 20.0406 16.9999 20C17.1314 19.9503 17.2389 19.8522 17.3002 19.7257C17.3616 19.5992 17.3722 19.4541 17.3299 19.32C17.2499 19.18 17.1199 18.82 17.1099 18.8ZM10.5599 21.05C10.7752 21.3953 11.0303 21.7142 11.3199 22C11.6199 22.29 12.4699 22.48 11.4799 22.8C11.1571 22.9033 10.814 22.9274 10.4799 22.87C9.90896 22.7053 9.396 22.383 8.99992 21.94C8.63499 21.5854 8.30048 21.2007 7.99992 20.79C8.42946 20.7716 8.85552 20.7045 9.26992 20.59C9.55992 20.52 9.85992 20.42 10.1499 20.32C10.2655 20.5746 10.4026 20.8189 10.5599 21.05ZM14.9399 18.42C14.5656 18.3682 14.1873 18.3515 13.8099 18.37C13.5099 18.37 13.1999 18.37 12.8999 18.46L11.9999 18.6C10.9999 18.79 9.99992 19.25 8.99992 19.52C8.62627 19.6295 8.23926 19.6867 7.84992 19.69C7.40613 19.6976 6.97521 19.5409 6.63992 19.25C6.48128 19.1015 6.35499 18.9218 6.26896 18.7222C6.18292 18.5226 6.139 18.3074 6.13992 18.09C6.16624 17.7968 6.25697 17.513 6.40563 17.2589C6.55429 17.0048 6.75722 16.7867 6.99992 16.62C7.24383 16.4134 7.50105 16.223 7.76992 16.05C7.89992 16.37 8.02992 16.7 8.17992 17.05C8.32992 17.4 8.44992 17.56 8.59992 17.82C8.82455 18.202 9.02819 18.5959 9.20992 19C9.23549 19.0838 9.29239 19.1545 9.36877 19.1973C9.44515 19.2401 9.53511 19.2519 9.61992 19.23C9.70368 19.2045 9.77435 19.1476 9.8172 19.0712C9.86004 18.9948 9.87177 18.9048 9.84992 18.82C9.7956 18.3471 9.69169 17.8812 9.53992 17.43C9.47796 17.2377 9.40106 17.0504 9.30992 16.87C9.21953 16.6797 9.11595 16.4959 8.99992 16.32C8.81596 16.0828 8.61546 15.8589 8.39992 15.65C8.85992 15.38 9.29992 15.13 9.64992 14.89C10.5117 14.2885 11.229 13.5029 11.7499 12.59C12.0518 12.0564 12.2901 11.4892 12.4599 10.9L15.9999 18.65C15.6545 18.5404 15.2997 18.4634 14.9399 18.42Z" fill="white"/>
<path fill-rule="evenodd" clip-rule="evenodd" d="M17.3299 8.42004C17.0299 8.68004 16.7299 8.90004 16.4399 9.15004L16.0799 9.46004L15.7599 9.80004C15.5099 10.09 15.2999 10.39 15.0299 10.66C14.9649 10.7012 14.919 10.7664 14.9021 10.8414C14.8852 10.9164 14.8988 10.9951 14.9399 11.06C14.9593 11.0933 14.9853 11.1222 15.0163 11.1449C15.0474 11.1676 15.0828 11.1837 15.1203 11.1921C15.1578 11.2006 15.1967 11.2012 15.2345 11.194C15.2723 11.1867 15.3082 11.1718 15.3399 11.15C15.7353 11.0156 16.1118 10.8307 16.4599 10.6C16.6064 10.5032 16.7408 10.3891 16.8599 10.26C16.987 10.1362 17.104 10.0025 17.2099 9.86004C17.4399 9.54004 17.6299 9.19004 17.8399 8.86004C17.8675 8.82656 17.8882 8.78796 17.9009 8.74647C17.9135 8.70498 17.9179 8.6614 17.9137 8.61822C17.9095 8.57504 17.8969 8.53311 17.8765 8.49482C17.8561 8.45652 17.8284 8.42262 17.7949 8.39504C17.7614 8.36747 17.7228 8.34675 17.6813 8.33409C17.6398 8.32143 17.5963 8.31706 17.5531 8.32124C17.5099 8.32542 17.468 8.33806 17.4297 8.35844C17.3914 8.37883 17.3575 8.40656 17.3299 8.44004V8.42004Z" fill="white"/>
<path fill-rule="evenodd" clip-rule="evenodd" d="M20.9997 17C21.0328 16.9191 21.0324 16.8284 20.9986 16.7478C20.9649 16.6672 20.9005 16.6032 20.8197 16.57C20.4589 16.3397 20.064 16.1676 19.6497 16.06C19.4756 16.0187 19.2983 15.9919 19.1197 15.98C18.9434 15.965 18.7661 15.965 18.5897 15.98C18.1871 16.0488 17.7919 16.1559 17.4097 16.3C17.3318 16.31 17.2609 16.3502 17.2123 16.4119C17.1637 16.4736 17.1412 16.5519 17.1497 16.63C17.1534 16.6678 17.1647 16.7045 17.183 16.7378C17.2012 16.7711 17.2261 16.8003 17.256 16.8237C17.286 16.8471 17.3203 16.8641 17.3571 16.8738C17.3938 16.8835 17.4321 16.8856 17.4697 16.88C17.8997 16.88 18.3097 17.02 18.7497 17.06H19.4797C19.8448 17.0511 20.2099 17.0778 20.5697 17.14C20.6457 17.1758 20.7326 17.1812 20.8125 17.1552C20.8924 17.1292 20.9593 17.0737 20.9997 17Z" fill="white"/>
<path fill-rule="evenodd" clip-rule="evenodd" d="M16.6701 13C16.6149 13.0437 16.577 13.1055 16.5628 13.1744C16.5486 13.2434 16.5591 13.3151 16.5925 13.3771C16.6259 13.4391 16.68 13.4873 16.7453 13.5135C16.8107 13.5396 16.8832 13.5419 16.9501 13.52C17.3001 13.42 17.6301 13.37 17.9501 13.26C18.0873 13.217 18.2211 13.1636 18.3501 13.1L18.7301 12.89C19.0301 12.71 19.2901 12.51 19.5901 12.34C19.6316 12.3264 19.67 12.3047 19.7031 12.2762C19.7362 12.2477 19.7633 12.2129 19.7828 12.1738C19.8023 12.1348 19.8139 12.0922 19.8169 12.0486C19.8198 12.005 19.8141 11.9613 19.8001 11.92C19.7686 11.8395 19.7076 11.774 19.6296 11.7369C19.5516 11.6997 19.4624 11.6937 19.38 11.72C19.0188 11.7639 18.6611 11.8341 18.3101 11.93C18.1611 11.9666 18.0168 12.0203 17.88 12.09C17.7364 12.1494 17.599 12.2231 17.4701 12.31C17.2001 12.51 17.0001 12.75 16.6701 13Z" fill="white"/>
</g>
<defs>
<clipPath id="clip0_36_971">
<rect width="24" height="24" fill="white"/>
</clipPath>
</defs>
</svg>
