<svg width="24" height="24" viewBox="0 0 24 24" fill="none" xmlns="http://www.w3.org/2000/svg">
<g clip-path="url(#clip0_36_957)">
<path fill-rule="evenodd" clip-rule="evenodd" d="M23.7799 4.75993C23.6813 4.45494 23.4888 4.18893 23.2299 3.99993C23.4608 3.52767 23.5025 2.985 23.3463 2.48304C23.1901 1.98109 22.848 1.55782 22.3899 1.29993C21.4704 0.683278 20.3964 0.33683 19.2899 0.299927C17.8799 0.349927 16.7499 2.37993 15.9999 3.25993C14.4299 5.07993 6.4199 15.2599 5.6399 16.8799C5.61378 17.0137 5.62413 17.1521 5.66987 17.2806C5.71562 17.409 5.79507 17.5228 5.8999 17.6099C4.4599 18.9999 2.9999 20.1399 4.3799 21.6099C3.9999 21.9999 2.9999 23.6699 3.3399 23.8199C3.5099 24.0799 3.6399 23.8799 4.5899 23.1199C4.84022 22.8749 5.04956 22.5913 5.2099 22.2799C6.9099 23.2799 7.5999 21.5999 8.4699 19.7999L8.6399 19.9399C8.67011 19.9662 8.70519 19.9862 8.74314 19.999C8.7811 20.0117 8.82119 20.0168 8.86111 20.014C8.90104 20.0112 8.94003 20.0006 8.97586 19.9827C9.01168 19.9649 9.04364 19.9401 9.0699 19.9099C9.09617 19.8797 9.11622 19.8446 9.12893 19.8067C9.14164 19.7687 9.14674 19.7286 9.14396 19.6887C9.14117 19.6488 9.13055 19.6098 9.11269 19.574C9.09484 19.5381 9.07011 19.5062 9.0399 19.4799C8.09703 18.7189 7.19573 17.9077 6.3399 17.0499C7.3399 15.4899 13.4699 8.04993 14.6699 6.57993C14.9199 6.84993 15.1899 7.16993 15.2799 7.25993C16.0584 8.00916 16.9408 8.64233 17.8999 9.13993C14.0699 13.4299 13.7299 14.4899 9.6799 18.8599C9.63213 18.9303 9.61165 19.0157 9.62227 19.1001C9.6329 19.1846 9.67391 19.2622 9.73763 19.3186C9.80136 19.375 9.88343 19.4062 9.96851 19.4064C10.0536 19.4067 10.1358 19.3759 10.1999 19.3199C13.8399 15.5499 15.1999 13.5899 17.2599 11.3199C18.8899 9.51993 21.7299 6.69993 22.9299 4.63993C23.0323 4.80588 23.0908 4.99515 23.0999 5.18993C23.1315 5.44518 23.1115 5.70417 23.041 5.95154C22.9706 6.1989 22.8512 6.4296 22.6899 6.62993C22.3055 7.19467 21.8916 7.73876 21.4499 8.25993C19.5499 10.5899 19.2899 10.7999 19.6399 11.0899C19.7053 11.1541 19.7933 11.19 19.8849 11.19C19.9765 11.19 20.0645 11.1541 20.1299 11.0899C21.3599 9.67993 24.8799 7.36993 23.7799 4.75993ZM7.9099 19.3499C7.8399 19.3499 7.7199 19.6599 7.7199 19.6599C6.6099 21.2599 6.4199 21.6599 5.8199 21.2799C4.2199 20.2299 4.9999 19.8999 6.3199 17.9999C6.7899 18.4499 7.4099 18.9999 7.9099 19.3499ZM22.2799 3.34993C22.0099 4.55993 19.2099 7.69993 18.3799 8.62993C17.4761 7.57204 16.3928 6.68175 15.1799 5.99993C15.9099 5.09993 16.4999 4.40993 16.8499 3.99993C17.4199 3.35993 18.6099 1.47993 19.3199 1.45993C20.2699 1.44993 22.5299 2.25993 22.2799 3.30993V3.34993Z" fill="white"/>
<path fill-rule="evenodd" clip-rule="evenodd" d="M17.0001 14.39C16.9347 14.3258 16.8468 14.2899 16.7551 14.2899C16.6635 14.2899 16.5756 14.3258 16.5101 14.39C16.1602 14.77 16.5101 14.75 19.3301 17.67C20.2501 18.62 21.1301 19.59 21.9701 20.6C22.8101 21.61 22.4801 23.27 20.9701 22.46C19.9759 21.9121 19.0263 21.2869 18.1301 20.59C13.9501 17.45 14.0201 16.92 13.6501 17.31C13.5945 17.3677 13.5635 17.4448 13.5635 17.525C13.5635 17.6051 13.5945 17.6822 13.6501 17.74C15.6896 19.8811 17.9487 21.8017 20.3901 23.47C23.1401 25 24.3902 21.67 22.7501 19.86C20.9331 17.9347 19.0137 16.1087 17.0001 14.39Z" fill="white"/>
<path fill-rule="evenodd" clip-rule="evenodd" d="M8.99978 9.43997C9.04114 9.38128 9.06084 9.31005 9.05552 9.23844C9.0502 9.16683 9.02019 9.09929 8.97061 9.04735C8.92104 8.99541 8.85497 8.9623 8.78368 8.95365C8.7124 8.94501 8.64033 8.96138 8.57978 8.99997C8.28735 8.6501 8.04194 8.26349 7.84978 7.84997C7.63978 7.45997 6.65978 6.23997 6.37978 6.23997C6.33189 6.2343 6.28334 6.23888 6.23735 6.2534C6.19137 6.26793 6.149 6.29207 6.11306 6.32423C6.07712 6.35639 6.04843 6.39582 6.0289 6.43991C6.00937 6.484 5.99944 6.53175 5.99978 6.57997C6.21705 7.6741 6.8204 8.65366 7.69978 9.33997C6.8918 9.09822 6.12851 8.72671 5.43978 8.23997C4.9879 7.95896 4.61597 7.56637 4.35978 7.09997C4.34947 7.05183 4.32913 7.00641 4.30007 6.96667C4.27102 6.92692 4.2339 6.89376 4.19116 6.86934C4.14841 6.84491 4.101 6.82978 4.05201 6.82493C4.00302 6.82008 3.95355 6.82562 3.90685 6.84119C3.86014 6.85676 3.81725 6.88201 3.78097 6.91528C3.74468 6.94855 3.71583 6.98911 3.69629 7.03429C3.67674 7.07948 3.66695 7.12828 3.66755 7.17751C3.66816 7.22673 3.67913 7.27528 3.69978 7.31997C3.88831 8.11515 4.34991 8.81896 5.00413 9.30871C5.65835 9.79846 6.46369 10.0431 7.27978 9.99997C6.7318 10.3556 6.08272 10.5226 5.43115 10.4757C4.77958 10.4288 4.16114 10.1704 3.66978 9.73997C2.3984 8.82697 1.53413 7.45329 1.26137 5.912C0.988612 4.37071 1.32895 2.78385 2.20978 1.48997C2.37678 2.12752 2.73254 2.69973 3.23041 3.13157C3.72828 3.56342 4.34502 3.83474 4.99978 3.90997C6.21978 4.12997 7.74978 3.74997 8.89978 5.48997C9.13721 5.80952 9.28393 6.18728 9.32441 6.58332C9.3649 6.97936 9.29765 7.37899 9.12978 7.73997C9.10292 7.81997 9.10586 7.90697 9.13807 7.98497C9.17027 8.06296 9.22957 8.1267 9.30505 8.16443C9.38052 8.20217 9.46709 8.21137 9.54881 8.19034C9.63053 8.1693 9.7019 8.11946 9.74978 8.04997C9.99387 7.58086 10.1069 7.05459 10.077 6.52661C10.0471 5.99864 9.8753 5.48851 9.57978 5.04997C7.74978 2.13997 5.33978 3.76997 3.86978 2.27997C3.50707 1.8847 3.27034 1.39035 3.18978 0.859973C1.84978 -2.71003 -3.25022 6.75997 3.18978 10.56C5.15978 11.71 6.91978 11.71 8.99978 9.43997Z" fill="white"/>
</g>
<defs>
<clipPath id="clip0_36_957">
<rect width="24" height="24" fill="white"/>
</clipPath>
</defs>
</svg>
