<svg width="24" height="24" viewBox="0 0 24 24" fill="none" xmlns="http://www.w3.org/2000/svg">
<g clip-path="url(#clip0_36_1138)">
<path d="M1.39 9.84996C1.90424 10.1943 2.44226 10.5017 3 10.77C3.83 11.18 4.69 11.53 5.53 11.86L9.75 13.49C10.2896 13.7117 10.8403 13.9053 11.4 14.07C11.6868 14.1455 11.9843 14.1725 12.28 14.15C12.8192 14.106 13.3504 13.9917 13.86 13.81C14.58 13.57 15.28 13.24 15.96 12.96L18.84 11.65C19.5 11.34 20.17 11.05 20.84 10.73C21.2933 10.5166 21.7333 10.2966 22.16 10.07C22.5063 9.91122 22.8405 9.7274 23.16 9.51996C23.3278 9.39856 23.4704 9.24573 23.58 9.06996C23.6144 8.99995 23.6323 8.92297 23.6323 8.84496C23.6323 8.76694 23.6144 8.68997 23.58 8.61996C23.4594 8.40079 23.3188 8.19324 23.16 7.99996C22.9494 7.754 22.7149 7.52956 22.46 7.32996C22.0928 7.05904 21.7087 6.81187 21.31 6.58996C19.68 5.63996 18 4.70996 16.36 3.68996C15.2805 3.02876 14.2389 2.30763 13.24 1.52996C13.1737 1.47691 13.089 1.45238 13.0046 1.46176C12.9203 1.47114 12.843 1.51365 12.79 1.57996C12.737 1.64626 12.7124 1.73092 12.7218 1.81531C12.7312 1.8997 12.7737 1.97691 12.84 2.02996C13.8528 2.83529 14.9076 3.58634 16 4.27996C17.61 5.33996 19.29 6.27996 20.9 7.27996C21.2657 7.48877 21.6166 7.72266 21.95 7.97996C22.1504 8.14536 22.3346 8.32953 22.5 8.52996L22.64 8.73996L22.5 8.83996C22.24 8.99996 21.94 9.12996 21.75 9.22996C21.32 9.44996 20.89 9.64996 20.46 9.84996C19.8 10.15 19.13 10.43 18.46 10.72L15.59 12C14.92 12.27 14.24 12.59 13.59 12.82C13.1596 12.9667 12.713 13.0607 12.26 13.1C12.0019 13.1127 11.7438 13.0754 11.5 12.99C11.04 12.86 10.59 12.64 10.17 12.49L5.97 10.9C5.14 10.59 4.3 10.27 3.49 9.89996C2.94195 9.65555 2.41077 9.37493 1.9 9.05996C1.65929 8.91025 1.43476 8.73599 1.23 8.53996C1.14788 8.46537 1.07103 8.38518 1 8.29996L6.4 4.71996C7.4 4.11996 8.4 3.51996 9.4 2.93996C10.08 2.55996 10.76 2.18996 11.45 1.82996C11.5119 1.7943 11.5577 1.73637 11.5783 1.66801C11.5989 1.59964 11.5925 1.52601 11.5606 1.46215C11.5287 1.3983 11.4736 1.34905 11.4065 1.32448C11.3395 1.29991 11.2656 1.30187 11.2 1.32996C10.5 1.67996 9.8 2.03996 9.11 2.40996C8.09 2.99996 7.07 3.53996 6.05 4.11996L4.2 5.18996C3.29 5.73996 2.38 6.29996 1.48 6.86996C1.05658 7.07659 0.648827 7.31389 0.26 7.57996C0.184195 7.63379 0.121468 7.70398 0.0764617 7.78534C0.0314558 7.8667 0.00532377 7.95713 0 8.04996C0.029701 8.40471 0.177596 8.73924 0.42 8.99996C0.70143 9.32782 1.02803 9.61401 1.39 9.84996Z" fill="white"/>
<path d="M1.68988 13.9999C2.2053 14.3663 2.743 14.7003 3.29988 14.9999C4.12988 15.4199 4.97988 15.7799 5.80988 16.1199L9.99988 17.7499C10.5364 17.9825 11.0876 18.1796 11.6499 18.3399C11.9377 18.4099 12.2342 18.4369 12.5299 18.4199C13.069 18.375 13.6 18.2607 14.1099 18.0799C14.8299 17.8399 15.5199 17.4999 16.2099 17.2099L19.0699 15.8699C19.7299 15.5599 20.3899 15.2599 21.0699 14.9399C21.5099 14.7299 21.9499 14.5099 22.3799 14.2699C22.709 14.1112 23.0236 13.9238 23.3199 13.7099C23.4781 13.596 23.6138 13.4536 23.7199 13.2899C23.7467 13.232 23.7607 13.1688 23.7607 13.1049C23.7607 13.041 23.7467 12.9779 23.7199 12.9199C23.6069 12.7071 23.4729 12.5061 23.3199 12.3199C23.1493 12.1243 22.9655 11.9406 22.7699 11.7699C22.3199 11.3899 21.8799 11.0899 21.8799 11.0899C21.8106 11.0432 21.7258 11.0254 21.6436 11.0403C21.5614 11.0553 21.4883 11.1018 21.4399 11.1699C21.4154 11.2038 21.398 11.2422 21.3888 11.283C21.3796 11.3237 21.3787 11.3659 21.3861 11.407C21.3936 11.4481 21.4093 11.4872 21.4323 11.5221C21.4553 11.557 21.4851 11.5869 21.5199 11.6099C21.5199 11.6099 21.8399 11.8399 22.1899 12.1499C22.4568 12.4433 22.704 12.754 22.9299 13.0799L22.7499 13.1999C22.4899 13.3599 22.1799 13.4899 21.9899 13.5899C21.5632 13.8033 21.1332 14.0033 20.6999 14.1899C20.0299 14.4899 19.3599 14.7599 18.6999 15.0499L15.8199 16.2699C15.1499 16.5399 14.4699 16.8499 13.7699 17.0699C13.345 17.2259 12.901 17.3235 12.4499 17.3599C12.1921 17.3677 11.9349 17.3305 11.6899 17.2499C11.2299 17.1099 10.7799 16.8999 10.3599 16.7599L6.13988 15.2099C5.30988 14.9199 4.46988 14.6099 3.63988 14.2099C3.10486 13.9699 2.58401 13.6995 2.07988 13.3999C1.77713 13.2188 1.49829 13.0004 1.24988 12.7499C1.146 12.6456 1.06136 12.5237 0.999883 12.3899C1.35137 12.1509 1.71521 11.9306 2.08988 11.7299C2.15047 11.6874 2.1925 11.6233 2.20738 11.5508C2.22225 11.4783 2.20884 11.4029 2.16988 11.3399C2.15061 11.3093 2.12536 11.2828 2.09563 11.262C2.06591 11.2413 2.03231 11.2268 1.99685 11.2193C1.9614 11.2119 1.9248 11.2116 1.88924 11.2186C1.85368 11.2256 1.81989 11.2396 1.78988 11.2599C1.37009 11.4786 0.965803 11.7259 0.579883 11.9999C0.518932 12.0407 0.468851 12.0957 0.433995 12.1601C0.399139 12.2246 0.380563 12.2966 0.379883 12.3699C0.401538 12.6983 0.535749 13.0091 0.759883 13.2499C1.03879 13.5362 1.35102 13.788 1.68988 13.9999Z" fill="white"/>
<path d="M23.9996 17.1799C23.8841 16.9686 23.7503 16.7678 23.5996 16.5799C23.3923 16.3404 23.1611 16.1227 22.9096 15.9299C22.5414 15.6635 22.1574 15.4197 21.7596 15.1999C21.7243 15.1784 21.685 15.1642 21.6441 15.1581C21.6032 15.1519 21.5615 15.1541 21.5214 15.1643C21.4814 15.1746 21.4437 15.1927 21.4108 15.2177C21.3779 15.2428 21.3502 15.2741 21.3296 15.3099C21.3078 15.346 21.2934 15.3861 21.2872 15.4277C21.2809 15.4694 21.283 15.5119 21.2932 15.5528C21.3034 15.5937 21.3216 15.6321 21.3467 15.666C21.3719 15.6998 21.4034 15.7283 21.4396 15.7499C21.8055 15.9622 22.1563 16.1994 22.4896 16.4599C22.7508 16.7327 22.9883 17.027 23.1996 17.3399L23.0296 17.4599C22.7696 17.6199 22.4596 17.7499 22.2696 17.8499L20.9696 18.4599L18.9696 19.3099L16.0996 20.5399C15.4296 20.7999 14.7496 21.1099 14.0496 21.3399C13.6219 21.486 13.1791 21.5833 12.7296 21.6299C12.4721 21.6326 12.2158 21.5955 11.9696 21.5199C11.5096 21.3799 11.0496 21.1699 10.6396 21.0199L6.37961 19.4799C5.54961 19.1799 4.70961 18.8699 3.87961 18.4799C3.34458 18.2399 2.82373 17.9695 2.31961 17.6699C2.01491 17.488 1.73862 17.2623 1.49961 16.9999C1.39312 16.8921 1.31124 16.7625 1.25961 16.6199C1.60961 16.2999 2.59961 15.6199 2.66961 15.6199C2.73061 15.5802 2.77331 15.5178 2.78831 15.4465C2.80331 15.3753 2.78939 15.3009 2.74961 15.2399C2.72991 15.2097 2.70446 15.1837 2.6747 15.1633C2.64494 15.143 2.61146 15.1287 2.57618 15.1212C2.50491 15.1062 2.43061 15.1202 2.36961 15.1599C1.84236 15.4661 1.33165 15.7999 0.839609 16.1599C0.711195 16.2531 0.624903 16.3933 0.599609 16.5499C0.630156 16.8809 0.766969 17.1931 0.989609 17.4399C1.26222 17.7567 1.57876 18.0329 1.92961 18.2599C2.44404 18.6099 2.98198 18.924 3.53961 19.1999C4.35961 19.6099 5.20961 19.9699 6.04961 20.3199L10.2496 21.9999C10.7861 22.2325 11.3373 22.4296 11.8996 22.5899C12.1872 22.6611 12.4839 22.6881 12.7796 22.6699C13.318 22.6202 13.8484 22.5061 14.3596 22.3299C15.0696 22.0899 15.7696 21.7499 16.4596 21.4599L19.3196 20.1199C19.9796 19.8099 20.6396 19.5099 21.3196 19.1899C21.7596 18.9799 22.1996 18.7599 22.6296 18.5199C22.9588 18.3592 23.2763 18.1754 23.5796 17.9699C23.7354 17.8523 23.8677 17.7064 23.9696 17.5399C24.0004 17.4857 24.0191 17.4254 24.0242 17.3633C24.0294 17.3011 24.021 17.2385 23.9996 17.1799Z" fill="white"/>
</g>
<defs>
<clipPath id="clip0_36_1138">
<rect width="24" height="24" fill="white"/>
</clipPath>
</defs>
</svg>
