<svg width="24" height="24" viewBox="0 0 24 24" fill="none" xmlns="http://www.w3.org/2000/svg">
<path fill-rule="evenodd" clip-rule="evenodd" d="M8.00008 19.68C7.87028 19.4359 7.71255 19.2077 7.53008 19C7.27735 18.7387 6.99551 18.5072 6.69008 18.31C7.03006 17.9588 7.29078 17.5387 7.45466 17.0781C7.61853 16.6175 7.68176 16.1271 7.64008 15.64C7.63479 14.8063 7.29921 14.0087 6.70688 13.422C6.11456 12.8353 5.31379 12.5074 4.48008 12.51C3.58834 12.4883 2.72378 12.8179 2.07279 13.4277C1.42181 14.0375 1.03655 14.8788 1.00008 15.77C0.984072 16.3315 1.13148 16.8856 1.42439 17.3649C1.7173 17.8442 2.14311 18.2281 2.65008 18.47C2.22984 18.6922 1.83142 18.9533 1.46008 19.25C1.10384 19.5571 0.793958 19.9141 0.540084 20.31C0.31116 20.6552 0.154203 21.043 0.0786014 21.4502C0.00299964 21.8574 0.010306 22.2757 0.100084 22.68C0.099998 22.7238 0.108889 22.7671 0.126206 22.8073C0.143524 22.8475 0.1689 22.8837 0.200766 22.9137C0.232633 22.9437 0.270312 22.9668 0.311474 22.9817C0.352637 22.9965 0.396409 23.0028 0.440084 23C0.52412 22.9876 0.600125 22.9433 0.65228 22.8762C0.704435 22.8091 0.728721 22.7246 0.720084 22.64C0.715452 22.1757 0.855231 21.7214 1.12008 21.34C1.37779 20.9431 1.67243 20.5715 2.00008 20.23C2.49008 19.69 3.00008 19.15 3.42008 18.74C3.72462 18.8161 4.03636 18.8597 4.35008 18.87C4.41653 18.8575 4.47652 18.8222 4.51968 18.7702C4.56284 18.7181 4.58646 18.6527 4.58646 18.585C4.58646 18.5174 4.56284 18.4519 4.51968 18.3999C4.47652 18.3479 4.41653 18.3125 4.35008 18.3C2.58008 18.12 1.81008 17 1.90008 15.81C1.96837 15.1795 2.2785 14.6 2.76526 14.1935C3.25202 13.7869 3.87747 13.5849 4.51008 13.63C5.08755 13.6193 5.64589 13.8371 6.06354 14.236C6.4812 14.6349 6.72436 15.1827 6.74008 15.76C6.85914 16.3457 6.74351 16.9546 6.41809 17.4558C6.09267 17.9571 5.58347 18.3105 5.00008 18.44C4.91423 18.4501 4.83575 18.4935 4.78152 18.5608C4.72729 18.6281 4.70164 18.714 4.71008 18.8C4.72472 18.883 4.76966 18.9576 4.83617 19.0094C4.90269 19.0611 4.98605 19.0863 5.07008 19.08C5.41882 19.0414 5.75764 18.9397 6.07008 18.78C6.30921 19.062 6.52967 19.3593 6.73008 19.67C6.85008 19.85 6.96008 20.04 7.06008 20.22C7.16008 20.4 7.28008 20.59 7.38008 20.78C7.62628 21.2524 7.83363 21.744 8.00008 22.25C8.01926 22.3325 8.0694 22.4044 8.14013 22.451C8.21086 22.4975 8.29677 22.5151 8.38008 22.5C8.42221 22.493 8.46243 22.4774 8.49822 22.4541C8.53401 22.4308 8.56461 22.4003 8.58808 22.3646C8.61155 22.329 8.6274 22.2888 8.63463 22.2467C8.64186 22.2046 8.64031 22.1615 8.63008 22.12C8.59632 21.5371 8.49565 20.96 8.33008 20.4C8.24099 20.151 8.13058 19.9101 8.00008 19.68Z" fill="black"/>
<path fill-rule="evenodd" clip-rule="evenodd" d="M23.6902 20.4C23.6075 20.1516 23.5038 19.9107 23.3802 19.68C23.2509 19.4503 23.0967 19.2357 22.9202 19.04C22.6674 18.7786 22.3856 18.5471 22.0802 18.35C22.4291 18.003 22.6991 17.5849 22.8717 17.1241C23.0443 16.6633 23.1154 16.1707 23.0802 15.68C23.0749 14.8463 22.7393 14.0487 22.147 13.462C21.5547 12.8752 20.7539 12.5473 19.9202 12.55C19.0316 12.5226 18.1677 12.8443 17.5135 13.4462C16.8593 14.0481 16.4668 14.8822 16.4202 15.77C16.3954 16.3244 16.5313 16.8742 16.8116 17.3532C17.0919 17.8322 17.5047 18.22 18.0002 18.47C17.5786 18.6897 17.1799 18.951 16.8102 19.25C16.4513 19.5544 16.1411 19.9118 15.8902 20.31C15.6613 20.6551 15.5043 21.0429 15.4287 21.4501C15.3531 21.8573 15.3604 22.2756 15.4502 22.68C15.4696 22.7565 15.5166 22.8232 15.5822 22.8672C15.6479 22.9112 15.7274 22.9293 15.8056 22.9182C15.8838 22.907 15.9552 22.8673 16.0058 22.8067C16.0565 22.7461 16.083 22.6689 16.0802 22.59C16.0842 22.1254 16.227 21.6727 16.4902 21.29C16.7377 20.9121 17.0189 20.5573 17.3302 20.23C17.8202 19.69 18.3302 19.15 18.7502 18.74C19.0547 18.816 19.3665 18.8596 19.6802 18.87C19.7466 18.8575 19.8066 18.8221 19.8498 18.7701C19.8929 18.718 19.9166 18.6526 19.9166 18.585C19.9166 18.5173 19.8929 18.4519 19.8498 18.3998C19.8066 18.3478 19.7466 18.3125 19.6802 18.3C18.0002 18.12 17.2002 17 17.2902 15.81C17.3585 15.1794 17.6686 14.5999 18.1554 14.1934C18.6421 13.7868 19.2676 13.5848 19.9002 13.63C20.4776 13.6192 21.036 13.837 21.4536 14.2359C21.8713 14.6348 22.1145 15.1826 22.1302 15.76C22.2481 16.3512 22.1271 16.9652 21.7935 17.4675C21.4599 17.9697 20.9409 18.3194 20.3502 18.44C20.3082 18.4446 20.2675 18.4574 20.2304 18.4777C20.1933 18.498 20.1606 18.5255 20.1342 18.5584C20.1077 18.5914 20.088 18.6292 20.0761 18.6698C20.0643 18.7104 20.0606 18.7529 20.0652 18.795C20.0698 18.837 20.0826 18.8777 20.1029 18.9147C20.1233 18.9518 20.1507 18.9845 20.1837 19.011C20.2166 19.0374 20.2545 19.0572 20.2951 19.069C20.3356 19.0808 20.3782 19.0845 20.4202 19.08C20.7689 19.0413 21.1077 18.9396 21.4202 18.78C21.6593 19.062 21.8798 19.3592 22.0802 19.67C22.2002 19.85 22.3102 20.04 22.4102 20.22C22.5102 20.4 22.6302 20.59 22.7302 20.78C22.973 21.2526 23.177 21.7443 23.3402 22.25C23.3594 22.3324 23.4095 22.4043 23.4802 22.4509C23.551 22.4974 23.6369 22.515 23.7202 22.5C23.7617 22.4916 23.8011 22.4751 23.8361 22.4515C23.8712 22.4278 23.9012 22.3974 23.9245 22.3621C23.9477 22.3268 23.9637 22.2872 23.9716 22.2456C23.9794 22.204 23.9789 22.1613 23.9702 22.12C23.9429 21.5378 23.849 20.9607 23.6902 20.4Z" fill="black"/>
<path fill-rule="evenodd" clip-rule="evenodd" d="M12.93 6.44998C12.78 6.74998 12.65 7.04998 12.49 7.44998L12.16 8.31998L11.93 8.99998L11.78 9.49998L11.14 8.92998L10.34 8.22998L9.06998 7.05998C9.04391 7.03337 9.01279 7.01224 8.97845 6.9978C8.94411 6.98337 8.90723 6.97594 8.86998 6.97594C8.83273 6.97594 8.79585 6.98337 8.76151 6.9978C8.72717 7.01224 8.69605 7.03337 8.66998 7.05998C8.64337 7.08605 8.62223 7.11717 8.6078 7.15151C8.59337 7.18585 8.58594 7.22273 8.58594 7.25998C8.58594 7.29723 8.59337 7.33411 8.6078 7.36845C8.62223 7.40279 8.64337 7.43391 8.66998 7.45998L9.84998 8.75998L10.58 9.51998L11.3 10.29C11.4 10.39 11.5 10.65 11.59 10.73C11.6878 10.8143 11.811 10.8636 11.94 10.87C12.0228 10.8696 12.1046 10.8506 12.179 10.8142C12.2535 10.7778 12.3188 10.7251 12.37 10.66C12.4823 10.5246 12.5734 10.3728 12.64 10.21C12.77 9.91998 12.86 9.56998 12.94 9.34998L13.18 8.66998L13.51 7.84998L14.35 5.99998C14.7715 5.17908 15.2528 4.39028 15.79 3.63998C16.325 2.90529 16.9423 2.23426 17.63 1.63998C17.6963 1.58694 17.7388 1.50973 17.7482 1.42534C17.7576 1.34095 17.733 1.25629 17.68 1.18998C17.6269 1.12368 17.5497 1.08116 17.4653 1.07178C17.3809 1.06241 17.2963 1.08694 17.23 1.13998C16.4528 1.72057 15.7478 2.392 15.13 3.13998C14.5064 3.88526 13.9414 4.67762 13.44 5.50998C13.24 5.85998 13.08 6.14998 12.93 6.44998Z" fill="black"/>
<path fill-rule="evenodd" clip-rule="evenodd" d="M19.8102 6.59006C19.6243 6.11442 19.379 5.66418 19.0802 5.25006C18.6483 4.65843 18.1843 4.09091 17.6902 3.55006C17.6425 3.49304 17.574 3.45732 17.5 3.45075C17.4259 3.44419 17.3522 3.46732 17.2952 3.51506C17.2382 3.5628 17.2025 3.63123 17.1959 3.70531C17.1893 3.77939 17.2125 3.85304 17.2602 3.91006C17.7211 4.45262 18.1517 5.02014 18.5502 5.61006C18.8097 5.98764 19.0182 6.39786 19.1702 6.83006C19.4349 7.48993 19.4983 8.2134 19.3524 8.90924C19.2064 9.60508 18.8577 10.2421 18.3502 10.7401C17.5117 11.4557 16.5344 11.9903 15.4795 12.3104C14.4246 12.6305 13.315 12.7291 12.2202 12.6001C9.28021 12.4501 7.29021 11.7101 6.09021 10.6701C5.55949 10.259 5.16494 9.69758 4.95802 9.05898C4.7511 8.42038 4.74141 7.73425 4.93021 7.09006C5.68021 4.55006 9.14021 2.40006 14.1702 3.17006C14.2122 3.17728 14.2553 3.17616 14.2969 3.16675C14.3384 3.15734 14.3778 3.13983 14.4126 3.11522C14.4474 3.09062 14.477 3.05939 14.4998 3.02333C14.5226 2.98727 14.538 2.94708 14.5452 2.90506C14.5524 2.86304 14.5513 2.82 14.5419 2.77841C14.5325 2.73683 14.515 2.6975 14.4904 2.66268C14.4658 2.62785 14.4345 2.59822 14.3985 2.57547C14.3624 2.55271 14.3222 2.53728 14.2802 2.53006C8.73021 1.53006 4.91021 4.00006 4.00021 6.80006C3.38021 8.71006 4.00021 10.8001 6.39021 12.2101C8.16774 13.1454 10.1418 13.6457 12.1502 13.6701C13.3918 13.7755 14.6417 13.6219 15.8208 13.2191C17 12.8163 18.0826 12.173 19.0002 11.3301C19.5886 10.7085 19.9795 9.92648 20.1237 9.08284C20.2679 8.23919 20.1588 7.37174 19.8102 6.59006Z" fill="black"/>
</svg>
