<svg width="24" height="24" viewBox="0 0 24 24" fill="none" xmlns="http://www.w3.org/2000/svg">
<g clip-path="url(#clip0_36_454)">
<path fill-rule="evenodd" clip-rule="evenodd" d="M9.05 10.2701C9.48019 10.4402 9.93746 10.5317 10.4 10.5401C10.7863 10.5652 11.1737 10.5652 11.56 10.5401C12.36 10.4801 12.95 10.3001 14.04 10.2501C14.26 10.2501 14.9 10.3201 15.31 10.2501C15.5264 10.233 15.7355 10.1645 15.92 10.0501C16.2717 9.7894 16.5281 9.42054 16.65 9.00008C16.8308 8.24088 16.8882 7.45752 16.82 6.68008C16.82 6.11008 16.9 5.04008 16.82 4.17008C16.7987 3.73289 16.6899 3.30443 16.5 2.91008C16.2451 2.4745 15.947 2.06577 15.61 1.69008C15.1359 1.14869 14.6283 0.637683 14.09 0.160077C13.9693 0.0522028 13.8118 -0.00509089 13.65 7.74404e-05C13.32 7.74404e-05 12.53 0.150077 12.4 0.160077L9.49 0.550077C9.4177 0.559189 9.3494 0.588378 9.29284 0.634332C9.23628 0.680287 9.19372 0.74117 9.17 0.810077C9.14533 0.742459 9.1004 0.684094 9.04134 0.642936C8.98229 0.601778 8.91198 0.579828 8.84 0.580077C8.79535 0.581371 8.75139 0.591453 8.71063 0.609747C8.66987 0.62804 8.63312 0.654186 8.60247 0.68669C8.57183 0.719195 8.54788 0.75742 8.53202 0.799182C8.51615 0.840944 8.50867 0.885423 8.51 0.930077L8.41 6.87008C8.41 7.31008 8.27 8.04008 8.26 8.66008C8.2433 8.98136 8.28393 9.30304 8.38 9.61008C8.44047 9.76014 8.53115 9.89617 8.64641 10.0097C8.76167 10.1233 8.89905 10.2119 9.05 10.2701ZM14.81 2.37008C15.0861 2.70105 15.3274 3.05961 15.53 3.44008C15.6046 3.62156 15.6486 3.81418 15.66 4.01008L15.6 4.00008C15.0349 3.89066 14.4639 3.81387 13.89 3.77008C13.6796 3.73997 13.4764 3.67223 13.29 3.57008C13.29 3.40008 13.37 3.13008 13.37 2.94008V1.99008L13.31 1.13008C13.45 1.13008 13.57 1.13008 13.62 1.03008C14.0408 1.45475 14.438 1.90208 14.81 2.37008ZM9.58 1.37008L12.45 1.11008L12.3 1.96008C12.3 2.04008 12.19 2.38008 12.12 2.77008C12.0821 3.06526 12.062 3.36247 12.06 3.66008C12.048 3.83531 12.076 4.01096 12.1419 4.17379C12.2077 4.33663 12.3096 4.48239 12.44 4.60008C12.7628 4.77972 13.1214 4.88559 13.49 4.91008C14.15 4.91008 14.84 4.75008 15.49 4.79008C15.5519 4.80931 15.6181 4.80931 15.68 4.79008C15.68 5.55008 15.57 6.35008 15.57 6.79008C15.6084 7.25929 15.6084 7.73086 15.57 8.20008C15.37 9.77008 14.66 8.99008 14.02 9.02008C12.91 9.09008 12.31 9.27008 11.49 9.35008C11.157 9.37194 10.823 9.37194 10.49 9.35008C10.232 9.35534 9.97409 9.33525 9.72 9.29008C9.63 9.29008 9.53 9.15008 9.48 9.20008C9.41502 8.95907 9.38803 8.7094 9.4 8.46008C9.4 7.89008 9.47 7.28008 9.45 6.90008L9.2 1.12008C9.23579 1.18784 9.29123 1.24321 9.35905 1.2789C9.42686 1.31459 9.50388 1.32895 9.58 1.32008V1.37008Z" fill="black"/>
<path fill-rule="evenodd" clip-rule="evenodd" d="M21.7998 19.1501C21.6636 19.0055 21.5049 18.8839 21.3298 18.7901C21.1906 18.7315 21.0468 18.6847 20.8998 18.6501C21.2503 18.3275 21.5001 17.9104 21.619 17.4491C21.7378 16.9878 21.7208 16.5019 21.5698 16.0501C21.3956 15.4906 21.0576 14.9961 20.5994 14.6307C20.1413 14.2652 19.5841 14.0456 18.9998 14.0001C18.4678 13.9613 17.9402 14.1217 17.5198 14.4501C16.9761 14.9064 16.62 15.5474 16.5198 16.2501C16.4275 16.6463 16.4478 17.0605 16.5786 17.4457C16.7094 17.831 16.9453 18.172 17.2598 18.4301C17.0004 18.4913 16.7488 18.5819 16.5098 18.7001C16.3465 18.7942 16.1982 18.9121 16.0698 19.0501C15.9421 19.1935 15.8313 19.3512 15.7398 19.5201C15.5361 19.9051 15.4104 20.3264 15.3698 20.7601C15.1905 20.5395 14.9819 20.3444 14.7498 20.1801C14.508 20.0317 14.2537 19.9045 13.9898 19.8001C14.3171 19.4296 14.5397 18.9785 14.6346 18.4934C14.7295 18.0083 14.6933 17.5066 14.5298 17.0401C14.2714 16.2891 13.7328 15.667 13.0266 15.3036C12.3204 14.9403 11.5011 14.8638 10.7398 15.0901C10.2555 15.2413 9.81735 15.5128 9.46648 15.8794C9.11561 16.2459 8.86345 16.6955 8.73358 17.186C8.60371 17.6765 8.60038 18.1919 8.72389 18.6841C8.8474 19.1762 9.09373 19.629 9.43983 20.0001C9.29983 20.0601 9.14983 20.1101 9.01983 20.1801C8.77781 20.3318 8.55313 20.5095 8.34983 20.7101C8.34983 20.7701 8.26983 20.8401 8.21983 20.8901C8.17073 20.4447 8.03484 20.0132 7.81983 19.6201C7.7199 19.4463 7.59527 19.288 7.44983 19.1501C7.3166 19.0133 7.16518 18.8955 6.99983 18.8001C6.8528 18.7443 6.70253 18.6976 6.54983 18.6601C6.90224 18.3366 7.15315 17.9178 7.27209 17.4545C7.39103 16.9912 7.37287 16.5033 7.21983 16.0501C7.04 15.5058 6.70446 15.0262 6.25476 14.6707C5.80505 14.3152 5.26095 14.0994 4.68983 14.0501C4.16079 14.0109 3.63627 14.1714 3.21983 14.5001C2.67306 14.9539 2.31625 15.5961 2.21983 16.3001C2.12506 16.6963 2.14426 17.1112 2.27519 17.4969C2.40613 17.8826 2.64347 18.2235 2.95983 18.4801C2.69679 18.5446 2.44186 18.6385 2.19983 18.7601C2.0384 18.8608 1.89054 18.9818 1.75983 19.1201C1.63207 19.2635 1.52133 19.4212 1.42983 19.5901C1.20997 19.9656 1.06401 20.3797 0.999829 20.8101C0.984356 20.858 0.978562 20.9085 0.982783 20.9587C0.987004 21.0089 1.00116 21.0577 1.02442 21.1024C1.04768 21.147 1.07959 21.1866 1.11828 21.2189C1.15698 21.2511 1.20169 21.2753 1.24983 21.2901C1.34667 21.3221 1.45219 21.3149 1.54378 21.27C1.63538 21.2252 1.70576 21.1462 1.73983 21.0501C1.83233 20.8787 1.94296 20.7178 2.06983 20.5701C2.19568 20.4326 2.32923 20.3024 2.46983 20.1801L2.83983 19.7901C3.08337 19.4734 3.35082 19.1759 3.63983 18.9001C3.7039 18.8649 3.75348 18.8083 3.77983 18.7401H3.94983C4.04101 18.7428 4.12965 18.7099 4.1969 18.6482C4.26414 18.5866 4.30466 18.5012 4.30983 18.4101C4.30507 18.3294 4.27088 18.2533 4.21375 18.1962C4.15661 18.139 4.08049 18.1048 3.99983 18.1001C3.13983 17.9901 2.99983 17.2001 3.18983 16.5001C3.37983 15.8001 3.85983 15.2301 4.56983 15.3201C4.90131 15.342 5.21936 15.4594 5.48554 15.6581C5.75173 15.8569 5.95467 16.1285 6.06983 16.4401C6.21281 16.7487 6.24514 17.0971 6.16136 17.4268C6.07758 17.7565 5.88281 18.0472 5.60983 18.2501C5.48344 18.3484 5.33643 18.4168 5.17983 18.4501C4.98532 18.4908 4.78815 18.5175 4.58983 18.5301C4.48815 18.5353 4.39252 18.58 4.32339 18.6548C4.25425 18.7295 4.21709 18.8283 4.21983 18.9301C4.22109 18.9809 4.23253 19.0309 4.25346 19.0772C4.27439 19.1235 4.30438 19.1651 4.34167 19.1996C4.37897 19.2341 4.4228 19.2607 4.47057 19.278C4.51835 19.2953 4.5691 19.3028 4.61983 19.3001C4.90786 19.3146 5.1966 19.2945 5.47983 19.2401H5.61983C5.87983 19.4701 6.08983 19.7201 6.30983 19.9401L6.70983 20.3401C6.85685 20.4623 6.99706 20.5925 7.12983 20.7301C7.26097 20.8803 7.37501 21.0447 7.46983 21.2201C7.49484 21.293 7.54202 21.3563 7.60477 21.4012C7.66752 21.446 7.74271 21.4701 7.81983 21.4701C7.50297 22.0227 7.29267 22.6299 7.19983 23.2601C7.1764 23.3109 7.16417 23.3661 7.16397 23.422C7.16376 23.4779 7.17558 23.5332 7.19862 23.5842C7.22167 23.6351 7.25541 23.6805 7.29754 23.7173C7.33967 23.7541 7.38922 23.7813 7.44282 23.7973C7.49643 23.8132 7.55283 23.8174 7.60821 23.8097C7.66358 23.8019 7.71664 23.7823 7.76378 23.7522C7.81092 23.7221 7.85103 23.6823 7.88141 23.6353C7.91179 23.5883 7.93171 23.5354 7.93983 23.4801C8.25377 22.8029 8.70299 22.1971 9.25983 21.7001L9.72983 21.2601C9.97165 21.0387 10.229 20.8348 10.4998 20.6501C10.5331 20.6519 10.5665 20.6519 10.5998 20.6501C11.1126 20.7403 11.6371 20.7403 12.1498 20.6501C12.1792 20.6587 12.2104 20.6587 12.2398 20.6501C12.2898 20.7215 12.3623 20.774 12.4457 20.7994C12.5291 20.8248 12.6185 20.8215 12.6998 20.7901C12.8464 20.7221 12.9869 20.6418 13.1198 20.5501C13.4172 20.773 13.701 21.0134 13.9698 21.2701C14.1298 21.4301 14.2698 21.5901 14.3998 21.7401C14.8989 22.3265 15.2763 23.0063 15.5098 23.7401C15.5247 23.7895 15.5492 23.8355 15.5819 23.8754C15.6146 23.9152 15.655 23.9482 15.7005 23.9724C15.7461 23.9966 15.796 24.0115 15.8474 24.0162C15.8988 24.021 15.9506 24.0155 15.9998 24.0001C16.0972 23.9741 16.1812 23.9122 16.235 23.8269C16.2888 23.7417 16.3084 23.6392 16.2898 23.5401C16.2442 22.8882 16.1096 22.2455 15.8898 21.6301C15.8296 21.5047 15.7593 21.3843 15.6798 21.2701C15.7698 21.2903 15.8641 21.2771 15.945 21.2329C16.026 21.1888 16.0881 21.1167 16.1198 21.0301C16.2182 20.86 16.332 20.6993 16.4598 20.5501C16.5698 20.4101 16.7198 20.3101 16.8498 20.1701C16.9798 20.0301 17.0998 19.9301 17.2198 19.7901C17.4637 19.4768 17.7311 19.1826 18.0198 18.9101C18.0888 18.8784 18.1427 18.821 18.1698 18.7501H18.3398C18.43 18.7501 18.5165 18.7143 18.5802 18.6505C18.644 18.5867 18.6798 18.5003 18.6798 18.4101C18.6798 18.3199 18.644 18.2334 18.5802 18.1697C18.5165 18.1059 18.43 18.0701 18.3398 18.0701C17.4898 17.9601 17.3398 17.1701 17.5298 16.4701C17.7198 15.7701 18.2098 15.2001 18.9198 15.2901C19.2499 15.3126 19.5664 15.4304 19.8309 15.6292C20.0953 15.828 20.2964 16.0993 20.4098 16.4101C20.566 16.7166 20.6105 17.068 20.5357 17.4038C20.4608 17.7396 20.2714 18.0388 19.9998 18.2501C19.8687 18.3467 19.7188 18.4148 19.5598 18.4501C19.3687 18.4909 19.1749 18.5176 18.9798 18.5301C18.8781 18.5353 18.7825 18.58 18.7134 18.6548C18.6443 18.7295 18.6071 18.8283 18.6098 18.9301C18.6098 18.9804 18.6199 19.0302 18.6398 19.0765C18.6596 19.1227 18.6887 19.1644 18.7252 19.199C18.7617 19.2337 18.8049 19.2605 18.8521 19.2779C18.8993 19.2952 18.9496 19.3028 18.9998 19.3001C19.2912 19.3146 19.5832 19.2945 19.8698 19.2401H20.0098C20.2698 19.4701 20.4798 19.7101 20.6998 19.9301C20.9198 20.1501 20.9698 20.1901 21.0998 20.3201C21.2298 20.4501 21.3898 20.5601 21.5198 20.7101C21.6467 20.8601 21.7604 21.0206 21.8598 21.1901C21.8736 21.2391 21.897 21.2849 21.9288 21.3247C21.9605 21.3645 22 21.3975 22.0448 21.4217C22.0895 21.446 22.1387 21.461 22.1894 21.4659C22.2401 21.4707 22.2913 21.4654 22.3398 21.4501C22.4374 21.42 22.5192 21.3529 22.5678 21.2632C22.6164 21.1734 22.6279 21.0682 22.5998 20.9701C22.5518 20.5123 22.4087 20.0695 22.1798 19.6701C22.0811 19.478 21.9528 19.3025 21.7998 19.1501ZM10.2098 19.4901C10.0093 19.2352 9.8774 18.9332 9.82664 18.6128C9.77588 18.2925 9.80796 17.9645 9.91983 17.6601C9.98901 17.3667 10.1332 17.0963 10.3383 16.8755C10.5434 16.6546 10.8024 16.4908 11.0898 16.4001C11.5549 16.2336 12.066 16.2518 12.5181 16.4508C12.9701 16.6499 13.3286 17.0147 13.5198 17.4701C14.6498 20.1701 10.8698 20.2201 10.2098 19.4901Z" fill="black"/>
<path fill-rule="evenodd" clip-rule="evenodd" d="M2.50975 13.13C2.65975 13.13 2.70975 13.27 3.38975 11.79C3.47975 11.6 3.54975 11.39 3.61975 11.2C4.07975 9.99998 4.22975 9.93998 3.99975 9.70998C3.54975 9.30998 2.58975 10.56 2.57975 10.59C2.47102 10.7279 2.3803 10.8791 2.30975 11.04C2.24148 11.2041 2.19118 11.3751 2.15975 11.55C2.09975 11.85 2.04975 13.09 2.50975 13.13Z" fill="black"/>
<path fill-rule="evenodd" clip-rule="evenodd" d="M22.8099 11C22.7432 10.8393 22.6558 10.688 22.5499 10.55C22.5499 10.55 21.5499 9.26996 21.1299 9.66996C20.8799 9.89996 21.0199 9.97996 21.4799 11.16C21.5599 11.35 21.6299 11.56 21.7099 11.75C22.3999 13.23 22.4399 13.1 22.5999 13.09C23.0599 13.09 22.9999 11.81 22.9599 11.51C22.9328 11.334 22.8824 11.1625 22.8099 11Z" fill="black"/>
<path fill-rule="evenodd" clip-rule="evenodd" d="M6.00003 8.72014C6.09545 8.67652 6.18595 8.62289 6.27003 8.56014C6.35835 8.50808 6.4391 8.44415 6.51003 8.37013C7.27003 7.70013 7.41003 7.65013 7.30003 7.37013C7.30003 7.26013 7.14003 6.89014 5.90003 7.32014C5.77696 7.36253 5.65944 7.41961 5.55003 7.49013C5.44468 7.55902 5.3474 7.63952 5.26003 7.73013C5.10003 7.91013 4.51003 8.73014 4.75003 8.97014C4.84003 9.05014 4.90003 9.22014 6.00003 8.72014Z" fill="black"/>
<path fill-rule="evenodd" clip-rule="evenodd" d="M18.5798 8.37013C18.6548 8.4395 18.735 8.50302 18.8197 8.56013C18.9073 8.62299 19.0011 8.67661 19.0998 8.72013C20.2098 9.22013 20.2698 9.05013 20.3498 8.96013C20.5898 8.70013 19.9898 7.90013 19.8398 7.72013C19.7488 7.62942 19.6482 7.54894 19.5398 7.48013C19.4314 7.40767 19.3137 7.35046 19.1898 7.31013C17.9598 6.88013 17.8298 7.25013 17.7898 7.36013C17.6898 7.65013 17.8298 7.70013 18.5798 8.37013Z" fill="black"/>
</g>
<defs>
<clipPath id="clip0_36_454">
<rect width="24" height="24" fill="white"/>
</clipPath>
</defs>
</svg>
