<svg width="24" height="24" viewBox="0 0 24 24" fill="none" xmlns="http://www.w3.org/2000/svg">
<g clip-path="url(#clip0_36_549)">
<path fill-rule="evenodd" clip-rule="evenodd" d="M14.7797 11.2698C14.8205 11.2649 14.86 11.2519 14.8958 11.2316C14.9315 11.2112 14.9629 11.184 14.988 11.1514C15.0132 11.1188 15.0316 11.0816 15.0421 11.0418C15.0527 11.0021 15.0553 10.9606 15.0497 10.9198C15.0469 10.4527 15.1864 9.99574 15.4497 9.60983C15.6998 9.23378 15.9807 8.87922 16.2897 8.54983C16.7387 8.03052 17.2161 7.53644 17.7197 7.06983C18.0255 7.13754 18.3367 7.1777 18.6497 7.18983C18.7136 7.17758 18.7713 7.14342 18.8128 7.09322C18.8543 7.04303 18.877 6.97995 18.877 6.91483C18.877 6.84971 18.8543 6.78662 18.8128 6.73643C18.7713 6.68624 18.7136 6.65208 18.6497 6.63983C16.8697 6.45983 16.0897 5.29983 16.1897 4.14983C16.2676 3.51643 16.5886 2.93808 17.0849 2.53692C17.5812 2.13576 18.214 1.94317 18.8497 1.99983C19.4231 1.98881 19.9782 2.20217 20.3966 2.59444C20.815 2.98671 21.0637 3.52687 21.0897 4.09983C21.1479 4.39402 21.1474 4.6968 21.0884 4.99082C21.0294 5.28484 20.9129 5.56432 20.7457 5.81327C20.5785 6.06222 20.3638 6.27573 20.114 6.44159C19.8641 6.60745 19.584 6.72239 19.2897 6.77983C19.2075 6.79044 19.1328 6.83327 19.0822 6.89891C19.0316 6.96455 19.0091 7.04761 19.0197 7.12983C19.0303 7.21205 19.0731 7.28668 19.1388 7.33732C19.2044 7.38795 19.2875 7.41044 19.3697 7.39983C19.7187 7.36896 20.0583 7.27046 20.3697 7.10983C20.6174 7.38735 20.8415 7.68505 21.0397 7.99983C21.1597 8.17983 21.2697 8.35983 21.3697 8.53983C21.4797 8.72983 21.5897 8.91983 21.6897 9.10983C21.9325 9.58252 22.1365 10.0741 22.2997 10.5798C22.3068 10.6196 22.3219 10.6575 22.3441 10.6913C22.3662 10.7251 22.395 10.7541 22.4286 10.7765C22.4622 10.7989 22.5 10.8143 22.5397 10.8218C22.5794 10.8292 22.6202 10.8285 22.6597 10.8198C22.7406 10.8052 22.8123 10.7591 22.8592 10.6916C22.9061 10.6241 22.9243 10.5407 22.9097 10.4598C22.8767 9.87275 22.7726 9.29184 22.5997 8.72983C22.529 8.47697 22.4318 8.23228 22.3097 7.99983C22.1778 7.77187 22.0237 7.5575 21.8497 7.35983C21.5949 7.10252 21.3094 6.8775 20.9997 6.68983C21.353 6.34187 21.6256 5.92065 21.7984 5.45587C21.9712 4.99109 22.0399 4.49406 21.9997 3.99983C21.9958 3.58708 21.9103 3.17918 21.7481 2.79961C21.5859 2.42004 21.3503 2.0763 21.0547 1.78817C20.7591 1.50004 20.4095 1.27322 20.0259 1.12076C19.6423 0.968302 19.2324 0.893217 18.8197 0.899829C17.9354 0.872366 17.0755 1.19166 16.4234 1.78954C15.7714 2.38742 15.3788 3.21652 15.3297 4.09983C15.3135 4.66518 15.4629 5.22294 15.7596 5.70444C16.0563 6.18595 16.4874 6.57018 16.9997 6.80983C16.5739 7.03179 16.1719 7.29649 15.7997 7.59983C15.4445 7.90129 15.1376 8.2554 14.8897 8.64983C14.659 8.99049 14.4993 9.37419 14.4203 9.77796C14.3412 10.1817 14.3444 10.5973 14.4297 10.9998C14.4332 11.0412 14.4454 11.0815 14.4653 11.1179C14.4852 11.1544 14.5124 11.1864 14.5454 11.2117C14.5783 11.2371 14.6161 11.2554 14.6564 11.2654C14.6968 11.2754 14.7387 11.2769 14.7797 11.2698Z" fill="black"/>
<path fill-rule="evenodd" clip-rule="evenodd" d="M8.41971 19.8098C8.29994 19.587 8.15932 19.3761 7.99971 19.1798C7.74848 18.91 7.46267 18.6746 7.14971 18.4798C7.50085 18.1345 7.77228 17.7166 7.94501 17.2554C8.11775 16.7942 8.18761 16.3008 8.14971 15.8098C8.14859 15.3924 8.06371 14.9794 7.9001 14.5954C7.73649 14.2113 7.49748 13.864 7.19723 13.574C6.89697 13.284 6.54158 13.0572 6.15209 12.9071C5.7626 12.7569 5.34693 12.6864 4.92971 12.6998C4.04572 12.6671 3.18432 12.9832 2.53138 13.5801C1.87845 14.1769 1.48635 15.0065 1.43971 15.8898C1.42261 16.4541 1.57057 17.0111 1.86544 17.4925C2.16031 17.9738 2.58928 18.3587 3.09971 18.5998C2.67396 18.8218 2.27189 19.0865 1.89971 19.3898C1.54807 19.692 1.24458 20.0461 0.999709 20.4398C0.767654 20.7818 0.607261 21.1671 0.528202 21.5727C0.449143 21.9784 0.453058 22.3958 0.53971 22.7998C0.544531 22.8403 0.557572 22.8795 0.578034 22.9148C0.598496 22.9501 0.625948 22.9809 0.658712 23.0052C0.691475 23.0295 0.72886 23.0469 0.768579 23.0563C0.808298 23.0657 0.849516 23.0669 0.88971 23.0598C0.930558 23.0549 0.970017 23.0419 1.00579 23.0216C1.04156 23.0012 1.07292 22.974 1.09805 22.9414C1.12318 22.9088 1.14158 22.8716 1.15216 22.8318C1.16275 22.792 1.16531 22.7506 1.15971 22.7098C1.15691 22.2427 1.29643 21.7857 1.55971 21.3998C1.80978 21.0238 2.09075 20.6692 2.39971 20.3398C2.85131 19.8229 3.32858 19.3289 3.82971 18.8598C4.13372 18.9373 4.446 18.9776 4.75971 18.9798C4.82367 18.9676 4.88135 18.9334 4.92284 18.8832C4.96433 18.833 4.98703 18.7699 4.98703 18.7048C4.98703 18.6397 4.96433 18.5766 4.92284 18.5264C4.88135 18.4762 4.82367 18.4421 4.75971 18.4298C2.99971 18.2498 2.23971 17.0898 2.33971 15.9398C2.40798 15.2992 2.72487 14.7109 3.22227 14.3014C3.71966 13.8918 4.35787 13.6938 4.99971 13.7498C5.57294 13.7496 6.12361 13.9731 6.53451 14.3728C6.94541 14.7725 7.18408 15.3168 7.19971 15.8898C7.31742 16.4825 7.19501 17.0978 6.85937 17.6003C6.52373 18.1028 6.00232 18.4515 5.40971 18.5698C5.369 18.5744 5.32959 18.587 5.29374 18.6068C5.25789 18.6266 5.22629 18.6533 5.20076 18.6854C5.17522 18.7174 5.15625 18.7542 5.14491 18.7935C5.13358 18.8329 5.13011 18.8741 5.13471 18.9148C5.13931 18.9555 5.15188 18.9949 5.1717 19.0308C5.19153 19.0666 5.21822 19.0982 5.25026 19.1238C5.28229 19.1493 5.31904 19.1683 5.35841 19.1796C5.39778 19.1909 5.439 19.1944 5.47971 19.1898C5.8287 19.1589 6.16835 19.0605 6.47971 18.8998C6.7274 19.1773 6.95151 19.475 7.14971 19.7898C7.26919 19.9673 7.37934 20.1509 7.47971 20.3398C7.58971 20.5198 7.69971 20.7098 7.79971 20.8998C8.04248 21.3725 8.24648 21.8641 8.40971 22.3698C8.43935 22.4325 8.48916 22.4835 8.55116 22.5145C8.61317 22.5456 8.68379 22.5549 8.75175 22.5411C8.8197 22.5273 8.88106 22.4911 8.92601 22.4383C8.97096 22.3855 8.99691 22.3191 8.99971 22.2498C8.96672 21.6627 8.86262 21.0818 8.68971 20.5198C8.62243 20.2751 8.53203 20.0374 8.41971 19.8098Z" fill="black"/>
<path fill-rule="evenodd" clip-rule="evenodd" d="M1.78976 10.2699C2.97718 11.1201 4.40988 11.559 5.86976 11.5199C7.92119 11.4609 9.96771 11.2873 11.9998 10.9999C12.037 10.9988 12.0737 10.9899 12.1074 10.9739C12.1411 10.9579 12.1711 10.9351 12.1955 10.9069C12.2199 10.8787 12.2382 10.8457 12.2493 10.8101C12.2604 10.7745 12.2639 10.737 12.2598 10.6999C12.2572 10.6644 12.2477 10.6298 12.2317 10.598C12.2158 10.5662 12.1937 10.5379 12.1667 10.5146C12.1398 10.4914 12.1085 10.4737 12.0747 10.4626C12.0409 10.4515 12.0052 10.4472 11.9698 10.4499C9.97739 10.673 7.97456 10.7898 5.96976 10.7999C4.69726 10.7927 3.46168 10.3715 2.44976 9.59992C1.96723 9.13653 1.58848 8.57604 1.33853 7.95548C1.08858 7.33492 0.973118 6.66839 0.999763 5.99992C0.935537 4.66739 1.37054 3.3588 2.21976 2.32992C2.81265 1.74232 3.597 1.38741 4.42976 1.32992C5.30312 1.22857 6.18787 1.35251 6.99976 1.68992C7.40084 1.8548 7.76141 2.10468 8.05661 2.42233C8.35182 2.73998 8.57466 3.11785 8.70976 3.52992C9.18976 4.90992 9.06976 6.57992 9.62976 7.91992C9.86101 8.46476 10.2297 8.94026 10.6998 9.29992C11.353 9.7958 12.0651 10.2089 12.8198 10.5299C12.8565 10.5487 12.8965 10.56 12.9376 10.5631C12.9787 10.5663 13.0201 10.5612 13.0592 10.5481C13.0983 10.5351 13.1344 10.5144 13.1654 10.4872C13.1964 10.46 13.2217 10.427 13.2398 10.3899C13.2645 10.3187 13.2641 10.2412 13.2386 10.1702C13.2131 10.0992 13.1641 10.0392 13.0998 9.99992C12.3877 9.68087 11.7163 9.27803 11.0998 8.79992C10.735 8.50076 10.4498 8.11599 10.2698 7.67992C9.69976 5.99992 9.99976 3.99992 9.20976 2.48992C8.79766 1.73931 8.1465 1.14798 7.35976 0.809916C6.41691 0.396351 5.38578 0.224497 4.35976 0.309916C3.26716 0.379909 2.23534 0.837313 1.44976 1.59992C0.432192 2.83309 -0.0852885 4.40338 -0.000236747 5.99992C-0.0184571 6.79745 0.131523 7.58987 0.439935 8.32558C0.748348 9.06129 1.20827 9.72379 1.78976 10.2699Z" fill="black"/>
<path fill-rule="evenodd" clip-rule="evenodd" d="M22.5502 13.7999C21.7779 13.0356 20.7547 12.5772 19.6702 12.5099C18.644 12.4192 17.6116 12.5913 16.6702 13.0099C15.8825 13.3414 15.2304 13.9301 14.8202 14.6799C13.9902 16.1999 14.3302 18.2299 13.7202 19.8499C13.5372 20.3008 13.241 20.6968 12.8602 20.9999C12.244 21.4811 11.5726 21.8873 10.8602 22.2099C10.7873 22.2483 10.732 22.3135 10.7059 22.3917C10.6798 22.47 10.6849 22.5553 10.7202 22.6299C10.7604 22.7011 10.8257 22.7549 10.9033 22.7807C10.9809 22.8066 11.0653 22.8027 11.1402 22.7699C11.8933 22.4415 12.6049 22.0253 13.2602 21.5299C13.7277 21.1717 14.096 20.7001 14.3302 20.1599C14.8902 18.8099 14.7702 17.1599 15.2502 15.7599C15.3846 15.3365 15.6112 14.9482 15.9139 14.6231C16.2165 14.298 16.5875 14.0441 17.0002 13.8799C17.8038 13.5509 18.6776 13.4305 19.5402 13.5299C20.373 13.5873 21.1573 13.9423 21.7502 14.5299C22.6047 15.5497 23.0501 16.8504 23.0002 18.1799C23.035 18.8351 22.9339 19.4905 22.7033 20.1049C22.4727 20.7193 22.1176 21.2793 21.6602 21.7499C20.6474 22.5185 19.4117 22.9363 18.1402 22.9399C16.1351 22.9396 14.1318 22.8227 12.1402 22.5899C12.0997 22.5821 12.058 22.5834 12.0181 22.5936C11.9781 22.6038 11.9409 22.6228 11.9092 22.649C11.8774 22.6753 11.8518 22.7083 11.8342 22.7456C11.8167 22.7829 11.8075 22.8236 11.8075 22.8649C11.8075 22.9061 11.8167 22.9468 11.8342 22.9841C11.8518 23.0214 11.8774 23.0544 11.9092 23.0807C11.9409 23.1069 11.9781 23.1259 12.0181 23.1361C12.058 23.1463 12.0997 23.1476 12.1402 23.1399C14.1614 23.4429 16.1979 23.6332 18.2402 23.7099C19.7001 23.749 21.1328 23.31 22.3202 22.4599C22.8806 21.9053 23.3193 21.2401 23.6086 20.5067C23.8978 19.7732 24.0312 18.9876 24.0002 18.1999C24.0892 16.6028 23.5713 15.0311 22.5502 13.7999Z" fill="black"/>
<path fill-rule="evenodd" clip-rule="evenodd" d="M4.47996 4.62984H4.99996H5.51996H6.76996C6.8535 4.6431 6.93889 4.62263 7.00734 4.57293C7.07579 4.52324 7.1217 4.44838 7.13496 4.36484C7.14822 4.2813 7.12775 4.19591 7.07805 4.12746C7.02836 4.05901 6.9535 4.0131 6.86996 3.99984C6.44996 3.86984 6.03996 3.73984 5.60996 3.64984C5.42553 3.61116 5.23823 3.58775 5.04996 3.57984C4.86026 3.56486 4.66966 3.56486 4.47996 3.57984C4.03752 3.64036 3.6021 3.7442 3.17996 3.88984C3.14331 3.89983 3.10918 3.91744 3.0798 3.94152C3.05042 3.9656 3.02645 3.99561 3.00946 4.02959C2.99247 4.06357 2.98285 4.10075 2.98121 4.1387C2.97957 4.17665 2.98596 4.21453 2.99996 4.24984C3.00993 4.32246 3.04799 4.38827 3.10595 4.43315C3.16391 4.47802 3.23716 4.49838 3.30996 4.48984C3.67996 4.49984 4.06996 4.58984 4.47996 4.62984Z" fill="black"/>
<path fill-rule="evenodd" clip-rule="evenodd" d="M17.2294 16.8498H18.4794H18.9994H19.5194C19.9294 16.8498 20.3194 16.7199 20.7494 16.6999C20.7881 16.7105 20.8286 16.7126 20.8682 16.7062C20.9077 16.6998 20.9455 16.685 20.9788 16.6628C21.0122 16.6405 21.0404 16.6113 21.0615 16.5773C21.0826 16.5432 21.0962 16.5049 21.1012 16.4652C21.1063 16.4254 21.1027 16.385 21.0908 16.3467C21.0789 16.3084 21.0589 16.2731 21.0322 16.2432C21.0055 16.2133 20.9727 16.1895 20.936 16.1734C20.8992 16.1573 20.8595 16.1493 20.8194 16.1498C20.3976 16.0031 19.9621 15.8992 19.5194 15.8398C19.3297 15.8249 19.1391 15.8249 18.9494 15.8398C18.7616 15.8533 18.5747 15.8767 18.3894 15.9098C17.9628 16.0053 17.5421 16.1255 17.1294 16.2698C17.0479 16.2846 16.9753 16.3303 16.9268 16.3974C16.8783 16.4645 16.8577 16.5479 16.8694 16.6298C16.8906 16.7052 16.9394 16.7697 17.0062 16.8105C17.073 16.8513 17.1527 16.8654 17.2294 16.8498Z" fill="black"/>
<path fill-rule="evenodd" clip-rule="evenodd" d="M2.73993 7.39982C2.74812 7.43481 2.76321 7.46782 2.78433 7.4969C2.80544 7.52599 2.83215 7.55056 2.86288 7.56919C2.89362 7.58782 2.92777 7.60012 2.96332 7.60538C2.99887 7.61064 3.03512 7.60875 3.06993 7.59982H4.47993H5.07993L5.67993 7.53982L7.10993 7.35982C7.15064 7.36115 7.19122 7.35445 7.22935 7.34009C7.26747 7.32573 7.30239 7.304 7.33211 7.27614C7.36183 7.24828 7.38576 7.21483 7.40255 7.17771C7.41933 7.14059 7.42864 7.10053 7.42993 7.05982C7.43126 7.0191 7.42456 6.97852 7.4102 6.9404C7.39584 6.90228 7.37411 6.86736 7.34625 6.83764C7.31839 6.80792 7.28494 6.78398 7.24783 6.7672C7.21071 6.75041 7.17065 6.74111 7.12993 6.73982C6.64361 6.65066 6.15293 6.58724 5.65993 6.54982C5.44686 6.53483 5.233 6.53483 5.01993 6.54982C4.80784 6.55611 4.59686 6.5829 4.38993 6.62982C3.9135 6.73136 3.44801 6.87871 2.99993 7.06982C2.96025 7.072 2.92149 7.08262 2.88623 7.10094C2.85097 7.11927 2.82001 7.14489 2.79541 7.17611C2.77082 7.20732 2.75315 7.24342 2.74359 7.28199C2.73402 7.32056 2.73277 7.36073 2.73993 7.39982Z" fill="black"/>
<path fill-rule="evenodd" clip-rule="evenodd" d="M16.5698 19.2398C16.571 19.2814 16.5807 19.3223 16.5981 19.3601C16.6155 19.3979 16.6403 19.4318 16.6711 19.4598C16.7019 19.4878 16.738 19.5093 16.7773 19.5231C16.8166 19.5368 16.8582 19.5425 16.8998 19.5398L18.3198 19.7198L18.9198 19.7798H19.5198H20.9298C21.0013 19.7948 21.0759 19.7812 21.1375 19.742C21.1992 19.7027 21.2431 19.641 21.2598 19.5698C21.2687 19.535 21.2706 19.4987 21.2653 19.4632C21.2601 19.4276 21.2478 19.3935 21.2292 19.3628C21.2105 19.332 21.1859 19.3053 21.1569 19.2842C21.1278 19.2631 21.0948 19.248 21.0598 19.2398C20.5964 19.0387 20.1139 18.8846 19.6198 18.7798C19.4098 18.7798 19.1998 18.7198 18.9798 18.6998C18.7598 18.6798 18.5598 18.6998 18.3498 18.6998C17.8567 18.7366 17.366 18.8 16.8798 18.8898C16.836 18.891 16.7928 18.9011 16.7531 18.9197C16.7134 18.9382 16.6779 18.9647 16.6488 18.9975C16.6197 19.0303 16.5977 19.0688 16.5841 19.1105C16.5705 19.1521 16.5657 19.1962 16.5698 19.2398Z" fill="black"/>
</g>
<defs>
<clipPath id="clip0_36_549">
<rect width="24" height="24" fill="white"/>
</clipPath>
</defs>
</svg>
