<svg width="24" height="24" viewBox="0 0 24 24" fill="none" xmlns="http://www.w3.org/2000/svg">
<g clip-path="url(#clip0_36_538)">
<path fill-rule="evenodd" clip-rule="evenodd" d="M6.3098 21.2599C6.20348 21.0455 6.0726 20.8441 5.9198 20.6599C5.61387 20.3515 5.25478 20.1008 4.8598 19.9199C5.10091 19.8377 5.32144 19.7044 5.5063 19.5291C5.69117 19.3538 5.83602 19.1407 5.93096 18.9043C6.0259 18.6679 6.06869 18.4138 6.05641 18.1593C6.04413 17.9049 5.97706 17.6561 5.8598 17.4299C5.64424 16.9262 5.27448 16.5038 4.8037 16.2235C4.33292 15.9432 3.78538 15.8194 3.2398 15.8699C2.87026 15.9442 2.5221 16.1005 2.22097 16.3272C1.91983 16.554 1.67339 16.8453 1.4998 17.1799C1.31181 17.53 1.23233 17.9281 1.27152 18.3234C1.3107 18.7188 1.46676 19.0936 1.7198 19.3999C1.92666 19.6213 2.18397 19.7894 2.4698 19.8899C2.0323 20.0786 1.63766 20.3542 1.3098 20.6999C1.157 20.8841 1.02612 21.0855 0.9198 21.2999C0.814662 21.5229 0.737412 21.758 0.6898 21.9999C0.576455 22.5153 0.526087 23.0425 0.5398 23.5699C0.535956 23.6719 0.569357 23.7718 0.633766 23.8509C0.698174 23.93 0.789185 23.983 0.8898 23.9999C0.942392 24.0069 0.995849 24.0034 1.04706 23.9895C1.09827 23.9756 1.14621 23.9517 1.18809 23.9192C1.22997 23.8866 1.26495 23.846 1.29099 23.7998C1.31704 23.7536 1.33363 23.7026 1.3398 23.6499C1.54896 23.0773 1.81005 22.525 2.1198 21.9999L2.3798 21.4899C2.4698 21.3099 2.5298 21.1299 2.6298 20.9599C2.75856 20.7448 2.90937 20.5438 3.0798 20.3599C3.12749 20.3267 3.16556 20.2814 3.19014 20.2288C3.21473 20.1761 3.22496 20.1178 3.2198 20.0599C3.44985 20.1101 3.68437 20.1369 3.9198 20.1399C3.9198 20.1399 3.9698 20.1399 3.9998 20.0899C4.02026 20.1822 4.07357 20.264 4.1498 20.3199C4.32023 20.5038 4.47104 20.7048 4.5998 20.9199C4.6998 21.0899 4.7598 21.2699 4.8498 21.4499L5.1098 21.9599C5.42233 22.4905 5.68351 23.0497 5.8898 23.6299C5.89575 23.6833 5.91266 23.7349 5.93947 23.7814C5.96627 23.8279 6.0024 23.8684 6.04559 23.9003C6.08877 23.9323 6.13808 23.9549 6.19043 23.9669C6.24278 23.9789 6.29703 23.9799 6.3498 23.9699C6.45706 23.955 6.55407 23.8983 6.61965 23.8121C6.68522 23.7259 6.71404 23.6173 6.6998 23.5099C6.71053 22.982 6.6568 22.4548 6.5398 21.9399C6.49063 21.7049 6.41341 21.4766 6.3098 21.2599ZM3.0798 19.2099C2.86233 19.1209 2.67736 18.9673 2.5498 18.7699C2.47198 18.6191 2.43999 18.4488 2.45775 18.28C2.47552 18.1112 2.54228 17.9513 2.6498 17.8199C2.73957 17.6673 2.86099 17.5357 3.00588 17.4339C3.15077 17.3322 3.31578 17.2626 3.4898 17.2299C3.76467 17.1834 4.0472 17.2251 4.2969 17.3491C4.54661 17.473 4.75065 17.6729 4.8798 17.9199C5.3198 18.7199 4.5798 19.8299 3.0798 19.2099Z" fill="black"/>
<path fill-rule="evenodd" clip-rule="evenodd" d="M14.5496 21.2599C14.4432 21.0455 14.3124 20.8441 14.1596 20.6599C13.8536 20.3515 13.4946 20.1008 13.0996 19.9199C13.3451 19.8431 13.5709 19.7137 13.7612 19.5408C13.9516 19.3678 14.102 19.1554 14.202 18.9184C14.3019 18.6814 14.349 18.4255 14.34 18.1684C14.3309 17.9113 14.2659 17.6593 14.1496 17.4299C13.934 16.9262 13.5643 16.5038 13.0935 16.2235C12.6227 15.9432 12.0751 15.8194 11.5296 15.8699C11.151 15.9373 10.7929 16.0903 10.4827 16.3174C10.1724 16.5444 9.91824 16.8395 9.73957 17.1799C9.55698 17.5338 9.48418 17.9341 9.5305 18.3296C9.57682 18.7251 9.74015 19.0978 9.99957 19.3999C10.2064 19.6213 10.4637 19.7894 10.7496 19.8899C10.3121 20.0786 9.91743 20.3542 9.58957 20.6999C9.43677 20.8841 9.3059 21.0855 9.19957 21.2999C9.09745 21.5102 9.02026 21.7317 8.96957 21.9599C8.85623 22.4753 8.80586 23.0025 8.81957 23.5299C8.80517 23.6384 8.83369 23.7483 8.89906 23.8361C8.96443 23.9238 9.06149 23.9826 9.16957 23.9999C9.22216 24.0069 9.27562 24.0034 9.32683 23.9895C9.37804 23.9756 9.42598 23.9517 9.46786 23.9192C9.50974 23.8866 9.54472 23.846 9.57077 23.7998C9.59681 23.7536 9.6134 23.7026 9.61957 23.6499C9.8159 23.0787 10.0636 22.5265 10.3596 21.9999L10.6196 21.4899C10.7096 21.3099 10.7696 21.1299 10.8696 20.9599C10.9983 20.7448 11.1491 20.5438 11.3196 20.3599C11.3673 20.3267 11.4053 20.2814 11.4299 20.2288C11.4545 20.1761 11.4647 20.1178 11.4596 20.0599C11.6896 20.1101 11.9241 20.1369 12.1596 20.1399C12.1596 20.1399 12.2096 20.1399 12.2396 20.0899C12.26 20.1822 12.3133 20.264 12.3896 20.3199C12.56 20.5038 12.7108 20.7048 12.8396 20.9199C12.9396 21.0899 12.9996 21.2699 13.0896 21.4499L13.3496 21.9599C13.6621 22.4905 13.9233 23.0497 14.1296 23.6299C14.1355 23.6833 14.1524 23.7349 14.1792 23.7814C14.206 23.8279 14.2422 23.8684 14.2854 23.9003C14.3285 23.9323 14.3779 23.9549 14.4302 23.9669C14.4825 23.9789 14.5368 23.9799 14.5896 23.9699C14.6968 23.955 14.7938 23.8983 14.8594 23.8121C14.925 23.7259 14.9538 23.6173 14.9396 23.5099C14.9503 22.982 14.8966 22.4548 14.7796 21.9399C14.7304 21.7049 14.6532 21.4766 14.5496 21.2599ZM11.3196 19.2099C11.1021 19.1209 10.9171 18.9673 10.7896 18.7699C10.7118 18.6191 10.6798 18.4488 10.6975 18.28C10.7153 18.1112 10.7821 17.9513 10.8896 17.8199C10.9793 17.6673 11.1008 17.5357 11.2457 17.4339C11.3905 17.3322 11.5556 17.2626 11.7296 17.2299C12.0044 17.1834 12.287 17.2251 12.5367 17.3491C12.7864 17.473 12.9904 17.6729 13.1196 17.9199C13.5596 18.7299 12.8196 19.8199 11.3196 19.2099Z" fill="black"/>
<path fill-rule="evenodd" clip-rule="evenodd" d="M22.7897 21.2599C22.6834 21.0455 22.5525 20.8441 22.3997 20.6599C22.1124 20.3565 21.7739 20.106 21.3997 19.9199C21.6409 19.8377 21.8614 19.7044 22.0463 19.5291C22.2311 19.3538 22.376 19.1407 22.4709 18.9043C22.5658 18.6679 22.6086 18.4138 22.5964 18.1593C22.5841 17.9049 22.517 17.6561 22.3997 17.4299C22.1842 16.9262 21.8144 16.5038 21.3437 16.2235C20.8729 15.9432 20.3253 15.8194 19.7797 15.8699C19.403 15.9387 19.0469 16.0924 18.7385 16.3194C18.43 16.5464 18.1774 16.8407 17.9997 17.1799C17.8118 17.53 17.7323 17.9281 17.7715 18.3234C17.8106 18.7188 17.9667 19.0936 18.2197 19.3999C18.4295 19.6179 18.6859 19.7854 18.9697 19.8899C18.5292 20.0784 18.1313 20.3539 17.7997 20.6999C17.6469 20.8841 17.5161 21.0855 17.4097 21.2999C17.3076 21.5102 17.2304 21.7317 17.1797 21.9599C17.0563 22.474 16.9959 23.0012 16.9997 23.5299C16.9853 23.6384 17.0139 23.7483 17.0792 23.8361C17.1446 23.9238 17.2417 23.9826 17.3497 23.9999C17.4023 24.0069 17.4558 24.0034 17.507 23.9895C17.5582 23.9756 17.6062 23.9517 17.648 23.9192C17.6899 23.8866 17.7249 23.846 17.7509 23.7998C17.777 23.7536 17.7936 23.7026 17.7997 23.6499C18.0153 23.0766 18.2831 22.5243 18.5997 21.9999L18.8597 21.4899C18.9497 21.3099 19.0097 21.1299 19.1097 20.9599C19.2385 20.7448 19.3893 20.5438 19.5597 20.3599C19.6074 20.3267 19.6455 20.2814 19.6701 20.2288C19.6947 20.1761 19.7049 20.1178 19.6997 20.0599C19.9331 20.1107 20.171 20.1375 20.4097 20.1399C20.4097 20.1399 20.4097 20.1399 20.4797 20.0899C20.4974 20.1834 20.5513 20.2661 20.6297 20.3199C20.8002 20.5038 20.951 20.7048 21.0797 20.9199C21.1797 21.0899 21.2397 21.2699 21.3297 21.4499L21.5897 21.9599C21.9023 22.4905 22.1635 23.0497 22.3697 23.6299C22.3757 23.6833 22.3926 23.7349 22.4194 23.7814C22.4462 23.8279 22.4823 23.8684 22.5255 23.9003C22.5687 23.9323 22.618 23.9549 22.6704 23.9669C22.7227 23.9789 22.777 23.9799 22.8297 23.9699C22.937 23.955 23.034 23.8983 23.0996 23.8121C23.1652 23.7259 23.194 23.6173 23.1797 23.5099C23.1856 22.9745 23.1251 22.4405 22.9997 21.9199C22.9555 21.6926 22.885 21.4711 22.7897 21.2599ZM19.5697 19.2099C19.3523 19.1209 19.1673 18.9673 19.0397 18.7699C18.9619 18.6191 18.9299 18.4488 18.9477 18.28C18.9655 18.1112 19.0322 17.9513 19.1397 17.8199C19.2295 17.6673 19.3509 17.5357 19.4958 17.4339C19.6407 17.3322 19.8057 17.2626 19.9797 17.2299C20.2546 17.1834 20.5372 17.2251 20.7869 17.3491C21.0366 17.473 21.2406 17.6729 21.3697 17.9199C21.4436 18.0356 21.4897 18.1668 21.5044 18.3032C21.5192 18.4397 21.5021 18.5777 21.4547 18.7065C21.4072 18.8353 21.3307 18.9513 21.2309 19.0456C21.1312 19.1399 21.011 19.2098 20.8797 19.2499C20.5997 19.3599 20.8797 19.3999 20.4097 19.3999C20.1215 19.3809 19.8381 19.3168 19.5697 19.2099Z" fill="black"/>
<path fill-rule="evenodd" clip-rule="evenodd" d="M16.2497 6.72996C16.133 6.46759 15.9817 6.22207 15.7997 5.99996C15.3814 5.53246 14.8751 5.1519 14.3097 4.87996C14.6153 4.61363 14.8475 4.27336 14.9841 3.89169C15.1206 3.51002 15.157 3.0997 15.0897 2.69996C15.0444 2.06652 14.7992 1.46382 14.3895 0.978616C13.9797 0.493415 13.4266 0.15075 12.8097 -4.21992e-05C12.1961 -0.0386081 11.5832 0.0875325 11.0347 0.365323C10.4861 0.643114 10.0218 1.06246 9.68972 1.57996C9.50063 1.83635 9.36712 2.12938 9.29771 2.4403C9.22831 2.75123 9.22455 3.07322 9.28666 3.38569C9.34878 3.69815 9.47541 3.99422 9.65846 4.25496C9.84151 4.5157 10.0769 4.73538 10.3497 4.89996H10.4497C9.94083 5.24776 9.47433 5.65384 9.05973 6.10996C8.76492 6.43235 8.51898 6.79622 8.32972 7.18996C8.13304 7.54706 8.01121 7.94051 7.97167 8.34627C7.93212 8.75203 7.97569 9.1616 8.09973 9.54996C8.12779 9.65193 8.1951 9.73863 8.28693 9.7911C8.37875 9.84358 8.48763 9.85755 8.58973 9.82996C8.6943 9.80181 8.78349 9.73343 8.83782 9.63975C8.89216 9.54608 8.90722 9.4347 8.87973 9.32996C8.87108 9.07271 8.92967 8.81765 9.04973 8.58996C9.17961 8.32843 9.33009 8.07764 9.49972 7.83996C9.65972 7.58996 9.83973 7.33996 9.99973 7.06996C10.3897 6.46996 10.6997 5.85996 10.9997 5.39996C10.9997 5.39996 10.9997 5.31996 11.0597 5.26996C11.3846 5.37966 11.7196 5.45671 12.0597 5.49996C12.1524 5.51456 12.2471 5.49242 12.3236 5.43825C12.4002 5.38409 12.4526 5.30218 12.4697 5.20996C12.4784 5.16333 12.4777 5.11545 12.4678 5.06906C12.4579 5.02268 12.439 4.97871 12.412 4.93968C12.3851 4.90066 12.3507 4.86734 12.3108 4.84164C12.2709 4.81595 12.2264 4.79838 12.1797 4.78996C11.9363 4.73611 11.6985 4.65909 11.4697 4.55996C11.2582 4.4678 11.0625 4.34294 10.8897 4.18996C10.6666 4.01473 10.5075 3.77086 10.437 3.49608C10.3665 3.2213 10.3886 2.93095 10.4997 2.66996C10.6511 2.34749 10.8859 2.07131 11.1797 1.86996C11.5724 1.52223 12.0859 1.34267 12.6097 1.36996C12.9721 1.43683 13.3032 1.61898 13.5537 1.88928C13.8041 2.15957 13.9606 2.50354 13.9997 2.86996C14.1497 3.61996 13.9397 4.41996 13.0597 4.48996C13.0012 4.48073 12.9414 4.4843 12.8844 4.50041C12.8274 4.51653 12.7745 4.5448 12.7295 4.58329C12.6845 4.62178 12.6483 4.66957 12.6235 4.72338C12.5987 4.77718 12.5859 4.83572 12.5859 4.89496C12.5859 4.9542 12.5987 5.01274 12.6235 5.06654C12.6483 5.12034 12.6845 5.16813 12.7295 5.20662C12.7745 5.24512 12.8274 5.27339 12.8844 5.2895C12.9414 5.30561 13.0012 5.30918 13.0597 5.29996C13.2681 5.292 13.4739 5.25151 13.6697 5.17996C13.6723 5.2285 13.6852 5.27593 13.7076 5.31906C13.73 5.36219 13.7614 5.4 13.7997 5.42996C14.1672 5.82213 14.4739 6.26705 14.7097 6.74996L15.0097 7.32996C15.3869 8.00406 15.6568 8.73279 15.8097 9.48996C15.8314 9.58962 15.8885 9.678 15.9705 9.73861C16.0526 9.79922 16.1538 9.82792 16.2555 9.81935C16.3571 9.81078 16.4521 9.76553 16.5228 9.69203C16.5935 9.61854 16.6351 9.52184 16.6397 9.41996C16.6762 8.787 16.6326 8.15196 16.5097 7.52996C16.4562 7.25363 16.3689 6.98495 16.2497 6.72996Z" fill="black"/>
<path fill-rule="evenodd" clip-rule="evenodd" d="M14.7798 12.2099L12.7798 13.4699L12.6298 13.5899C12.6998 13.1599 12.7698 12.7199 12.8098 12.2799C12.8247 12.0601 12.8247 11.8396 12.8098 11.6199C12.8247 11.4001 12.8247 11.1796 12.8098 10.9599C12.7498 10.4399 12.6298 9.95989 12.5798 9.42989C12.5883 9.37817 12.5858 9.32523 12.5723 9.27456C12.5588 9.2239 12.5348 9.17667 12.5017 9.13602C12.4686 9.09536 12.4272 9.0622 12.3803 9.03873C12.3335 9.01526 12.2821 9.00203 12.2298 8.99989C12.1359 8.99435 12.0435 9.02578 11.9725 9.08746C11.9015 9.14913 11.8574 9.23615 11.8498 9.32989C11.6829 9.842 11.5591 10.3672 11.4798 10.8999C11.4648 11.1263 11.4648 11.3535 11.4798 11.5799C11.4814 11.8041 11.4981 12.0279 11.5298 12.2499C11.5298 12.6299 11.6398 12.9999 11.7098 13.3799C11.5898 13.2899 11.4598 13.2099 11.3298 13.1299C10.7598 12.7799 10.1798 12.4799 9.59976 12.1299C9.56299 12.1017 9.52102 12.0809 9.47624 12.0689C9.43147 12.0569 9.38476 12.0538 9.3388 12.0599C9.29283 12.0659 9.24851 12.0809 9.20835 12.1041C9.1682 12.1273 9.13299 12.1581 9.10476 12.1949C9.07653 12.2317 9.05581 12.2736 9.0438 12.3184C9.03178 12.3632 9.02871 12.4099 9.03474 12.4559C9.04078 12.5018 9.05581 12.5461 9.07898 12.5863C9.10214 12.6265 9.13299 12.6617 9.16976 12.6899L11.1698 14.6399C11.3547 14.8416 11.5518 15.032 11.7598 15.2099C11.8673 15.2977 11.9969 15.3544 12.1344 15.3738C12.2719 15.3932 12.4121 15.3746 12.5398 15.3199C12.7045 15.2398 12.8562 15.1353 12.9898 15.0099C13.2098 14.8099 13.3998 14.5399 13.5698 14.3699L15.2698 12.8299C15.3132 12.7983 15.3499 12.7583 15.3775 12.7123C15.4052 12.6662 15.4233 12.6151 15.4308 12.5619C15.4382 12.5087 15.4349 12.4545 15.421 12.4026C15.4071 12.3508 15.3829 12.3022 15.3498 12.2599C15.28 12.1789 15.1814 12.1284 15.0749 12.119C14.9685 12.1097 14.8625 12.1423 14.7798 12.2099Z" fill="black"/>
<path fill-rule="evenodd" clip-rule="evenodd" d="M6.87987 12.4999C6.46987 12.7099 6.06987 12.9199 5.68987 13.1499C5.40931 13.2988 5.13874 13.4658 4.87987 13.6499H4.81987C4.92215 13.2262 5.04903 12.8088 5.19987 12.3999C5.31987 12.1299 5.43987 11.8599 5.56987 11.5999C5.70052 11.3525 5.84405 11.1122 5.99987 10.8799C6.3152 10.272 6.75468 9.73713 7.28987 9.3099C7.36985 9.26012 7.42782 9.18171 7.45198 9.09066C7.47613 8.99961 7.46465 8.90278 7.41987 8.8199C7.39796 8.7775 7.3676 8.74003 7.33066 8.70979C7.29373 8.67956 7.251 8.65719 7.20511 8.64408C7.15921 8.63097 7.11112 8.62738 7.06379 8.63354C7.01646 8.6397 6.97088 8.65548 6.92987 8.6799C6.15095 8.98567 5.46268 9.48467 4.92987 10.1299C4.69757 10.4066 4.50258 10.7125 4.34987 11.0399C4.19812 11.3599 4.08079 11.6951 3.99987 12.0399C3.89192 12.4689 3.82825 12.9079 3.80987 13.3499L1.80987 11.7499C1.77643 11.7163 1.73669 11.6897 1.69293 11.6715C1.64917 11.6534 1.60225 11.644 1.55487 11.644C1.50749 11.644 1.46058 11.6534 1.41682 11.6715C1.37306 11.6897 1.33332 11.7163 1.29987 11.7499C1.23733 11.8181 1.20264 11.9073 1.20264 11.9999C1.20264 12.0925 1.23733 12.1817 1.29987 12.2499L3.21987 14.5999L3.75987 15.1199C3.69987 15.1899 3.97987 15.3199 4.05987 15.3599C4.17003 15.4197 4.29475 15.4474 4.41987 15.4399C4.65069 15.4336 4.87542 15.3644 5.06987 15.2399C5.31477 15.0505 5.54234 14.8396 5.74987 14.6099C5.91985 14.3979 6.10007 14.1943 6.28987 13.9999L7.28987 13.1699C7.36793 13.1054 7.41937 13.0143 7.43429 12.9142C7.44921 12.8141 7.42655 12.712 7.37068 12.6275C7.3148 12.5431 7.22967 12.4823 7.13167 12.4569C7.03367 12.4315 6.92973 12.4433 6.83987 12.4899L6.87987 12.4999Z" fill="black"/>
<path fill-rule="evenodd" clip-rule="evenodd" d="M23.35 11.7299C23.3174 11.6966 23.2785 11.6702 23.2356 11.6521C23.1926 11.6341 23.1465 11.6248 23.1 11.6248C23.0534 11.6248 23.0073 11.6341 22.9644 11.6521C22.9215 11.6702 22.8826 11.6966 22.85 11.7299L20.85 13.3299C20.8267 12.8883 20.7631 12.4498 20.66 12.0199C20.5754 11.6748 20.4548 11.3396 20.3 11.0199C20.1471 10.6948 19.9557 10.3893 19.73 10.1099C19.1931 9.46902 18.506 8.9709 17.73 8.65986C17.6886 8.63622 17.643 8.62097 17.5957 8.61496C17.5485 8.60895 17.5005 8.61231 17.4545 8.62484C17.4086 8.63738 17.3655 8.65885 17.3278 8.68802C17.2902 8.71719 17.2586 8.7535 17.235 8.79486C17.2113 8.83623 17.1961 8.88185 17.1901 8.92911C17.1841 8.97637 17.1874 9.02436 17.2 9.07032C17.2125 9.11629 17.234 9.15933 17.2631 9.197C17.2923 9.23467 17.3286 9.26622 17.37 9.28986C17.9124 9.71503 18.3588 10.2501 18.68 10.8599C18.82 11.1099 18.96 11.3599 19.09 11.6199C19.22 11.8799 19.34 12.1499 19.46 12.4199C19.58 12.6899 19.71 13.2499 19.83 13.6699H19.78C19.51 13.4899 19.25 13.3199 18.97 13.1699C18.69 13.0199 18.18 12.7299 17.77 12.5199C17.6794 12.4628 17.5702 12.4435 17.4656 12.4659C17.3609 12.4883 17.2692 12.5507 17.21 12.6399C17.1804 12.6843 17.1601 12.7342 17.1501 12.7866C17.1401 12.8391 17.1408 12.893 17.1519 12.9452C17.1631 12.9973 17.1846 13.0468 17.2152 13.0905C17.2458 13.1342 17.2848 13.1714 17.33 13.1999L18.33 14.0299C18.54 14.2099 18.74 14.4099 18.94 14.6099C19.1451 14.842 19.3729 15.053 19.62 15.2399C19.8109 15.364 20.0323 15.4332 20.26 15.4399C20.3851 15.4479 20.51 15.4202 20.62 15.3599C20.71 15.3599 20.99 15.1899 20.92 15.1199L21.47 14.5999L23.38 12.2499C23.4146 12.215 23.4415 12.1732 23.4589 12.1273C23.4763 12.0813 23.4838 12.0322 23.481 11.9832C23.4781 11.9341 23.465 11.8862 23.4424 11.8426C23.4199 11.7989 23.3884 11.7605 23.35 11.7299Z" fill="black"/>
</g>
<defs>
<clipPath id="clip0_36_538">
<rect width="24" height="24" fill="white"/>
</clipPath>
</defs>
</svg>
