<svg width="24" height="24" viewBox="0 0 24 24" fill="none" xmlns="http://www.w3.org/2000/svg">
<g clip-path="url(#clip0_36_531)">
<path fill-rule="evenodd" clip-rule="evenodd" d="M6.15012 20.78C5.72012 20.64 5.79012 20.7 5.85012 20.65C6.3833 20.1821 6.72208 19.5316 6.79981 18.8265C6.87754 18.1214 6.68858 17.4128 6.27012 16.84C5.85012 16.36 4.82012 15.84 4.68012 16.39C4.66227 16.4774 4.67954 16.5684 4.72818 16.6432C4.77683 16.7181 4.85295 16.7708 4.94012 16.79C6.24012 17.1 6.24012 19.08 5.21012 19.79C4.94245 19.9514 4.64333 20.0537 4.33286 20.0899C4.02238 20.1261 3.70775 20.0955 3.41012 20C1.55012 19.59 1.87012 16.28 4.41012 16.46C4.48703 16.46 4.56079 16.4294 4.61518 16.3751C4.66956 16.3207 4.70012 16.2469 4.70012 16.17C4.70012 16.0931 4.66956 16.0193 4.61518 15.9649C4.56079 15.9105 4.48703 15.88 4.41012 15.88C3.8099 15.7749 3.19177 15.8751 2.65552 16.1645C2.11928 16.4539 1.69622 16.9156 1.45465 17.475C1.21308 18.0344 1.1671 18.659 1.32413 19.2477C1.48116 19.8365 1.83204 20.3552 2.32012 20.72C1.74849 20.948 1.25283 21.3328 0.890116 21.83C0.697236 22.101 0.559935 22.4076 0.486133 22.732C0.412331 23.0564 0.403488 23.3922 0.460116 23.72C0.472861 23.7889 0.509346 23.8512 0.563234 23.8961C0.617123 23.9409 0.685012 23.9654 0.755116 23.9654C0.825219 23.9654 0.893108 23.9409 0.946997 23.8961C1.00089 23.8512 1.03737 23.7889 1.05012 23.72C1.10618 23.4429 1.22601 23.1827 1.40012 22.96C1.83856 22.4312 2.30594 21.9271 2.80012 21.45L3.21012 21.15C3.78533 21.2876 4.3849 21.2876 4.96012 21.15C5.70594 21.5558 6.3201 22.1665 6.73012 22.91C6.89983 23.1808 7.04699 23.4651 7.17012 23.76C7.18868 23.8462 7.24073 23.9215 7.3148 23.9693C7.38888 24.0171 7.47892 24.0336 7.56512 24.015C7.65131 23.9964 7.7266 23.9444 7.77442 23.8703C7.82224 23.7962 7.83868 23.7062 7.82012 23.62C7.85857 23.0337 7.71989 22.4495 7.42209 21.943C7.12429 21.4366 6.68112 21.0314 6.15012 20.78Z" fill="black"/>
<path fill-rule="evenodd" clip-rule="evenodd" d="M14.0002 20.78C13.5702 20.64 13.6402 20.7 13.7002 20.65C14.2334 20.1821 14.5722 19.5316 14.6499 18.8265C14.7276 18.1214 14.5387 17.4128 14.1202 16.84C13.7002 16.36 12.6702 15.84 12.5302 16.39C12.5124 16.4774 12.5296 16.5684 12.5783 16.6432C12.6269 16.7181 12.703 16.7708 12.7902 16.79C14.0902 17.1 14.0902 19.08 13.0602 19.79C12.7925 19.9514 12.4934 20.0537 12.183 20.0899C11.8725 20.1261 11.5579 20.0955 11.2602 20C9.39021 19.59 9.73021 16.28 12.2102 16.46C12.2871 16.4666 12.3635 16.4424 12.4226 16.3927C12.4817 16.343 12.5186 16.2719 12.5252 16.195C12.5318 16.1181 12.5076 16.0417 12.458 15.9826C12.4083 15.9235 12.3371 15.8866 12.2602 15.88C11.66 15.7749 11.0419 15.8751 10.5056 16.1645C9.96938 16.4539 9.54632 16.9156 9.30475 17.475C9.06318 18.0344 9.0172 18.659 9.17423 19.2477C9.33126 19.8365 9.68214 20.3552 10.1702 20.72C9.60014 20.936 9.10389 21.3107 8.74021 21.8C8.54733 22.071 8.41003 22.3776 8.33623 22.702C8.26243 23.0264 8.25359 23.3622 8.31021 23.69C8.32296 23.7589 8.35944 23.8212 8.41333 23.8661C8.46722 23.9109 8.53511 23.9354 8.60521 23.9354C8.67532 23.9354 8.74321 23.9109 8.79709 23.8661C8.85098 23.8212 8.88747 23.7589 8.90021 23.69C9.08811 23.1042 9.43417 22.5816 9.90021 22.18C10.2049 21.7704 10.5769 21.4154 11.0002 21.13C11.5754 21.2676 12.175 21.2676 12.7502 21.13C13.3057 21.4053 13.7784 21.8227 14.1202 22.34C14.4789 22.7475 14.7755 23.2058 15.0002 23.7C15.0188 23.7862 15.0708 23.8615 15.1449 23.9093C15.219 23.9571 15.309 23.9736 15.3952 23.955C15.4814 23.9364 15.5567 23.8844 15.6045 23.8103C15.6523 23.7362 15.6688 23.6462 15.6502 23.56C15.6782 22.9858 15.5367 22.4162 15.2433 21.9218C14.9499 21.4275 14.5176 21.0304 14.0002 20.78Z" fill="black"/>
<path fill-rule="evenodd" clip-rule="evenodd" d="M23.5701 23.5602C23.5763 23.0715 23.4726 22.5878 23.2666 22.1447C23.0606 21.7015 22.7576 21.3104 22.3801 21.0002C22.1246 20.8451 21.8435 20.7368 21.5501 20.6802C23.1101 19.4702 22.9101 16.5602 20.8301 16.1402C20.7439 16.1216 20.6539 16.138 20.5798 16.1858C20.5057 16.2337 20.4537 16.309 20.4351 16.3952C20.4165 16.4814 20.433 16.5714 20.4808 16.6455C20.5286 16.7195 20.6039 16.7716 20.6901 16.7902C22.3101 17.1802 22.1401 20.6802 19.1601 20.0302C17.3001 19.6202 17.6201 16.3102 20.1101 16.4902C20.187 16.4981 20.2639 16.4752 20.3239 16.4264C20.384 16.3777 20.4221 16.3071 20.4301 16.2302C20.4381 16.1532 20.4151 16.0763 20.3664 16.0163C20.3176 15.9563 20.247 15.9181 20.1701 15.9102C19.569 15.8018 18.9488 15.8998 18.4103 16.1881C17.8718 16.4764 17.4465 16.9382 17.2034 17.4985C16.9603 18.0589 16.9136 18.6849 17.0709 19.2752C17.2282 19.8654 17.5803 20.3852 18.0701 20.7502C17.7447 20.8859 17.4387 21.0642 17.1601 21.2802C16.7984 21.5651 16.5196 21.9416 16.3526 22.3707C16.1855 22.7997 16.1363 23.2657 16.2101 23.7202C16.2228 23.7891 16.2593 23.8514 16.3132 23.8962C16.3671 23.9411 16.435 23.9656 16.5051 23.9656C16.5752 23.9656 16.6431 23.9411 16.697 23.8962C16.7509 23.8514 16.7873 23.7891 16.8001 23.7202C16.988 23.1343 17.3341 22.6118 17.8001 22.2102C18.1374 21.786 18.5429 21.421 19.0001 21.1302C19.5753 21.2682 20.1749 21.2682 20.7501 21.1302C21.3106 21.4019 21.7874 21.8199 22.1301 22.3402C22.4706 22.7659 22.75 23.2371 22.9601 23.7402C22.9983 23.8014 23.0555 23.8484 23.1229 23.8741C23.1903 23.8997 23.2643 23.9025 23.3335 23.8821C23.4027 23.8617 23.4633 23.8191 23.5061 23.761C23.5488 23.7028 23.5713 23.6323 23.5701 23.5602Z" fill="black"/>
<path fill-rule="evenodd" clip-rule="evenodd" d="M19.4303 9.61017C19.4303 8.88017 21.1303 6.27017 19.6403 5.61017C19.5603 5.61017 17.6403 4.68017 17.5503 4.67017C17.1703 4.67017 17.0203 5.09017 17.5003 5.44017C17.9803 5.79017 19.0903 6.44017 19.1503 6.52017C19.2103 6.60017 18.6803 8.52017 18.7303 9.46017C18.3803 9.36017 10.2503 9.67017 7.95034 9.57017C5.65034 9.47017 5.05034 9.51017 5.20034 11.8902C5.20034 12.0002 5.20034 12.4202 5.26034 12.5502C5.06034 12.9302 7.26034 13.0202 7.14034 13.0202C7.03149 14.4706 7.30022 15.9245 7.92034 17.2402C7.93891 17.3264 7.99095 17.4017 8.06503 17.4495C8.13911 17.4973 8.22915 17.5137 8.31534 17.4952C8.40154 17.4766 8.47683 17.4246 8.52465 17.3505C8.57247 17.2764 8.58891 17.1864 8.57034 17.1002C8.51034 16.5502 8.49034 15.8902 8.41034 15.2402C8.27789 14.4749 8.07022 13.7246 7.79034 13.0002C9.65034 13.0002 14.9703 13.1702 16.8503 13.3102C16.4597 13.9761 16.173 14.6977 16.0003 15.4502C15.6903 16.9002 15.5203 17.1702 16.0003 17.3102C16.0803 17.3102 16.2303 17.3102 16.3803 17.1502L16.5703 16.8102C17.1826 15.7673 17.5263 14.5887 17.5703 13.3802C18.0503 13.4702 18.8103 13.6502 19.1803 13.3802C19.5503 13.1102 19.4603 12.2202 19.5603 11.8302C19.7303 11.0002 20.1103 10.0002 19.4303 9.61017ZM18.4303 12.2802C18.3403 12.2802 8.86034 12.1602 7.15034 12.2802C6.74209 12.2782 6.33446 12.2481 5.93034 12.1902C5.95889 12.0483 5.95889 11.9021 5.93034 11.7602V10.3402C6.93234 10.3203 7.93455 10.367 8.93034 10.4802C10.7203 10.4802 12.9303 10.2102 14.9303 10.2102C15.0103 10.2102 18.9303 10.3502 18.9303 10.4202C18.9303 10.4902 18.3203 11.3202 18.4103 12.2802H18.4303Z" fill="black"/>
<path fill-rule="evenodd" clip-rule="evenodd" d="M6.21012 6.55011C5.78116 5.4113 5.52499 4.21472 5.45012 3.00011C5.40941 2.60668 5.47502 2.20953 5.64012 1.85011C5.75012 2.06011 5.86012 2.49011 5.94012 2.62011C6.68752 3.82684 7.52313 4.97664 8.44012 6.06011C8.68012 6.31011 8.99012 6.58011 9.29012 6.40011C10.2901 5.82011 11.0101 6.40011 12.2901 6.47011C12.041 7.18306 11.9891 7.95011 12.1401 8.69011C12.1401 8.83011 12.5001 9.28011 12.7301 8.85011C13.0632 8.10001 13.1574 7.26561 13.0001 6.46011C13.2336 6.43799 13.4646 6.39448 13.6901 6.33011C14.2865 6.52358 14.8334 6.84481 15.2928 7.27142C15.7523 7.69802 16.1131 8.21971 16.3501 8.80011C16.4101 9.09011 17.1701 9.16011 17.1701 8.71011C17.1141 8.13996 16.896 7.59777 16.5415 7.14766C16.1871 6.69755 15.7112 6.35833 15.1701 6.17011C14.3301 5.86011 14.4101 6.06011 14.7501 5.78011C15.3406 5.25658 15.7362 4.54838 15.8725 3.77107C16.0087 2.99376 15.8774 2.19323 15.5001 1.50011C15.2201 1.00011 14.4401 0.230108 14.1401 0.730108C14.0961 0.807258 14.0839 0.898594 14.1064 0.984566C14.1288 1.07054 14.184 1.14432 14.2601 1.19011C15.9701 2.27011 15.2601 6.11011 11.7901 5.27011C11.3459 5.15543 10.9521 4.89713 10.67 4.53541C10.3879 4.17369 10.2332 3.72884 10.2301 3.27011C10.2529 3.3161 10.2868 3.35571 10.3287 3.38538C10.3706 3.41505 10.4192 3.43386 10.4701 3.44011C11.0016 3.59945 11.5645 3.62345 12.1076 3.50993C12.6508 3.39642 13.1569 3.14898 13.5801 2.79011C13.8539 3.0156 14.1448 3.21954 14.4501 3.40011C14.5164 3.45846 14.6032 3.48807 14.6913 3.48245C14.7795 3.47682 14.8618 3.43641 14.9201 3.37011C14.9785 3.3038 15.0081 3.21704 15.0025 3.12889C14.9968 3.04075 14.9564 2.95846 14.8901 2.90011C14.6401 2.62011 14.3501 2.07011 14.1801 1.84011C13.5701 1.07011 12.4601 2.43011 11.4501 2.71011C10.4401 2.99011 10.3501 2.71011 10.2301 3.03011C10.2262 2.68092 10.2982 2.33504 10.4412 2.01643C10.5841 1.69782 10.7946 1.41409 11.0581 1.18487C11.3216 0.955652 11.6317 0.786428 11.967 0.688913C12.3023 0.591398 12.6548 0.567921 13.0001 0.620108C13.0823 0.62939 13.1649 0.605632 13.2296 0.55406C13.2943 0.502487 13.3358 0.427325 13.3451 0.345108C13.3544 0.262891 13.3306 0.180354 13.2791 0.115653C13.2275 0.0509534 13.1523 0.00939044 13.0701 0.000107866C12.4603 -0.106841 11.8328 -0.0411482 11.2583 0.189766C10.6839 0.42068 10.1855 0.807615 9.81934 1.30687C9.45322 1.80612 9.234 2.3978 9.18642 3.01508C9.13885 3.63236 9.26483 4.25065 9.55012 4.80011C10.0301 5.80011 10.3301 5.20011 9.16012 5.61011C8.29678 4.50704 7.53374 3.32902 6.88012 2.09011C6.70525 1.63877 6.45127 1.22225 6.13012 0.860108C5.96695 0.728797 5.76061 0.663182 5.55156 0.676132C5.34251 0.689082 5.14584 0.779662 5.00012 0.930108C4.73969 1.20236 4.54415 1.52995 4.42813 1.8884C4.31211 2.24685 4.27861 2.62689 4.33012 3.00011C4.41311 4.33895 4.7526 5.64938 5.33012 6.86011C5.84912 7.91379 6.68957 8.77526 7.73012 9.32011C7.96012 9.47011 8.44012 9.23011 8.24012 8.96011C7.82012 8.39011 6.58012 7.74011 6.21012 6.55011Z" fill="black"/>
</g>
<defs>
<clipPath id="clip0_36_531">
<rect width="24" height="24" fill="white"/>
</clipPath>
</defs>
</svg>
