<svg width="24" height="24" viewBox="0 0 24 24" fill="none" xmlns="http://www.w3.org/2000/svg">
<g clip-path="url(#clip0_36_523)">
<path fill-rule="evenodd" clip-rule="evenodd" d="M10.52 11.55C10.4967 11.169 10.3836 10.799 10.19 10.47C10.0499 10.2376 9.8745 10.0284 9.66999 9.85003C9.59415 9.78786 9.50558 9.7431 9.41055 9.71891C9.31551 9.69472 9.21632 9.69169 9.11999 9.71003C8.9925 9.75118 8.87458 9.81753 8.77322 9.90514C8.67187 9.99275 8.58916 10.0998 8.52999 10.22C8.26999 10.67 8.00999 11.49 7.88999 11.67C7.58529 12.1615 7.19195 12.5922 6.72999 12.94L6.63999 13C6.71999 12.87 6.79999 12.76 6.86999 12.63C7.05463 12.2755 7.16655 11.8876 7.19918 11.4892C7.23181 11.0908 7.18448 10.6899 7.05999 10.31C6.78454 9.60333 6.28134 9.00865 5.62999 8.62003C4.99081 8.21776 4.24458 8.019 3.48999 8.05003C2.85585 8.07085 2.23921 8.26318 1.70567 8.60655C1.17213 8.94991 0.74164 9.43148 0.45999 10C0.199489 10.5797 0.129814 11.2272 0.261013 11.849C0.392212 12.4709 0.717505 13.035 1.18999 13.46C1.31173 13.5804 1.4458 13.6877 1.58999 13.78C1.48274 13.8254 1.3791 13.8789 1.27999 13.94C1.08708 14.0811 0.909451 14.242 0.74999 14.42C0.437963 14.7987 0.21574 15.2432 0.0999899 15.72C-0.0151008 16.1999 -0.0151008 16.7002 0.0999899 17.18C0.187655 17.6037 0.392551 17.9943 0.69134 18.3072C0.99013 18.6201 1.3708 18.8429 1.78999 18.95V19.08C1.85999 19.73 1.98999 20.36 2.06999 20.98C2.06999 21.0675 2.10476 21.1515 2.16664 21.2134C2.22853 21.2753 2.31247 21.31 2.39999 21.31C2.47887 21.303 2.55258 21.2677 2.60766 21.2108C2.66273 21.1539 2.69551 21.0791 2.69999 21C2.75999 20.3 2.81999 19.58 2.82999 18.85V17.6C2.77349 16.9817 2.75679 16.3605 2.77999 15.74C2.78877 15.7032 2.78999 15.665 2.78358 15.6277C2.77717 15.5904 2.76327 15.5548 2.7427 15.523C2.72214 15.4912 2.69535 15.4639 2.66394 15.4428C2.63254 15.4216 2.59717 15.4071 2.55999 15.4C2.48582 15.3851 2.40875 15.3997 2.34523 15.4408C2.28171 15.482 2.23677 15.5462 2.21999 15.62C1.95768 16.3198 1.79933 17.0543 1.74999 17.8V18.12C1.50889 17.9349 1.32514 17.6852 1.21999 17.4C1.08487 16.9227 1.08487 16.4173 1.21999 15.94C1.26391 15.5911 1.36884 15.2526 1.52999 14.94C1.63104 14.7438 1.76269 14.5649 1.91999 14.41C2.03999 14.3 2.16999 14.21 2.28999 14.11L2.43999 14.18C3.07289 14.3446 3.72653 14.4154 4.37999 14.39C4.4569 14.39 4.53067 14.3595 4.58505 14.3051C4.63944 14.2507 4.66999 14.1769 4.66999 14.1C4.66999 14.0231 4.63944 13.9494 4.58505 13.895C4.53067 13.8406 4.4569 13.81 4.37999 13.81C3.79398 13.7972 3.21361 13.6926 2.65999 13.5C2.32998 13.3814 2.03925 13.1737 1.81999 12.9C1.51147 12.5808 1.30931 12.174 1.24128 11.7353C1.17324 11.2966 1.24265 10.8477 1.43999 10.45C1.6509 10.0643 1.95979 9.74104 2.33551 9.5128C2.71122 9.28456 3.14048 9.15943 3.57999 9.15002C4.12031 9.12098 4.65778 9.24582 5.12999 9.51003C5.61211 9.76191 6.00105 10.1614 6.23999 10.65C6.43496 11.187 6.41344 11.7787 6.17999 12.3C6.08231 12.5738 5.92614 12.8229 5.72236 13.0302C5.51857 13.2374 5.27206 13.3978 4.99999 13.5C4.95908 13.5115 4.92086 13.531 4.88757 13.5575C4.85429 13.5839 4.8266 13.6167 4.80612 13.6539C4.78564 13.6911 4.77278 13.7321 4.76829 13.7743C4.76381 13.8166 4.76778 13.8593 4.77999 13.9C4.79621 13.9541 4.82732 14.0024 4.86978 14.0396C4.91223 14.0767 4.96429 14.1011 5.01999 14.11C5.04392 14.1644 5.08575 14.2089 5.13851 14.2362C5.19127 14.2635 5.25179 14.2719 5.30999 14.26C5.96873 14.141 6.59744 13.8929 7.15999 13.53C7.72571 13.162 8.22313 12.6985 8.62999 12.16C8.72999 12.02 8.94999 11.16 9.18999 10.77C9.18999 10.86 9.26999 10.97 9.27999 11C9.40506 11.24 9.46049 11.5102 9.43999 11.78C9.41415 12.0951 9.34344 12.4049 9.22999 12.7C9.06227 13.1656 8.82637 13.6037 8.52999 14C8.2408 14.4166 7.90533 14.799 7.52999 15.14C7.29999 15.36 6.78999 15.64 6.52999 15.92C6.40392 16.0251 6.29584 16.1501 6.20999 16.29C6.14233 16.4439 6.11812 16.6134 6.13999 16.78C6.13999 17.08 6.31999 17.55 6.33999 17.71C6.39999 18.19 6.45999 18.71 6.47999 19.17C6.50999 19.6529 6.50999 20.1372 6.47999 20.62C6.46855 20.6658 6.46706 20.7135 6.4756 20.7598C6.48415 20.8062 6.50254 20.8502 6.52953 20.8889C6.55652 20.9276 6.59148 20.96 6.63207 20.984C6.67265 21.0081 6.71792 21.0231 6.76481 21.0281C6.8117 21.0332 6.85913 21.0281 6.9039 21.0133C6.94867 20.9985 6.98974 20.9742 7.02434 20.9422C7.05895 20.9101 7.08628 20.8711 7.10451 20.8276C7.12273 20.7841 7.13142 20.7372 7.12999 20.69C7.18987 20.1789 7.21992 19.6647 7.21999 19.15V17.63C7.21999 17.47 7.30999 16.82 7.14999 16.63L8.27999 15.86C8.72648 15.4863 9.12606 15.0599 9.46999 14.59C9.82652 14.1114 10.1096 13.5822 10.31 13.02C10.4711 12.5474 10.5424 12.0488 10.52 11.55Z" fill="black"/>
<path fill-rule="evenodd" clip-rule="evenodd" d="M18 4.9099C17.51 5.2699 17 5.6099 16.51 5.9099C16.0289 6.23726 15.5279 6.5345 15.01 6.7999C14.66 6.9999 14.3 7.1699 13.94 7.3399C13.58 7.5099 13.2 7.6999 12.82 7.8599C12.44 8.0199 11.82 8.2799 11.26 8.4799C11.2233 8.49041 11.1889 8.50805 11.159 8.53183C11.129 8.55561 11.104 8.58505 11.0855 8.61848C11.0669 8.65191 11.0551 8.68867 11.0507 8.72666C11.0464 8.76465 11.0495 8.80313 11.06 8.8399C11.0705 8.87667 11.0882 8.91101 11.112 8.94097C11.1357 8.97092 11.1652 8.99589 11.1986 9.01446C11.232 9.03303 11.2688 9.04484 11.3068 9.0492C11.3448 9.05357 11.3833 9.05041 11.42 9.0399C12.2891 8.9106 13.1504 8.73366 14 8.5099C14.5612 8.3249 15.1037 8.08718 15.62 7.7999C16.0482 7.53286 16.459 7.23893 16.85 6.9199C17.42 6.4499 17.95 5.9199 18.49 5.4199C18.5577 5.35493 18.5967 5.26574 18.5986 5.17197C18.6005 5.07821 18.565 4.98753 18.5 4.9199C18.4351 4.85227 18.3459 4.81323 18.2521 4.81135C18.1583 4.80947 18.0677 4.84493 18 4.9099Z" fill="black"/>
<path fill-rule="evenodd" clip-rule="evenodd" d="M13.2397 9.22C13.1655 9.20181 13.0871 9.21367 13.0215 9.253C12.956 9.29232 12.9086 9.35593 12.8897 9.43C12.7016 9.82744 12.5542 10.2429 12.4497 10.67C12.4077 10.8541 12.3809 11.0414 12.3697 11.23C12.3598 11.4132 12.3598 11.5968 12.3697 11.78C12.3697 12.22 12.4897 12.63 12.5597 13.05C12.5597 13.1375 12.5945 13.2215 12.6564 13.2833C12.7183 13.3452 12.8022 13.38 12.8897 13.38C12.9773 13.38 13.0612 13.3452 13.1231 13.2833C13.185 13.2215 13.2197 13.1375 13.2197 13.05C13.2197 12.65 13.3497 12.25 13.4097 11.83C13.4396 11.6613 13.4596 11.491 13.4697 11.32V10.8C13.4697 10.38 13.4097 9.99 13.4697 9.59C13.4801 9.55056 13.4823 9.50943 13.4762 9.46911C13.4701 9.4288 13.4559 9.39015 13.4343 9.35552C13.4128 9.32089 13.3845 9.29101 13.351 9.26771C13.3175 9.24441 13.2797 9.22818 13.2397 9.22Z" fill="black"/>
<path fill-rule="evenodd" clip-rule="evenodd" d="M16.1398 8.13C16.0644 8.12149 15.9886 8.1429 15.9288 8.18965C15.869 8.23639 15.8298 8.30474 15.8198 8.38C15.6438 8.90928 15.5068 9.45072 15.4098 10C15.3717 10.2383 15.3483 10.4788 15.3398 10.72V11.43C15.3398 11.99 15.4698 12.54 15.5498 13.09C15.555 13.1767 15.593 13.2581 15.6562 13.3176C15.7194 13.3771 15.803 13.4102 15.8898 13.41C15.9332 13.4087 15.9758 13.3989 16.0154 13.3811C16.0549 13.3633 16.0906 13.3379 16.1203 13.3063C16.15 13.2747 16.1732 13.2376 16.1886 13.1971C16.204 13.1565 16.2112 13.1133 16.2098 13.07C16.2098 12.52 16.3298 11.99 16.3798 11.45C16.3798 11.22 16.3798 10.99 16.4298 10.76C16.4798 10.53 16.4298 10.3 16.4298 10.07C16.4298 9.53 16.3598 9 16.3598 8.45C16.3692 8.3789 16.3519 8.30684 16.3113 8.24774C16.2707 8.18865 16.2096 8.1467 16.1398 8.13Z" fill="black"/>
<path fill-rule="evenodd" clip-rule="evenodd" d="M18.0004 8.88007C18.0004 9.17007 17.9404 9.47007 17.9204 9.77007C17.9054 10.0665 17.9054 10.3636 17.9204 10.6601C17.9616 11.3666 18.0586 12.0688 18.2104 12.7601C18.214 12.8028 18.2264 12.8443 18.2468 12.882C18.2672 12.9197 18.2952 12.9527 18.329 12.979C18.3629 13.0053 18.4018 13.0243 18.4433 13.0348C18.4849 13.0454 18.5282 13.0471 18.5704 13.0401C18.6563 13.03 18.7348 12.9867 18.789 12.9193C18.8432 12.852 18.8689 12.7661 18.8604 12.6801C18.8604 11.9901 18.9204 11.3101 18.9604 10.6201C18.9604 10.1601 19.0404 9.70007 19.0404 9.24007C19.0404 8.45007 18.9904 7.67007 18.9504 6.89007C18.9531 6.85197 18.9483 6.81371 18.9362 6.77748C18.9241 6.74125 18.9049 6.70777 18.8798 6.67897C18.8548 6.65016 18.8242 6.62659 18.79 6.60962C18.7558 6.59265 18.7185 6.58261 18.6804 6.58007C18.6428 6.57736 18.6051 6.58226 18.5694 6.59449C18.5338 6.60672 18.501 6.62601 18.473 6.65122C18.4449 6.67643 18.4223 6.70704 18.4064 6.74121C18.3905 6.77538 18.3817 6.81241 18.3804 6.85007C18.2204 7.52007 18.0604 8.19007 18.0004 8.88007Z" fill="black"/>
<path fill-rule="evenodd" clip-rule="evenodd" d="M23.71 3.06999C22.313 2.8896 20.9079 2.77946 19.5 2.73999H16.36C15.31 2.73999 14.27 2.73999 13.23 2.79999H11.08C9.99329 2.79999 8.90329 2.83999 7.80996 2.91999C6.59996 2.98999 5.38996 3.09999 4.17996 3.27999C4.10304 3.28927 4.03297 3.32873 3.98515 3.38968C3.93733 3.45063 3.91567 3.52808 3.92496 3.60499C3.93424 3.6819 3.9737 3.75198 4.03465 3.7998C4.09559 3.84762 4.17304 3.86927 4.24996 3.85999C4.81996 3.81999 5.39996 3.80999 5.99996 3.79999C5.99051 3.83265 5.99051 3.86733 5.99996 3.89999C5.89497 4.37549 5.81486 4.85614 5.75996 5.33999C5.74499 5.54305 5.74499 5.74693 5.75996 5.94999V6.56999C5.75996 7.04999 5.89996 7.51999 5.96996 7.99999C5.97506 8.08665 6.01313 8.16808 6.07634 8.22758C6.13956 8.28708 6.22314 8.32014 6.30996 8.31999C6.3859 8.30798 6.45497 8.26904 6.50455 8.21028C6.55413 8.15151 6.5809 8.07687 6.57996 7.99999C6.63996 7.51999 6.70996 6.99999 6.74996 6.55999V5.94999V5.33999C6.74996 4.84999 6.58996 4.39999 6.50996 3.91999V3.78999H6.98996C8.24996 3.78999 9.50996 3.84999 10.77 3.87999H13.31C14.15 3.87999 15.26 3.87999 16.24 3.77999C17.69 3.71999 19.15 3.61999 20.6 3.60999C21.21 3.60999 21.81 3.60999 22.41 3.67999C22.33 5.02999 22.25 6.37999 22.21 7.73999V10.06V12.39C22.21 13.17 22.13 13.93 22.04 14.7C22.0284 14.7873 22.0511 14.8756 22.1033 14.9465C22.1555 15.0174 22.2332 15.0652 22.32 15.08C22.4061 15.0914 22.4932 15.0684 22.5625 15.016C22.6317 14.9636 22.6776 14.886 22.69 14.8C23.0163 13.2514 23.2236 11.6802 23.31 10.1C23.31 9.15999 23.36 8.20999 23.31 7.26999C23.31 6.06999 23.16 4.87999 23.08 3.69999H23.72C23.7996 3.69757 23.8757 3.66642 23.9341 3.61229C23.9926 3.55815 24.0295 3.4847 24.038 3.40548C24.0466 3.32626 24.0262 3.24662 23.9806 3.18129C23.935 3.11595 23.8673 3.06931 23.79 3.04999L23.71 3.06999Z" fill="black"/>
<path fill-rule="evenodd" clip-rule="evenodd" d="M21.5198 14.6399C20.4244 14.8075 19.318 14.8944 18.2098 14.8999H15.1098H10.3898C10.3135 14.897 10.2389 14.9233 10.1813 14.9734C10.1237 15.0236 10.0874 15.0939 10.0798 15.1699C10.0771 15.208 10.082 15.2463 10.0941 15.2825C10.1062 15.3187 10.1253 15.3522 10.1504 15.381C10.1755 15.4098 10.206 15.4334 10.2403 15.4503C10.2745 15.4673 10.3117 15.4774 10.3498 15.4799C11.3498 15.6099 12.3498 15.7499 13.2898 15.8699C13.2572 15.9409 13.2304 16.0145 13.2098 16.0899C13.2 16.1729 13.2 16.2569 13.2098 16.3399C13.201 16.423 13.201 16.5068 13.2098 16.5899C13.2141 16.6398 13.2141 16.69 13.2098 16.7399C12.9696 16.8306 12.7574 16.9827 12.5942 17.1809C12.4311 17.3792 12.3227 17.6167 12.2798 17.8699C12.2798 17.9199 11.9998 19.6699 14.2098 19.4899C15.0298 19.4899 15.3798 18.7799 15.3498 18.0699C15.3307 17.7363 15.2075 17.4171 14.9977 17.157C14.7878 16.897 14.5018 16.7091 14.1798 16.6199C14.1842 16.6001 14.1842 16.5797 14.1798 16.5599C14.1896 16.4768 14.1896 16.3929 14.1798 16.3099C14.1942 16.2272 14.1942 16.1426 14.1798 16.0599V15.9799C14.7498 16.0299 15.3098 16.0599 15.8798 16.0599C16.4498 16.0599 17.0298 16.0599 17.5998 16.0099C18.9504 15.9178 20.2896 15.7002 21.5998 15.3599C21.686 15.3413 21.7613 15.2893 21.8091 15.2152C21.857 15.1411 21.8734 15.0511 21.8548 14.9649C21.8363 14.8787 21.7842 14.8034 21.7101 14.7556C21.6361 14.7078 21.546 14.6913 21.4598 14.7099L21.5198 14.6399ZM14.5198 18.1099C14.5798 18.3899 14.5198 18.7099 14.2298 18.7599C14.2298 18.7599 13.2298 19.2599 13.2298 18.1899C13.2485 18.0404 13.3193 17.9023 13.4298 17.7999C13.5044 17.7184 13.5991 17.6579 13.7044 17.6246C13.8097 17.5913 13.9219 17.5862 14.0298 17.6099C14.1537 17.6289 14.2678 17.6882 14.3546 17.7786C14.4413 17.8689 14.4959 17.9854 14.5098 18.1099H14.5198Z" fill="black"/>
</g>
<defs>
<clipPath id="clip0_36_523">
<rect width="24" height="24" fill="white"/>
</clipPath>
</defs>
</svg>
