<svg width="24" height="24" viewBox="0 0 24 24" fill="none" xmlns="http://www.w3.org/2000/svg">
<g clip-path="url(#clip0_36_451)">
<path fill-rule="evenodd" clip-rule="evenodd" d="M11.1298 15.63C10.7498 12.76 11.2398 10 10.3098 6.87005C10.0237 5.59202 9.25328 4.47469 8.16044 3.75297C7.0676 3.03125 5.7375 2.76136 4.44979 3.00005C3.59048 3.10594 2.7591 3.37402 1.99979 3.79005C1.14176 4.28545 0.486483 5.06823 0.149788 6.00005C0.0830563 6.85759 0.143715 7.72028 0.329788 8.56005C0.348472 9.30819 0.462732 10.0509 0.669788 10.77C1.49979 12.77 4.48979 13.37 6.66979 12.56C8.84979 11.75 8.10979 11.2 7.06979 11.72C6.29359 12.1104 5.42818 12.2891 4.56086 12.2382C3.69353 12.1873 2.85498 11.9085 2.12979 11.43C1.12979 10.6 1.26979 9.87004 1.12979 8.48004C0.999788 6.73004 0.619788 6.20005 1.81979 5.17005C2.30419 4.73432 2.88248 4.41608 3.50979 4.24005C4.16569 4.00761 4.86525 3.9247 5.55732 3.99736C6.24939 4.07003 6.91647 4.29644 7.50979 4.66005C10.3698 6.65005 9.57979 12 9.99979 15.78L10.4998 18.7C9.75626 18.6206 9.00455 18.7235 8.30979 19C8.30979 18.92 7.64979 12.91 7.55979 12.89C7.70979 12.41 6.92979 12.24 6.87979 12.83C6.87979 13.18 7.18979 15.77 7.19979 15.83C7.73979 20.32 7.43979 21.89 7.97979 23.12C8.51979 24.35 11.1098 24.2 11.7598 22.97C12.2798 22 11.7698 20.46 11.1298 15.63ZM9.82979 23.07C8.39979 23.23 8.60979 22.29 8.38979 19.8C9.167 19.9243 9.96358 19.8164 10.6798 19.49C10.7398 19.95 10.9898 21.65 10.9898 22.09C10.9998 22.75 10.4798 23 9.82979 23.07Z" fill="black"/>
<path fill-rule="evenodd" clip-rule="evenodd" d="M23.8498 3.14012C23.3998 1.14012 19.0898 -1.34988 15.8498 0.880117C12.4198 3.23012 13.3098 9.03012 12.8498 12.7801C12.8498 12.7001 11.9898 17.9901 12.0198 19.2401C12.0898 21.4201 15.3798 21.6701 16.0198 20.2401C16.4698 19.2401 16.2598 18.5901 16.5698 15.1801C17.0098 10.3701 17.4098 9.64012 16.8198 9.53012C16.6098 9.53012 16.2798 9.27012 16.0698 12.8501C15.7998 14.8501 15.7198 15.7701 15.6898 16.0801C14.9776 15.818 14.2124 15.7322 13.4598 15.8301L13.9598 12.9101C14.4198 9.06012 13.6398 3.78012 16.4698 1.79012C18.7198 0.210117 22.5498 1.73012 22.9998 3.35012C23.0561 4.10589 23.0124 4.86579 22.8698 5.61012C22.7598 6.99012 22.9298 7.73012 21.8698 8.61012C21.3665 9.00174 20.7706 9.25665 20.1398 9.35012C17.7098 9.74012 16.7198 8.54012 16.1398 8.73012C16.0793 8.74214 16.0242 8.77316 15.9825 8.81866C15.9408 8.86416 15.9147 8.92176 15.908 8.98311C15.9013 9.04445 15.9144 9.10632 15.9453 9.15974C15.9762 9.21315 16.0233 9.25532 16.0798 9.28012C16.2945 9.27157 16.5069 9.32728 16.6898 9.44012C17.5724 9.9087 18.564 10.1335 19.5624 10.0913C20.5608 10.0491 21.5299 9.74148 22.3698 9.20012C23.6898 8.20012 23.5698 7.26012 23.7298 5.74012C23.8998 4.88435 23.9403 4.0079 23.8498 3.14012ZM15.6098 16.9301C15.3998 19.3001 15.6098 20.3701 14.1698 20.2001C13.9612 20.1966 13.7562 20.1452 13.5707 20.0499C13.3851 19.9545 13.224 19.8177 13.0998 19.6501C12.9498 19.3501 12.9798 18.9101 13.3198 16.6501C14.0378 16.971 14.8357 17.0686 15.6098 16.9301Z" fill="black"/>
<path fill-rule="evenodd" clip-rule="evenodd" d="M2.45996 9.77C2.49592 10.0315 2.60948 10.2763 2.78598 10.4726C2.96247 10.669 3.19379 10.8079 3.45005 10.8714C3.7063 10.935 3.97572 10.9202 4.22349 10.829C4.47126 10.7378 4.686 10.5745 4.83996 10.36C5.19495 9.58167 5.3223 8.71874 5.20726 7.87105C5.09223 7.02336 4.73953 6.22557 4.18996 5.57C2.99996 4.3 1.99996 8.1 2.45996 9.77ZM3.99996 9.52999C3.99996 9.64 3.92996 9.77999 3.81996 9.77999C3.50996 9.77999 3.40996 9.07999 3.36996 8.77999C3.06996 5.89999 3.98996 5.78 4.22996 7.46C4.34135 8.15811 4.26188 8.87336 3.99996 9.52999Z" fill="black"/>
<path fill-rule="evenodd" clip-rule="evenodd" d="M20.1596 8.05012C21.9696 8.05012 21.7696 5.63012 21.3596 3.86012C21.3142 3.5722 21.2473 3.28808 21.1596 3.01012C20.9996 2.67012 19.5696 1.80012 18.8996 4.42012C18.5496 5.82012 18.7096 8.00012 20.1596 8.05012ZM19.7496 4.58012C19.8196 4.10012 19.9196 3.29012 20.4696 3.58012C20.4696 3.76012 20.5896 3.94012 20.5896 4.01012C20.8496 6.56012 20.1696 7.85012 19.8096 6.18012C19.6958 5.65444 19.6755 5.11284 19.7496 4.58012Z" fill="black"/>
</g>
<defs>
<clipPath id="clip0_36_451">
<rect width="24" height="24" fill="white"/>
</clipPath>
</defs>
</svg>
