<svg width="24" height="24" viewBox="0 0 24 24" fill="none" xmlns="http://www.w3.org/2000/svg">
<path d="M7.22965 18.5301C7.22965 19.5301 7.22965 19.7501 6.22965 20.3501C5.91965 20.7101 5.86965 21.1401 6.22965 21.1401C6.54683 21.0447 6.85475 20.9209 7.14965 20.7701C8.36965 20.1501 8.22965 19.3901 8.25965 18.5301C8.36197 17.4035 8.29795 16.268 8.06965 15.1601C7.95572 14.4046 7.60569 13.7045 7.06965 13.1601C6.76402 12.9809 6.42251 12.8716 6.06965 12.8401C5.71965 12.8401 5.66965 13.4301 6.06965 13.6001C6.70965 13.9401 6.99965 13.3901 7.22965 18.5301Z" fill="black"/>
<path d="M22.9098 12.5701C22.7584 12.3777 22.5529 12.235 22.3198 12.1601C22.3198 9.42008 22.2698 7.04008 20.4398 4.65008C17.0598 0.280078 9.52983 -0.0599225 5.30983 3.64008C3.85031 5.11334 2.90364 7.01718 2.60983 9.07008C2.39184 9.92544 2.30086 10.8082 2.33983 11.6901C1.84062 11.779 1.39382 12.0542 1.08983 12.4601C-0.230168 14.3301 -0.0201675 17.4601 0.0898325 19.7501C0.169833 21.0401 0.439832 22.1201 1.67983 22.4901C2.47863 22.7197 3.30952 22.8177 4.13983 22.7801C5.13983 22.6901 5.70983 22.2501 5.79983 21.2701C5.79983 21.2701 5.57983 12.8801 5.53983 12.9101C5.53983 11.8401 5.24983 11.8201 4.61983 11.7201L4.72983 11.0701C5.50983 6.91008 11.9198 3.47008 16.2898 7.17008C19.1398 9.58008 18.4698 11.2301 18.5098 13.0101C18.5498 14.7901 18.2598 19.6901 18.2398 21.3701C18.2619 21.7396 18.4061 22.0914 18.6498 22.3701C19.3898 23.1701 21.3198 22.8801 22.3598 22.5801C23.5998 22.2101 23.8698 21.1301 23.9498 19.8401C23.9998 17.5901 24.2198 14.4301 22.9098 12.5701ZM4.82983 12.3901C4.82983 13.1401 4.82983 12.5401 4.72983 16.2701C4.72983 17.7201 4.94983 21.1701 4.58983 21.5301C4.22983 21.8901 2.51983 21.5301 1.98983 21.4001C1.45983 21.2701 1.24983 20.4001 1.20983 19.6801C1.04983 17.7401 0.739833 14.5601 1.76983 12.9101C2.26983 12.1101 3.91983 12.2701 4.82983 12.3901ZM10.3898 4.62008C9.21231 4.89024 8.10341 5.40105 7.1328 6.1204C6.1622 6.83975 5.35088 7.75209 4.74983 8.80008C4.30837 9.67842 4.05304 10.6385 3.99983 11.6201C3.65049 11.5898 3.29918 11.5898 2.94983 11.6201C2.97998 10.8098 3.09732 10.0052 3.29983 9.22008C3.6611 7.36026 4.60709 5.66449 5.99983 4.38008C9.68983 1.28008 16.7198 1.52008 19.7498 5.24008C21.3898 7.24008 21.6398 9.46008 21.6898 12.0401C21.0184 12.0335 20.3481 12.0972 19.6898 12.2301C19.6851 11.0818 19.4265 9.94873 18.9327 8.91205C18.4388 7.87536 17.7219 6.96068 16.8332 6.23348C15.9445 5.50627 14.906 4.98454 13.7921 4.70561C12.6782 4.42669 11.5164 4.39748 10.3898 4.62008ZM22.7998 19.7801C22.7498 20.5001 22.6998 21.2901 22.0198 21.5001C21.2725 21.7283 20.4881 21.8098 19.7098 21.7401C18.7698 21.5601 19.4898 20.5401 19.1698 12.9201C19.7898 12.8601 21.9398 12.5101 22.2398 13.0101C23.2798 14.6701 22.9998 17.8601 22.7998 19.7801Z" fill="black"/>
<path d="M16.7597 19.7001C16.6097 19.4801 16.7597 14.8901 17.2997 14.0601C17.4997 13.7601 17.8697 13.7601 18.2497 13.5501C18.6297 13.3401 18.2497 12.8201 17.9297 12.8601C17.5706 12.9341 17.2304 13.0804 16.9297 13.2901C16.1097 13.9201 15.7597 15.5901 15.6997 16.6401C15.6997 17.1001 15.6997 19.3901 15.7697 19.6401C16.0097 20.6401 16.7697 20.9501 17.6497 21.2701C18.0897 21.3701 18.3097 20.8801 18.0097 20.5501C17.5232 20.3863 17.0909 20.0923 16.7597 19.7001Z" fill="black"/>
</svg>
