<svg width="24" height="24" viewBox="0 0 24 24" fill="none" xmlns="http://www.w3.org/2000/svg">
<g clip-path="url(#clip0_36_434)">
<path d="M8.99996 14.2099C8.88361 14.2517 8.78086 14.3244 8.70275 14.4202C8.62464 14.5161 8.57412 14.6314 8.55664 14.7537C8.53916 14.8761 8.55537 15.001 8.60352 15.1148C8.65168 15.2287 8.72997 15.3272 8.82996 15.3999C9.38996 15.9599 10.54 15.1299 9.92996 14.3999C9.83032 14.2533 9.67733 14.1513 9.5036 14.1158C9.32987 14.0803 9.14915 14.1141 8.99996 14.2099Z" fill="black"/>
<path d="M11.27 14.2099C11.1536 14.2517 11.0509 14.3244 10.9728 14.4202C10.8947 14.5161 10.8441 14.6314 10.8267 14.7537C10.8092 14.8761 10.8254 15.001 10.8735 15.1148C10.9217 15.2287 11 15.3272 11.1 15.3999C11.66 15.9599 12.82 15.1299 12.2 14.3999C12.1003 14.2533 11.9473 14.1513 11.7736 14.1158C11.5999 14.0803 11.4192 14.1141 11.27 14.2099Z" fill="black"/>
<path d="M8.61972 9.48C8.68972 10.15 8.77972 10.83 8.89972 11.48V11.56C8.86687 11.5863 8.83952 11.6187 8.81922 11.6555C8.79893 11.6924 8.7861 11.7328 8.78145 11.7746C8.77681 11.8164 8.78045 11.8587 8.79216 11.8991C8.80387 11.9395 8.82343 11.9772 8.84972 12.01C9.05908 12.256 9.32213 12.4507 9.61861 12.579C9.91508 12.7073 10.2371 12.7658 10.5597 12.75C10.8984 12.7557 11.2317 12.6646 11.5204 12.4875C11.8091 12.3103 12.0413 12.0545 12.1897 11.75C12.3777 11.3057 12.486 10.8318 12.5097 10.35C12.5797 9.35 12.3997 8.19 12.4297 7.35C12.5297 4.51 12.6097 3.62 12.6097 3.58L12.7797 1.34C12.7949 1.09357 12.7949 0.846432 12.7797 0.6C12.762 0.498459 12.72 0.402701 12.6573 0.320871C12.5946 0.239041 12.5131 0.173561 12.4197 0.13C12.2397 0.050902 12.0462 0.00678404 11.8497 0C11.515 0.0117151 11.1812 0.0417602 10.8497 0.09C10.4697 0.09 10.0197 0.03 9.60972 0.09C9.37041 0.109382 9.13828 0.181069 8.92972 0.3C8.72502 0.440519 8.55236 0.622759 8.4231 0.834748C8.29384 1.04674 8.2109 1.28368 8.17972 1.53C8.08267 2.38392 8.08267 3.24608 8.17972 4.1L8.23972 5.1C8.54972 9 8.59972 9.27 8.61972 9.48ZM9.13972 2.05C9.13972 1.69 9.22972 1.34 9.45972 1.21C9.59151 1.15141 9.73604 1.12732 9.87972 1.14C10.2397 1.14 10.6197 1.19 10.9497 1.14C11.2797 1.09 11.4197 1.08 11.6797 1.06V1.27L11.5397 3.47L11.4797 5.65V7.32C11.4797 8.18 11.7097 9.32 11.6897 10.32C11.6878 10.702 11.6201 11.0809 11.4897 11.44C11.4014 11.6287 11.2595 11.7872 11.0816 11.8957C10.9038 12.0042 10.6979 12.0578 10.4897 12.05C10.2774 12.0689 10.0636 12.0411 9.86317 11.9685C9.66278 11.896 9.48069 11.7804 9.32972 11.63C9.35977 11.6006 9.38194 11.5642 9.39418 11.524C9.40641 11.4838 9.40832 11.4411 9.39972 11.4C9.30972 10.74 9.25972 10.08 9.20972 9.4C9.14972 8.4 9.12972 7.4 9.09972 6.4V5V4.08C9.0639 3.40326 9.07727 2.72481 9.13972 2.05Z" fill="black"/>
<path d="M15.6499 10.5599C15.6868 9.33673 15.3894 8.12667 14.7899 7.05988C14.3942 6.46879 13.7911 6.0477 13.0999 5.87988C12.4999 5.87988 12.5699 6.41988 13.0999 6.62988C13.8999 6.99988 13.9999 7.31988 14.3399 7.99988C14.6674 8.81958 14.8239 9.69753 14.7999 10.5799C14.8703 12.0535 14.5713 13.5213 13.9299 14.8499C13.6245 15.4691 13.1469 15.9872 12.5545 16.3419C11.9621 16.6967 11.28 16.873 10.5899 16.8499C10.0793 16.8617 9.56987 16.7942 9.0799 16.6499C8.61578 16.5189 8.18806 16.2828 7.8299 15.9599C7.49099 15.6326 7.22517 15.2372 7.0499 14.7999C6.77049 14.0747 6.57586 13.3197 6.4699 12.5499C6.12867 11.1385 6.2228 9.65678 6.7399 8.29988C6.98011 7.70813 7.42819 7.2245 7.9999 6.93988C8.3099 6.80988 8.3399 6.05988 7.6499 6.37988C7.30154 6.51837 6.9857 6.72762 6.72234 6.99442C6.45899 7.26122 6.25385 7.57975 6.1199 7.92988C5.46884 9.40226 5.27716 11.0368 5.5699 12.6199C5.64615 13.4755 5.82752 14.3186 6.1099 15.1299C6.32574 15.7135 6.66712 16.2427 7.1099 16.6799C7.57966 17.1406 8.15199 17.4833 8.7799 17.6799C9.37805 17.8511 9.99775 17.9353 10.6199 17.9299C11.3193 17.9448 12.0128 17.7994 12.6472 17.5047C13.2817 17.21 13.8402 16.7739 14.2799 16.2299C15.3747 14.5535 15.8585 12.5512 15.6499 10.5599Z" fill="black"/>
<path d="M7.69995 20.53C7.59298 20.4014 7.45545 20.3017 7.29996 20.24C6.93996 20.09 6.29996 19.96 6.16996 19.86C5.71198 19.6072 5.27404 19.3197 4.85996 19C4.45386 18.6977 4.07264 18.3633 3.71996 18C2.68469 16.8067 2.03302 15.3292 1.84996 13.76C1.59478 12.1969 1.73574 10.5946 2.25996 9.10004C2.47891 8.49886 2.76046 7.92236 3.09996 7.38004C3.44414 6.83395 3.83923 6.32167 4.27996 5.85004C4.68382 5.37821 5.14777 4.96133 5.65996 4.61004C6.19608 4.29407 6.77555 4.05824 7.37996 3.91004C7.45402 3.89115 7.51763 3.84378 7.55696 3.77824C7.59628 3.7127 7.60814 3.63428 7.58996 3.56004C7.56894 3.48783 7.52069 3.4266 7.45539 3.38928C7.39009 3.35197 7.31284 3.34148 7.23995 3.36004C6.57233 3.47924 5.92557 3.69483 5.31996 4.00004C4.73851 4.37022 4.20454 4.81016 3.72996 5.31004C3.22673 5.79162 2.77128 6.32075 2.36996 6.89004C1.96981 7.46818 1.63446 8.08858 1.36996 8.74004C0.730178 10.3906 0.533663 12.1799 0.799955 13.93C1.02453 15.6998 1.79328 17.3561 2.99996 18.67C3.40278 19.0692 3.84127 19.4307 4.30996 19.75C4.77392 20.0678 5.26209 20.3486 5.76996 20.59L7.09996 21C7.31483 21.2947 7.45236 21.6385 7.49996 22C7.55 22.4119 7.55 22.8282 7.49996 23.24C7.48893 23.2836 7.48719 23.3289 7.49484 23.3731C7.50248 23.4173 7.51935 23.4595 7.54433 23.4968C7.56932 23.534 7.60187 23.5657 7.63987 23.5895C7.67787 23.6134 7.72047 23.629 7.7649 23.6354C7.80934 23.6417 7.85461 23.6387 7.89778 23.6264C7.94095 23.6141 7.98105 23.5929 8.01547 23.5641C8.0499 23.5353 8.07788 23.4995 8.09761 23.4592C8.11733 23.4189 8.12835 23.3749 8.12996 23.33C8.22056 22.767 8.22056 22.1931 8.12996 21.63C8.06587 21.2371 7.91932 20.8622 7.69995 20.53Z" fill="black"/>
<path d="M22.9998 14.4501C22.8098 13.8901 22.6198 13.3301 22.4398 12.7601C22.3198 12.3901 22.2198 12.0201 22.1198 11.6401C21.7515 9.6894 21.0765 7.80942 20.1198 6.07006C19.3739 4.93755 18.3379 4.02587 17.1198 3.43006C16.601 3.18934 16.0579 3.00496 15.4998 2.88006C14.958 2.74116 14.4064 2.64421 13.8498 2.59006C13.8122 2.58592 13.7742 2.58945 13.738 2.60041C13.7018 2.61137 13.6682 2.62955 13.6392 2.65385C13.6103 2.67814 13.5865 2.70805 13.5694 2.74177C13.5523 2.7755 13.5422 2.81233 13.5398 2.85006C13.5342 2.92542 13.5582 2.99999 13.6068 3.05789C13.6553 3.11579 13.7246 3.15245 13.7998 3.16006C14.3208 3.23059 14.8356 3.34091 15.3398 3.49006C17.023 3.93984 18.4605 5.03597 19.3398 6.54006C20.1634 8.23074 20.72 10.0389 20.9898 11.9001C21.0898 12.3001 21.1998 12.6901 21.3198 13.0801C21.4998 13.6601 21.6998 14.2301 21.8998 14.8101C21.9798 15.0401 22.0898 15.2801 22.1598 15.5301C22.2102 15.669 22.2102 15.8212 22.1598 15.9601C22.0555 16.1653 21.8766 16.3227 21.6598 16.4001C21.1967 16.574 20.7124 16.685 20.2198 16.7301C19.9556 16.7359 19.6918 16.7559 19.4298 16.7901C19.2237 16.838 19.0381 16.95 18.8998 17.1101C18.6659 17.3989 18.5108 17.7434 18.4498 18.1101C18.4668 18.7651 18.3859 19.4189 18.2098 20.0501C18.038 20.3307 17.8029 20.5674 17.5234 20.741C17.2438 20.9146 16.9275 21.0205 16.5998 21.0501C15.5022 21.2293 14.3815 21.2124 13.2898 21.0001C13.2484 20.9897 13.2053 20.9877 13.1632 20.9942C13.121 21.0007 13.0806 21.0156 13.0442 21.0379C13.0079 21.0603 12.9764 21.0897 12.9516 21.1244C12.9268 21.1591 12.9092 21.1984 12.8998 21.2401C12.8847 21.3234 12.9023 21.4093 12.9488 21.48C12.9954 21.5507 13.0673 21.6009 13.1498 21.6201C13.6534 21.7452 14.1644 21.8387 14.6798 21.9001C14.6359 22.0678 14.6025 22.2381 14.5798 22.4101C14.5698 22.5131 14.5698 22.617 14.5798 22.7201C14.5798 22.8201 14.5798 22.9201 14.6298 23.0201C14.6798 23.1201 14.7798 23.4801 14.8398 23.7201C14.8424 23.8058 14.8783 23.8872 14.9399 23.947C15.0015 24.0067 15.084 24.0401 15.1698 24.0401C15.2127 24.0401 15.2551 24.0315 15.2946 24.0148C15.3341 23.9981 15.3698 23.9736 15.3997 23.9428C15.4295 23.912 15.4529 23.8756 15.4683 23.8356C15.4838 23.7956 15.4911 23.7529 15.4898 23.7101C15.5584 23.4636 15.6119 23.2131 15.6498 22.9601C15.6598 22.8503 15.6598 22.7398 15.6498 22.6301C15.6471 22.5217 15.6302 22.4141 15.5998 22.3101C15.5592 22.1943 15.5125 22.0808 15.4598 21.9701C15.907 21.9938 16.3555 21.977 16.7998 21.9201C17.2567 21.8784 17.6974 21.73 18.0865 21.4868C18.4756 21.2436 18.8021 20.9125 19.0398 20.5201C19.2754 19.8228 19.4101 19.0954 19.4398 18.3601C19.4761 18.1527 19.5619 17.9572 19.6898 17.7901C19.7698 17.9901 20.1898 17.7901 20.3998 17.7901C20.997 17.7587 21.5864 17.6408 22.1498 17.4401C22.3838 17.3518 22.5981 17.218 22.78 17.0463C22.962 16.8747 23.1081 16.6686 23.2098 16.4401C23.3077 16.2134 23.3488 15.9662 23.3298 15.7201C23.2726 15.2847 23.1618 14.8581 22.9998 14.4501Z" fill="black"/>
</g>
<defs>
<clipPath id="clip0_36_434">
<rect width="24" height="24" fill="white"/>
</clipPath>
</defs>
</svg>
