<svg width="24" height="24" viewBox="0 0 24 24" fill="none" xmlns="http://www.w3.org/2000/svg">
<g clip-path="url(#clip0_36_270)">
<path fill-rule="evenodd" clip-rule="evenodd" d="M18.8299 9.13008L18.5199 8.72008C18.1899 8.42008 17.7199 8.60008 17.7399 8.88008C17.7399 8.96008 17.7399 9.07008 17.8399 9.14008C18.1499 9.44008 17.9599 9.32008 18.0599 9.50008C18.3299 10.4001 18.3999 12.5001 17.5399 13.2201C17.4672 13.2812 17.4193 13.3668 17.4052 13.4607C17.3911 13.5546 17.4118 13.6505 17.4633 13.7303C17.5149 13.8101 17.5938 13.8683 17.6852 13.894C17.7767 13.9198 17.8743 13.9113 17.9599 13.8701C18.3522 13.6367 18.69 13.3221 18.9507 12.9474C19.2114 12.5727 19.3889 12.1466 19.4713 11.6976C19.5537 11.2487 19.5391 10.7873 19.4285 10.3444C19.3179 9.9016 19.1138 9.48755 18.8299 9.13008Z" fill="black"/>
<path fill-rule="evenodd" clip-rule="evenodd" d="M22.12 5.61009C22 5.44009 20.47 3.91009 20.24 4.56009C19.75 4.95009 20.93 5.24009 21.39 6.07009C21.9741 7.17247 22.3663 8.36616 22.55 9.60009C23.19 13.3101 21.68 16.2101 19.27 17.4701C19.2241 17.4931 19.1831 17.5249 19.1494 17.5637C19.1157 17.6025 19.09 17.6476 19.0738 17.6963C19.0575 17.7451 19.0511 17.7966 19.0547 17.8478C19.0583 17.8991 19.072 17.9491 19.095 17.9951C19.118 18.0411 19.1498 18.082 19.1886 18.1157C19.2275 18.1494 19.2725 18.1751 19.3213 18.1913C19.37 18.2076 19.4215 18.2141 19.4728 18.2104C19.524 18.2068 19.5741 18.1931 19.62 18.1701C24.51 15.8601 25.25 10.0601 22.12 5.61009Z" fill="black"/>
<path fill-rule="evenodd" clip-rule="evenodd" d="M13.7999 3.40008C11.8999 1.00008 6.4299 5.91009 5.0799 8.76009C5.02118 8.7196 4.95121 8.69861 4.8799 8.70008C1.9999 8.65008 -0.770101 10.9301 0.199899 13.8301C0.392361 14.421 0.74131 14.9487 1.20967 15.3572C1.67803 15.7657 2.2483 16.0397 2.8599 16.1501C3.35883 16.2647 3.86811 16.3284 4.3799 16.3401C6.5899 16.2301 6.3799 16.1301 5.6399 9.90008C5.5799 9.56008 4.8899 9.49009 4.9899 10.3001C5.13433 11.8935 5.13433 13.4967 4.9899 15.0901C4.6299 15.0401 4.9099 15.0901 3.7399 15.0001L2.7399 14.7301C1.2499 14.1801 0.309899 11.5601 2.9199 10.0701C4.6599 9.07008 5.1699 10.0001 5.9199 8.73008C7.13811 6.91236 8.77812 5.41646 10.6999 4.37008C11.2899 4.06008 12.4799 3.55008 12.8699 4.10008C13.8699 5.48008 14.1199 16.5101 12.9299 19.1701C12.5899 19.9301 12.1199 20.3801 11.3199 20.1701C10.0999 19.8501 7.6799 18.0101 6.3199 16.4801C6.25094 16.3979 6.15215 16.3464 6.04525 16.337C5.93836 16.3277 5.83212 16.3611 5.7499 16.4301C5.66768 16.499 5.61622 16.5978 5.60685 16.7047C5.59747 16.8116 5.63094 16.9179 5.6999 17.0001C6.84325 18.3185 8.16618 19.4698 9.6299 20.4201C9.99275 20.727 10.4166 20.9534 10.8734 21.0844C11.3302 21.2154 11.8096 21.248 12.2799 21.1801C13.9599 20.7501 14.4499 18.4801 14.6899 16.7601C14.9999 14.1201 15.4099 5.51008 13.7999 3.40008Z" fill="black"/>
</g>
<defs>
<clipPath id="clip0_36_270">
<rect width="24" height="24" fill="white"/>
</clipPath>
</defs>
</svg>
