<svg width="24" height="24" viewBox="0 0 24 24" fill="none" xmlns="http://www.w3.org/2000/svg">
<g clip-path="url(#clip0_32_283)">
<path d="M12.0003 5.77001C11.5528 5.76594 11.1161 5.90698 10.7555 6.172C10.3949 6.43701 10.1299 6.81173 10.0003 7.24001C9.86353 7.68149 9.7829 8.13841 9.76025 8.60001C9.78572 9.24032 9.85253 9.87832 9.96025 10.51C10.1103 11.51 10.3303 12.51 10.5103 13.51C10.7903 15.15 10.9003 15.51 11.6103 16.05C11.8366 16.1759 12.1002 16.2178 12.3545 16.1684C12.6087 16.119 12.8374 15.9815 13.0003 15.78C13.3496 15.3236 13.6076 14.8041 13.7603 14.25C13.9503 13.7 14.1203 13.14 14.2803 12.58C14.5103 11.74 14.7103 10.89 14.9003 10.06C15.025 9.58091 15.112 9.09274 15.1603 8.60001C15.1831 8.21316 15.1287 7.82563 15.0003 7.46001C14.7105 6.92405 14.2751 6.48097 13.7442 6.18193C13.2134 5.88289 12.6088 5.74009 12.0003 5.77001ZM13.8903 9.85001C13.7503 10.68 13.5903 11.52 13.4103 12.35C13.2803 12.91 13.1503 13.45 12.9903 13.99C12.9001 14.4476 12.72 14.8827 12.4603 15.27C12.4054 15.3498 12.3242 15.4076 12.2308 15.4332C12.1375 15.4589 12.0381 15.4506 11.9503 15.41C11.5503 15.12 11.5703 15.21 11.2603 13.41C11.1003 12.41 11.0103 11.41 10.9203 10.41C10.8564 9.81897 10.833 9.22425 10.8503 8.63001C10.8484 8.26469 10.8989 7.90099 11.0003 7.55001C11.1703 6.96001 11.8003 6.86001 12.4003 6.94001C12.7128 6.95927 13.0158 7.05508 13.2826 7.219C13.5494 7.38292 13.7718 7.60992 13.9303 7.88001C14.0046 8.09872 14.0385 8.32915 14.0303 8.56001C13.9992 8.99415 13.9357 9.42536 13.8403 9.85001H13.8903Z" fill="black"/>
<path d="M11.8001 17.38C11.3609 17.4268 10.9409 17.5852 10.5801 17.84C10.3733 17.9849 10.2014 18.1741 10.0768 18.3938C9.9523 18.6135 9.87827 18.8581 9.86012 19.11C9.83894 19.377 9.88347 19.6451 9.9898 19.8909C10.0961 20.1367 10.261 20.3527 10.4701 20.52C10.7584 20.7204 11.091 20.8478 11.4393 20.8913C11.7877 20.9349 12.1414 20.8932 12.4701 20.77C12.8114 20.6583 13.1126 20.4492 13.3364 20.1685C13.5603 19.8877 13.6972 19.5476 13.7301 19.19C13.7434 18.9859 13.7127 18.7813 13.6401 18.59C13.5305 18.2006 13.284 17.8638 12.946 17.6415C12.608 17.4192 12.2011 17.3264 11.8001 17.38ZM13.0001 19.1C12.9453 19.2724 12.8447 19.4267 12.7091 19.5465C12.5735 19.6662 12.408 19.7469 12.2301 19.78C12.0628 19.8354 11.8846 19.8498 11.7106 19.8219C11.5366 19.7941 11.3718 19.7249 11.2301 19.62C11.1621 19.5647 11.1077 19.4944 11.0713 19.4146C11.0349 19.3348 11.0174 19.2477 11.0201 19.16C11.0116 19.0578 11.0251 18.955 11.0596 18.8584C11.0941 18.7618 11.1488 18.6737 11.2201 18.6C11.4238 18.3887 11.6787 18.2336 11.9601 18.15C12.5401 18.01 12.7301 18.06 12.9601 18.76C13.0041 18.8676 13.0179 18.9852 13.0001 19.1Z" fill="black"/>
<path d="M23.9301 19.64C23.6908 18.6239 23.3937 17.6222 23.0401 16.64C22.7055 15.5519 22.2703 14.4974 21.7401 13.49C21.0001 12 20.0901 10.61 19.3101 9.17002C18.6801 8.00002 18.2001 6.91002 17.5701 5.83002C17.2939 5.34723 16.9866 4.88292 16.6501 4.44002C15.9514 3.32843 15.1222 2.30447 14.1801 1.39002C13.6631 0.933835 12.9888 0.697082 12.3001 0.730018C11.9968 0.767066 11.706 0.873112 11.4501 1.04002C11.1432 1.23311 10.8523 1.45047 10.5801 1.69002C10.0634 2.10687 9.58788 2.57234 9.16009 3.08002C8.54009 3.81002 8.00009 4.61002 7.44009 5.41002L5.44009 8.10002C4.62494 9.39202 3.88051 10.7273 3.21009 12.1C2.54342 13.4734 1.93342 14.87 1.38009 16.29C1.11009 17 0.810089 17.69 0.550089 18.41C-0.179911 20.51 -0.259911 21.26 0.900089 21.91C1.85046 22.3143 2.86779 22.5381 3.90009 22.57L5.00009 22.68C6.81009 22.8 8.62009 23.02 10.4401 23.16C11.2201 23.22 12.0101 23.26 12.8001 23.28H14.6001C15.9801 23.28 17.3601 23.15 18.7401 23.11C20.0372 23.1847 21.3373 23.0289 22.5801 22.65C22.8993 22.5248 23.1864 22.3295 23.42 22.0786C23.6537 21.8276 23.828 21.5274 23.9301 21.2C24.0394 20.6858 24.0394 20.1543 23.9301 19.64ZM22.8401 20.88C22.7457 21.1262 22.5876 21.3429 22.3821 21.5081C22.1765 21.6732 21.9308 21.7809 21.6701 21.82C20.6834 22.0225 19.6771 22.1131 18.6701 22.09C17.2901 22.15 15.9101 22.27 14.5301 22.33H12.7801C12.0134 22.33 11.2434 22.3 10.4701 22.24C8.63009 22.18 6.81009 22 5.00009 21.9L3.95009 21.81C3.02891 21.7959 2.11777 21.6164 1.26009 21.28C0.770089 21.01 0.390089 20.69 1.16009 18.61C1.42009 17.91 1.74009 17.22 2.02009 16.53C2.59009 15.13 3.21009 13.77 3.90009 12.44C4.58307 11.1082 5.34095 9.81612 6.17009 8.57002L8.20009 6.00002C8.76009 5.23002 9.30009 4.48002 9.91009 3.78002C10.3097 3.32917 10.748 2.91425 11.2201 2.54002C11.4652 2.32139 11.7259 2.12086 12.0001 1.94002C12.1229 1.85819 12.2635 1.80678 12.4101 1.79002C12.695 1.80828 12.9727 1.88734 13.2246 2.02188C13.4764 2.15642 13.6965 2.34332 13.8701 2.57002C14.5602 3.37728 15.1918 4.23279 15.7601 5.13002C16.1721 5.67654 16.54 6.25504 16.8601 6.86002C17.3601 7.79002 17.7801 8.74002 18.3101 9.72002C19.0901 11.15 19.9801 12.57 20.7301 14.04C21.2454 14.9846 21.6706 15.9757 22.0001 17C22.2001 17.68 22.5901 18.58 22.8101 19.46C22.9295 19.9247 22.9398 20.4107 22.8401 20.88Z" fill="black"/>
</g>
<defs>
<clipPath id="clip0_32_283">
<rect width="24" height="24" fill="white"/>
</clipPath>
</defs>
</svg>
