<svg width="24" height="24" viewBox="0 0 24 24" fill="none" xmlns="http://www.w3.org/2000/svg">
<g clip-path="url(#clip0_32_279)">
<path d="M11.4899 11.34C11.0999 11.01 11.0999 10.77 10.0099 10.78C9.60447 10.84 9.22617 11.0195 8.92334 11.2956C8.62051 11.5717 8.40692 11.9319 8.30987 12.33C8.21945 12.6294 8.22168 12.949 8.31627 13.2471C8.41086 13.5451 8.59338 13.8076 8.83987 14C9.18471 14.1951 9.57849 14.2866 9.97402 14.2635C10.3695 14.2405 10.75 14.1038 11.0699 13.87C11.4102 13.6764 11.6753 13.3737 11.8223 13.0107C11.9693 12.6478 11.9896 12.2459 11.8799 11.87C11.7952 11.6641 11.6613 11.4821 11.4899 11.34ZM10.4899 13.05C10.3375 13.1636 10.156 13.2315 9.96651 13.2457C9.77701 13.2599 9.58739 13.2197 9.41987 13.13C9.16987 12.97 9.20987 12.63 9.30987 12.33C9.40987 12.03 9.67987 11.55 10.0199 11.49C10.1784 11.4708 10.3391 11.4899 10.4887 11.5456C10.6384 11.6012 10.7725 11.6919 10.8799 11.81C10.9794 11.8964 11.0494 12.0118 11.0799 12.14C11.2199 12.53 10.8899 12.85 10.5299 13.05H10.4899Z" fill="black"/>
<path d="M5.5698 16.58C5.1798 16.25 5.1798 16.01 4.0798 16.02C3.67621 16.0818 3.30008 16.2621 2.99918 16.5381C2.69828 16.8141 2.48617 17.1733 2.3898 17.57C2.29043 17.8749 2.28804 18.203 2.38296 18.5093C2.47788 18.8155 2.66544 19.0848 2.9198 19.28C3.26464 19.4751 3.65842 19.5666 4.05395 19.5435C4.44947 19.5205 4.82995 19.3838 5.1498 19.15C5.49016 18.9564 5.75526 18.6537 5.90225 18.2907C6.04924 17.9278 6.06951 17.5259 5.9598 17.15C5.88101 16.9296 5.74668 16.7333 5.5698 16.58ZM4.5698 18.29C4.41748 18.4036 4.23593 18.4715 4.04643 18.4857C3.85693 18.4998 3.66732 18.4597 3.4998 18.37C3.2498 18.21 3.2898 17.87 3.3898 17.57C3.4898 17.27 3.7498 16.79 4.0998 16.73C4.25668 16.7125 4.41548 16.7323 4.56322 16.7879C4.71096 16.8436 4.84343 16.9334 4.9498 17.05C5.05202 17.1358 5.12534 17.2511 5.1598 17.38C5.2998 17.77 4.9998 18.09 4.6098 18.29H4.5698Z" fill="black"/>
<path d="M16.7701 11.21C16.3601 10.86 16.3601 10.64 15.2801 10.64C14.8752 10.7025 14.4981 10.8843 14.1971 11.1622C13.896 11.4401 13.6847 11.8014 13.5901 12.2C13.4915 12.5034 13.4895 12.8299 13.5844 13.1344C13.6794 13.4389 13.8665 13.7064 14.1201 13.9C14.4625 14.1026 14.8577 14.1985 15.2549 14.1754C15.6522 14.1522 16.0335 14.0111 16.3501 13.77C16.6904 13.5764 16.9555 13.2737 17.1025 12.9107C17.2495 12.5478 17.2698 12.1459 17.1601 11.77C17.0814 11.5524 16.9469 11.3593 16.7701 11.21ZM15.7701 12.92C15.6177 13.0336 15.4362 13.1015 15.2467 13.1157C15.0572 13.1298 14.8676 13.0897 14.7001 13C14.4501 12.84 14.4901 12.49 14.5901 12.19C14.6901 11.89 14.9501 11.41 15.3001 11.36C15.5292 11.3224 15.7643 11.3657 15.965 11.4824C16.1657 11.5992 16.3195 11.7822 16.4001 12C16.5001 12.4 16.1701 12.71 15.8101 12.92H15.7701Z" fill="black"/>
<path d="M10.8499 16.45C10.4599 16.12 10.4599 15.88 9.35991 15.88C8.95192 15.9345 8.57069 16.1136 8.26824 16.3928C7.96578 16.672 7.75684 17.0377 7.66991 17.44C7.56979 17.7432 7.56707 18.0702 7.66211 18.3751C7.75716 18.6799 7.94521 18.9474 8.19991 19.14C8.54335 19.3412 8.93902 19.4354 9.33628 19.4105C9.73354 19.3855 10.1143 19.2426 10.4299 19C10.7703 18.8064 11.0354 18.5037 11.1824 18.1407C11.3294 17.7778 11.3496 17.3759 11.2399 17C11.1597 16.786 11.0253 16.5965 10.8499 16.45ZM9.84991 18.16C9.69759 18.2736 9.51605 18.3415 9.32655 18.3557C9.13704 18.3698 8.94743 18.3297 8.77991 18.24C8.51991 18.08 8.56991 17.73 8.66991 17.43C8.76991 17.13 9.02991 16.65 9.37991 16.6C9.53598 16.5812 9.69429 16.5995 9.84197 16.6534C9.98966 16.7072 10.1226 16.7952 10.2299 16.91C10.3321 16.9958 10.4054 17.1111 10.4399 17.24C10.5699 17.64 10.2499 18 9.88991 18.16H9.84991Z" fill="black"/>
<path d="M21.3001 11.31C20.9101 10.97 20.9001 10.74 19.8101 10.74C19.4021 10.7945 19.0209 10.9736 18.7184 11.2528C18.416 11.532 18.207 11.8977 18.1201 12.3C18.02 12.6032 18.0173 12.9302 18.1123 13.235C18.2074 13.5399 18.3954 13.8074 18.6501 14C18.9926 14.2026 19.3877 14.2985 19.7849 14.2753C20.1822 14.2522 20.5635 14.111 20.8801 13.87C21.2205 13.6764 21.4856 13.3736 21.6326 13.0107C21.7795 12.6478 21.7998 12.2459 21.6901 11.87C21.6114 11.6524 21.4769 11.4592 21.3001 11.31ZM20.3001 13.02C20.1478 13.1336 19.9662 13.2015 19.7767 13.2157C19.5872 13.2298 19.3976 13.1897 19.2301 13.1C18.9701 12.94 19.0201 12.59 19.1201 12.29C19.2201 11.99 19.4801 11.51 19.8301 11.46C20.053 11.4321 20.2788 11.4801 20.4711 11.5962C20.6634 11.7123 20.811 11.8898 20.8901 12.1C21.0001 12.5 20.7001 12.81 20.3401 13L20.3001 13.02Z" fill="black"/>
<path d="M14.55 16C14.1464 16.0618 13.7703 16.2422 13.4694 16.5181C13.1685 16.7941 12.9564 17.1533 12.86 17.55C12.7606 17.8549 12.7583 18.183 12.8532 18.4893C12.9481 18.7956 13.1357 19.0648 13.39 19.26C13.7356 19.4527 14.129 19.5428 14.5239 19.5198C14.9189 19.4968 15.2992 19.3616 15.62 19.13C15.9604 18.9364 16.2255 18.6337 16.3725 18.2708C16.5195 17.9078 16.5397 17.5059 16.43 17.13C16.2743 16.7686 16.0092 16.4652 15.6719 16.2624C15.3346 16.0597 14.9422 15.9679 14.55 16ZM15.08 18.27C14.9277 18.3837 14.7461 18.4515 14.5566 18.4657C14.3671 18.4799 14.1775 18.4398 14.01 18.35C13.76 18.19 13.8 17.85 13.9 17.54C14 17.23 14.27 16.77 14.61 16.71C14.7661 16.6913 14.9244 16.7096 15.0721 16.7634C15.2198 16.8173 15.3527 16.9052 15.46 17.02C15.5604 17.1075 15.6333 17.2221 15.67 17.35C15.77 17.72 15.44 18 15.08 18.24V18.27Z" fill="black"/>
<path d="M15.7601 3.87002C15.6471 4.62822 15.7297 5.4027 16.0001 6.12002C16.1808 6.47172 16.4839 6.74517 16.8523 6.88884C17.2207 7.03252 17.6289 7.03649 18.0001 6.90002C18.2525 6.83886 18.4856 6.71523 18.6778 6.5405C18.87 6.36576 19.0152 6.14552 19.1001 5.90002C19.2636 5.33887 19.3246 4.75282 19.2801 4.17002V3.83002V2.71002C19.295 2.4886 19.2616 2.26659 19.1822 2.05938C19.1027 1.85216 18.9792 1.66471 18.8201 1.51002C18.287 1.14837 17.6367 1.00189 17.0001 1.10002C16.9572 1.09868 16.9145 1.10596 16.8745 1.12145C16.8345 1.13693 16.7981 1.16028 16.7673 1.19013C16.7365 1.21998 16.712 1.25571 16.6953 1.2952C16.6786 1.3347 16.67 1.37714 16.6701 1.42002C16.6455 1.35835 16.5999 1.30741 16.5413 1.27628C16.4826 1.24514 16.4149 1.23583 16.3501 1.25002C16.2847 1.26832 16.2249 1.30257 16.176 1.3497C16.1271 1.39683 16.0907 1.45535 16.0701 1.52002C16.0105 1.87002 15.987 2.22522 16.0001 2.58002L15.8601 3.19002C15.8079 3.41352 15.7745 3.64097 15.7601 3.87002ZM16.5901 3.46002C16.5901 3.46002 16.7501 1.60002 16.7501 1.53002C16.7753 1.58886 16.8171 1.6391 16.8703 1.67461C16.9236 1.71012 16.986 1.72937 17.0501 1.73002C17.9501 1.73002 18.3301 1.90002 18.4301 2.25002C18.4625 2.88627 18.4189 3.52412 18.3001 4.15002C18.3028 4.53717 18.2591 4.92325 18.1701 5.30002C18.1001 5.54002 18.0101 5.78002 17.7601 5.84002C17.6625 5.88421 17.5563 5.90608 17.4492 5.90403C17.3421 5.90198 17.2368 5.87605 17.141 5.82815C17.0452 5.78024 16.9613 5.71157 16.8954 5.62712C16.8295 5.54268 16.7832 5.44459 16.7601 5.34002C16.6011 4.72684 16.5437 4.09176 16.5901 3.46002Z" fill="black"/>
<path d="M8.54969 3.56002C8.54969 3.66002 8.61969 3.76002 9.00969 3.80002C9.56969 3.80002 9.80969 3.98002 10.5797 4.02002H11.8397H13.0897C13.7797 4.02002 14.1997 3.96002 14.8997 3.91002C15.2297 3.91002 15.4897 3.27002 15.0497 3.16002C14.2897 3.13002 13.7697 3.00002 12.9997 3.00002H10.9997C10.3813 2.99798 9.76345 3.03472 9.14969 3.11002C8.72969 3.14002 8.53969 3.41002 8.54969 3.56002Z" fill="black"/>
<path d="M22.9999 4.06999C22.6624 3.70287 22.2182 3.45102 21.7299 3.34999C21.2671 3.22759 20.7877 3.18032 20.3099 3.20999C19.5999 3.30999 19.7899 3.79999 20.1599 3.79999C20.4949 3.79663 20.8296 3.82341 21.1599 3.87999C21.6587 3.91561 22.1261 4.13681 22.4699 4.49999C22.7029 4.96738 22.8358 5.47829 22.8599 5.99999C22.9599 6.77999 23.0399 7.78999 23.0899 8.89999C21.6199 8.89999 18.6699 8.77999 15.3599 8.71999H11.9699H8.57989C4.99989 8.74999 1.88989 8.86999 0.909886 8.90999C0.903539 7.40125 1.05774 5.89611 1.36989 4.41999C1.46826 4.2394 1.61249 4.08793 1.78805 3.98084C1.96361 3.87374 2.1643 3.81482 2.36989 3.80999C2.78521 3.70893 3.21298 3.66851 3.63989 3.68999C3.69641 3.68026 3.74837 3.65279 3.78823 3.61155C3.8281 3.5703 3.85379 3.51744 3.86159 3.46062C3.86939 3.40379 3.85889 3.34596 3.83161 3.2955C3.80434 3.24505 3.7617 3.20459 3.70989 3.17999C3.0904 3.0458 2.44937 3.0458 1.82989 3.17999C1.58451 3.23903 1.35594 3.35356 1.16178 3.51479C0.967608 3.67602 0.813013 3.87964 0.709886 4.10999C0.319886 5.02999 -0.0801144 10.11 0.00988563 14.61C0.0798856 17.88 0.469886 20.81 1.18989 21.69C1.71989 22.33 3.09989 22.69 4.83989 22.83C7.54989 23.01 11.1499 22.71 13.0099 22.71C15.3457 22.784 17.6839 22.7071 20.0099 22.48C21.0584 22.3889 22.0783 22.0897 23.0099 21.6C23.2812 21.37 23.462 21.051 23.5199 20.7C23.8759 18.6465 24.0367 16.5638 23.9999 14.48C23.9999 9.99999 23.6299 4.80999 22.9999 4.06999ZM22.7499 19.53C22.6941 19.9688 22.5833 20.3989 22.4199 20.81C21.3008 21.2784 20.1028 21.5295 18.8899 21.55C16.5499 21.74 13.9699 21.65 13.0099 21.65C11.1699 21.65 7.59989 21.96 4.90989 21.8C3.52989 21.72 2.38989 21.58 1.96989 21.08C1.28989 20.29 0.999886 17.6 0.909886 14.63C0.843405 12.9207 0.836734 11.2097 0.889886 9.49999C1.88989 9.49999 4.93989 9.65999 8.57989 9.72999H11.9699H15.3599C18.6899 9.66999 21.6499 9.57999 23.1099 9.53999C23.1099 10.54 23.1599 11.67 23.1099 12.77C23.1299 15.0286 23.0097 17.2863 22.7499 19.53Z" fill="black"/>
<path d="M4.47989 3.84002C4.40292 4.64077 4.48102 5.44884 4.70989 6.22002C4.89062 6.57172 5.19375 6.84518 5.56215 6.98885C5.93054 7.13252 6.33877 7.1365 6.70989 7.00002C6.96457 6.94123 7.20009 6.81859 7.39428 6.64365C7.58847 6.4687 7.73494 6.24721 7.81989 6.00002C7.98997 5.43331 8.05105 4.83949 7.99989 4.25002V3.19002V2.79002C8.01349 2.56874 7.97947 2.34712 7.90012 2.1401C7.82076 1.93309 7.69792 1.74551 7.53989 1.59002C7.00859 1.22395 6.35788 1.07379 5.71989 1.17002C5.63237 1.17002 5.54843 1.20479 5.48654 1.26668C5.42466 1.32857 5.38989 1.4125 5.38989 1.50002C5.36535 1.43836 5.31971 1.38742 5.2611 1.35628C5.20249 1.32515 5.13472 1.31584 5.06989 1.33002C5.00451 1.34833 4.9447 1.38258 4.89583 1.42971C4.84696 1.47683 4.81056 1.53536 4.78989 1.60002C4.71481 1.92846 4.67128 2.26331 4.65989 2.60002L4.54989 3.13002V3.39002L4.47989 3.84002ZM5.29989 3.55002C5.29989 3.55002 5.45989 1.70002 5.45989 1.62002C5.4824 1.68152 5.52323 1.73463 5.57688 1.77218C5.63053 1.80973 5.69441 1.82992 5.75989 1.83002C6.65989 1.83002 7.03989 2.00002 7.13989 2.35002C7.16907 2.98667 7.12207 3.62453 6.99989 4.25002C7.00077 4.63707 6.95715 5.02294 6.86989 5.40002C6.80989 5.63002 6.71989 5.87002 6.46989 5.93002C6.37232 5.97422 6.26611 5.99609 6.15902 5.99403C6.05192 5.99198 5.94663 5.96606 5.85082 5.91815C5.75502 5.87025 5.67111 5.80157 5.60521 5.71713C5.5393 5.63269 5.49308 5.5346 5.46989 5.43002C5.30913 4.81716 5.25167 4.18178 5.29989 3.55002Z" fill="black"/>
</g>
<defs>
<clipPath id="clip0_32_279">
<rect width="24" height="24" fill="white"/>
</clipPath>
</defs>
</svg>
