<svg width="24" height="24" viewBox="0 0 24 24" fill="none" xmlns="http://www.w3.org/2000/svg">
<g clip-path="url(#clip0_36_748)">
<path fill-rule="evenodd" clip-rule="evenodd" d="M22.0502 7.06002C21.7182 7.1026 21.3822 7.1026 21.0502 7.06002C20.2002 6.97002 19.2302 6.75002 18.4802 6.68002C16.9302 6.53002 15.3302 6.41002 13.7202 6.38002C12.1102 6.35002 10.5202 6.38002 8.9602 6.49002L4.3502 6.80002C4.38963 6.76952 4.42113 6.72997 4.44202 6.6847C4.46291 6.63944 4.47258 6.58981 4.4702 6.54002C4.5902 6.54002 4.5902 6.04002 4.6102 5.98002C4.68547 5.76788 4.79344 5.56881 4.9302 5.39002C5.04716 5.23431 5.20703 5.11614 5.3902 5.05002C6.17901 4.79815 6.98425 4.60102 7.8002 4.46002C9.03372 4.2555 10.2802 4.13854 11.5302 4.11002C12.9651 4.01003 14.4053 4.01003 15.8402 4.11002C16.787 4.16566 17.7254 4.31983 18.6402 4.57002C18.7225 4.60163 18.7966 4.65128 18.8572 4.71531C18.9177 4.77933 18.9632 4.85612 18.9902 4.94002C19.0733 5.20039 19.1302 5.46837 19.1602 5.74002C19.1772 5.82834 19.2267 5.90709 19.2989 5.96076C19.3711 6.01443 19.4607 6.03914 19.5502 6.03002C19.5951 6.02392 19.6382 6.00892 19.6772 5.98591C19.7162 5.96289 19.7502 5.93233 19.7772 5.896C19.8042 5.85967 19.8237 5.81832 19.8345 5.77436C19.8453 5.7304 19.8473 5.68473 19.8402 5.64002C19.8238 5.24705 19.7462 4.85905 19.6102 4.49002C19.5428 4.33197 19.443 4.1898 19.3172 4.07268C19.1915 3.95556 19.0426 3.86608 18.8802 3.81002C17.9086 3.46851 16.9026 3.23379 15.8802 3.11002C15.8802 3.11002 15.3002 1.60002 15.2902 1.59002C15.022 1.12189 14.6573 0.716233 14.2202 0.400018C13.7292 0.088644 13.1492 -0.0519636 12.5702 1.78628e-05C12.0481 0.0412535 11.5354 0.162677 11.0502 0.360018C10.5439 0.581175 10.1006 0.924831 9.7602 1.36002C9.4614 1.94216 9.23954 2.56068 9.1002 3.20002C8.8202 3.20002 8.5202 3.28002 8.2402 3.34002C7.16045 3.5588 6.10762 3.8941 5.1002 4.34002C4.85345 4.45433 4.63493 4.62163 4.4602 4.83002C4.23647 5.12883 4.07341 5.46855 3.9802 5.83002C3.92 6.06044 3.87325 6.29417 3.8402 6.53002C3.83584 6.58033 3.84156 6.631 3.85701 6.67908C3.87247 6.72715 3.89735 6.77167 3.9302 6.81002L4.0002 6.83002C0.460201 7.08002 1.7302 7.66002 2.0002 7.65002C2.22499 7.63742 2.44877 7.6107 2.6702 7.57002H9.0002C10.3002 7.57002 11.6202 7.51002 12.9502 7.50002H15.5902C16.5902 7.50002 17.4802 7.50002 18.4102 7.56002C19.1502 7.56002 20.1302 7.75002 20.9802 7.80002C21.3788 7.84743 21.7816 7.84743 22.1802 7.80002C22.269 7.7853 22.3483 7.73599 22.4008 7.66288C22.4533 7.58978 22.4746 7.49885 22.4602 7.41002C22.461 7.35854 22.4504 7.30753 22.4291 7.26062C22.4079 7.21371 22.3766 7.17206 22.3375 7.13863C22.2983 7.10521 22.2523 7.08083 22.2026 7.06724C22.153 7.05365 22.1009 7.05119 22.0502 7.06002ZM10.4702 2.00002C10.6961 1.79778 10.9571 1.6385 11.2402 1.53002C11.6997 1.34294 12.1855 1.22825 12.6802 1.19002C13.021 1.13275 13.3712 1.18527 13.6802 1.34002C14.0229 1.53803 14.3276 1.79536 14.5802 2.10002C14.6302 2.17002 14.8502 2.69002 15.0202 3.04002C13.842 2.95628 12.6599 2.94293 11.4802 3.00002C11.0002 3.00002 10.5102 3.00002 10.0002 3.07002C10.2302 2.70002 10.3802 2.06002 10.4702 2.00002Z" fill="black"/>
<path fill-rule="evenodd" clip-rule="evenodd" d="M20.6504 8.64002C20.5927 8.58441 20.5156 8.55334 20.4354 8.55334C20.3553 8.55334 20.2782 8.58441 20.2204 8.64002C20.1798 8.69504 20.1579 8.76163 20.1579 8.83002C20.1579 8.8984 20.1798 8.96499 20.2204 9.02002V9.07002V9.39002C20.1292 10.987 19.9388 12.5767 19.6504 14.15C19.3104 16.21 18.9004 18.31 18.5904 19.38C18.4504 19.87 18.3504 20.38 18.1804 20.86C18.0897 21.1397 17.9546 21.4031 17.7804 21.64C17.3715 22.1304 16.8068 22.4658 16.1804 22.59C15.1509 22.844 14.0846 22.9151 13.0304 22.8C11.6104 22.65 10.0304 22.8 8.60045 22.61C8.04018 22.5343 7.49816 22.3582 7.00044 22.09C6.7092 21.879 6.4866 21.5868 6.36045 21.25C6.08629 20.6504 5.88809 20.0188 5.77044 19.37C5.62044 18.54 5.44044 17.5 5.26044 16.37C4.84045 13.71 4.40044 10.67 4.20044 9.37002C4.18564 9.27986 4.13712 9.1987 4.0647 9.14299C3.99228 9.08728 3.90138 9.0612 3.81044 9.07002C3.72101 9.08481 3.64081 9.13373 3.58672 9.20648C3.53263 9.27922 3.50887 9.37011 3.52044 9.46002C3.68044 10.78 4.03044 13.82 4.38044 16.46C4.52044 17.59 4.66044 18.65 4.79044 19.46C4.90525 20.2021 5.11009 20.9275 5.40044 21.62C5.5951 22.1715 5.95034 22.6521 6.42044 23C7.03743 23.3526 7.71639 23.5835 8.42044 23.68C9.88045 23.93 11.4204 23.75 12.9104 23.91C14.1136 24.0379 15.33 23.9465 16.5004 23.64C17.3637 23.4255 18.1308 22.9293 18.6804 22.23C18.9005 21.8923 19.0721 21.5254 19.1904 21.14C19.3504 20.64 19.4404 20.14 19.5704 19.59C20.0756 17.1018 20.4462 14.5882 20.6804 12.06C20.8051 11.0652 20.8553 10.0624 20.8304 9.06002C20.8115 8.90579 20.749 8.76013 20.6504 8.64002Z" fill="black"/>
<path fill-rule="evenodd" clip-rule="evenodd" d="M9.27037 16.13C9.41037 16.97 9.58037 17.71 9.69037 18.24C9.76037 18.58 9.81037 18.83 9.83037 18.95C9.89037 19.25 10.1504 19.21 10.3404 19.12C10.3726 19.1156 10.4035 19.1044 10.4311 19.0872C10.4587 19.07 10.4823 19.0471 10.5004 19.02C10.5004 19.02 10.5004 18.96 10.5004 18.94V18.23C10.5004 17.69 10.5004 16.93 10.3904 16.08C10.3904 15.62 10.3004 15.14 10.2304 14.66C10.2304 14.42 10.1704 14.18 10.1204 13.95C9.92037 12.83 9.66037 11.81 9.51037 11.14C9.50512 11.1006 9.49216 11.0627 9.47223 11.0283C9.4523 10.9939 9.42579 10.9638 9.39422 10.9396C9.36265 10.9155 9.32663 10.8978 9.28822 10.8876C9.24981 10.8773 9.20977 10.8748 9.17037 10.88C9.13097 10.8853 9.093 10.8982 9.05861 10.9182C9.02422 10.9381 8.9941 10.9646 8.96995 10.9962C8.94581 11.0278 8.92812 11.0638 8.9179 11.1022C8.90768 11.1406 8.90512 11.1806 8.91037 11.22C8.91037 11.9 8.91037 12.96 9.02037 14.09C9.02037 14.33 9.02037 14.56 9.09037 14.8C9.12037 15.19 9.19037 15.67 9.27037 16.13Z" fill="black"/>
<path fill-rule="evenodd" clip-rule="evenodd" d="M14.8504 18.94C14.9406 18.94 15.027 18.9042 15.0908 18.8404C15.1546 18.7767 15.1904 18.6902 15.1904 18.6C15.2404 17.99 15.4104 17.06 15.5204 16.04C15.5904 15.48 15.6504 14.89 15.6704 14.33C15.7304 12.98 15.6704 11.81 15.6704 11.42C15.6732 11.3394 15.6444 11.261 15.5903 11.2012C15.5361 11.1415 15.4608 11.1052 15.3804 11.1C15.341 11.0973 15.3014 11.1024 15.264 11.115C15.2265 11.1276 15.1919 11.1475 15.1622 11.1735C15.1325 11.1995 15.1082 11.2312 15.0907 11.2666C15.0732 11.302 15.0629 11.3406 15.0604 11.38C15.0004 11.73 14.7704 12.7 14.6004 13.88C14.5504 14.22 14.5204 14.59 14.4904 14.95C14.4604 15.31 14.4904 15.68 14.4904 16.04C14.4904 17.04 14.4904 17.99 14.5704 18.6C14.5691 18.6807 14.5966 18.7592 14.6479 18.8215C14.6992 18.8838 14.771 18.9258 14.8504 18.94Z" fill="black"/>
</g>
<defs>
<clipPath id="clip0_36_748">
<rect width="24" height="24" fill="white"/>
</clipPath>
</defs>
</svg>
