<svg width="24" height="24" viewBox="0 0 24 24" fill="none" xmlns="http://www.w3.org/2000/svg">
<g clip-path="url(#clip0_36_1016)">
<path d="M23.7901 8.67C23.5017 7.27354 22.9262 5.95227 22.1001 4.79C20.3701 2.22 19.4801 1.46 16.7901 0.87C15.9465 0.680519 15.0913 0.546895 14.2301 0.47C13.3653 0.390208 12.4949 0.390208 11.6301 0.47C10.9055 0.547003 10.1871 0.673972 9.48008 0.85C9.00002 0.967889 8.53149 1.12853 8.08008 1.33C7.23869 1.69923 6.42927 2.13739 5.66008 2.64C4.87006 3.14633 4.15048 3.75494 3.52008 4.45C2.797 5.25459 2.16019 6.13272 1.62008 7.07C1.08809 8.01201 0.684512 9.02096 0.420085 10.07C0.258832 10.704 0.145182 11.3491 0.0800845 12C-0.00948761 12.6627 -0.0362732 13.3323 8.45324e-05 14C0.102582 15.0426 0.390433 16.0586 0.850085 17C1.28285 17.9436 1.83032 18.8303 2.48008 19.64C2.85008 20.09 3.19008 20.54 3.58008 20.95C3.85795 21.2511 4.16626 21.5225 4.50008 21.76C6.10208 22.8642 7.98574 23.4886 9.93009 23.56C11.8197 23.6326 13.7091 23.4099 15.5301 22.9C17.1502 22.5353 18.674 21.8297 20.0001 20.83C21.252 19.7495 22.2988 18.4521 23.0901 17C23.3632 16.4829 23.565 15.9312 23.6901 15.36C23.8805 14.5364 23.9844 13.6952 24.0001 12.85C24.0618 11.4532 23.9914 10.0536 23.7901 8.67ZM23.1101 12.84C23.089 13.4827 23.0086 14.1221 22.8701 14.75C22.7608 15.3574 22.5584 15.9443 22.2701 16.49C21.5236 17.8228 20.5449 19.0115 19.3801 20C18.1505 20.8929 16.7412 21.5071 15.2501 21.8C13.5415 22.2681 11.7697 22.4639 10.0001 22.38C8.2719 22.3186 6.59678 21.7672 5.17008 20.79C4.89982 20.5942 4.6487 20.3732 4.42008 20.13C4.05008 19.74 3.72008 19.31 3.42008 18.89C2.82521 18.1534 2.32156 17.3475 1.92008 16.49C1.51666 15.6575 1.26279 14.7605 1.17008 13.84C1.12059 13.2544 1.12059 12.6656 1.17008 12.08C1.21881 11.4904 1.31241 10.9054 1.45008 10.33C1.66849 9.36028 2.01839 8.42496 2.49008 7.55C2.97805 6.65935 3.56149 5.82443 4.23008 5.06C4.78653 4.40916 5.42911 3.83722 6.14008 3.36C6.86498 2.87072 7.62735 2.43938 8.42008 2.07C8.92515 1.82968 9.45496 1.64525 10.0001 1.52C10.5612 1.39342 11.1287 1.29662 11.7001 1.23C12.5189 1.12258 13.3465 1.09912 14.1701 1.16C15.005 1.20148 15.8348 1.31524 16.6501 1.5C18.9001 2.05 19.7501 2.5 21.4501 5.2C22.2064 6.28936 22.7337 7.52089 23.0001 8.82C23.1691 10.1531 23.2059 11.4996 23.1101 12.84Z" fill="black"/>
<path d="M13.2099 13.48C12.9999 13.27 12.7699 13.08 12.5699 12.86C12.4757 12.7504 12.4013 12.6252 12.3499 12.49C12.2838 12.2241 12.2838 11.946 12.3499 11.68C12.4199 11.11 12.5799 10.53 12.6199 10.05C12.6799 8.77005 12.5699 7.44005 12.6199 6.13005C12.6199 5.58783 12.66 5.04635 12.7399 4.51005C12.7471 4.47131 12.7466 4.43152 12.7385 4.39296C12.7303 4.3544 12.7147 4.31783 12.6924 4.28532C12.6701 4.25282 12.6416 4.22503 12.6086 4.20353C12.5756 4.18204 12.5386 4.16726 12.4999 4.16005C12.4617 4.1513 12.4222 4.15036 12.3837 4.15729C12.3452 4.16422 12.3085 4.17887 12.2758 4.20036C12.2431 4.22184 12.2151 4.24973 12.1934 4.28233C12.1718 4.31493 12.157 4.35157 12.1499 4.39005C12.0029 4.945 11.896 5.50978 11.8299 6.08005C11.6799 7.37005 11.6699 8.68005 11.4999 9.95005C11.4999 10.5 11.2199 11.22 11.2099 11.87C11.2037 12.2129 11.2684 12.5534 11.3999 12.87C11.5154 13.1196 11.6746 13.3465 11.8699 13.54C12.0999 13.76 12.3699 13.94 12.6299 14.15L14.8999 16.02C14.9702 16.0784 15.0607 16.1064 15.1517 16.098C15.2427 16.0896 15.3265 16.0453 15.3849 15.975C15.4432 15.9048 15.4713 15.8142 15.4628 15.7232C15.4544 15.6323 15.4102 15.5484 15.3399 15.49L13.2099 13.48Z" fill="black"/>
<path d="M12.39 19.27V18.27C12.39 17.96 12.34 17.65 12.31 17.35C12.3175 17.3057 12.315 17.2604 12.3027 17.2173C12.2904 17.1741 12.2686 17.1343 12.2388 17.1007C12.2091 17.0671 12.1722 17.0407 12.1309 17.0232C12.0895 17.0058 12.0448 16.9978 12 17C11.9195 16.9999 11.8421 17.0312 11.7843 17.0872C11.7264 17.1432 11.6926 17.2195 11.69 17.3C11.69 17.6 11.59 17.9 11.55 18.21C11.51 18.52 11.55 18.62 11.55 18.83C11.5595 19.3662 11.6299 19.8997 11.76 20.42C11.7878 20.4991 11.843 20.5657 11.9157 20.6075C11.9884 20.6493 12.0736 20.6637 12.156 20.6479C12.2384 20.6322 12.3124 20.5874 12.3645 20.5217C12.4166 20.456 12.4434 20.3738 12.44 20.29C12.4032 19.9513 12.3865 19.6107 12.39 19.27Z" fill="black"/>
<path d="M21.2299 11.33C20.6399 11.33 20.0599 11.24 19.4799 11.27C19.0755 11.2952 18.674 11.3554 18.2799 11.45C18.2405 11.4538 18.2021 11.4653 18.1671 11.484C18.1322 11.5026 18.1012 11.528 18.0761 11.5587C18.051 11.5894 18.0322 11.6248 18.0209 11.6628C18.0095 11.7007 18.0058 11.7406 18.0099 11.78C18.0137 11.8195 18.0252 11.8578 18.0439 11.8928C18.0625 11.9278 18.0879 11.9588 18.1186 11.9839C18.1493 12.009 18.1847 12.0277 18.2227 12.0391C18.2606 12.0505 18.3005 12.0542 18.3399 12.05C18.6299 12.05 18.9099 12.05 19.1999 12.11H19.7799C20.2748 12.0983 20.7688 12.0615 21.2599 12C21.3501 12 21.4366 11.9642 21.5004 11.9005C21.5641 11.8367 21.5999 11.7502 21.5999 11.66C21.5999 11.5699 21.5641 11.4834 21.5004 11.4196C21.4366 11.3559 21.3501 11.32 21.2599 11.32L21.2299 11.33Z" fill="black"/>
<path d="M6.63999 11.59C6.21669 11.5198 5.78896 11.4797 5.35999 11.47H3.91999C3.46066 11.505 2.99933 11.505 2.53999 11.47C2.50124 11.4612 2.46111 11.4602 2.42196 11.467C2.3828 11.4738 2.34538 11.4883 2.31189 11.5097C2.27839 11.5311 2.24949 11.559 2.22684 11.5916C2.2042 11.6243 2.18827 11.6611 2.17999 11.7C2.16485 11.7781 2.18027 11.8589 2.22308 11.9259C2.26589 11.993 2.3328 12.0409 2.40999 12.06C2.8297 12.1916 3.26207 12.2788 3.69999 12.32C4.1862 12.35 4.67379 12.35 5.15999 12.32C5.63999 12.32 6.09999 12.26 6.56999 12.32C6.6197 12.3318 6.67138 12.3325 6.7214 12.3222C6.77142 12.3118 6.81857 12.2907 6.85955 12.2602C6.90053 12.2297 6.93433 12.1906 6.9586 12.1457C6.98286 12.1007 6.99699 12.051 6.99999 12C7.01108 11.9482 7.00989 11.8945 6.99653 11.8432C6.98316 11.7919 6.95798 11.7444 6.923 11.7046C6.88802 11.6647 6.84422 11.6336 6.79508 11.6137C6.74594 11.5938 6.69283 11.5857 6.63999 11.59Z" fill="black"/>
<path d="M5.36019 7.87994C5.50574 8.01978 5.66298 8.14691 5.83019 8.25994C5.9805 8.34852 6.12125 8.45241 6.25019 8.56994C6.30566 8.64136 6.38662 8.68853 6.4761 8.70158C6.56558 8.71463 6.65663 8.69254 6.73019 8.63995C6.8023 8.58271 6.84974 8.50002 6.86276 8.40888C6.87578 8.31774 6.85339 8.22508 6.80019 8.14994C6.65801 7.92488 6.4865 7.71975 6.29019 7.53994C6.15873 7.42552 6.01827 7.32185 5.87019 7.22994C5.72019 7.13994 5.57019 7.08994 5.43019 6.99994C5.37317 6.94292 5.29583 6.91089 5.21519 6.91089C5.13455 6.91089 5.05721 6.94292 5.00019 6.99994C4.94317 7.05697 4.91113 7.1343 4.91113 7.21494C4.91113 7.29559 4.94317 7.37292 5.00019 7.42994C5.10273 7.59312 5.22351 7.74409 5.36019 7.87994Z" fill="black"/>
<path d="M9.17 5.00002C9.11822 4.9038 9.06148 4.81034 9 4.72002C8.88 4.58002 8.74 4.47002 8.61 4.34002C8.58833 4.30653 8.56028 4.27764 8.52744 4.255C8.49461 4.23235 8.45764 4.21639 8.41864 4.20804C8.37964 4.19968 8.33937 4.19909 8.30014 4.20629C8.26091 4.21349 8.22348 4.22835 8.19 4.25002C8.15651 4.27169 8.12762 4.29974 8.10497 4.33257C8.08233 4.36541 8.06637 4.40238 8.05801 4.44138C8.04965 4.48038 8.04906 4.52065 8.05626 4.55988C8.06347 4.59911 8.07833 4.63653 8.1 4.67002C8.18704 4.90054 8.29064 5.12445 8.41 5.34002C8.59 5.64002 8.84 5.88002 9.03 6.18002C9.05101 6.21942 9.07957 6.25429 9.11406 6.28265C9.14855 6.311 9.18829 6.33229 9.231 6.34529C9.27372 6.35829 9.31857 6.36275 9.36301 6.35841C9.40745 6.35408 9.4506 6.34103 9.49 6.32002C9.53038 6.30006 9.56624 6.27204 9.59538 6.23768C9.62452 6.20333 9.64632 6.16338 9.65944 6.12029C9.67256 6.07719 9.67671 6.03187 9.67165 5.98711C9.66658 5.94235 9.65241 5.8991 9.63 5.86002C9.50438 5.55937 9.35035 5.2714 9.17 5.00002Z" fill="black"/>
<path d="M15.7399 5.11001C15.8299 4.98001 15.9399 4.88001 16.0299 4.75001C16.0929 4.65551 16.1465 4.55502 16.1899 4.45001C16.2562 4.25662 16.2933 4.05438 16.2999 3.85001C16.3105 3.81193 16.3135 3.77212 16.3086 3.73288C16.3038 3.69364 16.2913 3.65573 16.2718 3.62135C16.2523 3.58696 16.2261 3.55678 16.1949 3.53252C16.1637 3.50827 16.128 3.49042 16.0899 3.48001C16.0518 3.46793 16.0116 3.46385 15.9719 3.46801C15.9322 3.47218 15.8937 3.48451 15.859 3.50422C15.8243 3.52394 15.794 3.55062 15.77 3.58259C15.7461 3.61456 15.729 3.65113 15.7199 3.69001C15.6499 3.79001 15.5599 3.86001 15.4899 3.96001C15.4461 4.02781 15.4061 4.09791 15.3699 4.17001C15.2719 4.38075 15.1883 4.59792 15.1199 4.82001C15.082 4.90099 15.0776 4.99362 15.1075 5.07784C15.1375 5.16205 15.1994 5.23109 15.2799 5.27001C15.3623 5.3083 15.4564 5.313 15.5422 5.28314C15.6281 5.25328 15.699 5.19119 15.7399 5.11001Z" fill="black"/>
<path d="M18.5101 7.16005C18.7198 6.98053 18.92 6.79027 19.1101 6.59005C19.1477 6.5643 19.1795 6.53105 19.2036 6.49238C19.2277 6.45372 19.2436 6.41047 19.2502 6.36538C19.2567 6.32028 19.2539 6.27432 19.2418 6.23037C19.2298 6.18643 19.2087 6.14546 19.1801 6.11005C19.1307 6.03218 19.0525 5.97695 18.9627 5.95635C18.8728 5.93576 18.7784 5.95146 18.7001 6.00005C18.5401 6.09005 18.3901 6.15005 18.2401 6.25005C18.1368 6.31799 18.0397 6.39496 17.9501 6.48005C17.8059 6.63694 17.6877 6.81587 17.6001 7.01005C17.5713 7.038 17.5485 7.07143 17.5329 7.10836C17.5173 7.14529 17.5093 7.18497 17.5093 7.22505C17.5093 7.26513 17.5173 7.30481 17.5329 7.34174C17.5485 7.37867 17.5713 7.41209 17.6001 7.44005C17.6561 7.49502 17.7315 7.52581 17.8101 7.52581C17.8886 7.52581 17.964 7.49502 18.0201 7.44005C18.2101 7.33005 18.3701 7.27005 18.5101 7.16005Z" fill="black"/>
<path d="M19.2902 14.61C19.2157 14.5648 19.1348 14.5311 19.0502 14.51C18.9173 14.4952 18.7831 14.4952 18.6502 14.51C18.5758 14.4832 18.494 14.4859 18.4214 14.5175C18.3489 14.5491 18.2913 14.6072 18.2602 14.68C18.2365 14.7557 18.2418 14.8376 18.2751 14.9097C18.3083 14.9817 18.3672 15.0389 18.4402 15.07C18.5702 15.16 18.6602 15.28 18.8002 15.36C18.9402 15.44 19.2202 15.52 19.4102 15.62C19.4463 15.6462 19.4873 15.6651 19.5307 15.6756C19.5741 15.686 19.6191 15.6878 19.6632 15.6809C19.7074 15.6739 19.7497 15.6583 19.7877 15.635C19.8258 15.6117 19.859 15.5811 19.8852 15.545C19.9115 15.5089 19.9304 15.4679 19.9408 15.4245C19.9513 15.3811 19.9531 15.3361 19.9461 15.292C19.9391 15.2478 19.9235 15.2055 19.9002 15.1675C19.8769 15.1294 19.8463 15.0962 19.8102 15.07C19.6607 14.8916 19.4855 14.7366 19.2902 14.61Z" fill="black"/>
<path d="M16.7601 17.6899C16.6987 17.5966 16.6284 17.5095 16.5501 17.4299C16.4401 17.2999 16.3101 17.1999 16.1901 17.0799C16.1712 17.0449 16.1456 17.014 16.1148 16.989C16.0839 16.964 16.0483 16.9454 16.0102 16.9342C15.972 16.923 15.932 16.9196 15.8925 16.924C15.853 16.9284 15.8148 16.9406 15.7801 16.9599C15.713 17.0015 15.6643 17.067 15.6439 17.1432C15.6235 17.2193 15.6328 17.3004 15.6701 17.3699C15.7451 17.61 15.8457 17.8413 15.9701 18.0599C16.0418 18.1783 16.1256 18.2889 16.2201 18.3899C16.3501 18.5499 16.4901 18.6799 16.6101 18.8399C16.6561 18.9185 16.731 18.976 16.8187 19.0003C16.9065 19.0245 17.0002 19.0137 17.0801 18.9699C17.1191 18.9473 17.1532 18.917 17.1805 18.881C17.2077 18.845 17.2275 18.8039 17.2386 18.7601C17.2498 18.7164 17.2522 18.6708 17.2455 18.6261C17.2389 18.5815 17.2235 18.5386 17.2001 18.4999C17.0811 18.2158 16.9337 17.9444 16.7601 17.6899Z" fill="black"/>
<path d="M8.05026 17.78C7.9361 17.8577 7.82596 17.9412 7.72026 18.03C7.64991 18.0904 7.58921 18.1613 7.54026 18.24C7.40816 18.4341 7.29115 18.638 7.19026 18.85C7.14218 18.9267 7.12474 19.0187 7.14142 19.1076C7.1581 19.1966 7.20767 19.276 7.28026 19.33C7.31744 19.3563 7.35954 19.3749 7.40404 19.3846C7.44854 19.3944 7.49454 19.395 7.53932 19.3867C7.58409 19.3783 7.62672 19.361 7.66467 19.3358C7.70263 19.3106 7.73513 19.278 7.76026 19.24C7.95047 19.0565 8.13073 18.8628 8.30026 18.66C8.39518 18.4989 8.4723 18.3278 8.53026 18.15C8.57932 18.0864 8.60109 18.0058 8.59078 17.9261C8.58046 17.8464 8.53891 17.7741 8.47526 17.725C8.41161 17.6759 8.33107 17.6542 8.25137 17.6645C8.17166 17.6748 8.09932 17.7164 8.05026 17.78Z" fill="black"/>
<path d="M5.50006 14.9001C5.26006 14.9001 5.03007 14.9001 4.80007 14.9801C4.64266 15.0371 4.4918 15.1109 4.35006 15.2001C4.31132 15.2073 4.27439 15.2221 4.24136 15.2436C4.20833 15.2651 4.17986 15.2928 4.15758 15.3254C4.11257 15.391 4.09548 15.4718 4.11007 15.5501C4.12465 15.6283 4.16972 15.6975 4.23536 15.7425C4.26786 15.7648 4.30443 15.7805 4.34299 15.7886C4.38154 15.7968 4.42132 15.7973 4.46006 15.7901C4.62974 15.805 4.80039 15.805 4.97006 15.7901C5.21585 15.7353 5.4542 15.6514 5.68006 15.5401C5.76864 15.5144 5.84354 15.4549 5.88848 15.3744C5.93342 15.2939 5.94477 15.1989 5.92007 15.1101C5.8905 15.0278 5.83036 14.96 5.75214 14.9209C5.67392 14.8818 5.58364 14.8743 5.50006 14.9001Z" fill="black"/>
</g>
<defs>
<clipPath id="clip0_36_1016">
<rect width="24" height="24" fill="white"/>
</clipPath>
</defs>
</svg>
