<svg width="24" height="24" viewBox="0 0 24 24" fill="none" xmlns="http://www.w3.org/2000/svg">
<g clip-path="url(#clip0_36_802)">
<path fill-rule="evenodd" clip-rule="evenodd" d="M20.2199 14.25C20.1517 12.7794 20.0015 11.3138 19.7699 9.86C19.7576 9.78195 19.7149 9.71191 19.6513 9.6651C19.5876 9.6183 19.5081 9.59849 19.4299 9.61C19.392 9.61479 19.3554 9.62729 19.3225 9.64675C19.2896 9.6662 19.261 9.69218 19.2385 9.7231C19.216 9.75402 19.2001 9.78921 19.1918 9.82651C19.1834 9.86382 19.1828 9.90244 19.1899 9.94C19.3809 11.3794 19.491 12.8283 19.5199 14.28C19.5557 15.725 19.5056 17.1709 19.3699 18.61C19.3225 19.428 19.1505 20.2339 18.8599 21C18.6846 21.4497 18.3866 21.8412 17.9999 22.13C17.0185 22.6688 15.9194 22.9573 14.7999 22.97C12.9099 23.11 10.7999 22.97 9.44988 22.97C8.16442 23.049 6.87533 23.049 5.58988 22.97C4.81953 22.9102 4.07181 22.6815 3.39988 22.3C3.55988 22.18 3.23988 21.68 3.18988 21.3C3.13988 20.72 3.10988 20.13 3.09988 19.93C2.95961 18.3742 2.91952 16.811 2.97988 15.25C2.97988 13.67 3.16988 12.1 3.36988 10.55C5.28407 10.164 7.22788 9.94319 9.17988 9.89C10.4399 9.83 11.7199 9.81 12.9899 9.81C14.9899 9.81 16.8999 9.87 18.7399 9.99C18.8088 9.97725 18.8711 9.94077 18.9159 9.88688C18.9608 9.83299 18.9853 9.7651 18.9853 9.695C18.9853 9.62489 18.9608 9.557 18.9159 9.50311C18.8711 9.44923 18.8088 9.41274 18.7399 9.4C16.8999 9.05 14.9999 8.82 12.9999 8.74C11.7075 8.66996 10.4123 8.66996 9.11988 8.74C8.72988 8.74 8.35988 8.85 7.97988 8.89C7.91398 7.78103 8.06688 6.66994 8.42988 5.62C8.62186 5.07265 8.93058 4.57361 9.33464 4.15746C9.7387 3.74131 10.2284 3.41802 10.7699 3.21C11.0902 3.07526 11.4262 2.9812 11.7699 2.93C12.1003 2.86749 12.4395 2.86749 12.7699 2.93C13.2112 3.01242 13.6085 3.25009 13.8899 3.6C14.1424 4.03328 14.3184 4.5069 14.4099 5C14.4184 5.05058 14.4367 5.099 14.464 5.14247C14.4912 5.18594 14.5267 5.22362 14.5685 5.25335C14.6103 5.28307 14.6575 5.30426 14.7075 5.31569C14.7575 5.32713 14.8093 5.32859 14.8599 5.32C14.9899 5.32 15.1899 5.18 15.3199 5.17C16.5299 5.17 17.5399 5.5 16.8499 3.31C16.6398 2.5981 16.2626 1.94669 15.7499 1.41C15.1848 0.913683 14.5274 0.533679 13.8153 0.291734C13.1032 0.049788 12.3503 -0.0493491 11.5999 -3.66103e-06C10.0956 0.00646202 8.63333 0.497375 7.42988 1.4C6.49768 2.19992 5.84301 3.27471 5.55988 4.47C5.28018 6.05535 5.32098 7.68068 5.67988 9.25C4.66567 9.44354 3.6639 9.69732 2.67988 10.01C2.61548 10.0307 2.56169 10.0758 2.52995 10.1355C2.49821 10.1953 2.49101 10.265 2.50988 10.33C2.52603 10.3846 2.56104 10.4316 2.60866 10.4627C2.65629 10.4939 2.71342 10.5071 2.76988 10.5C2.53988 12.01 2.35988 13.55 2.25988 15.09C2.15491 16.6849 2.15491 18.2851 2.25988 19.88C2.26399 20.6254 2.31074 21.3699 2.39988 22.11C2.43248 22.4032 2.56696 22.6757 2.77988 22.88C3.57047 23.4105 4.48172 23.7337 5.42988 23.82C6.75975 23.9385 8.09602 23.9685 9.42988 23.91C11.5455 24.0458 13.6684 24.019 15.7799 23.83C16.7475 23.7072 17.6744 23.3652 18.4899 22.83C19.0281 22.4436 19.4417 21.9083 19.6799 21.29C19.9857 20.4383 20.1578 19.5444 20.1899 18.64C20.2787 17.1783 20.2887 15.7128 20.2199 14.25ZM6.35988 4.68C6.64252 3.67708 7.23813 2.79067 8.05988 2.15C9.10389 1.40231 10.3557 1.00017 11.6399 0.999996C12.9149 0.852905 14.1968 1.21197 15.2099 2C15.6693 2.41944 16.0136 2.94964 16.2099 3.54C16.315 3.86615 16.3919 4.20071 16.4399 4.54H15.3099H14.9999C14.8752 3.93674 14.6039 3.37348 14.2099 2.9C13.86 2.51813 13.4037 2.24991 12.8999 2.13C12.4787 2.0045 12.0375 1.96038 11.5999 2C11.1748 2.05455 10.7583 2.16205 10.3599 2.32C9.28668 2.75564 8.41113 3.57069 7.89988 4.61C7.32068 5.99641 7.14728 7.51885 7.39988 9C6.99988 9.06 6.59988 9.09 6.20988 9.16C5.95858 7.67174 6.00959 6.14811 6.35988 4.68Z" fill="black"/>
<path fill-rule="evenodd" clip-rule="evenodd" d="M13.2498 20.7501C13.7634 20.6361 14.2459 20.4115 14.6639 20.092C15.0818 19.7725 15.4251 19.3657 15.6698 18.9001C16.2214 18.0009 16.48 16.9526 16.4098 15.9001C16.2938 14.4661 15.6613 13.1229 14.6298 12.1201C14.0702 11.6342 13.4021 11.2898 12.6816 11.1158C11.9612 10.9417 11.2096 10.9432 10.4898 11.1201C9.94261 11.2414 9.42488 11.47 8.96658 11.7927C8.50828 12.1154 8.11852 12.5258 7.81983 13.0001C7.23565 13.8982 6.89137 14.931 6.81983 16.0001C6.61983 18.2201 7.56983 20.4401 9.98983 20.8601C10.3458 20.9265 10.7092 20.9433 11.0698 20.9101C11.4077 20.8738 11.7422 20.8103 12.0698 20.7201C12.107 20.713 12.1424 20.6984 12.1738 20.6773C12.2052 20.6562 12.232 20.6289 12.2525 20.5971C12.2731 20.5653 12.287 20.5297 12.2934 20.4924C12.2998 20.4551 12.2986 20.4169 12.2898 20.3801C12.2827 20.3429 12.2682 20.3075 12.2471 20.2761C12.2259 20.2447 12.1987 20.2179 12.1669 20.1973C12.1351 20.1768 12.0995 20.1629 12.0622 20.1565C12.0249 20.15 11.9866 20.1513 11.9498 20.1601C11.6407 20.2283 11.3261 20.2684 11.0098 20.2801C10.7042 20.2977 10.3977 20.2708 10.0998 20.2001C8.15983 19.7601 7.52983 17.9001 7.76983 16.1101C7.90189 15.225 8.24487 14.3847 8.76983 13.6601C9.23413 12.9579 9.94989 12.4605 10.7698 12.2701C11.3262 12.1266 11.9085 12.1161 12.4696 12.2394C13.0307 12.3628 13.5549 12.6165 13.9998 12.9801C14.8858 13.7977 15.4528 14.9034 15.5998 16.1001C15.645 16.9484 15.4361 17.791 14.9998 18.5201C14.8244 18.9035 14.5669 19.2438 14.2455 19.5168C13.9241 19.7898 13.5466 19.9889 13.1398 20.1001C13.0976 20.1061 13.057 20.1206 13.0204 20.1426C12.9838 20.1646 12.952 20.1937 12.9269 20.2282C12.9017 20.2626 12.8837 20.3018 12.8739 20.3433C12.8641 20.3849 12.8627 20.428 12.8698 20.4701C12.8846 20.5568 12.9324 20.6345 13.0033 20.6867C13.0742 20.739 13.1626 20.7617 13.2498 20.7501Z" fill="black"/>
<path fill-rule="evenodd" clip-rule="evenodd" d="M12.5597 18.7401C12.9524 18.7396 13.3333 18.6056 13.6397 18.3601C13.7763 18.2579 13.8976 18.1367 13.9997 18.0001C14.0921 17.8818 14.1663 17.7503 14.2197 17.6101C14.33 17.2878 14.3907 16.9506 14.3997 16.6101C14.4216 16.5371 14.414 16.4585 14.3785 16.3911C14.3429 16.3238 14.2823 16.2731 14.2097 16.2501C14.1736 16.2378 14.1354 16.233 14.0974 16.236C14.0594 16.239 14.0225 16.2497 13.9888 16.2675C13.955 16.2853 13.9253 16.3097 13.9014 16.3394C13.8775 16.3691 13.8599 16.4033 13.8497 16.4401C13.6897 16.6901 13.4497 16.9001 13.2397 17.1701C13.1497 17.2801 13.0697 17.4001 12.9897 17.5101C12.9245 17.6253 12.851 17.7356 12.7697 17.8401C12.6832 17.9397 12.5778 18.0213 12.4597 18.0801C12.4124 18.0827 12.3662 18.0954 12.3243 18.1175C12.2824 18.1396 12.2457 18.1704 12.2168 18.2079C12.1878 18.2454 12.1673 18.2886 12.1565 18.3348C12.1458 18.3809 12.1451 18.4288 12.1546 18.4752C12.164 18.5217 12.1833 18.5655 12.2112 18.6038C12.2391 18.6421 12.2749 18.6739 12.3161 18.6972C12.3574 18.7204 12.4032 18.7344 12.4504 18.7384C12.4976 18.7423 12.5451 18.7361 12.5897 18.7201L12.5597 18.7401Z" fill="black"/>
<path fill-rule="evenodd" clip-rule="evenodd" d="M12.5198 14.38C12.8798 14.56 13.1998 14.82 13.1898 15.21C13.1871 15.2533 13.193 15.2968 13.2071 15.3379C13.2212 15.379 13.2433 15.4168 13.2721 15.4494C13.3009 15.4819 13.3359 15.5084 13.3749 15.5274C13.414 15.5464 13.4564 15.5574 13.4998 15.56C13.5431 15.5627 13.5866 15.5568 13.6277 15.5427C13.6688 15.5286 13.7066 15.5065 13.7392 15.4777C13.7717 15.4489 13.7982 15.4139 13.8172 15.3749C13.8362 15.3358 13.8472 15.2934 13.8498 15.25C13.8627 14.9238 13.782 14.6008 13.6172 14.3191C13.4524 14.0373 13.2104 13.8086 12.9198 13.66C12.3855 13.3105 11.7406 13.1716 11.1098 13.27C10.4716 13.4055 9.89505 13.7453 9.46738 14.2379C9.03971 14.7305 8.78428 15.3491 8.73979 16C8.67748 16.6345 8.84514 17.2702 9.21223 17.7915C9.57931 18.3128 10.1214 18.6849 10.7398 18.84C10.7759 18.8525 10.8141 18.8577 10.8523 18.8554C10.8904 18.8531 10.9277 18.8433 10.9621 18.8266C10.9964 18.8099 11.0272 18.7866 11.0525 18.758C11.0778 18.7294 11.0973 18.6961 11.1098 18.66C11.1223 18.6239 11.1275 18.5857 11.1252 18.5475C11.1229 18.5094 11.1131 18.4721 11.0964 18.4377C11.0797 18.4034 11.0564 18.3726 11.0278 18.3473C10.9992 18.3219 10.9659 18.3025 10.9298 18.29C10.5129 18.1156 10.1674 17.8052 9.94946 17.4093C9.73155 17.0135 9.65412 16.5555 9.72979 16.11C9.82056 15.6948 10.0208 15.3116 10.3098 15C10.5865 14.6607 10.9542 14.4075 11.3698 14.27C11.7542 14.1713 12.161 14.2102 12.5198 14.38Z" fill="black"/>
<path fill-rule="evenodd" clip-rule="evenodd" d="M11.37 15C11.11 15 10.85 15.67 10.8 15.83C10.7902 15.913 10.7902 15.997 10.8 16.08C10.7848 16.1626 10.7848 16.2474 10.8 16.33C11 17.18 11.17 17.21 11.33 17.21C11.49 17.21 11.63 17.21 11.83 16.32C11.8443 16.244 11.8443 16.166 11.83 16.09C11.8349 16.0101 11.8349 15.9299 11.83 15.85C11.62 14.93 11.46 15 11.37 15Z" fill="black"/>
<path d="M18.6899 6.33998C19.2299 7.57998 21.6899 7.84998 21.7899 6.89998C21.8899 5.94998 21.3899 5.64998 20.6799 5.74998C19.9941 5.86071 19.3253 6.05899 18.6899 6.33998Z" fill="black"/>
<path d="M18.3101 4.71995C19.2301 4.86995 20.3101 3.16995 19.8701 2.63995C19.4301 2.10995 19.0001 2.38995 18.7801 2.99995C18.5675 3.55653 18.4101 4.13262 18.3101 4.71995Z" fill="black"/>
</g>
<defs>
<clipPath id="clip0_36_802">
<rect width="24" height="24" fill="white"/>
</clipPath>
</defs>
</svg>
