<svg width="24" height="24" viewBox="0 0 24 24" fill="none" xmlns="http://www.w3.org/2000/svg">
<g clip-path="url(#clip0_36_773)">
<path d="M4.44986 17.4799C4.30986 17.2599 4.13986 17.0599 3.98986 16.8599C3.84607 16.6816 3.6925 16.5113 3.52986 16.3499C3.42885 16.2517 3.31007 16.1737 3.17986 16.1199C3.14528 16.1012 3.10724 16.0896 3.06805 16.086C3.02887 16.0825 2.98937 16.0869 2.95195 16.099C2.91453 16.1112 2.87998 16.1308 2.85039 16.1568C2.82081 16.1827 2.79681 16.2144 2.77986 16.2499C2.65986 16.4899 2.77986 16.3599 3.13986 17.3599C3.19986 17.5099 3.24986 17.6799 3.31986 17.8299C3.43843 18.066 3.57905 18.2903 3.73986 18.4999C4.02228 18.8662 4.35959 19.1867 4.73986 19.4499C4.77071 19.4826 4.80791 19.5087 4.84918 19.5265C4.89045 19.5443 4.93492 19.5534 4.97986 19.5534C5.02481 19.5534 5.06928 19.5443 5.11055 19.5265C5.15182 19.5087 5.18902 19.4826 5.21986 19.4499C5.28337 19.3862 5.31903 19.2999 5.31903 19.2099C5.31903 19.12 5.28337 19.0337 5.21986 18.9699C5.01548 18.6504 4.83498 18.3161 4.67986 17.9699C4.61435 17.8016 4.53751 17.6379 4.44986 17.4799Z" fill="black"/>
<path d="M18.6698 17.3199C18.5298 17.0999 18.3598 16.8999 18.2098 16.6999C18.066 16.5216 17.9124 16.3513 17.7498 16.1899C17.6496 16.0927 17.5349 16.0117 17.4098 15.9499C17.3367 15.9151 17.2529 15.9103 17.1763 15.9364C17.0996 15.9626 17.0363 16.0177 16.9998 16.0899C16.9654 16.1616 16.9608 16.2439 16.9871 16.3189C17.0133 16.3939 17.0682 16.4554 17.1398 16.4899L17.3598 17.1899C17.4198 17.3499 17.4698 17.5199 17.5398 17.6699C17.6583 17.906 17.799 18.1303 17.9598 18.3399C18.2422 18.7062 18.5795 19.0267 18.9598 19.2899C19.0246 19.3475 19.109 19.3782 19.1956 19.3757C19.2823 19.3731 19.3647 19.3375 19.426 19.2762C19.4874 19.2149 19.5229 19.1325 19.5255 19.0458C19.528 18.9591 19.4974 18.8748 19.4398 18.8099C19.2336 18.4931 19.0563 18.1584 18.9098 17.8099C18.8439 17.6401 18.7636 17.4761 18.6698 17.3199Z" fill="black"/>
<path d="M5.3297 16.22C5.44388 16.4438 5.58131 16.6549 5.7397 16.85C5.99552 17.1173 6.28853 17.3463 6.6097 17.53C6.67452 17.5876 6.75889 17.6182 6.84556 17.6157C6.93224 17.6131 7.01466 17.5776 7.07598 17.5162C7.13729 17.4549 7.17286 17.3725 7.17541 17.2858C7.17796 17.1992 7.1473 17.1148 7.0897 17.05C6.9097 16.77 6.8097 16.47 6.6397 16.19C6.4697 15.91 6.3997 15.85 6.2997 15.68C6.1997 15.51 5.8797 15.18 5.7397 15.03L5.6397 14.9C5.4297 14.77 5.2897 14.79 5.2297 14.9C5.1697 15.01 4.9997 14.86 5.3297 16.22Z" fill="black"/>
<path d="M19.9999 16.6899C20.2578 16.955 20.5505 17.1837 20.8699 17.3699C20.9365 17.4318 21.024 17.4662 21.1149 17.4662C21.2058 17.4662 21.2933 17.4318 21.3599 17.3699C21.4234 17.3062 21.4591 17.2199 21.4591 17.1299C21.4591 17.04 21.4234 16.9537 21.3599 16.8899C21.1799 16.6099 21.0699 16.3099 20.8999 16.0299C20.7299 15.7499 20.6599 15.6899 20.5599 15.5199L19.9999 14.8599C19.9399 14.7999 19.9199 14.7499 19.8999 14.7399C19.6899 14.6099 19.5599 14.6299 19.4899 14.7399C19.4199 14.8499 19.2599 14.7399 19.5999 16.0799C19.7101 16.2976 19.8443 16.5022 19.9999 16.6899Z" fill="black"/>
<path d="M22.1798 12.87L21.9998 12.68C21.6364 12.3915 21.2178 12.1805 20.7698 12.06C19.8935 11.8466 18.9896 11.769 18.0898 11.83C17.4484 11.8649 16.82 12.0245 16.2398 12.3C15.1748 12.9097 14.3468 13.8611 13.8898 15C13.7498 14.56 13.6198 14.1 13.5398 13.84C13.4832 13.6508 13.38 13.4789 13.2398 13.34C13.1355 13.2796 13.0196 13.2421 12.8998 13.23C12.5681 13.1884 12.2341 13.1684 11.8998 13.17C11.5584 13.1585 11.2182 13.2164 10.8998 13.34C10.7772 13.4302 10.6722 13.542 10.5898 13.67C10.4238 13.9893 10.2898 14.3243 10.1898 14.67C10.1098 14.93 10.0398 15.21 9.9798 15.47C9.37539 14.1614 8.30614 13.1243 6.9798 12.56C6.21234 12.2933 5.39146 12.2177 4.5882 12.3397C3.78495 12.4616 3.02351 12.7775 2.3698 13.26C2.33158 13.2835 2.29839 13.3143 2.27216 13.3507C2.24592 13.3871 2.22714 13.4284 2.21692 13.4721C2.20669 13.5157 2.20522 13.561 2.21258 13.6053C2.21994 13.6496 2.23598 13.6919 2.2598 13.73C2.30746 13.8068 2.38302 13.8622 2.47064 13.8846C2.55825 13.907 2.65113 13.8946 2.7298 13.85C3.29326 13.4539 3.94531 13.2021 4.62875 13.1166C5.3122 13.0312 6.00616 13.1147 6.6498 13.36C7.25282 13.6594 7.78721 14.0805 8.21923 14.5969C8.65125 15.1132 8.97151 15.7136 9.1598 16.36C9.28115 16.9862 9.23808 17.6333 9.03477 18.2379C8.83146 18.8426 8.47487 19.3842 7.9998 19.81C7.52783 20.2848 6.94577 20.6355 6.30546 20.8309C5.66514 21.0263 4.98645 21.0603 4.3298 20.93C3.50307 20.7277 2.73998 20.322 2.1098 19.75C1.44916 19.203 0.985589 18.455 0.789796 17.62C0.709268 17.1355 0.743519 16.6388 0.889796 16.17C1.03634 15.6801 1.25544 15.2149 1.5398 14.79C1.56429 14.7584 1.58198 14.722 1.59176 14.6833C1.60154 14.6445 1.60319 14.6041 1.59662 14.5647C1.59004 14.5252 1.57538 14.4876 1.55356 14.4541C1.53173 14.4206 1.50322 14.3919 1.4698 14.37C1.43767 14.3468 1.40129 14.3303 1.36275 14.3213C1.32421 14.3123 1.28426 14.311 1.24522 14.3175C1.20618 14.324 1.16882 14.3382 1.13528 14.3592C1.10174 14.3802 1.07268 14.4077 1.0498 14.44C0.697015 14.9126 0.423445 15.4395 0.239796 16C0.0253681 16.5534 -0.0568157 17.1492 -0.00020423 17.74C0.155007 18.7592 0.643855 19.6982 1.3898 20.41C2.11133 21.1522 3.00933 21.6992 3.9998 22C4.83338 22.1925 5.70188 22.1735 6.52625 21.9447C7.35062 21.7159 8.10468 21.2846 8.7198 20.69C9.2863 20.1969 9.7303 19.5789 10.0167 18.8846C10.3031 18.1904 10.4239 17.439 10.3698 16.69C10.6798 16.49 10.1998 16.69 10.9498 15.2C11.5098 14.07 11.0498 14.2 12.5798 14.29C12.8198 14.79 13.2498 15.71 13.5098 16.17C13.5098 16.32 13.4498 16.47 13.4298 16.62C13.2744 17.517 13.422 18.4403 13.8493 19.2442C14.2766 20.0481 14.9593 20.687 15.7898 21.06C16.1978 21.2332 16.6237 21.3606 17.0598 21.44C17.6838 21.5576 18.3154 21.6311 18.9498 21.66C19.4398 21.66 19.9498 21.71 20.4898 21.66C20.8476 21.6425 21.2028 21.5889 21.5498 21.5C21.6359 21.4764 21.7097 21.4208 21.7562 21.3446C21.8027 21.2684 21.8183 21.1773 21.7998 21.09C21.7784 20.9999 21.7222 20.922 21.6435 20.8732C21.5648 20.8245 21.47 20.8089 21.3798 20.83C21.0777 20.8979 20.7694 20.9348 20.4598 20.94C19.9698 20.94 19.4598 20.89 19.0098 20.85C18.4145 20.7991 17.8232 20.7089 17.2398 20.58C16.8699 20.4943 16.5109 20.3669 16.1698 20.2C15.5509 19.8815 15.0539 19.3682 14.7557 18.7393C14.4575 18.1103 14.3746 17.4007 14.5198 16.72C14.6017 16.0187 14.8436 15.3457 15.2267 14.7527C15.6099 14.1598 16.1241 13.6627 16.7298 13.3C17.2941 13.0518 17.9034 12.9224 18.5198 12.92C19.1735 12.8867 19.8288 12.9371 20.4698 13.07C20.8766 13.1641 21.2543 13.3564 21.5698 13.63C21.9218 13.9216 22.2344 14.2578 22.4998 14.63C22.8955 15.2282 23.1361 15.9155 23.1998 16.63C23.2742 17.3909 23.2406 18.1585 23.0998 18.91C23.0604 19.1092 23.0103 19.3061 22.9498 19.5C22.8923 19.6828 22.8116 19.8576 22.7098 20.02C22.666 20.0876 22.6509 20.1698 22.6678 20.2486C22.6847 20.3274 22.7322 20.3962 22.7998 20.44C22.8674 20.4837 22.9497 20.4988 23.0284 20.4819C23.1072 20.4651 23.176 20.4176 23.2198 20.35C23.3215 20.1899 23.4118 20.0228 23.4898 19.85C23.5973 19.594 23.6843 19.3298 23.7498 19.06C23.9832 18.0779 24.0441 17.0628 23.9298 16.06C23.6275 14.865 23.0252 13.767 22.1798 12.87Z" fill="black"/>
<path d="M12.78 4.79993L12.76 4.82993L12.75 4.84993L12.77 4.79993H12.78Z" fill="black"/>
<path d="M10.2396 8.73995C10.7339 8.48815 11.2688 8.32566 11.8196 8.25995C12.4646 8.16652 13.1228 8.24233 13.7296 8.47995C13.8296 8.47995 13.8296 8.68995 13.8696 8.89995C13.9096 9.10995 13.9496 9.37995 13.9896 9.67995C13.9934 9.72466 14.006 9.76819 14.0266 9.80801C14.0473 9.84784 14.0757 9.88318 14.1101 9.912C14.1445 9.94082 14.1842 9.96254 14.227 9.97592C14.2699 9.9893 14.3149 9.99407 14.3596 9.98995C14.4043 9.98618 14.4479 9.9736 14.4877 9.95292C14.5275 9.93225 14.5628 9.9039 14.5917 9.86951C14.6205 9.83511 14.6422 9.79535 14.6556 9.75252C14.669 9.70969 14.6737 9.66463 14.6696 9.61995C14.6664 9.21381 14.6263 8.8088 14.5496 8.40995C14.5263 8.27542 14.474 8.14759 14.3963 8.03534C14.3186 7.92309 14.2173 7.82911 14.0996 7.75995C13.3745 7.38684 12.5641 7.21096 11.7496 7.24995C10.902 7.25508 10.0758 7.51653 9.37961 7.99995C9.17078 8.24998 9.05427 8.56421 9.04961 8.88995C9.01015 9.55603 9.01015 10.2239 9.04961 10.8899C9.04303 10.933 9.04303 10.9769 9.04961 11.0199C8.98961 11.7899 9.84961 11.5299 10.9496 11.2999C11.4297 11.1861 11.9178 11.1093 12.4096 11.0699C12.7216 11.0294 13.0376 11.0294 13.3496 11.0699C13.5096 11.0699 14.1196 11.1899 14.3496 11.2099H14.4996C14.5667 11.2107 14.6322 11.1896 14.6863 11.15C14.7404 11.1103 14.7801 11.0541 14.7996 10.9899C14.8227 10.9222 14.819 10.8482 14.7893 10.7831C14.7595 10.718 14.706 10.6668 14.6396 10.6399C14.5905 10.6263 14.5387 10.6263 14.4896 10.6399C14.2496 10.6399 13.6996 10.4599 13.5496 10.4199C13.1872 10.3218 12.8148 10.2648 12.4396 10.2499C11.9019 10.2322 11.3637 10.2556 10.8296 10.3199L10.2096 10.3899C10.1521 9.84079 10.1622 9.28665 10.2396 8.73995Z" fill="black"/>
<path d="M22.2997 11.09C22.1597 10.72 22.0497 10.47 22.0497 10.47L21.6297 9.46997C21.4304 8.81083 21.1865 8.16601 20.8997 7.53997C20.6752 7.06599 20.3304 6.65913 19.8997 6.35997C19.6905 6.20866 19.4736 6.06847 19.2497 5.93997C19.0584 5.85621 18.8565 5.79901 18.6497 5.76997H18.2197C18.142 5.73663 18.0734 5.6852 18.0197 5.61997C17.9497 5.66997 17.8997 5.39997 17.8297 5.22997C17.5397 4.55997 17.1697 3.45997 16.9497 2.91997C16.8754 2.7211 16.7595 2.54039 16.6097 2.38997C16.3611 2.19462 16.0698 2.06097 15.7597 1.99997C15.3913 1.92538 15.0153 1.89517 14.6397 1.90997C14.2673 1.88615 13.8934 1.91647 13.5297 1.99997C13.3919 2.0418 13.2641 2.11125 13.1541 2.20409C13.0441 2.29693 12.9541 2.41121 12.8897 2.53997C12.8516 2.64286 12.828 2.75056 12.8197 2.85997V3.40997V4.40997C12.8144 4.54345 12.7873 4.67517 12.7397 4.79997C12.7397 4.79997 12.7397 4.85997 12.6797 4.86997H12.2897C11.9571 4.90078 11.6223 4.90078 11.2897 4.86997V3.56997C11.2884 3.2342 11.2549 2.89934 11.1897 2.56997C11.1272 2.44091 11.0378 2.32679 10.9273 2.23534C10.8169 2.1439 10.6881 2.07727 10.5497 2.03997C10.2198 1.98065 9.88326 1.96719 9.54967 1.99997C9.17422 1.99057 8.79881 2.02074 8.42967 2.08997C8.1411 2.15371 7.86876 2.27626 7.62967 2.44997C7.47618 2.60012 7.36865 2.7909 7.31967 2.99997C7.16967 3.52997 6.95967 4.61997 6.75967 5.28997C6.75967 5.43997 6.63967 5.61997 6.62967 5.64997C6.56576 5.71963 6.48722 5.77428 6.39967 5.80997C6.28967 5.80997 6.17967 5.80997 5.96967 5.85997C5.76675 5.87457 5.56752 5.92185 5.37967 5.99997C5.15927 6.12889 4.94566 6.26908 4.73967 6.41997C4.31105 6.70874 3.96613 7.1054 3.73967 7.56997C3.45245 8.20726 3.2053 8.86187 2.99967 9.52997L2.43967 11C2.41291 11.0744 2.41561 11.1562 2.44721 11.2287C2.47881 11.3012 2.53693 11.3589 2.60967 11.39C2.64969 11.4036 2.69213 11.4087 2.73423 11.4048C2.77633 11.4009 2.81713 11.3881 2.85396 11.3673C2.89078 11.3466 2.9228 11.3182 2.94791 11.2842C2.97302 11.2502 2.99066 11.2113 2.99967 11.17L3.62967 9.76997C3.84054 9.16262 4.09452 8.57112 4.38967 7.99997C4.56277 7.65931 4.82554 7.37234 5.14967 7.16997C5.3357 7.0416 5.52939 6.92471 5.72967 6.81997C5.83854 6.777 5.95307 6.75005 6.06967 6.73997C6.25745 6.73217 6.44451 6.71213 6.62967 6.67997C6.8481 6.61441 7.04949 6.50177 7.21967 6.34997C7.41327 6.11507 7.55626 5.84271 7.63967 5.54997C7.83967 4.94997 8.05967 4.05997 8.21967 3.54997C8.21967 3.44997 8.28967 3.34997 8.30967 3.27997C8.45647 3.20668 8.61608 3.16253 8.77967 3.14997C9.03612 3.13498 9.29322 3.13498 9.54967 3.14997C10.5497 3.14997 10.2797 2.55997 10.2097 5.37997C10.2008 5.52739 10.244 5.67325 10.3317 5.79205C10.4195 5.91086 10.5462 5.99507 10.6897 6.02997C11.0461 6.12021 11.412 6.16722 11.7797 6.16997C12.282 6.19785 12.7849 6.12649 13.2597 5.95997C13.476 5.86748 13.6554 5.70565 13.7697 5.49997C13.9039 5.25333 13.9824 4.98024 13.9997 4.69997C14.0296 4.27049 14.0296 3.83945 13.9997 3.40997C13.9834 3.31829 13.96 3.22802 13.9297 3.13997C14.0997 3.23997 14.4997 3.00997 14.6497 3.00997C14.9453 2.97511 15.244 2.97511 15.5397 3.00997C15.6578 3.03493 15.7721 3.07527 15.8797 3.12997C15.8797 3.19997 15.9697 3.31997 16.0097 3.42997C16.2497 3.97997 16.5797 4.87997 16.8597 5.42997C16.9694 5.7155 17.1285 5.97952 17.3297 6.20997C17.5097 6.3632 17.7165 6.48185 17.9397 6.55997C18.0897 6.55997 18.2297 6.55997 18.5097 6.61997C18.6223 6.6284 18.7333 6.65195 18.8397 6.68997C19.0097 6.76997 19.1497 6.88997 19.3997 7.03997C19.7125 7.24107 19.9676 7.52025 20.1397 7.84997C20.4278 8.43677 20.6783 9.04133 20.8897 9.65997L21.3497 10.66L21.5097 11.06C21.5797 11.77 22.5697 12.11 22.2997 11.09Z" fill="black"/>
</g>
<defs>
<clipPath id="clip0_36_773">
<rect width="24" height="24" fill="white"/>
</clipPath>
</defs>
</svg>
