<svg width="24" height="24" viewBox="0 0 24 24" fill="none" xmlns="http://www.w3.org/2000/svg">
<g clip-path="url(#clip0_36_1112)">
<path d="M24.0002 14.61C24.0975 11.6925 23.947 8.77198 23.5502 5.87996C23.5659 5.67359 23.5659 5.46633 23.5502 5.25996C23.4102 4.58996 21.4002 4.25996 20.5502 4.17996C20.4721 4.17147 20.3938 4.19394 20.3321 4.24256C20.2704 4.29117 20.2302 4.36205 20.2202 4.43996C20.1702 5.09996 21.2202 4.43996 22.8302 5.43996C22.8103 6.15069 22.8673 6.86149 23.0002 7.55996C23.2402 9.79996 23.1102 11.35 23.0002 17.3C21.812 17.0414 20.5948 16.9405 19.3802 17C17.1154 16.9842 14.9036 17.6842 13.0602 19C13.7402 16.36 15.4002 15.65 17.7402 14.81C18.0053 14.7269 18.2826 14.6897 18.5602 14.7C18.6144 14.8227 18.7101 14.9223 18.8306 14.9814C18.951 15.0404 19.0884 15.0551 19.2186 15.0229C19.3488 14.9906 19.4635 14.9135 19.5424 14.805C19.6214 14.6966 19.6595 14.5638 19.6502 14.43C19.2702 4.31996 19.6502 2.89996 19.4902 1.95996C19.3302 1.01996 18.6502 0.909963 17.7002 0.769963C16.5333 0.647591 15.3548 0.839959 14.2874 1.32708C13.22 1.8142 12.3024 2.57829 11.6302 3.53996C11.5502 3.70996 11.0802 4.74996 11.0402 4.85996C10.3577 4.33861 9.5692 3.97335 8.7302 3.78996C6.57613 3.31203 4.32094 3.66942 2.4202 4.78996C2.04975 5.03061 1.7326 5.34468 1.48836 5.71276C1.24411 6.08085 1.07797 6.49512 1.0002 6.92996C0.120196 10.49 -0.409804 11.54 0.410196 19.11C0.410196 19.42 0.410196 19.9 0.710196 20.19C0.777434 20.2461 0.856142 20.2868 0.940792 20.3093C1.02544 20.3317 1.11398 20.3354 1.2002 20.32V21.09C1.3302 22.89 3.7202 21.79 6.3502 21.57C8.5302 21.4 8.7702 21.87 10.7002 22.99C11.4947 23.2887 12.3556 23.3648 13.1902 23.21C13.8742 23.1072 14.5229 22.8395 15.0802 22.43C21.6702 17.58 21.4402 23.25 22.9802 19.18C23.0515 18.994 23.0953 18.7986 23.1102 18.6C23.1878 18.6509 23.2774 18.6806 23.3701 18.6861C23.4627 18.6916 23.5552 18.6726 23.6382 18.6311C23.7213 18.5895 23.7919 18.5269 23.8432 18.4495C23.8944 18.3721 23.9244 18.2826 23.9302 18.19C24.0221 16.999 24.0455 15.8037 24.0002 14.61ZM11.8802 5.38996C14.8802 -0.250037 18.6002 2.22996 18.7602 2.38996C18.8402 2.68996 18.3902 9.46996 18.3702 10.09L18.4602 13.54C17.3509 13.659 16.2787 14.0087 15.3126 14.5667C14.3464 15.1247 13.5077 15.8786 12.8502 16.78C12.3502 17.64 12.5202 17.73 12.4302 17.16C12.4102 17.06 11.8402 5.46996 11.8802 5.38996ZM1.0802 9.72996C1.3702 8.61996 1.7302 5.79996 2.6902 5.47996C5.4902 4.53996 8.2902 4.30996 10.8902 5.72996C11.1987 6.58842 11.338 7.49853 11.3002 8.40996C11.3002 10.46 11.3602 16.65 11.6002 18.51C10.0083 17.7841 8.26842 17.4416 6.5202 17.51C5.13736 17.6328 3.7851 17.9878 2.5202 18.56C2.4002 18.56 1.8402 19.13 1.4402 19.35C1.4402 19.21 1.3302 19.05 1.3202 18.97C1.0002 16.25 0.530196 12.67 1.0802 9.72996ZM21.6402 19.56C18.7602 18.41 16.4702 20.04 14.4302 21.5C13.9942 21.7917 13.5031 21.991 12.9871 22.0856C12.4712 22.1802 11.9413 22.1681 11.4302 22.05C7.5602 19.31 6.0602 20.62 2.5602 21.15C2.3802 21.15 2.2402 21.24 2.1502 21.15C2.0602 21.06 1.9602 20.48 1.7302 20.15C2.1602 19.93 2.7302 19.58 2.8702 19.54C4.3402 19.08 6.0002 18 9.6002 19C12.2602 19.69 12.1202 20.85 13.0202 20.36C14.3602 19.64 16.2902 17.48 22.3302 18.21C22.2696 18.2828 22.2376 18.3752 22.2402 18.47C21.6502 19.53 21.6802 19.46 21.6402 19.56Z" fill="black"/>
<path d="M3.65014 8.99998C4.65014 8.85998 4.57014 8.36998 5.89014 8.36998C6.62604 8.42338 7.352 8.57126 8.05014 8.80998C8.24014 8.73998 8.38014 8.65998 8.38014 8.46998C8.38014 8.03998 7.78014 7.59998 6.87014 7.46998C4.24014 6.97998 3.99014 8.23998 3.49014 8.46998C3.44446 8.5076 3.41093 8.55789 3.39376 8.61452C3.37659 8.67115 3.37656 8.7316 3.39366 8.78825C3.41076 8.84491 3.44424 8.89524 3.48988 8.93291C3.53552 8.97058 3.59128 8.99392 3.65014 8.99998Z" fill="black"/>
<path d="M3.65038 12.5299C4.65038 12.3899 4.57038 11.8999 5.89038 11.8999C6.62628 11.9533 7.35224 12.1012 8.05038 12.3399C8.24038 12.2799 8.38038 12.1899 8.38038 11.9999C8.38038 11.5699 7.78038 11.1399 6.87038 10.9999C4.24038 10.5099 3.99038 11.7599 3.49038 11.9999C3.44123 11.9949 3.39159 12.002 3.34587 12.0208C3.30015 12.0395 3.25977 12.0693 3.22831 12.1074C3.19685 12.1455 3.1753 12.1908 3.16556 12.2392C3.15581 12.2876 3.15819 12.3377 3.17247 12.385C3.18675 12.4324 3.21249 12.4754 3.24741 12.5104C3.28233 12.5453 3.32535 12.5711 3.37264 12.5854C3.41992 12.5998 3.47002 12.6022 3.51847 12.5925C3.56693 12.5828 3.61224 12.5613 3.65038 12.5299Z" fill="black"/>
<path d="M3.65031 16.1C4.65031 15.96 4.57031 15.47 5.89031 15.47C6.62543 15.5289 7.3507 15.6767 8.05031 15.91C8.24031 15.85 8.38031 15.76 8.38031 15.58C8.38031 15.14 7.78031 14.71 6.87031 14.58C4.24031 14.09 3.99031 15.35 3.49031 15.58C3.44037 15.5731 3.38949 15.5789 3.3424 15.5969C3.2953 15.6149 3.25349 15.6444 3.22084 15.6829C3.18819 15.7213 3.16574 15.7673 3.15558 15.8167C3.14541 15.8661 3.14785 15.9172 3.16268 15.9654C3.17751 16.0136 3.20424 16.0572 3.2404 16.0924C3.27657 16.1275 3.32101 16.1529 3.3696 16.1663C3.4182 16.1798 3.4694 16.1807 3.51846 16.1691C3.56752 16.1575 3.61287 16.1337 3.65031 16.1Z" fill="black"/>
</g>
<defs>
<clipPath id="clip0_36_1112">
<rect width="24" height="24" fill="white"/>
</clipPath>
</defs>
</svg>
