<svg width="24" height="24" viewBox="0 0 24 24" fill="none" xmlns="http://www.w3.org/2000/svg">
<g clip-path="url(#clip0_36_1180)">
<path d="M10.1499 11.1699C10.4183 11.3703 10.6989 11.554 10.9899 11.7199C11.184 11.8209 11.4012 11.8692 11.6199 11.8599C11.9911 11.8081 12.3389 11.6481 12.6199 11.3999C12.9236 11.1351 13.1925 10.8327 13.4199 10.4999C14.3091 10.7342 15.2411 10.7547 16.1399 10.5599C16.5414 10.4919 16.9144 10.308 17.2128 10.0308C17.5113 9.7537 17.7223 9.39538 17.8199 8.99994C17.8442 8.85677 17.8119 8.70977 17.7299 8.58994C17.5767 8.39705 17.3985 8.22553 17.1999 8.07994L15.6999 6.70994C15.2699 6.32994 14.8499 5.93994 14.4299 5.54994C13.4299 4.63994 12.4299 3.69994 11.5299 2.74994C11.3056 2.53081 11.0612 2.33328 10.7999 2.15994C10.6051 2.03787 10.3926 1.94678 10.1699 1.88994C9.99284 1.84599 9.81201 1.8192 9.62986 1.80994C9.55844 1.81301 9.48872 1.83268 9.42623 1.8674C9.36374 1.90212 9.3102 1.95092 9.26986 2.00994C8.9721 2.47491 8.78402 3.00153 8.71986 3.54994C8.66024 4.33415 8.75538 5.12243 8.99986 5.86994C8.99986 5.86994 8.24986 6.35994 7.90986 6.66994C7.72274 6.84052 7.58464 7.05803 7.50986 7.29994C7.44355 7.64963 7.45392 8.00954 7.54025 8.35484C7.62657 8.70014 7.78679 9.02259 8.00986 9.29994C8.61306 10.0391 9.33652 10.6713 10.1499 11.1699ZM8.54986 7.04994C8.79427 6.80032 9.05127 6.56334 9.31986 6.33994C9.42891 6.28972 9.51401 6.19886 9.55699 6.08675C9.59996 5.97465 9.5974 5.85018 9.54986 5.73994C9.41076 5.17097 9.35351 4.58507 9.37986 3.99994C9.41936 3.54174 9.55935 3.09789 9.78986 2.69994C10.0012 2.76669 10.2029 2.86082 10.3899 2.97994C10.5496 3.11627 10.7 3.26328 10.8399 3.41994C11.4999 4.12994 12.1599 4.84994 12.8399 5.52994C13.5199 6.20994 14.2599 6.86994 14.9999 7.52994C14.9999 7.52994 16.7699 8.93994 16.8799 9.00994C16.804 9.20057 16.6852 9.37107 16.5325 9.50812C16.3798 9.64517 16.1975 9.74505 15.9999 9.79994C15.1527 10.0362 14.257 10.0362 13.4099 9.79994C13.3698 9.78579 13.3274 9.77976 13.285 9.78218C13.2426 9.78461 13.2011 9.79544 13.163 9.81405C13.1248 9.83267 13.0907 9.85869 13.0627 9.8906C13.0347 9.92251 13.0134 9.95968 12.9999 9.99994C12.9907 10.0428 12.9907 10.0871 12.9999 10.1299C12.7797 10.3809 12.5314 10.6057 12.2599 10.7999C12.0888 10.9278 11.8832 11.001 11.6699 11.0099C11.5799 11.0099 11.5099 10.9299 11.4299 10.8699C11.1899 10.6999 10.9699 10.4799 10.8099 10.3499C10.0778 9.89264 9.41167 9.33751 8.82986 8.69994C8.49498 8.36966 8.30444 7.92026 8.29986 7.44994C8.34166 7.29475 8.42869 7.15552 8.54986 7.04994Z" fill="black"/>
<path d="M15.78 2.99996C15.5457 2.81166 15.2823 2.66302 15 2.55996C14.3937 2.3752 13.7462 2.3752 13.14 2.55996C13.0657 2.5719 12.9992 2.61284 12.9552 2.67379C12.9111 2.73474 12.893 2.8107 12.905 2.88496C12.9169 2.95922 12.9578 3.0257 13.0188 3.06977C13.0797 3.11384 13.1557 3.1319 13.23 3.11996C13.713 3.1442 14.183 3.28486 14.6 3.52996C14.7737 3.62145 14.9408 3.72504 15.1 3.83996C15.388 3.99312 15.6314 4.2182 15.8066 4.49332C15.9819 4.76843 16.0829 5.08422 16.1 5.40996C16.0915 5.49599 16.1172 5.5819 16.1714 5.64922C16.2256 5.71654 16.3041 5.7599 16.39 5.76996C16.4738 5.77333 16.5559 5.74558 16.6205 5.69204C16.6852 5.63851 16.7277 5.56297 16.74 5.47996C16.8188 5.10885 16.8111 4.72457 16.7175 4.35692C16.6238 3.98926 16.4467 3.64812 16.2 3.35996C16.0756 3.22284 15.9345 3.1019 15.78 2.99996Z" fill="black"/>
<path d="M12.9105 0.839941C13.7629 0.727043 14.6291 0.891855 15.3805 1.30994C15.7113 1.46775 16.0289 1.65167 16.3305 1.85994C16.6319 2.05874 16.9133 2.28649 17.1705 2.53994C17.4809 2.80615 17.7254 3.14057 17.885 3.51703C18.0446 3.89349 18.1149 4.30178 18.0905 4.70994C18.0783 4.79435 18.0982 4.88026 18.1464 4.95065C18.1945 5.02104 18.2674 5.07075 18.3505 5.08994C18.434 5.10446 18.5199 5.08524 18.5893 5.03649C18.6586 4.98774 18.7058 4.91346 18.7205 4.82994C18.84 4.30248 18.8296 3.7539 18.6903 3.23133C18.5509 2.70877 18.2868 2.22786 17.9205 1.82994C17.6292 1.48626 17.2928 1.18352 16.9205 0.929941C16.5553 0.68485 16.1626 0.483472 15.7505 0.329941C14.7874 -0.0359448 13.7274 -0.0571453 12.7505 0.269941C12.6805 0.292868 12.6223 0.342465 12.5886 0.407981C12.5549 0.473497 12.5484 0.549654 12.5705 0.619941C12.5762 0.657822 12.5898 0.694063 12.6106 0.726258C12.6313 0.758453 12.6587 0.785865 12.6908 0.806673C12.723 0.827481 12.7592 0.841209 12.7971 0.846945C12.8349 0.85268 12.8736 0.850293 12.9105 0.839941Z" fill="black"/>
<path d="M24 14.41C23.9221 13.4431 23.7886 12.4815 23.6 11.53C23.4 10.53 23.14 9.57997 22.92 8.72997C22.7694 8.04835 22.5654 7.37962 22.31 6.72997C22.1543 6.36478 21.8886 6.05719 21.55 5.84997C20.9215 5.56868 20.2153 5.51218 19.55 5.68997C18.6557 5.88137 17.8237 6.29395 17.13 6.88997C17.0717 6.93638 17.0341 7.00407 17.0257 7.07815C17.0173 7.15222 17.0386 7.22662 17.085 7.28497C17.1314 7.34331 17.1991 7.38084 17.2732 7.38927C17.3473 7.39771 17.4217 7.37638 17.48 7.32997C18.0197 6.93363 18.6362 6.65434 19.29 6.50997C19.8753 6.32859 20.5075 6.37502 21.06 6.63997C21.2704 6.83241 21.411 7.08912 21.46 7.36997C21.64 7.94997 21.74 8.62997 21.84 9.04997C22.07 9.88997 22.3 10.82 22.53 11.79C22.76 12.76 22.95 13.62 23.08 14.54C23.2181 15.4699 23.2583 16.4117 23.2 17.35C22.0518 17.0895 20.8654 17.042 19.7 17.21C18.4938 17.3787 17.3121 17.6909 16.18 18.14C15.8236 18.2863 15.4875 18.4778 15.18 18.71C14.7897 19.0238 14.4159 19.3575 14.06 19.71L13.8 19.93C13.8 19.19 13.75 18.45 13.69 17.71C13.69 17.33 13.62 16.96 13.56 16.59C13.5103 16.2131 13.4402 15.8392 13.35 15.47C13.1288 14.6162 12.8617 13.775 12.55 12.95C12.5419 12.9139 12.5265 12.8798 12.5048 12.8499C12.483 12.82 12.4553 12.7949 12.4234 12.7762C12.3915 12.7574 12.3562 12.7454 12.3194 12.7409C12.2827 12.7364 12.2455 12.7395 12.21 12.75C12.1533 12.7644 12.1025 12.7963 12.0648 12.8412C12.0271 12.886 12.0045 12.9416 12 13C12.14 13.86 12.22 14.71 12.33 15.57C12.33 15.94 12.43 16.3 12.49 16.66C12.55 17.02 12.61 17.39 12.68 17.75C12.8 18.42 12.93 19.09 13.06 19.75C12.81 19.62 12.52 19.45 12.15 19.28C11.755 19.0918 11.3473 18.9314 10.93 18.8C9.48256 18.3634 7.94795 18.3015 6.47002 18.62C5.15963 18.9362 3.92552 19.5107 2.84002 20.31C2.85924 19.4482 2.81915 18.5862 2.72002 17.73C2.6146 16.7813 2.43743 15.8419 2.19002 14.92L1.08002 10.65C1.06217 10.5562 1.07151 10.4593 1.10695 10.3707C1.14239 10.2821 1.20244 10.2055 1.28002 10.15C1.51882 9.92707 1.79242 9.74467 2.09002 9.60997C2.89681 9.19071 3.74461 8.85561 4.62002 8.60997C5.17825 8.44819 5.75955 8.3806 6.34002 8.40997C6.42464 8.4216 6.51049 8.39997 6.57949 8.34961C6.64849 8.29926 6.69528 8.22411 6.71002 8.13997C6.72146 8.0565 6.69953 7.97189 6.64898 7.90449C6.59844 7.83709 6.52335 7.79235 6.44002 7.77997C5.7726 7.69689 5.09582 7.73073 4.44002 7.87997C3.49293 8.06642 2.56791 8.3513 1.68002 8.72997C1.18285 8.91653 0.73481 9.21408 0.370017 9.59997C0.209815 9.77123 0.0955463 9.98023 0.0378472 10.2075C-0.0198519 10.4348 -0.0191055 10.673 0.040017 10.9C0.100017 11.12 0.390017 12.34 0.700017 13.49C0.890017 14.16 1.08002 14.81 1.22002 15.21C1.54881 16.075 1.8096 16.9644 2.00002 17.87C2.18002 18.78 2.35002 20.87 2.35002 20.98C2.35577 21.3748 2.48907 21.7571 2.73002 22.07C2.86397 22.2346 3.03336 22.3669 3.22555 22.4569C3.41775 22.5469 3.62779 22.5924 3.84002 22.59C4.06799 22.5918 4.29459 22.5546 4.51002 22.48C4.93002 22.35 5.36002 22.11 5.75002 22.02C6.27552 21.8925 6.81069 21.8089 7.35002 21.77C7.87856 21.7144 8.41147 21.7144 8.94002 21.77C9.83052 21.7938 10.6797 22.1506 11.32 22.77C11.6356 23.1541 12.0227 23.4734 12.46 23.71C12.8864 23.8745 13.3488 23.9228 13.8 23.85C14.3962 23.7912 14.9676 23.5813 15.46 23.24C16.0248 22.7258 16.5404 22.16 17 21.55C17.1939 21.3444 17.4203 21.1721 17.67 21.04C18.0966 20.8239 18.5417 20.6465 19 20.51C19.4637 20.3666 19.9388 20.2629 20.42 20.2C20.8984 20.145 21.3816 20.145 21.86 20.2C21.96 20.2 22.61 20.37 22.86 20.38C22.9337 20.3875 23.0082 20.3779 23.0776 20.3519C23.147 20.3259 23.2094 20.2842 23.26 20.23C23.4445 19.9748 23.5677 19.6805 23.62 19.37C23.8609 17.7274 23.9879 16.0701 24 14.41ZM22.91 19.53C22.6164 19.4359 22.3076 19.3986 22 19.42C21.4669 19.3432 20.9269 19.3264 20.39 19.37C19.8524 19.4129 19.32 19.5066 18.8 19.65C18.2812 19.7788 17.7756 19.9563 17.29 20.18C16.9205 20.3483 16.5824 20.5782 16.29 20.86C15.8324 21.4223 15.3272 21.9442 14.78 22.42C14.4283 22.657 14.0224 22.8015 13.6 22.84C12.75 22.95 12.5 22.56 12.09 22.15C11.6999 21.7207 11.2226 21.3797 10.69 21.15C10.1461 20.9586 9.57628 20.8507 9.00002 20.83C8.40882 20.7992 7.81603 20.826 7.23002 20.91C6.6484 20.991 6.07352 21.1147 5.51002 21.28C5.12002 21.4 4.68002 21.67 4.26002 21.83C4.11773 21.8916 3.96501 21.9255 3.81002 21.93C3.69133 21.9399 3.57194 21.9226 3.46101 21.8792C3.35007 21.8359 3.25053 21.7677 3.17002 21.68C3.00952 21.4872 2.91182 21.2499 2.89002 21C4.01585 20.225 5.29447 19.6999 6.64002 19.46C7.98372 19.237 9.36233 19.368 10.64 19.84C11.4961 20.168 12.3281 20.5556 13.13 21C13.3152 21.0689 13.5157 21.0862 13.71 21.05C14.0158 20.9771 14.3002 20.8333 14.54 20.63C15.1193 19.9902 15.7939 19.4438 16.54 19.01C17.5819 18.545 18.6767 18.2092 19.8 18.01C20.8871 17.8048 22.0029 17.8048 23.09 18.01C23.11 18 22.92 19.43 22.88 19.53H22.91Z" fill="black"/>
</g>
<defs>
<clipPath id="clip0_36_1180">
<rect width="24" height="24" fill="white"/>
</clipPath>
</defs>
</svg>
