<svg width="24" height="24" viewBox="0 0 24 24" fill="none" xmlns="http://www.w3.org/2000/svg">
<g clip-path="url(#clip0_36_927)">
<path fill-rule="evenodd" clip-rule="evenodd" d="M6.7002 17.4099C6.6302 17.6899 10.1502 17.8799 10.4102 17.8899C12.2002 17.9699 13.1402 17.8899 15.8802 17.7599C16.2602 17.6999 16.9502 17.8999 16.9602 17.3999C16.9702 16.8999 16.2702 17.0699 15.8802 16.9899C13.7145 16.7591 11.5325 16.7223 9.3602 16.8799C7.7902 16.9999 6.5002 16.9399 6.7002 17.4099Z" fill="black"/>
<path fill-rule="evenodd" clip-rule="evenodd" d="M6.66014 14.88C6.85014 14.22 6.30014 13.55 5.32014 13.82C4.75014 13.98 4.81014 14.98 5.23014 15.29C5.34524 15.3771 5.47902 15.4362 5.6209 15.4626C5.76278 15.4891 5.90887 15.4821 6.0476 15.4424C6.18633 15.4026 6.31391 15.3311 6.42022 15.2335C6.52654 15.1358 6.60868 15.0148 6.66014 14.88Z" fill="black"/>
<path fill-rule="evenodd" clip-rule="evenodd" d="M5.15012 17.9999C5.34012 17.3399 4.79012 16.6799 3.80012 16.9499C3.23012 17.0999 3.29012 18.1099 3.71012 18.4099C3.82537 18.4991 3.95994 18.5599 4.103 18.5874C4.24605 18.615 4.39358 18.6086 4.53369 18.5687C4.67381 18.5288 4.80259 18.4565 4.90967 18.3578C5.01674 18.259 5.0991 18.1364 5.15012 17.9999Z" fill="black"/>
<path fill-rule="evenodd" clip-rule="evenodd" d="M14.4304 14.88C14.6204 14.22 14.0704 13.55 13.0804 13.82C12.5104 13.98 12.5704 14.98 12.9904 15.29C13.1063 15.377 13.2409 15.4361 13.3834 15.4625C13.526 15.4889 13.6727 15.482 13.8121 15.4423C13.9516 15.4026 14.0799 15.3312 14.1872 15.2337C14.2944 15.1361 14.3777 15.0151 14.4304 14.88Z" fill="black"/>
<path fill-rule="evenodd" clip-rule="evenodd" d="M10.8904 14.8299C11.0804 14.1699 10.5304 13.5099 9.54036 13.7699C8.97036 13.9299 9.03036 14.9399 9.45036 15.2399C9.56631 15.327 9.70082 15.386 9.84337 15.4124C9.98592 15.4389 10.1327 15.432 10.2721 15.3923C10.4115 15.3526 10.5399 15.2811 10.6472 15.1836C10.7544 15.086 10.8376 14.965 10.8904 14.8299Z" fill="black"/>
<path fill-rule="evenodd" clip-rule="evenodd" d="M18.65 14.8299C18.84 14.1699 18.29 13.5099 17.3 13.7699C16.74 13.9299 16.8 14.9399 17.21 15.2399C17.3252 15.3291 17.4598 15.3899 17.6028 15.4174C17.7459 15.445 17.8934 15.4386 18.0335 15.3987C18.1736 15.3588 18.3024 15.2865 18.4095 15.1878C18.5166 15.089 18.5989 14.9664 18.65 14.8299Z" fill="black"/>
<path fill-rule="evenodd" clip-rule="evenodd" d="M18.9003 18.3C19.0155 18.3891 19.1501 18.4499 19.2932 18.4775C19.4362 18.5051 19.5837 18.4986 19.7239 18.4587C19.864 18.4189 19.9928 18.3466 20.0998 18.2478C20.2069 18.149 20.2893 18.0265 20.3403 17.89C20.5303 17.23 19.9803 16.57 18.9903 16.83C18.4303 17 18.4803 18 18.9003 18.3Z" fill="black"/>
<path fill-rule="evenodd" clip-rule="evenodd" d="M5.2501 7.64998C5.1201 6.64998 4.9201 5.37998 4.8701 4.24998C5.9801 4.69998 7.7901 5.24998 8.7201 4.61998C9.3001 4.21997 9.1601 3.45998 8.8201 1.28998C11.4401 1.18998 14.0401 1.05998 16.0801 1.15998C16.5117 1.13172 16.9452 1.1586 17.3701 1.23998C18.0301 1.73998 18.0301 5.57998 18.0401 7.67998C18.0401 8.53998 18.7401 8.52997 18.7601 7.67998C18.8201 5.67998 18.8501 4.39998 18.7601 3.40998C18.8214 2.59236 18.7089 1.77102 18.4301 0.999975C18.3388 0.772342 18.1873 0.573871 17.9917 0.425878C17.7961 0.277884 17.564 0.185959 17.3201 0.159975C15.0001 -0.260025 8.2101 0.259975 7.7301 0.289975C6.5801 0.409975 4.4001 1.87998 4.1101 3.19998C3.9201 4.01998 4.4801 6.71997 4.6601 7.73997C4.67877 7.81182 4.72341 7.87418 4.7854 7.91502C4.84738 7.95586 4.92231 7.97227 4.99569 7.96107C5.06907 7.94988 5.13569 7.91188 5.18268 7.85442C5.22967 7.79696 5.25369 7.72412 5.2501 7.64998ZM7.8101 1.32998H8.0601C8.11711 2.12228 8.11711 2.91767 8.0601 3.70998C7.00223 3.93623 5.90407 3.88803 4.8701 3.56998C5.0001 2.57998 7.0001 1.36998 7.8101 1.32998Z" fill="black"/>
<path fill-rule="evenodd" clip-rule="evenodd" d="M23.8002 21.37C23.5277 20.2419 23.1285 19.1483 22.6102 18.11C21.5502 16.28 21.3402 14.42 19.7802 13.11L20.0002 13C20.6902 14 23.0902 14.16 23.4802 12.91C23.5453 12.6338 23.5453 12.3462 23.4802 12.07C23.4652 11.679 23.4853 11.2874 23.5402 10.9C23.513 10.3228 23.4122 9.75153 23.2402 9.19996C22.9302 8.43996 22.3202 8.02996 21.1002 8.13996C20.3102 8.20996 19.5002 8.41996 19.4802 9.20996C16.3223 9.04438 13.158 9.04438 10.0002 9.20996C9.33015 9.20996 8.61015 9.14996 7.91015 9.13996C7.21015 9.12996 6.30015 9.28996 4.22015 9.35996C4.32015 8.43996 3.60015 8.16996 2.67015 8.07996C2.24812 7.95982 1.79651 8.00073 1.40293 8.19475C1.00936 8.38876 0.701881 8.72206 0.540153 9.12996C0.283854 10.4032 0.219809 11.7077 0.350153 13C0.401614 13.1129 0.477737 13.2128 0.572919 13.2924C0.668102 13.372 0.779923 13.4293 0.900153 13.46C1.30853 13.5822 1.73827 13.616 2.16072 13.5591C2.58318 13.5022 2.98866 13.3559 3.35015 13.13C3.49355 13.2243 3.65275 13.292 3.82015 13.33C1.88015 15.76 1.19015 18.23 0.370153 21.1C0.0701534 22.1 -0.139847 23.44 0.880153 23.73C2.32015 24.14 6.05015 23.88 8.69015 23.86C10.8902 23.86 14.0002 24.07 16.5002 23.98C22.1902 23.74 24.3202 24.82 23.8002 21.37ZM20.0702 9.14996C20.1602 8.85996 21.5602 8.88996 21.9402 9.14996C22.3202 9.40996 22.2802 10.25 22.3502 10.66C22.7702 12.83 22.3502 12.97 21.3502 12.87C21.1046 12.8531 20.8641 12.7921 20.6402 12.69C20.4602 12.6 20.4702 12.69 20.4402 12.5C21.1302 11.59 21.0302 9.71996 20.0202 9.34996C20.0283 9.28146 20.0451 9.21426 20.0702 9.14996ZM3.12015 10.91C2.96547 11.4387 2.92458 11.9943 3.00015 12.54C2.72886 12.671 2.43145 12.7391 2.13015 12.7391C1.82886 12.7391 1.53145 12.671 1.26015 12.54C1.52015 9.21996 1.40015 8.99996 2.61015 8.88996C3.82015 8.77996 3.54015 9.13996 3.61015 9.40996C3.12015 9.58996 3.22015 10.54 3.12015 10.91ZM3.76015 12.57C3.57015 12.5 3.59015 12.22 3.59015 12.02C3.59015 11.82 3.75015 10.09 3.77015 10.02C15.4102 10.17 16.7702 9.87996 19.0102 10.24C19.1602 10.24 19.5502 10.55 19.6902 10.47C19.7632 10.7993 19.7632 11.1406 19.6902 11.47C19.4302 12.64 17.4602 12.34 15.8502 12.47C15.4702 12.47 15.0802 12.53 14.6902 12.56C14.6002 11.56 12.9102 10.16 11.1702 10.47C10.5562 10.563 9.9845 10.8389 9.52963 11.2617C9.07477 11.6844 8.75784 12.2344 8.62015 12.84C6.99821 13.0717 5.34645 12.9799 3.76015 12.57ZM14.0002 12.6C12.4502 12.66 10.8902 12.65 9.34015 12.78C9.34015 12.65 9.65015 12.3 10.1802 11.98C11.6502 11.07 13.7402 11.85 14.0002 12.6ZM22.9102 22.4C22.8402 23.09 23.8402 23 8.64015 22.74C6.08015 22.8 2.27015 23.11 1.09015 22.82C0.860153 22.76 1.09015 21.55 1.17015 21.32C1.89015 18.46 2.49015 15.96 4.41015 13.52C6.05985 13.8158 7.74277 13.8797 9.41015 13.71C10.9302 13.63 12.4102 13.71 13.9702 13.71C14.5002 13.71 18.3102 13.53 19.0302 13.36C19.4881 13.7262 19.8745 14.1736 20.1702 14.68C20.8402 15.83 21.1702 17.2 21.8602 18.53C22.1217 19.0957 22.3488 19.6768 22.5402 20.27C19.5402 20.6 14.9302 20.09 11.3502 20.09C8.45178 20.2982 5.54466 20.3583 2.64015 20.27C2.56858 20.2736 2.50067 20.3028 2.44874 20.3522C2.3968 20.4016 2.36426 20.4679 2.35701 20.5392C2.34976 20.6105 2.36828 20.6821 2.40921 20.7409C2.45014 20.7997 2.51078 20.842 2.58015 20.86C5.49316 21.1626 8.422 21.2862 11.3502 21.23C12.9602 21.23 19.8202 21.53 22.7402 20.91C22.8903 21.3918 22.9579 21.8956 22.9402 22.4H22.9102Z" fill="black"/>
</g>
<defs>
<clipPath id="clip0_36_927">
<rect width="24" height="24" fill="white"/>
</clipPath>
</defs>
</svg>
