<svg width="24" height="24" viewBox="0 0 24 24" fill="none" xmlns="http://www.w3.org/2000/svg">
<g clip-path="url(#clip0_36_1153)">
<path fill-rule="evenodd" clip-rule="evenodd" d="M18.42 9.58998C18.42 9.45998 18.42 9.27998 18.49 9.19998C18.64 8.44998 19.03 7.62998 19.27 6.81998C19.51 6.00998 19.27 5.00998 18.27 5.03998L14.43 5.99998C13 5.22998 11.86 3.50998 10.24 3.73998C10.0901 3.73546 9.9417 3.77067 9.80982 3.84204C9.67794 3.91341 9.56728 4.0184 9.48909 4.14636C9.41089 4.27431 9.36794 4.42068 9.36459 4.5706C9.36124 4.72052 9.39761 4.86866 9.47001 4.99998C10.0871 5.95299 10.6224 6.95658 11.07 7.99998L11.13 8.16998C10.92 8.22998 10.71 8.32998 10.61 8.33998C8.78001 8.67998 6.61001 8.94998 6.45001 9.86998C6.38001 10.26 6.75001 10.79 7.58001 11.09L8.50001 11.36C9.73419 11.4788 10.9535 11.72 12.14 12.08C12.14 12.22 12.14 11.87 12.28 13.08C11.69 13.26 2.55001 22.27 2.45001 22.36C2.03001 22.72 1.70001 22.87 1.45001 22.77C0.570009 22.44 1.45001 21.54 1.83001 21.13C3.83001 18.76 8.97001 13.4 10.06 12.43C10.121 12.3783 10.159 12.3044 10.1655 12.2247C10.1721 12.145 10.1467 12.066 10.095 12.005C10.0433 11.944 9.96946 11.906 9.88976 11.8995C9.81005 11.8929 9.73101 11.9183 9.67001 11.97C8.67001 12.8 0.320009 20.43 0.0500088 21.72C-0.309991 23.53 1.37001 24.81 3.20001 23.24C10.74 15.38 8.73001 17.43 12.38 13.89C12.63 15.89 12.71 16.89 13.38 17.08C14.05 17.27 14.5 16.5 14.79 16.08C16.19 14.03 15.95 13.6 16.06 12.81C16.3054 12.9093 16.5558 12.9961 16.81 13.07C17.7561 13.6379 18.8203 13.98 19.92 14.07C20.72 14.07 21.55 13.83 21.34 13.07C21.23 12.63 20.7 12.2 18.42 9.58998ZM16.12 11.59C15.58 11.42 15.29 11.86 15.19 12.42C15.12 12.82 15.19 13.32 15.08 13.62C14.72 14.5623 14.2321 15.4506 13.63 16.26C13.34 15.53 13.44 16 12.89 12.26C12.8763 12.0948 12.8496 11.9309 12.81 11.77C12.54 11.14 8.96001 10.69 8.65001 10.62L7.84001 10.35C7.61258 10.2669 7.40486 10.1375 7.23001 9.96998C7.32001 9.96998 7.40001 9.84998 7.61001 9.77998C8.64326 9.50033 9.6963 9.29975 10.76 9.17998C11.19 9.10998 11.89 9.17998 12.23 8.82998C12.57 8.47998 12 7.74998 12 7.52998C11.6944 6.60925 11.2709 5.73196 10.74 4.91998C11.74 4.85998 13.4 7.12998 14.47 7.10998C15.5618 6.92242 16.6433 6.67876 17.71 6.37998L18.23 6.24998C18.23 6.74998 17.44 8.51998 17.23 9.44998C17.02 10.38 18.48 10.45 19.95 12.96C18.42 13 16.66 11.76 16.12 11.59Z" fill="black"/>
<path fill-rule="evenodd" clip-rule="evenodd" d="M14.9999 2.68001C15.0138 2.76143 15.0561 2.83531 15.1192 2.88858C15.1824 2.94184 15.2623 2.97106 15.3449 2.97106C15.4275 2.97106 15.5075 2.94184 15.5706 2.88858C15.6337 2.83531 15.676 2.76143 15.6899 2.68001C15.6899 2.57001 16.3399 0.490007 15.2699 0.140007C14.5099 -0.129993 14.8399 1.89001 14.9999 2.68001Z" fill="black"/>
<path fill-rule="evenodd" clip-rule="evenodd" d="M7.16003 6.57003C7.22368 6.63501 7.31053 6.67204 7.40149 6.67298C7.49245 6.67391 7.58005 6.63868 7.64503 6.57503C7.71 6.51138 7.74703 6.42452 7.74797 6.33356C7.74891 6.24261 7.71368 6.15501 7.65003 6.09003C7.47191 5.82076 7.25256 5.58117 7.00003 5.38003C6.5067 5.02772 5.92492 4.81994 5.32003 4.78003C5.26003 4.78003 5.05003 5.05003 5.32003 5.37003C6.35003 6.61003 6.71003 6.29003 7.16003 6.57003Z" fill="black"/>
<path fill-rule="evenodd" clip-rule="evenodd" d="M17.0001 14.94C16.9284 14.9748 16.8723 15.0351 16.8427 15.109C16.8131 15.183 16.8122 15.2654 16.8401 15.34C16.9801 16.58 18.7001 17.17 18.9501 16.92C18.9831 16.8883 19.0093 16.8502 19.0272 16.8081C19.0451 16.766 19.0544 16.7208 19.0544 16.675C19.0544 16.6293 19.0451 16.584 19.0272 16.5419C19.0093 16.4998 18.9831 16.4617 18.9501 16.43C18.5054 15.7105 17.8112 15.18 17.0001 14.94Z" fill="black"/>
<path fill-rule="evenodd" clip-rule="evenodd" d="M23.59 8.35001C22.98 8.35001 21.59 7.76001 20.54 8.82001C20.5065 8.84102 20.4775 8.86842 20.4546 8.90065C20.4317 8.93287 20.4153 8.96929 20.4065 9.00783C20.3977 9.04637 20.3965 9.08626 20.4031 9.12524C20.4097 9.16422 20.424 9.20152 20.445 9.23501C20.466 9.26849 20.4934 9.29751 20.5256 9.32041C20.5578 9.34331 20.5943 9.35963 20.6328 9.36846C20.6713 9.37728 20.7112 9.37842 20.7502 9.37182C20.7892 9.36523 20.8265 9.35102 20.86 9.33001C21.8289 9.40182 22.8026 9.28985 23.73 9.00001C23.8009 8.96805 23.8587 8.91274 23.8938 8.84329C23.9289 8.77385 23.9391 8.69447 23.9227 8.61842C23.9063 8.54236 23.8644 8.47422 23.8038 8.42537C23.7432 8.37653 23.6678 8.34992 23.59 8.35001Z" fill="black"/>
</g>
<defs>
<clipPath id="clip0_36_1153">
<rect width="24" height="24" fill="white"/>
</clipPath>
</defs>
</svg>
