<svg width="24" height="24" viewBox="0 0 24 24" fill="none" xmlns="http://www.w3.org/2000/svg">
<g clip-path="url(#clip0_36_1225)">
<path fill-rule="evenodd" clip-rule="evenodd" d="M23.13 4.50998C23.048 3.7363 22.8349 2.98221 22.5 2.27998C22.2734 1.83594 22.0161 1.40824 21.73 0.999978C21.6708 0.919759 21.5963 0.852137 21.5107 0.801064C21.4251 0.749992 21.3302 0.716494 21.2315 0.702528C21.1328 0.688562 21.0323 0.694409 20.9359 0.719726C20.8395 0.745043 20.7491 0.789324 20.67 0.849978C20.19 1.25998 19.8 1.66998 19.33 2.00998C19.0553 2.22117 18.7523 2.39284 18.43 2.51998C17.04 3.09998 14.9 3.51998 13.58 4.45998C13.0259 4.82433 12.6047 5.3583 12.3793 5.98201C12.154 6.60571 12.1367 7.28561 12.33 7.91998C12.3904 8.16283 12.4707 8.4003 12.57 8.62998L12.72 8.88998C9.94237 10.7088 7.27132 12.6854 4.72 14.81C3.49027 15.7686 2.42032 16.9162 1.55 18.21C1.26579 18.7301 1.06022 19.2896 0.940003 19.87C0.859843 20.2962 0.859843 20.7337 0.940003 21.16C1.03776 21.6587 1.24205 22.1304 1.5389 22.5429C1.83575 22.9554 2.21817 23.2989 2.66 23.55C3.11042 23.8139 3.61642 23.9686 4.13742 24.0016C4.65842 24.0345 5.17989 23.945 5.66 23.74C7.06074 22.8256 8.29232 21.6752 9.3 20.34C11.93 17.25 15 12.93 16.06 11.61C16.1246 11.5278 16.1554 11.4241 16.1461 11.3201C16.1368 11.216 16.0881 11.1194 16.01 11.05C15.9487 11.0152 15.8803 10.9947 15.81 10.99C15.59 10.7 15.39 10.4 15.15 10.12C15.0436 9.99041 14.9265 9.86999 14.8 9.75998C14.6775 9.64338 14.5435 9.53952 14.4 9.44998C14.0719 9.29497 13.7881 9.0598 13.5749 8.76618C13.3617 8.47255 13.2259 8.12994 13.18 7.76998C13.0644 7.29576 13.104 6.79696 13.293 6.34693C13.482 5.8969 13.8104 5.51941 14.23 5.26998C14.8765 4.88798 15.5781 4.60802 16.31 4.43998C16.326 4.59215 16.3666 4.74074 16.43 4.87998C16.6642 5.24684 17.0172 5.52218 17.43 5.65998C17.8015 5.75805 18.1443 5.94315 18.43 6.19998C18.6677 6.50499 18.7915 6.88343 18.78 7.26998C18.7829 7.87396 18.934 8.46801 19.22 8.99998C19.3978 9.21698 19.6193 9.39415 19.87 9.51998C19.4598 9.85855 19.0177 10.1566 18.55 10.41C17.9152 10.7607 17.205 10.9528 16.48 10.97C16.428 10.9659 16.3756 10.9723 16.3261 10.9888C16.2766 11.0054 16.2309 11.0316 16.1917 11.0661C16.1526 11.1007 16.1207 11.1427 16.0981 11.1897C16.0755 11.2367 16.0625 11.2878 16.06 11.34C16.0559 11.392 16.0623 11.4443 16.0789 11.4939C16.0954 11.5434 16.1217 11.5891 16.1562 11.6282C16.1907 11.6674 16.2327 11.6992 16.2797 11.7219C16.3268 11.7445 16.3779 11.7575 16.43 11.76C17.114 11.787 17.7958 11.6676 18.43 11.41C19.3823 11.058 20.2681 10.5475 21.05 9.89998C21.5171 9.50082 21.9157 9.02791 22.23 8.49998C22.5312 7.97546 22.7631 7.41412 22.92 6.82998C23.1311 6.07596 23.2023 5.28965 23.13 4.50998ZM14.23 11.06C14.49 11.23 14.75 11.37 15.01 11.52C13.69 13.12 10.81 16.82 8.32 19.52C7.40582 20.6926 6.30435 21.7062 5.06 22.52C4.77137 22.6378 4.4592 22.6864 4.14841 22.6621C3.83762 22.6378 3.53681 22.5412 3.27 22.38C2.99594 22.2269 2.75835 22.0162 2.57362 21.7624C2.38889 21.5087 2.26142 21.2178 2.2 20.91C2.1512 20.5761 2.17162 20.2357 2.26 19.91C2.36244 19.5333 2.50317 19.168 2.68 18.82C3.74195 17.2522 5.04463 15.8617 6.54 14.7C8.9 12.63 11.63 10.57 12.93 9.62998C13.0915 9.90549 13.2719 10.1695 13.47 10.42C13.6945 10.6682 13.95 10.8866 14.23 11.07V11.06ZM21.76 6.53998C21.6599 7.04831 21.4882 7.53987 21.25 7.99998C21.0618 8.33589 20.8298 8.64528 20.56 8.91998C20.3614 8.84134 20.1932 8.70116 20.08 8.51998C19.9494 8.07878 19.922 7.61345 20 7.15998C20.0178 6.46709 19.7751 5.79272 19.32 5.26998C18.933 4.94719 18.467 4.73321 17.97 4.64998C17.65 4.57998 17.32 4.64998 17.15 4.38998C17.0878 4.34952 17.0364 4.29463 17 4.22998C17.66 4.06998 18.32 3.91998 18.86 3.72998C19.2974 3.57671 19.7088 3.35752 20.08 3.07998C20.4277 2.82823 20.7615 2.55783 21.08 2.26998C21.19 2.52998 21.28 2.81998 21.29 2.83998C21.5728 3.40927 21.7619 4.02046 21.85 4.64998C21.924 5.28064 21.8936 5.9192 21.76 6.53998Z" fill="black"/>
<path fill-rule="evenodd" clip-rule="evenodd" d="M1.26964 4.49999C1.72964 5.34999 0.809644 3.49999 5.45964 12.06C5.5023 12.142 5.57567 12.2038 5.66372 12.2319C5.75178 12.26 5.84737 12.2521 5.92964 12.21C6.01155 12.1672 6.07384 12.0945 6.10363 12.007C6.13341 11.9195 6.12841 11.8239 6.08964 11.74L4.99964 9.22999C5.32149 9.14762 5.63335 9.03026 5.92964 8.87999C6.19861 8.73453 6.4531 8.56376 6.68964 8.36999C7.04964 8.07999 7.34964 7.75999 7.68964 7.46999C7.73495 7.44504 7.7749 7.41141 7.80721 7.37102C7.83952 7.33063 7.86355 7.28427 7.87795 7.23459C7.89234 7.18491 7.89681 7.13288 7.89109 7.08148C7.88538 7.03007 7.86959 6.98029 7.84464 6.93499C7.81969 6.88968 7.78606 6.84973 7.74567 6.81742C7.70528 6.78512 7.65892 6.76108 7.60925 6.74669C7.55957 6.73229 7.50754 6.72782 7.45613 6.73354C7.40473 6.73925 7.35495 6.75504 7.30964 6.77999C6.86174 6.91957 6.42402 7.08997 5.99964 7.28999C5.64149 7.44536 5.30528 7.64708 4.99964 7.88999C4.82964 8.02999 4.66964 8.17999 4.50964 8.32999L3.62964 6.32999L4.10964 6.14999C4.27964 6.06999 4.44964 5.97999 4.59964 5.88999C4.74964 5.79999 4.90964 5.67999 5.05964 5.56999C5.40964 5.28999 5.72964 4.99999 6.05964 4.70999C6.14982 4.65694 6.21523 4.57025 6.24148 4.46898C6.26774 4.36771 6.25269 4.26016 6.19964 4.16999C6.1466 4.07981 6.05991 4.0144 5.95864 3.98815C5.85737 3.96189 5.74982 3.97694 5.65964 4.02999C5.23964 4.17999 4.82964 4.30999 4.40964 4.48999C4.23626 4.55916 4.06901 4.64279 3.90964 4.73999C3.74387 4.83263 3.5866 4.93971 3.43964 5.05999C3.34138 5.14826 3.24791 5.24172 3.15964 5.33999C2.91964 4.85999 2.61964 4.33999 2.37964 3.86999C2.32219 3.75525 2.26882 3.63851 2.21964 3.51999C2.47454 3.4215 2.73499 3.33802 2.99964 3.26999C3.52964 2.99999 4.09964 2.69999 4.66964 2.42999C5.23964 2.15999 5.81964 1.90999 6.39964 1.66999C6.65023 1.60956 6.89462 1.52586 7.12964 1.41999V1.49999C7.35964 1.83999 7.56964 2.24999 7.73964 2.49999C8.26964 3.23999 8.73964 4.01999 9.24964 4.80999C9.75964 5.59999 10.1696 6.41999 10.5696 7.23999C10.5913 7.28797 10.6221 7.33122 10.6605 7.36725C10.6988 7.40328 10.7439 7.43139 10.7931 7.44997C10.8424 7.46855 10.8948 7.47723 10.9474 7.47552C11 7.47381 11.0517 7.46173 11.0996 7.43999C11.1948 7.39452 11.2681 7.31333 11.3037 7.21408C11.3393 7.11482 11.3342 7.00554 11.2896 6.90999C10.9296 6.04999 10.5096 5.18999 10.0696 4.34999C9.62964 3.50999 9.15964 2.67999 8.66964 1.87999C8.47964 1.58999 8.26964 1.06999 8.00964 0.689987C7.86599 0.45694 7.67934 0.253325 7.45964 0.0899869C7.35614 0.0423997 7.24357 0.0177612 7.12964 0.0177612C7.01572 0.0177612 6.90315 0.0423997 6.79964 0.0899869C6.59964 0.139987 5.99964 0.449987 5.92964 0.479987C5.31964 0.709987 4.70964 0.959987 4.11964 1.21999C3.52964 1.47999 2.92964 1.77999 2.35964 2.07999C1.92942 2.30502 1.521 2.56949 1.13964 2.86999C1.03584 2.96183 0.958757 3.07998 0.916516 3.21199C0.874275 3.34399 0.868446 3.48495 0.899644 3.61999C0.991066 3.92574 1.11511 4.22077 1.26964 4.49999Z" fill="black"/>
<path fill-rule="evenodd" clip-rule="evenodd" d="M17.6902 18C17.2702 17.2 16.7902 16.43 16.3602 15.64C16.1802 15.31 16.0002 14.97 15.8502 14.64C15.8062 14.5481 15.7289 14.4765 15.6339 14.4397C15.539 14.4029 15.4335 14.4037 15.3391 14.442C15.2448 14.4802 15.1685 14.5531 15.126 14.6456C15.0834 14.7381 15.0778 14.8434 15.1102 14.94L16.6602 18.5C16.7302 18.67 16.8702 18.95 16.9802 19.24C17.036 19.3638 17.0731 19.4952 17.0902 19.63C16.7649 19.7657 16.4308 19.8793 16.0902 19.97L13.0002 21.8C12.8602 21.88 12.6402 22.02 12.4102 22.13L12.1702 22.26C12.1409 22.1965 12.1207 22.1291 12.1102 22.06L11.6102 21.15C11.8673 21.1114 12.1212 21.0545 12.3702 20.98C12.4941 20.9281 12.6144 20.8679 12.7302 20.8C12.8453 20.7358 12.9527 20.6586 13.0502 20.57C13.3002 20.36 13.5002 20.14 13.7402 19.91C13.831 19.8575 13.8975 19.7716 13.9256 19.6706C13.9537 19.5696 13.9409 19.4617 13.8902 19.37C13.8378 19.2792 13.7519 19.2126 13.6509 19.1846C13.5499 19.1565 13.4419 19.1692 13.3502 19.22C13.0302 19.31 12.7302 19.37 12.4202 19.48C12.2924 19.5264 12.1687 19.5832 12.0502 19.65C11.9319 19.7139 11.8212 19.7911 11.7202 19.88C11.5406 20.0511 11.3735 20.2349 11.2202 20.43V20.35C11.1738 20.2691 11.0986 20.2087 11.0096 20.1809C10.9206 20.1531 10.8244 20.1599 10.7402 20.2C10.6582 20.2426 10.5964 20.316 10.5683 20.404C10.5402 20.4921 10.5481 20.5877 10.5902 20.67L11.3302 22.46C11.3863 22.6451 11.4565 22.8256 11.5402 23C11.5784 23.0653 11.6304 23.1216 11.6926 23.1647C11.7548 23.2079 11.8256 23.237 11.9002 23.25C12.1136 23.3033 12.3368 23.3033 12.5502 23.25C12.8947 23.1548 13.2295 23.0276 13.5502 22.87C14.0102 22.68 14.4702 22.47 14.9202 22.24C15.5802 21.91 16.2102 21.53 16.8502 21.17C17.2975 20.9608 17.7258 20.7132 18.1302 20.43C18.2824 20.3007 18.3878 20.125 18.4302 19.93C18.4476 19.6652 18.4101 19.3996 18.3202 19.15C18.14 18.751 17.9294 18.3666 17.6902 18Z" fill="black"/>
</g>
<defs>
<clipPath id="clip0_36_1225">
<rect width="24" height="24" fill="white"/>
</clipPath>
</defs>
</svg>
