<svg width="24" height="24" viewBox="0 0 24 24" fill="none" xmlns="http://www.w3.org/2000/svg">
<g clip-path="url(#clip0_36_1102)">
<path fill-rule="evenodd" clip-rule="evenodd" d="M21.5303 7.61001C21.577 6.48965 21.5536 5.36746 21.4603 4.25001C21.4003 3.87001 21.4603 3.25001 20.9903 2.92001C19.8803 2.31001 18.9203 2.69001 17.8103 2.28001C17.7658 1.78521 17.6373 1.30161 17.4303 0.85001C17.2759 0.701756 17.0922 0.587323 16.8911 0.514015C16.69 0.440707 16.4758 0.410135 16.2622 0.42425C16.0486 0.438364 15.8403 0.496856 15.6506 0.59599C15.4608 0.695125 15.2938 0.832726 15.1603 1.00001C14.9268 1.37447 14.7736 1.7933 14.7103 2.23001C13.7609 2.06356 12.7897 2.06356 11.8403 2.23001C11.7913 1.76927 11.6663 1.31984 11.4703 0.90001C11.3137 0.752655 11.1281 0.639497 10.9254 0.567731C10.7227 0.495964 10.5073 0.46716 10.2929 0.483148C10.0784 0.499137 9.86966 0.559569 9.67984 0.660603C9.49002 0.761636 9.3233 0.90106 9.19028 1.07001C8.99398 1.39626 8.85845 1.75541 8.79028 2.13001C8.03764 2.0356 7.27333 2.12128 6.56028 2.38001C6.51378 1.9264 6.39212 1.48368 6.20028 1.07001C6.04038 0.894162 5.83689 0.763644 5.61038 0.691652C5.38387 0.61966 5.14236 0.608745 4.91028 0.66001C4.00028 0.82001 3.63028 1.56001 3.47028 2.50001C3.37097 3.36658 3.31757 4.2378 3.31028 5.11001C3.33064 5.27172 3.39653 5.42431 3.50028 5.55001C3.86028 5.94001 7.00028 6.92001 6.65028 3.08001C7.31199 3.24697 8.00852 3.21214 8.65028 2.98001C8.65028 3.15001 8.55028 4.77001 8.57028 4.98001C8.67028 5.75001 9.40028 5.61001 9.78028 5.71001C11.4703 6.13001 12.0403 4.79001 11.9103 3.03001C12.7924 3.2834 13.7281 3.2834 14.6103 3.03001C14.4103 6.03001 14.6603 5.32001 15.7503 5.62001C17.4403 6.04001 18.0103 4.69001 17.8703 2.93001C18.9403 3.22001 19.8703 3.07001 20.6403 3.51001C20.7503 3.57001 20.7203 4.11001 20.7503 4.33001C20.8153 5.41904 20.8153 6.51098 20.7503 7.60001C20.7503 10.71 21.2603 14.21 20.2003 17.02C19.1403 19.83 18.8203 18.74 15.9103 19.1C13.3303 19.42 4.52028 20.1 2.04028 19.33C1.81028 19.26 1.31028 19.15 1.19028 18.95C0.71028 18.15 1.00028 16 1.00028 15C1.10028 6.07001 0.90028 4.44001 2.00028 3.48001C2.56028 3.00001 3.12028 3.00001 3.00028 2.63001C2.98804 2.59635 2.96923 2.56546 2.94494 2.53914C2.92065 2.51283 2.89136 2.4916 2.85879 2.47671C2.82621 2.46182 2.791 2.45356 2.75521 2.45241C2.71941 2.45126 2.68374 2.45724 2.65028 2.47001C1.14028 3.00001 0.73028 4.00001 0.55028 5.54001C0.42028 6.61001 0.38028 8.58001 0.16028 15C0.0702799 16.26 -0.24972 18.37 0.38028 19.47C1.01028 20.57 4.18028 20.72 5.50028 20.72C9.02557 20.7726 12.5504 20.5855 16.0503 20.16C17.0782 20.1409 18.1038 20.054 19.1203 19.9C20.2303 19.61 20.7203 18.45 21.1203 17.39C22.1903 14.31 21.5603 10.79 21.5303 7.61001ZM5.53028 4.55001C5.35028 4.93001 5.07028 4.92001 4.22028 4.83001C4.22028 4.67001 4.31028 4.43001 4.31028 4.35001C4.16272 3.42814 4.22424 2.4849 4.49028 1.59001C4.83028 0.93001 5.59028 1.36001 5.59028 1.36001C5.88737 2.40357 5.88043 3.51025 5.57028 4.55001H5.53028ZM10.8003 4.39001C10.6203 4.75001 10.3403 4.76001 9.49028 4.66001C9.49028 4.50001 9.58028 4.26001 9.58028 4.18001C9.44566 3.25515 9.52085 2.31186 9.80028 1.42001C10.0003 1.00001 10.8603 0.94001 11.0003 1.46001C11.0427 1.71479 11.0694 1.97195 11.0803 2.23001C11.1839 2.95873 11.1013 3.70181 10.8403 4.39001H10.8003ZM16.8003 4.39001C16.6103 4.76001 16.3303 4.76001 15.4803 4.67001C15.5803 2.83001 15.3903 2.15001 15.7603 1.42001C15.9803 0.99001 16.7603 0.92001 16.9303 1.42001C17.1358 2.38801 17.0945 3.39214 16.8103 4.34001L16.8003 4.39001Z" fill="black"/>
<path d="M22.6804 5.54002C22.6004 8.43002 22.6804 11.31 22.6804 14.2C22.6804 15.57 22.7704 16.96 22.7304 18.34C22.7954 18.9843 22.6059 19.6285 22.2023 20.1349C21.7986 20.6413 21.213 20.9697 20.5704 21.05C17.7988 21.5678 14.996 21.9019 12.1804 22.05C10.8204 22.15 9.45038 22.26 8.09038 22.28C6.73038 22.3 5.18038 21.98 3.89038 22.37C3.56038 22.47 3.42038 23.01 3.78038 23.17C5.18051 23.5657 6.64196 23.698 8.09038 23.56C9.71038 23.56 11.3004 23.56 12.9204 23.51C14.5404 23.46 16.0104 23.23 17.5504 23.01C19.0039 22.9028 20.4349 22.5897 21.8004 22.08C24.4204 20.85 24.0004 17.94 24.0004 15.51C23.9304 12.19 23.8904 8.86002 23.6804 5.51002C23.6638 5.39589 23.6066 5.29155 23.5194 5.2161C23.4322 5.14065 23.3207 5.09912 23.2054 5.09912C23.0901 5.09912 22.9786 5.14065 22.8914 5.2161C22.8041 5.29155 22.747 5.39589 22.7304 5.51002L22.6804 5.54002Z" fill="black"/>
</g>
<defs>
<clipPath id="clip0_36_1102">
<rect width="24" height="24" fill="white"/>
</clipPath>
</defs>
</svg>
