<svg width="24" height="24" viewBox="0 0 24 24" fill="none" xmlns="http://www.w3.org/2000/svg">
<g clip-path="url(#clip0_36_1087)">
<path fill-rule="evenodd" clip-rule="evenodd" d="M4.82971 5.18C4.82971 5.98 4.97971 6.76 5.02971 7.55C5.02422 7.60546 5.0301 7.66146 5.04698 7.71457C5.06385 7.76768 5.09139 7.8168 5.12789 7.85892C5.16439 7.90103 5.20909 7.93526 5.25927 7.95952C5.30944 7.98378 5.36404 7.99755 5.41971 8C5.5261 8.00027 5.62862 7.96016 5.70658 7.88777C5.78453 7.81538 5.83211 7.71611 5.83971 7.61C5.99971 6.81 6.05971 6 6.11971 5.26V4.8H6.49971H9.00971C9.06306 4.80549 9.11698 4.8002 9.16824 4.78444C9.21951 4.76868 9.26708 4.74277 9.30813 4.70825C9.34918 4.67373 9.38286 4.63131 9.40719 4.58351C9.43151 4.53571 9.44597 4.4835 9.44971 4.43C9.45845 4.32851 9.42813 4.22751 9.36495 4.1476C9.30177 4.06769 9.21048 4.0149 9.10971 4C8.28971 3.83 7.44971 3.67 6.58971 3.56H6.14971V3.34C6.08971 2.5 5.99971 1.74 5.89971 0.999998C5.90673 0.950347 5.9033 0.899777 5.88963 0.851529C5.87597 0.803282 5.85238 0.758421 5.82037 0.719821C5.78836 0.681222 5.74864 0.649735 5.70375 0.627379C5.65887 0.605023 5.60981 0.592291 5.55971 0.589998C5.46589 0.587248 5.3747 0.621254 5.30558 0.684766C5.23646 0.748278 5.19489 0.836275 5.18971 0.929998C5.04971 1.77 4.88971 2.6 4.82971 3.44H4.38971C3.53382 3.51371 2.68256 3.63389 1.83971 3.8C1.7881 3.79131 1.73522 3.79397 1.68475 3.80781C1.63427 3.82164 1.58742 3.84632 1.54746 3.88011C1.5075 3.91391 1.47539 3.95601 1.45336 4.00348C1.43133 4.05096 1.41992 4.10266 1.41992 4.155C1.41992 4.20733 1.43133 4.25904 1.45336 4.30652C1.47539 4.35399 1.5075 4.39609 1.54746 4.42988C1.58742 4.46368 1.63427 4.48835 1.68475 4.50219C1.73522 4.51603 1.7881 4.51869 1.83971 4.51C2.65971 4.56 3.47971 4.67 4.32971 4.74H4.77971C4.82971 4.91 4.81971 5.05 4.82971 5.18Z" fill="black"/>
<path fill-rule="evenodd" clip-rule="evenodd" d="M22.3593 4.75994C22.2921 4.69518 22.2025 4.65898 22.1093 4.65898C22.016 4.65898 21.9264 4.69518 21.8593 4.75994C21.0917 5.47247 20.3608 6.22343 19.6693 7.00994C19.2693 7.48994 18.9093 8.00994 18.5593 8.50994C18.1093 9.17994 17.6993 9.85994 17.2693 10.5099C17.2112 10.4588 17.1366 10.4303 17.0593 10.4299C16.5393 10.1199 16.0593 9.76994 15.4593 9.42994C14.8593 9.08994 14.4593 8.79994 13.9993 8.51994C13.3193 8.12994 12.6593 7.81994 11.9993 7.51994C12.3293 6.82994 12.6593 6.13994 12.9993 5.43994C13.1593 5.06994 13.3093 4.69994 13.4493 4.31994C13.5893 3.93994 13.7193 3.56994 13.8393 3.17994C14.1093 2.27994 14.3193 1.37994 14.5893 0.469943C14.607 0.426675 14.6158 0.380295 14.6153 0.333542C14.6148 0.286788 14.605 0.240609 14.5863 0.19773C14.5677 0.154851 14.5407 0.116143 14.5068 0.0838894C14.473 0.0516363 14.433 0.0264925 14.3893 0.00994276C14.3466 -0.00804859 14.3008 -0.0174019 14.2545 -0.0175757C14.2082 -0.0177494 14.1624 -0.00874024 14.1196 0.00893038C14.0768 0.026601 14.038 0.052582 14.0053 0.0853695C13.9726 0.118157 13.9468 0.157099 13.9293 0.199943C13.4693 1.03994 13.0093 1.85994 12.6193 2.72994C12.4487 3.09468 12.2985 3.46858 12.1693 3.84994C12.0293 4.22994 11.9093 4.60994 11.7893 4.99994C10.7893 8.38994 11.0093 7.28994 11.0693 7.99994C10.3295 8.23425 9.60761 8.52166 8.90925 8.85994C7.78134 9.34138 6.71673 9.95933 5.73925 10.6999C5.28941 11.1773 4.98726 11.7747 4.86925 12.4199C4.7315 13.2423 4.68456 14.0773 4.72925 14.9099C4.72925 16.0799 4.87925 17.2199 5.03925 18.3599C5.26925 20.0599 5.61925 21.7299 6.03925 23.4199C6.05873 23.5229 6.11783 23.6141 6.20385 23.674C6.28988 23.7338 6.39594 23.7575 6.49925 23.7399C6.53357 23.839 6.60451 23.9211 6.6975 23.9695C6.79049 24.0178 6.89847 24.0287 6.99925 23.9999C8.64925 23.4699 10.2693 22.9299 11.8493 22.2899C12.9193 21.8599 13.9593 21.3699 14.9993 20.8299C15.7149 20.4414 16.3856 19.9752 16.9993 19.4399C17.5018 19.0179 17.8702 18.4584 18.0593 17.8299C18.208 16.6245 18.208 15.4054 18.0593 14.1999C17.9922 13.2993 17.8483 12.4061 17.6293 11.5299C17.696 11.4953 17.749 11.4388 17.7793 11.3699C17.7793 11.3699 17.7793 11.2799 17.7793 11.2299C18.3493 10.6299 18.9193 10.0399 19.4593 9.39994C19.7193 9.10994 19.9593 8.80994 20.1993 8.49994C20.4393 8.18994 20.6593 7.87994 20.8793 7.55994C21.3793 6.79994 21.8193 6.01994 22.3293 5.25994C22.3658 5.23023 22.3958 5.19325 22.4172 5.15135C22.4387 5.10945 22.4513 5.06354 22.4541 5.01653C22.4569 4.96953 22.45 4.92245 22.4336 4.87828C22.4173 4.83411 22.392 4.79381 22.3593 4.75994ZM16.8293 17.4899C16.6902 17.8609 16.4515 18.1862 16.1393 18.4299C15.5647 18.8913 14.9448 19.2934 14.2893 19.6299C13.0793 20.3499 11.8393 20.9699 10.5793 21.5599C7.90925 22.8199 7.80925 23.0599 6.82925 22.7699C6.59925 22.6999 6.57925 21.5999 6.52925 21.2999C6.43925 20.7199 6.37925 20.1499 6.37925 20.1499C6.37925 19.7899 6.28925 19.4299 6.25925 19.0699C6.12379 17.6809 6.0637 16.2855 6.07925 14.8899C6.04195 14.1578 6.08217 13.4237 6.19925 12.6999C6.25335 12.3035 6.41601 11.9297 6.66925 11.6199C7.65765 10.7525 8.74922 10.0103 9.91925 9.40994C10.5537 9.05867 11.2243 8.77704 11.9193 8.56994C12.2793 8.87994 12.6193 9.18994 13.0093 9.48994C13.3993 9.78994 13.6193 9.90994 13.9293 10.0999C14.2393 10.2899 14.5793 10.4699 14.9293 10.6399C15.5791 10.9439 16.2471 11.2078 16.9293 11.4299C17.0734 12.1308 17.1471 12.8444 17.1493 13.5599C17.2132 14.8783 17.1056 16.1993 16.8293 17.4899Z" fill="black"/>
<path fill-rule="evenodd" clip-rule="evenodd" d="M12.5694 12.06C12.3179 11.9883 12.06 11.9414 11.7994 11.92C11.54 11.895 11.2788 11.895 11.0194 11.92C10.8405 11.9345 10.6631 11.9646 10.4894 12.01C10.3077 12.0583 10.1304 12.1219 9.9594 12.2C9.51768 12.357 9.1541 12.6792 8.9452 13.0989C8.7363 13.5186 8.69837 14.0029 8.8394 14.45C9.10735 15.1534 9.57264 15.7645 10.1794 16.21C9.6694 16.79 9.1794 17.36 8.6494 18.02C8.3894 18.37 8.1494 18.73 7.9194 19.1C7.6894 19.47 7.4894 19.86 7.2994 20.25C7.2394 20.37 7.1994 20.49 7.1494 20.61C6.8994 22.84 7.5894 21.95 8.1494 21.36C8.3194 21.08 8.5094 20.81 8.6794 20.53C8.9794 20.06 9.2794 19.53 9.5694 19.1C10.0594 18.26 10.4894 17.44 10.9294 16.66C10.9994 16.66 11.0594 16.73 11.1194 16.75C11.2057 16.7873 11.3032 16.7894 11.3911 16.7558C11.4789 16.7221 11.5501 16.6554 11.5894 16.57C11.8294 16.03 10.5094 15.7 10.0394 14.57C9.98044 14.4647 9.94671 14.3472 9.94084 14.2267C9.93498 14.1062 9.95714 13.986 10.0056 13.8755C10.0541 13.765 10.1275 13.6673 10.2201 13.59C10.3127 13.5127 10.422 13.4579 10.5394 13.43L11.1694 13.29C11.3524 13.2751 11.5364 13.2751 11.7194 13.29C11.8949 13.3054 12.0689 13.3355 12.2394 13.38C12.5825 13.472 12.8846 13.677 13.0969 13.9619C13.3092 14.2468 13.4193 14.5948 13.4094 14.95C13.421 15.1346 13.3919 15.3196 13.324 15.4917C13.256 15.6638 13.1511 15.8189 13.0165 15.9458C12.8819 16.0728 12.721 16.1685 12.5452 16.2263C12.3694 16.284 12.1831 16.3024 11.9994 16.28C11.9 16.2844 11.8056 16.3248 11.7338 16.3937C11.662 16.4625 11.6177 16.5551 11.6091 16.6543C11.6005 16.7534 11.6283 16.8522 11.6872 16.9324C11.7462 17.0126 11.8322 17.0686 11.9294 17.09C12.2386 17.1465 12.5563 17.1352 12.8607 17.0569C13.165 16.9786 13.4487 16.8351 13.6922 16.6363C13.9356 16.4376 14.133 16.1883 14.2707 15.9058C14.4083 15.6233 14.4829 15.3142 14.4894 15C14.5471 14.3653 14.389 13.7298 14.0405 13.1962C13.6921 12.6626 13.1737 12.2623 12.5694 12.06Z" fill="black"/>
</g>
<defs>
<clipPath id="clip0_36_1087">
<rect width="24" height="24" fill="white"/>
</clipPath>
</defs>
</svg>
