<svg width="24" height="24" viewBox="0 0 24 24" fill="none" xmlns="http://www.w3.org/2000/svg">
<g clip-path="url(#clip0_36_1234)">
<path fill-rule="evenodd" clip-rule="evenodd" d="M14.7502 5.09998C15.3602 3.76998 14.6602 2.61998 12.7502 3.17998C12.3002 3.29998 11.9802 3.91998 11.9202 4.56998C11.6802 6.56998 14.0002 6.86998 14.7502 5.09998ZM14.0002 4.39998C13.8502 4.78998 13.1002 5.48998 12.9102 4.91998C12.3902 3.33998 14.4102 3.38998 14.0002 4.39998Z" fill="white"/>
<path fill-rule="evenodd" clip-rule="evenodd" d="M21.6201 16.42C21.2302 15.83 20.9101 16.42 20.9101 16.42C20.9101 16.63 20.9101 16.94 21.0001 17.49C21.1201 18.9 21.8001 21.09 21.3801 22.05C21.2324 22.2961 21.0172 22.4947 20.7599 22.6222C20.5027 22.7496 20.2143 22.8006 19.9289 22.769C19.6436 22.7374 19.3733 22.6246 19.1502 22.444C18.9271 22.2634 18.7605 22.0225 18.6701 21.75C18.4635 21.157 18.1594 20.6028 17.7701 20.11C16.5601 19.27 16.2201 23.42 15.1401 22.89C14.0601 22.36 14.4201 19.2 13.9801 18.89C13.8994 18.8378 13.8078 18.8047 13.7123 18.7933C13.6168 18.782 13.52 18.7926 13.4292 18.8245C13.3385 18.8564 13.2563 18.9086 13.1888 18.9771C13.1214 19.0457 13.0705 19.1288 13.0401 19.22C12.7301 19.92 12.7301 21.46 12.2201 22.33C11.7101 23.2 11.2201 22.7 10.3901 22.82C9.91686 22.8262 9.44622 22.7483 9.00015 22.59L8.80015 22.09C8.47015 21.04 8.36015 17.66 7.63015 17.32C6.90015 16.98 6.89015 17.76 6.10015 19.59C5.38015 21.25 5.44015 22.7 3.65015 22.3C3.35015 22.05 2.17015 22.06 2.50015 20.76C2.83015 19.46 3.50015 18.59 3.38015 16.59C3.38015 16.27 2.72015 15.99 2.71015 16.59C2.70015 17.19 1.82015 19.09 1.71015 21.09C1.60015 22.88 4.43015 23.82 5.65015 22.63C6.18015 22.11 6.28015 21.54 7.28015 19.29C7.56015 20.68 7.54015 22.29 8.04015 23.12C8.54015 23.95 10.4201 23.87 11.6801 23.9C12.0024 23.8796 12.3141 23.777 12.5854 23.6019C12.8568 23.4269 13.0787 23.1852 13.2301 22.9C13.6801 22.11 13.4001 21.97 13.6701 22.65C14.2401 24.02 15.4601 24.33 16.2401 23.7C16.8055 23.0299 17.2336 22.2552 17.5001 21.42L17.8801 22.19C18.0112 22.5118 18.2116 22.8007 18.4672 23.036C18.7228 23.2714 19.0272 23.4474 19.3587 23.5515C19.6901 23.6557 20.0405 23.6853 20.3848 23.6384C20.729 23.5914 21.0587 23.4691 21.3501 23.28C22.4801 22.63 22.4501 21.45 22.2201 20.06C21.9901 18.67 22.0001 17 21.6201 16.42Z" fill="white"/>
<path fill-rule="evenodd" clip-rule="evenodd" d="M3.32024 12.86C3.66024 10.15 7.32024 9.03998 9.14024 10.28C11.1402 11.71 9.75024 8.68999 9.94024 5.50998C10.1302 2.32998 13.0002 0.349985 14.7702 1.44998C15.7202 1.99998 16.0002 3.99998 16.0002 5.15998C16.0502 8.48998 14.4502 9.51998 14.9002 10.37C15.1102 10.77 15.4802 10.71 15.9002 10.53H16.1002C16.4102 10.6 19.3702 10.33 20.7102 12.53C21.2202 14.72 21.1602 14.3 21.1002 14.66C20.8702 14.56 17.5102 14.93 17.4002 14.94C14.3083 15.0952 11.21 15.0752 8.12024 14.88C7.12024 14.82 5.95024 14.54 4.93024 14.54C4.85132 14.5537 4.77976 14.5948 4.72819 14.6561C4.67661 14.7174 4.64833 14.7949 4.64833 14.875C4.64833 14.9551 4.67661 15.0326 4.72819 15.0939C4.77976 15.1552 4.85132 15.1963 4.93024 15.21C9.07027 15.8219 13.2597 16.0328 17.4402 15.84C18.5802 15.75 21.7002 16.01 22.0202 15.53C22.3402 15.05 22.0202 13.96 21.9702 13.44C21.9443 12.7827 21.7372 12.1454 21.372 11.5984C21.0067 11.0513 20.4974 10.6159 19.9002 10.34C18.7732 9.73431 17.5096 9.42788 16.2302 9.44998C16.8689 8.1293 17.1875 6.67674 17.1602 5.20998C17.0802 0.609985 14.4602 -0.870016 12.0002 0.479985C11.1225 0.996689 10.3881 1.72495 9.86413 2.59832C9.3401 3.47169 9.04311 4.46237 9.00024 5.47998C8.99776 6.82198 9.12164 8.16122 9.37024 9.47998C7.00024 8.20998 3.00024 9.64998 2.70024 12.79V13.9C2.68024 14 3.23024 17.61 3.32024 12.86Z" fill="white"/>
</g>
<defs>
<clipPath id="clip0_36_1234">
<rect width="24" height="24" fill="white"/>
</clipPath>
</defs>
</svg>
