<svg width="24" height="24" viewBox="0 0 24 24" fill="none" xmlns="http://www.w3.org/2000/svg">
<g clip-path="url(#clip0_36_575)">
<path fill-rule="evenodd" clip-rule="evenodd" d="M17.6298 9.37002L17.5798 9.84002L17.4298 10.64L17.2498 12C17.2287 12.0875 17.2432 12.1798 17.2901 12.2567C17.3369 12.3336 17.4124 12.3887 17.4998 12.41C17.5872 12.4285 17.6782 12.4129 17.7545 12.3664C17.8307 12.32 17.8863 12.2461 17.9098 12.16L18.2998 10.86L18.5898 10.07L18.7298 9.55002C18.7889 9.35261 18.807 9.1452 18.7829 8.94054C18.7588 8.73589 18.6931 8.53833 18.5898 8.36002C18.4274 8.16099 18.1947 8.03209 17.9398 8.00002C17.6271 7.97265 17.3126 7.97265 16.9998 8.00002L16.1198 8.08002L14.7698 8.24002C14.691 8.23986 14.615 8.26976 14.5574 8.32364C14.4998 8.37752 14.4649 8.45132 14.4598 8.53002C14.4619 8.60821 14.4926 8.68291 14.546 8.74003C14.5995 8.79715 14.672 8.83272 14.7498 8.84002L16.1398 8.96002L16.7998 9.03002L13.1298 11.47C12.6698 11.79 12.1298 12.18 11.5398 12.63C10.5398 13.45 9.41982 14.4 8.53982 15.14V14.86L8.74982 12.77C8.76497 12.692 8.74954 12.6111 8.70673 12.5441C8.66393 12.4771 8.59701 12.4291 8.51982 12.41C8.44301 12.3952 8.36343 12.4109 8.29805 12.4538C8.23266 12.4968 8.18665 12.5636 8.16982 12.64C7.99982 13.14 7.81982 13.64 7.66982 14.07C7.59982 14.28 7.53982 14.5 7.48982 14.72C7.38946 15.1239 7.38946 15.5462 7.48982 15.95C7.63982 16.32 7.96982 16.63 8.77982 16.7L11.2298 16.64C11.2787 16.6485 11.3288 16.6462 11.3766 16.6333C11.4245 16.6203 11.4689 16.5971 11.5068 16.5652C11.5448 16.5333 11.5752 16.4934 11.5962 16.4485C11.6171 16.4036 11.6279 16.3546 11.6279 16.305C11.6279 16.2555 11.6171 16.2065 11.5962 16.1616C11.5752 16.1166 11.5448 16.0768 11.5068 16.0449C11.4689 16.013 11.4245 15.9897 11.3766 15.9768C11.3288 15.9639 11.2787 15.9616 11.2298 15.97L8.99982 15.6C9.79982 15.09 10.7498 14.48 11.6498 13.86C12.5498 13.24 13.1698 12.77 13.7698 12.37C13.9798 12.22 14.2998 11.99 14.6698 11.7C15.5898 10.98 16.8098 9.97002 17.6098 9.33002L17.6298 9.37002Z" fill="white"/>
<path fill-rule="evenodd" clip-rule="evenodd" d="M12.3898 17.8201C12.3861 17.781 12.3746 17.743 12.3558 17.7085C12.337 17.674 12.3114 17.6437 12.2805 17.6194C12.2497 17.595 12.2142 17.5773 12.1763 17.5671C12.1383 17.5569 12.0987 17.5545 12.0598 17.5601C11.9819 17.5701 11.911 17.6103 11.8624 17.672C11.8138 17.7337 11.7913 17.812 11.7998 17.8901C11.8598 18.4201 11.9198 18.8101 11.9598 19.3201C11.9998 19.8301 12.0198 20.1401 12.0198 20.7401C12.0285 20.9061 11.9987 21.0719 11.9328 21.2246C11.8669 21.3772 11.7666 21.5126 11.6398 21.6201C11.1373 21.9296 10.5682 22.1147 9.9798 22.1601L5.77981 22.7501C5.36981 22.7501 4.64981 22.9301 4.00981 22.9701C3.72553 23.0273 3.4309 23.003 3.15981 22.9001C2.91861 22.6524 2.75522 22.3396 2.68981 22.0001C2.50721 21.3462 2.38668 20.6766 2.3298 20.0001L1.1798 10.0001C1.13486 9.74249 1.11145 9.48159 1.1098 9.2201C1.10254 9.03514 1.15515 8.85277 1.2598 8.7001C1.4357 8.52422 1.64706 8.38785 1.8798 8.3001L2.3298 9.3801C2.50694 9.66198 2.71858 9.92065 2.95981 10.1501C3.09856 10.288 3.2658 10.3938 3.44981 10.4601C3.95084 10.5281 4.45877 10.5281 4.95981 10.4601C5.66669 10.4097 6.36681 10.2891 7.04981 10.1001C7.37981 9.9701 7.8398 9.8201 8.1898 9.6401C8.39459 9.55094 8.58368 9.42939 8.7498 9.2801C8.91778 9.09525 9.03794 8.87209 9.0998 8.6301C9.2098 8.2401 9.2598 7.7401 9.3198 7.4101V6.9901C9.37961 6.97717 9.4418 6.98063 9.4998 7.0001C9.8465 7.24629 10.1057 7.59658 10.2398 8.0001C10.492 8.64241 10.6601 9.31466 10.7398 10.0001C10.7598 10.0805 10.8084 10.1509 10.8766 10.198C10.9448 10.2451 11.0278 10.2657 11.1101 10.2559C11.1924 10.246 11.2683 10.2065 11.3235 10.1447C11.3787 10.0828 11.4094 10.003 11.4098 9.9201C11.3449 9.15106 11.1767 8.39427 10.9098 7.6701C10.7261 7.12649 10.3763 6.65428 9.9098 6.3201C9.53216 6.14466 9.11382 6.07551 8.6998 6.1201C7.88365 6.16156 7.07154 6.26182 6.2698 6.4201L3.5298 6.8301C2.90444 6.90568 2.2881 7.04302 1.68981 7.2401C1.23115 7.39228 0.81604 7.65301 0.479805 8.0001C0.266188 8.25649 0.130808 8.56891 0.0898049 8.9001C0.0390754 9.29849 0.0390754 9.70171 0.0898049 10.1001L1.1798 20.1001C1.26797 20.9632 1.45934 21.8126 1.7498 22.6301C1.90106 23.0655 2.1755 23.4477 2.5398 23.7301C2.9112 23.9378 3.33546 24.0317 3.7598 24.0001C4.48139 23.9343 5.19904 23.8309 5.9098 23.6901L10.1198 22.9401C10.841 22.8572 11.5292 22.5922 12.1198 22.1701C12.3257 21.9944 12.4866 21.772 12.5892 21.5216C12.6919 21.2711 12.7332 20.9998 12.7098 20.7301C12.7098 20.1001 12.6498 19.6501 12.6098 19.2601C12.5698 18.8701 12.4598 18.3501 12.3898 17.8201ZM3.65981 7.8201L6.4298 7.3301C7.08985 7.17833 7.75745 7.0615 8.4298 6.9801H8.7098L8.6398 7.2901C8.5598 7.5501 8.4798 7.9401 8.3598 8.2901C8.32144 8.42975 8.2532 8.55941 8.1598 8.6701C8.01401 8.75756 7.85542 8.82166 7.68981 8.8601C7.37981 8.9601 7.00981 9.0501 6.68981 9.1201C6.28381 9.21429 5.87328 9.28772 5.45981 9.3401L4.3298 9.4001C4.11575 9.4422 3.89795 9.46231 3.67981 9.4601C3.56818 9.41732 3.46619 9.35273 3.37981 9.2701C3.23914 9.17734 3.11136 9.06638 2.9998 8.9401L2.4898 8.0001C2.87407 7.8967 3.26499 7.81986 3.65981 7.7701V7.8201Z" fill="white"/>
<path fill-rule="evenodd" clip-rule="evenodd" d="M23.9398 3C23.9441 2.47855 23.7792 1.96975 23.4698 1.55C23.1944 1.26412 22.85 1.05404 22.4698 0.939999C21.7485 0.738362 21.0131 0.59128 20.2698 0.499999L17.8498 0.139999C17.2973 0.02659 16.7333 -0.0204097 16.1698 -9.32254e-07C15.7394 0.00200581 15.3165 0.112037 14.9398 0.319999C14.6864 0.479009 14.4849 0.708344 14.3598 0.979999C14.2289 1.30167 14.135 1.63715 14.0798 1.98L12.9998 8.36C12.9912 8.39874 12.9904 8.43878 12.9973 8.47784C13.0043 8.5169 13.0188 8.5542 13.0402 8.58763C13.0833 8.65515 13.1515 8.70276 13.2298 8.72C13.308 8.73724 13.3899 8.72269 13.4574 8.67956C13.4908 8.6582 13.5197 8.63047 13.5424 8.59794C13.5651 8.56542 13.5812 8.52874 13.5898 8.49L14.9598 2.17C14.9976 1.93698 15.0614 1.70891 15.1498 1.49C15.2016 1.33731 15.3039 1.20682 15.4398 1.12C15.6156 1.04011 15.8066 0.999175 15.9998 0.999999C15.9286 1.38617 15.8885 1.77742 15.8798 2.17C15.8851 2.46036 15.9605 2.74513 16.0998 3C16.2051 3.15323 16.3413 3.28268 16.4998 3.38C16.7704 3.54277 17.059 3.67364 17.3598 3.77C18.0815 4.00087 18.8257 4.15505 19.5798 4.23C20.1559 4.31186 20.7433 4.25003 21.2898 4.05C21.5961 3.81631 21.84 3.51059 21.9998 3.16C22.1683 2.81983 22.3055 2.46503 22.4098 2.1C22.4825 2.13237 22.5473 2.18013 22.5998 2.24C22.7844 2.57871 22.8512 2.96917 22.7898 3.35C22.7447 4.09491 22.6343 4.83442 22.4598 5.56C22.3198 6.25 22.1998 6.91 22.0798 7.56C21.9198 8.56 21.7798 9.5 21.5998 10.56C21.4798 11.3 21.3598 12.07 21.2098 12.83C21.0998 13.33 20.9898 13.83 20.8498 14.29C20.8112 14.4514 20.7263 14.598 20.6055 14.7117C20.4847 14.8255 20.3332 14.9013 20.1698 14.93C19.7397 15.0049 19.2999 15.0049 18.8698 14.93C18.3798 14.87 17.7398 14.77 17.0598 14.65C16.3798 14.53 15.8398 14.43 15.2798 14.29C15.2371 14.278 15.1924 14.2747 15.1484 14.2804C15.1044 14.286 15.062 14.3005 15.0238 14.3229C14.9855 14.3453 14.9521 14.3752 14.9257 14.4108C14.8992 14.4464 14.8802 14.4869 14.8698 14.53C14.8578 14.5727 14.8545 14.6174 14.8601 14.6613C14.8658 14.7053 14.8802 14.7477 14.9027 14.786C14.9251 14.8243 14.9549 14.8576 14.9905 14.8841C15.0261 14.9105 15.0667 14.9296 15.1098 14.94C15.5598 15.07 16.1098 15.19 16.5598 15.3C17.3698 15.47 18.1798 15.61 18.7498 15.71C19.3837 15.8651 20.0458 15.8651 20.6798 15.71C20.9201 15.6163 21.1354 15.4683 21.3089 15.2774C21.4824 15.0866 21.6093 14.8581 21.6798 14.61C21.8398 14.11 21.9798 13.61 22.1098 13.08C22.2898 12.31 22.4398 11.54 22.5898 10.79L23.5898 5.86C23.815 4.92311 23.9324 3.96355 23.9398 3ZM21.3998 2.56C21.2657 2.81998 21.07 3.04316 20.8298 3.21C20.7568 3.22013 20.6827 3.22013 20.6098 3.21C20.3047 3.20051 20.0007 3.17044 19.6998 3.12C19.0243 3.04001 18.3558 2.90965 17.6998 2.73C17.5298 2.73 17.3398 2.65 17.1498 2.59C17.0395 2.57579 16.9355 2.53073 16.8498 2.46C16.7462 2.29093 16.6876 2.09813 16.6798 1.9C16.6603 1.59698 16.6603 1.29302 16.6798 0.989999C17.0163 1.01511 17.3506 1.06525 17.6798 1.14L20.1398 1.59C20.5798 1.66 21.2098 1.74 21.7798 1.88C21.6498 2.1 21.5298 2.33 21.3998 2.56Z" fill="white"/>
</g>
<defs>
<clipPath id="clip0_36_575">
<rect width="24" height="24" fill="white"/>
</clipPath>
</defs>
</svg>
