<svg width="24" height="24" viewBox="0 0 24 24" fill="none" xmlns="http://www.w3.org/2000/svg">
<g clip-path="url(#clip0_36_1065)">
<path fill-rule="evenodd" clip-rule="evenodd" d="M7.09997 2.62998C7.07511 2.17275 7.09184 1.71419 7.14997 1.25998C7.19568 1.19981 7.21784 1.12502 7.21229 1.04966C7.20673 0.974295 7.17384 0.903559 7.11979 0.850743C7.06575 0.797928 6.99428 0.766671 6.91881 0.762848C6.84334 0.759026 6.76907 0.7829 6.70997 0.829984C6.37997 1.12998 6.37997 2.15998 6.29997 2.51998C5.5869 5.61223 5.54938 8.82192 6.18997 11.93C6.20058 12.0202 6.24657 12.1024 6.31784 12.1587C6.3891 12.2149 6.47979 12.2406 6.56997 12.23C6.66014 12.2194 6.74241 12.1734 6.79867 12.1021C6.85493 12.0309 6.88058 11.9402 6.86997 11.85C6.75872 8.77484 6.83553 5.69576 7.09997 2.62998Z" fill="white"/>
<path fill-rule="evenodd" clip-rule="evenodd" d="M21.14 3.66996C16.7149 3.37303 12.275 3.37303 7.84996 3.66996C7.46996 3.66996 7.29996 4.26996 8.01996 4.40996C9.45996 4.40996 11.02 4.61996 14.02 4.62996C17.02 4.63996 19.13 4.44996 21.2 4.38996C21.2954 4.38201 21.3838 4.33645 21.4457 4.26331C21.5076 4.19017 21.5379 4.09544 21.53 3.99996C21.522 3.90449 21.4764 3.81608 21.4033 3.75419C21.3302 3.69231 21.2354 3.66201 21.14 3.66996Z" fill="white"/>
<path fill-rule="evenodd" clip-rule="evenodd" d="M23.7601 4.14003C23.6601 3.21003 23.7601 1.46003 23.0201 0.910025C21.5101 -0.249975 18.4501 0.0900251 16.3501 2.50628e-05C13.7101 -0.0699749 11.0001 0.170025 8.4401 0.270025C8.34992 0.270025 8.26344 0.305846 8.19968 0.369609C8.13592 0.433371 8.1001 0.519851 8.1001 0.610025C8.1001 0.700199 8.13592 0.786679 8.19968 0.850441C8.26344 0.914204 8.34992 0.950025 8.4401 0.950025C11.0301 0.950025 13.6601 0.790025 16.2801 0.950025C18.1801 1.07002 21.2001 0.950025 22.2801 1.79002C22.5301 1.99003 22.8201 7.59002 22.8301 8.15002C22.8382 9.72759 22.7144 11.3031 22.4601 12.86C21.2501 13.57 16.3001 13.98 14.8501 14.07C14.7787 14.083 14.7141 14.1207 14.6675 14.1764C14.621 14.2321 14.5955 14.3024 14.5955 14.375C14.5955 14.4476 14.621 14.5179 14.6675 14.5737C14.7141 14.6294 14.7787 14.667 14.8501 14.68C16.7101 14.68 20.9801 14.42 22.5901 13.83C23.1301 13.63 23.3601 13.39 23.5201 12.54C24.0304 9.76891 24.1114 6.93576 23.7601 4.14003Z" fill="white"/>
<path fill-rule="evenodd" clip-rule="evenodd" d="M9.37032 2.58006C9.43916 2.45608 9.46187 2.31173 9.43441 2.17261C9.40695 2.03348 9.3311 1.90858 9.22032 1.82006C8.65032 1.52006 7.95032 2.10006 8.45032 2.62006C8.5112 2.68194 8.5844 2.73034 8.66517 2.76214C8.74594 2.79394 8.83249 2.80843 8.91922 2.80465C9.00594 2.80088 9.09091 2.77894 9.16862 2.74025C9.24633 2.70157 9.31504 2.64699 9.37032 2.58006Z" fill="white"/>
<path fill-rule="evenodd" clip-rule="evenodd" d="M11.3301 2.38005C11.3978 2.25497 11.4189 2.10988 11.3896 1.97067C11.3603 1.83147 11.2825 1.7072 11.1701 1.62005C10.6001 1.32005 9.90007 1.90005 10.4101 2.41005C10.4703 2.47253 10.5429 2.52167 10.6233 2.55431C10.7037 2.58695 10.79 2.60235 10.8767 2.59952C10.9634 2.5967 11.0486 2.5757 11.1267 2.5379C11.2048 2.50009 11.2741 2.44632 11.3301 2.38005Z" fill="white"/>
<path fill-rule="evenodd" clip-rule="evenodd" d="M13.4602 2.38005C13.5311 2.25659 13.555 2.11166 13.5274 1.97199C13.4998 1.83231 13.4227 1.70732 13.3102 1.62005C12.7402 1.32005 12.0402 1.90005 12.5502 2.41005C12.6095 2.47229 12.6813 2.5213 12.7609 2.55385C12.8404 2.5864 12.926 2.60176 13.0119 2.59893C13.0979 2.59609 13.1822 2.57513 13.2595 2.53741C13.3367 2.49969 13.4051 2.44607 13.4602 2.38005Z" fill="white"/>
<path fill-rule="evenodd" clip-rule="evenodd" d="M18.7602 17.7501C18.808 17.4276 18.7684 17.0982 18.6454 16.7963C18.5224 16.4944 18.3206 16.2311 18.061 16.0338C17.8014 15.8366 17.4937 15.7127 17.1698 15.6751C16.846 15.6375 16.518 15.6876 16.2202 15.8201C15.3239 16.2486 14.5164 16.8423 13.8402 17.5701C13.4202 17.9101 12.0002 19.0001 12.0002 19.0001C11.2223 18.9935 10.4536 18.8303 9.74019 18.5201C9.74019 18.4301 9.80019 18.3401 9.91019 18.1901C11.0902 16.5601 12.6102 15.9801 11.5402 14.3301C11.3695 14.0971 11.1301 13.9236 10.8556 13.8339C10.5812 13.7442 10.2855 13.7429 10.0102 13.8301C8.25019 14.1601 6.54019 15.9101 4.88019 16.5501C4.81019 16.5501 4.73019 16.5501 4.71019 16.6001C4.43019 14.7201 2.71019 15.2101 1.98019 15.2001C1.25019 15.1901 -0.199812 15.0901 0.0701881 15.7501C0.101093 15.8227 0.159353 15.8802 0.23235 15.9101C0.305347 15.9401 0.387203 15.94 0.460188 15.9101C0.945153 15.8588 1.43529 15.8892 1.91019 16.0001C3.99019 16.2301 3.74019 15.0601 3.61019 22.2601C3.61019 22.9301 3.61019 23.1101 2.50019 23.2001C1.86215 23.24 1.22165 23.2098 0.590188 23.1101C0.546195 23.1015 0.500952 23.1017 0.457041 23.1107C0.413131 23.1196 0.371413 23.1372 0.334269 23.1622C0.297126 23.1873 0.265284 23.2194 0.240563 23.2568C0.215841 23.2942 0.198724 23.3361 0.190188 23.3801C0.181652 23.4241 0.181865 23.4693 0.190814 23.5132C0.199763 23.5571 0.217274 23.5988 0.242345 23.636C0.267417 23.6731 0.299559 23.705 0.336937 23.7297C0.374314 23.7544 0.416195 23.7715 0.460188 23.7801C1.1402 23.9281 1.83426 24.0018 2.53019 24.0001C3.53019 24.0001 4.16019 23.8501 4.53019 23.0001L6.77019 22.5101C10.3102 23.4201 15.1602 23.6101 18.2702 21.6301C19.4502 20.8701 20.7702 19.9101 20.1202 18.6301C19.9986 18.3708 19.8066 18.1509 19.5662 17.9953C19.3258 17.8397 19.0465 17.7548 18.7602 17.7501ZM14.4202 18.4001C15.4202 17.7801 16.6602 16.4701 17.4202 16.7701C17.6325 16.8414 17.8101 16.9901 17.9176 17.1866C18.0251 17.383 18.0546 17.6128 18.0002 17.8301C16.1502 18.2301 15.2702 18.6201 13.6102 18.8301C13.8902 18.6901 14.2002 18.5301 14.4202 18.4001ZM17.6102 20.7301C13.6102 23.4801 6.84019 21.7901 6.61019 21.8301C4.41019 22.3701 4.61019 22.3901 4.61019 22.3001C4.90019 19.5901 4.61019 17.3001 4.71019 17.3001C5.7757 16.9259 6.78504 16.4077 7.71019 15.7601C8.30019 15.3701 10.3302 14.2101 10.7102 14.8201C11.3402 15.8201 10.2002 16.0701 9.03019 17.5801C8.43019 18.3601 8.57019 18.8901 8.93019 19.2601C9.4636 19.6344 10.0761 19.8808 10.7202 19.9801C13.0002 20.5501 16.9302 19.2501 17.6002 19.1101C18.2702 18.9701 18.7202 18.6601 19.0102 19.2101C19.3002 19.7601 18.0502 20.4301 17.6102 20.7301Z" fill="white"/>
</g>
<defs>
<clipPath id="clip0_36_1065">
<rect width="24" height="24" fill="white"/>
</clipPath>
</defs>
</svg>
