<svg width="24" height="24" viewBox="0 0 24 24" fill="none" xmlns="http://www.w3.org/2000/svg">
<path fill-rule="evenodd" clip-rule="evenodd" d="M23.69 1.5201C22.81 1.4201 21.96 1.3101 21.1 1.2501C20.5104 1.22002 19.9196 1.22002 19.33 1.2501C18.8821 1.24304 18.4351 1.29345 18 1.4001C17.844 1.43621 17.7002 1.5124 17.5827 1.62114C17.4652 1.72988 17.3781 1.86739 17.33 2.0201C17.2797 2.2605 17.2496 2.50468 17.24 2.7501C17.32 3.58151 17.32 4.41869 17.24 5.2501C17.2064 5.43229 17.163 5.61255 17.11 5.7901C17.0915 5.8682 17.0536 5.9404 17 6.0001C16.91 6.0601 16.76 6.0001 16.62 6.0001H15.9C14.9756 5.92109 14.0474 5.89438 13.12 5.9201C12.6505 5.94451 12.1925 6.0744 11.78 6.3001C11.537 6.43626 11.3574 6.66257 11.28 6.9301C11.2251 7.30142 11.2251 7.67878 11.28 8.0501C11.287 8.66443 11.2603 9.27869 11.2 9.8901C11.1726 10.2452 11.0593 10.5884 10.87 10.8901C10.82 10.9701 10.71 10.9601 10.6 10.9701C10.33 10.9701 10.04 10.9701 9.82 11.0401C8.87096 11.0933 7.92784 11.2237 7 11.4301C6.5455 11.5576 6.1275 11.7906 5.78 12.1101C5.58163 12.304 5.46075 12.5635 5.44 12.8401C5.43614 13.208 5.45954 13.5757 5.51 13.9401C5.57536 14.6046 5.59874 15.2726 5.58 15.9401C5.56485 16.3108 5.46569 16.6733 5.29 17.0001C5.25965 17.0428 5.21897 17.0772 5.17175 17.0999C5.12453 17.1226 5.07232 17.133 5.02 17.1301H4.32C3.43383 17.1263 2.54843 17.1831 1.67 17.3001C1.24351 17.374 0.839748 17.5451 0.49 17.8001C0.336069 17.9332 0.236423 18.1183 0.21 18.3201C0.186035 18.5962 0.186035 18.874 0.21 19.1501L0 22.4601C0 22.5397 0.0316071 22.616 0.087868 22.6722C0.144129 22.7285 0.220435 22.7601 0.3 22.7601C0.379565 22.7601 0.455871 22.7285 0.512132 22.6722C0.568393 22.616 0.6 22.5397 0.6 22.4601L0.89 19.1601C0.89 18.9801 1.15 18.4801 0.97 18.3601C1.33103 18.1468 1.74077 18.0297 2.16 18.0201C2.92 17.9401 3.75 18.0201 4.36 18.0201C4.74533 18.0741 5.13676 18.0674 5.52 18.0001C5.75177 17.917 5.94896 17.7585 6.08 17.5501C6.37042 17.0826 6.53889 16.5496 6.57 16.0001C6.61002 15.3007 6.61002 14.5995 6.57 13.9001V12.9001C6.89373 12.633 7.28463 12.4601 7.7 12.4001C8.46 12.2301 9.3 12.2201 9.97 12.1201C10.3458 12.1087 10.7203 12.0685 11.09 12.0001C11.3634 11.9193 11.6002 11.7461 11.76 11.5101C12.0341 11.0772 12.2083 10.5887 12.27 10.0801C12.3324 9.41538 12.3558 8.74756 12.34 8.0801V7.2701C12.7216 7.09064 13.1383 6.99841 13.56 7.0001C14.36 7.0001 15.23 7.0601 15.87 7.0001C16.203 7.01996 16.537 7.01996 16.87 7.0001C17.0971 6.98244 17.3166 6.91042 17.51 6.7901C17.6675 6.66769 17.7942 6.51017 17.88 6.3301C18.0094 6.03088 18.0937 5.71409 18.13 5.3901C18.1785 5.14985 18.202 4.9052 18.2 4.6601C18.1142 3.84978 18.0875 3.0343 18.12 2.2201C18.38 2.4301 19.12 2.0001 19.35 1.9801C19.9096 1.95038 20.4704 1.95038 21.03 1.9801C21.88 1.9801 22.72 2.1001 23.59 2.1801C23.6346 2.1847 23.6798 2.18045 23.7228 2.16761C23.7658 2.15477 23.8058 2.13359 23.8407 2.10526C23.8755 2.07694 23.9044 2.04204 23.9257 2.00255C23.9471 1.96306 23.9604 1.91975 23.965 1.8751C23.9696 1.83045 23.9654 1.78533 23.9525 1.74232C23.9397 1.69931 23.9185 1.65925 23.8902 1.62443C23.8618 1.58961 23.8269 1.56071 23.7874 1.53937C23.748 1.51804 23.7046 1.5047 23.66 1.5001L23.69 1.5201Z" fill="black"/>
<path fill-rule="evenodd" clip-rule="evenodd" d="M22.0801 10.2702C20.8801 11.3602 19.7201 12.4802 18.6301 13.6802C17.9101 14.4702 17.2301 15.3002 16.5301 16.1202C15.8301 16.9402 15.1401 17.8102 14.4601 18.6902C14.1301 19.1202 13.8301 19.5702 13.5401 20.0202C13.5556 19.9309 13.5556 19.8395 13.5401 19.7502L13.2701 17.3902L13.0001 15.0802C12.9976 15.0412 12.9873 15.003 12.9697 14.9681C12.9521 14.9332 12.9276 14.9022 12.8977 14.8769C12.8678 14.8517 12.8331 14.8328 12.7957 14.8213C12.7583 14.8099 12.719 14.8061 12.6801 14.8102C12.6407 14.8127 12.6022 14.823 12.5667 14.8405C12.5313 14.858 12.4997 14.8823 12.4736 14.912C12.4476 14.9418 12.4277 14.9763 12.4151 15.0138C12.4025 15.0512 12.3974 15.0908 12.4001 15.1302L12.5001 17.4802V19.7902C12.4795 20.0531 12.4795 20.3173 12.5001 20.5802C12.5171 20.7315 12.5721 20.876 12.6601 21.0002C12.8763 21.2844 13.1964 21.4714 13.5501 21.5202C14.0751 21.5592 14.603 21.5289 15.1201 21.4302C15.9801 21.3102 16.8401 21.1302 17.7101 21.0102C18.0701 21.0102 18.4301 20.9302 18.7901 20.9202L19.7401 20.8302C19.8263 20.855 19.9188 20.8448 19.9975 20.8017C20.0761 20.7586 20.1346 20.6862 20.1601 20.6002C20.1738 20.5575 20.1787 20.5125 20.1744 20.4679C20.1702 20.4233 20.1569 20.3801 20.1354 20.3408C20.1139 20.3015 20.0846 20.267 20.0493 20.2394C20.014 20.2118 19.9734 20.1916 19.9301 20.1802C19.7942 20.1379 19.6524 20.1176 19.5101 20.1202H18.8001C18.4137 20.1002 18.0265 20.1002 17.6401 20.1202C16.7601 20.1202 15.8801 20.2502 15.0101 20.3002C14.8101 20.3002 14.5301 20.3602 14.2301 20.3702C14.4201 20.1202 14.6001 19.8702 14.8101 19.6302C15.6401 18.6302 16.5801 17.7402 17.4301 16.8302C18.1201 16.0102 18.8301 15.2102 19.5001 14.3802C20.1701 13.5502 20.8101 12.7002 21.5001 11.8802C21.8401 11.4702 22.1901 11.0702 22.5501 10.6702C22.6028 10.613 22.6321 10.538 22.6321 10.4602C22.6321 10.3824 22.6028 10.3074 22.5501 10.2502C22.5206 10.2159 22.4836 10.1888 22.4421 10.1709C22.4006 10.1529 22.3555 10.1446 22.3103 10.1465C22.2651 10.1484 22.2209 10.1606 22.181 10.182C22.1412 10.2034 22.1067 10.2336 22.0801 10.2702Z" fill="black"/>
</svg>
