<svg width="24" height="24" viewBox="0 0 24 24" fill="none" xmlns="http://www.w3.org/2000/svg">
<g clip-path="url(#clip0_36_836)">
<path fill-rule="evenodd" clip-rule="evenodd" d="M20.2602 22.58C16.2602 22.26 12.5502 22.77 8.66015 22.77C7.73015 22.77 6.77015 22.77 5.81015 22.66C5.26015 22.66 3.88015 22.66 2.69015 22.5C2.02015 22.41 1.39015 22.32 1.17015 21.99C1.08256 21.7467 1.05847 21.4851 1.10015 21.23C1.10015 20.59 1.19015 19.87 1.19015 19.58C1.19015 17.49 1.14015 14.73 1.19015 12.23C1.19015 11.11 1.19015 10.04 1.27015 9.09996C1.27015 8.52996 1.33015 7.95996 1.34015 7.37996C1.41015 5.10996 1.34015 2.83996 1.46015 0.569963C1.46299 0.529375 1.45725 0.488645 1.44331 0.45042C1.42937 0.412195 1.40755 0.377331 1.37925 0.348093C1.35096 0.318856 1.31683 0.295899 1.27908 0.280716C1.24133 0.265532 1.20081 0.258461 1.16015 0.259963C1.08658 0.259788 1.0157 0.287581 0.961853 0.337713C0.908007 0.387845 0.875228 0.456568 0.870154 0.529963C0.710154 2.52996 0.670154 4.52996 0.570154 6.52996C0.530154 7.34996 0.470154 8.19996 0.400154 8.99996C0.287079 10.4211 0.210387 11.8449 0.170154 13.27C0.110154 15.47 0.110154 17.77 0.100154 19.58C0.100154 19.92 -0.00984556 20.81 0.000154441 21.51C-0.0060576 21.8894 0.0833576 22.2642 0.260154 22.6C0.712187 23.0989 1.33102 23.4155 2.00015 23.49C3.23778 23.6373 4.48396 23.7008 5.73015 23.68C6.73015 23.74 7.73015 23.75 8.67015 23.68C12.5502 23.59 16.2002 22.98 20.2202 23.19C20.3038 23.1905 20.3847 23.1603 20.4475 23.1049C20.5102 23.0496 20.5503 22.973 20.5602 22.89C20.5557 22.8109 20.5229 22.7361 20.4678 22.6792C20.4127 22.6222 20.339 22.587 20.2602 22.58Z" fill="black"/>
<path fill-rule="evenodd" clip-rule="evenodd" d="M6.99992 6.29996C6.92727 6.09886 6.81328 5.91522 6.6653 5.76089C6.51732 5.60656 6.33863 5.48495 6.14077 5.40392C5.9429 5.32289 5.73025 5.28423 5.51652 5.29044C5.3028 5.29665 5.09275 5.34758 4.89992 5.43996C4.58567 5.61484 4.32031 5.86577 4.12814 6.16975C3.93596 6.47373 3.82311 6.82107 3.79992 7.17996C3.77862 7.37343 3.80038 7.56921 3.86362 7.75329C3.92686 7.93736 4.03003 8.10518 4.16574 8.2447C4.30144 8.38423 4.46633 8.49202 4.64858 8.56036C4.83082 8.62869 5.02593 8.65587 5.21992 8.63996C5.36836 8.63635 5.51593 8.61623 5.65992 8.57996C5.85553 8.51802 6.0461 8.44113 6.22992 8.34996C6.26861 8.33155 6.30291 8.30507 6.3305 8.27229C6.3581 8.23952 6.37836 8.20121 6.38992 8.15996C6.65081 7.93446 6.84542 7.64222 6.95288 7.31456C7.06034 6.98689 7.0766 6.63616 6.99992 6.29996ZM5.92992 7.63996C5.87809 7.66263 5.8332 7.69864 5.79983 7.74431C5.76645 7.78999 5.74578 7.84369 5.73992 7.89996H5.60992C5.49708 7.91496 5.38275 7.91496 5.26992 7.89996C5.14614 7.89136 5.02931 7.83961 4.93977 7.75372C4.85023 7.66784 4.79366 7.55326 4.77992 7.42996C4.78391 7.28019 4.8215 7.13324 4.88992 6.99996C4.98803 6.75931 5.16411 6.55858 5.38992 6.42996C5.78992 6.19996 6.15992 6.54996 6.25992 6.91996C6.2332 6.96176 6.21901 7.01034 6.21901 7.05996C6.21901 7.10957 6.2332 7.15815 6.25992 7.19996C6.24741 7.29549 6.21046 7.38618 6.15266 7.46326C6.09485 7.54034 6.01813 7.6012 5.92992 7.63996Z" fill="black"/>
<path fill-rule="evenodd" clip-rule="evenodd" d="M20 4.53992C20.2777 4.77587 20.6364 4.89425 21 4.86992C21.1487 4.87034 21.2968 4.85015 21.44 4.80992C21.6346 4.75409 21.8224 4.67696 22 4.57992C22.0398 4.56159 22.0755 4.53526 22.1047 4.50258C22.134 4.46989 22.1562 4.43155 22.17 4.38992C22.4905 4.21974 22.7311 3.93018 22.8396 3.58393C22.9482 3.23768 22.916 2.86261 22.75 2.53992C22.6795 2.33828 22.5673 2.15376 22.4207 1.99839C22.2742 1.84303 22.0965 1.7203 21.8993 1.63821C21.7021 1.55612 21.4898 1.51652 21.2763 1.52198C21.0627 1.52745 20.8527 1.57785 20.66 1.66992C20.345 1.84642 20.0792 2.09908 19.8871 2.4048C19.6949 2.71051 19.5825 3.05952 19.56 3.41992C19.5503 3.51634 19.5503 3.61349 19.56 3.70992C19.6105 4.02775 19.7653 4.31974 20 4.53992ZM21.72 3.86992C21.6669 3.89071 21.6208 3.92621 21.5872 3.97226C21.5535 4.01831 21.5337 4.073 21.53 4.12992H21.4C21.2875 4.14933 21.1725 4.14933 21.06 4.12992C20.975 4.12086 20.8931 4.09278 20.8204 4.04778C20.7477 4.00277 20.686 3.94198 20.64 3.86992L20.71 3.78992C20.7692 3.73001 20.8025 3.64916 20.8025 3.56492C20.8025 3.48067 20.7692 3.39982 20.71 3.33992C20.71 3.33992 20.64 3.33992 20.61 3.33992C20.606 3.3067 20.606 3.27313 20.61 3.23992C20.701 2.99248 20.8787 2.78642 21.11 2.65992C21.51 2.41992 21.88 2.78992 21.98 3.15992C22.0192 3.29254 22.0129 3.43446 21.9622 3.56311C21.9115 3.69176 21.8192 3.79975 21.7 3.86992H21.72Z" fill="black"/>
<path fill-rule="evenodd" clip-rule="evenodd" d="M7.41009 7.99989L7.54009 8.08989L8.72009 8.88989C8.79009 8.88989 8.97009 9.08989 9.11009 9.16989C9.2029 9.2173 9.30588 9.24133 9.41009 9.23989C9.59674 9.22062 9.77044 9.13554 9.90009 8.99989C10.1407 8.73335 10.3519 8.44167 10.5301 8.12989C10.8752 7.66634 11.2457 7.22232 11.6401 6.79989C12.4401 5.94989 12.5801 6.21989 13.2501 6.50989L15.1901 7.39989C15.4301 7.51989 15.7501 7.72989 16.0601 7.86989C16.2279 7.94908 16.4065 8.003 16.5901 8.02989C16.6646 8.03879 16.7401 8.03083 16.811 8.0066C16.882 7.98237 16.9466 7.94248 17.0001 7.88989C17.0601 7.82989 17.1901 7.63989 17.2101 7.61989L17.8801 6.79989C18.3101 6.27989 18.7601 5.79989 19.2201 5.26989C19.6601 4.77989 19.4101 4.26989 18.8901 4.53989L18.6501 4.75989C18.1401 5.23989 17.6501 5.75989 17.1701 6.23989L16.4701 7.00989L16.3401 6.93989C16.1001 6.79989 15.8501 6.61989 15.6601 6.49989L14.8501 6.07989C14.4501 5.88989 14.0401 5.71989 13.6401 5.53989C13.3196 5.38428 12.9847 5.26036 12.6401 5.16989C12.3969 5.08759 12.1333 5.08759 11.8901 5.16989C11.4678 5.40314 11.0943 5.71549 10.7901 6.08989C10.4112 6.58338 10.0702 7.10488 9.77009 7.64989C9.70009 7.74989 9.46009 8.04989 9.28009 8.29989L9.14009 8.24989L7.92009 7.55989L7.65009 7.39989C7.00009 7.37989 6.94009 7.59989 7.41009 7.99989Z" fill="black"/>
<path fill-rule="evenodd" clip-rule="evenodd" d="M5.07999 16.2801C4.88354 16.1915 4.6705 16.1456 4.45499 16.1456C4.23948 16.1456 4.02644 16.1915 3.82999 16.2801C3.51902 16.4613 3.25654 16.7152 3.06499 17.0199C2.87343 17.3247 2.75849 17.6713 2.72999 18.0301C2.70793 18.225 2.72992 18.4223 2.79434 18.6076C2.85876 18.7929 2.96395 18.9613 3.10217 19.1005C3.24039 19.2397 3.40809 19.346 3.59291 19.4117C3.77773 19.4774 3.97494 19.5008 4.16999 19.4801C4.31877 19.4812 4.46694 19.461 4.60999 19.4201C4.80866 19.3669 5.00009 19.2897 5.17999 19.1901C5.21948 19.1728 5.25446 19.1467 5.28221 19.1138C5.30996 19.0808 5.32974 19.0419 5.33999 19.0001C5.66222 18.8316 5.90495 18.5428 6.01542 18.1964C6.1259 17.85 6.0952 17.474 5.92999 17.1501C5.76207 16.7662 5.45983 16.4569 5.07999 16.2801ZM4.87999 18.5201C4.82893 18.5411 4.7844 18.5753 4.75099 18.6192C4.71759 18.6632 4.69653 18.7153 4.68999 18.7701H4.55999C4.44715 18.785 4.33283 18.785 4.21999 18.7701C4.09555 18.7634 3.97763 18.7123 3.88769 18.6261C3.79776 18.5398 3.7418 18.4241 3.72999 18.3001C3.72417 18.1364 3.76214 17.9742 3.83999 17.8301C3.93532 17.5877 4.11212 17.3862 4.33999 17.2601C4.73999 17.0201 5.11999 17.3801 5.20999 17.7601C5.26326 17.9049 5.25869 18.0646 5.19724 18.2062C5.13578 18.3477 5.02217 18.4601 4.87999 18.5201Z" fill="black"/>
<path fill-rule="evenodd" clip-rule="evenodd" d="M23.87 9.45001C23.7971 9.24899 23.6831 9.06536 23.5354 8.9108C23.3876 8.75625 23.2093 8.63416 23.0117 8.55232C22.8141 8.47048 22.6017 8.43067 22.3879 8.43544C22.1742 8.44021 21.9637 8.48945 21.77 8.58001C21.4562 8.75792 21.1914 9.01093 20.9994 9.31636C20.8074 9.62178 20.6943 9.97008 20.67 10.33C20.6547 10.6846 20.7528 11.0349 20.95 11.33C21.2738 11.614 21.6807 11.7858 22.11 11.82C22.2588 11.8211 22.407 11.8009 22.55 11.76C22.747 11.7063 22.938 11.6326 23.12 11.54C23.1602 11.5212 23.1955 11.4933 23.2233 11.4586C23.251 11.424 23.2704 11.3834 23.28 11.34C23.4448 11.2567 23.5911 11.1412 23.7104 11.0003C23.8297 10.8594 23.9196 10.696 23.9746 10.5197C24.0296 10.3435 24.0487 10.158 24.0307 9.97428C24.0128 9.79054 23.9581 9.61226 23.87 9.45001ZM22.82 10.79C22.7662 10.8097 22.7194 10.8449 22.6856 10.8912C22.6518 10.9375 22.6324 10.9928 22.63 11.05H22.5C22.3875 11.0694 22.2725 11.0694 22.16 11.05C22.0365 11.0458 21.9187 10.9968 21.8285 10.9121C21.7384 10.8275 21.6821 10.7131 21.67 10.59C21.6634 10.4231 21.7013 10.2574 21.78 10.11C21.8781 9.86937 22.0542 9.66864 22.28 9.54001C22.68 9.30001 23.06 9.67001 23.15 10.04C23.2003 10.1836 23.1942 10.3409 23.133 10.4801C23.0717 10.6194 22.9598 10.7301 22.82 10.79Z" fill="black"/>
<path fill-rule="evenodd" clip-rule="evenodd" d="M20.9099 12.23C21.2899 11.82 21.0699 11.23 20.5899 11.59C20.4799 11.69 20.3599 11.78 20.2499 11.89C19.9299 12.2 19.6099 12.53 19.3199 12.89C19.0299 13.25 18.7799 13.69 18.0999 13.25C17.7184 12.9443 17.3607 12.61 17.0299 12.25C16.8079 12.0145 16.5557 11.8093 16.2799 11.64C16.1877 11.5886 16.0856 11.5576 15.9803 11.549C15.8751 11.5403 15.7693 11.5543 15.6699 11.59C15.2505 11.7684 14.8596 12.0076 14.5099 12.3C13.8949 12.8592 13.3233 13.4642 12.7999 14.11C12.3972 14.6118 11.918 15.0472 11.3799 15.4C11.291 15.2944 11.2075 15.1842 11.1299 15.07C10.7999 14.77 10.4199 14.37 10.0099 14.07C9.71607 13.8295 9.37559 13.6524 9.00993 13.55C8.65878 13.4454 8.28141 13.4739 7.94993 13.63C7.57642 13.8623 7.23942 14.1488 6.94993 14.48L5.77993 15.58C5.28993 16.14 5.77993 16.28 6.41993 15.87L7.41993 14.97C7.66145 14.7118 7.94142 14.4926 8.24993 14.32C8.40426 14.2597 8.5756 14.2597 8.72993 14.32C8.97986 14.4122 9.20798 14.5552 9.39993 14.74C9.76993 15.05 10.0999 15.45 10.3999 15.74C10.3999 15.74 10.7899 16.18 10.9499 16.31C11.034 16.382 11.1359 16.4302 11.2449 16.4495C11.354 16.4689 11.4662 16.4587 11.5699 16.42C11.9845 16.227 12.3686 15.9743 12.7099 15.67C13.3077 15.1029 13.8689 14.4983 14.3899 13.86C14.794 13.3558 15.2769 12.9202 15.8199 12.57C16.0064 12.6537 16.1812 12.7612 16.3399 12.89C16.7914 13.3431 17.291 13.7455 17.8299 14.09C18.1214 14.2511 18.4471 14.3402 18.7799 14.35C18.9532 14.34 19.1184 14.2732 19.2499 14.16C19.4899 13.911 19.7012 13.636 19.8799 13.34C20.1499 13.01 20.4299 12.68 20.7299 12.34L20.8899 12.18L20.9099 12.23Z" fill="black"/>
</g>
<defs>
<clipPath id="clip0_36_836">
<rect width="24" height="24" fill="white"/>
</clipPath>
</defs>
</svg>
