<svg width="24" height="24" viewBox="0 0 24 24" fill="none" xmlns="http://www.w3.org/2000/svg">
<g clip-path="url(#clip0_36_952)">
<path d="M24.0003 2.74998C23.9847 2.70782 23.9609 2.66915 23.9303 2.63623C23.8997 2.60331 23.8629 2.57678 23.822 2.55819C23.7811 2.53959 23.7369 2.52928 23.6919 2.52788C23.647 2.52647 23.6023 2.53398 23.5603 2.54998C23.4447 2.59077 23.3391 2.65552 23.2503 2.73998C23.1103 2.85998 22.9603 3.03998 22.8703 3.11998L21.2503 4.60998C20.6503 5.20998 20.0403 5.81998 19.4903 6.46998C18.9403 7.11998 18.4303 7.80998 17.9103 8.46998C17.5503 8.97998 17.1903 9.52998 16.7703 10.03C16.5121 10.353 16.2242 10.651 15.9103 10.92C15.8781 10.943 15.8508 10.9721 15.8298 11.0056C15.8089 11.0391 15.7948 11.0765 15.7883 11.1155C15.7818 11.1545 15.783 11.1944 15.7919 11.2329C15.8009 11.2714 15.8173 11.3078 15.8403 11.34C15.8632 11.3722 15.8923 11.3995 15.9259 11.4204C15.9594 11.4413 15.9968 11.4555 16.0358 11.462C16.0748 11.4685 16.1147 11.4672 16.1532 11.4583C16.1917 11.4494 16.2281 11.433 16.2603 11.41C16.6412 11.1549 16.9992 10.8672 17.3303 10.55C17.8203 10.09 18.2703 9.54998 18.7103 9.10998C19.1503 8.66998 19.3903 8.35998 19.7103 7.96998C20.0303 7.57998 20.6203 6.88998 21.0703 6.34998L22.0003 5.27998L23.3803 3.65998L23.7803 3.19998C23.8682 3.16822 23.9403 3.1035 23.9814 3.01952C24.0224 2.93553 24.0292 2.83887 24.0003 2.74998Z" fill="black"/>
<path d="M2.75038 9.49999C2.99038 9.22999 3.24038 8.96 3.47038 8.68C3.87038 8.21 4.25038 7.67999 4.67038 7.22999C4.93469 6.9372 5.2223 6.66632 5.53038 6.41999C5.67803 6.29769 5.83519 6.18734 6.00038 6.09C6.17006 5.99259 6.34729 5.90899 6.53038 5.84C6.989 5.65405 7.49104 5.60232 7.97795 5.69085C8.46485 5.77938 8.91656 6.00451 9.28038 6.34C10.5404 7.33999 11.4704 9.20999 12.3504 10.42L13.7004 12.24L15.3104 14.24C16.3505 15.6083 17.6482 16.7599 19.1304 17.63C19.6933 17.9427 20.3513 18.0381 20.9798 17.898C21.6083 17.7579 22.1636 17.3922 22.5404 16.87C22.5879 16.7986 22.6076 16.7122 22.5957 16.6273C22.5837 16.5423 22.541 16.4647 22.4756 16.4092C22.4102 16.3536 22.3267 16.3241 22.2409 16.3261C22.1552 16.3281 22.0731 16.3615 22.0104 16.42C21.7217 16.7974 21.304 17.0551 20.8371 17.1436C20.3703 17.2322 19.8872 17.1455 19.4804 16.9C18.1421 16.033 16.987 14.9118 16.0804 13.6L14.5804 11.6L13.2804 9.74999C12.3504 8.45999 11.3504 6.52999 9.99038 5.44999C9.47402 4.99716 8.8377 4.70335 8.15813 4.60398C7.47857 4.50462 6.78477 4.60395 6.16038 4.88999C5.92525 4.98255 5.70065 5.09988 5.49038 5.23999C5.27999 5.37195 5.07946 5.519 4.89038 5.67999C4.55163 5.98539 4.24043 6.32001 3.96038 6.67999C3.56038 7.17999 3.20038 7.67999 2.82038 8.20999L2.72038 8.32999C1.21038 9.91999 2.31038 9.99999 2.75038 9.49999Z" fill="black"/>
<path d="M13.13 14.4001C12.6558 15.0199 12.1414 15.6078 11.59 16.1601C11.0528 16.7016 10.4594 17.1843 9.81999 17.6001C9.59682 17.7534 9.36288 17.8904 9.11999 18.0101C8.97471 18.0933 8.80441 18.1217 8.63999 18.0901C8.41643 18.0092 8.23338 17.8441 8.12999 17.6301C7.64999 16.8901 7.37999 15.7901 6.94999 15.2301C6.63415 14.7661 6.17194 14.4214 5.63719 14.251C5.10244 14.0806 4.52601 14.0944 3.99999 14.2901C3.53671 14.4561 3.10165 14.6921 2.70999 14.9901C1.64999 15.8001 1.86999 16.3601 2.70999 15.9901C3.18227 15.6238 3.72279 15.3552 4.29999 15.2001C4.6303 15.1134 4.97985 15.1369 5.29565 15.2668C5.61145 15.3967 5.87628 15.6261 6.04999 15.9201C6.45999 16.4701 6.68999 17.5401 7.15999 18.2601C7.42183 18.7099 7.84872 19.0399 8.34999 19.1801C8.68681 19.2445 9.03523 19.2062 9.34999 19.0701C9.70557 18.8977 10.0409 18.6864 10.35 18.4401C10.889 18.0429 11.388 17.5941 11.84 17.1001C12.5009 16.3806 13.106 15.6117 13.65 14.8001C13.6768 14.7635 13.696 14.7219 13.7065 14.6778C13.717 14.6337 13.7186 14.588 13.7111 14.5432C13.7037 14.4985 13.6873 14.4557 13.6631 14.4174C13.6389 14.3791 13.6072 14.346 13.57 14.3201C13.4988 14.28 13.4159 14.266 13.3355 14.2806C13.2552 14.2953 13.1825 14.3375 13.13 14.4001Z" fill="black"/>
<path d="M23.5002 22.54C22.3802 22.49 21.1402 22.43 19.9102 22.39H17.5102C15.0502 22.39 12.6002 22.22 10.1502 22.18C9.09022 22.18 8.02022 22.18 6.95022 22.27L2.36022 22.52H1.21022C1.07022 22.52 1.49022 20.41 1.43022 17.12C1.43022 17.12 1.09022 9.77003 1.10022 9.40003C1.10022 8.40003 1.16022 7.40003 1.16022 6.40003V4.40003C1.07022 3.50003 0.900219 2.60003 0.870219 1.72003C0.846469 1.36594 0.863245 1.01031 0.920219 0.660029C0.92736 0.620572 0.926518 0.580084 0.917744 0.540957C0.90897 0.501831 0.892441 0.464861 0.869134 0.432232C0.845828 0.399603 0.816217 0.371977 0.782051 0.350988C0.747886 0.329998 0.709859 0.316071 0.670219 0.310029C0.631478 0.302795 0.591691 0.303265 0.553132 0.311412C0.514573 0.31956 0.477997 0.335225 0.445494 0.357513C0.412991 0.379801 0.385197 0.408274 0.363702 0.441307C0.342207 0.47434 0.327431 0.511284 0.320219 0.550029C0.255091 0.943254 0.224973 1.34148 0.230219 1.74003C0.230219 2.62003 0.380219 3.53003 0.400219 4.38003V6.38003C0.400219 7.38003 0.290219 8.38003 0.230219 9.38003C0.0602187 12 0.340219 14.6 0.320219 17.22C0.320219 20.43 -0.00978126 22.52 0.0302187 22.74C0.063279 22.9235 0.142423 23.0955 0.260219 23.24C0.470728 23.4678 0.753226 23.6161 1.06022 23.66C1.51518 23.7159 1.97526 23.7159 2.43022 23.66L7.05022 23.35C8.05022 23.25 9.12022 23.21 10.1502 23.2C12.6102 23.2 15.0602 23.29 17.5302 23.2H19.9002C21.1202 23.2 22.3602 23.25 23.4702 23.27C23.5516 23.2561 23.6255 23.2139 23.6788 23.1507C23.7321 23.0876 23.7613 23.0076 23.7613 22.925C23.7613 22.8424 23.7321 22.7625 23.6788 22.6993C23.6255 22.6362 23.5516 22.5939 23.4702 22.58L23.5002 22.54Z" fill="black"/>
</g>
<defs>
<clipPath id="clip0_36_952">
<rect width="24" height="24" fill="white"/>
</clipPath>
</defs>
</svg>
