<svg width="24" height="24" viewBox="0 0 24 24" fill="none" xmlns="http://www.w3.org/2000/svg">
<g clip-path="url(#clip0_36_831)">
<path d="M23.6099 22.84C22.4899 22.79 21.2399 22.73 20.0199 22.69H17.6099C15.1499 22.69 12.6999 22.51 10.2499 22.48C9.17987 22.48 8.11987 22.48 7.04987 22.56L2.44987 22.81C2.17151 22.8486 1.89089 22.8686 1.60987 22.87H1.24987V22.32C1.22511 22.0639 1.22511 21.8061 1.24987 21.55C1.29987 20.88 1.44987 20.21 1.49987 19.55C1.5545 18.5507 1.5545 17.5492 1.49987 16.55C1.40987 14.27 1.11987 12 1.18987 9.71999C1.18987 8.71999 1.24987 7.71999 1.24987 6.71999V4.71999C1.15987 3.78999 0.999874 2.88999 0.999874 1.99999C0.965431 1.6475 0.965431 1.29248 0.999874 0.939991C1.01474 0.86318 0.999021 0.783598 0.956055 0.718215C0.913088 0.652831 0.84628 0.60682 0.769874 0.589991C0.688985 0.575426 0.605624 0.593579 0.538116 0.64046C0.470608 0.68734 0.424481 0.75911 0.409874 0.839991C0.345576 1.22323 0.315457 1.61142 0.319874 1.99999C0.319874 2.88999 0.469874 3.79999 0.489874 4.63999V6.63999C0.489874 7.63999 0.389874 8.63999 0.319874 9.63999C0.169874 12.26 0.449874 14.89 0.429874 17.51C0.429874 18.16 0.429874 18.79 0.359874 19.43C0.289874 20.07 0.159874 20.76 0.109874 21.43C0.0773077 21.7625 0.0773077 22.0975 0.109874 22.43C0.0967243 22.6465 0.0967243 22.8635 0.109874 23.08C0.142934 23.2635 0.222078 23.4355 0.339874 23.58C0.550383 23.8077 0.832882 23.956 1.13987 24C1.59483 24.0559 2.05492 24.0559 2.50987 24L7.12987 23.69C8.12987 23.59 9.20987 23.55 10.2399 23.54C12.6999 23.54 15.1499 23.64 17.6199 23.54H19.9899C21.2199 23.54 22.4599 23.59 23.5699 23.61C23.6611 23.6127 23.7497 23.5798 23.8169 23.5182C23.8842 23.4565 23.9247 23.3711 23.9299 23.28C23.9434 23.2296 23.9454 23.1769 23.9359 23.1256C23.9264 23.0743 23.9055 23.0258 23.8748 22.9837C23.8442 22.9415 23.8044 22.9067 23.7586 22.8818C23.7128 22.857 23.662 22.8427 23.6099 22.84Z" fill="black"/>
<path d="M3.16007 17C3.39952 17.0994 3.65217 17.1634 3.91007 17.19H4.33007C4.27037 17.5374 4.2303 17.888 4.21007 18.24V19.19V20.59C4.20613 20.6346 4.21102 20.6796 4.22447 20.7224C4.23792 20.7651 4.25965 20.8048 4.28844 20.8392C4.31723 20.8735 4.3525 20.9019 4.39224 20.9226C4.43198 20.9433 4.47542 20.956 4.52007 20.96C4.56472 20.9639 4.60971 20.959 4.65247 20.9456C4.69522 20.9321 4.73491 20.9104 4.76927 20.8816C4.80363 20.8528 4.83198 20.8175 4.85271 20.7778C4.87343 20.7381 4.88613 20.6946 4.89007 20.65C4.98362 20.1044 5.04041 19.5532 5.06007 19V17.2C5.35236 17.235 5.64778 17.235 5.94007 17.2C6.11597 17.1808 6.28263 17.1114 6.42007 17C6.67441 16.7219 6.83831 16.3732 6.89007 16C6.92527 15.3328 6.9052 14.6638 6.83007 14L6.75007 11.64C6.77015 11.397 6.77015 11.1529 6.75007 10.91C6.73096 10.7244 6.654 10.5494 6.53007 10.41C6.32352 10.1967 6.0533 10.0563 5.76007 10.01C5.48145 9.97057 5.19868 9.97057 4.92007 10.01C4.92007 9.00996 5.05007 7.94996 5.10007 6.91996C5.11898 6.09535 5.08558 5.27036 5.00007 4.44996C5.00865 4.39974 5.00616 4.34825 4.99278 4.29909C4.9794 4.24992 4.95544 4.20427 4.92259 4.16533C4.88973 4.12639 4.84877 4.09508 4.80256 4.07361C4.75636 4.05214 4.70602 4.04102 4.65507 4.04102C4.60412 4.04102 4.55378 4.05214 4.50757 4.07361C4.46137 4.09508 4.42041 4.12639 4.38755 4.16533C4.3547 4.20427 4.33074 4.24992 4.31736 4.29909C4.30397 4.34825 4.30149 4.39974 4.31007 4.44996C4.31007 5.15996 4.25007 5.85996 4.21007 6.55996V7.99996C4.20534 8.68438 4.23538 9.3686 4.30007 10.05L3.39007 10.28H3.27007C3.22692 10.2446 3.17476 10.2219 3.11945 10.2146C3.06413 10.2072 3.00786 10.2154 2.95695 10.2383C2.90605 10.2611 2.86252 10.2977 2.83128 10.3439C2.80003 10.3902 2.7823 10.4442 2.78007 10.5L2.65007 13.36L2.50007 15.42C2.48761 15.6098 2.48761 15.8002 2.50007 15.99C2.50912 16.1661 2.56808 16.3361 2.67007 16.48C2.78374 16.6942 2.953 16.8738 3.16007 17ZM3.42007 11L4.76007 10.75C4.98944 10.7259 5.2207 10.7259 5.45007 10.75C5.6102 10.7616 5.76011 10.833 5.87007 10.95L5.81007 11.6L5.74007 14V15.42C5.74007 15.64 5.67007 16.14 5.67007 16.14L4.07007 16C3.92687 16.0086 3.78327 16.0086 3.64007 16H3.53007C3.53781 15.8534 3.53781 15.7065 3.53007 15.56V13.51L3.38007 11H3.42007Z" fill="black"/>
<path d="M8.06973 10.66C8.43221 10.7871 8.81621 10.8415 9.19973 10.82C9.15282 11.1749 9.12611 11.5321 9.11973 11.89C9.12784 12.4688 9.17125 13.0465 9.24973 13.62C9.25228 13.6647 9.26362 13.7084 9.28311 13.7487C9.3026 13.789 9.32985 13.825 9.36329 13.8547C9.39674 13.8845 9.43572 13.9073 9.47801 13.9219C9.5203 13.9366 9.56506 13.9427 9.60973 13.94C9.65486 13.9388 9.69927 13.9284 9.74021 13.9094C9.78116 13.8903 9.81776 13.8631 9.84775 13.8293C9.87775 13.7956 9.9005 13.7561 9.9146 13.7132C9.9287 13.6703 9.93385 13.625 9.92973 13.58C9.92973 13.02 9.98973 12.46 9.98973 11.89C9.98973 11.53 9.98973 11.17 9.91973 10.81C10.1081 10.8027 10.2954 10.7793 10.4797 10.74C10.7377 10.6938 10.9732 10.5637 11.1497 10.37C11.2969 10.1982 11.406 9.99707 11.4697 9.77999C11.5458 9.40834 11.5794 9.02923 11.5697 8.64999C11.6497 8.02924 11.5417 7.39876 11.2597 6.83999C11.1084 6.65668 10.9144 6.51338 10.6946 6.42271C10.4749 6.33203 10.2363 6.29676 9.99973 6.31999H9.60973V4.21999V2.57999V0.959994C9.57392 0.720049 9.51015 0.485118 9.41973 0.259994C9.41179 0.213987 9.39419 0.170186 9.36807 0.131487C9.34195 0.0927878 9.30792 0.0600704 9.26823 0.0354965C9.22853 0.0109226 9.18407 -0.00494862 9.13779 -0.0110685C9.0915 -0.0171884 9.04445 -0.0134178 8.99973 -5.6047e-06C8.95625 0.0115705 8.9155 0.0316622 8.87984 0.0591049C8.84418 0.0865475 8.81432 0.120795 8.792 0.159863C8.76968 0.19893 8.75533 0.24204 8.74979 0.286694C8.74425 0.331347 8.74763 0.376656 8.75973 0.419994C8.79432 0.611362 8.81106 0.80553 8.80973 0.999994C8.80973 1.53999 8.71973 2.08999 8.70973 2.60999C8.69973 3.12999 8.70973 3.70999 8.76973 4.25999C8.76973 4.96999 8.87973 5.68999 8.92973 6.39999L8.27973 6.47999C8.22094 6.4861 8.16486 6.50788 8.11737 6.54306C8.06987 6.57824 8.0327 6.62553 8.00973 6.67999C7.9878 6.62649 7.95037 6.58077 7.90226 6.5487C7.85415 6.51662 7.79755 6.49966 7.73973 6.49999C7.65751 6.49999 7.57866 6.53265 7.52053 6.59079C7.46239 6.64893 7.42973 6.72778 7.42973 6.80999V8.80999V9.56999C7.42864 9.72206 7.44884 9.87353 7.48973 10.02C7.53243 10.1632 7.6067 10.2951 7.70707 10.4058C7.80744 10.5166 7.93137 10.6034 8.06973 10.66ZM8.36973 7.19999H9.94973C10.2297 7.19999 10.3997 7.27999 10.4797 7.40999C10.5264 7.5205 10.5469 7.64027 10.5397 7.75999C10.5397 8.02999 10.5397 8.32999 10.4697 8.62999C10.3997 8.92999 10.4697 9.05999 10.3997 9.27999C10.3988 9.39732 10.3641 9.5119 10.2997 9.60999C10.2997 9.60999 9.55973 9.69999 9.29973 9.70999H8.29973C8.26003 9.62153 8.23632 9.52673 8.22973 9.42999V8.76999L8.02973 7.09999C8.07102 7.14727 8.12494 7.1818 8.18517 7.19951C8.24539 7.21722 8.30941 7.21739 8.36973 7.19999Z" fill="black"/>
<path d="M12.8698 16.42C13.088 16.5673 13.3384 16.6599 13.5998 16.69C13.8594 16.7103 14.1202 16.7103 14.3798 16.69C14.3798 16.84 14.3198 16.98 14.2998 17.13V18.27C14.2933 18.3147 14.2956 18.3602 14.3066 18.4039C14.3176 18.4477 14.3371 18.4889 14.3641 18.5251C14.391 18.5613 14.4248 18.5918 14.4635 18.615C14.5023 18.6382 14.5452 18.6534 14.5898 18.66C14.6345 18.6666 14.68 18.6643 14.7238 18.6533C14.7675 18.6422 14.8087 18.6227 14.8449 18.5958C14.8811 18.5689 14.9117 18.5351 14.9348 18.4963C14.958 18.4576 14.9733 18.4147 14.9798 18.37C15.0715 18.0625 15.1384 17.7482 15.1798 17.43C15.1948 17.1736 15.1948 16.9165 15.1798 16.66C15.419 16.6547 15.6569 16.6245 15.8898 16.57C16.1815 16.4969 16.4455 16.3405 16.6498 16.12C16.7788 15.9671 16.8589 15.779 16.8798 15.58C16.8997 15.3504 16.8997 15.1196 16.8798 14.89V10.79V9.72001C16.8787 9.35288 16.8351 8.98712 16.7498 8.63001C16.6933 8.42691 16.5867 8.24124 16.4398 8.09001C16.3187 7.97897 16.1637 7.91202 15.9998 7.90001C15.7843 7.86938 15.5654 7.86938 15.3498 7.90001H14.8498C14.915 7.60053 14.9551 7.29615 14.9698 6.99001C14.9441 6.65739 14.8974 6.32672 14.8298 6.00001C14.8384 5.94979 14.8359 5.8983 14.8225 5.84913C14.8092 5.79997 14.7852 5.75432 14.7524 5.71538C14.7195 5.67643 14.6785 5.64513 14.6323 5.62366C14.5861 5.60219 14.5358 5.59106 14.4848 5.59106C14.4339 5.59106 14.3835 5.60219 14.3373 5.62366C14.2911 5.64513 14.2502 5.67643 14.2173 5.71538C14.1845 5.75432 14.1605 5.79997 14.1471 5.84913C14.1337 5.8983 14.1313 5.94979 14.1398 6.00001C14.1398 6.35001 14.0598 6.70001 14.0598 7.00001C14.0598 7.30001 14.1298 7.65001 14.1698 8.00001L13.1698 8.08001C13.0903 8.08997 13.0174 8.1294 12.9656 8.1905C12.9137 8.25161 12.8867 8.32994 12.8898 8.41001C12.8972 8.47582 12.9255 8.53753 12.9704 8.58612C13.0154 8.6347 13.0748 8.66761 13.1398 8.68001C13.1398 9.00001 13.1398 9.31001 13.0798 9.68001C12.9798 10.6 12.7998 11.52 12.6898 12.41C12.6198 13.01 12.4798 13.61 12.3998 14.22C12.3797 14.503 12.3797 14.787 12.3998 15.07C12.3935 15.3343 12.4306 15.5978 12.5098 15.85C12.5739 16.0701 12.6987 16.2676 12.8698 16.42ZM13.3698 14.27C13.3698 13.67 13.5198 13.06 13.5598 12.46C13.6198 11.56 13.7498 10.62 13.7998 9.70001V8.70001H15.3398H15.8098C15.8737 8.79088 15.9086 8.89895 15.9098 9.01001C15.9296 9.27631 15.9296 9.54371 15.9098 9.81001V10.81L15.7998 12.57C15.8313 13.5339 15.8079 14.4988 15.7298 15.46C15.4522 15.5087 15.1715 15.5388 14.8898 15.55L14.0398 15.6C13.8634 15.6234 13.6839 15.5992 13.5198 15.53C13.4943 15.5055 13.474 15.476 13.4602 15.4433C13.4464 15.4106 13.4395 15.3755 13.4398 15.34C13.4148 15.2281 13.3981 15.1144 13.3898 15C13.3678 14.7573 13.3611 14.5135 13.3698 14.27Z" fill="black"/>
<path d="M18.9997 16.1299C19.032 16.3911 19.132 16.6393 19.2897 16.8499C19.3471 16.9276 19.4206 16.9919 19.5052 17.0385C19.5898 17.0851 19.6834 17.1129 19.7797 17.1199C19.9828 17.1358 20.1867 17.1358 20.3897 17.1199H20.6297C20.6147 17.2929 20.6147 17.4669 20.6297 17.6399C20.6297 17.9199 20.7197 18.1999 20.7597 18.4899C20.7737 18.5714 20.8159 18.6452 20.8791 18.6985C20.9422 18.7518 21.0221 18.781 21.1047 18.781C21.1874 18.781 21.2673 18.7518 21.3304 18.6985C21.3936 18.6452 21.4358 18.5714 21.4497 18.4899C21.4866 18.1981 21.5033 17.9041 21.4997 17.6099C21.4818 17.4471 21.4484 17.2864 21.3997 17.1299C21.6945 17.1208 21.9869 17.0737 22.2697 16.9899C22.6271 16.8933 22.9431 16.6826 23.1697 16.3899C23.3717 15.9344 23.3896 15.4184 23.2197 14.9499C23.1318 14.6296 22.986 14.328 22.7897 14.0599C22.6768 13.9244 22.5277 13.8239 22.3597 13.7699C22.1405 13.7445 21.919 13.7445 21.6997 13.7699C21.7147 13.4935 21.7147 13.2164 21.6997 12.9399C21.6997 11.9399 21.5397 11.0299 21.5397 10.0699C21.5397 8.74993 21.5997 7.40993 21.5397 6.06993C21.5217 5.15887 21.4179 4.25154 21.2297 3.35993C21.2393 3.31411 21.238 3.26669 21.2259 3.22146C21.2138 3.17623 21.1914 3.13446 21.1603 3.09947C21.1292 3.06449 21.0903 3.03726 21.0468 3.01998C21.0033 3.0027 20.9564 2.99583 20.9097 2.99993C20.8307 3.01681 20.7614 3.06389 20.7166 3.13114C20.6717 3.19839 20.6549 3.28048 20.6697 3.35993C20.7694 4.02183 20.8162 4.69061 20.8097 5.35993C20.8097 6.90993 20.6797 8.47993 20.6797 10.0299C20.6797 11.0299 20.8797 11.9499 20.9497 12.9099C20.9646 13.2064 20.9646 13.5035 20.9497 13.7999C20.4125 13.9438 19.8638 14.0409 19.3097 14.0899C19.2695 14.0872 19.2292 14.0927 19.1911 14.1059C19.153 14.1191 19.118 14.1399 19.0881 14.167C19.0583 14.194 19.0342 14.2268 19.0173 14.2634C19.0004 14.3 18.991 14.3396 18.9897 14.3799C18.9904 14.4603 19.0186 14.538 19.0697 14.5999C19.0308 14.6589 19.0131 14.7295 19.0197 14.7999C19.0597 15.1799 18.9997 15.6799 18.9997 16.1299ZM21.3597 14.5899C21.6291 14.5644 21.9003 14.5644 22.1697 14.5899C22.2697 14.7199 22.4597 15.8299 22.2797 15.8799C21.7997 15.9999 20.6697 16.0599 20.2797 16.1099C20.1433 16.1206 20.0062 16.1206 19.8697 16.1099C19.8201 16.0091 19.7864 15.9011 19.7697 15.7899C19.7197 15.4099 19.7697 14.9999 19.6997 14.6499C20.2497 14.6799 20.8297 14.5899 21.3697 14.5899H21.3597Z" fill="black"/>
</g>
<defs>
<clipPath id="clip0_36_831">
<rect width="24" height="24" fill="white"/>
</clipPath>
</defs>
</svg>
