<svg width="24" height="24" viewBox="0 0 24 24" fill="none" xmlns="http://www.w3.org/2000/svg">
<g clip-path="url(#clip0_36_696)">
<path fill-rule="evenodd" clip-rule="evenodd" d="M24 11.31C23.9743 10.9359 23.9174 10.5647 23.83 10.2C23.7831 9.98202 23.7021 9.77278 23.59 9.58002C23.4966 9.41952 23.3573 9.29065 23.19 9.21002C22.9098 9.1179 22.6144 9.08055 22.32 9.10002C21.98 9.10002 21.61 9.20002 21.32 9.26002C21.3499 8.96745 21.3499 8.67259 21.32 8.38002C21.2907 8.21755 21.2506 8.0572 21.2 7.90002C21.1387 7.74189 21.0545 7.59364 20.95 7.46002C20.8094 7.28057 20.6406 7.1252 20.45 7.00002C20.8536 6.74677 21.232 6.45544 21.58 6.13002C21.7184 6.00382 21.8277 5.849 21.9002 5.67631C21.9728 5.50362 22.0068 5.3172 22 5.13002C21.9803 5.00277 21.9361 4.88053 21.87 4.77002C21.75 4.58002 21.53 4.36002 21.44 4.24002C21.205 3.95655 20.9511 3.68928 20.68 3.44002C20.3977 3.19694 20.0967 2.97627 19.78 2.78002C19.5871 2.66121 19.3784 2.57031 19.16 2.51002C18.9879 2.45354 18.8022 2.45354 18.63 2.51002C18.3631 2.64173 18.1252 2.82531 17.93 3.05002C17.7291 3.28905 17.5421 3.53946 17.37 3.80002C17.0754 3.49663 16.7386 3.2373 16.37 3.03002C16.1939 2.93716 16.0098 2.86019 15.82 2.80002C15.6361 2.73527 15.4445 2.69493 15.25 2.68002C14.9511 2.64399 14.6489 2.64399 14.35 2.68002C14.4338 2.31589 14.4774 1.94366 14.48 1.57002C14.4737 1.38348 14.4277 1.20043 14.3449 1.03314C14.2621 0.865845 14.1445 0.718177 14 0.600022C13.894 0.528066 13.7752 0.477143 13.65 0.450022C13.4353 0.411402 13.2181 0.38801 13 0.380022C12.634 0.350051 12.2661 0.350051 11.9 0.380022C11.5306 0.40119 11.163 0.447969 10.8 0.520022C10.582 0.566917 10.3728 0.647913 10.18 0.760022C10.017 0.850297 9.88735 0.99051 9.81003 1.16002C9.71722 1.42977 9.6798 1.71547 9.70003 2.00002C9.70003 2.35002 9.80003 2.72002 9.86003 3.05002C9.57079 3.02019 9.27926 3.02019 8.99003 3.05002C8.8177 3.07872 8.6497 3.12912 8.49003 3.20002C8.31189 3.28209 8.14679 3.38991 8.00003 3.52002C7.80615 3.6637 7.62544 3.82433 7.46003 4.00002C7.23517 3.65359 6.99147 3.31975 6.73003 3.00002C6.52099 2.78038 6.2736 2.60077 6.00003 2.47002C5.82437 2.4141 5.63568 2.4141 5.46003 2.47002C5.24405 2.52819 5.0383 2.61926 4.85003 2.74002C4.53106 2.93292 4.22988 3.15379 3.95003 3.40002C3.67577 3.64918 3.41853 3.91645 3.18003 4.20002C3.0298 4.36834 2.88956 4.54531 2.76003 4.73002C2.69041 4.83978 2.64285 4.96206 2.62003 5.09002C2.61324 5.2772 2.64729 5.46362 2.71982 5.63631C2.79235 5.809 2.90162 5.96382 3.04003 6.09002C3.34456 6.37917 3.6799 6.63403 4.04003 6.85002C3.8711 6.99393 3.71394 7.1511 3.57003 7.32002C3.4613 7.45796 3.37057 7.60917 3.30003 7.77002C3.2241 7.92951 3.16705 8.09731 3.13003 8.27002C3.05233 8.64133 3.02542 9.02147 3.05003 9.40002C2.5975 9.30525 2.14016 9.23515 1.68003 9.19002C1.38553 9.16565 1.08919 9.20312 0.810027 9.30002C0.638855 9.37483 0.497924 9.50519 0.410027 9.67002C0.297918 9.86278 0.216922 10.072 0.170027 10.29C0.0831781 10.648 0.0263147 11.0126 2.67234e-05 11.38C-0.0299568 11.7494 -0.0299568 12.1206 2.67215e-05 12.49C0.00754098 12.7147 0.0309326 12.9386 0.0700267 13.16C0.0971475 13.2852 0.148071 13.404 0.220027 13.51C0.346225 13.6484 0.50105 13.7577 0.673741 13.8302C0.846432 13.9028 1.03285 13.9368 1.22003 13.93C1.65424 13.9193 2.08634 13.8657 2.51003 13.77C2.48529 14.0127 2.48529 14.2573 2.51003 14.5C2.54137 14.6771 2.58822 14.8511 2.65003 15.02C2.75549 15.1879 2.87243 15.3483 3.00003 15.5C3.18622 15.7921 3.38993 16.0726 3.61003 16.34C3.29003 16.57 2.85003 16.85 2.49003 17.15C2.2673 17.3446 2.08691 17.5829 1.96003 17.85C1.89826 18.0247 1.89826 18.2153 1.96003 18.39C2.0182 18.606 2.10927 18.8117 2.23003 19C2.42627 19.3167 2.64694 19.6177 2.89003 19.9C3.14015 20.1768 3.41093 20.4342 3.70003 20.67C3.86467 20.8205 4.03832 20.9607 4.22003 21.09C4.32979 21.1596 4.45207 21.2072 4.58003 21.23C4.76695 21.2348 4.95276 21.1999 5.12516 21.1275C5.29755 21.0551 5.4526 20.9469 5.58003 20.81C5.86405 20.4987 6.1216 20.1642 6.35003 19.81C6.5195 20.0195 6.71056 20.2105 6.92003 20.38C7.05796 20.4887 7.20918 20.5795 7.37003 20.65C7.53469 20.7216 7.70535 20.7785 7.88003 20.82C8.28734 20.9063 8.705 20.9333 9.12003 20.9C9.21624 20.9088 9.31219 20.8806 9.38835 20.8212C9.46451 20.7617 9.51517 20.6755 9.53003 20.58C9.53615 20.4828 9.50568 20.3868 9.44461 20.311C9.38354 20.2351 9.29629 20.1848 9.20003 20.17C8.87232 20.0445 8.55472 19.8941 8.25003 19.72C8.04003 19.61 7.85003 19.5 7.63003 19.41C7.41003 19.32 6.95003 19.18 6.63003 19.02V18.94C6.59205 18.889 6.54155 18.8486 6.48341 18.8228C6.42527 18.797 6.36146 18.7866 6.29813 18.7926C6.2348 18.7986 6.1741 18.8209 6.12188 18.8572C6.06966 18.8936 6.02769 18.9427 6.00003 19C5.84003 19.16 5.54003 19.52 5.21003 19.84C5.0892 19.9819 4.94348 20.1005 4.78003 20.19C4.63883 20.0782 4.51425 19.9469 4.41003 19.8C4.18003 19.59 3.96003 19.35 3.74003 19.11C3.52003 18.87 3.33003 18.63 3.15003 18.37C2.97003 18.11 2.86003 18.05 3.27003 17.67C3.68003 17.29 3.97003 16.96 4.19003 16.67C4.19003 16.67 4.19003 16.6 4.25003 16.56C4.31037 16.5038 4.35081 16.4296 4.36524 16.3484C4.37967 16.2672 4.36731 16.1836 4.33003 16.11C4.21003 15.76 4.13003 15.4 4.02003 15.02C3.98249 14.8706 3.93574 14.7237 3.88003 14.58C3.88003 14.43 3.77003 14.29 3.71003 14.15C3.52669 13.8299 3.36951 13.4955 3.24003 13.15C3.23627 13.1079 3.22421 13.067 3.20454 13.0296C3.18488 12.9922 3.158 12.959 3.12546 12.9321C3.09292 12.9051 3.05536 12.8849 3.01495 12.8725C2.97454 12.8601 2.93208 12.8559 2.89003 12.86C2.8532 12.8628 2.81734 12.8731 2.78466 12.8903C2.75198 12.9075 2.72317 12.9312 2.70003 12.96H1.70003C1.51389 12.9725 1.32709 12.9488 1.15003 12.89C1.13913 12.7135 1.13913 12.5365 1.15003 12.36V11.36C1.15003 10.99 1.20003 10.73 1.25003 10.42C1.30003 10.11 1.25003 10.03 1.83003 10.01C2.41003 9.99002 2.83003 10.01 3.17003 10.01C3.23193 10.0109 3.29251 9.99202 3.34289 9.95604C3.39328 9.92005 3.43082 9.86888 3.45003 9.81002C3.51482 9.79191 3.57254 9.75443 3.61543 9.7026C3.65833 9.65077 3.68435 9.58706 3.69003 9.52002C3.82004 9.19751 3.97034 8.88355 4.14003 8.58002C4.25003 8.38002 4.36003 8.19002 4.45003 7.98002C4.54003 7.77002 4.68003 7.35002 4.81003 6.98002C4.85458 6.96019 4.8945 6.93126 4.92721 6.8951C4.95993 6.85893 4.98474 6.81633 5.00003 6.77002C5.01824 6.71375 5.01941 6.65335 5.0034 6.59642C4.98739 6.53948 4.9549 6.48855 4.91003 6.45002C4.8551 6.43016 4.79495 6.43016 4.74003 6.45002C4.56003 6.28002 4.30003 6.05002 4.07003 5.81002C3.92539 5.68796 3.80643 5.5384 3.72003 5.37002C3.86003 5.22002 4.00003 5.00002 4.11003 5.00002C4.32003 4.77002 4.56003 4.55002 4.80003 4.33002C5.03188 4.11956 5.27561 3.92257 5.53003 3.74002C5.70003 3.61002 5.86003 3.52002 6.23003 3.86002C6.51745 4.10833 6.79118 4.37205 7.05003 4.65002C7.05003 4.65002 7.05003 4.75002 7.05003 4.80002C7.0723 4.83563 7.10157 4.86634 7.13607 4.89029C7.17058 4.91424 7.20958 4.93093 7.25073 4.93935C7.29188 4.94777 7.33431 4.94774 7.37544 4.93926C7.41658 4.93078 7.45556 4.91403 7.49003 4.89002C7.87003 4.75002 8.26003 4.70002 8.66003 4.55002C8.87177 4.47216 9.07879 4.382 9.28003 4.28002C9.5456 4.14017 9.81944 4.01661 10.1 3.91002C10.1 3.91002 10.19 3.97002 10.25 3.96002C10.2925 3.96011 10.3345 3.95148 10.3735 3.93467C10.4124 3.91785 10.4476 3.89321 10.4766 3.86227C10.5057 3.83133 10.5281 3.79476 10.5424 3.7548C10.5568 3.71485 10.5628 3.67238 10.56 3.63002V3.46002V2.28002C10.56 1.86002 10.77 1.73002 10.97 1.70002C11.17 1.67002 11.6 1.62002 11.91 1.60002C12.22 1.58002 12.56 1.60002 12.91 1.60002H13.45C13.5049 1.77786 13.5253 1.96454 13.51 2.15002V3.30002C13.5073 3.3965 13.5423 3.49023 13.6077 3.56122C13.6731 3.63221 13.7636 3.67484 13.86 3.68002C13.9096 3.68412 13.9595 3.67729 14.0061 3.66001C14.0528 3.64273 14.0951 3.61543 14.13 3.58002C14.44 3.66002 14.77 3.81002 15.13 3.94002L15.75 4.13002C15.97 4.19002 16.19 4.22002 16.4 4.28002C16.5886 4.33945 16.7725 4.41299 16.95 4.50002C16.9162 4.56027 16.9028 4.62984 16.9118 4.69834C16.9209 4.76683 16.9518 4.83057 17 4.88002C17.0616 4.93989 17.1441 4.97338 17.23 4.97338C17.3159 4.97338 17.3984 4.93989 17.46 4.88002C17.71 4.66002 18.05 4.27002 18.46 3.96002C18.87 3.65002 19 3.71002 19.16 3.84002C19.32 3.97002 19.66 4.23002 19.9 4.43002C20.14 4.63002 20.38 4.87002 20.59 5.10002C20.66 5.17002 20.89 5.38002 20.97 5.47002C21.05 5.56002 20.77 5.74002 20.63 5.90002C20.32 6.22002 19.96 6.51002 19.8 6.67002C19.7365 6.67051 19.6745 6.68991 19.6221 6.72573C19.5696 6.76155 19.529 6.81218 19.5054 6.87117C19.4818 6.93016 19.4763 6.99483 19.4896 7.05696C19.5029 7.11909 19.5344 7.17585 19.58 7.22002C19.716 7.49735 19.82 7.78922 19.89 8.09002C19.9261 8.20927 19.9695 8.32617 20.02 8.44002C20.19 8.82002 20.4 9.17002 20.53 9.55002C20.5026 9.57946 20.4814 9.6141 20.4677 9.6519C20.4539 9.68969 20.4479 9.72986 20.45 9.77002C20.4513 9.81205 20.4609 9.85341 20.4782 9.89174C20.4955 9.93008 20.5201 9.96462 20.5508 9.99341C20.5814 10.0222 20.6174 10.0447 20.6568 10.0595C20.6961 10.0744 20.738 10.0814 20.78 10.08H22.12C22.6 10.08 22.68 10.3 22.7 10.49C22.7492 10.8015 22.7826 11.1152 22.8 11.43V12.43C22.8104 12.6065 22.8104 12.7835 22.8 12.96C22.6222 13.0149 22.4355 13.0353 22.25 13.02H21.49H21.1C21.0527 13.0173 21.0054 13.024 20.9607 13.0396C20.9159 13.0553 20.8748 13.0796 20.8395 13.1111C20.8042 13.1427 20.7754 13.181 20.7549 13.2237C20.7344 13.2664 20.7226 13.3127 20.72 13.36C20.7154 13.4228 20.7279 13.4857 20.7561 13.542C20.7842 13.5983 20.827 13.646 20.88 13.68C20.72 14.01 20.54 14.34 20.39 14.68C20.24 15.02 20.18 15.25 20.07 15.53C19.9506 15.9608 19.7758 16.3742 19.55 16.76C19.4941 16.7338 19.4314 16.7255 19.3705 16.7362C19.3097 16.747 19.2536 16.7762 19.21 16.82C19.1502 16.8816 19.1167 16.9641 19.1167 17.05C19.1167 17.1359 19.1502 17.2184 19.21 17.28C19.44 17.53 19.83 17.87 20.14 18.28C20.45 18.69 20.37 18.84 20.26 18.98C20.0741 19.2378 19.8738 19.4849 19.66 19.72C19.4529 19.962 19.2326 20.1924 19 20.41C18.93 20.48 18.76 20.67 18.63 20.79C18.5 20.79 18.36 20.59 18.2 20.45C17.87 20.13 17.57 19.77 17.41 19.61C17.3773 19.5752 17.3378 19.5475 17.2939 19.5285C17.2501 19.5095 17.2028 19.4998 17.155 19.4998C17.1072 19.4998 17.06 19.5095 17.0161 19.5285C16.9723 19.5475 16.9328 19.5752 16.9 19.61C16.8626 19.64 16.8323 19.6781 16.8115 19.7213C16.7908 19.7646 16.78 19.812 16.78 19.86C16.5028 19.9245 16.2224 19.9746 15.94 20.01C15.68 20.01 15.44 20.08 15.2 20.14C14.76 20.23 14.36 20.39 13.91 20.48H13.79C13.7063 20.4985 13.6316 20.5456 13.5787 20.613C13.5258 20.6805 13.498 20.7643 13.5 20.85V22C13.52 22.1855 13.4996 22.3732 13.44 22.55C13.2635 22.5407 13.0866 22.5407 12.91 22.55H11.91C11.55 22.55 11.27 22.5 10.97 22.45C10.67 22.4 10.6 22.36 10.56 21.87C10.52 21.38 10.56 20.87 10.56 20.53C10.5627 20.4885 10.557 20.4468 10.5433 20.4076C10.5296 20.3683 10.5081 20.3321 10.4801 20.3014C10.4521 20.2706 10.4182 20.2457 10.3804 20.2283C10.3425 20.2109 10.3016 20.2013 10.26 20.2C10.218 20.1973 10.1758 20.2029 10.136 20.2166C10.0961 20.2302 10.0593 20.2515 10.0277 20.2794C9.99613 20.3073 9.97036 20.3411 9.95188 20.379C9.9334 20.4168 9.92257 20.458 9.92003 20.5C9.87003 20.9 9.71003 21.5 9.67003 22.1C9.64566 22.3945 9.68313 22.6909 9.78003 22.97C9.85642 23.137 9.98204 23.2765 10.14 23.37C10.3343 23.479 10.543 23.5598 10.76 23.61C11.1257 23.6918 11.4966 23.7486 11.87 23.78C12.2394 23.81 12.6106 23.81 12.98 23.78C13.2047 23.7725 13.4286 23.7491 13.65 23.71C13.7752 23.6829 13.894 23.632 14 23.56C14.1359 23.4318 14.2434 23.2766 14.3157 23.1044C14.3881 22.9322 14.4236 22.7468 14.42 22.56C14.4017 22.1192 14.3449 21.6809 14.25 21.25C14.5349 21.3226 14.8264 21.3661 15.12 21.38C15.3114 21.3887 15.5031 21.3719 15.69 21.33C15.8789 21.2932 16.0633 21.2362 16.24 21.16C16.5669 21.023 16.8731 20.8413 17.15 20.62C17.3547 20.935 17.5891 21.2297 17.85 21.5C17.9762 21.6384 18.1311 21.7477 18.3037 21.8202C18.4764 21.8928 18.6628 21.9268 18.85 21.92C18.9773 21.9003 19.0995 21.8561 19.21 21.79C19.3921 21.6576 19.5658 21.514 19.73 21.36C20.018 21.1302 20.2857 20.8759 20.53 20.6C20.7763 20.3178 21.0003 20.0169 21.2 19.7C21.3177 19.5114 21.4054 19.3056 21.46 19.09C21.5271 18.9163 21.5271 18.7238 21.46 18.55C21.3331 18.2829 21.1528 18.0446 20.93 17.85C20.6708 17.6389 20.4004 17.442 20.12 17.26C20.5139 16.8969 20.845 16.4712 21.1 16C21.2165 15.8172 21.3136 15.6228 21.39 15.42C21.4742 15.2212 21.5347 15.0131 21.57 14.8C21.6389 14.471 21.6757 14.1361 21.68 13.8C22.0091 13.8686 22.3439 13.9055 22.68 13.91C22.8662 13.9161 23.0516 13.8827 23.2239 13.8121C23.3963 13.7414 23.5517 13.6351 23.68 13.5C23.752 13.394 23.8029 13.2752 23.83 13.15C23.8691 12.9286 23.8925 12.7047 23.9 12.48C23.9666 12.0936 24 11.7022 24 11.31Z" fill="black"/>
<path fill-rule="evenodd" clip-rule="evenodd" d="M12.1903 5.26006C8.72027 4.61006 6.08027 6.93006 5.06027 9.84006C4.45993 11.3142 4.40069 12.9533 4.89304 14.4669C5.38539 15.9806 6.39756 17.2712 7.75027 18.1101C8.93709 18.7473 10.2632 19.0808 11.6103 19.0808C12.9573 19.0808 14.2834 18.7473 15.4703 18.1101C16.4235 17.6438 17.2638 16.9755 17.9328 16.1517C18.6017 15.3279 19.0833 14.3683 19.344 13.3397C19.6048 12.311 19.6384 11.2379 19.4426 10.195C19.2468 9.15198 18.8263 8.16413 18.2103 7.30006C17.7235 6.67717 17.1077 6.16698 16.4052 5.8045C15.7026 5.44201 14.93 5.23581 14.1403 5.20006C14.0436 5.19167 13.9476 5.22154 13.8728 5.28326C13.798 5.34498 13.7504 5.43361 13.7403 5.53006C13.7347 5.57763 13.739 5.62582 13.7529 5.67167C13.7667 5.71751 13.7898 5.76003 13.8207 5.79659C13.8517 5.83314 13.8898 5.86296 13.9327 5.8842C13.9756 5.90544 14.0224 5.91764 14.0703 5.92006C14.7489 5.96701 15.409 6.16132 16.0049 6.48946C16.6007 6.8176 17.1178 7.27167 17.5203 7.82006C18.2943 8.95327 18.6738 10.3097 18.6003 11.6801C18.5317 12.8286 18.1534 13.9371 17.5055 14.8879C16.8575 15.8387 15.9642 16.5962 14.9203 17.0801C13.9087 17.6176 12.7808 17.8987 11.6353 17.8987C10.4898 17.8987 9.36179 17.6176 8.35027 17.0801C5.75027 15.6301 5.20027 12.6501 6.00027 10.1401C6.80027 7.63006 9.00027 5.44006 12.1003 5.89006C12.1424 5.89908 12.1858 5.89952 12.2281 5.89134C12.2704 5.88316 12.3106 5.86654 12.3463 5.84246C12.382 5.81839 12.4124 5.78736 12.4359 5.75123C12.4593 5.7151 12.4752 5.67462 12.4826 5.63221C12.49 5.58979 12.4887 5.54632 12.4789 5.5044C12.4692 5.46247 12.451 5.42295 12.4256 5.38821C12.4002 5.35346 12.368 5.3242 12.331 5.30218C12.294 5.28016 12.2529 5.26584 12.2103 5.26006H12.1903Z" fill="black"/>
<path fill-rule="evenodd" clip-rule="evenodd" d="M12.1699 14.1C12.1699 13.62 12.2299 13.1 12.2399 12.64V11.77C12.2385 11.476 12.2218 11.1823 12.1899 10.89C12.1299 10.2 11.9899 9.53002 11.8999 8.89002C11.8864 8.8136 11.8465 8.74436 11.787 8.69448C11.7276 8.64459 11.6525 8.61725 11.5749 8.61725C11.4973 8.61725 11.4222 8.64459 11.3627 8.69448C11.3033 8.74436 11.2633 8.8136 11.2499 8.89002C11.1599 9.58002 11.0599 10.26 11.0199 10.96C11.0049 11.2565 11.0049 11.5535 11.0199 11.85C11.0199 12.14 11.0199 12.44 11.0899 12.73C11.1499 13.23 11.2299 13.73 11.3199 14.19L10.5999 14.26C10.1999 14.26 9.80988 14.37 9.40988 14.44C9.40988 14.15 9.49988 13.88 9.52988 13.59C9.53982 13.4402 9.53982 13.2899 9.52988 13.14C9.54426 12.9937 9.54426 12.8463 9.52988 12.7C9.52988 12.34 9.35988 12.02 9.28988 11.7C9.29259 11.658 9.28697 11.6158 9.27335 11.576C9.25973 11.5361 9.23837 11.4993 9.21049 11.4677C9.18262 11.4361 9.14878 11.4104 9.11093 11.3919C9.07307 11.3734 9.03193 11.3626 8.98988 11.36C8.94653 11.3573 8.90307 11.3632 8.86199 11.3773C8.82091 11.3914 8.78303 11.4135 8.75051 11.4423C8.718 11.4711 8.69148 11.5061 8.6725 11.5452C8.65352 11.5842 8.64243 11.6267 8.63988 11.67C8.53988 12.03 8.41988 12.36 8.34988 12.74C8.33494 12.8963 8.33494 13.0537 8.34988 13.21C8.35508 13.3682 8.37517 13.5256 8.40988 13.68C8.46654 13.9848 8.54337 14.2854 8.63988 14.58C8.32988 14.58 8.01988 14.67 7.69988 14.7C7.61501 14.7 7.53362 14.7337 7.47361 14.7937C7.4136 14.8538 7.37988 14.9352 7.37988 15.02C7.38239 15.1041 7.41691 15.184 7.47639 15.2435C7.53587 15.303 7.61581 15.3375 7.69988 15.34C8.65604 15.4465 9.61791 15.4933 10.5799 15.48C11.2699 15.48 11.9799 15.42 12.6899 15.36C13.3999 15.3 14.0599 15.21 14.7499 15.2L15.9999 15.05C16.0472 15.0579 16.0955 15.0564 16.1422 15.0456C16.1889 15.0348 16.233 15.0149 16.272 14.987C16.311 14.9591 16.3441 14.9239 16.3695 14.8832C16.3949 14.8426 16.412 14.7973 16.4199 14.75C16.4278 14.7027 16.4263 14.6544 16.4154 14.6077C16.4046 14.561 16.3847 14.5169 16.3569 14.4779C16.329 14.4389 16.2937 14.4058 16.2531 14.3804C16.2124 14.355 16.1672 14.3379 16.1199 14.33L14.8599 14.21C14.9099 13.53 14.9799 12.85 15.0399 12.21C15.0999 11.57 15.1199 11.06 15.1299 10.49C15.1299 9.49002 15.0399 8.56002 14.9899 7.59002C14.9899 7.50515 14.9562 7.42376 14.8962 7.36375C14.8361 7.30373 14.7548 7.27002 14.6699 7.27002C14.585 7.27002 14.5036 7.30373 14.4436 7.36375C14.3836 7.42376 14.3499 7.50515 14.3499 7.59002C14.2099 8.43002 14.0499 9.25002 13.9499 10.1C13.9499 10.46 13.8799 10.82 13.8699 11.18C13.8599 11.54 13.8699 11.91 13.8699 12.28C13.8699 12.93 13.9499 13.57 14.0199 14.22C13.406 14.145 12.7883 14.105 12.1699 14.1Z" fill="black"/>
</g>
<defs>
<clipPath id="clip0_36_696">
<rect width="24" height="24" fill="white"/>
</clipPath>
</defs>
</svg>
