<svg width="24" height="24" viewBox="0 0 24 24" fill="none" xmlns="http://www.w3.org/2000/svg">
<g clip-path="url(#clip0_36_671)">
<path fill-rule="evenodd" clip-rule="evenodd" d="M22.59 13.25C21.8487 13.0049 21.0705 12.8898 20.29 12.91C19.19 12.91 18.05 13.04 17.08 13.07L11.54 13.23C9.73 13.3 7.87 13.38 6.03 13.52C4.78 13.62 3.55 13.76 2.36 13.95C2.31645 13.9561 2.27456 13.9708 2.23678 13.9933C2.19901 14.0158 2.16611 14.0456 2.14002 14.081C2.11394 14.1164 2.09519 14.1567 2.08488 14.1994C2.07458 14.2422 2.07292 14.2866 2.08 14.33C2.08485 14.3731 2.09843 14.4148 2.1199 14.4525C2.14137 14.4902 2.17029 14.5232 2.2049 14.5494C2.23951 14.5756 2.27909 14.5945 2.32122 14.6049C2.36336 14.6153 2.40718 14.617 2.45 14.61C3.63 14.45 4.85 14.35 6.08 14.29C7.91 14.21 9.77 14.21 11.56 14.2H17.1C18.05 14.2 19.19 14.09 20.27 14.11C20.9116 14.113 21.549 14.2142 22.16 14.41C22.48 14.53 22.69 14.62 22.73 14.77C22.77 14.92 22.67 14.89 22.61 14.96C22.1937 15.351 21.6659 15.6026 21.1 15.68C20.4377 15.7779 19.7695 15.8313 19.1 15.84H15.94L5.88 16.13C5.06 16.13 4.15 16.27 3.27 16.26C2.72321 16.2712 2.17764 16.2039 1.65 16.06C1.2 15.93 0.910004 15.72 0.830004 15.44C0.804051 15.2689 0.82798 15.0939 0.898925 14.9361C0.969869 14.7782 1.08482 14.6442 1.23 14.55C1.3061 14.4858 1.35397 14.3943 1.36332 14.2952C1.37267 14.1961 1.34276 14.0973 1.28 14.02C1.24553 13.9846 1.20432 13.9565 1.15881 13.9373C1.1133 13.9181 1.0644 13.9082 1.015 13.9082C0.965608 13.9082 0.916711 13.9181 0.871198 13.9373C0.825685 13.9565 0.784477 13.9846 0.750004 14.02C0.469359 14.1909 0.247327 14.4431 0.113374 14.7432C-0.0205788 15.0432 -0.0601179 15.3769 4.11458e-06 15.7C0.101133 15.9984 0.277626 16.2657 0.512389 16.476C0.747151 16.6862 1.03223 16.8323 1.34 16.9C1.9378 17.0763 2.55681 17.1705 3.18 17.18C4.08 17.18 5.01 17.13 5.84 17.12H11.01C10.94 17.55 10.86 17.98 10.8 18.41C10.31 18.71 9.8 19 9.32 19.32C9.06 19.49 8.81 19.67 8.56 19.86C8.31 20.05 8.07 20.25 7.85 20.46C7.3251 20.9773 6.83092 21.5249 6.37 22.1C6.33886 22.1307 6.31413 22.1673 6.29725 22.2076C6.28038 22.2479 6.27168 22.2912 6.27168 22.335C6.27168 22.3787 6.28038 22.422 6.29725 22.4623C6.31413 22.5027 6.33886 22.5393 6.37 22.57C6.39984 22.6008 6.43558 22.6253 6.4751 22.6421C6.51461 22.6588 6.55709 22.6675 6.6 22.6675C6.64292 22.6675 6.6854 22.6588 6.72491 22.6421C6.76443 22.6253 6.80017 22.6008 6.83 22.57C7.41 22.16 8.02 21.8 8.62 21.39C8.86 21.22 9.11 21.03 9.35 20.84C9.59 20.65 9.82 20.45 10.05 20.25C10.28 20.05 10.5 19.83 10.72 19.62V20.24C10.72 20.93 10.8 21.6 10.85 22.24C10.8411 22.2943 10.8441 22.35 10.8589 22.4031C10.8736 22.4562 10.8997 22.5054 10.9354 22.5474C10.9711 22.5894 11.0154 22.6232 11.0655 22.6463C11.1155 22.6694 11.1699 22.6814 11.225 22.6814C11.2801 22.6814 11.3345 22.6694 11.3846 22.6463C11.4346 22.6232 11.4789 22.5894 11.5146 22.5474C11.5503 22.5054 11.5764 22.4562 11.5911 22.4031C11.6059 22.35 11.6089 22.2943 11.6 22.24C11.69 21.57 11.82 20.92 11.91 20.24L11.97 19.6C12.2 19.87 12.42 20.15 12.66 20.42L13.17 20.95C13.35 21.13 13.54 21.29 13.73 21.45C14.19 21.82 14.67 22.13 15.14 22.45C15.1698 22.4808 15.2056 22.5053 15.2451 22.5221C15.2846 22.5389 15.3271 22.5475 15.37 22.5475C15.4129 22.5475 15.4554 22.5389 15.4949 22.5221C15.5344 22.5053 15.5702 22.4808 15.6 22.45C15.6322 22.4209 15.6579 22.3854 15.6755 22.3458C15.6931 22.3062 15.7022 22.2633 15.7022 22.22C15.7022 22.1766 15.6931 22.1338 15.6755 22.0941C15.6579 22.0545 15.6322 22.019 15.6 21.99C15.26 21.49 14.94 20.99 14.6 20.53C14.42 20.34 14.25 20.16 14.07 19.99C13.89 19.82 13.68 19.65 13.49 19.5C13.01 19.13 12.49 18.81 12.04 18.5C12.0114 18.0109 11.958 17.5236 11.88 17.04H15.93H19.12C19.8499 17.0301 20.5783 16.97 21.3 16.86C21.8343 16.8014 22.3478 16.6202 22.8005 16.3305C23.2532 16.0408 23.6329 15.6505 23.91 15.19C24.16 14.59 24 13.77 22.59 13.25Z" fill="black"/>
<path fill-rule="evenodd" clip-rule="evenodd" d="M7.79979 8.99997L9.79979 10.42C9.85848 10.4608 9.92827 10.4827 9.99979 10.4827C10.0713 10.4827 10.1411 10.4608 10.1998 10.42C10.2031 10.492 10.2275 10.5616 10.2698 10.62C10.3424 10.6896 10.4391 10.7285 10.5398 10.7285C10.6404 10.7285 10.7372 10.6896 10.8098 10.62C11.1692 10.3221 11.4659 9.95581 11.6828 9.54245C11.8997 9.12909 12.0324 8.67681 12.0733 8.2118C12.1142 7.74679 12.0625 7.27829 11.9212 6.8334C11.7798 6.38851 11.5516 5.97608 11.2498 5.61997C10.7066 4.82762 9.89647 4.25721 8.96738 4.013C8.0383 3.76879 7.05235 3.86711 6.18979 4.28997C5.64186 4.58787 5.16334 4.9986 4.78584 5.49504C4.40833 5.99149 4.14042 6.56236 3.99979 7.16997C3.84457 7.77423 3.84381 8.40781 3.99759 9.01244C4.15137 9.61706 4.45474 10.1733 4.87979 10.63C5.44744 11.1957 6.1925 11.5488 6.98979 11.63C7.73568 11.705 8.48881 11.6057 9.18979 11.34C9.27209 11.3104 9.33983 11.2503 9.37894 11.172C9.41805 11.0938 9.42551 11.0036 9.39979 10.92C9.37639 10.837 9.32142 10.7664 9.24667 10.7234C9.17191 10.6805 9.08329 10.6684 8.99979 10.69C8.39414 10.8741 7.75401 10.9152 7.12979 10.81C6.55347 10.7147 6.02551 10.4296 5.62979 9.99997C5.30555 9.60414 5.12257 9.11149 5.10979 8.59997H6.10979C7.99979 8.45997 7.31979 8.61997 7.79979 8.99997ZM10.3698 9.99997C10.3547 9.93152 10.3199 9.86896 10.2698 9.81997L8.53979 7.99997C8.38343 7.82331 8.21645 7.65633 8.03979 7.49997C8.03979 7.49997 8.03979 7.49997 7.96979 7.49997C8.08174 7.2993 8.18191 7.09229 8.26979 6.87997C8.34675 6.71419 8.41354 6.54388 8.46979 6.36997C8.52255 6.19237 8.56594 6.01212 8.59979 5.82997V5.17997C9.30483 5.33772 9.93778 5.72453 10.3998 6.27997C10.8773 6.78333 11.141 7.45224 11.1354 8.14603C11.1298 8.83981 10.8553 9.50438 10.3698 9.99997ZM5.19979 7.60997C5.19611 7.56338 5.19611 7.51657 5.19979 7.46997C5.308 7.04984 5.50026 6.656 5.76495 6.31225C6.02964 5.9685 6.36126 5.68197 6.73979 5.46997C7.00156 5.33088 7.28599 5.23946 7.57979 5.19997C7.51979 5.30997 7.45979 5.41997 7.40979 5.52997C7.27482 5.8518 7.17426 6.187 7.10979 6.52997C7.06556 6.79149 7.03551 7.05521 7.01979 7.31997C6.79671 7.30499 6.57287 7.30499 6.34979 7.31997C5.9611 7.39401 5.5771 7.49084 5.19979 7.60997Z" fill="black"/>
<path fill-rule="evenodd" clip-rule="evenodd" d="M14.7102 6.51005C14.5102 6.51005 14.3102 6.51005 14.1802 8.37005C14.1652 8.58312 14.1652 8.79698 14.1802 9.01005C14.1881 9.2281 14.2115 9.44531 14.2502 9.66005C14.4902 11.3701 14.6202 11.5401 14.9402 11.5201C15.2602 11.5001 15.3102 11.3101 15.4302 9.61005C15.4453 9.39699 15.4453 9.18312 15.4302 8.97005C15.4251 8.75559 15.405 8.54173 15.3702 8.33005C15.1202 6.48005 14.9002 6.50005 14.7102 6.51005Z" fill="black"/>
<path fill-rule="evenodd" clip-rule="evenodd" d="M17.7102 3.74001C17.6665 3.73727 17.6228 3.74352 17.5816 3.75837C17.5405 3.77323 17.5028 3.79636 17.4709 3.82636C17.439 3.85635 17.4137 3.89256 17.3963 3.93274C17.379 3.97293 17.3701 4.01625 17.3702 4.06001C17.2502 4.89001 17.0902 5.70001 17.0002 6.54001C17.0002 6.90001 16.9402 7.26001 16.9302 7.62001C16.9202 7.98001 16.9302 8.34001 16.9302 8.70001C16.9302 9.55001 17.0702 10.38 17.1802 11.22C17.1879 11.3199 17.2337 11.413 17.3082 11.4801C17.3827 11.5471 17.4801 11.5829 17.5802 11.58C17.6297 11.5775 17.6782 11.5651 17.7229 11.5434C17.7675 11.5218 17.8073 11.4914 17.8399 11.4541C17.8726 11.4168 17.8974 11.3733 17.9129 11.3262C17.9284 11.2791 17.9343 11.2294 17.9302 11.18C17.9302 10.33 18.0702 9.50001 18.1302 8.64001C18.1302 8.08001 18.2002 7.51001 18.2002 6.95001C18.2002 5.95001 18.0802 5.03001 18.0202 4.08001C18.0206 3.9948 17.9889 3.91257 17.9315 3.8496C17.8741 3.78664 17.7951 3.74752 17.7102 3.74001Z" fill="black"/>
<path fill-rule="evenodd" clip-rule="evenodd" d="M1.06984 13.63C1.06714 13.6729 1.07309 13.7158 1.08733 13.7563C1.10157 13.7968 1.12382 13.834 1.15274 13.8658C1.18167 13.8975 1.21668 13.9231 1.2557 13.941C1.29471 13.9589 1.33693 13.9688 1.37984 13.97C1.42352 13.9727 1.46729 13.9665 1.50845 13.9516C1.54962 13.9368 1.58729 13.9137 1.61916 13.8837C1.65103 13.8537 1.6764 13.8175 1.69372 13.7773C1.71104 13.7371 1.71993 13.6938 1.71984 13.65C1.86984 12.17 2.02984 10.65 2.05984 9.21001V6.56001C2.05984 5.23001 1.91984 3.92001 1.89984 2.56001C1.88527 2.47107 1.83956 2.3902 1.77086 2.33185C1.70217 2.27349 1.61498 2.24146 1.52484 2.24146C1.43471 2.24146 1.34752 2.27349 1.27882 2.33185C1.21013 2.3902 1.16442 2.47107 1.14984 2.56001C0.999844 3.86001 0.889844 5.15001 0.839844 6.45001V8.11001V9.77001C0.899844 11.06 0.999844 12.34 1.06984 13.63Z" fill="black"/>
<path fill-rule="evenodd" clip-rule="evenodd" d="M2.21024 2.29C2.69024 2.35 3.21024 2.38 3.67024 2.41C4.78024 2.41 5.89024 2.41 7.02024 2.48C9.02024 2.57 11.0202 2.66 13.0202 2.67C14.3702 2.67 15.7102 2.66999 17.0202 2.61L20.7902 2.66C20.9602 2.66 21.7902 2.52 21.6602 2.72C21.7632 2.96419 21.8209 3.22513 21.8302 3.49V5.3V10.39C21.8302 11.13 21.8302 11.86 21.8902 12.59C21.8914 12.6404 21.9029 12.69 21.924 12.7357C21.945 12.7815 21.9752 12.8225 22.0126 12.8562C22.0501 12.8899 22.094 12.9157 22.1418 12.9318C22.1895 12.9479 22.24 12.9541 22.2902 12.95C22.3384 12.9487 22.3858 12.9378 22.4297 12.9179C22.4735 12.898 22.513 12.8694 22.5456 12.834C22.5782 12.7986 22.6034 12.7569 22.6197 12.7116C22.6359 12.6662 22.6429 12.6181 22.6402 12.57V10.4C22.7002 8.7 22.8002 6.99 22.8302 5.3C22.9303 4.57066 22.9871 3.83604 23.0002 3.1C22.9627 2.70527 22.825 2.32665 22.6002 2C22.4771 1.82665 22.302 1.69704 22.1002 1.63C21.712 1.52611 21.3121 1.47234 20.9102 1.47C20.1502 1.47 19.3702 1.39 18.6002 1.37H17.0402L7.00024 1.57C5.88024 1.57 4.77024 1.67 3.66024 1.68C3.19024 1.68 2.72024 1.68 2.25024 1.63C2.20686 1.62441 2.16279 1.62751 2.12061 1.63911C2.07844 1.65071 2.03899 1.67058 2.00456 1.69757C1.97013 1.72455 1.94141 1.75811 1.92007 1.7963C1.89872 1.83448 1.88519 1.87653 1.88024 1.92C1.87613 1.96627 1.88154 2.0129 1.89615 2.057C1.91075 2.1011 1.93424 2.14174 1.96517 2.17641C1.99609 2.21109 2.03379 2.23905 2.07594 2.25859C2.11809 2.27812 2.1638 2.28881 2.21024 2.29Z" fill="black"/>
</g>
<defs>
<clipPath id="clip0_36_671">
<rect width="24" height="24" fill="white"/>
</clipPath>
</defs>
</svg>
