<svg width="24" height="24" viewBox="0 0 24 24" fill="none" xmlns="http://www.w3.org/2000/svg">
<path fill-rule="evenodd" clip-rule="evenodd" d="M14.3006 14.7901C13.6036 14.5679 12.868 14.493 12.1406 14.5701C11.8649 14.5812 11.5889 14.5543 11.3206 14.4901C11.2297 14.4755 11.1435 14.4399 11.0688 14.3861C10.9941 14.3323 10.9331 14.2617 10.8906 14.1801C10.6006 13.5701 10.9806 13.1801 11.5206 12.9201C12.1803 12.6543 12.9036 12.5883 13.6006 12.7301C13.6735 12.7486 13.7507 12.7381 13.816 12.7008C13.8813 12.6635 13.9296 12.6023 13.9506 12.5301C13.9691 12.4572 13.9587 12.3799 13.9213 12.3146C13.884 12.2493 13.8228 12.2011 13.7506 12.1801C13.3546 12.0623 12.9437 12.0017 12.5306 12.0001L12.5906 11.8001C12.6009 11.697 12.6009 11.5932 12.5906 11.4901C12.6 11.3903 12.6 11.2899 12.5906 11.1901C12.4406 10.1901 12.3406 10.1401 12.1306 10.1301C11.9206 10.1201 11.7806 10.1901 11.5806 11.1301C11.5715 11.2332 11.5715 11.3369 11.5806 11.4401C11.5698 11.5465 11.5698 11.6537 11.5806 11.7601C11.6013 11.8616 11.628 11.9617 11.6606 12.0601C11.3544 12.1175 11.0581 12.2185 10.7806 12.3601C10.5815 12.4479 10.4024 12.5754 10.2543 12.7348C10.1061 12.8942 9.99209 13.0822 9.91908 13.2871C9.84607 13.4921 9.81564 13.7099 9.82966 13.927C9.84367 14.1442 9.90183 14.3562 10.0006 14.5501C10.0839 14.773 10.2175 14.9738 10.3909 15.1368C10.5643 15.2998 10.7729 15.4207 11.0006 15.4901C11.688 15.6288 12.3904 15.6792 13.0906 15.6401C13.5706 15.6401 14.0206 15.6401 14.1406 16.1401C14.2606 16.6401 13.8206 17.0501 13.2606 17.3001C12.6352 17.5856 11.9403 17.6829 11.2606 17.5801C11.0663 17.5372 10.8826 17.4556 10.7206 17.3401C10.5445 17.1973 10.3775 17.0437 10.2206 16.8801C10.1607 16.8208 10.0798 16.7876 9.99558 16.7876C9.91133 16.7876 9.83049 16.8208 9.77058 16.8801C9.74002 16.909 9.71568 16.9439 9.69904 16.9826C9.68241 17.0213 9.67383 17.063 9.67383 17.1051C9.67383 17.1472 9.68241 17.1889 9.69904 17.2275C9.71568 17.2662 9.74002 17.3011 9.77058 17.3301C9.97594 17.5839 10.2109 17.8122 10.4706 18.0101C10.6644 18.1473 10.8811 18.2489 11.1106 18.3101C11.3456 18.374 11.5872 18.4109 11.8306 18.4201V18.5601C11.8207 18.6632 11.8207 18.767 11.8306 18.8701C11.8208 18.9698 11.8208 19.0703 11.8306 19.1701C11.9806 20.1701 12.0806 20.2201 12.2806 20.2301C12.4806 20.2401 12.6406 20.1801 12.8406 19.2301V18.9101C12.8509 18.8037 12.8509 18.6965 12.8406 18.5901C12.8252 18.5221 12.8051 18.4553 12.7806 18.3901C13.2469 18.3231 13.6994 18.1812 14.1206 17.9701C14.4986 17.8058 14.8105 17.5194 15.0063 17.1568C15.2022 16.7941 15.2706 16.3762 15.2006 15.9701C15.1648 15.7125 15.0632 15.4686 14.9055 15.2619C14.7479 15.0552 14.5395 14.8926 14.3006 14.7901Z" fill="black"/>
<path fill-rule="evenodd" clip-rule="evenodd" d="M21.5002 13.28C21.3494 12.5461 21.1075 11.834 20.7802 11.16C20.3791 10.3216 19.8968 9.52443 19.3402 8.78003C18.8273 8.09713 18.2367 7.47628 17.5802 6.93003C17.7845 6.85366 17.9848 6.76688 18.1802 6.67003C18.219 6.65366 18.2541 6.62979 18.2837 6.59981C18.3132 6.56983 18.3365 6.53431 18.3523 6.4953C18.3681 6.45628 18.3761 6.41454 18.3757 6.37245C18.3753 6.33036 18.3667 6.28876 18.3502 6.25003C18.3151 6.17101 18.2504 6.10892 18.1699 6.07713C18.0895 6.04534 17.9998 6.04638 17.9202 6.08003C17.6692 6.17978 17.412 6.26329 17.1502 6.33003C17.4746 5.84746 17.7589 5.33909 18.0002 4.81003C18.2875 4.18099 18.4473 3.50121 18.4702 2.81003C18.4667 2.37341 18.3889 1.94057 18.2402 1.53003C18.1267 1.21076 17.9299 0.927647 17.6702 0.71003C17.5027 0.619877 17.3154 0.572687 17.1252 0.572687C16.935 0.572687 16.7477 0.619877 16.5802 0.71003C16.0902 0.89003 15.4402 1.28003 14.9102 1.51003C14.7302 1.58003 14.6002 1.67003 14.5002 1.65003C14.4002 1.63003 14.3202 1.44003 14.2302 1.30003C14.0724 1.02605 13.8882 0.768155 13.6802 0.53003C13.5307 0.371709 13.3503 0.245774 13.1502 0.16003C12.8482 0.0601008 12.5221 0.0601008 12.2202 0.16003C11.7851 0.282007 11.3729 0.474566 11.0002 0.73003C10.0002 1.45003 10.1402 1.22003 9.60019 0.94003C9.12036 0.622638 8.57195 0.423841 8.00019 0.36003C7.54019 0.36003 7.09019 0.68003 7.16019 1.68003L7.25019 2.44003L7.47019 3.50003C7.5317 3.74788 7.60852 3.99168 7.70019 4.23003C7.78799 4.47167 7.88812 4.70865 8.00019 4.94003C8.1741 5.32998 8.37457 5.70754 8.60019 6.07003C8.68019 6.20003 8.78019 6.31003 8.86019 6.43003H8.50019C8.11044 6.3338 7.7342 6.18935 7.38019 6.00003C7.34585 5.98206 7.30804 5.9717 7.26934 5.96964C7.23063 5.96759 7.19194 5.97389 7.15589 5.98812C7.11983 6.00235 7.08727 6.02418 7.0604 6.05212C7.03354 6.08005 7.013 6.11345 7.00019 6.15003C6.96446 6.21502 6.95598 6.29154 6.9766 6.36278C6.99722 6.43402 7.04527 6.49417 7.11019 6.53003C7.24597 6.61116 7.38619 6.68461 7.53019 6.75003C6.77295 7.45701 6.05836 8.20833 5.39019 9.00003C4.69394 9.81419 4.0652 10.6837 3.51019 11.6C3.23425 12.0441 2.99992 12.5128 2.81019 13C2.6228 13.5043 2.47568 14.0225 2.37019 14.55C2.11199 15.5902 2.1052 16.677 2.35039 17.7204C2.59558 18.7637 3.0857 19.7337 3.78019 20.55C5.23645 22.0874 7.13353 23.1355 9.21019 23.55C12.1017 24.3076 15.1645 24.0644 17.9002 22.86C18.8091 22.397 19.6058 21.7409 20.2345 20.9377C20.8633 20.1344 21.3089 19.2035 21.5402 18.21C21.6589 17.7576 21.7392 17.296 21.7802 16.83C21.8152 16.3674 21.8152 15.9027 21.7802 15.44C21.7451 14.7137 21.6515 13.9913 21.5002 13.28ZM9.14019 5.75003C8.93902 5.40411 8.76516 5.04301 8.62019 4.67003C8.54019 4.46003 8.46019 4.23003 8.40019 4.01003C8.34019 3.79003 8.27019 3.55003 8.22019 3.32003L8.07019 2.32003V1.63003C8.07019 1.20003 7.97019 1.16003 8.56019 1.47003C8.92019 1.66003 9.28019 1.91003 9.56019 2.06003C9.79839 2.19065 10.0692 2.24969 10.3402 2.23003C10.7004 2.16553 11.0419 2.0221 11.3402 1.81003C11.6561 1.5677 11.9905 1.35038 12.3402 1.16003C12.4053 1.11993 12.4777 1.09311 12.5532 1.0811C12.6287 1.06908 12.7059 1.07212 12.7802 1.09003C12.9302 1.15003 13.0202 1.31003 13.1302 1.46003C13.2858 1.71867 13.4596 1.96595 13.6502 2.20003C13.8084 2.39198 14.0211 2.53144 14.2602 2.60003C14.6021 2.65284 14.9519 2.59687 15.2602 2.44003C16.7702 1.76003 17.1202 1.00003 17.4402 2.00003C17.5262 2.26938 17.5799 2.548 17.6002 2.83003C17.6096 3.41996 17.4973 4.00549 17.2702 4.55003C16.9937 5.25467 16.6381 5.92563 16.2102 6.55003C15.8002 6.61003 15.3702 6.66003 14.9402 6.69003H12.6302C11.8602 6.69003 11.0402 6.69003 10.3102 6.57003H9.63019C9.4523 6.30567 9.28873 6.03194 9.14019 5.75003ZM20.8902 16.75C20.8505 17.1734 20.7701 17.592 20.6502 18C20.4379 18.8628 20.0386 19.6683 19.4804 20.3595C18.9222 21.0508 18.2189 21.6108 17.4202 22C14.8942 23.087 12.0748 23.2878 9.42019 22.57C7.54839 22.2212 5.83005 21.3027 4.50019 19.94C3.87824 19.2429 3.43136 18.4075 3.19659 17.5032C2.96182 16.5989 2.94592 15.6517 3.15019 14.74C3.31876 13.759 3.65717 12.8148 4.15019 11.95C4.6582 11.0405 5.24016 10.1742 5.89019 9.36003C6.54085 8.55292 7.24582 7.79115 8.00019 7.08003C8.00019 7.08003 8.00019 7.00003 8.06019 7.00003C8.14525 7.03448 8.23204 7.06452 8.32019 7.09003C8.93674 7.27447 9.56477 7.41812 10.2002 7.52003C10.7102 7.60003 11.2002 7.69003 11.7902 7.73003C12.602 7.80004 13.4184 7.80004 14.2302 7.73003C15.1513 7.65498 16.0607 7.47378 16.9402 7.19003C16.9541 7.22969 16.9744 7.26684 17.0002 7.30003C17.6715 7.86311 18.2695 8.50814 18.7802 9.22003C19.2922 9.9395 19.7343 10.7063 20.1002 11.51C20.3845 12.1493 20.5894 12.8209 20.7102 13.51C20.8422 14.1961 20.9191 14.8917 20.9402 15.59C20.9506 15.9874 20.9339 16.385 20.8902 16.78V16.75Z" fill="black"/>
</svg>
