<svg width="24" height="24" viewBox="0 0 24 24" fill="none" xmlns="http://www.w3.org/2000/svg">
<g clip-path="url(#clip0_36_875)">
<path fill-rule="evenodd" clip-rule="evenodd" d="M19.8 8.24998C20.8 6.29998 22.66 2.58998 20.49 2.29998C18.7589 2.04219 17.0101 1.92182 15.26 1.93998C15.308 1.64242 15.3315 1.3414 15.33 1.03998C15.27 -0.260016 13.51 -1.57449e-05 13 -1.57449e-05C12.4981 -0.0238751 11.9954 0.0300971 11.51 0.159984C8.14 0.889984 8.37 0.729984 7.28 0.999984C6.38223 1.21615 5.51776 1.55252 4.71 1.99998C4.52831 2.13622 4.38939 2.3216 4.30966 2.53423C4.22992 2.74686 4.21269 2.97787 4.26 3.19998C4.26 3.43998 5 6.68998 5.15 7.26998C5.41 8.32998 5.52 8.49998 6.06 10.69C6.13 10.98 6.14 11.49 6.57 11.53C6.60943 11.5341 6.64929 11.5304 6.68728 11.5191C6.72527 11.5077 6.76063 11.4889 6.79131 11.4638C6.822 11.4387 6.8474 11.4078 6.86606 11.3728C6.88472 11.3378 6.89625 11.2995 6.9 11.26C6.9 10.93 6.39 9.66998 5.78 5.56998C7 5.85998 9.29 3.57998 9 1.74998C12 1.17998 11.77 0.899984 13 0.859984C13.39 0.859984 14.35 0.639984 14.59 0.959984C14.69 1.08998 14.59 1.78998 14.64 1.95998C14.12 1.95998 11.4 2.11998 11.04 2.50998C10.6956 3.07904 10.5221 3.73508 10.54 4.39998C10.48 4.85998 9.9 9.82998 9.98 10.27C9.98063 10.3167 9.99149 10.3628 10.0118 10.4049C10.0322 10.4469 10.0615 10.4841 10.0977 10.5136C10.1339 10.5432 10.1762 10.5644 10.2215 10.5759C10.2668 10.5874 10.3141 10.5888 10.36 10.58C10.52 10.58 11.21 5.99998 11.22 5.91998C11.6068 6.02548 12.0133 6.03602 12.405 5.95071C12.7968 5.8654 13.1621 5.68676 13.47 5.42998C13.8556 5.16348 14.175 4.81222 14.4038 4.40314C14.6326 3.99406 14.7647 3.53802 14.79 3.06998H17.27C17.175 3.45611 17.1668 3.85851 17.2459 4.2482C17.3251 4.63789 17.4896 5.00519 17.7277 5.32365C17.9659 5.64211 18.2717 5.90382 18.6231 6.08993C18.9745 6.27605 19.3628 6.38194 19.76 6.39998C19.56 6.89998 19.34 7.39998 19.11 7.90998L18.81 8.73998C18.68 9.13998 19.3 9.46998 19.47 9.07998C19.52 8.93998 19.43 9.16998 19.8 8.24998ZM5.68 4.88998C5.58 4.18998 5.39 3.25998 5.39 3.23998C5.3 2.51998 5.54 2.79998 6.21 2.51998C6.85476 2.25314 7.52483 2.05212 8.21 1.91998C8.07 2.69998 6.46 4.76998 5.68 4.88998ZM12.9 4.44998C11.64 5.44998 11.9 5.14998 11.34 5.22998C11.4226 4.61065 11.5394 3.99638 11.69 3.38998C11.78 3.38998 12.69 3.19998 14.08 3.10998C13.92 3.66998 13.2 4.19998 12.9 4.44998ZM18.81 4.81998C17.81 3.81998 17.98 3.22998 17.96 3.13998C18.77 3.13998 19.58 3.24998 20.37 3.32998C20.79 3.32998 20.2 5.21998 20.06 5.62998C19.572 5.4904 19.1368 5.20837 18.81 4.81998Z" fill="black"/>
<path fill-rule="evenodd" clip-rule="evenodd" d="M22.5399 14.8C22.2799 13.67 21.5899 12.8 20.4299 12.93C20.2899 12.69 20.8499 10.53 19.1699 9.78004C18.959 9.6771 18.7327 9.60953 18.4999 9.58004C18.0181 9.51024 17.5271 9.60916 17.1099 9.86004C16.5799 10.11 14.3399 10.78 14.3399 10.8C13.8699 10.92 9.3399 11.73 8.0699 11.8C6.6099 11.85 4.1899 11.65 5.1299 10.51C5.18261 10.4528 5.21187 10.3778 5.21187 10.3C5.21187 10.2222 5.18261 10.1473 5.1299 10.09C4.7399 9.76004 4.2699 10.63 4.2999 11.15C4.3699 12.44 6.8099 12.81 8.0999 12.86C12.2999 13.01 17.4399 10.78 17.6799 10.3C19.1799 10.55 19.5099 11.72 19.7499 13.3C19.2199 14.05 18.6099 13.67 16.9399 14.03C15.6899 14.3 14.9399 14.91 15.0099 16.19C15.0199 16.6551 15.1665 17.1069 15.4314 17.4892C15.6964 17.8715 16.068 18.1674 16.4999 18.34C16.794 18.4356 17.0949 18.5091 17.3999 18.56C18.2354 18.7432 19.1023 18.7261 19.9299 18.51C19.8299 21.29 19.5199 21.28 17.9299 21.82C15.3599 22.66 7.1699 23.55 4.9299 22.16C3.5499 21.4 3.3299 20 2.9999 18.57C2.54325 16.7027 2.28846 14.7918 2.2399 12.87C2.1899 9.80004 2.3999 9.77004 4.2399 8.44004C4.30045 8.38397 4.33854 8.30779 4.34706 8.2257C4.35559 8.14362 4.33396 8.06124 4.28623 7.99392C4.23849 7.9266 4.1679 7.87894 4.08762 7.85983C4.00734 7.84072 3.92285 7.85146 3.8499 7.89004C1.8499 9.28004 1.4899 9.50004 1.4299 12.89C1.40206 14.8717 1.59322 16.8504 1.9999 18.79C2.3699 20.58 2.6199 22.12 4.2399 23.13C7.4299 25.13 18.6999 23.38 20.0299 21.46C20.4811 20.4753 20.6574 19.3868 20.5399 18.31C21.2428 18.0678 21.8334 17.5779 22.2014 16.932C22.5695 16.2861 22.6898 15.5282 22.5399 14.8ZM17.6299 17.47C17.2377 17.434 16.8586 17.311 16.5199 17.11C15.9899 16.68 15.7899 15.6 16.3799 15.22C17.7799 14.33 19.5999 15.08 20.3799 13.6C20.4699 13.6 21.5399 13.29 21.7899 14.95C22.0499 17 19.5899 17.93 17.6299 17.47Z" fill="black"/>
<path fill-rule="evenodd" clip-rule="evenodd" d="M15.8697 9.19993C16.2287 9.05652 16.6133 8.98844 16.9997 8.99993C17.0897 9.50993 17.9997 9.30993 17.9297 8.90993C17.8397 8.18993 17.4097 7.98993 16.6697 7.90993C16.3033 7.8777 15.9348 7.94089 15.6001 8.09335C15.2654 8.24581 14.9759 8.48235 14.7597 8.77993C14.5632 9.12289 14.4694 9.51516 14.4897 9.90993C14.3997 10.2999 15.2997 10.2099 15.3097 9.84993C15.4997 9.39993 15.5997 9.31993 15.8697 9.19993Z" fill="black"/>
</g>
<defs>
<clipPath id="clip0_36_875">
<rect width="24" height="24" fill="white"/>
</clipPath>
</defs>
</svg>
