<svg width="24" height="24" viewBox="0 0 24 24" fill="none" xmlns="http://www.w3.org/2000/svg">
<g clip-path="url(#clip0_36_883)">
<path d="M23.6206 3.06001C24.1306 0.860012 19.9106 -0.459988 17.7806 0.150012C16.1206 0.670012 15.6206 1.91001 16.0806 2.95001C15.9223 3.5057 15.9391 4.09668 16.1288 4.64247C16.3185 5.18825 16.6718 5.66229 17.1406 6.00001C17.9774 6.53055 18.9503 6.8064 19.941 6.79397C20.9317 6.78154 21.8974 6.48138 22.7206 5.93001C22.6524 6.17888 22.5349 6.41154 22.3752 6.61422C22.2154 6.8169 22.0167 6.98549 21.7906 7.11001C21.3887 7.42397 20.9305 7.65818 20.4406 7.80001C20.3611 7.81062 20.289 7.8524 20.2402 7.91616C20.1915 7.97993 20.17 8.06045 20.1806 8.14001C20.1912 8.21958 20.233 8.29167 20.2968 8.34043C20.3605 8.38919 20.4411 8.41062 20.5206 8.40001C21.3591 8.46718 22.1936 8.22925 22.8706 7.73001C23.2215 7.41223 23.4662 6.99434 23.5717 6.53288C23.6773 6.07143 23.6385 5.5887 23.4606 5.15001C23.6465 4.83751 23.7576 4.48629 23.7854 4.12375C23.8132 3.76121 23.7568 3.39716 23.6206 3.06001ZM18.1206 1.19001C19.1752 0.904711 20.2895 0.929012 21.3306 1.26001C23.6706 1.95001 23.3306 3.35001 21.5506 3.75001C18.4006 4.47001 15.4406 2.13001 18.1206 1.19001ZM20.1206 5.65001C19.2929 5.68129 18.4698 5.51324 17.7206 5.16001C17.465 5.04001 17.2454 4.85487 17.0839 4.62318C16.9224 4.39149 16.8247 4.12139 16.8006 3.84001C17.7083 4.46239 18.7768 4.80868 19.877 4.83707C20.9772 4.86546 22.0621 4.57474 23.0006 4.00001C22.8306 5.25001 21.3906 5.62001 20.0806 5.65001H20.1206Z" fill="black"/>
<path d="M6.73005 5.82995C7.60005 8.08995 11.7301 8.38995 13.5501 6.68995C13.9119 6.35589 14.1632 5.91937 14.2704 5.43871C14.3776 4.95805 14.3356 4.45612 14.1501 3.99995C14.6601 1.79995 10.4401 0.479953 8.30005 1.08995C6.65005 1.60995 6.15005 2.84995 6.61005 3.88995C6.4798 4.53599 6.52117 5.20489 6.73005 5.82995ZM12.9401 5.99995C11.6901 6.99995 8.00005 6.86995 7.39005 5.24995C7.34618 5.10588 7.31276 4.95883 7.29005 4.80995C8.20694 5.44022 9.28823 5.78837 10.4006 5.81147C11.513 5.83457 12.6078 5.53161 13.5501 4.93995C13.5267 5.14909 13.4605 5.35117 13.3556 5.53355C13.2506 5.71594 13.1092 5.87472 12.9401 5.99995ZM11.8601 2.22995C14.2101 2.91995 13.8601 4.31995 12.0801 4.72995C10.8491 5.00307 9.5613 4.83679 8.44005 4.25995C6.20005 2.90995 8.76005 1.31995 11.8601 2.22995Z" fill="black"/>
<path d="M1.71061 12.2C1.79061 12.2 4.51061 11.33 4.59061 11.3C4.55465 11.331 4.5258 11.3693 4.50603 11.4125C4.48625 11.4556 4.47601 11.5025 4.47601 11.55C4.47601 11.5975 4.48625 11.6444 4.50603 11.6875C4.5258 11.7306 4.55465 11.769 4.59061 11.8C4.85061 12.08 4.26061 12.8 4.10061 12.99C3.80119 13.479 3.43043 13.9205 3.00061 14.3C2.68061 14.51 2.67061 14.18 2.56061 14.12C2.45061 14.06 2.14061 13.48 1.97061 13.42C1.80061 13.36 1.45061 13.62 1.67061 13.95C1.89061 14.28 2.11061 14.54 2.37061 14.88C4.13061 18.23 4.28061 18.67 4.77061 19.14C4.8975 19.2746 5.05379 19.378 5.22726 19.4422C5.40072 19.5063 5.58668 19.5296 5.77061 19.51C7.30061 19.42 19.6406 15.36 21.5206 14.51C21.6566 14.4589 21.7799 14.3787 21.8818 14.2751C21.9837 14.1715 22.0618 14.0469 22.1106 13.91C22.2606 12.98 17.3406 7.76999 15.8106 7.57999C14.8106 7.45999 4.31061 10.5 1.69061 11.58C1.63495 11.6114 1.58895 11.6575 1.55762 11.7132C1.52629 11.7689 1.51082 11.8322 1.51288 11.896C1.51494 11.9599 1.53446 12.022 1.56931 12.0756C1.60417 12.1292 1.65304 12.1722 1.71061 12.2ZM18.1106 14.55C18.5863 13.7582 19.1836 13.0462 19.8806 12.44C20.2125 12.7752 20.4953 13.1556 20.7206 13.57C20.0006 13.87 18.8506 14.28 18.1106 14.55ZM10.0006 9.83999C10.0906 9.83999 15.2306 8.51999 15.6706 8.57999C16.4306 8.68999 18.6706 11.15 19.2306 11.73C17.7006 12.44 17.0706 14.1 17.3506 14.81C16.4606 15.13 9.53061 17.55 7.95061 18.08C7.48061 15.86 3.83061 15.91 4.23061 16.81C4.24835 16.8714 4.28733 16.9246 4.34061 16.96C4.34061 16.96 4.97061 17.02 5.21061 17.13C5.96397 17.3585 6.6504 17.7669 7.21061 18.32C6.6612 18.526 6.08558 18.654 5.50061 18.7C5.10061 18.6 4.78061 17.91 3.12061 14.98C5.19061 14.58 6.12061 11.98 5.00061 11.27C4.91061 11.16 4.06061 11.38 10.0006 9.83999Z" fill="black"/>
<path d="M9.42974 13.33C9.85974 13.96 10.6797 13.83 11.4297 13.72C12.6397 13.53 12.7097 14.06 11.6697 14.41C11.3484 14.5215 11.0099 14.5757 10.6697 14.57C10.5796 14.5607 10.4894 14.5876 10.4191 14.6448C10.3487 14.702 10.304 14.7848 10.2947 14.875C10.2855 14.9651 10.3124 15.0553 10.3696 15.1256C10.4268 15.1959 10.5096 15.2407 10.5997 15.25C11.0668 15.3233 11.5441 15.296 11.9997 15.17C11.9997 15.5 12.8097 16.08 13.0897 15.91C13.3697 15.74 13.0897 14.85 13.0897 14.77V14.7C14.0097 13.94 13.3597 12.79 12.3697 12.57C11.7011 12.5489 11.032 12.5857 10.3697 12.68C10.0997 12.37 9.49974 11.87 11.6797 12.04C11.7593 12.0519 11.8403 12.0317 11.905 11.9839C11.9697 11.9361 12.0128 11.8645 12.0247 11.785C12.0367 11.7054 12.0165 11.6243 11.9687 11.5596C11.9209 11.4949 11.8493 11.4519 11.7697 11.44C11.3859 11.3488 10.994 11.2952 10.5997 11.28C10.3897 10.73 9.59974 10.36 9.34974 10.5C9.09974 10.64 9.34974 11.4 9.48974 11.62C9.31569 11.7941 9.19139 12.0116 9.12974 12.25C8.99974 12.6 9.23974 13 9.42974 13.33Z" fill="black"/>
<path d="M13.2198 10.07C13.7346 10.5843 14.3724 10.9582 15.0727 11.156C15.7729 11.3538 16.5121 11.369 17.2198 11.2C17.31 11.2 17.3965 11.1642 17.4602 11.1005C17.524 11.0367 17.5598 10.9502 17.5598 10.86C17.5598 10.7699 17.524 10.6834 17.4602 10.6196C17.3965 10.5559 17.31 10.5201 17.2198 10.5201C15.9418 10.2865 14.7008 9.88289 13.5298 9.32005C13.1998 9.12005 12.5198 9.65005 13.2198 10.07Z" fill="black"/>
<path d="M3.18012 19.67C3.61752 20.3223 4.15009 20.9054 4.76012 21.4C6.76012 22.51 19.7601 17.3 21.9101 16.47C21.9842 16.4299 22.0413 16.3644 22.071 16.2856C22.1007 16.2069 22.101 16.12 22.0718 16.041C22.0426 15.962 21.9859 15.8962 21.9122 15.8556C21.8384 15.815 21.7525 15.8024 21.6701 15.82C20.6701 16.19 6.19012 20.99 5.22012 20.51C4.71985 20.1128 4.26986 19.6561 3.88012 19.15C2.82012 17.81 1.75012 15.25 1.24012 15.31C1.19468 15.3114 1.15014 15.3231 1.10987 15.3442C1.06961 15.3653 1.03467 15.3953 1.0077 15.4319C0.980732 15.4685 0.962433 15.5108 0.95419 15.5555C0.945947 15.6002 0.947975 15.6462 0.96012 15.69C1.6319 17.0536 2.37287 18.382 3.18012 19.67Z" fill="black"/>
<path d="M22.0002 18.07C20.8902 18.47 5.77018 23.44 4.65018 22.95C4.12624 22.56 3.65264 22.1065 3.24018 21.6C2.18018 20.34 1.29018 18.5 0.780182 17.93C0.550182 17.67 0.130182 17.81 0.210182 18.18C0.210182 18.36 0.660182 18.8 0.910182 19.29C1.04018 19.52 1.14018 19.77 1.25018 20.01C1.8414 21.1995 2.6102 22.292 3.53018 23.25C3.71412 23.522 3.97165 23.736 4.27268 23.867C4.57371 23.998 4.90581 24.0407 5.23018 23.99C9.23018 23.76 18.5402 20.15 22.2302 18.72C22.3019 18.6796 22.3571 18.6151 22.386 18.538C22.4149 18.4609 22.4156 18.3761 22.3882 18.2984C22.3607 18.2208 22.3067 18.1554 22.2358 18.1136C22.1648 18.0718 22.0814 18.0564 22.0002 18.07Z" fill="black"/>
</g>
<defs>
<clipPath id="clip0_36_883">
<rect width="24" height="24" fill="white"/>
</clipPath>
</defs>
</svg>
