<svg width="517" height="512" viewBox="0 0 517 512" fill="none" xmlns="http://www.w3.org/2000/svg">
<g clip-path="url(#clip0_120_2134)">
<path d="M117.513 80.045C103.422 88.1831 89.9834 102.563 89.9834 102.563C89.6661 102.901 89.496 103.351 89.5106 103.815C89.5253 104.279 89.7234 104.718 90.0614 105.035C90.3995 105.353 90.8499 105.523 91.3135 105.509C91.7771 105.495 92.216 105.297 92.534 104.959C92.534 104.959 105.895 90.7982 119.264 83.0763C119.666 82.8439 119.959 82.4616 120.079 82.0133C120.199 81.565 120.135 81.0874 119.903 80.6856C119.788 80.4866 119.635 80.3121 119.453 80.1722C119.271 80.0323 119.063 79.9297 118.841 79.8702C118.619 79.8107 118.387 79.7955 118.159 79.8255C117.931 79.8555 117.712 79.9301 117.513 80.045Z" fill="black"/>
<path d="M117.165 148.15C117.165 148.15 113.891 151.24 112.339 153.818C112.1 154.216 112.029 154.692 112.141 155.142C112.253 155.593 112.539 155.98 112.936 156.219C113.133 156.337 113.351 156.416 113.579 156.451C113.806 156.485 114.038 156.474 114.261 156.419C114.484 156.363 114.694 156.265 114.879 156.128C115.064 155.992 115.22 155.82 115.339 155.623C116.327 153.982 119.612 150.65 119.612 150.65C119.944 150.326 120.133 149.883 120.138 149.419C120.143 148.955 119.964 148.508 119.639 148.176C119.314 147.844 118.871 147.656 118.407 147.651C117.943 147.646 117.496 147.826 117.165 148.15Z" fill="black"/>
<path d="M136.841 180.453C136.378 180.431 135.925 180.594 135.581 180.906C135.581 180.906 134.402 181.979 133.048 183.291C131.694 184.603 130.209 186.069 129.343 187.262C129.208 187.448 129.111 187.659 129.057 187.882C129.003 188.106 128.994 188.338 129.03 188.565C129.067 188.792 129.147 189.01 129.268 189.206C129.388 189.402 129.545 189.572 129.732 189.707C130.107 189.979 130.576 190.091 131.034 190.019C131.492 189.946 131.902 189.694 132.175 189.318C132.659 188.651 134.175 187.073 135.484 185.805C136.792 184.536 137.937 183.494 137.937 183.494C138.28 183.182 138.485 182.746 138.507 182.283C138.529 181.82 138.366 181.367 138.054 181.023C137.899 180.853 137.712 180.716 137.504 180.618C137.296 180.52 137.071 180.464 136.841 180.453Z" fill="black"/>
<path d="M120.142 240.273L117.202 242.984C116.861 243.299 116.659 243.736 116.64 244.2C116.621 244.664 116.787 245.116 117.102 245.457C117.417 245.798 117.854 246 118.318 246.019C118.781 246.038 119.234 245.872 119.575 245.557L122.514 242.848C122.855 242.534 123.058 242.097 123.077 241.633C123.096 241.169 122.93 240.717 122.616 240.375C122.46 240.206 122.273 240.069 122.064 239.972C121.855 239.876 121.629 239.821 121.4 239.812C121.17 239.802 120.94 239.838 120.724 239.917C120.508 239.997 120.311 240.117 120.142 240.273Z" fill="black"/>
<path d="M128.272 278.014C128.272 278.014 126.176 279.725 123.915 281.752C122.784 282.765 121.61 283.859 120.614 284.883C119.618 285.906 118.816 286.757 118.297 287.777C118.193 287.982 118.13 288.206 118.113 288.435C118.095 288.664 118.122 288.894 118.194 289.113C118.265 289.332 118.379 289.534 118.528 289.709C118.678 289.883 118.86 290.027 119.065 290.131C119.27 290.235 119.493 290.298 119.723 290.316C119.952 290.333 120.182 290.306 120.401 290.235C120.619 290.163 120.822 290.05 120.996 289.9C121.171 289.751 121.314 289.568 121.419 289.363C121.52 289.164 122.218 288.254 123.124 287.324C124.029 286.394 125.156 285.339 126.251 284.357C128.44 282.395 130.485 280.726 130.485 280.726C130.663 280.581 130.811 280.402 130.92 280.2C131.028 279.997 131.096 279.775 131.119 279.546C131.142 279.318 131.12 279.087 131.054 278.867C130.988 278.647 130.879 278.442 130.733 278.264C130.44 277.904 130.016 277.676 129.554 277.629C129.093 277.582 128.632 277.721 128.272 278.014Z" fill="black"/>
<path d="M16.7804 405.219C9.88673 408.018 0.80973 413.824 0.80973 413.824C0.418665 414.073 0.142488 414.468 0.0417856 414.92C-0.0589172 415.373 0.0240766 415.847 0.272621 416.238C0.395825 416.432 0.556069 416.6 0.744178 416.732C0.932287 416.865 1.14457 416.958 1.36893 417.008C1.59329 417.058 1.82536 417.064 2.0518 417.024C2.27823 416.985 2.49462 416.901 2.68864 416.777C2.68864 416.777 11.7905 411.022 18.0968 408.461C18.5267 408.286 18.8696 407.948 19.0502 407.521C19.2308 407.093 19.2342 406.612 19.0597 406.182C18.8851 405.752 18.5468 405.409 18.1194 405.228C17.692 405.048 17.2104 405.044 16.7804 405.219Z" fill="black"/>
<path d="M54.32 432.465C54.32 432.465 45.896 435.828 36.1071 440.807C26.3182 445.785 15.1674 452.267 9.37272 459.121C9.07357 459.475 8.92729 459.934 8.9661 460.396C9.00492 460.859 9.22568 461.286 9.57975 461.586C9.75517 461.734 9.95812 461.847 10.177 461.917C10.396 461.987 10.6266 462.013 10.8556 461.994C11.0847 461.975 11.3078 461.911 11.5121 461.806C11.7165 461.701 11.8981 461.556 12.0465 461.381C17.0819 455.425 28.0594 448.825 37.693 443.926C47.3266 439.026 55.6188 435.715 55.6188 435.715C56.0497 435.543 56.3947 435.206 56.5778 434.78C56.7609 434.354 56.7672 433.872 56.5954 433.441C56.5102 433.228 56.3838 433.033 56.2233 432.868C56.0628 432.704 55.8714 432.572 55.6601 432.481C55.4488 432.391 55.2217 432.343 54.9917 432.34C54.7618 432.337 54.5335 432.379 54.32 432.465Z" fill="black"/>
<path d="M62.2907 465.162C61.9278 464.873 61.465 464.74 61.0038 464.792C60.5427 464.844 60.1211 465.077 59.8317 465.439L54.8415 471.699C54.5522 472.062 54.419 472.525 54.471 472.986C54.523 473.447 54.756 473.869 55.1188 474.158C55.4817 474.447 55.9447 474.581 56.4058 474.529C56.8669 474.477 57.2885 474.244 57.5778 473.881L62.568 467.621C62.8573 467.258 62.9905 466.795 62.9385 466.334C62.8865 465.873 62.6535 465.451 62.2907 465.162Z" fill="black"/>
<path d="M206.431 421.402C206.206 421.352 205.974 421.347 205.748 421.386C205.521 421.426 205.305 421.509 205.11 421.633L201.392 423.992C201.197 424.115 201.029 424.275 200.897 424.463C200.765 424.651 200.671 424.864 200.62 425.088C200.57 425.312 200.565 425.544 200.604 425.771C200.644 425.997 200.727 426.214 200.851 426.408C200.974 426.602 201.134 426.77 201.322 426.902C201.51 427.034 201.723 427.128 201.947 427.178C202.171 427.228 202.403 427.234 202.63 427.194C202.856 427.154 203.073 427.071 203.267 426.947L206.985 424.588C207.18 424.465 207.348 424.305 207.48 424.117C207.612 423.929 207.706 423.716 207.757 423.492C207.807 423.268 207.812 423.036 207.773 422.809C207.733 422.583 207.65 422.366 207.526 422.172C207.278 421.78 206.884 421.503 206.431 421.402Z" fill="black"/>
<path d="M244.234 439.367L216.025 454.918C215.619 455.142 215.318 455.518 215.189 455.964C215.06 456.41 215.113 456.889 215.337 457.295C215.562 457.701 215.938 458.002 216.384 458.131C216.829 458.26 217.308 458.206 217.714 457.982L245.923 442.434C246.125 442.323 246.303 442.173 246.446 441.993C246.59 441.814 246.696 441.608 246.76 441.387C246.824 441.166 246.844 440.934 246.818 440.706C246.793 440.477 246.722 440.256 246.611 440.055C246.387 439.648 246.01 439.348 245.565 439.219C245.119 439.09 244.64 439.143 244.234 439.367Z" fill="black"/>
<path d="M242.769 502.801C242.305 502.785 241.854 502.953 241.515 503.27L235.425 508.951C235.086 509.268 234.886 509.706 234.87 510.17C234.854 510.633 235.023 511.085 235.339 511.424C235.656 511.763 236.094 511.963 236.558 511.979C237.021 511.995 237.472 511.826 237.812 511.51L243.902 505.83C244.241 505.514 244.441 505.076 244.458 504.612C244.474 504.148 244.306 503.697 243.99 503.357C243.833 503.189 243.644 503.053 243.435 502.958C243.225 502.862 242.999 502.809 242.769 502.801Z" fill="black"/>
<path d="M224.724 107.965C224.498 107.92 224.266 107.919 224.041 107.964C223.815 108.008 223.601 108.097 223.409 108.225C223.023 108.482 222.755 108.882 222.664 109.337C222.573 109.792 222.666 110.264 222.923 110.65C226.274 115.682 232.631 117.785 241.689 116.369C241.916 116.334 242.134 116.254 242.33 116.134C242.526 116.014 242.697 115.857 242.832 115.671C242.968 115.486 243.066 115.275 243.12 115.051C243.174 114.828 243.183 114.596 243.148 114.369C243.076 113.911 242.824 113.5 242.449 113.227C242.074 112.953 241.606 112.84 241.148 112.912C232.805 114.216 228.345 112.479 225.835 108.711C225.578 108.325 225.179 108.056 224.724 107.965Z" fill="black"/>
<path d="M239.792 76.8925C239.57 76.9487 239.36 77.0481 239.176 77.1853C238.991 77.3225 238.835 77.4948 238.717 77.6921C238.6 77.8894 238.522 78.108 238.488 78.3354C238.455 78.5629 238.467 78.7947 238.523 79.0175C239.861 84.3343 242.059 88.4631 245.197 91.291C248.335 94.1189 252.374 95.549 256.984 95.6406C257.214 95.6453 257.442 95.6046 257.656 95.521C257.87 95.4373 258.066 95.3123 258.232 95.153C258.397 94.9938 258.53 94.8033 258.623 94.5927C258.715 94.3822 258.764 94.1556 258.769 93.9258C258.774 93.6959 258.733 93.4675 258.649 93.2534C258.566 93.0393 258.441 92.8437 258.281 92.6779C258.122 92.5122 257.932 92.3793 257.721 92.2871C257.511 92.1949 257.284 92.1452 257.054 92.1406C253.104 92.0616 250.023 90.9265 247.54 88.6894C245.058 86.4523 243.137 83.0153 241.915 78.1621C241.802 77.7123 241.515 77.3259 241.117 77.0879C240.719 76.8498 240.242 76.7796 239.792 76.8925Z" fill="black"/>
<path d="M230.241 64.2099C228.771 64.3697 227.849 65.4859 227.274 66.6287C226.698 67.7715 226.33 69.1562 226.068 70.7892C225.544 74.0552 225.498 78.3059 226.002 82.9437C226.506 87.5814 227.464 91.7211 228.678 94.7982C229.284 96.3368 229.942 97.612 230.749 98.6044C231.557 99.5969 232.697 100.489 234.167 100.329C235.637 100.169 236.558 99.0533 237.134 97.9105C237.709 96.7677 238.077 95.3809 238.339 93.748C238.863 90.4821 238.91 86.2331 238.406 81.5955C237.901 76.9577 236.943 72.816 235.73 69.739C235.123 68.2005 234.466 66.9272 233.658 65.9348C232.851 64.9423 231.711 64.0502 230.241 64.2099ZM230.616 67.6661C230.382 67.6917 230.519 67.5851 230.962 68.1296C231.404 68.6737 231.971 69.6871 232.495 71.0159C233.543 73.6737 234.473 77.5894 234.949 81.9712C235.425 86.3529 235.359 90.377 234.906 93.1978C234.68 94.6082 234.344 95.7198 234.029 96.3462C233.713 96.9727 233.556 96.8966 233.791 96.8711C234.026 96.8455 233.89 96.9538 233.448 96.4093C233.005 95.8653 232.438 94.8519 231.914 93.523C230.866 90.8653 229.935 86.9498 229.458 82.568C228.982 78.1861 229.051 74.1621 229.503 71.3412C229.729 69.9308 230.066 68.8191 230.381 68.1927C230.696 67.5663 230.851 67.6406 230.616 67.6661Z" fill="black"/>
<path d="M242.956 62.3242C241.809 62.4488 241.037 63.2534 240.577 64.0254C240.117 64.7973 239.834 65.6753 239.612 66.6894C239.17 68.7178 239.022 71.3012 239.165 74.2051C239.176 74.4335 239.232 74.6575 239.33 74.8643C239.428 75.071 239.565 75.2565 239.734 75.4102C239.904 75.5638 240.102 75.6824 240.317 75.7595C240.532 75.8366 240.761 75.8706 240.989 75.8594C241.218 75.848 241.442 75.7918 241.648 75.6938C241.855 75.5959 242.04 75.4582 242.194 75.2886C242.347 75.119 242.466 74.921 242.543 74.7056C242.619 74.4902 242.653 74.2616 242.642 74.0332C242.51 71.3591 242.673 68.9992 243.015 67.4336C243.132 66.8981 243.265 66.631 243.394 66.3223C243.666 66.7202 243.981 67.2305 244.302 68.0449C245.072 69.9989 245.77 72.9251 246.126 76.1973C246.482 79.4696 246.429 82.477 246.097 84.5508C245.953 85.4483 245.746 86.0562 245.56 86.5C245.53 86.457 245.515 86.445 245.484 86.3965C245.232 86.0096 244.837 85.7387 244.385 85.6431C243.934 85.5475 243.463 85.6351 243.076 85.8867C242.689 86.1385 242.418 86.5338 242.322 86.9853C242.227 87.4369 242.314 87.908 242.566 88.2949C242.778 88.621 243 88.933 243.273 89.2305C243.276 89.2338 243.28 89.2372 243.283 89.2405C243.905 89.9118 244.853 90.557 246.013 90.4319C247.334 90.2884 248.122 89.2973 248.588 88.3713C249.053 87.4452 249.335 86.3652 249.537 85.1057C249.941 82.5868 249.973 79.3529 249.59 75.8245C249.206 72.2961 248.48 69.1452 247.545 66.7717C247.077 65.585 246.57 64.5916 245.916 63.7873C245.262 62.9829 244.279 62.1849 242.959 62.3284L242.956 62.3242Z" fill="black"/>
<path d="M254.905 0.00976562C250.52 -0.0352344 246.584 2.02986 243.184 5.31836C239.785 8.60746 236.813 13.1387 234.057 18.4199C232.571 21.2602 230.49 24.7925 227.235 26.9805C223.98 29.1689 219.55 30.2386 212.493 27.834C204.991 25.2779 198.872 23.6484 193.501 23.248C188.13 22.8477 183.466 23.7331 179.259 26.1777C175.235 28.5065 167.015 34.771 166.735 47.9941C162.282 47.5318 147.783 46.8952 139.872 58.0469C138.981 59.3061 134.874 64.663 132.723 73.1523C130.573 81.6417 130.295 93.4336 136.481 107.904C137.597 110.504 141.239 117.961 147.944 124.477C154.65 130.992 164.584 136.534 177.708 134.738C181.971 134.156 185.174 131.952 187.304 129.275C189.433 126.599 190.559 123.484 190.962 120.783C191.167 119.408 191.279 118.302 190.475 117.201C190.074 116.651 189.393 116.281 188.825 116.176C188.257 116.07 187.789 116.132 187.356 116.215C185.627 116.549 184.011 117.378 182.399 117.555C179.461 117.884 176.477 116.567 173.997 114.373C171.517 112.179 169.646 109.13 169.001 106.602C168.102 103.083 167.715 99.2743 168.202 96.6602C168.445 95.3531 168.894 94.3862 169.438 93.8086C169.983 93.231 170.601 92.9141 171.776 92.9141C175.144 92.9141 178.277 94.5703 180.798 96.6016C183.318 98.6329 185.172 100.998 185.932 102.062C187.241 103.884 189.594 104.682 191.725 103.826C192.791 103.398 193.735 102.483 194.235 101.27C194.736 100.056 194.843 98.5921 194.573 96.8691C194.022 93.3611 191.916 88.6122 191.448 84.1797C191.214 81.9635 191.383 79.929 192.179 78.2578C192.974 76.587 194.367 75.1576 197.104 74.0781C203.829 71.4338 213.089 67.2755 222.139 64.543C231.19 61.8105 239.953 60.6792 245.366 63.3223C247.315 64.2745 249.483 64.8012 251.874 64.4531C254.265 64.1049 256.804 62.958 259.825 60.8828C262.942 58.7385 268.361 53.9629 272.937 47.8691C277.512 41.7752 281.298 34.3387 280.298 26.877C278.402 12.7519 267.898 0.1221 254.911 0L254.905 0.00976562ZM254.87 3.50977C265.542 3.60877 275.117 14.6593 276.821 27.3535C277.621 33.3117 274.429 40.0537 270.132 45.7773C265.834 51.5009 260.488 56.1821 257.835 58.0078C255.076 59.9026 253.006 60.7606 251.362 61C249.719 61.2393 248.426 60.935 246.896 60.1875C239.898 56.7706 230.479 58.3762 221.122 61.2012C211.765 64.0262 202.393 68.2463 195.817 70.832C192.431 72.1673 190.191 74.2871 189.013 76.7637C187.834 79.2403 187.687 81.9535 187.962 84.5586C188.512 89.7686 190.722 94.9499 191.11 97.4219C191.31 98.6939 191.174 99.5051 190.993 99.9453C190.811 100.385 190.634 100.501 190.417 100.588C189.983 100.762 189.122 100.518 188.771 100.029C187.88 98.7832 185.876 96.2107 182.985 93.8809C180.093 91.5497 176.26 89.4199 171.768 89.4199C169.803 89.4199 168.06 90.1661 166.884 91.4141C165.707 92.6622 165.077 94.2849 164.753 96.0254C164.105 99.5062 164.621 103.631 165.602 107.473C166.468 110.865 168.67 114.344 171.673 117C174.674 119.655 178.578 121.507 182.778 121.039C184.915 120.805 186.639 120.081 187.567 119.803C187.581 119.977 187.567 119.784 187.497 120.271C187.18 122.401 186.232 125.005 184.564 127.102C182.896 129.198 180.579 130.818 177.232 131.275C165.286 132.91 156.575 127.99 150.38 121.971C144.186 115.951 140.671 108.798 139.696 106.527C133.795 92.72 134.133 81.8335 136.115 74.0137C138.096 66.195 141.635 61.6123 142.726 60.0703C150.53 49.0734 168.134 51.6387 168.134 51.6387C168.39 51.679 168.651 51.6621 168.9 51.5891C169.148 51.5162 169.377 51.3891 169.571 51.2168C169.764 51.0445 169.917 50.8314 170.018 50.593C170.119 50.3546 170.166 50.0966 170.156 49.8379C169.615 36.5997 177.22 31.3992 181.013 29.2051C184.585 27.1297 188.377 26.3781 193.236 26.7402C198.094 27.1024 203.98 28.6344 211.358 31.1484C219.181 33.8137 225.075 32.6483 229.183 29.8867C233.29 27.1251 235.61 22.9925 237.153 20.043C239.808 14.9542 242.642 10.7113 245.612 7.83789C248.583 4.96439 251.58 3.47947 254.865 3.51367L254.87 3.50977Z" fill="black"/>
<path fill-rule="evenodd" clip-rule="evenodd" d="M190.139 87.0702L175.279 91.6601C174.159 91.3501 172.979 91.1701 171.769 91.1701C165.489 91.1701 165.419 99.6802 167.299 107.04C168.809 112.96 175.449 120.1 182.589 119.3C186.609 118.86 189.949 115.7 189.229 120.53C188.509 125.36 185.079 131.97 177.469 133.01C152.399 136.44 140.179 112.09 138.089 107.22C125.999 78.9401 139.319 61.8602 141.299 59.0602C149.869 46.9802 168.409 49.9101 168.409 49.9101C167.839 35.9601 176.129 30.0101 180.139 27.6901C187.919 23.1701 197.049 24.4202 211.929 29.4902C226.809 34.5602 232.579 25.0202 235.609 19.2302C241.019 8.86015 247.219 1.68018 254.889 1.76018C266.719 1.87018 276.759 13.71 278.559 27.12C280.359 40.54 264.599 55.4801 258.829 59.4501C253.049 63.4201 249.609 63.4602 246.129 61.7602C233.719 55.7002 209.759 67.2301 196.459 72.4601C189.199 75.3301 188.939 81.3702 190.139 87.0702Z" fill="black"/>
<path d="M226.892 73.8788L174.763 89.9882C174.543 90.0559 174.339 90.1664 174.162 90.3131C173.985 90.4599 173.838 90.6398 173.731 90.8432C173.623 91.0465 173.557 91.2692 173.536 91.4982C173.515 91.7272 173.538 91.958 173.606 92.1776C173.674 92.3972 173.785 92.6011 173.932 92.778C174.078 92.9548 174.259 93.101 174.462 93.2082C174.665 93.3153 174.888 93.3815 175.117 93.4027C175.346 93.424 175.576 93.3999 175.796 93.3319L227.925 77.2226C228.145 77.1548 228.349 77.0443 228.526 76.8976C228.703 76.7509 228.849 76.5707 228.957 76.3673C229.064 76.164 229.13 75.9415 229.152 75.7126C229.173 75.4836 229.149 75.2528 229.081 75.0331C229.013 74.8135 228.903 74.6096 228.756 74.4328C228.609 74.2559 228.429 74.1095 228.225 74.0024C228.022 73.8952 227.8 73.8292 227.571 73.808C227.342 73.7868 227.111 73.8108 226.892 73.8788Z" fill="black"/>
<path d="M186.661 125.313C186.431 125.324 186.206 125.381 185.999 125.479C185.791 125.578 185.604 125.716 185.45 125.887C185.139 126.231 184.978 126.685 185.001 127.148C185.025 127.611 185.231 128.046 185.575 128.357C185.575 128.357 187.158 129.764 188.44 132.844C189.723 135.924 190.622 140.545 188.815 146.924C188.689 147.37 188.745 147.849 188.972 148.254C189.198 148.659 189.576 148.958 190.023 149.084C190.469 149.21 190.947 149.154 191.353 148.928C191.758 148.701 192.056 148.324 192.183 147.877C194.196 140.766 193.219 135.215 191.671 131.498C190.123 127.781 187.923 125.762 187.923 125.762C187.579 125.451 187.125 125.289 186.661 125.313Z" fill="black"/>
<path d="M248.874 100.414C248.438 100.572 248.082 100.897 247.885 101.317C247.688 101.737 247.666 102.218 247.823 102.654C251.143 111.846 247.577 123.969 239.314 131.787C231.05 139.605 218.384 143.262 202.984 135.66C202.567 135.455 202.087 135.423 201.647 135.572C201.208 135.721 200.845 136.039 200.64 136.455C200.538 136.661 200.478 136.885 200.463 137.115C200.448 137.344 200.478 137.574 200.552 137.792C200.626 138.009 200.741 138.21 200.893 138.383C201.044 138.556 201.229 138.697 201.435 138.799C217.944 146.947 232.522 143.03 241.718 134.33C250.914 125.63 255.025 112.293 251.114 101.465C250.957 101.029 250.632 100.673 250.212 100.476C249.792 100.279 249.311 100.257 248.874 100.414Z" fill="black"/>
<path d="M196.925 172.15C182.58 172.021 175.702 185.021 175.702 185.021C175.485 185.432 175.44 185.911 175.577 186.355C175.713 186.799 176.02 187.17 176.431 187.387C176.841 187.604 177.321 187.649 177.764 187.512C178.208 187.376 178.579 187.068 178.796 186.658C178.796 186.658 184.677 175.541 196.892 175.65C205.603 175.734 221.212 180.857 237.128 191.793C239.674 193.542 245.286 197.493 251.501 200.869C257.716 204.246 264.457 207.212 270.083 206.518C279.322 205.387 290.87 206.61 290.87 206.61C290.972 206.622 291.074 206.625 291.177 206.62C291.177 206.62 292.945 206.348 294.811 208.655C296.665 210.946 298.531 216.3 296.749 228.114C296.582 228.24 296.183 228.462 295.612 228.678C294.469 229.111 292.656 229.547 290.419 229.922C285.945 230.673 279.744 231.224 273.015 231.627C265.854 232.061 254.509 235.017 239.462 232.178C224.415 229.339 205.751 220.744 184.673 197.645C184.518 197.475 184.331 197.338 184.123 197.24C183.915 197.142 183.69 197.087 183.46 197.076C183.23 197.066 183.001 197.1 182.785 197.178C182.569 197.257 182.37 197.377 182.2 197.532C182.03 197.687 181.893 197.873 181.795 198.082C181.697 198.29 181.642 198.515 181.631 198.745C181.621 198.974 181.656 199.204 181.734 199.42C181.812 199.636 181.932 199.835 182.087 200.004C203.569 223.546 223.011 232.636 238.811 235.617C254.612 238.599 266.856 235.508 273.226 235.122C280.016 234.715 286.285 234.165 291.001 233.374C293.359 232.978 295.32 232.533 296.852 231.954C297.619 231.664 298.282 231.348 298.87 230.901C299.458 230.454 300.046 229.795 300.19 228.862C302.115 216.368 300.311 209.887 297.534 206.454C294.758 203.021 290.942 203.129 290.942 203.129L291.249 203.139C291.249 203.139 279.537 201.842 269.657 203.051C265.723 203.537 259.159 201.052 253.175 197.801C247.191 194.551 241.708 190.698 239.114 188.917C222.751 177.674 206.919 172.255 196.931 172.159L196.925 172.15Z" fill="black"/>
<path d="M204.388 155.738C203.929 155.672 203.462 155.791 203.091 156.069C202.72 156.347 202.474 156.761 202.408 157.221C202.375 157.448 202.387 157.68 202.444 157.903C202.5 158.125 202.601 158.335 202.738 158.519C202.876 158.703 203.048 158.858 203.246 158.975C203.444 159.093 203.663 159.17 203.89 159.203C203.89 159.203 207.477 159.75 210.499 162.279C213.521 164.808 216.115 169.065 213.892 177.808C213.835 178.031 213.823 178.263 213.856 178.49C213.889 178.718 213.967 178.937 214.084 179.134C214.202 179.332 214.357 179.504 214.541 179.641C214.725 179.779 214.935 179.879 215.158 179.935C215.607 180.05 216.084 179.981 216.483 179.744C216.881 179.507 217.17 179.121 217.285 178.672C219.752 168.965 216.621 162.837 212.746 159.594C208.87 156.35 204.388 155.738 204.388 155.738Z" fill="black"/>
<path d="M195.49 151.937C171.235 158.843 156.112 186.175 149.529 197.744C140.652 213.344 136.762 230.008 135.579 244.436C134.397 258.863 135.89 271.009 137.964 277.894C140.046 284.815 143.909 288.865 148.63 290.303C153.351 291.741 158.605 290.671 163.712 288.434C191.123 276.436 205.645 259.001 210.517 253.139C213.26 249.832 214.279 245.819 214.271 242.117C214.261 238.415 213.278 234.995 211.786 232.535C210.779 230.874 210.077 227.73 209.759 225.092C209.441 222.454 209.431 220.334 209.431 220.334C209.43 220.104 209.384 219.877 209.295 219.665C209.206 219.453 209.076 219.26 208.913 219.099C208.75 218.937 208.556 218.809 208.343 218.722C208.131 218.635 207.903 218.591 207.673 218.592C207.209 218.594 206.765 218.78 206.438 219.11C206.111 219.439 205.929 219.885 205.931 220.35C205.931 220.35 205.941 222.66 206.285 225.512C206.629 228.364 207.231 231.771 208.794 234.35C209.873 236.129 210.764 239.065 210.771 242.125C210.781 245.185 209.95 248.341 207.824 250.904C202.955 256.762 188.997 273.546 162.308 285.228C157.646 287.271 153.186 288.032 149.65 286.955C146.113 285.878 143.174 283.068 141.316 276.889C139.44 270.665 137.92 258.747 139.07 244.725C140.219 230.702 144.008 214.53 152.572 199.48C159.168 187.89 174.205 161.641 196.451 155.307C196.897 155.179 197.274 154.88 197.5 154.475C197.725 154.069 197.781 153.591 197.654 153.144C197.526 152.698 197.227 152.321 196.822 152.095C196.416 151.87 195.938 151.814 195.492 151.941L195.49 151.937Z" fill="black"/>
<path d="M207.779 253.67C207.779 253.67 236.809 240.35 254.429 237.95C272.039 235.56 349.689 235.57 362.649 235.85C375.619 236.12 378.469 240.67 378.649 246.89C378.829 253.12 376.119 265.2 367.279 273.77C365.339 275.65 358.179 277.83 345.009 278.82C331.839 279.81 294.909 281.53 286.009 282.77C277.099 284.01 272.149 293.93 268.299 299.34C263.349 306.33 244.729 329.11 205.889 332.49C188.229 334.02 161.499 332.61 149.039 288.59C153.189 289.9 158.089 288.99 163.009 286.83C187.839 275.96 201.879 260.64 207.779 253.67Z" fill="black"/>
<path d="M362.685 234.102C356.129 233.96 333.512 233.887 310.263 234.148C287.013 234.41 263.338 234.976 254.193 236.217C235.97 238.699 207.048 252.08 207.048 252.08C206.815 252.187 206.609 252.344 206.443 252.539C200.61 259.429 186.807 274.502 162.308 285.227C157.614 287.287 153.119 288.041 149.568 286.92C149.267 286.825 148.946 286.813 148.638 286.886C148.331 286.958 148.049 287.113 147.823 287.333C147.596 287.553 147.433 287.83 147.351 288.134C147.269 288.439 147.271 288.761 147.357 289.064C153.675 311.385 163.775 323.246 174.681 329.158C185.587 335.071 197.091 335.008 206.042 334.232C245.506 330.798 264.613 307.573 269.726 300.353C273.751 294.697 278.514 285.582 286.248 284.506C290.479 283.916 302.022 283.16 314.007 282.451C325.992 281.743 338.505 281.065 345.136 280.566C351.793 280.066 356.958 279.266 360.769 278.33C364.58 277.394 366.994 276.483 368.494 275.029C377.795 266.012 380.591 253.644 380.394 246.842C380.297 243.477 379.381 240.129 376.556 237.793C373.732 235.457 369.369 234.243 362.683 234.103L362.685 234.102ZM362.611 237.6C368.894 237.73 372.439 238.927 374.328 240.488C376.216 242.05 376.815 244.086 376.898 246.941C377.062 252.599 374.437 264.391 366.058 272.514C365.617 272.941 363.48 274.059 359.935 274.93C356.389 275.801 351.39 276.585 344.877 277.074C338.338 277.566 325.8 278.246 313.802 278.955C301.805 279.664 290.433 280.387 285.765 281.037C275.681 282.44 270.546 293.162 266.871 298.326C262.081 305.09 243.95 327.419 205.738 330.744C197.03 331.498 186.336 331.497 176.347 326.082C166.8 320.906 157.74 310.648 151.592 290.816C155.5 291.195 159.649 290.214 163.71 288.432C188.552 277.556 202.707 262.31 208.806 255.139C209.319 254.906 237.797 241.981 254.662 239.684C263.127 238.535 287.083 237.909 310.3 237.648C333.518 237.387 356.204 237.461 362.609 237.599L362.611 237.6Z" fill="black"/>
<path d="M402.74 231.006C400.493 231.12 397.979 232.151 394.8 234.262C392.114 236.052 387.649 237.558 383.925 238.523C380.201 239.489 377.228 239.959 377.228 239.959C377.001 239.995 376.783 240.075 376.587 240.195C376.391 240.315 376.221 240.473 376.086 240.659C375.951 240.844 375.853 241.055 375.8 241.279C375.746 241.502 375.737 241.734 375.773 241.961C375.845 242.419 376.097 242.83 376.472 243.103C376.848 243.376 377.316 243.488 377.775 243.416C377.775 243.416 380.906 242.922 384.802 241.912C388.697 240.903 393.365 239.424 396.74 237.176C399.629 235.258 401.664 234.565 402.917 234.502C404.171 234.438 404.736 234.791 405.415 235.576C405.728 235.936 406.126 237.495 405.658 239.443C405.19 241.392 404.016 243.629 402.091 245.397C397.538 249.588 383.733 263.755 381.382 266.176C380.293 267.3 378.617 268.547 377.277 268.871C376.607 269.033 376.066 269.009 375.523 268.769C374.979 268.53 374.354 268.031 373.697 266.914C373.58 266.716 373.425 266.543 373.242 266.405C373.058 266.266 372.849 266.166 372.627 266.108C372.404 266.051 372.172 266.037 371.945 266.069C371.717 266.102 371.498 266.178 371.3 266.295C371.102 266.411 370.929 266.566 370.791 266.75C370.652 266.933 370.552 267.142 370.494 267.365C370.437 267.587 370.424 267.819 370.456 268.047C370.488 268.274 370.564 268.494 370.681 268.692C371.613 270.275 372.783 271.389 374.115 271.975C375.446 272.56 376.86 272.571 378.099 272.272C380.575 271.673 382.533 270.016 383.894 268.611C386.225 266.211 400.214 251.881 404.46 247.973C406.936 245.7 408.432 242.889 409.064 240.258C409.695 237.629 409.623 235.079 408.06 233.279C406.869 231.905 404.985 230.888 402.74 231.002V231.006Z" fill="black"/>
<path d="M384.551 264.039C384.325 263.998 384.093 264.002 383.869 264.05C383.644 264.099 383.431 264.191 383.242 264.322C383.053 264.452 382.892 264.619 382.767 264.812C382.643 265.005 382.557 265.221 382.516 265.447L348.149 454.914L270.063 495.547L265.614 327.795C266.016 327.191 269.213 322.418 274.483 316.49C280.095 310.178 287.767 303.044 295.618 299.68C295.829 299.589 296.02 299.458 296.181 299.293C296.341 299.129 296.468 298.934 296.553 298.72C296.638 298.507 296.681 298.279 296.678 298.049C296.675 297.819 296.626 297.592 296.536 297.381C296.353 296.954 296.008 296.618 295.578 296.445C295.147 296.273 294.665 296.278 294.239 296.461C285.52 300.197 277.651 307.657 271.866 314.164C266.08 320.671 262.385 326.299 262.385 326.299C262.189 326.598 262.089 326.949 262.098 327.307L266.639 498.438C266.647 498.734 266.731 499.024 266.881 499.279C267.032 499.535 267.245 499.748 267.501 499.898C267.756 500.049 268.046 500.132 268.342 500.14C268.639 500.148 268.933 500.08 269.196 499.943L350.526 457.623C350.763 457.5 350.968 457.324 351.127 457.109C351.285 456.894 351.392 456.646 351.44 456.383L385.96 266.072C386.042 265.616 385.94 265.145 385.676 264.764C385.412 264.383 385.008 264.122 384.551 264.039Z" fill="black"/>
<path d="M365.56 207.039C363.154 206.762 360.909 207.284 358.985 207.787C355.517 208.703 346.827 210.008 346.827 210.008C346.6 210.041 346.381 210.119 346.184 210.237C345.987 210.355 345.815 210.511 345.678 210.695C345.541 210.879 345.441 211.089 345.385 211.312C345.329 211.535 345.317 211.767 345.351 211.994C345.384 212.221 345.463 212.44 345.581 212.637C345.699 212.835 345.855 213.007 346.039 213.143C346.224 213.28 346.434 213.38 346.657 213.435C346.88 213.491 347.112 213.502 347.339 213.469C347.339 213.469 355.84 212.236 359.874 211.172H359.884C361.708 210.695 363.532 210.327 365.167 210.516C366.804 210.704 368.294 211.337 369.863 213.25C371.586 215.357 372.756 217.562 372.874 218.594C372.933 219.11 372.884 219.171 372.736 219.309C372.591 219.446 372.065 219.744 370.867 219.813C370.403 219.839 369.97 220.049 369.661 220.395C369.352 220.742 369.193 221.197 369.22 221.66C369.247 222.123 369.457 222.557 369.803 222.866C370.15 223.175 370.604 223.333 371.068 223.307C372.745 223.211 374.141 222.806 375.152 221.842C376.162 220.878 376.493 219.437 376.351 218.195C376.067 215.712 374.488 213.376 372.572 211.033C370.5 208.507 367.975 207.318 365.57 207.041L365.56 207.039Z" fill="black"/>
<path d="M365.431 213.326C365.265 213.167 365.07 213.042 364.855 212.959C364.641 212.875 364.413 212.835 364.183 212.84C363.953 212.845 363.727 212.895 363.516 212.987C363.306 213.08 363.116 213.213 362.957 213.379C362.797 213.545 362.672 213.74 362.589 213.955C362.505 214.169 362.465 214.397 362.469 214.627C362.474 214.857 362.524 215.083 362.616 215.294C362.709 215.504 362.842 215.695 363.008 215.854C363.008 215.854 364.515 217.299 366.183 218.992C367.852 220.685 369.76 222.786 370.176 223.42C370.707 224.232 370.88 224.899 370.888 225.236C370.898 225.574 370.86 225.494 370.878 225.479C370.875 225.479 370.872 225.479 370.868 225.479C370.914 225.448 370.89 225.556 370.333 225.356C369.777 225.156 368.86 224.605 367.751 223.602C365.366 221.432 360.355 216.58 360.355 216.58C360.19 216.42 359.994 216.295 359.781 216.21C359.567 216.126 359.339 216.084 359.109 216.088C358.879 216.092 358.652 216.141 358.441 216.232C358.231 216.324 358.04 216.456 357.88 216.621C357.72 216.786 357.594 216.981 357.51 217.195C357.425 217.408 357.383 217.637 357.387 217.867C357.391 218.096 357.439 218.323 357.531 218.534C357.622 218.745 357.754 218.936 357.919 219.096C357.919 219.096 362.903 223.922 365.4 226.194C366.729 227.397 367.936 228.211 369.151 228.649C370.366 229.085 371.76 229.104 372.835 228.375C373.894 227.66 374.413 226.362 374.384 225.149C374.355 223.933 373.897 222.717 373.099 221.498C372.184 220.103 370.382 218.266 368.673 216.531C366.964 214.797 365.427 213.322 365.427 213.322L365.431 213.326Z" fill="black"/>
<path d="M352.735 219.553C352.558 219.406 352.354 219.295 352.134 219.228C351.915 219.16 351.684 219.136 351.455 219.157C351.226 219.179 351.004 219.245 350.8 219.352C350.597 219.46 350.417 219.606 350.27 219.783C350.124 219.96 350.013 220.165 349.946 220.384C349.878 220.604 349.854 220.835 349.876 221.064C349.897 221.293 349.964 221.515 350.072 221.718C350.179 221.921 350.326 222.102 350.503 222.248C350.503 222.248 352.918 224.249 355.743 226.457C358.568 228.665 361.636 231.02 363.649 232.033C365.656 233.051 367.982 233.059 369.37 231.584C370.759 230.108 370.78 227.9 369.962 225.668C369.883 225.452 369.762 225.254 369.606 225.085C369.451 224.916 369.263 224.779 369.055 224.682C368.846 224.585 368.62 224.531 368.391 224.521C368.161 224.512 367.932 224.548 367.716 224.627C367.5 224.706 367.302 224.827 367.132 224.982C366.963 225.138 366.827 225.326 366.73 225.534C366.633 225.743 366.579 225.969 366.569 226.198C366.56 226.428 366.596 226.657 366.675 226.873C367.227 228.381 366.912 229.089 366.821 229.186C366.73 229.282 366.434 229.521 365.231 228.91C365.228 228.91 365.225 228.91 365.221 228.91C364.014 228.303 360.675 225.875 357.895 223.703C355.115 221.531 352.731 219.557 352.731 219.557L352.735 219.553Z" fill="black"/>
<path d="M320.529 217.9C319.116 217.928 317.672 218.05 316.218 218.269C311.58 218.976 298.89 220.818 298.89 220.818C298.431 220.885 298.017 221.131 297.739 221.503C297.462 221.875 297.343 222.342 297.41 222.801C297.476 223.26 297.722 223.674 298.094 223.951C298.466 224.229 298.933 224.348 299.392 224.281C299.392 224.281 312.058 222.444 316.742 221.73C321.926 220.948 327.126 221.688 330.179 223.141C333.984 224.961 340.078 226.906 344.4 226.262C344.595 226.233 345.516 226.383 346.613 226.898C347.71 227.414 348.998 228.202 350.249 229.043C351.501 229.884 352.722 230.775 353.753 231.514C354.785 232.252 355.434 232.795 356.363 233.172C357.564 233.656 359.211 234.076 361.021 233.617C361.926 233.388 363 232.748 363.46 231.617C363.921 230.486 363.728 229.256 363.193 227.975C363.104 227.762 362.975 227.57 362.812 227.408C362.649 227.246 362.456 227.117 362.243 227.03C362.031 226.942 361.803 226.898 361.573 226.898C361.343 226.899 361.116 226.945 360.904 227.033C360.692 227.122 360.499 227.251 360.337 227.414C360.175 227.577 360.046 227.77 359.959 227.983C359.872 228.195 359.827 228.423 359.827 228.653C359.828 228.883 359.874 229.11 359.962 229.322C360.298 230.126 360.182 230.385 360.218 230.297C360.254 230.208 360.4 230.164 360.161 230.225C359.684 230.346 358.186 230.131 357.675 229.926C357.754 229.958 356.795 229.388 355.786 228.666C354.778 227.944 353.525 227.027 352.197 226.135C350.868 225.243 349.47 224.374 348.097 223.729C346.724 223.083 345.393 222.571 343.878 222.797C341.361 223.172 334.899 221.52 331.683 219.981C328.707 218.565 324.767 217.816 320.53 217.901L320.529 217.9Z" fill="black"/>
<path d="M358.431 201.719C357.518 201.688 356.539 201.84 355.56 202.289C353.052 203.438 347.626 204.305 343.761 205.82C338.066 208.066 327.153 207.442 317.833 206.961C308.532 206.501 296.351 205.91 296.351 205.91C296.121 205.899 295.892 205.934 295.675 206.011C295.459 206.089 295.26 206.208 295.09 206.363C294.92 206.517 294.782 206.704 294.684 206.912C294.586 207.119 294.53 207.345 294.519 207.574C294.508 207.804 294.542 208.033 294.619 208.249C294.697 208.466 294.817 208.665 294.971 208.835C295.126 209.005 295.312 209.143 295.52 209.241C295.728 209.339 295.953 209.395 296.183 209.406C296.183 209.406 308.361 209.997 317.659 210.457C326.92 210.935 337.866 211.912 345.052 209.078C348.227 207.833 353.558 207.06 357.03 205.469C358.062 204.996 358.671 205.12 359.589 205.496C360.507 205.872 361.542 206.62 362.888 207.162C363.101 207.248 363.329 207.291 363.559 207.289C363.789 207.286 364.016 207.239 364.228 207.148C364.439 207.058 364.631 206.927 364.792 206.763C364.952 206.599 365.079 206.404 365.165 206.191C365.338 205.761 365.333 205.28 365.151 204.853C364.97 204.426 364.626 204.089 364.196 203.916C363.432 203.608 362.342 202.84 360.915 202.256C360.202 201.963 359.357 201.748 358.444 201.717L358.431 201.719Z" fill="black"/>
<path d="M507.71 157.311C472.605 157.676 454.045 158.316 442.71 159.662C431.375 161.009 427.102 163.196 421.476 166.287C418.122 168.129 407.965 174.356 394.944 182.43C381.924 190.504 366.13 200.377 351.829 209.338C351.436 209.585 351.157 209.977 351.053 210.429C350.95 210.882 351.03 211.357 351.276 211.75C351.523 212.143 351.916 212.422 352.368 212.526C352.82 212.63 353.295 212.549 353.688 212.303C367.987 203.343 383.778 193.473 396.79 185.404C409.802 177.336 420.125 171.021 423.161 169.354C428.764 166.275 432.107 164.447 443.124 163.139C454.141 161.83 472.672 161.175 507.747 160.811C509.434 160.792 510.738 160.957 511.554 161.242C512.369 161.528 512.655 161.805 512.862 162.273C513.276 163.21 513.01 165.98 510.794 170.719C504.652 183.846 500.829 191.078 497.616 195.617C494.403 200.157 491.849 202.063 487.729 204.887C483.779 207.598 457.133 224.656 431.671 240.898C406.208 257.141 381.782 272.674 381.782 272.674C381.588 272.797 381.42 272.957 381.288 273.146C381.156 273.334 381.062 273.546 381.012 273.77C380.962 273.995 380.957 274.227 380.996 274.453C381.036 274.679 381.12 274.896 381.243 275.09C381.367 275.284 381.527 275.452 381.715 275.584C381.903 275.715 382.115 275.809 382.34 275.859C382.564 275.909 382.796 275.914 383.023 275.874C383.249 275.834 383.465 275.75 383.659 275.627C383.659 275.627 408.089 260.094 433.554 243.85C459.019 227.605 485.37 210.752 489.71 207.773C493.891 204.907 497.011 202.534 500.476 197.639C503.94 192.743 507.798 185.384 513.966 172.201C516.319 167.17 517.321 163.7 516.065 160.859C515.438 159.439 514.156 158.443 512.712 157.938C511.268 157.432 509.62 157.289 507.712 157.311H507.71ZM332.858 221.248C320.517 228.999 311.974 234.391 311.974 234.391C311.581 234.639 311.303 235.032 311.201 235.485C311.099 235.938 311.181 236.412 311.429 236.805C311.677 237.197 312.07 237.475 312.523 237.577C312.976 237.679 313.45 237.597 313.843 237.35C313.843 237.35 322.381 231.962 334.72 224.213C334.914 224.091 335.083 223.931 335.216 223.744C335.349 223.556 335.444 223.344 335.496 223.12C335.547 222.896 335.553 222.664 335.514 222.437C335.476 222.21 335.393 221.994 335.27 221.799C335.024 221.406 334.631 221.127 334.178 221.024C333.726 220.921 333.251 221.001 332.858 221.248Z" fill="black"/>
<path fill-rule="evenodd" clip-rule="evenodd" d="M312.908 235.87C312.908 235.87 321.448 230.48 333.788 222.73L312.908 235.87Z" fill="black"/>
<path d="M221.815 161.592C221.626 161.461 221.413 161.369 221.189 161.32C220.964 161.271 220.732 161.268 220.506 161.309C220.279 161.35 220.064 161.435 219.87 161.56C219.677 161.685 219.51 161.846 219.38 162.035C219.116 162.417 219.015 162.887 219.098 163.344C219.181 163.8 219.442 164.205 219.823 164.469C219.823 164.469 227.982 170.116 237.612 176.443C247.242 182.77 258.246 189.746 264.386 192.58C276.546 198.189 291.042 198.986 298.688 201.021C306.964 203.227 321.596 205.266 331.956 204.687C342.077 204.112 350.165 202.859 350.165 202.859C350.623 202.788 351.034 202.538 351.308 202.164C351.582 201.789 351.696 201.322 351.626 200.863C351.591 200.636 351.511 200.418 351.392 200.221C351.272 200.025 351.116 199.854 350.93 199.718C350.744 199.582 350.534 199.484 350.31 199.429C350.087 199.375 349.855 199.365 349.628 199.4C349.628 199.4 341.697 200.628 331.759 201.193C322.058 201.735 307.371 199.713 299.587 197.639C291.154 195.394 277.149 194.611 265.85 189.4C260.27 186.824 249.123 179.819 239.534 173.519C229.944 167.219 221.815 161.592 221.815 161.592Z" fill="black"/>
<path fill-rule="evenodd" clip-rule="evenodd" d="M455.909 160.34C462.069 159.99 469.619 159.72 479.029 159.5C479.029 159.5 457.169 177.42 452.339 181.49C435.739 195.47 425.549 197.9 419.599 197.63C413.639 197.36 412.179 192.89 415.609 190.89C421.669 187.37 455.909 160.34 455.909 160.34Z" fill="black"/>
<path d="M143.492 381.721C143.099 381.474 142.625 381.392 142.173 381.495C141.72 381.597 141.327 381.875 141.08 382.268C141.08 382.268 130.603 398.877 119.244 418.066C107.884 437.256 95.6806 458.834 92.0033 469.584C91.5794 470.821 90.9295 471.925 90.2826 472.67C89.6627 473.383 89.0747 473.639 88.9545 473.67C88.9325 473.647 88.8895 473.628 88.7885 473.371C88.5321 472.716 88.3127 471.128 88.5697 468.619C89.1202 463.196 89.9427 450.368 90.7338 438.283C91.1294 432.241 91.5166 426.394 91.8529 421.793C92.1887 417.198 92.5103 413.684 92.6498 412.904C92.6498 412.884 93.3118 409.352 97.2104 404.262C101.12 399.157 108.247 392.682 121.23 387.486C121.66 387.314 122.005 386.978 122.188 386.551C122.37 386.125 122.376 385.644 122.205 385.213C122.119 385 121.993 384.805 121.832 384.64C121.671 384.476 121.48 384.345 121.269 384.254C121.057 384.164 120.83 384.116 120.6 384.113C120.371 384.11 120.142 384.153 119.929 384.238C106.422 389.643 98.7241 396.528 94.4311 402.133C90.1381 407.738 89.2123 412.246 89.2123 412.246C89.2089 412.254 89.2056 412.263 89.2023 412.271C88.9465 413.693 88.6944 416.917 88.3566 421.539C88.0188 426.16 87.6332 432.01 87.2376 438.054C86.4462 450.142 85.6128 463.049 85.0833 468.265C84.7955 471.076 84.9122 473.083 85.5247 474.648C85.831 475.431 86.2935 476.129 86.9739 476.611C87.6542 477.093 88.525 477.279 89.2843 477.193C90.8029 477.022 91.9314 476.105 92.9211 474.966C93.9107 473.827 94.7436 472.371 95.3097 470.718C98.6724 460.888 110.921 438.991 122.251 419.851C133.581 400.711 144.034 384.136 144.034 384.136C144.157 383.942 144.24 383.725 144.279 383.499C144.318 383.272 144.312 383.04 144.261 382.816C144.21 382.592 144.116 382.38 143.983 382.192C143.85 382.005 143.682 381.845 143.487 381.722L143.492 381.721Z" fill="black"/>
<path d="M165.161 324.596C164.709 324.491 164.234 324.571 163.841 324.816C163.841 324.816 153.301 331.412 142.298 338.273C131.294 345.135 119.659 352.358 118.016 353.303C118.281 353.15 117.803 353.369 117.153 353.482C116.504 353.596 115.586 353.716 114.454 353.84C112.19 354.087 109.063 354.348 105.292 354.656C97.7484 355.273 87.6085 356.081 76.3602 357.375C53.8635 359.962 26.9586 364.455 7.23516 373.418C4.46916 374.674 2.70764 375.806 1.63164 377.221C1.09354 377.928 0.736679 378.767 0.717579 379.641C0.698579 380.514 1.0276 381.328 1.4793 381.949C2.3828 383.192 3.69074 383.915 5.12774 384.557C6.56474 385.198 8.16422 385.702 9.68242 386.111C12.3285 386.82 22.9894 390.461 33.8621 394.605C44.7339 398.749 56.1423 403.569 60.2371 406.279C69.3847 412.344 78.5008 416.56 90.9754 415.262C91.2041 415.238 91.4258 415.169 91.628 415.06C91.8302 414.951 92.0089 414.802 92.1539 414.624C92.2988 414.445 92.4072 414.24 92.4727 414.02C92.5383 413.8 92.5597 413.568 92.5359 413.34C92.5123 413.111 92.4439 412.889 92.3345 412.687C92.2251 412.485 92.0767 412.306 91.8982 412.161C91.7198 412.016 91.5146 411.908 91.2942 411.842C91.0739 411.777 90.8427 411.755 90.6141 411.779C79.0687 412.981 71.063 409.257 62.1707 403.361C57.2447 400.101 46.0505 395.507 35.1082 391.336C24.1658 387.165 13.8005 383.591 10.5867 382.73C9.17492 382.35 7.71726 381.881 6.54766 381.359C5.37806 380.837 4.52936 380.204 4.30156 379.891C4.18766 379.734 4.20757 379.721 4.20757 379.715C4.20767 379.705 4.19752 379.614 4.40862 379.338C4.82852 378.786 6.16537 377.743 8.67437 376.603C27.7009 367.957 54.3997 363.422 76.7504 360.851C87.9258 359.566 98.0209 358.762 105.571 358.144C109.346 357.836 112.481 357.576 114.825 357.32C115.996 357.192 116.967 357.066 117.749 356.93C118.53 356.793 119.023 356.758 119.752 356.338C121.83 355.143 133.135 348.105 144.141 341.242C155.148 334.379 165.688 327.783 165.688 327.783C165.883 327.661 166.052 327.502 166.186 327.315C166.319 327.128 166.414 326.916 166.466 326.692C166.518 326.468 166.525 326.236 166.487 326.01C166.449 325.783 166.367 325.566 166.245 325.371C165.998 324.978 165.605 324.699 165.153 324.596H165.161Z" fill="black"/>
<path fill-rule="evenodd" clip-rule="evenodd" d="M179.198 340.62C180.938 339.34 182.778 338.54 185.598 340.44C188.428 342.35 190.448 344.54 187.158 347.02C183.868 349.51 164.418 363.99 161.648 365.55C158.878 367.11 154.358 366.93 150.158 363.88C146.348 361.11 177.228 342.06 179.198 340.62Z" fill="black"/>
<path d="M264.743 346.793C264.288 346.704 263.816 346.8 263.431 347.059C263.431 347.059 241.65 361.732 217.876 377.523C194.102 393.315 168.195 410.298 160.452 414.645C143.596 424.093 130.582 424.474 119.103 420.947C118.883 420.88 118.652 420.856 118.423 420.877C118.194 420.899 117.972 420.966 117.769 421.073C117.566 421.181 117.386 421.327 117.239 421.504C117.093 421.682 116.983 421.886 116.915 422.105C116.848 422.325 116.824 422.556 116.846 422.785C116.867 423.014 116.934 423.237 117.042 423.44C117.15 423.643 117.296 423.823 117.474 423.969C117.651 424.116 117.855 424.226 118.075 424.293C130.356 428.066 144.661 427.509 162.165 417.697C170.382 413.084 196.026 396.238 219.812 380.439C243.597 364.641 265.386 349.963 265.386 349.963C265.77 349.704 266.037 349.302 266.126 348.847C266.215 348.392 266.119 347.92 265.86 347.535C265.732 347.344 265.567 347.181 265.376 347.054C265.184 346.927 264.969 346.839 264.743 346.795V346.793Z" fill="black"/>
</g>
<defs>
<clipPath id="clip0_120_2134">
<rect width="516.611" height="511.98" fill="white"/>
</clipPath>
</defs>
</svg>
