<svg width="241" height="151" viewBox="0 0 241 151" fill="none" xmlns="http://www.w3.org/2000/svg">
<path d="M154.934 41.0168H138.008L137.21 48.5492H155.413L154.934 41.0168Z" fill="black"/>
<path d="M156.421 55.1392H136.577L135.641 63.2992H156.982L156.421 55.1392Z" fill="black"/>
<path d="M157.594 70.2036H134.832L133.758 78.9914H158.238L157.594 70.2036Z" fill="black"/>
<path d="M158.897 86.21H132.493L131.247 95.3116H154.585L159.493 92.8008L158.897 86.21Z" fill="black"/>
<path d="M129.678 108.65L138.779 34.7385M154.786 34.7385L159.493 92.0159" stroke="black" stroke-width="2" stroke-linecap="round"/>
<path d="M135.798 34.7385H158.552" stroke="black" stroke-width="2" stroke-linecap="round"/>
<path d="M135.798 20.616H158.552" stroke="black" stroke-width="2" stroke-linecap="round"/>
<path d="M139.094 24.0686V30.0317" stroke="black" stroke-width="2" stroke-linecap="round"/>
<path d="M154.472 24.0686V30.0317" stroke="black" stroke-width="2" stroke-linecap="round"/>
<circle cx="147.253" cy="26.8932" r="2.82464" fill="black"/>
<rect x="144.429" y="15.2795" width="5.64927" height="2.82464" rx="1.41232" fill="black"/>
<path d="M121.988 19.5173L61.1016 1.00024" stroke="black" stroke-width="2" stroke-linecap="round"/>
<path d="M119.321 28.1477L7.12012 23.5969" stroke="black" stroke-width="2" stroke-linecap="round"/>
<path d="M117.752 34.2683L1 70.047" stroke="black" stroke-width="2" stroke-linecap="round"/>
<path d="M123.872 43.5273L31.4434 109.436" stroke="black" stroke-width="2" stroke-linecap="round"/>
<path d="M63.1416 134.765C68.9706 132.986 112.443 120.912 127.972 110.247" stroke="black" stroke-width="2" stroke-linecap="round"/>
<path d="M104.405 133.15C112.054 120.882 121.497 112.689 140.406 102.891C164.042 90.6424 169.442 88.4924 179.552 73.3849" stroke="black" stroke-width="2" stroke-linecap="round"/>
<path d="M179.552 73.3838C181.68 77.5868 187.09 88.3312 191.037 94.0801M186.783 91.9067C190.784 93.4537 199.24 98.5424 201.059 106.521C202.878 114.5 210.239 120.227 213.211 123.638" stroke="black" stroke-width="2" stroke-linecap="round"/>
<path d="M187.842 105.878C190.687 110.271 196.014 115.874 212.798 122.853" stroke="black" stroke-width="2" stroke-linecap="round"/>
<path d="M234.842 148.124C229.887 142.066 218.379 128.415 211.992 122.273" stroke="black" stroke-width="2" stroke-linecap="round"/>
<path d="M179.552 73.3838C178.101 79.25 175.555 92.4468 179.186 99.8954" stroke="black" stroke-width="2" stroke-linecap="round"/>
<path d="M176.981 94.2787C173.796 95.9742 169.734 102.19 179.296 115.38" stroke="black" stroke-width="2" stroke-linecap="round"/>
<path d="M169.618 117.955C172.19 118.222 177.707 118.141 179.202 115.679" stroke="black" stroke-width="2" stroke-linecap="round"/>
<path d="M173.09 142.702L169.619 117.955" stroke="black" stroke-width="2" stroke-linecap="round"/>
</svg>
