<svg width="298" height="251" viewBox="0 0 298 251" fill="none" xmlns="http://www.w3.org/2000/svg">
<path d="M67.7042 157.191L55.5146 109.481L214.112 68.9603L216.437 78.0609" stroke="black" stroke-width="2"/>
<path d="M73.4863 179.823L82.7667 216.146L86.1914 215.271" stroke="black" stroke-width="2"/>
<path d="M141.602 209.26L148.302 207.631" stroke="black" stroke-width="2" stroke-linecap="round"/>
<path d="M158.984 205.095L214.303 191.769" stroke="black" stroke-width="2" stroke-linecap="round"/>
<path d="M137.617 210.164L87.7043 221.891L76.4138 174.492" stroke="black" stroke-width="2" stroke-linecap="round"/>
<path d="M72.4233 157.835L62.1582 114.803L221.383 76.8205L236.597 140.599" stroke="black" stroke-width="2" stroke-linecap="round"/>
<path d="M23.1933 95.2862C21.605 95.6269 20.0891 96.1263 18.6557 96.7524L19.4252 100.34C17.5148 101.259 15.8006 102.443 14.3056 103.864L11.2247 101.872C10.1092 103.012 9.13763 104.278 8.27444 105.613C7.41122 106.947 6.65513 108.353 6.07236 109.838L9.15326 111.831C8.46975 113.777 8.09304 115.826 8.03882 117.945L4.4511 118.715C4.46801 120.279 4.6343 121.866 4.97499 123.455C5.31567 125.043 5.81502 126.559 6.4411 127.992L10.0288 127.223C10.9474 129.133 12.1313 130.847 13.553 132.342L11.5604 135.423C12.701 136.539 13.967 137.51 15.3016 138.373C16.6362 139.237 18.0415 139.993 19.5267 140.575L21.5194 137.495C23.4659 138.178 25.5148 138.555 27.634 138.609L28.4035 142.197C29.9677 142.18 31.555 142.013 33.1433 141.673C34.7315 141.332 36.2474 140.833 37.6809 140.207L36.9113 136.619C38.8218 135.7 40.5359 134.516 42.0309 133.095L45.1118 135.087C46.2273 133.947 47.1989 132.681 48.0621 131.346C48.9253 130.012 49.6814 128.606 50.2642 127.121L47.1833 125.128C47.8668 123.182 48.2435 121.133 48.2977 119.014L51.8854 118.244C51.8685 116.68 51.7022 115.093 51.3615 113.505C51.0209 111.916 50.5215 110.4 49.8954 108.967L46.3077 109.737C45.3891 107.826 44.2052 106.112 42.7835 104.617L44.7761 101.536C43.6355 100.42 42.3696 99.4489 41.0349 98.5857C39.7003 97.7225 38.295 96.9664 36.8098 96.3836L34.8172 99.4645C32.8706 98.781 30.8217 98.4043 28.7026 98.3501L27.933 94.7624C26.3689 94.7793 24.7815 94.9456 23.1933 95.2862ZM25.6808 106.883C32.0821 105.51 38.3918 109.591 39.7649 115.992C41.138 122.393 37.0571 128.703 30.6558 130.076C24.2544 131.449 17.9447 127.368 16.5716 120.967C15.1985 114.566 19.2794 108.256 25.6808 106.883Z" fill="black"/>
<path d="M115.556 125.693C113.976 126.07 112.472 126.604 111.053 127.263L111.904 130.832C110.015 131.794 108.329 133.017 106.867 134.472L103.741 132.551C102.652 133.716 101.71 135.004 100.877 136.358C100.045 137.712 99.3209 139.135 98.7722 140.633L101.898 142.554C101.259 144.516 100.929 146.573 100.924 148.693L97.3544 149.544C97.4071 151.108 97.6096 152.691 97.9865 154.271C98.3634 155.851 98.8973 157.355 99.556 158.774L103.125 157.922C104.087 159.811 105.31 161.498 106.766 162.96L104.844 166.086C106.01 167.175 107.298 168.117 108.652 168.949C110.006 169.782 111.428 170.506 112.926 171.054L114.848 167.929C116.809 168.568 118.866 168.897 120.986 168.903L121.838 172.472C123.401 172.42 124.984 172.217 126.564 171.84C128.144 171.463 129.648 170.929 131.067 170.271L130.216 166.701C132.105 165.739 133.791 164.517 135.253 163.061L138.379 164.983C139.468 163.817 140.41 162.529 141.243 161.175C142.075 159.821 142.799 158.399 143.348 156.901L140.222 154.979C140.861 153.017 141.191 150.96 141.196 148.84L144.766 147.989C144.713 146.426 144.51 144.843 144.133 143.262C143.756 141.682 143.223 140.178 142.564 138.76L138.995 139.611C138.033 137.722 136.81 136.035 135.354 134.573L137.276 131.448C136.11 130.359 134.822 129.416 133.468 128.584C132.114 127.751 130.692 127.027 129.194 126.479L127.272 129.605C125.311 128.966 123.254 128.636 121.134 128.63L120.282 125.061C118.719 125.114 117.136 125.316 115.556 125.693V125.693ZM118.308 137.23C124.676 135.711 131.078 139.646 132.597 146.015C134.116 152.383 130.18 158.784 123.812 160.303C117.444 161.822 111.042 157.887 109.523 151.519C108.004 145.15 111.94 138.749 118.308 137.23Z" stroke="black" stroke-width="2" stroke-linecap="round" stroke-linejoin="round"/>
<path d="M128.236 178.437C127.476 178.618 126.753 178.875 126.071 179.192L126.48 180.908C125.572 181.371 124.76 181.959 124.057 182.659L122.554 181.735C122.03 182.296 121.577 182.915 121.177 183.566C120.776 184.217 120.428 184.901 120.165 185.622L121.668 186.546C121.36 187.489 121.202 188.479 121.199 189.498L119.483 189.908C119.508 190.659 119.605 191.421 119.787 192.181C119.968 192.94 120.225 193.664 120.541 194.346L122.258 193.937C122.721 194.845 123.309 195.656 124.009 196.359L123.084 197.863C123.645 198.386 124.264 198.84 124.916 199.24C125.567 199.64 126.251 199.988 126.971 200.252L127.895 198.749C128.839 199.056 129.828 199.215 130.848 199.218L131.257 200.934C132.009 200.909 132.77 200.811 133.53 200.63C134.29 200.449 135.013 200.192 135.696 199.875L135.286 198.159C136.195 197.696 137.006 197.108 137.709 196.408L139.212 197.332C139.736 196.771 140.189 196.152 140.589 195.501C140.99 194.85 141.338 194.166 141.602 193.445L140.098 192.521C140.406 191.578 140.564 190.589 140.567 189.569L142.283 189.16C142.258 188.408 142.161 187.646 141.979 186.887C141.798 186.127 141.541 185.403 141.225 184.721L139.508 185.131C139.045 184.222 138.457 183.411 137.757 182.708L138.682 181.205C138.121 180.681 137.502 180.228 136.85 179.827C136.199 179.427 135.515 179.079 134.795 178.815L133.871 180.318C132.927 180.011 131.938 179.852 130.919 179.85L130.509 178.133C129.757 178.159 128.996 178.256 128.236 178.437V178.437ZM129.56 183.985C132.622 183.255 135.701 185.147 136.431 188.21C137.162 191.273 135.269 194.351 132.207 195.082C129.144 195.812 126.065 193.92 125.335 190.857C124.604 187.795 126.497 184.716 129.56 183.985Z" stroke="black" stroke-opacity="0.7" stroke-width="2" stroke-linecap="round" stroke-linejoin="round"/>
<path d="M215.653 173.606L223.546 155.26C230.894 138.182 251.684 131.599 267.522 141.336C283.387 151.09 286.877 172.664 274.897 186.923L262.048 202.214C253.267 212.665 238.158 215.109 226.53 207.96C214.879 200.797 210.248 186.17 215.653 173.606Z" stroke="black" stroke-width="2"/>
<path d="M220.494 164.159L223.64 156.31C230.55 139.067 251.323 132.202 267.147 141.931C283.004 151.679 286.229 173.374 273.895 187.313L268.291 193.647C259.116 204.016 243.816 206.29 232.022 199.039C220.199 191.77 215.331 177.042 220.494 164.159Z" fill="black"/>
<circle cx="121.042" cy="148.597" r="4.97548" transform="rotate(-13.417 121.042 148.597)" stroke="black" stroke-width="2"/>
<circle cx="121.042" cy="148.597" r="7.51053" transform="rotate(-13.417 121.042 148.597)" stroke="black" stroke-width="2"/>
<path d="M112.521 112.095L134.537 204.389" stroke="black" stroke-width="2" stroke-linecap="round" stroke-dasharray="12 12"/>
<path d="M152.175 100.402L167.805 165.924" stroke="black" stroke-width="2" stroke-linecap="round" stroke-dasharray="12 12"/>
<path d="M176.187 96.4502L194.001 171.131" stroke="black" stroke-width="2" stroke-linecap="round" stroke-dasharray="12 12"/>
<path d="M202.268 98.1345L216.469 157.668" stroke="black" stroke-width="2" stroke-linecap="round" stroke-dasharray="12 12"/>
<path d="M108.546 195.324L151.875 184.988" stroke="black" stroke-width="2" stroke-linecap="round" stroke-dasharray="12 12"/>
<path d="M86.0322 157.135L219.189 125.371" stroke="black" stroke-width="2" stroke-linecap="round" stroke-dasharray="12 12"/>
<path d="M109.639 199.904L114.218 198.812" stroke="black" stroke-width="2" stroke-linecap="round"/>
<path d="M159.005 183.661L189.3 176.434" stroke="black" stroke-width="2" stroke-linecap="round"/>
<path d="M160.013 187.888L187.842 181.249" stroke="black" stroke-width="2" stroke-linecap="round"/>
<path d="M160.601 190.353L175.748 186.74" stroke="black" stroke-width="2" stroke-linecap="round"/>
<path d="M110.228 202.37L119.739 200.101" stroke="black" stroke-width="2" stroke-linecap="round"/>
<path d="M164.493 126.914L169.59 118.624" stroke="black" stroke-opacity="0.6" stroke-width="2" stroke-linecap="round"/>
<path d="M161.838 140.914L180.883 109.937" stroke="black" stroke-opacity="0.6" stroke-width="2" stroke-linecap="round"/>
<path d="M166.471 143.059L172.657 132.993M184.789 113.437L178.445 123.582" stroke="black" stroke-opacity="0.6" stroke-width="2" stroke-linecap="round"/>
<path d="M169.939 147.097L174.69 139.37M190.325 113.938L185.687 121.482" stroke="black" stroke-opacity="0.6" stroke-width="2" stroke-linecap="round"/>
<path d="M171.89 153.606L178.298 143.182M196.558 113.256L190.583 123.215" stroke="black" stroke-opacity="0.6" stroke-width="2" stroke-linecap="round"/>
<path d="M178.087 153.208L182.872 145.424M199.093 119.232L194.566 126.294" stroke="black" stroke-opacity="0.6" stroke-width="2" stroke-linecap="round"/>
<path d="M183.746 153.682L188.731 145.475M201.809 123.941L196.558 132.813" stroke="black" stroke-opacity="0.6" stroke-width="2" stroke-linecap="round"/>
<path d="M187.798 156.774L206.88 125.389" stroke="black" stroke-opacity="0.6" stroke-width="2" stroke-linecap="round"/>
<path d="M198.555 148.956L204.344 139.511" stroke="black" stroke-opacity="0.6" stroke-width="2" stroke-linecap="round"/>
<path d="M179.085 110.585C177.505 110.962 176.001 111.496 174.582 112.155L175.434 115.724C173.545 116.686 171.858 117.909 170.396 119.364L167.27 117.442C166.181 118.608 165.239 119.896 164.406 121.25C163.574 122.604 162.85 124.026 162.302 125.524L165.427 127.446C164.788 129.408 164.459 131.465 164.453 133.585L160.884 134.436C160.936 135.999 161.139 137.582 161.516 139.163C161.893 140.743 162.427 142.247 163.085 143.665L166.654 142.814C167.617 144.703 168.839 146.39 170.295 147.852L168.373 150.977C169.539 152.067 170.827 153.009 172.181 153.841C173.535 154.674 174.957 155.398 176.455 155.946L178.377 152.821C180.339 153.459 182.396 153.789 184.515 153.795L185.367 157.364C186.93 157.311 188.513 157.109 190.093 156.732C191.673 156.355 193.177 155.821 194.596 155.162L193.745 151.593C195.634 150.631 197.32 149.408 198.783 147.953L201.908 149.874C202.997 148.709 203.94 147.421 204.772 146.067C205.605 144.713 206.328 143.291 206.877 141.792L203.751 139.871C204.39 137.909 204.72 135.852 204.726 133.732L208.295 132.881C208.242 131.318 208.04 129.734 207.663 128.154C207.286 126.574 206.752 125.07 206.093 123.651L202.524 124.503C201.562 122.614 200.339 120.927 198.884 119.465L200.805 116.34C199.639 115.25 198.352 114.308 196.998 113.476C195.644 112.643 194.221 111.919 192.723 111.371L190.802 114.496C188.84 113.858 186.783 113.528 184.663 113.522L183.812 109.953C182.248 110.006 180.665 110.208 179.085 110.585V110.585ZM181.837 122.122C188.205 120.603 194.607 124.538 196.126 130.906C197.645 137.275 193.71 143.676 187.341 145.195C180.973 146.714 174.572 142.779 173.053 136.41C171.533 130.042 175.469 123.641 181.837 122.122Z" stroke="black" stroke-width="2" stroke-linecap="round" stroke-linejoin="round"/>
<path d="M79.0352 134.046L132.051 121.399" stroke="black" stroke-width="2" stroke-linecap="round"/>
<path d="M109.989 175.621L142.75 167.806" stroke="black" stroke-width="2" stroke-linecap="round"/>
<path d="M152.789 165.41L206.157 152.679" stroke="black" stroke-width="2" stroke-linecap="round"/>
<path d="M163.622 114.054L196.031 106.323" stroke="black" stroke-width="2" stroke-linecap="round"/>
<path d="M165.314 214.956C163.865 213.326 162.236 210.972 161.874 208.437C161.624 206.693 159.761 205.48 158.614 205.54" stroke="black" stroke-width="2" stroke-linecap="round"/>
<path d="M158.795 208.439C158.795 207.111 158.904 204.491 155.717 204.636" stroke="black" stroke-width="2" stroke-linecap="round"/>
<path d="M156.441 207.172C155.958 205.784 154.591 203.152 152.128 204.456" stroke="black" stroke-width="2" stroke-linecap="round"/>
<path d="M154.449 208.801C153.665 208.318 152.639 206.338 151.914 203.731C151.19 201.123 147.388 198.902 145.577 198.118C144.611 197.695 142.68 197.466 142.68 199.928C142.68 202.101 148.003 203.984 148.293 207.171C148.583 210.358 148.414 211.759 148.293 212.06C147.991 212.664 146.917 213.4 145.034 211.517C143.15 209.634 140.688 209.163 139.42 209.525C138.334 209.887 136.813 211.119 139.42 213.147C141.357 214.654 147.713 217.456 153.363 224.555" stroke="black" stroke-width="2" stroke-linecap="round"/>
<path d="M215.239 243.136C200.464 229.085 179.749 216.321 170.843 216.321C154.727 216.321 154.957 224.16 157.157 228.262C157.226 228.391 157.308 228.503 157.406 228.611C162.02 233.698 172.955 244.84 180.983 250.001" stroke="black" stroke-width="2" stroke-linecap="round"/>
<path d="M16.6589 239.442C20.1356 234.517 29.2135 220.883 33.1368 214.273C35.8236 209.746 37.8382 204.713 38.569 201.291C40.0176 194.51 44.1824 182.279 56.8576 199.119C59.8559 203.102 62.773 206.74 50.641 230.28" stroke="black" stroke-width="2" stroke-linecap="round"/>
<path d="M61.7816 195.352C64.4314 192.091 69.2214 186.995 71.1578 183.428L74.3172 178.027C76.4574 174.588 77.3734 171.785 78.1913 170.265C78.5548 169.589 78.7811 169.076 79.2845 168.072C79.7414 167.161 80.1434 166.241 79.8244 165.486C79.5803 164.908 78.5615 163.896 76.4398 164.473C74.318 165.051 72.8711 166.843 72.4129 167.667C71.9539 168.349 69.9612 170.822 69.4154 171.365C68.1472 172.626 61.8995 177.856 58.003 174.792" stroke="black" stroke-width="2" stroke-linecap="round"/>
<path d="M57.2447 169.726C60.4791 168.016 66.7621 164.934 68.9508 162.817C71.1987 162.382 76.7497 163.109 76.1895 160.128C76.0728 159.507 74.1183 157.967 71.2129 157.444C69.1221 157.068 67.6061 156.921 65.8692 157.855C64.8845 158.384 64.4939 158.572 63.2225 159.416C62.2357 159.851 61.6344 160.354 60.8286 160.908C60.0008 161.477 58.8017 162.381 57.1245 163.964" stroke="black" stroke-width="2" stroke-linecap="round"/>
<path d="M63.2226 159.417C62.6952 159.13 60.4155 159.149 57.728 160.48C54.7923 161.934 54.2908 162.484 53.154 163.234C52.0172 163.984 49.7437 165.485 48.8536 166.208C47.2788 167.489 45.8436 168.932 45.2771 169.66C44.2795 171.201 44.8354 172.366 46.3348 175.235" stroke="black" stroke-width="2" stroke-linecap="round"/>
<path d="M47.2345 180.559C47.2345 182.468 46.8008 186.993 45.4759 190.764" stroke="black" stroke-width="2" stroke-linecap="round"/>
<path d="M73.5159 166.209L47.9463 180.179C44.857 181.388 42.7081 177.153 45.9495 175.724L57.2271 169.711M77.0727 164.217L81.8013 161.66L79.562 158.079L76.3609 159.696" stroke="black" stroke-width="2" stroke-linecap="round"/>
<path d="M82.4393 161.313L85.1055 157.367" stroke="black" stroke-width="2" stroke-linecap="round"/>
<path d="M80.1972 157.746L85.1055 157.367" stroke="black" stroke-width="2" stroke-linecap="round"/>
<path d="M92.3981 82.286C92.9212 87.7413 85.173 88.7969 84.8387 82.5541L84.0803 33.4822L83.8372 21.5803C83.8143 20.46 84.7162 19.5395 85.8368 19.5395L91.0386 19.5395M92.3981 82.286L91.5046 33.4827L91.0386 19.5395M92.3981 82.286L100.995 82.286C102.137 82.286 103.047 81.3307 102.992 80.1896L100.739 33.4827L100.181 21.4468C100.131 20.3794 99.2515 19.5395 98.183 19.5395L91.0386 19.5395" stroke="black" stroke-width="2" stroke-linecap="round"/>
<path d="M165.673 2.05469C169.434 -0.116682 174.244 1.17256 176.415 4.93359L194.169 35.6846C196.34 39.4456 195.052 44.2553 191.291 46.4268L133.567 79.7539C129.806 81.9254 124.997 80.6361 122.825 76.875L105.07 46.124C102.899 42.363 104.188 37.5533 107.949 35.3818L165.673 2.05469Z" stroke="black" stroke-width="2"/>
<ellipse cx="111.803" cy="42.0355" rx="1.99183" ry="2.1729" transform="rotate(-30 111.803 42.0355)" fill="black"/>
<path d="M177.147 44.0356L188.438 37.5169M182.894 44.8994L190.249 40.6533" stroke="black" stroke-width="2" stroke-linecap="round"/>
<path d="M125.295 62.8213C127.564 61.2204 133.835 59.401 141.695 63.9279C142.411 64.3405 143.339 63.8119 143.306 62.9858C142.93 53.5766 144.012 44.0806 161.832 43.7415C162.869 43.7218 163.401 42.1395 162.633 41.4429C157.655 36.9286 153.004 28.6306 159.656 18.5395C160.081 17.8945 159.504 16.9991 158.753 17.1822C157.906 17.3888 157.458 16.4117 158.206 15.9636C160.915 14.3413 163.805 13.2266 163.435 15.446C162.898 18.6687 163.253 20.3051 165.008 22.3326" stroke="black" stroke-width="2" stroke-linecap="round"/>
</svg>
