<svg width="145" height="152" viewBox="0 0 145 152" fill="none" xmlns="http://www.w3.org/2000/svg">
<path d="M8.12943 122.469C9.58962 118.346 8.97272 114.689 8.12941 109.692C7.07526 103.447 5.31836 89.4239 14.22 80.4681C21.3413 73.3034 29.4465 69.6268 32.6089 68.6841" stroke="#A0A0A0" stroke-width="2" stroke-linecap="round"/>
<path d="M26.0811 122.296C26.5903 120.512 31.5968 112.755 30.9602 107.522C30.7312 106.033 30.8915 102.609 34.0524 100.823" stroke="#A0A0A0" stroke-width="2" stroke-linecap="round"/>
<path d="M23.2295 87.2508C25.6345 83.2997 32.1624 78.1462 37.316 77.2873C42.4695 76.4283 42.9252 79.9319 42.2608 81.4193C41.264 83.6505 39.0947 86.1165 34.7559 90.8137C30.4577 95.4671 28.1111 104.083 27.8374 108.193" stroke="#A0A0A0" stroke-width="2" stroke-linecap="round"/>
<path d="M108.399 73.3467C105.059 70.4804 96.7529 65.4074 90.2461 68.046C89.6567 68.2816 88.4308 69.3889 88.2422 71.9333" stroke="#A0A0A0" stroke-width="2" stroke-linecap="round"/>
<path d="M125.373 114.575C125.059 113.318 124.407 109.297 124.784 106.093C125.256 102.088 124.829 86.9714 118.228 82.613" stroke="#A0A0A0" stroke-width="2" stroke-linecap="round"/>
<path d="M124.24 82.9565L110.663 82.0667" stroke="black" stroke-width="2" stroke-linecap="round"/>
<ellipse cx="124.171" cy="78.819" rx="3.60751" ry="4.9818" fill="black"/>
<path d="M119.294 81.672C117.462 78.7032 118.807 76.3076 120.093 75.1299C120.414 74.8357 120.851 74.7226 121.286 74.7428L123.62 74.8513C124.722 74.9025 125.575 75.8362 125.526 76.9382L125.352 80.8333C125.301 81.9848 124.289 82.8547 123.143 82.7332L120.635 82.4671C120.091 82.4094 119.582 82.1378 119.294 81.672Z" fill="black"/>
<path d="M80.0494 74.8856C79.9494 75.7737 78.969 76.2654 78.1975 75.8144C77.2728 75.2739 77.4265 73.8933 78.4474 73.5693C79.3005 73.2986 80.1495 73.9962 80.0494 74.8856Z" fill="black"/>
<path d="M33.9108 77.9754L32.2656 32.6022C32.2654 25.9056 33.5113 14.557 47.425 14.745C61.3387 14.933 68.8909 14.8233 70.9278 14.745" stroke="black" stroke-width="2" stroke-linecap="round"/>
<path d="M86.9092 14.7456H110.295C116.758 14.8631 122.281 17.6826 122.281 28.491C122.281 39.2993 121.961 61.8941 121.491 73.6814" stroke="black" stroke-width="2" stroke-linecap="round"/>
<path d="M101.908 129.684C92.2714 130.388 66.5008 132.266 50.9497 132.932C44.3689 132.932 35.6493 132.086 34.6152 120.244L33.9102 91.9309" stroke="black" stroke-width="2" stroke-linecap="round"/>
<circle cx="78.8195" cy="9.41717" r="4.32537" stroke="black" stroke-width="2"/>
<path d="M71.5332 12.3247C72.3763 14.7634 71.182 16.5455 68.4889 17.1318C67.2009 17.4122 65.3977 17.4366 61.9319 18.656C57.5995 20.1801 56.7799 24.5182 56.6628 28.2701C56.5691 31.2716 58.3021 32.2564 61.3464 32.3737C70.2062 32.3346 89.1826 32.6082 94.2486 32.6082C99.5177 32.6082 100.284 30.615 100.454 29.3253C101.297 22.9471 99.0494 20.3902 97.0588 19.4767C96.1221 19.0468 93.3822 17.9759 89.9163 17.1318C86.4505 16.2877 85.8263 15.1386 86.1694 13.4972C87.0125 9.46391 86.5207 6.18887 86.1694 5.05551C85.7791 3.49224 83.4998 0.506383 77.5048 1.06916C70.011 1.77263 70.4794 9.27635 71.5332 12.3247Z" stroke="black" stroke-width="2" stroke-linecap="round"/>
<path d="M112.558 72.8213L113.004 29.3595C113.004 28.4212 112.473 26.7793 110.306 26.7793C108.078 26.7793 103.073 26.8575 100.805 26.7793" stroke="black" stroke-width="2" stroke-linecap="round"/>
<path d="M56.1121 26.7798H45.3201C44.1471 26.6625 41.8948 27.3427 42.2702 31.0019C42.6456 34.6611 44.4599 91.4018 45.3201 119.315C45.281 120.722 45.9066 123.49 48.7219 123.302C50.8637 123.16 84.1927 121.283 104.141 120.407" stroke="black" stroke-width="2" stroke-linecap="round"/>
<path d="M115.822 73.3374L116.44 30.1667C116.44 28.8741 115.877 26.9938 112.687 27.4639" stroke="black" stroke-width="2" stroke-linecap="round"/>
<path d="M43.2372 27.1118C42.0641 27.1118 39.3661 27.1118 39.4832 30.1671C39.5957 33.1034 40.6563 63.172 41.0083 77.117" stroke="black" stroke-width="2" stroke-linecap="round"/>
<path d="M41.0088 83.8699L42.0646 120.534C42.1819 121.827 42.6512 123.707 48.2821 123.237" stroke="black" stroke-width="2" stroke-linecap="round"/>
<path d="M54.5977 47.0381H76.5863" stroke="black" stroke-width="2" stroke-linecap="round"/>
<path d="M54.7451 54.8384L102.217 54.6034" stroke="black" stroke-width="2" stroke-linecap="round"/>
<path d="M54.8623 62.7119L92.1115 62.3594" stroke="black" stroke-width="2" stroke-linecap="round"/>
<path d="M55.2202 74.9394L73.5457 74.1099" stroke="black" stroke-width="2" stroke-linecap="round"/>
<path d="M117.197 74.196C116.338 75.7994 114.449 77.9753 116.51 82.0982" stroke="black" stroke-width="2" stroke-linecap="round"/>
<path d="M89.8822 93.2976C88.737 94.6608 88.0956 98.5553 94.6922 103.228C97.9561 105.347 104.725 111.783 105.687 120.578" stroke="#A0A0A0" stroke-width="2" stroke-linecap="round"/>
<path d="M88.1649 79.5208C87.551 80.6717 87.2816 82.8866 89.1956 85.0085C90.1385 86.0538 91.6113 87.0765 93.8338 87.9383" stroke="#A0A0A0" stroke-width="2" stroke-linecap="round"/>
<path d="M89.1956 85.0081C87.9675 86.7844 86.8479 90.4269 89.8827 93.2965C90.6687 94.0397 93.2793 95.4182 94.6928 96.0118" stroke="#A0A0A0" stroke-width="2" stroke-linecap="round"/>
<path d="M113.051 150.644C109.386 142.112 104.255 123.639 113.051 118.004C124.045 110.961 138.303 126.937 143.285 140.68" stroke="#A0A0A0" stroke-width="2" stroke-linecap="round"/>
<path d="M124.412 74.7107L83.9752 71.7991C83.7528 71.7831 83.5231 71.8047 83.3091 71.8673C77.6902 73.5102 79.7941 76.6364 81.8658 78.4519C82.1586 78.7084 82.5303 78.8523 82.918 78.8876L91.7723 79.6925" stroke="black" stroke-width="2" stroke-linecap="round"/>
<path d="M1 143.941C1.85893 135.925 7.83709 119.563 18.0068 121.624C28.1766 123.685 30.9481 142.067 31.0626 150.999" stroke="#A0A0A0" stroke-width="2" stroke-linecap="round"/>
<path d="M101.392 98.0743C94.8644 90.6875 91.0852 84.8468 91.9441 77.4599C92.4228 73.3428 94.794 71.6449 96.9649 73.7007C99.8462 76.4292 102.079 79.865 105.216 81.2395C105.831 81.5257 107.783 82.0982 110.669 82.0982" stroke="#A0A0A0" stroke-width="2" stroke-linecap="round"/>
</svg>
