<svg width="342" height="427" viewBox="0 0 342 427" fill="none" xmlns="http://www.w3.org/2000/svg">
<g clip-path="url(#clip0_120_2280)">
<path d="M128.335 110.257C128.107 110.237 127.876 110.262 127.657 110.331C127.437 110.399 127.234 110.511 127.057 110.658C126.881 110.806 126.736 110.986 126.629 111.19C126.523 111.394 126.457 111.616 126.437 111.845C125.888 118.03 126.376 123.58 128.289 128.295C130.201 133.009 133.587 136.841 138.498 139.384C138.702 139.49 138.925 139.555 139.154 139.574C139.383 139.594 139.614 139.568 139.833 139.498C140.052 139.428 140.255 139.317 140.431 139.168C140.606 139.02 140.751 138.839 140.857 138.634C141.07 138.222 141.111 137.743 140.971 137.301C140.83 136.859 140.52 136.491 140.109 136.277C135.869 134.081 133.161 130.995 131.533 126.98C129.904 122.965 129.407 117.971 129.923 112.156C129.944 111.927 129.919 111.696 129.85 111.477C129.781 111.258 129.67 111.054 129.523 110.878C129.375 110.701 129.194 110.556 128.991 110.45C128.787 110.343 128.564 110.278 128.335 110.257Z" fill="black"/>
<path d="M101.415 147.458C101.186 147.435 100.955 147.457 100.735 147.523C100.515 147.589 100.31 147.698 100.132 147.843C99.9534 147.988 99.8054 148.167 99.6962 148.37C99.587 148.572 99.5188 148.794 99.4954 149.022C99.472 149.251 99.4939 149.482 99.5599 149.703C99.6258 149.923 99.7345 150.128 99.8798 150.306C106.298 158.183 115.007 160.352 124.446 158.457C124.671 158.411 124.886 158.322 125.077 158.194C125.267 158.066 125.431 157.902 125.559 157.71C125.686 157.519 125.774 157.304 125.819 157.079C125.863 156.853 125.863 156.621 125.817 156.396C125.772 156.171 125.683 155.956 125.555 155.766C125.427 155.575 125.262 155.411 125.071 155.284C124.88 155.156 124.665 155.068 124.44 155.023C124.214 154.979 123.982 154.98 123.757 155.025C115.171 156.749 108.269 155.059 102.595 148.095C102.449 147.917 102.271 147.769 102.068 147.659C101.866 147.55 101.644 147.482 101.415 147.458Z" fill="black"/>
<path d="M107.046 94.7124C98.7925 94.7124 92.292 102.229 92.292 111.207C92.292 120.184 98.7926 127.699 107.046 127.699C115.299 127.699 121.8 120.184 121.8 111.207C121.8 102.229 115.299 94.7124 107.046 94.7124ZM107.046 98.1948C113.165 98.1948 118.315 103.89 118.315 111.207C118.315 118.523 113.165 124.216 107.046 124.216C100.927 124.216 95.7764 118.523 95.7764 111.207C95.7763 103.89 100.927 98.1948 107.046 98.1948Z" fill="black"/>
<path d="M142.063 92.3433C139.131 92.3433 136.795 94.5563 135.263 97.5171C133.731 100.478 132.851 104.379 132.851 108.673C132.851 112.968 133.731 116.871 135.263 119.832C136.795 122.792 139.131 125.005 142.063 125.005C144.996 125.005 147.33 122.792 148.862 119.832C150.394 116.871 151.274 112.968 151.274 108.673C151.274 104.379 150.394 100.478 148.862 97.5171C147.33 94.5563 144.996 92.3433 142.063 92.3433ZM142.063 95.5015C143.346 95.5015 144.827 96.59 146.058 98.9683C147.288 101.347 148.116 104.821 148.116 108.673C148.116 112.526 147.288 116 146.058 118.378C144.827 120.757 143.346 121.845 142.063 121.845C140.781 121.845 139.298 120.757 138.067 118.378C136.837 116 136.009 112.526 136.009 108.673C136.009 104.821 136.837 101.347 138.067 98.9683C139.298 96.59 140.781 95.5015 142.063 95.5015Z" fill="black"/>
<path d="M127.053 100.783C124.04 101.103 121.1 102.563 118.207 104.847C117.843 105.135 117.609 105.556 117.555 106.016C117.501 106.477 117.632 106.94 117.92 107.304C118.207 107.668 118.628 107.903 119.088 107.957C119.549 108.011 120.013 107.88 120.377 107.593C122.929 105.578 125.293 104.49 127.422 104.263C129.551 104.036 131.519 104.583 133.629 106.206C133.811 106.347 134.019 106.45 134.241 106.509C134.463 106.569 134.695 106.585 134.923 106.555C135.151 106.525 135.371 106.451 135.57 106.336C135.769 106.221 135.944 106.068 136.084 105.886C136.367 105.518 136.492 105.053 136.432 104.593C136.371 104.133 136.131 103.716 135.764 103.433C133.077 101.366 130.065 100.462 127.053 100.783Z" fill="black"/>
<path d="M102.261 82.144C95.9928 83.0376 91.238 86.4898 87.4131 90.7865C87.2604 90.9582 87.143 91.1583 87.0676 91.3754C86.9922 91.5925 86.9603 91.8225 86.9737 92.0519C86.9871 92.2813 87.0456 92.5057 87.1458 92.7126C87.246 92.9194 87.386 93.1045 87.5577 93.2572C87.7294 93.41 87.9295 93.5275 88.1466 93.6029C88.3637 93.6783 88.5936 93.7101 88.823 93.6967C89.0524 93.6833 89.2769 93.6248 89.4838 93.5246C89.6906 93.4244 89.8756 93.2844 90.0284 93.1127C94.7206 87.8416 99.9306 84.452 108.581 85.6342C108.809 85.6653 109.041 85.6511 109.263 85.5927C109.485 85.5342 109.694 85.4325 109.877 85.2934C110.06 85.1543 110.214 84.9805 110.329 84.7819C110.445 84.5833 110.521 84.3639 110.552 84.1361C110.583 83.9084 110.569 83.6768 110.51 83.4545C110.452 83.2322 110.35 83.0235 110.211 82.8405C110.072 82.6575 109.898 82.5037 109.7 82.3878C109.501 82.272 109.282 82.1964 109.054 82.1654C106.606 81.8309 104.35 81.8466 102.261 82.144Z" fill="black"/>
<path d="M138.158 83.4762C136.796 83.5112 135.405 83.7097 134.001 84.0641C133.552 84.1779 133.165 84.4656 132.928 84.8641C132.69 85.2626 132.62 85.7392 132.734 86.1891C132.848 86.6389 133.135 87.0251 133.534 87.2628C133.932 87.5005 134.409 87.5703 134.859 87.4567C139.619 86.2543 143.388 87.0153 146.828 90.3141C146.994 90.4731 147.189 90.5979 147.403 90.6813C147.618 90.7647 147.846 90.8051 148.076 90.8002C148.306 90.7952 148.532 90.7452 148.743 90.6527C148.953 90.5602 149.143 90.4271 149.302 90.2611C149.461 90.0952 149.586 89.8996 149.67 89.6854C149.753 89.4713 149.793 89.2426 149.789 89.0128C149.784 88.783 149.733 88.5565 149.641 88.3461C149.549 88.1356 149.416 87.9455 149.25 87.7865C146.074 84.7406 142.243 83.3723 138.158 83.4762Z" fill="black"/>
<path d="M151.26 127.511C151.03 127.501 150.8 127.536 150.584 127.614C150.368 127.692 150.169 127.812 149.999 127.967C149.83 128.122 149.692 128.31 149.595 128.518C149.497 128.726 149.442 128.952 149.431 129.181C148.022 160.228 135.494 178.154 119.293 184.199C103.091 190.244 82.6908 184.524 65.072 166.718C64.7455 166.389 64.3013 166.202 63.8372 166.2C63.3732 166.198 62.9272 166.38 62.5974 166.706C62.2675 167.033 62.0807 167.477 62.0782 167.941C62.0756 168.405 62.2574 168.851 62.5837 169.181C80.8929 187.685 102.74 194.111 120.517 187.478C138.295 180.845 151.478 161.273 152.927 129.339C152.949 128.876 152.785 128.423 152.472 128.08C152.159 127.737 151.723 127.533 151.26 127.511Z" fill="black"/>
<path d="M115.644 0.0893068C102.186 0.819807 88.1175 6.46997 76.726 21.3159C75.3337 20.5851 72.6038 19.2839 67.644 18.2612C61.0265 16.8966 51.4951 16.4667 39.8315 20.0776H39.8295C35.0281 21.5693 27.6581 26.1042 20.9056 34.109C14.1532 42.1137 8.14268 53.6088 6.63023 68.8256C6.31319 72.0097 4.48791 81.2802 6.17711 93.1049C7.86631 104.93 13.0884 119.516 26.6224 133.935C30.9236 138.506 41.5334 145.128 53.7162 146.456H53.7182C55.1555 146.612 56.8598 146.399 57.978 144.972C58.537 144.259 58.7978 143.277 58.7221 142.316C58.6464 141.355 58.2958 140.389 57.7045 139.338C56.8247 137.777 55.5348 134.555 54.5268 131.814C54.0228 130.444 53.5769 129.18 53.2553 128.254C53.0945 127.791 52.9655 127.412 52.8725 127.144C52.826 127.01 52.7888 126.905 52.7592 126.822C52.7444 126.78 52.7322 126.747 52.7162 126.705C52.7082 126.684 52.7015 126.662 52.683 126.619C52.674 126.597 52.6617 126.573 52.6342 126.517C52.6204 126.489 52.604 126.454 52.5678 126.394C52.541 126.35 52.4408 126.228 52.3744 126.146C52.3227 126.113 51.5151 125.603 51.5151 125.603C51.5151 125.603 51.2471 125.553 51.1752 125.548C51.0314 125.538 50.9779 125.548 50.9311 125.548C50.8375 125.558 50.8043 125.561 50.7709 125.566C50.7042 125.576 50.6629 125.584 50.6127 125.593C50.5123 125.611 50.3918 125.635 50.2358 125.663C49.9237 125.719 49.4786 125.795 48.9272 125.866C47.8243 126.009 46.2955 126.135 44.6166 126.058C41.2588 125.903 37.4287 124.953 34.8334 121.917C33.1616 119.963 31.4296 116.351 31.2748 113.087C31.1201 109.823 32.121 107.023 36.2748 105.222C40.6878 103.312 44.3247 104.062 47.2221 105.759C50.1195 107.455 52.1526 110.294 52.6967 111.96C53.6974 115.02 54.9649 119.144 56.4155 122.751C57.1407 124.555 57.9083 126.231 58.7572 127.626C59.6053 129.02 60.4764 130.201 61.8783 130.845H61.8804H61.8823C64.9139 132.238 68.1455 131.442 70.1772 129.341C72.2099 127.238 73.2761 124.059 73.2202 120.497C73.1945 118.858 72.5778 117.118 71.728 115.022C70.8782 112.927 69.7523 110.565 68.5562 108.175C66.1639 103.394 63.475 98.454 62.3139 95.7861C60.9744 92.7016 57.9809 87.351 58.9194 80.6611C59.8331 74.1488 64.634 66.1387 79.4937 57.9248C82.0895 60.5939 96.096 74.1329 119.708 78.9482C126.217 80.2759 136.053 81.3485 146.419 78.8762C156.785 76.4037 167.675 70.3017 175.914 57.5441C177.63 54.8868 180.414 49.0231 179.918 41.3625C179.421 33.7019 175.519 24.3927 164.296 15.3137C162.335 13.7289 157.936 10.8909 151.777 8.00508C145.618 5.11928 137.759 2.24258 129.111 0.846875C124.787 0.149075 120.253 -0.165044 115.644 0.0851564L115.644 0.0893068ZM115.861 3.53267C120.173 3.32467 124.437 3.6421 128.552 4.3061C136.782 5.6342 144.359 8.3983 150.29 11.1772C156.221 13.9556 160.566 16.8049 162.095 18.0405C172.727 26.6414 175.99 34.9082 176.423 41.5952C176.857 48.2821 174.337 53.5373 172.972 55.6499C165.215 67.6623 155.26 73.1755 145.607 75.478C135.953 77.7805 126.596 76.7873 120.408 75.5251C95.4308 70.4316 81.0209 54.5446 81.0209 54.5446C80.7591 54.2555 80.4081 54.0622 80.0238 53.9953C79.6396 53.9284 79.244 53.9919 78.8998 54.1755C62.4695 62.9369 56.5727 72.2113 55.4545 80.1814C54.3363 88.1515 57.9715 94.5817 59.103 97.1872H59.105C60.4159 100.199 63.0726 105.044 65.4253 109.746C66.6016 112.097 67.6976 114.4 68.4858 116.343C69.274 118.287 69.7109 119.961 69.7202 120.556C69.7643 123.364 68.8557 125.679 67.6616 126.914C66.4675 128.149 65.2215 128.532 63.3432 127.668H63.3392C63.139 127.576 62.4311 126.932 61.7474 125.808C61.0637 124.685 60.3456 123.148 59.6615 121.447C58.2933 118.044 57.0401 113.985 56.0228 110.875C55.11 108.08 52.6632 104.893 48.9896 102.742C45.316 100.591 40.2922 99.6711 34.8841 102.011H34.8821C29.5589 104.32 27.5751 108.962 27.7786 113.254C27.982 117.544 29.9517 121.597 32.1731 124.193C35.6308 128.237 40.5582 129.376 44.4563 129.556C46.4054 129.646 48.1289 129.501 49.3782 129.34C49.5991 129.311 49.712 129.287 49.9017 129.258C49.9217 129.316 49.9294 129.342 49.9505 129.402C50.2758 130.339 50.7267 131.624 51.2415 133.023C52.271 135.822 53.5114 139.027 54.6556 141.056C55.0753 141.803 55.2133 142.332 55.2337 142.592C55.2541 142.851 55.2204 142.817 55.2237 142.812C55.2307 142.802 54.7845 143.05 54.0948 142.976C42.9876 141.765 32.5877 135.166 29.1729 131.537C16.1357 117.646 11.2459 103.839 9.64165 92.6091C8.03736 81.3788 9.73734 72.9355 10.1123 69.1696C11.5519 54.6864 17.2311 43.8907 23.5811 36.3629C29.9304 28.8361 37.0733 24.5965 40.8663 23.4176C51.9426 19.9885 60.826 20.4249 66.9385 21.6853C73.0511 22.9457 76.253 24.9626 76.253 24.9626C76.6279 25.196 77.0773 25.2789 77.5108 25.1949C77.9444 25.1108 78.3303 24.8659 78.5909 24.5093C89.5657 9.51495 102.924 4.1529 115.86 3.529L115.861 3.53267Z" fill="black"/>
<path fill-rule="evenodd" clip-rule="evenodd" d="M79.7239 55.7199C79.7239 55.7199 94.5099 72.03 120.058 77.24C132.755 79.83 158.448 81.3701 174.443 56.6001C177.524 51.8301 185.051 34.36 163.196 16.68C156.215 11.04 107.21 -17.5499 77.1789 23.4801C77.1789 23.4801 63.0889 14.71 40.3489 21.75C31.7549 24.42 11.3229 39.3 8.37092 69C7.67892 75.95 1.3259 104.43 27.8979 132.74C31.7559 136.84 42.2609 143.45 53.9059 144.72C56.0349 144.95 58.2049 143.8 56.1799 140.2C54.1559 136.61 51.1179 127.35 51.0679 127.3C51.0169 127.24 39.5569 130.14 33.5039 123.06C29.6099 118.51 26.1019 107.73 35.5789 103.62C45.3999 99.3701 52.9029 106.96 54.3599 111.42C56.3779 117.59 59.4019 127.79 62.6109 129.26C67.5219 131.52 71.5699 126.9 71.4699 120.53C71.3999 116.06 63.1809 102.17 60.7089 96.49C58.2379 90.8 47.4499 72.9299 79.7239 55.7199Z" fill="black"/>
<path d="M59.6794 100.843C59.4527 100.805 59.2206 100.812 58.9966 100.864C58.7726 100.916 58.5609 101.011 58.3737 101.144C58.1865 101.278 58.0275 101.447 57.9057 101.642C57.7838 101.837 57.7017 102.054 57.6638 102.281C57.6257 102.507 57.6327 102.739 57.6844 102.964C57.7361 103.188 57.8314 103.399 57.9649 103.586C58.0984 103.774 58.2674 103.933 58.4624 104.054C58.6574 104.176 58.8745 104.258 59.1013 104.296L93.9821 110.136C94.4398 110.212 94.909 110.104 95.2866 109.834C95.6642 109.565 95.9193 109.156 95.9958 108.699C96.0721 108.241 95.9635 107.772 95.6939 107.394C95.4244 107.017 95.0159 106.762 94.5583 106.685L59.6794 100.843Z" fill="black"/>
<path d="M61.5755 194.812C61.3473 194.84 61.1269 194.913 60.9268 195.026C60.7268 195.139 60.551 195.291 60.4095 195.472C60.1239 195.837 59.9949 196.301 60.0509 196.761C60.1069 197.222 60.3434 197.641 60.7083 197.927C80.1455 213.146 97.118 219.388 109.281 219.146C115.362 219.025 120.311 217.245 123.548 213.939C126.785 210.633 128.121 205.867 127.288 200.482C127.217 200.024 126.967 199.612 126.593 199.338C126.218 199.064 125.751 198.95 125.292 199.021C124.834 199.092 124.422 199.342 124.147 199.716C123.873 200.09 123.759 200.558 123.829 201.017C124.533 205.572 123.472 209.014 121.048 211.49C118.625 213.965 114.651 215.538 109.212 215.646C98.3354 215.862 81.8853 210.063 62.8665 195.171C62.6855 195.03 62.4783 194.925 62.2568 194.863C62.0353 194.802 61.8038 194.784 61.5755 194.812Z" fill="black"/>
<path d="M58.2846 186.093C53.5127 189.976 51.511 195.12 50.8549 199.638C50.1987 204.156 50.8155 208.069 51.3178 210.033C53.189 217.352 59.6035 223.1 66.3647 227.492C73.1258 231.884 80.3537 234.904 84.351 236.355C97.0096 240.953 106.316 240.789 113.046 238.556C119.777 236.324 123.824 232.06 126.113 228.921C130.126 223.422 131.58 216.256 132.128 210.461C132.677 204.665 132.271 200.144 132.271 200.144C132.251 199.915 132.185 199.693 132.079 199.489C131.972 199.285 131.827 199.104 131.651 198.957C131.474 198.809 131.271 198.698 131.051 198.629C130.832 198.561 130.601 198.536 130.372 198.556C130.143 198.577 129.921 198.642 129.717 198.749C129.513 198.855 129.332 199.001 129.185 199.177C129.037 199.354 128.926 199.558 128.857 199.777C128.789 199.997 128.764 200.228 128.785 200.457C128.785 200.457 129.162 204.666 128.644 210.132C128.126 215.599 126.664 222.228 123.285 226.859C121.256 229.641 117.816 233.286 111.945 235.234C106.074 237.181 97.6646 237.468 85.5443 233.066C81.7446 231.687 74.6875 228.726 68.2709 224.558C61.8544 220.39 56.1992 214.999 54.7084 209.168C54.3207 207.652 53.7504 204.051 54.3178 200.144C54.8851 196.237 56.5154 192.047 60.4936 188.81C60.672 188.665 60.8202 188.486 60.9295 188.284C61.0389 188.082 61.1073 187.86 61.1309 187.631C61.1545 187.402 61.1327 187.171 61.0669 186.951C61.0011 186.731 60.8926 186.526 60.7475 186.347C60.6023 186.169 60.4235 186.021 60.2212 185.912C60.0188 185.803 59.7969 185.734 59.5682 185.711C59.3395 185.688 59.1084 185.709 58.8882 185.775C58.6679 185.841 58.4628 185.95 58.2846 186.095V186.093Z" fill="black"/>
<path d="M53.013 211.644C16.3174 247.854 2.66977 279.213 0.401712 319.451C-0.645548 338.025 0.487009 354.449 2.27476 367.216C4.06253 379.984 6.45996 389.011 8.13023 393.146C13.7282 407.016 22.8402 414.714 32.6498 419.06C42.4597 423.406 52.9389 424.515 61.5638 425.627C61.5645 425.627 61.5652 425.627 61.5658 425.627C79.373 427.911 100.376 422.873 100.376 422.873C100.727 422.79 101.043 422.6 101.283 422.331C101.522 422.061 101.672 421.725 101.712 421.367C105.236 390.138 121.259 375.103 121.259 375.103C121.477 374.898 121.639 374.639 121.728 374.354C121.818 374.068 121.833 373.763 121.771 373.47C121.71 373.177 121.574 372.904 121.377 372.679C121.18 372.453 120.928 372.282 120.646 372.181C84.913 359.453 44.0385 370.287 44.0385 370.287C43.8161 370.345 43.6073 370.446 43.4241 370.585C43.2409 370.724 43.0869 370.898 42.9708 371.096C42.8547 371.294 42.7789 371.514 42.7476 371.742C42.7163 371.969 42.7302 372.201 42.7885 372.423C42.8467 372.646 42.9481 372.855 43.087 373.038C43.2258 373.221 43.3995 373.375 43.5979 373.491C43.7963 373.607 44.0156 373.683 44.2434 373.714C44.4711 373.746 44.7028 373.732 44.9252 373.673C44.9252 373.673 83.1917 363.807 116.947 374.687C112.868 379.285 101.716 393.9 98.4584 419.658C96.7392 420.047 78.0677 424.214 62.0111 422.154C53.3301 421.035 43.2298 419.92 34.0678 415.861C24.9057 411.802 16.6545 404.914 11.3764 391.835C9.94465 388.291 7.50035 379.292 5.74162 366.732C3.9829 354.172 2.86317 337.964 3.89591 319.648C6.12585 280.086 19.1818 249.946 55.4721 214.136C55.8023 213.81 55.9894 213.366 55.9923 212.902C55.9952 212.438 55.8137 211.992 55.4876 211.662C55.1619 211.331 54.7181 211.144 54.2541 211.14C53.79 211.137 53.3436 211.318 53.013 211.644Z" fill="black"/>
<path d="M60.5405 264.378C60.0868 264.475 59.6901 264.748 59.4374 265.137C59.1847 265.526 59.0967 265.999 59.1928 266.453C68.7198 311.378 68.3048 350.577 67.9135 362.689C67.4348 362.249 67.0357 361.74 66.5034 361.357C64.242 359.728 61.5368 358.52 58.9194 357.591C53.6847 355.734 48.7221 355.009 48.7221 355.009C48.2632 354.942 47.7962 355.059 47.4237 355.335C47.0513 355.612 46.8038 356.025 46.7358 356.484C46.702 356.711 46.7134 356.943 46.7692 357.166C46.825 357.389 46.9242 357.599 47.0612 357.783C47.1981 357.968 47.3701 358.124 47.5673 358.242C47.7645 358.36 47.983 358.438 48.2104 358.472C48.2104 358.472 52.9022 359.17 57.7495 360.89C60.1731 361.75 62.615 362.87 64.4565 364.197C66.298 365.523 67.4629 366.989 67.7729 368.542C67.8551 368.961 68.0872 369.335 68.4257 369.594C68.7643 369.854 69.1858 369.981 69.6113 369.951C70.0367 369.922 70.4368 369.738 70.7363 369.434C71.0358 369.131 71.2141 368.728 71.2378 368.302C71.2378 368.302 74.0988 319.871 62.6167 265.726C62.5688 265.501 62.4772 265.288 62.347 265.099C62.2168 264.909 62.0505 264.747 61.8577 264.622C61.6649 264.497 61.4494 264.411 61.2233 264.369C60.9973 264.328 60.7653 264.331 60.5405 264.378Z" fill="black"/>
<path d="M140.775 257.263C140.553 257.325 140.346 257.429 140.165 257.57C139.984 257.712 139.832 257.888 139.719 258.088C139.606 258.288 139.533 258.508 139.505 258.736C139.477 258.964 139.494 259.196 139.556 259.417C149.005 293.577 151.822 328.643 151.851 364.162C151.851 364.626 152.036 365.071 152.365 365.398C152.693 365.726 153.139 365.91 153.603 365.91C154.067 365.909 154.512 365.724 154.84 365.396C155.167 365.067 155.351 364.622 155.351 364.158C155.322 328.456 152.494 293.064 142.929 258.484C142.868 258.262 142.763 258.055 142.622 257.873C142.481 257.692 142.305 257.54 142.105 257.427C141.905 257.314 141.684 257.241 141.456 257.213C141.228 257.184 140.996 257.202 140.775 257.263Z" fill="black"/>
<path d="M130.827 213.722C130.467 213.43 130.006 213.292 129.544 213.34C129.083 213.387 128.659 213.616 128.366 213.976C128.074 214.336 127.936 214.798 127.984 215.259C128.031 215.72 128.26 216.144 128.62 216.437C128.62 216.437 132.054 219.21 136.55 225.712C141.046 232.215 146.499 242.358 150.214 256.874C154.452 273.436 159.31 295.352 166.306 364.337C166.329 364.566 166.397 364.788 166.506 364.99C166.615 365.193 166.763 365.372 166.941 365.517C167.119 365.662 167.324 365.771 167.544 365.837C167.764 365.903 167.995 365.925 168.224 365.902C168.452 365.879 168.674 365.811 168.877 365.702C169.079 365.593 169.258 365.445 169.403 365.267C169.549 365.089 169.657 364.884 169.723 364.664C169.789 364.443 169.811 364.213 169.788 363.984C162.784 294.91 157.867 272.664 153.605 256.005C149.783 241.071 144.141 230.535 139.429 223.72C134.717 216.905 130.827 213.722 130.827 213.722Z" fill="black"/>
<path d="M287.698 319.158C285.947 318.848 284.303 319.399 282.993 320.234C281.684 321.069 280.621 322.188 279.741 323.296C278.942 324.304 278.939 324.528 278.464 325.343C277.772 324.499 277.043 323.806 276.232 323.351C274.771 322.533 273.066 322.5 271.706 323.058C268.987 324.175 267.338 326.912 266.294 329.658C265.416 331.968 264.065 336.491 263.837 341.693C263.609 346.895 264.524 352.847 268.458 357.605C268.459 357.605 268.459 357.605 268.46 357.605C272.018 361.899 276.965 362.477 280.872 360.621C284.779 358.765 287.889 354.901 289.363 350.515C291.696 343.562 292.879 336.373 292.845 330.65C292.828 327.788 292.521 325.296 291.798 323.287C291.076 321.279 289.757 319.519 287.698 319.156L287.698 319.158ZM287.087 322.603C287.088 322.603 287.09 322.603 287.091 322.603C287.485 322.672 287.999 323.068 288.505 324.474C289.011 325.881 289.329 328.064 289.345 330.671C289.376 335.886 288.258 342.808 286.044 349.404C284.86 352.928 282.172 356.129 279.37 357.461C276.568 358.792 273.895 358.679 271.156 355.373C267.971 351.521 267.131 346.52 267.335 341.845C267.54 337.17 268.81 332.892 269.566 330.902C270.4 328.708 271.969 326.735 273.036 326.296C273.57 326.077 273.901 326.057 274.521 326.404C275.14 326.751 276.035 327.631 276.974 329.371C277.128 329.656 277.358 329.894 277.64 330.056C277.921 330.218 278.241 330.299 278.566 330.289C278.89 330.28 279.205 330.18 279.477 330.002C279.748 329.823 279.964 329.573 280.101 329.279C280.101 329.279 281.032 327.302 282.484 325.472C283.21 324.557 284.059 323.705 284.874 323.185C285.69 322.665 286.383 322.478 287.087 322.603Z" fill="black"/>
<path d="M282.308 310.884C282.093 310.802 281.864 310.763 281.634 310.77C281.405 310.776 281.178 310.828 280.968 310.922C280.758 311.016 280.569 311.15 280.411 311.317C280.253 311.484 280.13 311.681 280.048 311.896C280.048 311.896 276.485 320.952 276.767 328.605C276.784 329.068 276.985 329.506 277.325 329.822C277.665 330.138 278.116 330.305 278.579 330.289C279.043 330.271 279.481 330.071 279.796 329.731C280.112 329.391 280.28 328.94 280.263 328.476C280.027 322.069 283.32 313.144 283.32 313.144C283.402 312.929 283.441 312.7 283.434 312.47C283.428 312.241 283.376 312.014 283.282 311.804C283.188 311.595 283.054 311.405 282.887 311.248C282.719 311.09 282.523 310.966 282.308 310.884Z" fill="black"/>
<path d="M339.732 253.49L238.543 282.99C238.268 283.07 238.017 283.217 237.812 283.416C237.607 283.616 237.454 283.863 237.367 284.136L194.181 419.056C194.105 419.294 194.08 419.546 194.109 419.794C194.138 420.042 194.22 420.282 194.349 420.496C194.349 420.496 195.735 422.781 198.545 424.468C201.355 426.155 205.749 427.267 211.347 425.345H211.349C221.673 421.792 285.499 399.726 290.592 398.019C293.029 397.212 295.236 397.024 297.34 395.31C299.446 393.595 300.905 390.702 302.404 385.113C303.795 379.921 313.335 349.513 322.459 320.667C331.583 291.822 340.342 264.341 340.342 264.341C340.411 264.122 340.437 263.892 340.418 263.663C340.399 263.433 340.335 263.21 340.229 263.006C340.123 262.802 339.979 262.62 339.803 262.472C339.627 262.324 339.424 262.212 339.205 262.142C338.763 262.002 338.283 262.042 337.871 262.256C337.459 262.469 337.148 262.837 337.008 263.279C337.008 263.279 328.248 290.763 319.123 319.613C309.998 348.463 300.558 378.478 299.023 384.207C297.596 389.527 296.325 391.621 295.129 392.595C293.932 393.57 292.264 393.777 289.484 394.699C289.482 394.699 289.48 394.699 289.478 394.699C284.129 396.492 220.515 418.486 210.211 422.033C205.496 423.65 202.425 422.712 200.347 421.464C198.912 420.603 198.201 419.791 197.791 419.255L240.416 286.087L340.711 256.849C340.931 256.785 341.137 256.678 341.317 256.534C341.496 256.39 341.645 256.212 341.756 256.011C341.867 255.809 341.936 255.588 341.961 255.36C341.987 255.131 341.966 254.9 341.902 254.679C341.838 254.458 341.731 254.253 341.587 254.073C341.443 253.894 341.265 253.745 341.064 253.634C340.862 253.523 340.641 253.454 340.413 253.428C340.184 253.403 339.953 253.423 339.732 253.488L339.732 253.49Z" fill="black"/>
<path d="M145.092 385.642C144.874 385.568 144.644 385.538 144.414 385.554C144.185 385.569 143.961 385.629 143.755 385.731C143.549 385.833 143.365 385.975 143.213 386.148C143.062 386.321 142.946 386.522 142.873 386.74C142.799 386.957 142.769 387.188 142.784 387.417C142.8 387.646 142.86 387.87 142.962 388.076C143.064 388.282 143.205 388.467 143.378 388.618C143.551 388.769 143.753 388.885 143.97 388.958C143.97 388.958 146.757 389.9 149.814 391.005C151.343 391.558 152.939 392.151 154.273 392.681C155.607 393.211 156.742 393.726 157.058 393.914H157.062C157.698 394.289 158.478 395.241 158.98 396.445C159.483 397.648 159.715 399.066 159.597 400.171C159.462 401.442 159.372 402.988 159.094 404.32C158.815 405.649 158.32 406.615 157.877 406.941C157.49 407.221 157.014 407.275 156.931 407.246C156.849 407.216 156.521 407.167 156.4 405.675C156.246 403.78 156.042 401.468 155.168 399.275C154.293 397.082 152.582 394.967 149.793 394.037H149.791C146.905 393.076 143.933 392.516 141.992 392.216C141.988 392.216 141.984 392.216 141.98 392.216C140.062 391.932 138.154 392.855 137.183 394.531L137.201 394.502C135.615 397.119 131.908 402.205 126.687 404.602C121.466 406.998 114.732 407.137 105.662 399.342C105.488 399.192 105.286 399.077 105.067 399.006C104.849 398.934 104.618 398.906 104.389 398.923C104.16 398.94 103.936 399.002 103.731 399.106C103.526 399.21 103.343 399.353 103.193 399.527C103.043 399.702 102.929 399.904 102.857 400.122C102.785 400.34 102.757 400.571 102.774 400.8C102.792 401.029 102.854 401.253 102.958 401.458C103.061 401.663 103.204 401.846 103.379 401.996C113.156 410.4 121.832 410.68 128.148 407.781C134.464 404.882 138.421 399.239 140.193 396.316C140.199 396.306 140.205 396.296 140.211 396.285C140.468 395.841 140.959 395.604 141.467 395.68C143.285 395.96 146.106 396.501 148.685 397.359C150.453 397.949 151.297 399.022 151.916 400.574C152.535 402.126 152.762 404.116 152.912 405.961C153.095 408.218 154.156 409.975 155.756 410.545C157.356 411.115 158.853 410.562 159.937 409.773C159.939 409.773 159.941 409.773 159.943 409.773C161.575 408.578 162.165 406.736 162.52 405.043C162.874 403.349 162.96 401.656 163.078 400.547C163.273 398.712 162.924 396.811 162.211 395.102C161.498 393.394 160.428 391.843 158.846 390.908C158.051 390.436 156.955 389.984 155.564 389.432C154.174 388.88 152.553 388.277 151.004 387.717C147.906 386.597 145.092 385.645 145.092 385.645L145.092 385.642Z" fill="black"/>
<path d="M150.302 381.275C150.087 381.193 149.859 381.154 149.629 381.16C149.399 381.166 149.173 381.218 148.963 381.312C148.753 381.405 148.564 381.54 148.406 381.706C148.248 381.873 148.124 382.07 148.042 382.285C147.96 382.499 147.921 382.728 147.927 382.958C147.934 383.187 147.985 383.414 148.079 383.624C148.173 383.834 148.307 384.023 148.474 384.181C148.641 384.339 148.837 384.462 149.052 384.544C150.054 384.927 153.33 386.199 156.511 387.48C158.102 388.12 159.672 388.764 160.919 389.298C162.167 389.833 163.23 390.362 163.249 390.374C164.11 390.924 164.852 391.284 165.542 392.052C166.232 392.82 166.919 394.001 167.253 396.337C167.606 398.809 167.623 401.198 167.341 402.757C167.2 403.537 166.968 404.096 166.825 404.304C166.695 404.495 166.833 404.375 166.898 404.355C166.005 404.338 165.469 404.217 164.894 403.679C164.314 403.138 163.605 401.96 163.081 399.549C162.983 399.095 162.708 398.699 162.317 398.448C161.927 398.198 161.453 398.112 160.999 398.211C160.546 398.309 160.151 398.584 159.9 398.974C159.649 399.364 159.563 399.837 159.661 400.291C160.271 403.1 161.18 404.998 162.505 406.236C163.83 407.474 165.485 407.835 166.849 407.859C166.852 407.859 166.854 407.859 166.857 407.859C168.046 407.875 169.135 407.129 169.716 406.277C170.298 405.425 170.59 404.455 170.785 403.379C171.175 401.226 171.11 398.589 170.718 395.841C170.307 392.968 169.311 391.007 168.146 389.71C166.981 388.414 165.696 387.783 165.132 387.423C164.439 386.981 163.587 386.632 162.298 386.08C161.01 385.528 159.422 384.878 157.818 384.232C154.609 382.94 151.341 381.67 150.302 381.273L150.302 381.275Z" fill="black"/>
<path d="M156.874 377.312C156.437 377.156 155.956 377.18 155.537 377.379C155.117 377.577 154.794 377.934 154.638 378.371C154.56 378.587 154.526 378.817 154.537 379.046C154.548 379.276 154.605 379.501 154.703 379.709C154.801 379.917 154.94 380.104 155.11 380.258C155.281 380.412 155.48 380.532 155.696 380.609C156.541 380.911 159.134 381.821 161.798 383.015C164.462 384.209 167.215 385.876 167.925 386.763C170.228 389.644 172.023 392.573 172.614 395.505C172.947 397.153 173.352 399.47 173.429 401.275C173.466 402.155 173.405 402.898 173.312 403.283C172.754 403.348 172.247 403.382 171.923 403.258C171.514 403.101 171.095 402.798 170.567 401.969C170.444 401.775 170.284 401.607 170.096 401.475C169.907 401.343 169.695 401.25 169.471 401.2C169.246 401.15 169.014 401.145 168.788 401.184C168.562 401.224 168.345 401.308 168.151 401.431C167.957 401.555 167.79 401.715 167.658 401.903C167.526 402.092 167.432 402.304 167.382 402.528C167.333 402.753 167.327 402.985 167.367 403.211C167.407 403.437 167.491 403.654 167.614 403.848C168.423 405.119 169.456 406.06 170.669 406.525C171.882 406.991 173.146 406.959 174.341 406.727C175.024 406.594 175.638 406.161 176.007 405.686C176.376 405.21 176.564 404.714 176.692 404.223C176.95 403.241 176.971 402.217 176.925 401.127C176.832 398.947 176.394 396.534 176.046 394.812C175.278 391.005 173.122 387.656 170.659 384.576C168.986 382.484 166.06 381.089 163.23 379.82C160.399 378.552 157.681 377.599 156.874 377.311V377.312Z" fill="black"/>
<path d="M142.181 371.281C134.474 371.023 119.933 372.086 119.933 372.086C119.704 372.102 119.48 372.163 119.274 372.266C119.069 372.369 118.886 372.511 118.735 372.685C118.584 372.859 118.47 373.061 118.397 373.279C118.324 373.497 118.296 373.727 118.312 373.957C118.346 374.419 118.562 374.85 118.912 375.154C119.263 375.457 119.72 375.609 120.183 375.576C120.183 375.576 134.835 374.537 142.062 374.779C149.791 375.048 157.433 373.739 164.808 378.373C172.706 383.334 176.141 385.875 179.224 397.037C179.777 399.037 179.769 400.252 179.662 400.681C179.554 401.11 179.72 400.863 179.519 400.902C179.118 400.979 177.137 400.377 175.871 399.839C175.659 399.75 175.432 399.702 175.202 399.7C174.972 399.698 174.744 399.742 174.531 399.828C174.318 399.914 174.124 400.041 173.96 400.202C173.796 400.364 173.666 400.556 173.576 400.767C173.395 401.194 173.391 401.676 173.565 402.106C173.739 402.536 174.077 402.879 174.504 403.06C175.664 403.553 177.732 404.81 180.179 404.339C181.403 404.104 182.694 402.984 183.058 401.531C183.422 400.078 183.232 398.405 182.597 396.105C179.355 384.367 174.69 380.446 166.67 375.408C158.129 370.042 149.386 371.532 142.183 371.281C142.183 371.281 142.182 371.281 142.181 371.281Z" fill="black"/>
<path d="M116.34 405.621C115.886 405.719 115.49 405.992 115.238 406.382C110.4 413.896 106.412 417.113 103.818 418.466C102.521 419.143 101.569 419.363 100.986 419.433C100.403 419.503 100.357 419.462 100.357 419.462C99.9045 419.36 99.4298 419.442 99.0376 419.69C98.6453 419.938 98.3675 420.332 98.2655 420.785C98.1635 421.237 98.2455 421.712 98.4934 422.104C98.7414 422.496 99.135 422.774 99.5877 422.876C99.5877 422.876 100.399 423.029 101.406 422.907C102.414 422.786 103.788 422.43 105.437 421.569C108.736 419.848 113.116 416.143 118.181 408.276C118.433 407.886 118.518 407.412 118.42 406.959C118.322 406.506 118.048 406.11 117.658 405.858C117.465 405.734 117.249 405.649 117.023 405.608C116.796 405.567 116.564 405.572 116.34 405.621Z" fill="black"/>
<path fill-rule="evenodd" clip-rule="evenodd" d="M104.519 400.67C107.036 402.83 109.43 404.42 111.697 405.54C107.412 412.24 100.736 415.71 100.736 415.71C101.671 410.13 102.996 405.12 104.519 400.67Z" fill="black"/>
<path d="M197.538 412.521L116.521 412.97C116.056 412.973 115.612 413.16 115.286 413.49C114.96 413.82 114.778 414.266 114.78 414.73C114.782 414.96 114.828 415.187 114.917 415.399C115.006 415.611 115.136 415.803 115.3 415.965C115.463 416.126 115.657 416.254 115.87 416.341C116.082 416.428 116.31 416.472 116.54 416.47L197.558 416.021C198.022 416.018 198.466 415.831 198.792 415.501C199.119 415.171 199.3 414.725 199.298 414.261C199.297 414.031 199.25 413.804 199.161 413.592C199.072 413.38 198.942 413.188 198.778 413.027C198.615 412.865 198.421 412.737 198.209 412.65C197.996 412.564 197.768 412.52 197.538 412.521Z" fill="black"/>
<path d="M110.026 420.759C109.796 420.758 109.568 420.801 109.355 420.888C109.142 420.974 108.948 421.102 108.784 421.263C108.62 421.424 108.49 421.617 108.401 421.828C108.311 422.04 108.264 422.268 108.263 422.498C108.26 422.961 108.441 423.408 108.766 423.738C109.092 424.068 109.535 424.256 109.999 424.259L199.819 424.941C200.049 424.943 200.277 424.899 200.491 424.813C200.704 424.726 200.898 424.599 201.062 424.438C201.225 424.276 201.356 424.084 201.445 423.872C201.535 423.66 201.582 423.433 201.583 423.203C201.586 422.739 201.405 422.293 201.079 421.962C200.754 421.632 200.311 421.445 199.847 421.441L110.026 420.759Z" fill="black"/>
<path d="M183.533 370.091C183.09 370.231 182.721 370.541 182.507 370.953C182.293 371.364 182.252 371.844 182.392 372.287C182.532 372.729 182.842 373.098 183.253 373.312C184.342 373.878 188.339 376.45 189.179 380.607C189.684 383.105 190.373 386.6 190.812 389.732C191.032 391.298 191.187 392.775 191.23 393.955C191.273 395.134 191.128 396.071 191.083 396.187C190.791 396.941 190.375 397.137 190.308 397.173C190.264 397.126 190.187 397.069 190.08 396.736C189.658 395.423 188.457 391.567 187.138 387.853C186.478 385.996 185.79 384.171 185.132 382.673C184.803 381.924 184.484 381.259 184.16 380.687C183.835 380.115 183.573 379.647 182.996 379.171C182.637 378.876 182.177 378.736 181.715 378.781C181.253 378.825 180.828 379.052 180.533 379.41C180.238 379.768 180.097 380.229 180.142 380.69C180.187 381.152 180.413 381.577 180.771 381.873C180.637 381.762 180.883 382.006 181.115 382.414C181.346 382.821 181.628 383.401 181.927 384.082C182.525 385.443 183.197 387.212 183.841 389.025C185.129 392.65 186.309 396.438 186.748 397.806C187.044 398.729 187.531 399.528 188.261 400.078C188.992 400.627 189.957 400.844 190.806 400.707C192.505 400.431 193.701 399.117 194.347 397.453C194.783 396.328 194.778 395.203 194.728 393.828C194.678 392.452 194.508 390.883 194.279 389.246C193.819 385.97 193.116 382.425 192.609 379.914C191.423 374.05 186.51 371.061 184.867 370.207C184.455 369.993 183.975 369.951 183.533 370.091Z" fill="black"/>
<path d="M191.634 370.349C191.449 370.485 191.292 370.656 191.172 370.853C191.053 371.049 190.973 371.267 190.938 371.495C190.903 371.722 190.914 371.954 190.968 372.177C191.023 372.401 191.121 372.611 191.257 372.796C191.675 373.366 192.111 373.753 192.751 374.435C193.391 375.117 194.159 375.963 194.896 376.912C196.369 378.808 197.638 381.11 197.724 383.037C197.836 385.555 197.871 388.476 197.687 390.828C197.595 392.003 197.444 393.04 197.253 393.757C197.063 394.474 196.74 394.792 196.937 394.646C196.325 395.101 195.801 395.277 195.382 395.289C194.962 395.301 194.574 395.196 194.032 394.736C193.857 394.587 193.655 394.474 193.436 394.404C193.217 394.333 192.986 394.307 192.757 394.325C192.528 394.344 192.305 394.408 192.101 394.513C191.896 394.618 191.714 394.762 191.566 394.937C191.417 395.112 191.304 395.315 191.234 395.534C191.163 395.752 191.137 395.983 191.155 396.212C191.174 396.441 191.238 396.664 191.343 396.869C191.448 397.073 191.592 397.255 191.767 397.404C192.85 398.324 194.175 398.824 195.478 398.789C196.78 398.753 197.986 398.229 199.027 397.455C199.027 397.455 199.028 397.455 199.029 397.455C200.051 396.693 200.357 395.708 200.636 394.656C200.915 393.603 201.075 392.404 201.177 391.101C201.381 388.495 201.337 385.484 201.222 382.882C201.08 379.689 199.337 376.922 197.659 374.763C196.821 373.684 195.977 372.758 195.304 372.04C194.631 371.323 194.05 370.684 194.079 370.724C193.805 370.35 193.393 370.101 192.934 370.03C192.476 369.96 192.008 370.075 191.634 370.349Z" fill="black"/>
<path d="M204.199 392.982C203.746 392.881 203.272 392.964 202.88 393.212C202.538 393.43 201.537 393.605 200.642 393.564C199.747 393.523 199.052 393.365 199.052 393.365C198.6 393.261 198.125 393.34 197.732 393.587C197.338 393.833 197.059 394.225 196.955 394.677C196.851 395.129 196.93 395.604 197.177 395.998C197.423 396.391 197.815 396.671 198.267 396.775C198.267 396.775 199.25 397.003 200.482 397.06C201.714 397.117 203.291 397.1 204.757 396.167C204.952 396.044 205.119 395.884 205.252 395.696C205.384 395.508 205.477 395.295 205.528 395.071C205.578 394.847 205.583 394.615 205.543 394.388C205.504 394.162 205.42 393.945 205.296 393.751C205.173 393.557 205.013 393.389 204.824 393.257C204.636 393.125 204.423 393.032 204.199 392.982Z" fill="black"/>
<path d="M199.591 370.736C199.363 370.768 199.144 370.844 198.946 370.961C198.748 371.078 198.575 371.232 198.437 371.416C198.157 371.786 198.036 372.252 198.1 372.712C198.164 373.172 198.408 373.587 198.778 373.867C198.778 373.867 199.752 374.568 201.065 376.654C202.379 378.74 203.901 382.105 204.558 387.185C204.617 387.645 204.857 388.062 205.225 388.345C205.592 388.628 206.057 388.754 206.517 388.695C206.977 388.636 207.395 388.396 207.678 388.028C207.962 387.661 208.088 387.196 208.028 386.736C207.308 381.166 205.599 377.285 204.026 374.789C202.454 372.292 200.888 371.074 200.888 371.074C200.704 370.935 200.495 370.834 200.273 370.776C200.05 370.718 199.819 370.704 199.591 370.736Z" fill="black"/>
<path d="M189.16 363.843C184.915 363.937 181.994 364.595 179.66 365.497C177.167 366.461 174.372 368.375 172.074 370.068C169.775 371.76 168.023 373.244 168.023 373.244C167.847 373.392 167.703 373.574 167.598 373.778C167.492 373.982 167.428 374.205 167.409 374.434C167.39 374.664 167.417 374.894 167.487 375.113C167.557 375.332 167.669 375.535 167.818 375.71C168.118 376.064 168.546 376.284 169.008 376.323C169.47 376.361 169.929 376.215 170.283 375.915C170.283 375.915 171.953 374.504 174.15 372.886C176.347 371.269 179.121 369.459 180.921 368.763C184.837 367.249 191.035 366.369 205.988 369.013C206.214 369.053 206.446 369.048 206.671 368.999C206.895 368.949 207.108 368.856 207.296 368.725C207.485 368.593 207.645 368.425 207.769 368.232C207.893 368.038 207.977 367.821 208.017 367.595C208.057 367.369 208.052 367.136 208.003 366.912C207.953 366.687 207.86 366.475 207.728 366.286C207.596 366.098 207.428 365.937 207.234 365.813C207.04 365.69 206.824 365.606 206.597 365.566C198.972 364.218 193.404 363.749 189.16 363.843Z" fill="black"/>
</g>
<defs>
<clipPath id="clip0_120_2280">
<rect width="341.971" height="426.357" fill="white"/>
</clipPath>
</defs>
</svg>
