<svg width="24" height="24" viewBox="0 0 24 24" fill="none" xmlns="http://www.w3.org/2000/svg">
<g clip-path="url(#clip0_36_1249)">
<path d="M21.71 17.25C21.56 16.91 21.29 16.54 21.14 16.17C21.0713 16.0414 21.05 15.8927 21.08 15.75C21.3017 15.0534 21.4722 14.3415 21.59 13.62C21.7708 12.5613 21.8877 11.4927 21.94 10.42C21.9907 9.7543 21.9907 9.08571 21.94 8.42001C21.9147 7.95619 21.8375 7.49667 21.71 7.05001C21.381 5.90228 20.8269 4.83149 20.08 3.90001C20.1794 3.77185 20.2665 3.63457 20.34 3.49001C20.418 3.28768 20.4685 3.07578 20.49 2.86001C20.5725 2.29101 20.4746 1.71047 20.21 1.20001C19.9072 0.66646 19.4145 0.266574 18.83 0.0800071C18.4884 -0.0116132 18.1302 -0.0231854 17.7833 0.0461904C17.4364 0.115566 17.1102 0.26402 16.83 0.480007C16.6283 0.643971 16.4622 0.847388 16.3418 1.0778C16.2214 1.30821 16.1494 1.56077 16.13 1.82001C15.8836 1.80508 15.6365 1.80508 15.39 1.82001C14.8605 1.89192 14.3406 2.02273 13.84 2.21001C12.5264 2.7265 11.332 3.50574 10.33 4.50001C9.34643 5.43707 8.48618 6.49558 7.77004 7.65001C7.32004 8.36001 7.00004 9.22001 6.58004 10C6.41828 10.303 6.22015 10.5851 5.99004 10.84C5.74379 11.1092 5.46882 11.3506 5.17004 11.56C4.42004 12.1 3.59004 12.49 2.84004 13.05C2.56733 13.2365 2.3068 13.4403 2.06004 13.66C1.86797 13.8326 1.71461 14.0439 1.61004 14.28C1.59034 14.3218 1.57938 14.3672 1.57783 14.4135C1.57628 14.4597 1.58417 14.5057 1.60101 14.5488C1.61786 14.5918 1.64331 14.631 1.67581 14.6639C1.70832 14.6967 1.74718 14.7227 1.79004 14.74C2.23004 14.93 2.32004 14.13 3.93004 13.59C4.73712 13.3453 5.56889 13.1911 6.41004 13.13C7.46164 13.0216 8.52239 13.0384 9.57004 13.18C11.1667 13.3724 12.743 13.7071 14.28 14.18C15.0499 14.3907 15.7894 14.6999 16.48 15.1C17.1724 15.5029 17.7996 16.0087 18.34 16.6C18.3997 16.669 18.4843 16.7114 18.5753 16.718C18.6662 16.7245 18.7561 16.6947 18.825 16.635C18.894 16.5753 18.9364 16.4907 18.943 16.3998C18.9495 16.3088 18.9197 16.219 18.86 16.15C18.3072 15.4684 17.6569 14.872 16.93 14.38C16.2046 13.8892 15.4179 13.4959 14.59 13.21C13.2706 12.7377 11.912 12.383 10.53 12.15C9.11895 11.9251 7.68113 11.9251 6.27004 12.15C5.97004 12.21 5.64004 12.28 5.27004 12.37L5.58004 12.17C5.94299 11.9349 6.27843 11.6599 6.58004 11.35C6.85175 11.0453 7.08669 10.7096 7.28004 10.35C7.71004 9.64001 8.00004 8.80001 8.48004 8.11001C9.19011 7.02572 10.0371 6.03756 11 5.17001C11.9172 4.29938 12.9981 3.61956 14.18 3.17001C14.6146 3.02209 15.0639 2.92151 15.52 2.87001C15.9566 2.8163 16.3989 2.83319 16.83 2.92001C17.79 3.20139 18.6302 3.79198 19.22 4.60001C19.8726 5.42134 20.3584 6.36232 20.65 7.37001C20.7456 7.74354 20.8058 8.12521 20.83 8.51001C20.8702 9.11934 20.8702 9.73067 20.83 10.34C20.77 11.2 20.7 12.06 20.57 12.92C20.4456 13.7604 20.255 14.5896 20 15.4C19.8946 15.725 19.8946 16.075 20 16.4C20.1985 16.8702 20.4256 17.3277 20.68 17.77C21.0461 18.5 21.2637 19.2953 21.32 20.11C21.3395 20.5812 21.1866 21.0433 20.89 21.41C20.4776 21.8636 19.9586 22.2073 19.38 22.41C18.4482 22.7684 17.4667 22.9809 16.47 23.04C15.4815 23.0476 14.4943 22.9673 13.52 22.8C12.5307 22.6727 11.5516 22.4756 10.59 22.21C9.59004 21.87 8.50004 21.52 7.49004 21.08C6.82751 20.7986 6.18877 20.4642 5.58004 20.08C4.62434 19.5359 3.76869 18.8324 3.05004 18C2.62523 17.4374 2.3376 16.7834 2.21004 16.09C2.18438 16.0221 2.13571 15.9653 2.07249 15.9296C2.00928 15.8939 1.93554 15.8815 1.86413 15.8946C1.79273 15.9077 1.72818 15.9455 1.68174 16.0013C1.63531 16.0571 1.60993 16.1274 1.61004 16.2C1.74638 16.9904 2.06101 17.7394 2.53004 18.39C3.27016 19.2918 4.15978 20.0596 5.16004 20.66C5.79721 21.0808 6.46586 21.4519 7.16004 21.77C8.16004 22.24 9.26004 22.63 10.3 23C11.305 23.3076 12.331 23.5416 13.37 23.7C14.4122 23.899 15.4693 24.0094 16.53 24.03C17.6322 23.976 18.7205 23.7603 19.76 23.39C20.523 23.1368 21.2105 22.6968 21.76 22.11C22.2325 21.5521 22.485 20.8409 22.47 20.11C22.4163 19.1145 22.1576 18.1408 21.71 17.25ZM17 1.91001H16.79C16.8881 1.6392 17.0796 1.41227 17.33 1.27001C17.5054 1.17583 17.6995 1.12161 17.8983 1.11124C18.0971 1.10086 18.2958 1.13459 18.48 1.21001C18.8079 1.30051 19.0921 1.5065 19.28 1.79001C19.4985 2.10187 19.6234 2.46961 19.64 2.85001C19.6604 2.98591 19.6604 3.1241 19.64 3.26001C19.64 3.26001 19.64 3.35001 19.59 3.39001C18.8873 2.65753 17.9879 2.1436 17 1.91001Z" fill="black"/>
<path d="M17.9098 20.86C17.4849 21.0535 17.0264 21.1622 16.5598 21.18C16.4884 21.193 16.4238 21.2307 16.3773 21.2864C16.3308 21.3421 16.3053 21.4124 16.3053 21.485C16.3053 21.5576 16.3308 21.6279 16.3773 21.6837C16.4238 21.7394 16.4884 21.777 16.5598 21.79C17.2335 21.8023 17.8977 21.6293 18.4798 21.29C18.6314 21.1764 18.7475 21.0222 18.8148 20.8451C18.8821 20.6681 18.8977 20.4756 18.8598 20.29C18.7954 19.9244 18.6407 19.5807 18.4098 19.29C18.1235 18.9128 17.7871 18.5764 17.4098 18.29C16.6474 17.7124 15.8417 17.1942 14.9998 16.74C14.1658 16.301 13.3039 15.9168 12.4198 15.59C11.1911 15.1371 9.92206 14.8022 8.62983 14.59C7.76113 14.4449 6.87814 14.4046 5.99983 14.47C5.45673 14.5306 4.93401 14.7117 4.46983 15C4.28241 15.1019 4.12035 15.2447 3.9957 15.4179C3.87106 15.591 3.78702 15.79 3.74983 16C3.73713 16.4239 3.87534 16.8385 4.13983 17.17C4.46084 17.5827 4.84972 17.9378 5.28983 18.22L7.34983 19.58C7.38791 19.6037 7.43028 19.6196 7.47451 19.6268C7.51874 19.6341 7.56397 19.6326 7.60761 19.6224C7.65125 19.6122 7.69246 19.5934 7.72887 19.5673C7.76528 19.5412 7.79619 19.5081 7.81983 19.47C7.84346 19.432 7.85937 19.3896 7.86663 19.3454C7.8739 19.3011 7.87238 19.2559 7.86217 19.2123C7.85195 19.1686 7.83324 19.1274 7.8071 19.091C7.78096 19.0546 7.74791 19.0237 7.70983 19L5.70983 17.56C5.44645 17.3554 5.20814 17.1205 4.99983 16.86C4.80866 16.6601 4.69823 16.3965 4.68983 16.12C4.68983 15.9 4.93983 15.79 5.14983 15.7C5.44893 15.5785 5.76716 15.5108 6.08983 15.5C6.89485 15.4746 7.70012 15.5417 8.48983 15.7C8.86983 15.76 9.24983 15.85 9.62983 15.94C9.2669 16.3649 9.01854 16.8754 8.90828 17.4232C8.79803 17.971 8.82954 18.5379 8.99983 19.07C9.20108 19.5988 9.54775 20.0599 9.99983 20.4C10.6432 20.888 11.4071 21.1922 12.2098 21.28C13.1892 21.3446 14.1569 21.0375 14.9198 20.42C15.4993 19.9208 15.9084 19.2531 16.0898 18.51C16.3598 18.67 16.6398 18.83 16.9098 19.01C17.252 19.2329 17.5645 19.4984 17.8398 19.8C17.9999 19.9736 18.1164 20.1826 18.1798 20.41C18.2098 20.63 18.0798 20.76 17.9098 20.86ZM14.3198 19.68C13.736 20.0826 13.0219 20.2504 12.3198 20.15C11.7235 20.0705 11.1564 19.8437 10.6698 19.49C10.3586 19.2828 10.1042 19.0009 9.92983 18.67C9.76721 18.2479 9.71492 17.7913 9.77792 17.3434C9.84091 16.8954 10.0171 16.4709 10.2898 16.11C10.9098 16.28 11.5098 16.47 12.0498 16.67C12.9024 16.9532 13.7372 17.2871 14.5498 17.67C14.8498 17.81 15.1298 17.97 15.4198 18.12C15.2412 18.75 14.8532 19.3002 14.3198 19.68Z" fill="black"/>
</g>
<defs>
<clipPath id="clip0_36_1249">
<rect width="24" height="24" fill="white"/>
</clipPath>
</defs>
</svg>
