<svg width="24" height="24" viewBox="0 0 24 24" fill="none" xmlns="http://www.w3.org/2000/svg">
<g clip-path="url(#clip0_32_287)">
<path fill-rule="evenodd" clip-rule="evenodd" d="M22.9398 1.82003C22.2354 0.990537 21.2984 0.391392 20.2498 0.100026C19.4955 -0.0815055 18.7018 -0.00037384 17.9998 0.330026C17.3159 0.622957 16.7271 1.10086 16.2998 1.71003C16.1348 1.91721 15.9876 2.138 15.8598 2.37003C15.7991 2.48427 15.7649 2.61074 15.7598 2.74003C15.791 2.84863 15.847 2.94851 15.9234 3.0318C15.9997 3.1151 16.0944 3.17953 16.1999 3.22003C16.8004 3.4852 17.3848 3.78572 17.9499 4.12003C18.0307 4.17174 18.1289 4.18921 18.2226 4.16858C18.3164 4.14795 18.3981 4.09092 18.4499 4.01003C18.5016 3.92914 18.519 3.83101 18.4984 3.73724C18.4778 3.64348 18.4207 3.56174 18.3398 3.51003C17.859 3.18459 17.3617 2.88419 16.8498 2.61003C16.9298 2.47003 16.9998 2.30003 17.0399 2.24003C17.3881 1.78339 17.8601 1.43632 18.3998 1.24003C18.8849 1.03757 19.4244 1.00584 19.9298 1.15003C20.7469 1.41512 21.4672 1.91618 21.9998 2.59003C22.518 3.22379 22.769 4.03435 22.6999 4.85003C22.7147 4.99966 22.7147 5.15039 22.6999 5.30003C22.6838 5.39932 22.657 5.49656 22.6199 5.59003C22.5042 5.56941 22.3905 5.5393 22.2799 5.50003C21.5896 5.30496 20.9199 5.04375 20.2799 4.72003L19.9698 4.58003C19.8908 4.5362 19.7999 4.5184 19.7101 4.52917C19.6204 4.53995 19.5363 4.57873 19.4698 4.64003C19.2598 4.86003 18.5798 5.75003 18.1598 6.23003C15.5098 4.00003 11.7698 3.60003 9.04985 4.00003C7.80405 4.20253 6.63617 4.73809 5.66985 5.55003C5.32985 5.21003 4.82985 4.62003 4.59985 4.45003C4.52691 4.3979 4.4395 4.36988 4.34985 4.36988C4.2602 4.36988 4.17279 4.3979 4.09985 4.45003L3.82985 4.67003C3.25804 5.1459 2.6457 5.57085 1.99985 5.94003C1.89985 5.94003 1.76985 6.07003 1.66985 6.11003C1.62387 6.02625 1.58377 5.93937 1.54985 5.85003C1.50183 5.70566 1.46177 5.55878 1.42985 5.41003C1.22873 4.61038 1.3471 3.76384 1.75985 3.05003C2.1796 2.31618 2.80545 1.72162 3.55985 1.34003C4.03251 1.1124 4.56858 1.05245 5.07985 1.17003C5.63375 1.26405 6.15199 1.50589 6.57985 1.87003C6.63985 1.93003 6.75985 2.14003 6.87985 2.26003C6.52435 2.69678 6.0902 3.0631 5.59985 3.34003C5.50498 3.35716 5.42055 3.41064 5.36452 3.48908C5.30849 3.56752 5.28529 3.66473 5.29985 3.76003C5.31923 3.85372 5.37324 3.93666 5.4511 3.99227C5.52896 4.04789 5.62493 4.07208 5.71985 4.06003C6.29526 3.80666 6.81773 3.44704 7.25985 3.00003L7.74985 2.55003C7.80779 2.49585 7.85171 2.42841 7.87784 2.35351C7.90397 2.27861 7.91152 2.19849 7.89985 2.12003C7.87331 1.99288 7.81864 1.87329 7.73985 1.77003C7.57446 1.56359 7.39397 1.36972 7.19985 1.19003C6.6665 0.672944 6.00298 0.310081 5.27985 0.140026C4.52359 -0.0656497 3.71997 -0.00925568 2.99985 0.300026C2.01781 0.768337 1.1991 1.52086 0.649849 2.46003C0.107522 3.44645 -0.025364 4.60651 0.279849 5.69003C0.346158 5.93182 0.436613 6.16633 0.549849 6.39003C0.632758 6.56465 0.740546 6.72633 0.869849 6.87003C1.04248 7.0346 1.26515 7.13677 1.50249 7.16033C1.73983 7.18388 1.97824 7.12746 2.17985 7.00003C2.98239 6.51677 3.72432 5.93934 4.38985 5.28003C4.61985 5.48003 4.90985 5.76003 5.15985 5.99003C4.15102 6.99907 3.40877 8.24302 2.99985 9.61003C2.14767 12.3522 2.40993 15.3198 3.72985 17.87C3.97166 18.3059 4.26365 18.712 4.59985 19.08L3.69985 21.81C3.61998 22.0791 3.58617 22.3597 3.59985 22.64C3.62667 22.8589 3.72511 23.0629 3.87985 23.22C3.99326 23.3345 4.1251 23.4292 4.26985 23.5C4.41985 23.58 4.59985 23.64 4.73985 23.7C5.00361 23.8193 5.2782 23.9131 5.55985 23.98C5.72903 24.0337 5.91067 24.0337 6.07985 23.98C6.38635 23.8324 6.6694 23.6403 6.91985 23.41C7.24055 23.0959 7.54114 22.7619 7.81985 22.41L8.45985 21.59C9.58124 21.9712 10.7556 22.1736 11.9398 22.19C13.4423 22.2198 14.9333 21.9229 16.3098 21.32C16.3098 21.38 16.4498 21.47 16.4798 21.49L17.2598 22.2C17.597 22.4936 17.951 22.7674 18.3198 23.02C18.6107 23.2034 18.9276 23.3417 19.2598 23.43C19.4378 23.4616 19.6209 23.4443 19.7899 23.38C20.0518 23.2548 20.3027 23.1076 20.5399 22.94C20.7172 22.8394 20.8846 22.7222 21.0399 22.59C21.1364 22.5094 21.2206 22.415 21.2899 22.31C21.4097 22.1265 21.4659 21.9086 21.4499 21.69C21.4101 21.4153 21.3185 21.1506 21.1798 20.91L19.9998 18.8C19.9578 18.7281 19.8901 18.6747 19.8104 18.6506C19.7306 18.6265 19.6447 18.6334 19.5698 18.67C19.4943 18.7085 19.4371 18.7754 19.4109 18.8561C19.3846 18.9367 19.3915 19.0244 19.4298 19.1C19.5798 19.46 19.7299 19.82 19.8699 20.19C20.0098 20.56 20.1098 20.93 20.2298 21.29C20.3498 21.65 20.4798 21.7 19.9298 22.06C19.5698 22.28 19.3998 22.25 18.9298 22.06C18.5638 21.8835 18.2097 21.683 17.8699 21.46L16.9998 20.91C18.2857 20.2161 19.3315 19.1494 19.9998 17.85C20.0436 17.7638 20.0513 17.6638 20.0213 17.5719C19.9913 17.48 19.926 17.4038 19.8398 17.36C19.7537 17.3163 19.6536 17.3085 19.5617 17.3385C19.4698 17.3686 19.3936 17.4338 19.3498 17.52C17.9499 20.2 14.9598 21.33 11.9998 21.22C9.03985 21.11 5.99985 19.73 4.74985 17.34C3.60628 15.0635 3.39116 12.432 4.14985 10C4.4572 8.79725 5.09803 7.70576 5.99855 6.85124C6.89906 5.99673 8.02263 5.41395 9.23985 5.17003C11.7398 4.71003 15.2398 4.99003 17.5798 7.00003C19.3898 8.55003 20.5198 11.13 20.0698 15.14C20.0612 15.2245 20.0855 15.3091 20.1377 15.3762C20.1898 15.4432 20.2658 15.4876 20.3498 15.5C20.3919 15.5056 20.4347 15.5028 20.4757 15.4917C20.5166 15.4806 20.555 15.4615 20.5885 15.4354C20.622 15.4094 20.65 15.3769 20.6708 15.3399C20.6916 15.3029 20.7049 15.2622 20.7098 15.22C21.2798 11.16 20.2398 8.45003 18.5299 6.69003C18.8899 6.34003 19.3998 5.78003 19.7198 5.45003C20.5096 5.93004 21.3561 6.30964 22.2398 6.58003C22.4584 6.65533 22.6949 6.66116 22.9169 6.5967C23.139 6.53225 23.3356 6.40067 23.4798 6.22003C23.5853 6.056 23.6661 5.87745 23.7198 5.69003C23.7897 5.44491 23.8365 5.19383 23.8598 4.94003C23.9693 3.82008 23.6394 2.70143 22.9398 1.82003ZM7.66985 21.25L7.16985 21.74C6.86985 22.01 6.51985 22.24 6.23985 22.53C5.95985 22.82 5.54985 22.71 5.16985 22.53C4.60985 22.28 4.63985 22.38 5.09985 19.93V19.65C5.86106 20.3233 6.72977 20.8641 7.66985 21.25Z" fill="black"/>
<path fill-rule="evenodd" clip-rule="evenodd" d="M10.2897 14.14C10.3163 14.3412 10.4035 14.5296 10.5397 14.68C10.6979 14.8247 10.9054 14.9034 11.1197 14.9C11.3453 14.8691 11.569 14.8257 11.7897 14.77C12.1603 14.7011 12.5341 14.651 12.9097 14.62L14.0797 14.53H14.9997C15.1961 14.5343 15.3919 14.5073 15.5797 14.45H15.6897C15.7574 14.4122 15.8119 14.3545 15.8459 14.2848C15.8798 14.2151 15.8916 14.1366 15.8797 14.06C15.8717 14.0005 15.848 13.9441 15.8112 13.8967C15.7743 13.8493 15.7255 13.8125 15.6697 13.79C15.4497 13.71 15.1997 13.79 15.1497 13.79L14.1497 13.66C13.6597 13.66 13.1497 13.6 12.7097 13.6C12.3767 13.5796 12.0428 13.5796 11.7097 13.6C11.6282 13.622 11.5481 13.6487 11.4697 13.68C11.5397 12.68 11.6397 14.15 11.2797 10.33L11.2297 9.21002V8.68002C11.2351 8.6469 11.2351 8.61313 11.2297 8.58002C11.2338 8.52229 11.2159 8.46516 11.1797 8.42002C11.1797 8.36002 10.6497 8.18002 10.5797 8.60002C10.5797 8.74002 10.5197 9.14002 10.5097 9.21002L10.3897 10.33C10.3897 10.9 10.2997 11.46 10.2997 12.03C10.2798 12.4164 10.2798 12.8036 10.2997 13.19C10.2797 13.36 10.2497 13.84 10.2897 14.14Z" fill="black"/>
</g>
<defs>
<clipPath id="clip0_32_287">
<rect width="24" height="24" fill="white"/>
</clipPath>
</defs>
</svg>
