<svg width="24" height="24" viewBox="0 0 24 24" fill="none" xmlns="http://www.w3.org/2000/svg">
<g clip-path="url(#clip0_32_272)">
<path d="M23.4201 13.34V12.61C23.3994 12.4671 23.3555 12.3286 23.2901 12.2C23.2324 12.1078 23.1566 12.0283 23.0671 11.9664C22.9777 11.9045 22.8767 11.8615 22.7701 11.84C22.4545 11.803 22.1356 11.803 21.8201 11.84C21.7299 11.84 21.6434 11.8758 21.5796 11.9396C21.5159 12.0033 21.4801 12.0898 21.4801 12.18C21.4801 12.2702 21.5159 12.3567 21.5796 12.4204C21.6434 12.4842 21.7299 12.52 21.8201 12.52H22.4001C22.5101 12.52 22.6201 12.52 22.6601 12.58V13.39C22.7165 15.3118 22.5826 17.2346 22.2601 19.13C22.1439 20.3273 21.7352 21.4777 21.0701 22.48C20.8118 22.6325 20.5197 22.7184 20.2201 22.73C19.3191 22.8565 18.4097 22.9133 17.5001 22.9C15.9304 22.9293 14.362 22.7952 12.8201 22.5C12.6607 22.4521 12.5091 22.3814 12.3701 22.29C12.6601 21.38 13.3701 19.99 13.7501 18.61C13.9447 17.9615 14.0391 17.287 14.0301 16.61C14.0129 15.4273 14.073 14.2448 14.2101 13.07V12.91C15.9962 12.6098 17.8 12.426 19.6101 12.36C20.1501 12.36 20.4201 12.36 20.4001 12.12C20.3801 11.88 20.4001 11.72 20.1601 11.73H19.5801C18.3301 11.73 15.5801 11.87 14.3801 12.05C14.1308 12.0771 13.8876 12.1447 13.6601 12.25C13.4321 12.5629 13.2969 12.9338 13.2701 13.32C13.1266 14.4148 13.0399 15.5163 13.0101 16.62C12.9894 17.1815 12.8884 17.7372 12.7101 18.27C12.2301 19.83 11.3601 21.41 11.1401 22.27C11.0977 22.4249 11.1048 22.5891 11.1604 22.7397C11.216 22.8903 11.3173 23.0198 11.4501 23.11C12.3616 23.5754 13.3668 23.8284 14.3901 23.85C16.3139 24.0385 18.253 24.0083 20.1701 23.76C20.7517 23.712 21.3089 23.5044 21.7801 23.16C22.0001 22.93 22.7801 21.83 23.1401 19.22C23.4216 17.2735 23.5154 15.3044 23.4201 13.34Z" fill="black"/>
<path d="M18.6002 15.25C18.3905 15.235 18.1799 15.235 17.9702 15.25C17.3902 15.32 16.8902 15.45 16.5002 15.51C16.4206 15.51 16.3443 15.5416 16.2881 15.5978C16.2318 15.6541 16.2002 15.7304 16.2002 15.81C16.2002 15.8895 16.2318 15.9658 16.2881 16.0221C16.3443 16.0784 16.4206 16.11 16.5002 16.11C17.0584 16.2248 17.6226 16.3083 18.1902 16.36C18.5231 16.3846 18.8573 16.3846 19.1902 16.36C19.7702 16.36 20.2902 16.22 20.6802 16.21C20.7641 16.205 20.8434 16.1701 20.9036 16.1115C20.9639 16.0529 21.001 15.9746 21.0083 15.8909C21.0156 15.8072 20.9925 15.7236 20.9433 15.6555C20.8941 15.5874 20.822 15.5393 20.7402 15.52C20.2422 15.4096 19.7379 15.3295 19.2302 15.28C19.0002 15.27 18.8202 15.25 18.6002 15.25Z" fill="black"/>
<path d="M18.3203 19.13H17.1803C15.4903 19.37 15.6703 19.24 15.5903 19.3C15.5103 19.36 15.3403 19.51 15.4703 19.73C15.6003 19.95 15.6003 19.9 16.1203 20.02L17.1803 20.22C17.5667 20.24 17.9539 20.24 18.3403 20.22C18.9305 20.1604 19.5155 20.0568 20.0903 19.91C20.1788 19.8999 20.2598 19.8555 20.3159 19.7863C20.372 19.7171 20.3987 19.6287 20.3903 19.54C20.3879 19.4948 20.3762 19.4506 20.356 19.4101C20.3357 19.3695 20.3074 19.3336 20.2727 19.3046C20.238 19.2755 20.1976 19.2539 20.1542 19.241C20.1108 19.2282 20.0652 19.2245 20.0203 19.23C19.4503 19.24 18.8903 19.15 18.3203 19.13Z" fill="black"/>
<path d="M9.10006 20.74C7.58006 20.74 6.00006 20.66 4.69006 20.57C3.92448 20.5297 3.16264 20.4361 2.41006 20.29C2.26006 20.29 2.04006 20.29 2.08006 20.19C2.02116 20.0336 1.99396 19.867 2.00006 19.7C2.00006 19.38 2.00006 19.06 1.95006 18.86C1.90006 18.13 1.84006 15.08 1.72006 12.05C1.59006 8.81999 1.39006 5.59999 1.41006 5.27999V4.99999C1.70377 4.78843 2.04938 4.66056 2.41006 4.62999C2.73006 4.62999 3.06006 4.57999 3.41006 4.56999C3.20706 5.08673 3.17896 5.65576 3.33006 6.18999C3.34388 6.31859 3.40258 6.43821 3.49586 6.52783C3.58913 6.61744 3.711 6.67132 3.84006 6.67999C3.84006 6.67999 6.38006 6.67999 8.71006 6.67999C10.0201 6.67999 11.2701 6.67999 11.9701 6.60999C12.0505 6.60483 12.1258 6.56853 12.1799 6.50879C12.2341 6.44905 12.2628 6.37056 12.2601 6.28999C12.2602 6.24369 12.2496 6.19799 12.2291 6.15647C12.2087 6.11495 12.1789 6.07872 12.1421 6.05064C12.1053 6.02255 12.0625 6.00336 12.017 5.99458C11.9715 5.98579 11.9247 5.98764 11.8801 5.99999C11.3301 5.99999 10.4501 5.99999 9.48006 5.92999C7.57006 5.83999 5.29006 5.66999 4.31006 5.59999V5.29999C4.34746 5.13743 4.39421 4.97716 4.45006 4.81999C4.4918 4.6948 4.55251 4.57676 4.63006 4.46999C4.78069 4.26694 4.98021 4.10527 5.21006 3.99999C5.66187 3.80265 6.13502 3.65836 6.62006 3.56999L6.91006 3.50999C6.98507 3.49453 7.05628 3.46437 7.11957 3.42125C7.18287 3.37813 7.237 3.3229 7.27883 3.25875C7.32067 3.1946 7.34939 3.1228 7.36333 3.04749C7.37727 2.97219 7.37616 2.89486 7.36006 2.81999L7.24006 2.15999C7.23808 2.03363 7.26498 1.9085 7.3187 1.79412C7.37242 1.67974 7.45155 1.57914 7.55006 1.49999C7.81409 1.28897 8.12137 1.13874 8.45006 1.05999C8.60697 1.01551 8.77315 1.01551 8.93006 1.05999C9.10548 1.11747 9.26599 1.21309 9.40006 1.33999C9.57883 1.52243 9.70345 1.75091 9.76006 1.99999C9.80697 2.29422 9.82705 2.59211 9.82006 2.88999C9.81906 2.99699 9.85709 3.1007 9.92704 3.18169C9.99698 3.26268 10.094 3.3154 10.2001 3.32999C10.5383 3.35842 10.8731 3.41869 11.2001 3.50999C11.5145 3.59957 11.8143 3.73431 12.0901 3.90999C12.2987 4.04953 12.4511 4.25861 12.5201 4.49999C12.6033 4.7892 12.6438 5.08905 12.6401 5.38999C12.6315 5.44021 12.634 5.4917 12.6473 5.54086C12.6607 5.59003 12.6847 5.63568 12.7175 5.67462C12.7504 5.71356 12.7914 5.74487 12.8376 5.76634C12.8838 5.78781 12.9341 5.79894 12.9851 5.79894C13.036 5.79894 13.0863 5.78781 13.1326 5.76634C13.1788 5.74487 13.2197 5.71356 13.2526 5.67462C13.2854 5.63568 13.3094 5.59003 13.3228 5.54086C13.3362 5.4917 13.3386 5.44021 13.3301 5.38999C13.3519 4.94188 13.2874 4.49374 13.1401 4.06999C13.0218 3.74257 12.8052 3.45968 12.5201 3.25999C12.1924 3.03611 11.8358 2.85781 11.4601 2.72999C11.2192 2.64353 10.9717 2.57665 10.7201 2.52999C10.7369 2.19353 10.7032 1.85645 10.6201 1.52999C10.5243 1.21701 10.3642 0.927498 10.1501 0.679986C9.92186 0.407057 9.62499 0.199938 9.29006 0.079986C8.94005 -0.0578995 8.55633 -0.0858066 8.19006 -1.4022e-05C7.58501 0.124535 7.03118 0.427574 6.60006 0.869986C6.28052 1.22392 6.10252 1.68315 6.10006 2.15999L6.15006 2.49999C5.64625 2.61161 5.15653 2.77933 4.69006 2.99999C4.28909 3.19706 3.94493 3.49303 3.69006 3.85999C3.68825 3.88662 3.68825 3.91335 3.69006 3.93999C3.12602 3.91866 2.56117 3.93872 2.00006 3.99999C1.64044 4.05481 1.29828 4.19168 1.00006 4.39999C0.894032 4.47361 0.813627 4.57848 0.770059 4.69999C0.692478 4.85879 0.635356 5.0268 0.600059 5.19999C0.600059 5.51999 0.510059 8.78999 0.600059 12.09C0.660059 15.14 0.830059 18.2 0.890059 18.94C0.885763 19.3758 0.922593 19.8111 1.00006 20.24C1.05629 20.5001 1.1845 20.7392 1.37006 20.93C1.90296 21.2228 2.502 21.3743 3.11006 21.37C4.57006 21.48 6.89006 21.49 9.11006 21.42C9.19849 21.4174 9.28242 21.3804 9.34404 21.3169C9.40565 21.2535 9.4401 21.1685 9.44006 21.08C9.44144 21.035 9.4336 20.9901 9.417 20.9483C9.40041 20.9064 9.37541 20.8683 9.34356 20.8365C9.31171 20.8046 9.27367 20.7796 9.23179 20.763C9.18991 20.7464 9.14508 20.7386 9.10006 20.74Z" fill="black"/>
<path d="M14.24 4.21001C14.4473 4.26118 14.6438 4.34925 14.82 4.47001C15.34 4.82001 15.15 4.89001 15.15 5.16001V6.16001V7.22001C15.15 8.01001 15.3 8.90001 15.37 9.88001C15.37 9.91941 15.3777 9.95842 15.3928 9.99481C15.4079 10.0312 15.43 10.0643 15.4578 10.0921C15.4857 10.12 15.5188 10.1421 15.5552 10.1572C15.5916 10.1722 15.6306 10.18 15.67 10.18C15.7094 10.18 15.7484 10.1722 15.7848 10.1572C15.8212 10.1421 15.8542 10.12 15.8821 10.0921C15.91 10.0643 15.932 10.0312 15.9471 9.99481C15.9622 9.95842 15.97 9.91941 15.97 9.88001C16.08 9.08001 16.19 8.33001 16.25 7.64001V6.64001C16.2582 6.09191 16.2281 5.54392 16.16 5.00001C16.1641 4.76036 16.1091 4.52339 16 4.31001C15.7916 4.08696 15.5442 3.90394 15.27 3.77001C15.0002 3.64016 14.7085 3.56214 14.41 3.54001C14.3652 3.5314 14.3192 3.53186 14.2747 3.54136C14.2302 3.55087 14.188 3.56922 14.1507 3.59534C14.1134 3.62145 14.0817 3.6548 14.0575 3.69339C14.0334 3.73199 14.0172 3.77504 14.01 3.82001C13.9959 3.90173 14.0113 3.98578 14.0534 4.05721C14.0955 4.12863 14.1616 4.18278 14.24 4.21001Z" fill="black"/>
</g>
<defs>
<clipPath id="clip0_32_272">
<rect width="24" height="24" fill="white"/>
</clipPath>
</defs>
</svg>
