<svg width="24" height="24" viewBox="0 0 24 24" fill="none" xmlns="http://www.w3.org/2000/svg">
<g clip-path="url(#clip0_36_731)">
<path fill-rule="evenodd" clip-rule="evenodd" d="M23.0001 0.679988C22.467 0.277663 21.8062 0.0822536 21.1401 0.129988C20.8983 0.156713 20.6622 0.22081 20.4401 0.319988C20.1454 0.484389 19.8732 0.686047 19.6301 0.919988C19.5971 0.95171 19.5709 0.98976 19.553 1.03186C19.5351 1.07396 19.5258 1.11924 19.5258 1.16499C19.5258 1.21074 19.5351 1.25602 19.553 1.29812C19.5709 1.34022 19.5971 1.37827 19.6301 1.40999C19.6609 1.44267 19.6981 1.46872 19.7394 1.48651C19.7807 1.50431 19.8251 1.51349 19.8701 1.51349C19.915 1.51349 19.9595 1.50431 20.0008 1.48651C20.042 1.46872 20.0792 1.44267 20.1101 1.40999C20.2748 1.25852 20.4521 1.12136 20.6401 0.999988C20.819 0.902356 21.0168 0.844377 21.2201 0.829988C21.6874 0.829075 22.1403 0.991826 22.5001 1.28999C22.6822 1.40523 22.8356 1.56071 22.9482 1.74447C23.0609 1.92823 23.13 2.13537 23.1501 2.34999C23.1537 2.69683 23.0749 3.03957 22.9201 3.34999C22.7587 3.66726 22.5534 3.96016 22.3101 4.21999L21.1001 5.57999C20.8001 5.25999 20.4901 4.93999 20.1601 4.63999C20.0001 4.48999 19.8301 4.35999 19.6701 4.21999L19.3401 3.99999L18.5001 3.50999L18.3401 3.38999L18.6101 2.99999L19.2901 2.14999C19.314 2.11728 19.3309 2.0799 19.3395 2.04029C19.3481 2.00067 19.3483 1.95969 19.3401 1.91999C19.3401 1.76999 19.1901 1.53999 18.8901 1.71999C18.6001 1.49999 18.3501 1.23999 18.0701 1.01999C17.8998 0.892247 17.7153 0.784851 17.5201 0.699988C17.3617 0.633975 17.1917 0.599988 17.0201 0.599988C16.8484 0.599988 16.6785 0.633975 16.5201 0.699988C16.213 0.850855 15.93 1.0463 15.6801 1.27999C15.3503 1.57308 15.0396 1.88706 14.7501 2.21999C14.3499 2.72479 13.9793 3.25234 13.6401 3.79999C13.576 3.86541 13.54 3.95337 13.54 4.04499C13.54 4.1366 13.576 4.22456 13.6401 4.28999C13.7038 4.3535 13.7901 4.38916 13.8801 4.38916C13.9701 4.38916 14.0564 4.3535 14.1201 4.28999C14.4201 3.97999 14.7301 3.69999 15.0301 3.41999C15.4774 2.99716 15.9481 2.59986 16.4401 2.22999C16.5801 2.10999 16.7501 1.95999 16.9301 1.82999C17.1101 1.69999 17.0901 1.66999 17.2001 1.68999C17.3301 1.7092 17.4575 1.74273 17.5801 1.78999C17.8601 1.91999 18.1301 2.08999 18.4101 2.22999L18.0601 2.63999C16.6701 4.26999 13.6201 7.83999 12.3701 9.45999C12.0867 9.78665 11.8663 10.163 11.7201 10.57C11.7201 10.85 11.5901 12.86 11.6101 13.68C11.5983 13.7796 11.5983 13.8803 11.6101 13.98C11.4567 14.0735 11.3097 14.1771 11.1701 14.29C11.0826 14.3658 11.0023 14.4495 10.9301 14.54C10.8611 14.6293 10.7976 14.7228 10.7401 14.82C10.1901 15.72 10.3101 15.82 10.3201 15.82C10.334 15.8965 10.377 15.9646 10.4401 16.01C10.4976 16.0633 10.5718 16.0951 10.6501 16.1C10.6501 16.1 10.8001 16.19 11.5901 15.49C11.6798 15.4203 11.7604 15.3397 11.8301 15.25C11.9063 15.1675 11.9733 15.0769 12.0301 14.98C12.1071 14.8486 12.1739 14.7115 12.2301 14.57C12.4516 14.6108 12.6786 14.6108 12.9001 14.57C13.764 14.3698 14.6127 14.1091 15.4401 13.79C15.6051 13.7257 15.75 13.6187 15.8601 13.48C16.1101 13.21 16.6001 12.64 17.2101 11.89C18.9701 9.72999 21.7801 6.11999 22.9101 4.80999C23.2011 4.47935 23.4435 4.10897 23.6301 3.70999C23.851 3.2962 23.9774 2.83853 24.0001 2.36999C23.9685 2.03195 23.8624 1.7051 23.6895 1.4129C23.5166 1.12071 23.2812 0.870413 23.0001 0.679988ZM15.2401 12.53L15.0501 12.73C14.3191 13.0328 13.5629 13.2704 12.7901 13.44V10.71C12.8801 10.71 12.1701 11.2 17.8801 3.91999L18.0101 4.04999L18.5501 4.69999C18.8116 5.01794 19.1104 5.30332 19.4401 5.54999C19.7985 5.78837 20.1727 6.0022 20.5601 6.18999C19.7101 7.18999 18.7301 8.32999 17.8301 9.40999C16.7301 10.76 15.7301 12 15.2401 12.53Z" fill="black"/>
<path fill-rule="evenodd" clip-rule="evenodd" d="M18.63 17.53L17.93 15.93C17.9217 15.8863 17.9041 15.8449 17.8784 15.8086C17.8527 15.7722 17.8195 15.7419 17.781 15.7196C17.7425 15.6972 17.6997 15.6835 17.6554 15.6792C17.6111 15.6749 17.5664 15.6801 17.5243 15.6946C17.4823 15.7091 17.4438 15.7325 17.4116 15.7632C17.3794 15.7939 17.3542 15.8311 17.3376 15.8724C17.3211 15.9137 17.3136 15.9581 17.3158 16.0026C17.3179 16.047 17.3296 16.0905 17.35 16.13L18.04 17.83C18.58 18.91 19.04 19.46 19.26 19.9C19.4013 20.119 19.4515 20.3845 19.4 20.64C19.4 20.69 19.3 20.7 19.2 20.76C18.8511 20.9452 18.482 21.0895 18.1 21.19C15.7722 21.8013 13.3972 22.2161 11 22.43C8.62912 22.7299 6.23562 22.8102 3.84998 22.67C3.51245 22.6416 3.17792 22.5848 2.84998 22.5C2.75344 22.4639 2.65983 22.4205 2.56998 22.37C2.45279 22.1602 2.34924 21.9431 2.25998 21.72C2.16297 21.5121 2.08919 21.2941 2.03998 21.07C1.5557 18.3091 1.2484 15.5201 1.11998 12.72C0.912772 10.0306 0.912772 7.32933 1.11998 4.63999C2.04998 4.41999 3.30998 4.20999 4.71998 4.02999C6.60998 3.78999 8.71998 3.61999 10.72 3.54999C10.7655 3.55001 10.8105 3.54089 10.8524 3.52318C10.8944 3.50547 10.9323 3.47953 10.964 3.44689C10.9957 3.41425 11.0205 3.37558 11.037 3.33317C11.0535 3.29076 11.0613 3.24547 11.06 3.19999C11.0574 3.1089 11.0194 3.02243 10.954 2.95894C10.8886 2.89545 10.8011 2.85995 10.71 2.85999C8.70998 2.85999 6.57998 3.01999 4.65998 3.20999C3.31598 3.33581 1.9804 3.53949 0.659982 3.81999C0.573533 3.84204 0.495364 3.88876 0.434997 3.95446C0.374629 4.02015 0.334669 4.10198 0.319982 4.18999C-0.0169922 7.04042 -0.093976 9.9156 0.0899823 12.78C0.198367 15.6374 0.502412 18.4841 0.999982 21.3C1.05912 21.5441 1.13258 21.7845 1.21998 22.02C1.35516 22.3419 1.50874 22.6557 1.67998 22.96C1.89739 23.2097 2.16432 23.4116 2.46385 23.5528C2.76338 23.6939 3.08897 23.7713 3.41998 23.78C5.39894 23.9491 7.39032 23.9055 9.35998 23.65C12.6777 23.3714 15.9505 22.7 19.11 21.65C19.79 21.36 20.11 21.01 20.18 20.74C20.2402 20.4526 20.2159 20.1539 20.11 19.88C19.87 19.39 19.34 18.88 18.63 17.53Z" fill="black"/>
<path fill-rule="evenodd" clip-rule="evenodd" d="M9.67008 11.63C9.63993 11.5342 9.57485 11.4532 9.48778 11.4032C9.40071 11.3532 9.29801 11.3378 9.20008 11.36C9.12008 11.36 9.20008 11.28 8.85008 11.36C8.08008 11.45 6.85008 11.66 5.79008 11.81C5.47008 11.86 5.16008 11.9 4.88008 11.96C4.23008 12.08 3.74008 12.22 3.55008 12.24C3.48612 12.2522 3.42843 12.2864 3.38694 12.3366C3.34545 12.3868 3.32275 12.4498 3.32275 12.515C3.32275 12.5801 3.34545 12.6432 3.38694 12.6934C3.42843 12.7435 3.48612 12.7777 3.55008 12.79C4.04932 12.8691 4.55475 12.9026 5.06008 12.89C5.51008 12.89 6.06008 12.83 6.53008 12.78C7.31751 12.7043 8.09917 12.5774 8.87008 12.4C9.60008 12.16 9.73008 11.85 9.67008 11.63Z" fill="black"/>
<path fill-rule="evenodd" clip-rule="evenodd" d="M5.45007 7.77C4.77251 7.91946 4.10462 8.10981 3.45007 8.34C3.37814 8.35893 3.31624 8.40478 3.27716 8.46805C3.23807 8.53133 3.22479 8.60721 3.24007 8.68C3.25889 8.75145 3.30518 8.81257 3.36887 8.85004C3.43256 8.8875 3.50847 8.89827 3.58007 8.88C4.47007 8.74 5.33007 8.71 6.23007 8.64C7.47007 8.53 8.76007 8.4 10.2301 8.21C10.6101 8.16 11.0101 8.13 11.4101 8.04C11.538 8.04422 11.6658 8.03076 11.7901 8C11.8501 8 11.8701 7.93 11.9301 7.89C12.0276 7.87283 12.1145 7.81829 12.1724 7.73798C12.2303 7.65767 12.2546 7.55793 12.2401 7.46C12.1801 7 11.3801 7 11.3001 7C9.59007 7.12 8.14007 7.33 6.79007 7.51C6.33007 7.61 5.89007 7.67 5.45007 7.77Z" fill="black"/>
<path fill-rule="evenodd" clip-rule="evenodd" d="M8.81003 15.84C8.68003 15.84 8.52003 15.84 8.34003 15.89L7.04003 16.09C6.36003 16.2 5.64003 16.31 5.09003 16.45C4.78519 16.527 4.48475 16.6204 4.19003 16.73H4.13003C4.08111 16.7152 4.02894 16.7152 3.98003 16.73C3.98003 16.73 3.85003 17.22 4.26003 17.26C4.43003 17.26 4.76003 17.32 5.26003 17.32C5.92921 17.2984 6.5968 17.2416 7.26003 17.15C7.75003 17.09 8.26003 17.02 8.59003 16.95C8.73232 16.9271 8.8727 16.8937 9.01003 16.85C9.18105 16.7788 9.3397 16.6809 9.48003 16.56C9.57163 16.511 9.6406 16.4283 9.67233 16.3294C9.70405 16.2305 9.69606 16.1231 9.65003 16.03C9.56003 16 9.52003 15.86 8.81003 15.84Z" fill="black"/>
</g>
<defs>
<clipPath id="clip0_36_731">
<rect width="24" height="24" fill="white"/>
</clipPath>
</defs>
</svg>
