<svg width="24" height="24" viewBox="0 0 24 24" fill="none" xmlns="http://www.w3.org/2000/svg">
<g clip-path="url(#clip0_36_1169)">
<path fill-rule="evenodd" clip-rule="evenodd" d="M18.33 20C18.4211 20 18.5086 19.9646 18.574 19.9011C18.6393 19.8376 18.6774 19.7511 18.68 19.66C18.7447 18.6878 18.6706 17.7113 18.46 16.76C18.3704 16.3482 18.2501 15.9438 18.1 15.55C17.9506 15.1563 17.77 14.775 17.56 14.41C17.0849 13.6026 16.4273 12.9176 15.64 12.41C16.134 11.9728 16.5267 11.4332 16.791 10.8288C17.0552 10.2243 17.1845 9.56953 17.17 8.91001C17.2396 8.04981 17.1618 7.18403 16.94 6.35001C16.7507 5.78681 16.4516 5.26677 16.06 4.82001C16.0282 4.78704 15.9902 4.76082 15.9481 4.7429C15.906 4.72499 15.8607 4.71575 15.815 4.71575C15.7692 4.71575 15.7239 4.72499 15.6818 4.7429C15.6397 4.76082 15.6017 4.78704 15.57 4.82001C15.4987 4.87862 15.4535 4.96297 15.4442 5.05473C15.4348 5.14648 15.4621 5.23822 15.52 5.31001C15.9197 5.78887 16.1854 6.36509 16.29 6.98001C16.3706 7.62751 16.3706 8.28251 16.29 8.93001C16.2809 9.72543 16.0107 10.4958 15.5211 11.1228C15.0315 11.7497 14.3495 12.1985 13.58 12.4C12.801 12.6099 11.9847 12.6416 11.1918 12.4927C10.3989 12.3438 9.64974 12.0182 8.99996 11.54C8.55443 11.1768 8.23291 10.6841 8.07996 10.13C7.88624 9.55102 7.8214 8.93669 7.88996 8.33001C7.97732 7.45338 8.27212 6.61013 8.74996 5.87001C9.21927 5.15017 9.92751 4.61899 10.75 4.37001C11.3796 4.17937 12.0322 4.07509 12.69 4.06001C13.3372 4.04666 13.9804 4.16576 14.58 4.41001C14.6529 4.44316 14.736 4.44598 14.811 4.41785C14.886 4.38972 14.9468 4.33295 14.98 4.26001C15.0131 4.18708 15.0159 4.10396 14.9878 4.02895C14.9597 3.95393 14.9029 3.89316 14.83 3.86001C14.1643 3.54043 13.4382 3.36656 12.7 3.35001C11.9731 3.33431 11.2472 3.41161 10.54 3.58001C9.52076 3.84433 8.62375 4.45175 7.99996 5.30001C7.38558 6.14639 6.98114 7.12665 6.81996 8.16001C6.70289 8.93697 6.76445 9.7304 6.99996 10.48C7.22135 11.2728 7.69099 11.9737 8.33996 12.48L8.55996 12.62C7.6384 13.0466 6.83508 13.692 6.21996 14.5C5.80663 15.0422 5.48875 15.651 5.27996 16.3C5.07936 16.9485 4.96833 17.6214 4.94996 18.3C4.893 18.7912 4.86629 19.2855 4.86996 19.78C4.87113 20.0426 4.92912 20.3019 5.03996 20.54C5.08011 20.6112 5.146 20.6644 5.2241 20.6886C5.30221 20.7127 5.3866 20.7061 5.45996 20.67C5.49616 20.6511 5.52825 20.6251 5.5544 20.5937C5.58054 20.5623 5.60022 20.5261 5.6123 20.487C5.62438 20.448 5.62863 20.407 5.62479 20.3663C5.62096 20.3256 5.60912 20.2861 5.58996 20.25C5.53442 20.0403 5.53442 19.8197 5.58996 19.61C5.65996 19.16 5.80996 18.68 5.86996 18.41C5.97603 17.8305 6.14365 17.264 6.36996 16.72C6.57337 16.1831 6.83493 15.67 7.14996 15.19C7.72167 14.3231 8.49333 13.6063 9.39996 13.1C10.824 13.746 12.4351 13.8491 13.93 13.39C14.3567 13.2499 14.7634 13.0549 15.14 12.81C15.8537 13.5112 16.3975 14.3663 16.73 15.31C16.97 15.86 17.19 16.43 17.38 17C17.6922 17.8621 17.9004 18.7585 18 19.67C18.0047 19.756 18.0411 19.8372 18.1019 19.898C18.1628 19.9589 18.244 19.9952 18.33 20Z" fill="black"/>
<path fill-rule="evenodd" clip-rule="evenodd" d="M0.239944 6.28001C0.233378 6.32644 0.233378 6.37357 0.239944 6.42001C0.263964 6.48041 0.307584 6.531 0.363801 6.56364C0.420019 6.59628 0.485574 6.60909 0.549944 6.60001C0.929944 6.54001 0.809944 6.19001 0.819944 5.78001C0.865582 4.74877 0.965722 3.72067 1.11994 2.70001C1.15266 2.31157 1.23327 1.92866 1.35994 1.56001C1.38614 1.49406 1.42664 1.43475 1.47851 1.38633C1.53039 1.33791 1.59235 1.3016 1.65994 1.28001C2.07228 1.19704 2.49 1.14357 2.90994 1.12001C3.22379 1.06016 3.54108 1.02008 3.85994 1.00001H6.21994C6.30941 1.00015 6.39553 0.966035 6.46062 0.904662C6.52571 0.84329 6.56483 0.759322 6.56994 0.670006C6.56994 0.57718 6.53307 0.488156 6.46743 0.422518C6.40179 0.356881 6.31277 0.320006 6.21994 0.320006C5.42994 0.280006 4.65994 0.130006 3.86994 0.0800057C3.51419 0.0466211 3.15626 0.0432759 2.79994 0.0700057C2.3012 0.0546662 1.80216 0.0881591 1.30994 0.170006C1.08366 0.235966 0.875669 0.353316 0.702208 0.512901C0.528746 0.672486 0.3945 0.869991 0.309944 1.09001C0.125426 1.5732 0.020726 2.08319 -5.63534e-05 2.60001C-0.0155661 3.67291 0.044583 4.74557 0.179944 5.81001C0.189963 5.96779 0.210003 6.12477 0.239944 6.28001Z" fill="black"/>
<path fill-rule="evenodd" clip-rule="evenodd" d="M6.28979 23H3.91979C3.61093 22.9791 3.30368 22.939 2.99979 22.88C2.57655 22.8564 2.1555 22.8029 1.73979 22.72C1.67231 22.6973 1.611 22.6594 1.56068 22.6091C1.51036 22.5587 1.4724 22.4974 1.44979 22.43C1.31773 22.0657 1.23369 21.6859 1.19979 21.3C1.05832 20.2787 0.97153 19.2505 0.939791 18.22C0.968728 18.0076 0.968728 17.7923 0.939791 17.58C0.939791 17.49 0.429791 17.25 0.339791 17.72L0.279791 18.19C0.133297 19.2535 0.0664446 20.3265 0.0797911 21.4C0.0909538 21.9151 0.185512 22.4251 0.359791 22.91C0.443677 23.1304 0.577702 23.3282 0.751263 23.4879C0.924824 23.6476 1.13316 23.7647 1.35979 23.83C1.85169 23.9151 2.35073 23.9519 2.84979 23.94C3.20936 23.9649 3.57022 23.9649 3.92979 23.94C4.71979 23.88 5.48979 23.74 6.27979 23.7C6.37262 23.7 6.46164 23.6631 6.52728 23.5974C6.59292 23.5318 6.62979 23.4428 6.62979 23.35C6.62979 23.2571 6.59292 23.1681 6.52728 23.1025C6.46164 23.0368 6.37262 23 6.27979 23H6.28979Z" fill="black"/>
<path fill-rule="evenodd" clip-rule="evenodd" d="M17.7098 1.00001C18.4998 1.05001 19.2898 1.00001 20.0798 1.00001C20.3947 1.01016 20.7087 1.04022 21.0198 1.09001C21.4431 1.1136 21.8641 1.16707 22.2798 1.25001C22.3459 1.27225 22.4062 1.30891 22.4564 1.35734C22.5065 1.40577 22.5453 1.46475 22.5698 1.53001C22.7016 1.89773 22.7857 2.28087 22.8198 2.67001C22.9836 3.9037 23.0771 5.14571 23.0998 6.39001C23.0998 6.48001 23.6098 6.71001 23.6998 6.25001L23.7598 5.78001C23.8929 4.71213 23.9464 3.63583 23.9198 2.56001C23.9088 2.0481 23.8142 1.54142 23.6398 1.06001C23.5565 0.838138 23.4229 0.638642 23.2493 0.477253C23.0758 0.315863 22.8671 0.196991 22.6398 0.130011C22.147 0.0534866 21.6484 0.0200269 21.1498 0.0300108C20.7901 0.0100159 20.4295 0.0100159 20.0698 0.0300108C19.2798 0.0900108 18.5098 0.230011 17.7198 0.280011C17.6296 0.280011 17.5432 0.315832 17.4794 0.379594C17.4156 0.443357 17.3798 0.529837 17.3798 0.620011C17.3742 0.66707 17.3785 0.714778 17.3925 0.760073C17.4064 0.805367 17.4297 0.847249 17.4607 0.88303C17.4918 0.918811 17.53 0.947701 17.5729 0.967846C17.6158 0.987992 17.6624 0.998948 17.7098 1.00001Z" fill="black"/>
<path fill-rule="evenodd" clip-rule="evenodd" d="M23.82 18.17C23.82 17.75 23.77 17.33 23.42 17.39C23.07 17.45 23.16 17.74 23.15 18.2C23.1152 19.2308 23.025 20.2589 22.88 21.28C22.8484 21.6686 22.7677 22.0516 22.64 22.42C22.6151 22.4867 22.5751 22.5467 22.523 22.5953C22.4709 22.6439 22.4083 22.6798 22.34 22.7C21.9285 22.7879 21.5104 22.8414 21.09 22.86C20.7756 22.9098 20.4583 22.9399 20.14 22.95H17.78C17.7298 22.9414 17.6783 22.9439 17.6292 22.9573C17.58 22.9707 17.5344 22.9947 17.4954 23.0275C17.4565 23.0604 17.4252 23.1013 17.4037 23.1475C17.3822 23.1937 17.3711 23.2441 17.3711 23.295C17.3711 23.346 17.3822 23.3963 17.4037 23.4425C17.4252 23.4887 17.4565 23.5297 17.4954 23.5625C17.5344 23.5954 17.58 23.6194 17.6292 23.6327C17.6783 23.6461 17.7298 23.6486 17.78 23.64C18.57 23.69 19.34 23.83 20.13 23.89C20.4864 23.9101 20.8437 23.9101 21.2 23.89C21.6987 23.9004 22.1973 23.8669 22.69 23.79C22.9167 23.7217 23.1246 23.6023 23.298 23.4411C23.4713 23.2799 23.6054 23.0811 23.69 22.86C23.8645 22.3786 23.959 21.8719 23.97 21.36C23.994 20.2945 23.9439 19.2286 23.82 18.17Z" fill="black"/>
</g>
<defs>
<clipPath id="clip0_36_1169">
<rect width="24" height="24" fill="white"/>
</clipPath>
</defs>
</svg>
