<svg width="24" height="24" viewBox="0 0 24 24" fill="none" xmlns="http://www.w3.org/2000/svg">
<g clip-path="url(#clip0_36_988)">
<path fill-rule="evenodd" clip-rule="evenodd" d="M1.60992 9.00006C2.22563 9.2502 2.90468 9.29921 3.54992 9.14006C3.85305 9.0508 4.13071 8.89098 4.36016 8.6737C4.5896 8.45643 4.76429 8.18788 4.86992 7.89006C5.01214 7.49467 5.0564 7.0707 4.99893 6.65446C4.94146 6.23822 4.78396 5.84212 4.53992 5.50006C4.21118 5.07628 3.73077 4.79664 3.19992 4.72006C2.64205 4.61946 2.0666 4.70251 1.55993 4.95674C1.05327 5.21097 0.642726 5.62268 0.389924 6.13006C0.22941 6.75526 0.293102 7.41695 0.569924 8.00006C0.780098 8.45118 1.15091 8.80773 1.60992 9.00006ZM1.15992 6.35006C1.29465 5.9963 1.56326 5.70982 1.90761 5.55261C2.25197 5.39541 2.64438 5.38012 2.99992 5.51006C3.30629 5.57097 3.578 5.74615 3.75992 6.00006C3.96722 6.37157 4.02105 6.8094 3.90992 7.22006C3.8802 7.3974 3.80322 7.56345 3.68706 7.70071C3.57091 7.83798 3.4199 7.94139 3.24992 8.00006C2.9215 8.08098 2.57835 8.08098 2.24992 8.00006C2.09829 7.97639 1.95293 7.92261 1.82241 7.84189C1.69188 7.76117 1.57883 7.65515 1.48992 7.53006C1.23347 7.1932 1.11543 6.77108 1.15992 6.35006Z" fill="black"/>
<path fill-rule="evenodd" clip-rule="evenodd" d="M19.0001 4.81007C18.9219 4.8783 18.8484 4.95181 18.7801 5.03007C18.4505 5.39887 18.1464 5.78978 17.8701 6.20006L17.2801 7.10006C17.2801 7.10006 17.0301 7.31007 17.0001 7.41006C16.6331 7.20697 16.234 7.06829 15.8201 7.00007C14.9371 6.84939 14.0296 6.94623 13.1982 7.27984C12.3668 7.61345 11.6441 8.17079 11.1101 8.89007L11.0001 8.83007L9.80012 8.21007C9.32912 8.05404 8.84799 7.93042 8.36012 7.84007C7.87263 7.77665 7.38171 7.74326 6.89012 7.74006L6.14012 7.54007C6.04995 7.54007 5.96347 7.57589 5.8997 7.63965C5.83594 7.70341 5.80012 7.78989 5.80012 7.88007C5.80167 7.96576 5.83374 8.04808 5.89057 8.11224C5.94739 8.1764 6.02524 8.21818 6.11012 8.23006C6.11012 8.32006 6.32012 8.38006 6.46012 8.45006C6.55773 8.50596 6.66184 8.54962 6.77012 8.58007C7.24012 8.69007 7.68012 8.85007 8.14012 8.96007C8.60012 9.07007 9.05012 9.13006 9.52012 9.24007L10.6901 9.49007H10.8001V9.57007C10.494 10.714 10.6039 11.9295 11.1101 13.0001C11.256 13.2876 11.4411 13.5535 11.6601 13.7901L12.1901 14.2601C12.4037 14.4145 12.6313 14.5485 12.8701 14.6601C13.3989 14.8739 13.9603 14.9956 14.5301 15.0201H15.3101C15.6478 14.9926 15.9824 14.9357 16.3101 14.8501C16.9886 14.6382 17.5833 14.2184 18.0101 13.6501C18.1201 13.7701 18.3001 14.0101 18.5701 14.3101C18.6455 14.4041 18.7291 14.4911 18.8201 14.5701C18.9601 14.6901 19.1001 14.8001 19.2401 14.9001C20.1401 15.1401 20.2401 14.7301 20.1801 14.2001L20.0001 14.0001C19.8696 13.8786 19.7291 13.7682 19.5801 13.6701L19.2501 13.4901C18.8801 13.3001 18.5801 13.1801 18.4301 13.1201C18.615 12.7672 18.7497 12.3902 18.8301 12.0001C19.0882 10.7567 18.8514 9.46169 18.1701 8.39007C18.0196 8.16831 17.8377 7.96957 17.6301 7.80007L17.8501 7.62006L18.7801 6.83007C19.0601 6.48007 19.3901 6.14007 19.6901 5.77007C19.7901 5.66007 19.8801 5.54007 19.9701 5.42007C20.2401 4.44007 20.0001 4.18007 19.0001 4.81007ZM14.4501 15.6601V16.0901V16.7301C14.4501 16.9401 14.5401 17.3501 14.5901 17.6601C14.6401 17.9701 15.5401 18.2101 15.5901 17.7501C15.6401 17.2901 15.5901 17.0301 15.5901 16.6701C15.585 16.449 15.565 16.2285 15.5301 16.0101C15.5029 15.8612 15.4662 15.7142 15.4201 15.5701C15.2801 15.1701 14.5401 15.2601 14.4501 15.6601ZM10.7901 14.3701L10.4901 14.5601C10.0301 14.8401 9.57012 15.1001 9.12012 15.4001C8.67012 15.7001 8.24012 16.0001 7.82012 16.3201C7.00012 17.0001 6.16012 17.6801 5.37012 18.3901L5.12012 18.6101C4.20012 19.6101 4.44012 19.7801 5.61012 19.3401L6.00012 19.1001C6.51012 18.7201 7.00012 18.3701 7.55012 18.0001C8.10012 17.6301 8.55012 17.2601 9.07012 16.8801C9.74012 16.3601 10.3801 15.8201 11.0701 15.3001L11.4001 15.0301C11.6701 14.3701 11.4901 14.1601 10.7901 14.3701ZM17.7201 11.7701C17.6389 12.2269 17.4364 12.6536 17.1338 13.0054C16.8312 13.3573 16.4397 13.6214 16.0001 13.7701C15.253 13.9676 14.4673 13.9676 13.7201 13.7701C13.3658 13.704 13.0294 13.5638 12.733 13.3587C12.4366 13.1537 12.1869 12.8883 12.0001 12.5801C11.5185 11.7495 11.3517 10.7734 11.5301 9.83007C12.0001 7.96007 14.2101 7.45007 15.6401 7.83007C15.9828 7.88952 16.3096 8.01872 16.6003 8.20966C16.891 8.40059 17.1394 8.6492 17.3301 8.94006C17.804 9.80324 17.9429 10.8109 17.7201 11.7701Z" fill="black"/>
<path fill-rule="evenodd" clip-rule="evenodd" d="M14.7 18.2901C14.3646 18.2545 14.0255 18.2816 13.7 18.3701C13.3539 18.441 13.0328 18.6024 12.7693 18.8378C12.5058 19.0732 12.3094 19.3741 12.2 19.7101C12.0353 20.3881 12.1354 21.1034 12.48 21.7101C12.7272 22.1342 13.117 22.4568 13.58 22.6201C14.201 22.8197 14.869 22.8197 15.49 22.6201C15.9007 22.4944 16.2544 22.2291 16.49 21.8701C16.6861 21.5313 16.7991 21.1509 16.82 20.7601C16.8227 20.7141 16.8163 20.668 16.8012 20.6245C16.786 20.581 16.7625 20.5409 16.7318 20.5066C16.7012 20.4722 16.664 20.4442 16.6225 20.4242C16.581 20.4042 16.536 20.3926 16.49 20.3901C16.4445 20.386 16.3987 20.3911 16.3553 20.4051C16.3118 20.4191 16.2716 20.4417 16.2371 20.4715C16.2026 20.5014 16.1744 20.5379 16.1543 20.5789C16.1342 20.6199 16.1225 20.6645 16.12 20.7101C16.0916 20.9662 15.991 21.2089 15.83 21.4101C15.6843 21.585 15.4832 21.7049 15.26 21.7501C14.9013 21.8061 14.5343 21.7752 14.19 21.6601C14.0455 21.622 13.9104 21.5544 13.7933 21.4614C13.6763 21.3685 13.5798 21.2522 13.51 21.1201C13.3156 20.7922 13.2447 20.4056 13.31 20.0301C13.3603 19.8572 13.4523 19.6994 13.5778 19.5703C13.7033 19.4413 13.8586 19.3451 14.03 19.2901C14.3417 19.1439 14.6892 19.0918 15.03 19.1401C15.3622 19.1641 15.6715 19.3187 15.89 19.5701C15.9399 19.6249 16.0079 19.6599 16.0814 19.669C16.155 19.678 16.2294 19.6603 16.2911 19.6192C16.3528 19.5781 16.3977 19.5162 16.4177 19.4448C16.4377 19.3734 16.4314 19.2972 16.4 19.2301C16.2052 18.9055 15.9105 18.6529 15.56 18.5101L14.7 18.2901Z" fill="black"/>
<path fill-rule="evenodd" clip-rule="evenodd" d="M23.3297 0.810034C23.0087 0.377212 22.5315 0.0866276 21.9997 3.42503e-05C21.4428 -0.103059 20.8675 -0.0222352 20.3607 0.230308C19.8538 0.482852 19.4428 0.893412 19.1897 1.40003C19.0208 2.02884 19.0884 2.69774 19.3797 3.28003C19.5138 3.55376 19.7088 3.79319 19.9497 3.98003L20.7297 4.35003C21.2614 4.4838 21.818 4.4838 22.3497 4.35003C22.6407 4.26965 22.9097 4.12443 23.1366 3.92526C23.3634 3.7261 23.5423 3.47816 23.6597 3.20003C23.8019 2.80464 23.8462 2.38068 23.7887 1.96444C23.7312 1.5482 23.5737 1.15209 23.3297 0.810034ZM22.6997 2.55003C22.6707 2.72308 22.5933 2.88439 22.4765 3.01533C22.3597 3.14627 22.2083 3.24151 22.0397 3.29003C21.7107 3.36609 21.3687 3.36609 21.0397 3.29003C20.888 3.26637 20.7427 3.21259 20.6122 3.13187C20.4816 3.05115 20.3686 2.94512 20.2797 2.82003C19.4197 1.53003 20.4197 0.440034 21.8497 0.820034C22.1498 0.88915 22.4115 1.07196 22.5797 1.33003C22.7729 1.70678 22.8158 2.14286 22.6997 2.55003Z" fill="black"/>
<path fill-rule="evenodd" clip-rule="evenodd" d="M4.37981 20.3201L3.85981 19.8301C3.59678 19.6702 3.30433 19.5648 2.99981 19.5201C2.44324 19.4184 1.86872 19.5011 1.3634 19.7556C0.858083 20.0101 0.449559 20.4224 0.199812 20.9301C0.0328878 21.5577 0.107839 22.2251 0.409812 22.8001C0.604615 23.2479 0.961961 23.6053 1.40981 23.8001C2.04411 24.0605 2.74542 24.1096 3.40981 23.9401C3.71161 23.8552 3.98922 23.7005 4.22025 23.4886C4.45128 23.2767 4.62925 23.0134 4.73981 22.7201C4.88038 22.3211 4.92106 21.8937 4.85831 21.4753C4.79555 21.0569 4.63127 20.6603 4.37981 20.3201ZM3.73981 22.0001C3.71003 22.1744 3.63118 22.3365 3.51251 22.4676C3.39385 22.5987 3.24028 22.6932 3.06981 22.7401C2.74102 22.8179 2.3986 22.8179 2.06981 22.7401C1.91766 22.7181 1.77166 22.665 1.64091 22.5842C1.51016 22.5033 1.39745 22.3964 1.30981 22.2701C1.07421 21.9428 0.964183 21.5417 0.999812 21.1401C1.06279 20.96 1.16189 20.7948 1.29102 20.6544C1.42016 20.5141 1.57661 20.4016 1.75078 20.3239C1.92495 20.2462 2.11316 20.2048 2.30387 20.2025C2.49458 20.2001 2.68376 20.2367 2.85981 20.3101C3.15955 20.3802 3.4209 20.5627 3.58981 20.8201C3.78763 21.1802 3.84125 21.602 3.73981 22.0001Z" fill="black"/>
<path fill-rule="evenodd" clip-rule="evenodd" d="M23.4899 14.7301C23.2771 14.4603 22.9822 14.2672 22.6499 14.1801C22.3007 14.1005 21.9376 14.1043 21.5901 14.1911C21.2427 14.278 20.9205 14.4455 20.6499 14.6801L20.2399 15.4401C20.1696 15.8658 20.2217 16.3027 20.3899 16.7001C20.5581 17.0485 20.8454 17.3251 21.1999 17.4801C21.6847 17.6795 22.2199 17.7215 22.7299 17.6001C22.9742 17.5315 23.1983 17.4047 23.3829 17.2305C23.5675 17.0563 23.7072 16.84 23.7899 16.6001C23.8939 16.2872 23.921 15.9539 23.8688 15.6284C23.8166 15.3028 23.6866 14.9947 23.4899 14.7301ZM22.7699 16.0501C22.7527 16.1489 22.708 16.2408 22.6407 16.3151C22.5734 16.3894 22.4865 16.4432 22.3899 16.4701C22.1694 16.5209 21.9403 16.5209 21.7199 16.4701C21.6277 16.4621 21.5382 16.4348 21.4572 16.3901C21.3763 16.3453 21.3056 16.2839 21.2499 16.2101C21.1604 16.1046 21.0937 15.9817 21.0541 15.8492C21.0145 15.7167 21.0029 15.5774 21.0199 15.4401C21.1199 14.9101 21.7299 14.7601 22.2499 14.9101C22.44 14.9567 22.6048 15.0749 22.7099 15.2401C22.776 15.3634 22.8155 15.4992 22.8258 15.6387C22.8362 15.7782 22.8171 15.9184 22.7699 16.0501Z" fill="black"/>
</g>
<defs>
<clipPath id="clip0_36_988">
<rect width="24" height="24" fill="white"/>
</clipPath>
</defs>
</svg>
