<svg width="24" height="24" viewBox="0 0 24 24" fill="none" xmlns="http://www.w3.org/2000/svg">
<g clip-path="url(#clip0_36_1085)">
<path fill-rule="evenodd" clip-rule="evenodd" d="M3.50986 17.12C2.89233 16.9946 2.25138 17.0573 1.66986 17.3C1.62806 17.3145 1.5896 17.3372 1.55677 17.3669C1.52393 17.3966 1.4974 17.4325 1.47874 17.4726C1.46008 17.5127 1.44968 17.5562 1.44816 17.6004C1.44663 17.6446 1.45401 17.6887 1.46986 17.73C1.50136 17.8128 1.56393 17.88 1.64423 17.9173C1.72454 17.9547 1.81625 17.9592 1.89986 17.93C2.37379 17.7952 2.87592 17.7952 3.34986 17.93C3.79044 18.0252 4.1773 18.2867 4.42986 18.66C4.73442 19.1934 4.82384 19.8229 4.67986 20.42C4.63695 20.687 4.52074 20.9368 4.34417 21.1416C4.1676 21.3465 3.93762 21.4982 3.67986 21.58C3.1874 21.7028 2.67232 21.7028 2.17986 21.58C1.94414 21.5441 1.71812 21.4609 1.51534 21.3355C1.31257 21.21 1.13724 21.0449 0.999859 20.85C0.833655 20.5421 0.741228 20.1997 0.729859 19.85C0.702885 19.4695 0.757433 19.0877 0.889859 18.73C0.906913 18.6615 0.899293 18.5893 0.868337 18.5259C0.837381 18.4625 0.78507 18.412 0.720597 18.3833C0.656124 18.3547 0.583614 18.3497 0.51581 18.3692C0.448007 18.3887 0.389248 18.4315 0.349859 18.49C0.148625 18.9031 0.0297467 19.3515 -0.000141155 19.81C-0.029739 20.3029 0.0558548 20.7959 0.249859 21.25C0.414513 21.5763 0.646855 21.8637 0.931383 22.093C1.21591 22.3223 1.54608 22.4884 1.89986 22.58C2.58201 22.7868 3.30702 22.8075 3.99986 22.64C4.45994 22.5141 4.87417 22.2586 5.19327 21.9041C5.51237 21.5495 5.72291 21.1108 5.79986 20.64C5.8795 20.2029 5.87191 19.7543 5.77752 19.3201C5.68313 18.8859 5.5038 18.4746 5.24986 18.11C5.04121 17.8366 4.7796 17.608 4.48064 17.4379C4.18169 17.2678 3.85152 17.1597 3.50986 17.12Z" fill="black"/>
<path fill-rule="evenodd" clip-rule="evenodd" d="M12.3098 6.84C12.4815 6.82543 12.6519 6.7987 12.8198 6.76C13.2787 6.63186 13.6917 6.37574 14.0104 6.02157C14.3292 5.66741 14.5405 5.22984 14.6198 4.76C14.6992 4.32445 14.6914 3.87748 14.597 3.44494C14.5026 3.0124 14.3234 2.60286 14.0698 2.24C13.6596 1.69775 13.0525 1.33857 12.3798 1.24C11.7581 1.13365 11.1193 1.19581 10.5298 1.42C10.4486 1.45349 10.3829 1.5163 10.3459 1.59596C10.3088 1.67562 10.3031 1.7663 10.3298 1.85C10.3432 1.89269 10.3652 1.9322 10.3945 1.96612C10.4237 2.00004 10.4595 2.02767 10.4997 2.04731C10.5399 2.06696 10.5837 2.07821 10.6284 2.08039C10.6732 2.08257 10.7178 2.07563 10.7598 2.06C11.2337 1.92519 11.7359 1.92519 12.2098 2.06C12.6504 2.14873 13.0384 2.40738 13.2898 2.78C13.594 3.31713 13.6834 3.94962 13.5398 4.55C13.4958 4.81658 13.3792 5.06588 13.2028 5.27052C13.0264 5.47516 12.797 5.62722 12.5398 5.71C12.0473 5.83238 11.5323 5.83238 11.0398 5.71C10.804 5.67722 10.5773 5.5975 10.3729 5.47555C10.1685 5.3536 9.99059 5.19189 9.84979 5C9.68324 4.6922 9.59079 4.34979 9.57978 4C9.55281 3.61953 9.60736 3.23769 9.73978 2.88C9.75684 2.81154 9.74922 2.73925 9.71826 2.67585C9.68731 2.61245 9.635 2.56199 9.57052 2.53334C9.50605 2.50468 9.43354 2.49967 9.36574 2.51917C9.29793 2.53868 9.23917 2.58146 9.19978 2.64C8.99555 3.06514 8.88311 3.52853 8.86978 4C8.83323 4.49229 8.91554 4.98617 9.10978 5.44C9.28492 5.75099 9.52153 6.02308 9.8052 6.2397C10.0889 6.45631 10.4137 6.61293 10.7598 6.7C11.0361 6.78381 11.3215 6.83417 11.6098 6.85L12.3098 6.84Z" fill="black"/>
<path fill-rule="evenodd" clip-rule="evenodd" d="M11.5097 7.61L11.2797 9C11.1897 9.72 11.1197 10.44 11.0897 11.17V12.35C10.3397 12.35 9.58967 12.35 8.83967 12.43C7.75757 12.5141 6.68601 12.7016 5.63967 12.99C4.92699 13.1836 4.26274 13.5242 3.68967 13.99C3.28599 14.3212 2.97577 14.7521 2.78967 15.24C2.71847 15.4604 2.67481 15.6888 2.65967 15.92C2.83967 16.55 3.07967 16.39 3.32967 15.92C3.35093 15.7721 3.39126 15.6276 3.44967 15.49C3.66769 15.0408 4.01622 14.6679 4.44967 14.42C4.88883 14.1447 5.3728 13.9484 5.87967 13.84C6.8688 13.6439 7.87196 13.5269 8.87967 13.49C9.60967 13.49 10.3397 13.44 11.0597 13.43V14.34L11.1897 16C11.3597 16.57 11.6297 16.53 11.9697 16L12.0997 14.45C12.0997 14.14 12.0997 13.82 12.1497 13.51H13.6097C14.3997 13.51 15.2097 13.39 16.0097 13.35C16.3426 13.3283 16.6767 13.3283 17.0097 13.35C17.6203 13.3815 18.2155 13.5525 18.7497 13.85C19.2734 14.1347 19.7065 14.5609 19.9997 15.08C20.1463 15.3402 20.2733 15.6109 20.3797 15.89C20.3757 15.9232 20.3757 15.9568 20.3797 15.99C20.6897 16.55 20.9397 16.53 21.1397 15.99C21.1442 15.9368 21.1442 15.8832 21.1397 15.83C21.0199 15.4531 20.8729 15.0855 20.6997 14.73C20.365 14.0439 19.8411 13.4679 19.1897 13.07C18.5465 12.6712 17.822 12.4217 17.0697 12.34C16.7101 12.3149 16.3492 12.3149 15.9897 12.34C15.1997 12.34 14.3997 12.43 13.6297 12.42H12.1997V11V9.16L12.2797 7.66C11.9997 7 11.6997 7 11.5097 7.61Z" fill="black"/>
<path fill-rule="evenodd" clip-rule="evenodd" d="M23.9997 19.3299C23.9235 18.9756 23.7737 18.6412 23.5601 18.3483C23.3465 18.0555 23.0738 17.8108 22.7597 17.6299C20.8597 16.4299 19.1897 17.1299 18.5197 18.5299C18.3278 18.9298 18.2175 19.3639 18.1952 19.8069C18.1728 20.2498 18.239 20.6928 18.3897 21.1099C18.6585 21.7338 19.1559 22.2311 19.7797 22.4999C20.3524 22.7597 20.9847 22.8599 21.6097 22.7899C21.654 22.7875 21.6973 22.7761 21.737 22.7564C21.7768 22.7368 21.8122 22.7094 21.8412 22.6758C21.8701 22.6422 21.892 22.6031 21.9055 22.5609C21.9189 22.5186 21.9238 22.4741 21.9197 22.4299C21.9097 22.3425 21.8671 22.262 21.8003 22.2045C21.7336 22.1471 21.6477 22.1169 21.5597 22.1199C21.0637 22.1435 20.5712 22.0256 20.1397 21.7799C19.9388 21.6779 19.7602 21.537 19.6143 21.3653C19.4684 21.1936 19.358 20.9946 19.2897 20.7799C19.1221 20.1852 19.1865 19.5491 19.4697 18.9999C19.5825 18.7521 19.7618 18.5405 19.9879 18.3886C20.2139 18.2368 20.4776 18.1507 20.7497 18.1399C21.2574 18.138 21.7581 18.2581 22.2097 18.4899C22.4257 18.5847 22.6203 18.7221 22.7818 18.894C22.9433 19.0658 23.0685 19.2685 23.1497 19.4899C23.2304 19.8387 23.2304 20.2012 23.1497 20.5499C23.0651 20.909 22.9123 21.2485 22.6997 21.5499C22.6754 21.5795 22.6571 21.6135 22.646 21.6501C22.6349 21.6867 22.6311 21.7252 22.6348 21.7632C22.6385 21.8013 22.6497 21.8383 22.6677 21.872C22.6857 21.9058 22.7101 21.9357 22.7397 21.9599C22.7692 21.9842 22.8033 22.0025 22.8399 22.0136C22.8765 22.0248 22.9149 22.0286 22.953 22.0249C22.991 22.0211 23.028 22.01 23.0618 21.992C23.0955 21.974 23.1254 21.9495 23.1497 21.9199C23.46 21.5621 23.6917 21.1431 23.8297 20.6899C23.9881 20.2552 24.0462 19.7903 23.9997 19.3299Z" fill="black"/>
<path fill-rule="evenodd" clip-rule="evenodd" d="M9.29971 18C9.05022 18.3645 8.87576 18.7751 8.78648 19.2077C8.69721 19.6403 8.69491 20.0864 8.77971 20.52C8.94163 21.1794 9.35415 21.7497 9.92972 22.11C10.4538 22.4575 11.0617 22.6578 11.6897 22.69C11.7783 22.6955 11.8656 22.6662 11.9328 22.6083C12.0001 22.5503 12.0421 22.4684 12.0497 22.38C12.0553 22.3355 12.0515 22.2904 12.0386 22.2476C12.0257 22.2047 12.0039 22.165 11.9747 22.1311C11.9455 22.0971 11.9095 22.0697 11.869 22.0506C11.8285 22.0314 11.7845 22.021 11.7397 22.02C11.2498 21.9612 10.7858 21.7673 10.3997 21.46C10.0346 21.2022 9.78654 20.8102 9.70971 20.37C9.64323 19.7547 9.81899 19.1378 10.1997 18.65C10.3499 18.4225 10.5603 18.2412 10.8075 18.1264C11.0548 18.0116 11.329 17.9679 11.5997 18C12.1093 18.0796 12.5906 18.2859 12.9997 18.6C13.2018 18.7278 13.3753 18.8959 13.5095 19.0937C13.6437 19.2916 13.7357 19.515 13.7797 19.75C13.8035 20.1116 13.7454 20.4739 13.6097 20.81C13.4778 21.1819 13.2701 21.5225 12.9997 21.81C12.9454 21.8643 12.9148 21.9381 12.9148 22.015C12.9148 22.0918 12.9454 22.1656 12.9997 22.22C13.0268 22.2484 13.0594 22.271 13.0955 22.2865C13.1316 22.302 13.1704 22.31 13.2097 22.31C13.249 22.31 13.2879 22.302 13.324 22.2865C13.3601 22.271 13.3926 22.2484 13.4197 22.22C13.777 21.9105 14.0694 21.5332 14.2797 21.11C14.5069 20.6704 14.6301 20.1846 14.6397 19.69C14.6139 19.3241 14.5116 18.9676 14.3393 18.6438C14.1671 18.3199 13.9287 18.0359 13.6397 17.81C12.1997 16.55 10.3597 16.52 9.29971 18Z" fill="black"/>
</g>
<defs>
<clipPath id="clip0_36_1085">
<rect width="24" height="24" fill="white"/>
</clipPath>
</defs>
</svg>
