<svg width="24" height="24" viewBox="0 0 24 24" fill="none" xmlns="http://www.w3.org/2000/svg">
<g clip-path="url(#clip0_36_899)">
<path fill-rule="evenodd" clip-rule="evenodd" d="M23.8998 5.49C23.8709 4.39189 23.7505 3.2981 23.5398 2.22C23.4801 1.83891 23.2975 1.48777 23.0198 1.22C22.1374 0.865135 21.2003 0.665527 20.2498 0.630001C16.766 0.314468 13.2672 0.19428 9.76985 0.270001C7.42654 0.271209 5.08662 0.448373 2.76985 0.800001C2.04975 0.87102 1.36558 1.14886 0.799845 1.6C0.42448 2.31347 0.219134 3.10405 0.199845 3.91C-0.0182613 6.69116 -0.0650163 9.4831 0.0598454 12.27C0.118497 15.417 0.432865 18.554 0.999845 21.65C1.07674 22.084 1.2587 22.4925 1.52985 22.84C2.08328 23.1785 2.71208 23.3744 3.35985 23.41C5.57085 23.6589 7.79499 23.7724 10.0198 23.75C14.1738 23.8049 18.3267 23.5777 22.4498 23.07C22.4891 23.0652 22.5269 23.0524 22.561 23.0325C22.5951 23.0125 22.6248 22.9858 22.6482 22.9539C22.6716 22.9221 22.6883 22.8858 22.6972 22.8473C22.706 22.8088 22.707 22.7689 22.6998 22.73C22.6875 22.6493 22.6438 22.5768 22.5783 22.5281C22.5127 22.4794 22.4307 22.4585 22.3498 22.47C18.2483 22.9023 14.1222 23.056 9.99985 22.93C7.8164 22.9123 5.63592 22.7654 3.46985 22.49C3.01255 22.4645 2.56594 22.3418 2.15985 22.13C1.91234 21.5959 1.77299 21.0182 1.74985 20.43C1.41335 17.7122 1.22308 14.9782 1.17985 12.24C1.0751 9.4922 1.13521 6.7406 1.35985 4C1.36301 3.4297 1.47855 2.86562 1.69985 2.34C1.79069 2.27347 1.89211 2.22275 1.99985 2.19C2.44723 2.0469 2.90536 1.93989 3.36985 1.87C6.2319 1.50845 9.11518 1.3414 11.9998 1.37C15.2698 1.37 18.5498 1.45 20.6198 1.67C21.2384 1.69901 21.8504 1.80998 22.4398 2C22.3098 2.11 22.6198 2.42 22.6898 2.81C22.9244 4.36975 23.058 5.94303 23.0898 7.52C23.2498 11.93 23.1598 17.8 23.0898 21.52C23.0898 21.6111 23.1253 21.6987 23.1888 21.764C23.2523 21.8294 23.3388 21.8674 23.4298 21.87C23.521 21.87 23.6085 21.8345 23.6739 21.771C23.7392 21.7076 23.7772 21.6211 23.7798 21.53C23.9198 17.21 24.1198 10 23.8998 5.49Z" fill="black"/>
<path fill-rule="evenodd" clip-rule="evenodd" d="M4.28965 8.33002C4.99987 8.4121 5.71487 8.44552 6.42965 8.43002C6.82073 8.4334 7.21061 8.38635 7.58965 8.29002C7.72017 8.24748 7.83736 8.17165 7.92965 8.07002C8.02955 7.9458 8.09507 7.79752 8.11965 7.64002C8.19037 7.09634 8.20712 6.547 8.16965 6.00002C8.16366 5.43274 8.10677 4.86713 7.99965 4.31002C7.95814 4.16151 7.88284 4.02461 7.77965 3.91002C7.47012 3.75462 7.12554 3.68225 6.77965 3.70002C5.81229 3.69398 4.84597 3.7642 3.88965 3.91002C3.84007 3.92036 3.79354 3.94198 3.75365 3.97319C3.71377 4.00441 3.6816 4.04438 3.65965 4.09002C3.58827 4.10786 3.5249 4.14904 3.4796 4.20702C3.4343 4.26499 3.40968 4.33645 3.40965 4.41002C3.32137 5.42751 3.28465 6.44882 3.29965 7.47002C3.3082 7.71707 3.40795 7.95219 3.57965 8.13002C3.80187 8.24013 4.04263 8.30795 4.28965 8.33002ZM5.28965 4.50002C5.8626 4.50716 6.43421 4.55731 6.99965 4.65002C7.04203 5.34938 7.04203 6.05066 6.99965 6.75002V7.22002C6.16372 7.32131 5.32097 7.35475 4.47965 7.32002H4.15965C4.08103 6.3822 4.05099 5.44094 4.06965 4.50002C4.36965 4.48002 4.83965 4.48002 5.31965 4.50002H5.28965Z" fill="black"/>
<path fill-rule="evenodd" clip-rule="evenodd" d="M3.68962 14.23C3.91983 14.3471 4.17179 14.4152 4.42962 14.43C5.14 14.5108 5.8547 14.5475 6.56962 14.54C6.96116 14.5406 7.3511 14.4901 7.72962 14.39C7.85868 14.3444 7.97517 14.2691 8.06962 14.17C8.16622 14.0438 8.23135 13.8964 8.25962 13.74C8.32769 13.1861 8.34442 12.627 8.30962 12.07C8.28657 11.5145 8.21293 10.9622 8.08962 10.42C8.06027 10.2668 7.98327 10.1268 7.86962 10.02C7.56009 9.8646 7.21551 9.79224 6.86962 9.81001C5.90944 9.79761 4.94978 9.86114 3.99962 10C3.94954 10.0051 3.90175 10.0235 3.86128 10.0534C3.8208 10.0833 3.78914 10.1236 3.76962 10.17C3.69799 10.189 3.63422 10.2302 3.5875 10.2877C3.54077 10.3452 3.5135 10.416 3.50962 10.49C3.50962 11.35 3.35962 12.88 3.40962 13.56C3.40839 13.6848 3.43258 13.8086 3.48072 13.9238C3.52886 14.039 3.59993 14.1432 3.68962 14.23ZM5.44962 10.6C6.01562 10.6132 6.58015 10.6633 7.13962 10.75C7.18637 11.4426 7.18637 12.1375 7.13962 12.83V13.3C6.30369 13.4013 5.46094 13.4347 4.61962 13.4H4.29962C4.19962 12.77 4.17962 11.4 4.15962 10.57C4.50962 10.59 4.99962 10.59 5.44962 10.6Z" fill="black"/>
<path fill-rule="evenodd" clip-rule="evenodd" d="M3.89976 20.5301C4.12997 20.6471 4.38193 20.7152 4.63976 20.7301C5.34998 20.8121 6.06498 20.8455 6.77976 20.8301C7.16755 20.8336 7.55414 20.7865 7.92976 20.6901C8.06293 20.647 8.18324 20.5714 8.27976 20.4701C8.38241 20.3323 8.44785 20.1704 8.46976 20.0001C8.52134 19.4412 8.52134 18.8789 8.46976 18.3201C8.44694 17.7678 8.3733 17.2188 8.24976 16.6801C8.21702 16.5252 8.14068 16.383 8.02976 16.2701C7.71931 16.1181 7.37478 16.0492 7.02976 16.0701C6.06266 16.0604 5.09631 16.1273 4.13976 16.2701C4.08958 16.2789 4.04235 16.2999 4.00223 16.3313C3.96212 16.3627 3.93036 16.4035 3.90976 16.4501C3.83813 16.469 3.77436 16.5102 3.72764 16.5677C3.68091 16.6252 3.65365 16.6961 3.64976 16.7701C3.59976 17.6301 3.49976 19.1601 3.54976 19.8301C3.55804 19.9643 3.5933 20.0954 3.65344 20.2157C3.71357 20.336 3.79735 20.4429 3.89976 20.5301ZM5.65976 16.9001C6.22576 16.9132 6.79029 16.9633 7.34976 17.0501C7.39651 17.7426 7.39651 18.4375 7.34976 19.1301V19.6001C6.51306 19.6913 5.67106 19.7247 4.82976 19.7001C4.71999 19.6899 4.60953 19.6899 4.49976 19.7001C4.40976 19.0701 4.38976 17.7001 4.36976 16.8601C4.71976 16.8801 5.17976 16.8801 5.65976 16.9001Z" fill="black"/>
<path fill-rule="evenodd" clip-rule="evenodd" d="M13.8198 5.54998C13.9798 5.54998 14.3698 5.42998 14.4898 5.41998H16.1898H17.0598C17.6998 5.41998 18.3398 5.31998 18.9898 5.33998L21.1098 5.39998C21.1999 5.39998 21.2864 5.36416 21.3502 5.3004C21.4139 5.23663 21.4498 5.15015 21.4498 5.05998C21.4498 4.96886 21.4143 4.88132 21.3508 4.81596C21.2873 4.75061 21.2008 4.71258 21.1098 4.70998L18.9998 4.30998C18.6119 4.25846 18.2211 4.23174 17.8298 4.22998C17.2698 4.22998 16.7098 4.28998 16.1498 4.29998C15.8945 4.32193 15.6408 4.35866 15.3898 4.40998L14.3898 4.66998C14.2598 4.66998 13.4998 5.00998 13.4898 5.01998C13.4798 5.02998 13.3298 5.64998 13.8198 5.54998Z" fill="black"/>
<path fill-rule="evenodd" clip-rule="evenodd" d="M11.08 9.6C11.08 9.6 10.85 10.13 11.28 10.15H11.56C12.04 10.15 13.05 10.21 14.25 10.23H15.36C15.91 10.23 16.47 10.23 17.02 10.15C19.02 9.99 20.86 9.75 21.16 9.74C21.2511 9.7374 21.3376 9.69938 21.401 9.63402C21.4645 9.56866 21.5 9.48112 21.5 9.39C21.5 9.29983 21.4642 9.21335 21.4004 9.14958C21.3366 9.08582 21.2502 9.05 21.16 9.05C20.86 9 19 9 17 9C16.45 9 15.88 9 15.33 9.08L14.23 9.19C13.04 9.32 12.04 9.46 11.56 9.51C11.08 9.56 11.16 9.54 11.08 9.6Z" fill="black"/>
<path fill-rule="evenodd" clip-rule="evenodd" d="M21.1596 14.54C21.2498 14.54 21.3363 14.5042 21.4001 14.4404C21.4638 14.3767 21.4996 14.2902 21.4996 14.2C21.4997 14.1089 21.4642 14.0213 21.4007 13.956C21.3372 13.8906 21.2507 13.8526 21.1596 13.85C20.8596 13.85 18.9996 13.77 16.9696 13.85C16.4196 13.85 15.8496 13.85 15.2996 13.93L14.1996 14C13.0096 14.13 12.0096 14.26 11.5296 14.32C10.6296 14.41 11.0396 14.94 11.2796 14.95H11.5596C12.0396 14.95 13.0496 15.01 14.2496 15.03H15.3596C15.9096 15.03 16.4696 15.03 17.0196 14.95C18.9996 14.8 20.8596 14.56 21.1596 14.54Z" fill="black"/>
<path fill-rule="evenodd" clip-rule="evenodd" d="M14.0499 18.59H13.2599L12.7399 18.67C10.0999 19.14 11.4799 19.56 11.5199 19.57C11.7299 19.57 12.1799 19.66 12.7899 19.71C12.9664 19.7205 13.1434 19.7205 13.3199 19.71C13.5795 19.7294 13.8403 19.7294 14.0999 19.71C14.7199 19.65 15.3799 19.5 16.0999 19.39C16.1446 19.3874 16.1883 19.3761 16.2286 19.3566C16.2689 19.3371 16.3049 19.3098 16.3346 19.2764C16.3644 19.243 16.3872 19.204 16.4018 19.1617C16.4165 19.1194 16.4226 19.0746 16.4199 19.03C16.4147 18.9389 16.3742 18.8534 16.307 18.7918C16.2397 18.7302 16.1511 18.6972 16.0599 18.7C15.3399 18.68 14.6699 18.6 14.0499 18.59Z" fill="black"/>
</g>
<defs>
<clipPath id="clip0_36_899">
<rect width="24" height="24" fill="white"/>
</clipPath>
</defs>
</svg>
