<svg width="24" height="24" viewBox="0 0 24 24" fill="none" xmlns="http://www.w3.org/2000/svg">
<g clip-path="url(#clip0_36_859)">
<path fill-rule="evenodd" clip-rule="evenodd" d="M10.5898 17C11.5198 16 12.5898 14.68 13.6498 13.45C14.7098 12.22 15.9198 10.74 16.6498 9.87004C17.1076 10.0713 17.593 10.2028 18.0898 10.26C18.7381 10.3234 19.3921 10.2343 19.9998 10C20.7351 9.72738 21.4133 9.32047 21.9998 8.80004C22.5773 8.29506 23.0525 7.68402 23.3998 7.00004C23.555 6.63742 23.5934 6.2355 23.5098 5.85004C23.3549 5.14075 23.0774 4.46393 22.6898 3.85004C22.576 3.64859 22.4491 3.45484 22.3098 3.27004C22.2769 3.22366 22.2401 3.18017 22.1998 3.14004C22.1171 3.07088 22.0127 3.03299 21.9048 3.03299C21.797 3.03299 21.6926 3.07088 21.6098 3.14004C21.6098 3.14004 20.3698 4.58004 19.4498 5.51004L19.3498 5.61004L17.5598 5.85004C17.5598 4.07004 17.4798 4.12004 19.3698 1.51004C19.4478 1.40732 19.5149 1.29671 19.5698 1.18004C19.5965 1.13284 19.6128 1.08047 19.6176 1.02646C19.6224 0.972442 19.6155 0.91803 19.5975 0.866879C19.5795 0.815727 19.5508 0.769019 19.5132 0.729894C19.4757 0.690769 19.4302 0.660132 19.3798 0.640043C18.3058 0.18763 17.1032 0.144932 15.9998 0.520043C15.4327 0.687901 14.9098 0.979457 14.4688 1.37371C14.0279 1.76797 13.6799 2.25511 13.4498 2.80004C13.2245 3.55156 13.1331 4.33686 13.1798 5.12004C13.2205 5.81552 13.4007 6.4957 13.7098 7.12004L7.13983 14.28C6.67046 14.0876 6.17501 13.9663 5.66983 13.92C5.04987 13.8762 4.42797 13.9719 3.84983 14.2C3.13399 14.4756 2.47601 14.8826 1.90983 15.4C1.34594 15.9227 0.890592 16.5513 0.569833 17.25C0.179833 18.06 0.799833 19.51 1.31983 20.35C1.46085 20.5982 1.6249 20.8326 1.80983 21.05C1.89071 21.1231 1.99583 21.1636 2.10483 21.1636C2.21384 21.1636 2.31896 21.1231 2.39983 21.05C2.39983 21.05 3.55983 19.67 4.52983 18.67L4.60983 18.58L6.28983 18.34V20.11L6.20983 20.22C5.82983 20.76 4.92983 21.98 4.54983 22.55C4.47363 22.6663 4.40353 22.7865 4.33983 22.91C4.30697 22.9779 4.28842 23.0518 4.28534 23.1272C4.28225 23.2025 4.29469 23.2777 4.32189 23.348C4.34909 23.4184 4.39046 23.4824 4.44343 23.5361C4.49641 23.5897 4.55986 23.6319 4.62983 23.66C5.77333 24.0943 7.03633 24.0943 8.17983 23.66C8.7707 23.4681 9.3119 23.1481 9.7648 22.7229C10.2177 22.2976 10.5711 21.7777 10.7998 21.2C10.9971 20.447 11.0647 19.6658 10.9998 18.89C10.9763 18.2407 10.8375 17.6008 10.5898 17ZM9.70983 20.86C9.53675 21.2769 9.27416 21.6506 8.94064 21.9548C8.60713 22.2589 8.21084 22.486 7.77983 22.62C7.11045 22.8727 6.38803 22.9518 5.67983 22.85C6.09983 22.23 6.76983 21.31 7.07983 20.85C7.21265 20.6734 7.30174 20.4678 7.33983 20.25V18.03C7.35053 17.9236 7.35053 17.8164 7.33983 17.71C7.32153 17.6139 7.27597 17.5251 7.20859 17.4542C7.14122 17.3833 7.05486 17.3332 6.95983 17.31C6.73425 17.2787 6.50542 17.2787 6.27983 17.31C5.67983 17.39 4.72983 17.61 4.40983 17.63C4.19466 17.6978 4.00366 17.8263 3.85983 18C3.46983 18.41 2.66983 19.32 2.18983 19.89C1.92101 19.4676 1.69649 19.0186 1.51983 18.55C1.3875 18.2619 1.35922 17.9367 1.43983 17.63C1.68419 17.0208 2.048 16.4666 2.50983 16C2.997 15.5675 3.55974 15.2285 4.16983 15C4.62462 14.8091 5.1177 14.7269 5.60983 14.76C6.11863 14.7977 6.61654 14.9264 7.07983 15.14C7.159 15.1735 7.2465 15.1818 7.33055 15.1639C7.41459 15.146 7.49113 15.1028 7.54983 15.04L14.4298 7.32004C14.4298 6.46004 13.8898 6.67004 13.8098 5.10004C13.7681 4.38933 13.8597 3.67709 14.0798 3.00004C14.2768 2.56105 14.5694 2.17162 14.9362 1.86019C15.303 1.54877 15.7347 1.32322 16.1998 1.20004C16.9884 0.923752 17.8414 0.888934 18.6498 1.10004C18.2298 1.69004 17.3898 2.75004 17.0298 3.24004C16.9019 3.38944 16.8126 3.56802 16.7698 3.76004C16.7698 4.12004 16.6998 5.43004 16.6998 5.98004C16.6912 6.08319 16.6912 6.18689 16.6998 6.29004C16.7151 6.3698 16.7521 6.44378 16.8069 6.50379C16.8616 6.5638 16.9318 6.6075 17.0098 6.63004C17.2255 6.65903 17.4441 6.65903 17.6598 6.63004C18.2698 6.57004 19.2198 6.40004 19.5398 6.38004C19.7476 6.32372 19.9349 6.20923 20.0798 6.05004C20.4798 5.66004 21.2998 4.79004 21.7998 4.24004C22.0573 4.66848 22.2653 5.12473 22.4198 5.60004C22.523 5.88431 22.523 6.19578 22.4198 6.48004C22.1505 7.0505 21.7775 7.56592 21.3198 8.00004C20.8309 8.43533 20.2644 8.77458 19.6498 9.00004C19.1798 9.17078 18.6756 9.22567 18.1798 9.16004C17.6613 9.09181 17.1597 8.92912 16.6998 8.68004C16.584 8.62311 16.4521 8.60794 16.3263 8.6371C16.2006 8.66625 16.0888 8.73794 16.0098 8.84004C15.3598 9.66004 14.1198 11.14 12.7798 12.71C11.691 13.9929 10.5909 15.2663 9.47983 16.53C9.39636 16.6166 9.34415 16.7285 9.33147 16.848C9.31879 16.9676 9.34637 17.0879 9.40983 17.19C9.70684 17.749 9.87431 18.3676 9.89983 19C9.93521 19.6229 9.87107 20.2474 9.70983 20.85V20.86Z" fill="black"/>
<path fill-rule="evenodd" clip-rule="evenodd" d="M3.00007 10C3.71685 10.2487 4.47147 10.3705 5.23007 10.36C5.91541 10.368 6.59541 10.2388 7.23007 9.98003L8.15007 10.9C8.17716 10.9285 8.20974 10.9511 8.24583 10.9666C8.28193 10.982 8.3208 10.99 8.36007 10.99C8.39934 10.99 8.43821 10.982 8.47431 10.9666C8.51041 10.9511 8.54298 10.9285 8.57007 10.9C8.62504 10.8439 8.65583 10.7686 8.65583 10.69C8.65583 10.6115 8.62504 10.5361 8.57007 10.48L7.52007 9.32003C7.47463 9.26936 7.41379 9.23506 7.34692 9.22241C7.28005 9.20976 7.21088 9.21946 7.15007 9.25003C6.54296 9.50277 5.88673 9.61556 5.23007 9.58003C4.56889 9.56379 3.91568 9.43179 3.30007 9.19003C2.88325 8.96835 2.52083 8.65692 2.23896 8.27821C1.95709 7.89949 1.76278 7.46293 1.67007 7.00003C1.48036 6.29252 1.48036 5.54753 1.67007 4.84003C2.25007 5.32003 3.12007 6.08003 3.55007 6.44003C3.71923 6.59651 3.92588 6.70672 4.15007 6.76003C4.51007 6.76003 5.81007 6.91003 6.36007 6.93003C6.47305 6.94266 6.58709 6.94266 6.70007 6.93003C6.80776 6.91749 6.90949 6.87397 6.99292 6.80474C7.07635 6.73551 7.13789 6.64355 7.17007 6.54003C7.20867 6.31165 7.20867 6.07841 7.17007 5.85003C7.17007 5.24003 7.01007 4.28003 7.01007 3.96003C6.961 3.72412 6.84261 3.50823 6.67007 3.34003C6.34007 2.93003 5.53007 2.11003 5.00007 1.58003C5.41273 1.35637 5.84867 1.17864 6.30007 1.05003C6.58652 0.939893 6.90363 0.939893 7.19007 1.05003C7.76814 1.34589 8.28412 1.74985 8.71007 2.24003C9.12492 2.765 9.44012 3.3615 9.64007 4.00003C9.80441 4.46815 9.85245 4.96921 9.78007 5.46003C9.70505 5.95796 9.54255 6.4387 9.30007 6.88003C9.26496 6.94925 9.25189 7.02756 9.26261 7.10444C9.27334 7.18131 9.30735 7.25306 9.36007 7.31003L10.5801 8.50003C10.6129 8.5322 10.6517 8.55759 10.6944 8.57475C10.737 8.59192 10.7826 8.60051 10.8286 8.60004C10.8746 8.59958 10.92 8.59007 10.9623 8.57205C11.0046 8.55403 11.0429 8.52786 11.0751 8.49503C11.1072 8.4622 11.1326 8.42335 11.1498 8.38071C11.167 8.33806 11.1756 8.29246 11.1751 8.24649C11.1746 8.20053 11.1651 8.1551 11.1471 8.11281C11.1291 8.07053 11.1029 8.0322 11.0701 8.00003L10.0701 7.00003C10.3024 6.54725 10.4643 6.06166 10.5501 5.56003C10.6539 4.94572 10.6128 4.31564 10.4301 3.72003C10.2215 2.99794 9.88263 2.3201 9.43007 1.72003C8.95009 1.09622 8.35207 0.572951 7.67007 0.180026C6.88007 -0.279974 5.37007 0.180026 4.48007 0.670026C4.26934 0.765775 4.06552 0.87604 3.87007 1.00003C3.81909 1.03084 3.77207 1.06778 3.73007 1.11003C3.64078 1.19063 3.58354 1.30072 3.56884 1.42011C3.55415 1.53949 3.58299 1.66018 3.65007 1.76003C3.74007 1.91003 4.59007 2.64003 5.87007 4.08003L5.93007 4.16003L6.05007 5.76003C5.51007 5.76003 4.76007 5.65003 4.35007 5.63003L4.26007 5.56003C3.75007 5.15003 2.59007 4.18003 2.00007 3.77003C1.88949 3.68448 1.77248 3.60758 1.65007 3.54003C1.53324 3.49366 1.40372 3.49033 1.28466 3.53063C1.1656 3.57093 1.06473 3.65223 1.00007 3.76003C0.489253 4.86021 0.40376 6.11055 0.760071 7.27003C0.903758 7.86438 1.17984 8.41861 1.56771 8.89132C1.95558 9.36404 2.44522 9.74304 3.00007 10Z" fill="black"/>
<path fill-rule="evenodd" clip-rule="evenodd" d="M21.0998 14.09C20.359 13.807 19.5728 13.6613 18.7798 13.66C18.0618 13.645 17.3489 13.7848 16.6898 14.07L15.5898 12.93C15.5337 12.875 15.4583 12.8442 15.3798 12.8442C15.3013 12.8442 15.2259 12.875 15.1698 12.93C15.1414 12.9571 15.1187 12.9897 15.1032 13.0258C15.0878 13.0619 15.0798 13.1007 15.0798 13.14C15.0798 13.1793 15.0878 13.2181 15.1032 13.2542C15.1187 13.2903 15.1414 13.3229 15.1698 13.35L16.3898 14.71C16.4375 14.7638 16.5019 14.7999 16.5727 14.8126C16.6434 14.8253 16.7164 14.8138 16.7798 14.78C17.4062 14.4957 18.0936 14.372 18.7798 14.42C19.4674 14.446 20.1448 14.595 20.7798 14.86C21.1905 15.0883 21.5453 15.4049 21.8185 15.7872C22.0918 16.1694 22.2767 16.6076 22.3598 17.07C22.5454 17.7746 22.5454 18.5153 22.3598 19.22C21.7898 18.73 20.9398 17.95 20.5198 17.58C20.3538 17.4224 20.1509 17.309 19.9298 17.25C19.5698 17.25 18.2698 17.06 17.7198 17.03C17.607 17.0143 17.4926 17.0143 17.3798 17.03C17.2734 17.0414 17.1723 17.082 17.0876 17.1473C17.0029 17.2126 16.9379 17.3001 16.8998 17.4C16.8449 17.6256 16.8247 17.8583 16.8398 18.09C16.8398 18.7 16.9598 19.67 16.9498 19.99C16.9975 20.2271 17.112 20.4457 17.2798 20.62C17.6398 21.03 18.4298 21.88 18.9498 22.41C18.5293 22.6268 18.0868 22.7978 17.6298 22.92C17.3392 23.0263 17.0204 23.0263 16.7298 22.92C16.1588 22.6009 15.656 22.1728 15.2498 21.66C14.8464 21.1411 14.5445 20.5508 14.3598 19.92C14.2014 19.4189 14.1704 18.8861 14.2698 18.37C14.3703 17.8358 14.5668 17.3242 14.8498 16.86C14.8949 16.7901 14.9136 16.7064 14.9026 16.6239C14.8917 16.5415 14.8516 16.4656 14.7898 16.41L13.7198 15.41C13.6561 15.3465 13.5698 15.3108 13.4798 15.3108C13.3898 15.3108 13.3035 15.3465 13.2398 15.41C13.1763 15.4737 13.1406 15.56 13.1406 15.65C13.1406 15.74 13.1763 15.8263 13.2398 15.89L14.0798 16.71C13.8098 17.1733 13.6141 17.6761 13.4998 18.2C13.3618 18.8381 13.379 19.4999 13.5498 20.13C13.7504 20.8705 14.0897 21.5661 14.5498 22.18C15.0112 22.8015 15.5885 23.3278 16.2498 23.73C17.0198 24.2 18.5498 23.73 19.4498 23.32C19.6389 23.2236 19.8226 23.1168 19.9998 23C20.0519 22.975 20.0993 22.9412 20.1398 22.9C20.2305 22.8209 20.2903 22.7122 20.3086 22.5933C20.3269 22.4743 20.3025 22.3527 20.2398 22.25C20.2398 22.25 18.9198 20.88 18.0798 19.87L17.9998 19.8L17.9198 18.19C18.4498 18.19 19.2098 18.33 19.6098 18.36L19.6998 18.44C20.1998 18.87 21.3298 19.87 21.8698 20.3C21.981 20.3876 22.098 20.4678 22.2198 20.54C22.2823 20.5796 22.3525 20.6054 22.4257 20.6157C22.499 20.6261 22.5736 20.6206 22.6446 20.5998C22.7156 20.579 22.7813 20.5432 22.8374 20.495C22.8935 20.4467 22.9386 20.3871 22.9698 20.32C23.4904 19.2275 23.5901 17.9814 23.2498 16.82C23.1151 16.2345 22.8525 15.686 22.4808 15.214C22.1091 14.742 21.6374 14.3581 21.0998 14.09Z" fill="black"/>
</g>
<defs>
<clipPath id="clip0_36_859">
<rect width="24" height="24" fill="white"/>
</clipPath>
</defs>
</svg>
