<svg width="24" height="24" viewBox="0 0 24 24" fill="none" xmlns="http://www.w3.org/2000/svg">
<g clip-path="url(#clip0_36_864)">
<path d="M10.17 6.93996C9.08932 7.25037 8.14285 7.91184 7.47995 8.81996C7.10674 9.39679 6.85794 10.0451 6.74947 10.7235C6.64099 11.4019 6.67521 12.0955 6.84995 12.76C7.01529 13.4508 7.34805 14.0904 7.81891 14.6223C8.28976 15.1542 8.88425 15.5621 9.54995 15.81C10.4556 16.122 11.4246 16.2045 12.37 16.05C13.2919 15.8879 14.1683 15.5299 14.94 15C15.2492 14.792 15.5372 14.5542 15.8 14.29C15.993 14.0913 16.161 13.8696 16.3 13.63C16.4601 13.3162 16.5682 12.9784 16.62 12.63C16.695 12.1428 16.695 11.6471 16.62 11.16C16.4712 10.2356 16.1082 9.35891 15.56 8.59997C14.9537 7.78744 14.1047 7.18873 13.1359 6.89033C12.167 6.59194 11.1283 6.60932 10.17 6.93996ZM14.88 8.99996C15.3275 9.66628 15.6055 10.4318 15.69 11.23C15.7358 11.5617 15.7358 11.8982 15.69 12.23C15.6613 12.5356 15.5694 12.8319 15.42 13.1C15.2972 13.2952 15.1415 13.4678 14.96 13.61C14.764 13.7817 14.5532 13.9356 14.33 14.07C13.6828 14.501 12.9488 14.7844 12.18 14.9C11.4251 15.0239 10.6511 14.9551 9.92995 14.7C9.44073 14.5126 9.00369 14.2104 8.65564 13.8188C8.30758 13.4272 8.05871 12.9578 7.92995 12.45C7.7677 11.928 7.71416 11.3782 7.77263 10.8347C7.83111 10.2912 8.00037 9.7655 8.26995 9.28996C8.7777 8.52373 9.52766 7.94983 10.4 7.65996C11.184 7.31338 12.0659 7.25793 12.8871 7.50357C13.7084 7.7492 14.415 8.27982 14.88 8.99996Z" fill="black"/>
<path d="M24.0001 10.4699C24.0057 10.2076 23.9789 9.94564 23.9201 9.68994C23.886 9.53172 23.8139 9.38417 23.7101 9.25994C23.5534 9.07996 23.3488 8.94818 23.1201 8.87994C22.8721 8.81004 22.6173 8.76647 22.3601 8.74994C21.934 8.77294 21.5078 8.70476 21.1101 8.54994C21.0109 8.49216 20.9261 8.41266 20.862 8.3174C20.7979 8.22215 20.7563 8.11361 20.7401 7.99994L20.5201 6.99994L20.3601 6.37994C20.4501 6.05994 20.8701 5.84994 21.0601 5.55994C21.1439 5.43886 21.1998 5.30079 21.224 5.15559C21.2482 5.01038 21.2401 4.86163 21.2001 4.71994C21.1019 4.44653 20.9409 4.19994 20.7301 3.99994C20.3301 3.57994 19.7301 3.26994 19.3601 2.92994C19.1401 2.73994 18.8901 2.43994 18.6201 2.21994C18.4792 2.0998 18.3207 2.002 18.1501 1.92994C18.0014 1.86765 17.8405 1.83979 17.6794 1.84845C17.5184 1.85711 17.3614 1.90206 17.2201 1.97994C16.8001 2.20994 16.4801 2.76994 16.1501 2.97994C16.0439 3.02075 15.9263 3.02075 15.8201 2.97994C15.6406 2.95386 15.4634 2.91373 15.2901 2.85994C14.9886 2.78858 14.6989 2.67406 14.4301 2.51994C14.293 2.44112 14.1871 2.31755 14.1301 2.16994L13.8201 1.02994C13.8102 0.887271 13.7833 0.746288 13.7401 0.60994C13.7088 0.514706 13.6496 0.431088 13.5701 0.36994C13.4451 0.288478 13.3061 0.230842 13.1601 0.19994C12.9688 0.143806 12.7688 0.123466 12.5701 0.13994C12.5255 0.14388 12.482 0.156575 12.4423 0.177302C12.4026 0.198028 12.3673 0.226379 12.3385 0.260737C12.2804 0.330125 12.2522 0.419766 12.2601 0.50994C12.2681 0.600114 12.3115 0.683433 12.3809 0.74157C12.4503 0.799706 12.54 0.827897 12.6301 0.81994C12.7297 0.806607 12.8306 0.806607 12.9301 0.81994H13.1001V1.06994L13.4301 2.33994C13.5388 2.62622 13.7347 2.8711 13.9901 3.03994C14.3167 3.23731 14.6705 3.38556 15.0401 3.47994C15.3026 3.56996 15.5743 3.63033 15.8501 3.65994C16.0922 3.67618 16.3333 3.61677 16.5401 3.48994C16.8201 3.30994 17.1001 2.86994 17.4401 2.60994C17.4894 2.56196 17.5508 2.52824 17.6177 2.51239C17.6846 2.49654 17.7546 2.49915 17.8201 2.51994C17.953 2.58719 18.0745 2.67493 18.1801 2.77994C18.4001 2.98994 18.6101 3.23994 18.8101 3.40994C19.0101 3.57994 19.5901 3.95994 19.9501 4.28994C20.1439 4.44012 20.2869 4.64602 20.3601 4.87994C20.3601 5.01994 20.2701 5.09994 20.1701 5.19994C20.0701 5.29994 19.8801 5.46994 19.7501 5.61994C19.6403 5.75358 19.5556 5.90605 19.5001 6.06994C19.4699 6.21505 19.4699 6.36483 19.5001 6.50994C19.5425 6.73011 19.5992 6.94725 19.6701 7.15994L19.8801 8.15994C19.9244 8.37792 20.0118 8.58486 20.1372 8.7686C20.2625 8.95234 20.4233 9.10919 20.6101 9.22994C21.1237 9.45728 21.6785 9.57642 22.2401 9.57994C22.4023 9.58501 22.5633 9.60849 22.7201 9.64994C22.8077 9.65732 22.8895 9.69644 22.9501 9.75994L23.0101 10.3599C23.0472 10.9061 23.0439 11.4543 23.0001 11.9999C22.9937 12.2246 22.9168 12.4415 22.7801 12.6199L22.3801 12.6999C22.1363 12.7689 21.9013 12.8662 21.6801 12.9899C21.5116 13.0847 21.3596 13.2063 21.2301 13.3499C20.9999 13.6084 20.8018 13.8938 20.6401 14.1999C20.4003 14.6197 20.1866 15.0539 20.0001 15.4999C19.8338 15.8886 19.7487 16.3072 19.7501 16.7299C19.7706 17.1754 19.8938 17.61 20.1101 17.9999C20.2201 18.2199 20.4201 18.4999 20.5301 18.7799C20.5301 18.8699 20.6201 18.9499 20.5301 19.0199L19.0001 20.1599L18.5701 20.4399L17.7301 19.8699C17.3591 19.6787 16.9476 19.5793 16.5301 19.5799C15.9624 19.6134 15.4076 19.7631 14.9001 20.0199C14.5823 20.1542 14.2831 20.3289 14.0101 20.5399C13.8303 20.6865 13.6952 20.8805 13.6201 21.0999L13.3601 22.5499L13.3001 22.6699C13.104 22.6899 12.9063 22.6899 12.7101 22.6699C12.2801 22.6099 11.8501 22.5099 11.4501 22.4599L11.0001 22.3699C10.9278 22.3678 10.858 22.3434 10.8001 22.2999C10.4801 22.0199 10.4501 21.5799 10.2201 21.2999C10.0432 21.0591 9.79995 20.8749 9.52013 20.7699L8.00013 20.2799C7.75013 20.1899 7.48013 20.0499 7.21013 19.9699C7.04843 19.9183 6.87987 19.8913 6.71013 19.8899C6.52343 19.8891 6.33891 19.9301 6.17013 20.0099C5.96958 20.1013 5.78412 20.2227 5.62013 20.3699C5.53119 20.4697 5.42646 20.5541 5.31013 20.6199C5.19129 20.5145 5.06784 20.4144 4.94013 20.3199C4.57013 20.0399 4.15013 19.7799 3.79013 19.4699C3.58995 19.3082 3.42057 19.1118 3.29013 18.8899C3.25053 18.8108 3.22991 18.7235 3.22991 18.6349C3.22991 18.5464 3.25053 18.4591 3.29013 18.3799C3.49013 17.8899 3.88013 17.3799 4.01013 16.9599C4.06083 16.7294 4.06083 16.4905 4.01013 16.2599C3.91286 15.8857 3.78234 15.5209 3.62013 15.1699L3.36013 14.6399C3.20222 14.3866 2.96746 14.1904 2.69013 14.0799C2.4656 14.018 2.23288 13.991 2.00013 13.9999C1.84103 14.0037 1.68333 13.9694 1.54013 13.8999C1.54013 13.8299 1.47013 13.5799 1.43013 13.4699C1.32013 12.9999 1.15013 12.5999 1.00013 12.1799C0.964713 11.9312 0.964713 11.6787 1.00013 11.4299C0.99806 11.3487 1.01402 11.268 1.04688 11.1936C1.07973 11.1193 1.12866 11.0531 1.19013 10.9999C1.6233 10.7974 2.04109 10.5634 2.44013 10.2999C2.53548 10.2132 2.61648 10.112 2.68013 9.99994C2.79013 9.82994 2.87013 9.62994 2.96013 9.46994C3.05013 9.30994 3.32013 8.86994 3.48013 8.56994C3.60147 8.34411 3.69867 8.10613 3.77013 7.85994C3.87352 7.50776 3.84142 7.12965 3.68013 6.79994C3.46197 6.44894 3.21797 6.11468 2.95013 5.79994C2.88521 5.71733 2.83142 5.62656 2.79013 5.52994C2.79013 5.45994 2.72013 5.37994 2.79013 5.30994C2.9441 5.07878 3.12173 4.86429 3.32013 4.66994C3.63479 4.36224 3.9688 4.07499 4.32013 3.80994C4.45247 3.70072 4.59672 3.6068 4.75013 3.52994C4.87324 3.46428 5.01061 3.42994 5.15013 3.42994L5.50013 3.70994C5.67383 3.86644 5.86126 4.00701 6.06013 4.12994C6.20796 4.21826 6.36572 4.28875 6.53013 4.33994C6.76174 4.40914 7.00853 4.40914 7.24013 4.33994C7.61442 4.17064 7.97544 3.97341 8.32013 3.74994L8.79013 3.47994L9.16013 3.21994C9.25531 3.14451 9.33442 3.0508 9.39282 2.94431C9.45121 2.83783 9.4877 2.72074 9.50013 2.59994C9.51347 2.39735 9.48975 2.19402 9.43013 1.99994C9.38485 1.84655 9.38485 1.68333 9.43013 1.52994L9.74013 1.37994C9.9865 1.27445 10.2452 1.20053 10.5101 1.15994C10.9237 1.0844 11.3409 1.03099 11.7601 0.99994C11.8397 0.99994 11.916 0.968333 11.9723 0.912072C12.0285 0.855811 12.0601 0.779505 12.0601 0.69994C12.0601 0.620375 12.0285 0.544069 11.9723 0.487808C11.916 0.431547 11.8397 0.39994 11.7601 0.39994C11.3027 0.429305 10.8481 0.492815 10.4001 0.58994C10.0827 0.642661 9.77121 0.726395 9.47013 0.83994C9.30872 0.878159 9.15134 0.931736 9.00013 0.99994C8.90509 1.07157 8.83228 1.16865 8.79013 1.27994C8.64013 1.69994 8.88013 2.07994 8.79013 2.43994C8.78539 2.47596 8.77316 2.51059 8.75421 2.5416C8.73526 2.5726 8.71003 2.59929 8.68013 2.61994L8.40013 2.80994L8.00013 3.07994C7.77013 3.18994 7.46013 3.41994 7.14013 3.54994C7.01836 3.61753 6.87854 3.6455 6.74013 3.62994C6.60666 3.5771 6.47926 3.51005 6.36013 3.42994C6.23013 3.33994 6.10013 3.22994 5.98013 3.12994C5.85107 2.99094 5.70683 2.86683 5.55013 2.75994C5.44356 2.69666 5.32375 2.659 5.20013 2.64994C4.98452 2.63858 4.76914 2.67618 4.57013 2.75994C4.31198 2.86193 4.06958 2.99997 3.85013 3.16994C3.46748 3.44985 3.10027 3.75029 2.75013 4.06994C2.50705 4.29577 2.28912 4.54723 2.10013 4.81994C2.03841 4.92252 1.99778 5.03638 1.9806 5.15486C1.96343 5.27334 1.97007 5.39406 2.00013 5.50994C2.0463 5.77859 2.15601 6.0323 2.32013 6.24994C2.5592 6.53434 2.77332 6.83879 2.96013 7.15994C3.016 7.31163 3.016 7.47825 2.96013 7.62994C2.89734 7.81876 2.81348 7.9999 2.71013 8.16994C2.55013 8.46994 2.36013 8.74994 2.19013 9.02994L1.85013 9.62994C1.41013 10.0099 0.790134 10.0899 0.430134 10.4499C0.183076 10.6903 0.0365315 11.0156 0.0201341 11.3599C-0.000890534 11.6959 0.0294585 12.0331 0.110134 12.3599C0.210134 12.8099 0.380134 13.2499 0.520134 13.6899C0.553719 13.8764 0.600504 14.0602 0.660134 14.2399C0.718417 14.3973 0.823014 14.5332 0.960134 14.6299C1.20273 14.825 1.49247 14.9526 1.80013 14.9999C1.96952 15.0053 2.13753 15.0322 2.30013 15.0799C2.37258 15.1135 2.43222 15.1697 2.47013 15.2399L2.64013 15.5999C2.73493 15.8188 2.81837 16.0425 2.89013 16.2699C2.95466 16.407 2.97894 16.5596 2.96013 16.7099C2.80013 17.2299 2.30013 17.7099 2.15013 18.3199C2.045 18.7025 2.09157 19.1109 2.28013 19.4599C2.47355 19.8029 2.72768 20.1078 3.03013 20.3599C3.40013 20.6799 3.84013 20.9499 4.22013 21.2499C4.39769 21.4163 4.59207 21.5638 4.80013 21.6899C4.98956 21.7924 5.20701 21.831 5.42013 21.7999C5.58906 21.762 5.75102 21.6979 5.90013 21.6099C6.06567 21.502 6.22279 21.3816 6.37013 21.2499C6.46013 21.1799 6.55013 21.0699 6.67013 21.0699C6.76273 21.0756 6.85386 21.0958 6.94013 21.1299C7.16013 21.2099 7.38013 21.3199 7.59013 21.3999L9.11013 21.8399C9.18139 21.87 9.24348 21.9183 9.29013 21.9799C9.56013 22.3599 9.65013 22.8699 10.0301 23.1999C10.1687 23.3183 10.3281 23.4099 10.5001 23.4699C10.7755 23.5432 11.0564 23.5934 11.3401 23.6199C11.8101 23.6799 12.3401 23.8099 12.8301 23.8499C13.0862 23.8747 13.3441 23.8747 13.6001 23.8499C13.7707 23.8265 13.9306 23.7534 14.0601 23.6399C14.2318 23.4761 14.368 23.2787 14.4601 23.0599C14.5378 22.8742 14.5916 22.6793 14.6201 22.4799C14.6468 22.1441 14.6935 21.8102 14.7601 21.4799C14.7601 21.3899 14.9101 21.3599 15.0101 21.2999C15.1101 21.2399 15.3101 21.1599 15.4201 21.1099C15.7342 20.9485 16.0716 20.8372 16.4201 20.7799C16.7111 20.7401 17.0073 20.7888 17.2701 20.9199C17.5001 21.0399 17.8201 21.3499 18.1101 21.4799C18.2516 21.5563 18.4094 21.5975 18.5701 21.5999C18.7383 21.6089 18.9062 21.5781 19.0601 21.5099C19.2854 21.4065 19.4971 21.2755 19.6901 21.1199L21.2901 19.8499C21.424 19.7367 21.5291 19.5934 21.5968 19.4318C21.6646 19.2701 21.6932 19.0947 21.6801 18.9199C21.5672 18.4254 21.3674 17.9547 21.0901 17.5299C20.9496 17.2932 20.8705 17.0251 20.8601 16.7499C20.8584 16.4645 20.9163 16.1818 21.0301 15.9199C21.1798 15.5068 21.3534 15.1028 21.5501 14.7099C21.6709 14.456 21.822 14.2176 22.0001 13.9999C22.0768 13.9169 22.1684 13.8491 22.2701 13.7999C22.3953 13.7356 22.5258 13.6821 22.6601 13.6399C22.7901 13.6399 22.9601 13.5899 23.1001 13.5399C23.2207 13.497 23.3325 13.4327 23.4301 13.3499C23.703 13.0799 23.8818 12.7293 23.9401 12.3499C24.0206 11.7267 24.0407 11.0971 24.0001 10.4699Z" fill="black"/>
</g>
<defs>
<clipPath id="clip0_36_864">
<rect width="24" height="24" fill="white"/>
</clipPath>
</defs>
</svg>
