<svg width="24" height="24" viewBox="0 0 24 24" fill="none" xmlns="http://www.w3.org/2000/svg">
<g clip-path="url(#clip0_36_863)">
<path d="M14.7002 10.1799C13.6302 9.32992 12.4902 8.39992 11.4502 7.53992L14.6702 10.2199L14.7002 10.1799Z" fill="black"/>
<path d="M10.1201 15.9999C8.3301 18.2599 6.4501 20.5799 5.1201 22.1199C4.91027 22.3485 4.65526 22.5309 4.37123 22.6557C4.0872 22.7805 3.78034 22.845 3.4701 22.845C3.15985 22.845 2.85299 22.7805 2.56896 22.6557C2.28493 22.5309 2.02992 22.3485 1.8201 22.1199C1.1201 21.3799 1.0601 20.1199 2.3101 18.6699L11.0701 7.99994C11.0701 7.65994 10.7501 7.32994 10.3101 7.83994C9.5501 8.71994 7.6301 10.9999 1.4801 17.9999C-0.309903 20.0899 9.72152e-05 21.8899 1.0001 22.9999C1.32241 23.3431 1.71286 23.6151 2.14641 23.7986C2.57996 23.9821 3.04707 24.073 3.51778 24.0654C3.9885 24.0579 4.45246 23.9521 4.87992 23.7549C5.30738 23.5576 5.68892 23.2732 6.0001 22.9199C7.0701 21.6199 8.4801 19.7899 9.9001 17.9199C11.9001 15.3099 13.6001 12.8399 14.7401 11.2499C15.0301 10.6899 14.4401 10.5199 14.2301 10.9299C13.1801 12.1499 11.8101 13.8999 10.1201 15.9999Z" fill="black"/>
<path d="M23.5103 6.82995C22.3753 5.49921 21.1089 4.2864 19.7303 3.20995C18.4144 2.08054 16.9986 1.07306 15.5003 0.199949C15.3099 0.098986 15.1036 0.0313439 14.8903 -5.07012e-05C14.7977 -0.00763546 14.7047 0.00753317 14.6193 0.0441343C14.5339 0.0807355 14.4587 0.137659 14.4003 0.209949C14.1604 0.575657 13.8298 0.872917 13.4407 1.07272C13.0516 1.27252 12.6173 1.36804 12.1803 1.34995C11.251 1.24537 10.3894 0.812796 9.75032 0.129949C9.65249 0.0643676 9.53464 0.0354291 9.41756 0.0482352C9.30047 0.0610413 9.19167 0.11477 9.11032 0.199949C8.59558 0.695724 8.12389 1.23433 7.70032 1.80995C7.54032 2.02995 7.42032 2.19995 7.38032 2.26995C7.34199 2.33486 7.32703 2.41095 7.33795 2.48554C7.34887 2.56013 7.385 2.62874 7.44032 2.67995C7.82032 2.96995 8.05032 2.11995 9.34032 0.889949C9.37201 0.85152 9.40906 0.817842 9.45032 0.789949C10.1636 1.52679 11.1041 2.00228 12.1203 2.13995C12.6424 2.18432 13.1676 2.10411 13.6526 1.90592C14.1376 1.70774 14.5687 1.39723 14.9103 0.999949C15.1234 1.08234 15.3305 1.17923 15.5303 1.28995C17.7199 2.83229 19.7741 4.55854 21.6703 6.44995C22.6703 7.44995 23.4703 7.07995 20.6703 10.5499C20.3265 10.9955 19.934 11.4013 19.5003 11.7599C19.3953 11.8579 19.2733 11.9358 19.1403 11.9899C19.1403 11.9399 18.9903 11.9899 18.8903 11.8999C18.3341 11.5992 17.7965 11.2653 17.2803 10.8999C14.9003 9.24995 11.2803 6.34995 9.44032 4.89995L8.44032 4.11995L8.30032 3.99995C8.20032 3.93995 7.52032 4.18995 7.93032 4.55995L8.21032 4.80995C8.67032 5.19995 9.62032 5.99995 10.7503 6.99995L11.4503 7.58995C12.4503 8.44995 17.2603 12.1899 17.9403 12.5899C18.2853 12.848 18.6924 13.0102 19.1203 13.0599C19.8709 12.841 20.5305 12.3849 21.0003 11.7599C22.0673 10.585 22.9935 9.28955 23.7603 7.89995C23.8122 7.71498 23.8165 7.5199 23.7727 7.33284C23.729 7.14578 23.6388 6.97279 23.5103 6.82995Z" fill="black"/>
</g>
<defs>
<clipPath id="clip0_36_863">
<rect width="24" height="24" fill="white"/>
</clipPath>
</defs>
</svg>
