<svg width="24" height="24" viewBox="0 0 24 24" fill="none" xmlns="http://www.w3.org/2000/svg">
<g clip-path="url(#clip0_36_798)">
<path d="M20.4198 3.24005C17.0898 0.250049 12.0898 -0.299951 8.47976 0.270049C6.61777 0.610704 4.89071 1.47284 3.49933 2.75624C2.10795 4.03963 1.1094 5.69158 0.619759 7.52005C-0.495607 11.0987 -0.165367 14.9719 1.53976 18.31C3.66976 22.31 9.07976 24.3701 14.0798 23.85C26.3398 22.57 25.7498 8.00005 20.4198 3.24005ZM20.8898 19.7801C20.6398 20.2001 20.3098 20.34 19.8398 20.7801C18.1506 22.0725 16.121 22.844 13.9998 23C13.6998 23 8.19976 23.5401 4.35976 20.1201C4.03738 19.8958 3.76218 19.6104 3.54976 19.2801C3.17491 18.8303 2.84029 18.3484 2.54976 17.84C1.00524 14.7627 0.718347 11.2052 1.74976 7.92005C2.32227 6.00945 3.4291 4.30237 4.93976 3.00005C6.02084 2.14336 7.30012 1.5725 8.65976 1.34005C9.99498 1.09342 11.3579 1.03284 12.7098 1.16005C12.7098 1.16005 17.7098 2.16005 19.3998 3.62005C20.8416 4.88347 21.9131 6.51491 22.4998 8.34005C22.9217 9.78145 23.1932 11.2627 23.3098 12.76C23.4137 15.321 22.5498 17.8272 20.8898 19.7801Z" fill="black"/>
<path d="M12.6698 2.70003C12.6698 2.70003 12.6098 4.45003 12.1398 4.45003C11.9898 4.45003 11.8698 4.37003 11.7398 4.20003C11.635 3.94028 11.5644 3.66799 11.5298 3.39003C11.5118 3.0783 11.5353 2.76555 11.5998 2.46003C11.6998 2.17003 11.8698 2.04003 12.0198 2.04003C12.6698 2.00003 12.6498 2.49003 12.6698 2.70003Z" fill="black"/>
<path d="M4.34978 11.66C4.44791 11.66 4.54202 11.699 4.61141 11.7684C4.6808 11.8378 4.71978 11.9319 4.71978 12.03C4.71733 12.1601 4.66522 12.2844 4.57412 12.3774C4.48302 12.4703 4.35983 12.5249 4.22978 12.53C3.95429 12.566 3.67528 12.566 3.39978 12.53C3.10978 12.53 2.82978 12.44 2.52978 12.44L2.11978 12.35C2.01953 12.2603 1.95298 12.1389 1.93115 12.0062C1.90933 11.8734 1.93354 11.7371 1.99978 11.62C2.27978 11.25 3.87978 11.58 4.34978 11.66Z" fill="black"/>
<path d="M8.1399 4.00001C8.2499 4.21001 8.3199 4.42001 8.3999 4.60001C8.43792 4.67798 8.47131 4.75812 8.4999 4.84001C8.54383 4.92656 8.56451 5.02305 8.5599 5.12001C8.55992 5.16945 8.55003 5.21839 8.53081 5.26395C8.5116 5.3095 8.48344 5.35075 8.44802 5.38524C8.4126 5.41973 8.37062 5.44677 8.32457 5.46477C8.27852 5.48276 8.22933 5.49134 8.1799 5.49001C7.93364 5.47365 7.70212 5.36679 7.5299 5.19001C7.40016 5.05866 7.27986 4.91831 7.1699 4.77001C7.06527 4.62529 6.96846 4.47508 6.8799 4.32001C6.80726 4.18634 6.74053 4.04954 6.6799 3.91001C6.6601 3.86248 6.6499 3.8115 6.6499 3.76001C6.6499 3.70852 6.6601 3.65754 6.6799 3.61001C6.7699 3.16001 7.0399 3.02001 7.5599 3.23001C7.6699 3.33001 7.6899 3.30001 7.7899 3.42001C7.92809 3.59951 8.04551 3.79408 8.1399 4.00001Z" fill="black"/>
<path d="M4.99966 7.13C5.18966 7.26 5.55966 7.6 5.71966 7.74C5.81657 7.8036 5.89298 7.8939 5.93966 8C5.96356 8.043 5.97839 8.09044 5.98325 8.13939C5.9881 8.18835 5.98287 8.23778 5.96788 8.28463C5.95288 8.33148 5.92845 8.37477 5.89607 8.41181C5.8637 8.44885 5.82408 8.47887 5.77966 8.5C5.35771 8.57437 4.92304 8.51127 4.53966 8.32C4.37795 8.22591 4.22411 8.11889 4.07966 8C3.99966 8 3.82966 7.86 3.70966 7.77C3.66572 7.74218 3.62797 7.70564 3.59872 7.66263C3.56948 7.61963 3.54938 7.57109 3.53966 7.52C3.40966 7.09 3.53966 6.83 4.12966 6.75C4.27966 6.75 4.27966 6.75 4.42966 6.81C4.62933 6.89844 4.82018 7.00558 4.99966 7.13Z" fill="black"/>
<path d="M12.7896 21.38C12.7896 21.38 12.7296 19.62 12.2596 19.62C12.1096 19.62 11.9896 19.7 11.8596 19.87C11.7513 20.1286 11.6806 20.4014 11.6496 20.68C11.6312 20.9917 11.6548 21.3045 11.7196 21.61C11.8196 21.9 11.9796 22.03 12.1396 22.03C12.7896 22 12.7696 21.58 12.7896 21.38Z" fill="black"/>
<path d="M7.99996 20.0801C8.10996 19.8701 8.17996 19.6601 8.25996 19.4801C8.30632 19.4062 8.34011 19.3251 8.35996 19.2401C8.38954 19.1637 8.40316 19.082 8.39996 19.0001C8.40452 18.9464 8.39731 18.8924 8.37882 18.8418C8.36033 18.7912 8.33101 18.7452 8.29292 18.7071C8.25482 18.669 8.20887 18.6397 8.15827 18.6212C8.10767 18.6027 8.05364 18.5955 7.99996 18.6001C7.75341 18.6067 7.5196 18.711 7.34996 18.8901C7.21414 19.0186 7.09029 19.1591 6.97996 19.3101C6.87861 19.4549 6.78514 19.6052 6.69996 19.7601C6.61996 19.9001 6.55996 20.0401 6.48996 20.1801C6.47016 20.2276 6.45996 20.2786 6.45996 20.3301C6.45996 20.3816 6.47016 20.4326 6.48996 20.4801C6.58996 20.9201 6.84996 21.0601 7.36996 20.8501C7.47996 20.7501 7.49996 20.7801 7.59996 20.6601C7.75561 20.4831 7.88987 20.2885 7.99996 20.0801Z" fill="black"/>
<path d="M4.85962 16.94C5.11231 16.7521 5.35279 16.5484 5.57962 16.33C5.65961 16.2771 5.72496 16.2049 5.76962 16.12C5.7952 16.0766 5.81139 16.0283 5.81714 15.9783C5.82288 15.9282 5.81806 15.8775 5.80298 15.8294C5.7879 15.7814 5.7629 15.737 5.72959 15.6992C5.69628 15.6614 5.65541 15.631 5.60962 15.61C5.19091 15.5378 4.76009 15.6009 4.37962 15.79C4.21916 15.8595 4.06522 15.9432 3.91962 16.04L3.53962 16.3C3.49671 16.3279 3.46025 16.3646 3.43266 16.4077C3.40507 16.4509 3.38699 16.4994 3.37962 16.55C3.24962 16.98 3.37962 17.24 3.95962 17.32C4.10962 17.32 4.10962 17.32 4.25962 17.26C4.47065 17.1754 4.67184 17.0681 4.85962 16.94Z" fill="black"/>
<path d="M19.7596 11.66C19.7111 11.66 19.6629 11.6696 19.6181 11.6882C19.5732 11.7068 19.5324 11.7341 19.498 11.7684C19.4637 11.8028 19.4364 11.8436 19.4178 11.8884C19.3992 11.9333 19.3896 11.9815 19.3896 12.03C19.3921 12.1602 19.4442 12.2844 19.5353 12.3774C19.6264 12.4704 19.7496 12.525 19.8796 12.53C20.1551 12.5661 20.4342 12.5661 20.7096 12.53C20.9996 12.53 21.2796 12.44 21.5796 12.44L21.9896 12.35C22.0827 12.2569 22.1413 12.1349 22.1559 12.0041C22.1704 11.8732 22.14 11.7413 22.0696 11.63C21.8296 11.25 20.2396 11.58 19.7596 11.66Z" fill="black"/>
<path d="M16.1799 4.00001C16.0699 4.21001 15.9999 4.42001 15.9199 4.60001C15.8819 4.67798 15.8485 4.75812 15.8199 4.84001C15.776 4.92656 15.7553 5.02305 15.7599 5.12001C15.7599 5.16945 15.7698 5.21839 15.789 5.26395C15.8082 5.3095 15.8364 5.35075 15.8718 5.38524C15.9072 5.41973 15.9492 5.44677 15.9952 5.46477C16.0413 5.48276 16.0905 5.49134 16.1399 5.49001C16.3862 5.47365 16.6177 5.36679 16.7899 5.19001C16.9196 5.05866 17.0399 4.91831 17.1499 4.77001C17.2545 4.62529 17.3513 4.47508 17.4399 4.32001C17.5099 4.19001 17.5799 4.05001 17.6399 3.91001C17.6597 3.86248 17.6699 3.8115 17.6699 3.76001C17.6699 3.70852 17.6597 3.65754 17.6399 3.61001C17.5499 3.16001 17.2799 3.02001 16.7599 3.23001C16.6499 3.33001 16.6299 3.30001 16.5299 3.42001C16.3917 3.59951 16.2743 3.79408 16.1799 4.00001Z" fill="black"/>
<path d="M19.2898 7.12997C19.0998 7.25997 18.7298 7.59997 18.5698 7.73997C18.4894 7.79662 18.4242 7.87217 18.3798 7.95997C18.3559 8.00297 18.3411 8.05041 18.3362 8.09936C18.3314 8.14832 18.3366 8.19775 18.3516 8.2446C18.3666 8.29146 18.391 8.33474 18.4234 8.37178C18.4558 8.40882 18.4954 8.43884 18.5398 8.45997C18.9618 8.53434 19.3964 8.47124 19.7798 8.27997C19.9402 8.19869 20.094 8.10508 20.2398 7.99997C20.3698 7.91997 20.4898 7.82997 20.6098 7.73997C20.6538 7.71215 20.6915 7.67561 20.7208 7.6326C20.75 7.5896 20.7701 7.54106 20.7798 7.48997C20.9098 7.05997 20.7798 6.79997 20.1898 6.71997C20.0398 6.71997 20.0398 6.71997 19.8898 6.77997C19.6786 6.87622 19.4776 6.99347 19.2898 7.12997Z" fill="black"/>
<path d="M16.8398 19.75C16.7298 19.54 16.6598 19.33 16.5798 19.15C16.5375 19.074 16.5039 18.9935 16.4798 18.91C16.4311 18.8252 16.4101 18.7273 16.4198 18.63C16.4198 18.5319 16.4587 18.4378 16.5281 18.3684C16.5975 18.299 16.6916 18.26 16.7898 18.26C17.036 18.2764 17.2675 18.3832 17.4398 18.56C17.5756 18.6885 17.6994 18.8291 17.8098 18.98C17.9147 19.1225 18.0083 19.273 18.0898 19.43C18.1698 19.56 18.2298 19.7 18.2998 19.84C18.3196 19.8875 18.3298 19.9385 18.3298 19.99C18.3298 20.0415 18.3196 20.0925 18.2998 20.14C18.2098 20.59 17.9398 20.73 17.4198 20.52C17.3098 20.42 17.2898 20.45 17.1898 20.33C17.0516 20.1505 16.9342 19.9559 16.8398 19.75Z" fill="black"/>
<path d="M19.8299 16.5701C19.6399 16.4401 19.2699 16.1001 19.1099 15.9601C18.9499 15.8201 18.9399 15.8101 18.9199 15.7401C18.896 15.6971 18.8811 15.6496 18.8763 15.6007C18.8714 15.5517 18.8766 15.5023 18.8916 15.4554C18.9066 15.4086 18.9311 15.3653 18.9634 15.3283C18.9958 15.2912 19.0354 15.2612 19.0799 15.2401C19.5018 15.1657 19.9365 15.2288 20.3199 15.4201C20.4772 15.4922 20.6307 15.5723 20.7799 15.6601C20.9095 15.7411 21.0332 15.8313 21.1499 15.9301C21.1938 15.9579 21.2316 15.9944 21.2608 16.0374C21.29 16.0804 21.3101 16.129 21.3199 16.1801C21.4499 16.6101 21.3199 16.8701 20.7299 16.9401C20.5799 16.9401 20.5799 16.9401 20.4299 16.8901C20.2217 16.7994 20.0211 16.6924 19.8299 16.5701Z" fill="black"/>
<path d="M13.7999 12.37C13.4636 11.9335 13.1031 11.5161 12.7199 11.12C12.6072 11.0051 12.4707 10.9164 12.3199 10.86C11.8645 10.8134 11.4054 10.8134 10.9499 10.86C10.0799 10.86 8.94995 11.01 8.02995 11.12C7.99012 11.1199 7.9507 11.128 7.91415 11.1438C7.87759 11.1597 7.84469 11.1828 7.81748 11.2119C7.79027 11.241 7.76935 11.2754 7.75601 11.3129C7.74267 11.3504 7.7372 11.3903 7.73995 11.43C7.74725 11.5079 7.78282 11.5804 7.83994 11.6338C7.89706 11.6873 7.97176 11.7179 8.04995 11.72C8.84995 11.72 9.74995 11.79 10.5299 11.84C11.0799 11.84 11.9299 12.02 11.9499 12L12.1699 12.27C12.4399 12.56 12.7899 12.98 13.1699 13.45C13.9899 14.38 14.9999 15.45 15.5999 16.24C15.6266 16.2765 15.6603 16.3072 15.699 16.3305C15.7376 16.3538 15.7806 16.3692 15.8253 16.3757C15.87 16.3822 15.9155 16.3798 15.9592 16.3685C16.0029 16.3572 16.044 16.3373 16.0799 16.31C16.1161 16.2843 16.1466 16.2515 16.1698 16.2137C16.193 16.1759 16.2083 16.1338 16.2148 16.0899C16.2214 16.046 16.219 16.0013 16.2078 15.9584C16.1967 15.9154 16.177 15.8752 16.1499 15.84C15.6099 14.88 14.6199 13.42 13.7999 12.37Z" fill="black"/>
</g>
<defs>
<clipPath id="clip0_36_798">
<rect width="24" height="24" fill="white"/>
</clipPath>
</defs>
</svg>
