<svg width="24" height="24" viewBox="0 0 24 24" fill="none" xmlns="http://www.w3.org/2000/svg">
<g clip-path="url(#clip0_36_804)">
<path fill-rule="evenodd" clip-rule="evenodd" d="M18.7699 7.55001C18.429 7.25707 18.0644 6.99284 17.6799 6.76001C17.8336 6.66804 17.9777 6.56083 18.1099 6.44001C18.2189 6.29965 18.3191 6.15271 18.4099 6.00001C18.4099 6.00001 18.7299 5.50001 18.7399 5.47001L18.8699 5.56001C19.1799 5.76001 19.4999 5.92001 19.7899 6.14001C19.8214 6.17218 19.859 6.19784 19.9004 6.2155C19.9419 6.23316 19.9864 6.24249 20.0314 6.24296C20.0764 6.24342 20.1211 6.23501 20.1629 6.21821C20.2047 6.2014 20.2428 6.17653 20.2749 6.14501C20.3071 6.11349 20.3328 6.07595 20.3504 6.03452C20.3681 5.99309 20.3774 5.94858 20.3779 5.90355C20.3783 5.85851 20.3699 5.81382 20.3531 5.77204C20.3363 5.73025 20.3114 5.69218 20.2799 5.66001C20.0605 5.32881 19.8165 5.01459 19.5499 4.72001C19.4363 4.59653 19.3125 4.4828 19.1799 4.38001C19.0501 4.2751 18.9093 4.18457 18.7599 4.11001C18.4019 3.92653 18.0223 3.78879 17.6299 3.70001C17.5946 3.68106 17.5558 3.66939 17.5159 3.66568C17.476 3.66197 17.4357 3.66631 17.3975 3.67842C17.3592 3.69054 17.3238 3.7102 17.2933 3.73624C17.2629 3.76228 17.2379 3.79416 17.2199 3.83001C17.1868 3.90229 17.1817 3.98431 17.2058 4.06011C17.2298 4.1359 17.2812 4.20004 17.3499 4.24001C17.5699 4.41001 17.7999 4.70001 18.1299 5.01001H18.1999C18.0406 5.07536 17.8896 5.15928 17.7499 5.26001C17.5933 5.34837 17.4459 5.45223 17.3099 5.57001C17.1938 5.70365 17.09 5.84758 16.9999 6.00001L16.8399 6.30001C15.8184 5.81828 14.7346 5.48169 13.6199 5.30001C13.7399 5.30001 13.7199 4.95001 13.7399 4.87001C13.7738 4.75229 13.7972 4.63183 13.8099 4.51001C13.8343 4.33084 13.8343 4.14918 13.8099 3.97001C13.7487 3.63154 13.6652 3.29748 13.5599 2.97001C13.9599 2.97001 14.3699 2.97001 14.8199 2.90001C15.1724 2.88093 15.5152 2.77808 15.8199 2.60001C15.9715 2.48642 16.0876 2.33213 16.1549 2.1551C16.2222 1.97807 16.2378 1.78557 16.1999 1.60001C16.1797 1.42258 16.122 1.25147 16.0306 1.09803C15.9392 0.94459 15.8163 0.812328 15.6699 0.710011C15.1552 0.429574 14.585 0.265709 13.9999 0.230011C13.1122 0.0983528 12.2171 0.0215405 11.3199 1.11029e-05C10.6907 -0.00101756 10.0633 0.069434 9.44992 0.210011C9.14653 0.264552 8.84613 0.334644 8.54992 0.420011C8.39156 0.465983 8.24017 0.533266 8.09993 0.620011C7.80339 0.794653 7.56765 1.05615 7.42457 1.36913C7.28149 1.68212 7.23798 2.03149 7.29992 2.37001C7.36654 2.61627 7.51667 2.83173 7.72464 2.97949C7.9326 3.12725 8.18546 3.19814 8.43992 3.18001L10.2499 3.00001C10.2479 3.02664 10.2479 3.05338 10.2499 3.08001L10.1299 3.48001C10.1299 3.59001 10.0699 3.69001 10.0599 3.80001C10.04 3.96943 10.04 4.1406 10.0599 4.31001C10.0886 4.50609 10.1424 4.69766 10.2199 4.88001V5.04001C9.81141 5.05822 9.40416 5.09827 8.99992 5.16001C8.01977 5.30778 7.07844 5.64761 6.22992 6.16001L6.13992 5.99001C6.0523 5.85035 5.95542 5.71672 5.84992 5.59001C5.7113 5.47869 5.56419 5.37839 5.40992 5.29001L5.19992 5.19001L5.27992 5.13001C5.63993 4.80001 5.92992 4.42001 6.27992 4.01001C6.34358 3.96227 6.38566 3.8912 6.39691 3.81244C6.40816 3.73367 6.38766 3.65366 6.33992 3.59001C6.29038 3.5257 6.21759 3.48338 6.13718 3.47217C6.05678 3.46095 5.97518 3.48172 5.90992 3.53001C5.46992 3.75001 5.07992 3.91001 4.70992 4.13001C4.54524 4.23182 4.38816 4.34545 4.23992 4.47001C4.08932 4.59884 3.94578 4.73571 3.80992 4.88001C3.51045 5.23111 3.23958 5.60565 2.99992 6.00001C2.9358 6.06544 2.89987 6.1534 2.89987 6.24501C2.89987 6.33662 2.9358 6.42459 2.99992 6.49001C3.06652 6.55186 3.15404 6.58624 3.24492 6.58624C3.33581 6.58624 3.42333 6.55186 3.48992 6.49001C3.85992 6.18001 4.21992 5.96001 4.53992 5.72001C4.47992 5.80001 4.70992 6.04001 4.72992 6.07001C4.81392 6.21602 4.90746 6.35632 5.00992 6.49001C5.13792 6.60434 5.27504 6.70802 5.41992 6.80001C4.1041 7.89371 3.14623 9.35663 2.66992 11C2.23462 12.4158 2.08733 13.9044 2.23675 15.378C2.38618 16.8517 2.82928 18.2804 3.53992 19.58C4.21231 20.6323 5.09037 21.5379 6.12142 22.2425C7.15246 22.947 8.31523 23.436 9.53992 23.68C11.9203 24.2859 14.429 24.1498 16.7299 23.29C16.7721 23.2744 16.8108 23.2507 16.8437 23.2201C16.8766 23.1895 16.9031 23.1527 16.9217 23.1117C16.9403 23.0708 16.9506 23.0266 16.952 22.9817C16.9534 22.9368 16.9459 22.892 16.9299 22.85C16.8945 22.7659 16.8276 22.699 16.7436 22.6635C16.6595 22.628 16.5649 22.6268 16.4799 22.66C15.2786 23.0953 14.0074 23.3055 12.7299 23.28C12.7804 23.0856 12.8205 22.8887 12.8499 22.69C12.8593 22.5802 12.8593 22.4698 12.8499 22.36C12.8646 22.2505 12.8646 22.1395 12.8499 22.03C12.7723 21.7619 12.672 21.501 12.5499 21.25C12.5377 21.1723 12.4973 21.1018 12.4364 21.052C12.3756 21.0022 12.2985 20.9766 12.2199 20.98C12.1805 20.9838 12.1421 20.9953 12.1071 21.014C12.0721 21.0326 12.0412 21.058 12.0161 21.0887C11.991 21.1194 11.9722 21.1547 11.9609 21.1927C11.9495 21.2307 11.9458 21.2706 11.9499 21.31C11.8799 21.62 11.7899 21.82 11.7499 22.07C11.7396 22.1798 11.7396 22.2903 11.7499 22.4C11.7499 22.5 11.7499 22.61 11.7999 22.73C11.8438 22.9061 11.8972 23.0797 11.9599 23.25C11.2203 23.1926 10.4874 23.0688 9.76993 22.88C8.61508 22.5841 7.5216 22.0864 6.53992 21.41C6.70992 21.29 6.87992 21.18 7.02992 21.06C7.18452 20.9354 7.32533 20.7946 7.44992 20.64C7.65438 20.3299 7.81585 19.9935 7.92992 19.64C7.95491 19.609 7.97324 19.5732 7.9838 19.5349C7.99435 19.4965 7.99689 19.4564 7.99126 19.417C7.98563 19.3776 7.97196 19.3398 7.95108 19.3059C7.93021 19.272 7.90258 19.2428 7.86992 19.22C7.80751 19.1712 7.72831 19.149 7.64961 19.1584C7.57092 19.1678 7.49913 19.2079 7.44992 19.27C7.20992 19.45 6.95992 19.56 6.71992 19.74C6.60521 19.8163 6.49806 19.9033 6.39992 20C6.31449 20.0955 6.23437 20.1957 6.15992 20.3C6.04992 20.48 5.94992 20.67 5.83992 20.87C5.25433 20.364 4.76336 19.7579 4.38992 19.08C3.71457 17.7821 3.33224 16.3518 3.26992 14.89C3.47992 14.94 3.67992 14.99 3.87992 15.02C4.07918 15.0444 4.28067 15.0444 4.47992 15.02C4.82365 14.9636 5.15937 14.8663 5.47992 14.73C5.51896 14.7275 5.55709 14.7172 5.59202 14.6996C5.62695 14.682 5.65796 14.6575 5.68319 14.6276C5.70841 14.5977 5.72733 14.563 5.73879 14.5256C5.75026 14.4882 5.75405 14.4489 5.74992 14.41C5.74738 14.3706 5.73708 14.332 5.71961 14.2966C5.70213 14.2612 5.67783 14.2295 5.6481 14.2035C5.61836 14.1775 5.58378 14.1576 5.54634 14.145C5.5089 14.1324 5.46934 14.1273 5.42992 14.13C5.12992 14.07 4.87992 13.96 4.57992 13.9C4.45681 13.8897 4.33304 13.8897 4.20992 13.9C4.08345 13.8901 3.9564 13.8901 3.82992 13.9C3.62378 13.9335 3.42002 13.9802 3.21992 14.04C3.25197 13.1023 3.4135 12.1735 3.69992 11.28C4.01392 10.3527 4.49146 9.48902 5.10992 8.73001C5.29992 8.97001 5.41992 9.21001 5.60992 9.45001C5.68631 9.54638 5.77355 9.63362 5.86992 9.71001C5.96308 9.79672 6.06732 9.8707 6.17992 9.93001C6.44146 10.0919 6.71569 10.2324 6.99992 10.35C7.03527 10.3779 7.0758 10.3984 7.11915 10.4105C7.1625 10.4225 7.20781 10.4259 7.25246 10.4203C7.29711 10.4147 7.3402 10.4003 7.37925 10.3779C7.4183 10.3556 7.45252 10.3257 7.47992 10.29C7.53252 10.2165 7.55461 10.1254 7.54156 10.0359C7.52851 9.94644 7.48134 9.86548 7.40992 9.81001C7.19992 9.55001 7.05992 9.31001 6.86992 9.10001C6.74444 8.94578 6.59996 8.80802 6.43992 8.69001C6.12647 8.49927 5.79057 8.34811 5.43992 8.24001C6.44667 7.19454 7.78026 6.52422 9.21992 6.34001C10.0529 6.20677 10.897 6.15652 11.7399 6.19001C11.7364 6.23327 11.7364 6.27675 11.7399 6.32001C11.7296 6.44313 11.7296 6.56689 11.7399 6.69001C11.7304 6.8165 11.7304 6.94352 11.7399 7.07001C11.7399 7.35001 11.8799 7.63001 11.9699 7.95001C11.9776 8.0411 12.0206 8.12558 12.0897 8.18538C12.1589 8.24518 12.2487 8.27556 12.3399 8.27001C12.431 8.26234 12.5155 8.21934 12.5753 8.1502C12.6351 8.08105 12.6655 7.99126 12.6599 7.90001C12.6599 7.58001 12.7999 7.31001 12.8299 7.03001C12.8591 6.83443 12.8591 6.6356 12.8299 6.44001C12.8346 6.3801 12.8346 6.31992 12.8299 6.26001C14.5776 6.41778 16.2567 7.01646 17.7099 8.00001L17.5499 8.10001C17.4496 8.17514 17.3559 8.25878 17.2699 8.35001C17.1854 8.44373 17.1085 8.54405 17.0399 8.65001C16.8769 8.91081 16.73 9.18131 16.5999 9.46001C16.5717 9.49481 16.5506 9.53483 16.5378 9.57779C16.5251 9.62074 16.5209 9.6658 16.5255 9.71037C16.5302 9.75494 16.5435 9.79816 16.5649 9.83756C16.5862 9.87697 16.6151 9.91178 16.6499 9.94001C16.7202 9.99703 16.8103 10.0238 16.9003 10.0144C16.9449 10.0098 16.9881 9.9964 17.0275 9.97506C17.0669 9.95371 17.1017 9.92481 17.1299 9.89001C17.3899 9.69001 17.6399 9.56001 17.8599 9.37001C18.012 9.26112 18.1527 9.13716 18.2799 9.00001C18.3538 8.89457 18.4207 8.78433 18.4799 8.67001C20.0394 10.1711 20.9448 12.2261 20.9999 14.39C20.7299 14.33 20.4899 14.23 20.2099 14.18C20.0868 14.1697 19.963 14.1697 19.8399 14.18C19.7137 14.1652 19.5862 14.1652 19.4599 14.18C19.1557 14.2306 18.8551 14.3008 18.5599 14.39C18.4689 14.3952 18.3834 14.4357 18.3218 14.5029C18.2601 14.5702 18.2272 14.6588 18.2299 14.75C18.2351 14.8411 18.2756 14.9265 18.3429 14.9882C18.4101 15.0498 18.4987 15.0828 18.5899 15.08C18.9199 15.13 19.1899 15.23 19.4699 15.26C19.6692 15.2844 19.8707 15.2844 20.0699 15.26C20.3904 15.2167 20.7034 15.1292 20.9999 15C21.0102 15.6108 20.9869 16.2218 20.9299 16.83C20.8351 17.8561 20.5177 18.8491 19.9999 19.74C19.8405 19.9961 19.6669 20.2432 19.4799 20.48C19.458 20.4344 19.4233 20.3962 19.3799 20.37C19.1699 20.11 19.0299 19.87 18.8399 19.66C18.7144 19.5058 18.57 19.368 18.4099 19.25C18.0995 19.0535 17.7628 18.902 17.4099 18.8C17.3447 18.7517 17.2631 18.7309 17.1827 18.7422C17.1023 18.7534 17.0295 18.7957 16.9799 18.86C16.9351 18.9273 16.9175 19.009 16.9305 19.0888C16.9434 19.1685 16.9861 19.2404 17.0499 19.29C17.2399 19.53 17.3599 19.77 17.5499 20C17.6234 20.1018 17.7109 20.1927 17.8099 20.27C17.9056 20.3536 18.0095 20.4273 18.1199 20.49C18.3826 20.6499 18.6567 20.7903 18.9399 20.91L19.0399 20.96C18.6845 21.3318 18.2925 21.6668 17.8699 21.96C17.8364 21.9817 17.8075 22.0097 17.7849 22.0426C17.7623 22.0754 17.7463 22.1124 17.7379 22.1514C17.7296 22.1904 17.729 22.2306 17.7362 22.2699C17.7434 22.3091 17.7583 22.3465 17.7799 22.38C17.8016 22.4135 17.8296 22.4424 17.8625 22.465C17.8953 22.4877 17.9323 22.5036 17.9713 22.512C18.0103 22.5204 18.0505 22.5209 18.0898 22.5137C18.129 22.5065 18.1664 22.4917 18.1999 22.47C19.1481 21.8751 19.951 21.0756 20.5499 20.13C21.1383 19.1766 21.5199 18.1103 21.6699 17C22.2899 12.34 20.9099 9.37001 18.7699 7.55001ZM8.16992 2.06001C8.19243 1.94064 8.24322 1.82841 8.31803 1.73271C8.39285 1.63702 8.48951 1.56065 8.59993 1.51001C8.70573 1.45323 8.82091 1.41597 8.93992 1.40001C9.18992 1.40001 9.43992 1.33001 9.68992 1.29001C10.227 1.18777 10.7732 1.14085 11.3199 1.15001C12.1762 1.17035 13.0308 1.23711 13.8799 1.35001C14.2181 1.36686 14.5534 1.42051 14.8799 1.51001C15.0599 1.57001 15.2599 1.63001 15.2899 1.82001C15.3199 2.01001 15.2899 1.91001 15.1999 1.93001C15.0568 1.9775 14.9095 2.01099 14.7599 2.03001C14.1299 2.12001 13.5699 2.18001 13.0199 2.23001C11.0199 2.40001 9.39993 2.36001 8.51993 2.36001C8.25992 2.34001 8.15992 2.21001 8.16992 2.06001ZM11.0299 5.06001L11.0899 4.85001C11.0899 4.71001 11.1599 4.60001 11.1899 4.46001C11.1999 4.37363 11.1999 4.28639 11.1899 4.20001C11.1781 3.97184 11.1514 3.7447 11.1099 3.52001C11.1099 2.98001 11.1099 2.98001 12.7499 3.02001C12.6963 3.29386 12.6629 3.57127 12.6499 3.85001C12.6349 4.02302 12.6349 4.197 12.6499 4.37001C12.6499 4.54001 12.7399 4.69001 12.7699 4.85001C12.7999 5.01001 12.7699 5.04001 12.8299 5.17001C12.2228 5.09497 11.6116 5.05823 10.9999 5.06001H11.0299Z" fill="black"/>
<path fill-rule="evenodd" clip-rule="evenodd" d="M10.5701 15.05C10.5308 15.3681 10.5879 15.6908 10.7341 15.9761C10.8803 16.2613 11.1089 16.4961 11.3901 16.65C11.6974 16.762 12.0295 16.7877 12.3504 16.7242C12.6713 16.6607 12.9686 16.5106 13.2101 16.29C14.5601 15.11 13.2101 14 12.8501 13.78C12.6764 13.6838 12.4854 13.6228 12.2881 13.6004C12.0907 13.5781 11.8909 13.595 11.7001 13.65C11.5101 13.23 11.3401 12.82 11.1401 12.43C11.0301 12.22 10.9101 12.03 10.7901 11.84C10.6701 11.65 10.5201 11.46 10.3801 11.29C10.0371 10.8626 9.66984 10.4553 9.28012 10.07C9.22643 9.99926 9.14721 9.95234 9.05938 9.93926C8.97155 9.92618 8.88208 9.94798 8.81012 9.99999C8.77368 10.0267 8.74291 10.0603 8.71962 10.099C8.69633 10.1377 8.68097 10.1806 8.67446 10.2253C8.66794 10.27 8.67039 10.3155 8.68166 10.3593C8.69294 10.403 8.71281 10.444 8.74012 10.48C8.97012 10.88 9.19012 11.36 9.48012 11.88C9.57991 12.0842 9.69351 12.2813 9.82012 12.47C9.94101 12.6652 10.0746 12.8523 10.2201 13.03C10.4801 13.36 10.7801 13.67 11.0901 14.03C10.8006 14.297 10.6162 14.6588 10.5701 15.05ZM12.5201 14.49C12.8601 14.6 13.5201 15.05 12.6701 15.57C12.5632 15.6522 12.4356 15.7033 12.3014 15.7174C12.1673 15.7315 12.0318 15.7082 11.9101 15.65C11.7301 15.56 11.7001 15.33 11.7101 15.13C11.7201 14.93 11.7101 14.67 11.9701 14.59C12.0476 14.5314 12.1377 14.4919 12.2332 14.4745C12.3287 14.4571 12.427 14.4624 12.5201 14.49Z" fill="black"/>
</g>
<defs>
<clipPath id="clip0_36_804">
<rect width="24" height="24" fill="white"/>
</clipPath>
</defs>
</svg>
