<svg width="24" height="24" viewBox="0 0 24 24" fill="none" xmlns="http://www.w3.org/2000/svg">
<g clip-path="url(#clip0_36_775)">
<path fill-rule="evenodd" clip-rule="evenodd" d="M8.31009 7.78004C7.77517 7.64121 7.22176 7.58722 6.67009 7.62004C5.86852 7.64522 5.07136 7.74905 4.29009 7.93004C2.89595 8.38179 1.67875 9.25972 0.810091 10.44C0.48645 10.8623 0.252165 11.3461 0.121505 11.8619C-0.00915397 12.3776 -0.0334522 12.9146 0.0500909 13.44C0.102083 13.7538 0.1722 14.0644 0.260091 14.37C0.336168 14.5873 0.429811 14.798 0.540091 15C0.910713 15.6427 1.40731 16.2039 2.00009 16.65C2.61283 17.107 3.33232 17.3996 4.09009 17.5C4.67214 17.5547 5.25804 17.5547 5.84009 17.5C6.41131 17.4565 6.97915 17.3764 7.54009 17.26L8.00009 17.16C8.43366 17.0251 8.81597 16.7616 9.09636 16.4044C9.37674 16.0472 9.54195 15.6132 9.57009 15.16C9.57009 14.4 9.07009 13.64 7.71009 13.57C7.62679 13.5768 7.54865 13.6131 7.48981 13.6725C7.43096 13.7318 7.39529 13.8102 7.38925 13.8936C7.38321 13.977 7.4072 14.0597 7.45687 14.1269C7.50655 14.1941 7.57863 14.2414 7.66009 14.26C8.46009 14.33 8.82009 14.69 8.80009 15.14C8.75401 15.4166 8.62822 15.6736 8.43815 15.8797C8.24808 16.0857 8.002 16.2318 7.73009 16.3L7.40009 16.39C6.87825 16.4834 6.35005 16.5369 5.82009 16.55C5.29803 16.5713 4.77517 16.5378 4.26009 16.45C3.68551 16.3487 3.14563 16.1046 2.69009 15.74C2.22501 15.3641 1.84065 14.8981 1.56009 14.37C1.47121 14.1921 1.40406 14.0041 1.36009 13.81C1.29909 13.5899 1.25233 13.3661 1.22009 13.14C1.17028 12.6731 1.2272 12.2009 1.38658 11.7591C1.54595 11.3174 1.80361 10.9176 2.14009 10.59C2.80801 9.83917 3.64898 9.26251 4.59009 8.91004C5.28086 8.70493 5.99156 8.57419 6.71009 8.52004C7.17008 8.46954 7.63497 8.48638 8.09009 8.57004C8.37081 8.65247 8.63003 8.79548 8.84947 8.989C9.0689 9.18252 9.24321 9.42182 9.36009 9.69004C9.50009 10.11 9.29009 10.54 8.50009 10.87C8.43737 10.9076 8.38993 10.966 8.36613 11.0351C8.34233 11.1042 8.34371 11.1795 8.37003 11.2477C8.39635 11.3159 8.4459 11.3726 8.50995 11.4078C8.574 11.443 8.64843 11.4544 8.72009 11.44C10.0201 10.96 10.2301 10.17 10.0401 9.44004C9.88846 9.05497 9.65535 8.70726 9.35674 8.42073C9.05813 8.1342 8.70109 7.91564 8.31009 7.78004Z" fill="black"/>
<path fill-rule="evenodd" clip-rule="evenodd" d="M4.84993 12.19C5.22616 11.9978 5.63167 11.8694 6.04993 11.81C6.27993 11.81 6.53993 11.72 6.80993 11.69C6.95595 11.6705 7.10391 11.6705 7.24993 11.69C7.32938 11.7048 7.41148 11.688 7.47872 11.6432C7.54597 11.5983 7.59305 11.529 7.60993 11.45C7.62475 11.3705 7.60795 11.2884 7.56312 11.2212C7.51829 11.1539 7.44897 11.1069 7.36993 11.09C7.22582 11.0486 7.07871 11.0185 6.92993 11H6.00993C5.32172 10.9324 4.62842 11.0607 4.00993 11.37C3.76423 11.5129 3.55963 11.7169 3.41596 11.9622C3.2723 12.2075 3.19444 12.4858 3.18993 12.77C3.17402 13.0297 3.22333 13.2893 3.33337 13.525C3.4434 13.7608 3.61066 13.9653 3.81993 14.12C4.35574 14.4847 5.00774 14.638 5.64993 14.55L6.51993 14.48C6.57015 14.4886 6.62165 14.4861 6.67081 14.4727C6.71997 14.4593 6.76562 14.4354 6.80456 14.4025C6.84351 14.3696 6.87481 14.3287 6.89628 14.2825C6.91775 14.2363 6.92888 14.1859 6.92888 14.135C6.92888 14.084 6.91775 14.0337 6.89628 13.9875C6.87481 13.9413 6.84351 13.9003 6.80456 13.8675C6.76562 13.8346 6.71997 13.8106 6.67081 13.7973C6.62165 13.7839 6.57015 13.7814 6.51993 13.79L5.62993 13.73C5.27496 13.7264 4.92825 13.6224 4.62993 13.43C4.53214 13.3683 4.4539 13.2801 4.40432 13.1756C4.35475 13.0711 4.33589 12.9547 4.34993 12.84C4.35581 12.6932 4.40705 12.5519 4.4966 12.4355C4.58615 12.3191 4.70959 12.2333 4.84993 12.19Z" fill="black"/>
<path fill-rule="evenodd" clip-rule="evenodd" d="M6.49999 4.37998C6.71938 4.59878 6.95324 4.80258 7.19999 4.98998C7.29744 5.07127 7.40109 5.14482 7.50999 5.20998C7.61811 5.27653 7.73188 5.33342 7.84999 5.37998C8.14999 5.49998 8.44999 5.54998 8.72999 5.63998C8.79768 5.68621 8.88092 5.70374 8.9615 5.68875C9.04209 5.67375 9.11345 5.62746 9.15999 5.55998C9.20312 5.49309 9.21887 5.41217 9.20398 5.33399C9.18909 5.2558 9.14469 5.18634 9.07999 5.13998C8.87873 4.88656 8.65807 4.64918 8.41999 4.42998C8.31826 4.34209 8.20766 4.26501 8.08999 4.19998C7.97179 4.12423 7.84811 4.05738 7.71999 3.99998C7.42701 3.89064 7.12615 3.80372 6.81999 3.73998C6.73893 3.69709 6.64427 3.68772 6.55637 3.71391C6.46847 3.74009 6.39437 3.79972 6.34999 3.87998C6.32423 3.92199 6.30762 3.96896 6.30126 4.01783C6.29491 4.06669 6.29894 4.11635 6.3131 4.16355C6.32726 4.21075 6.35123 4.25443 6.38343 4.29173C6.41564 4.32902 6.45536 4.3591 6.49999 4.37998Z" fill="black"/>
<path fill-rule="evenodd" clip-rule="evenodd" d="M16.1199 19.41C15.8906 19.2039 15.6502 19.0103 15.3999 18.83L15.0799 18.62C14.9679 18.5599 14.8508 18.5097 14.7299 18.47C14.4199 18.37 14.1299 18.33 13.8399 18.25C13.8065 18.229 13.7692 18.2148 13.7302 18.2082C13.6912 18.2016 13.6513 18.2027 13.6128 18.2116C13.5742 18.2204 13.5378 18.2367 13.5056 18.2596C13.4734 18.2825 13.446 18.3115 13.4249 18.345C13.4039 18.3785 13.3897 18.4158 13.3831 18.4548C13.3765 18.4938 13.3777 18.5337 13.3865 18.5722C13.3953 18.6107 13.4116 18.6472 13.4345 18.6794C13.4574 18.7116 13.4865 18.739 13.5199 18.76C13.7262 19.0062 13.9537 19.2338 14.1999 19.44C14.3046 19.526 14.4187 19.5998 14.5399 19.66C14.658 19.7197 14.782 19.7666 14.9099 19.8C15.2055 19.9048 15.5101 19.9818 15.8199 20.03C15.8612 20.05 15.906 20.0615 15.9517 20.0637C15.9975 20.0659 16.0432 20.0589 16.0862 20.043C16.1291 20.0271 16.1684 20.0027 16.2017 19.9713C16.235 19.9398 16.2616 19.902 16.2799 19.86C16.3152 19.7787 16.3183 19.687 16.2886 19.6035C16.2589 19.52 16.1986 19.4508 16.1199 19.41Z" fill="black"/>
<path fill-rule="evenodd" clip-rule="evenodd" d="M11.51 0.609986C11.4179 0.609844 11.3292 0.645014 11.2623 0.708261C11.1953 0.771507 11.1551 0.858016 11.15 0.949986C11.1 1.18999 10.96 1.61999 10.85 2.12999C10.85 2.29999 10.79 2.46999 10.77 2.64999C10.755 2.82967 10.755 3.0103 10.77 3.18999C10.7954 3.61421 10.8556 4.03562 10.95 4.44999C10.95 4.49024 10.9581 4.53008 10.9738 4.56715C10.9895 4.60421 11.0125 4.63774 11.0414 4.66573C11.0703 4.69373 11.1046 4.71561 11.1421 4.73008C11.1797 4.74456 11.2198 4.75133 11.26 4.74999C11.2998 4.75138 11.3394 4.74458 11.3765 4.73C11.4135 4.71541 11.4471 4.69337 11.4753 4.66523C11.5034 4.63708 11.5255 4.60345 11.54 4.56642C11.5546 4.52939 11.5614 4.48976 11.56 4.44999C11.63 4.11999 11.78 3.72999 11.87 3.26999C11.9085 3.09903 11.9319 2.92503 11.94 2.74999C11.9551 2.57698 11.9551 2.40299 11.94 2.22999C11.9277 1.81855 11.8943 1.40801 11.84 0.999986C11.8456 0.952419 11.8413 0.904222 11.8274 0.858378C11.8136 0.812533 11.7905 0.770017 11.7596 0.73346C11.7286 0.696903 11.6905 0.667083 11.6476 0.645844C11.6047 0.624606 11.5579 0.612401 11.51 0.609986Z" fill="black"/>
<path fill-rule="evenodd" clip-rule="evenodd" d="M11.6703 19.53C11.6784 19.4853 11.6766 19.4394 11.6651 19.3955C11.6535 19.3516 11.6324 19.3108 11.6033 19.2759C11.5742 19.2411 11.5378 19.213 11.4967 19.1938C11.4556 19.1745 11.4107 19.1646 11.3653 19.1646C11.3199 19.1646 11.2751 19.1745 11.2339 19.1938C11.1928 19.213 11.1564 19.2411 11.1273 19.2759C11.0982 19.3108 11.0771 19.3516 11.0656 19.3955C11.054 19.4394 11.0522 19.4853 11.0603 19.53C11.0103 19.86 10.8803 20.26 10.8003 20.72C10.7733 20.8922 10.7566 21.0658 10.7503 21.24C10.7401 21.4132 10.7401 21.5868 10.7503 21.76C10.7845 22.1761 10.8413 22.59 10.9203 23C10.9203 23.0928 10.9572 23.1819 11.0228 23.2475C11.0885 23.3131 11.1775 23.35 11.2703 23.35C11.3614 23.3474 11.4479 23.3094 11.5114 23.244C11.5748 23.1787 11.6103 23.0911 11.6103 23C11.6103 22.75 11.7703 22.32 11.8603 21.8C11.8603 21.63 11.9103 21.46 11.9203 21.28C11.9354 21.1037 11.9354 20.9263 11.9203 20.75C11.8684 20.3375 11.7848 19.9297 11.6703 19.53Z" fill="black"/>
<path fill-rule="evenodd" clip-rule="evenodd" d="M14.2303 5.40994C14.5803 5.20994 14.8603 5.08994 15.1003 4.91994C15.2151 4.84382 15.3223 4.75675 15.4203 4.65994C15.5218 4.56425 15.6154 4.46058 15.7003 4.34994C15.9041 4.08175 16.0911 3.80121 16.2603 3.50994C16.3244 3.44451 16.3604 3.35655 16.3604 3.26494C16.3604 3.17332 16.3244 3.08536 16.2603 3.01994C16.1937 2.95808 16.1062 2.92371 16.0153 2.92371C15.9244 2.92371 15.8369 2.95808 15.7703 3.01994C15.4803 3.21994 15.2203 3.34994 14.9503 3.53994C14.8355 3.62037 14.7254 3.70717 14.6203 3.79994C14.5196 3.89638 14.426 3.99998 14.3403 4.10994C14.1603 4.34994 14.0203 4.61994 13.8103 4.95994C13.7547 5.0177 13.7236 5.09476 13.7236 5.17494C13.7236 5.25511 13.7547 5.33217 13.8103 5.38994C13.8637 5.44765 13.9377 5.48209 14.0162 5.48583C14.0948 5.48957 14.1716 5.46232 14.2303 5.40994Z" fill="black"/>
<path fill-rule="evenodd" clip-rule="evenodd" d="M8.34014 18.71C8.01014 18.92 7.73014 19.05 7.49014 19.23C7.38313 19.3155 7.28284 19.4091 7.19014 19.51C7.09152 19.6091 7.00122 19.7161 6.92014 19.83C6.72014 20.12 6.57014 20.38 6.39014 20.69C6.35269 20.7227 6.32265 20.7631 6.30203 20.8083C6.2814 20.8536 6.27065 20.9027 6.27051 20.9525C6.27036 21.0022 6.28082 21.0514 6.30119 21.0968C6.32155 21.1422 6.35135 21.1827 6.38861 21.2156C6.42586 21.2486 6.46971 21.2732 6.51724 21.2879C6.56476 21.3026 6.61487 21.307 6.66422 21.3007C6.71357 21.2945 6.76103 21.2779 6.80343 21.2519C6.84584 21.2259 6.88221 21.1911 6.91014 21.15C7.19014 20.94 7.44014 20.8 7.71014 20.59C7.81382 20.5078 7.9108 20.4175 8.00014 20.32C8.10965 20.2257 8.20705 20.1182 8.29014 20C8.46945 19.7193 8.63303 19.4288 8.78014 19.13C8.80772 19.1011 8.82933 19.0671 8.84376 19.0298C8.85818 18.9926 8.86512 18.9528 8.86419 18.9129C8.86327 18.873 8.85448 18.8336 8.83834 18.7971C8.82221 18.7606 8.79903 18.7276 8.77014 18.7C8.74125 18.6724 8.70721 18.6508 8.66996 18.6364C8.63272 18.6219 8.593 18.615 8.55307 18.6159C8.51314 18.6169 8.47378 18.6256 8.43725 18.6418C8.40071 18.6579 8.36772 18.6811 8.34014 18.71Z" fill="black"/>
<path fill-rule="evenodd" clip-rule="evenodd" d="M23.3403 10.7C22.7392 9.66374 21.8 8.86577 20.6803 8.43998C20.2302 8.29614 19.7729 8.17597 19.3103 8.07998C18.9816 8.00617 18.6469 7.96265 18.3103 7.94998H16.0103C15.9648 7.94864 15.9195 7.95644 15.8771 7.97293C15.8347 7.98942 15.796 8.01425 15.7634 8.04595C15.7307 8.07766 15.7048 8.1156 15.6871 8.15751C15.6694 8.19943 15.6602 8.24447 15.6603 8.28998C15.6699 8.37401 15.7097 8.45171 15.7722 8.5087C15.8347 8.56569 15.9157 8.59811 16.0003 8.59998L18.3003 8.69998C18.6388 8.73174 18.9736 8.79536 19.3003 8.88998C19.6397 8.97646 19.9737 9.08332 20.3003 9.20998C21.2223 9.58343 21.9858 10.2657 22.4603 11.14C22.7026 11.5525 22.8562 12.011 22.9113 12.4862C22.9664 12.9615 22.9218 13.443 22.7803 13.9C22.6366 14.2471 22.422 14.5605 22.1503 14.82C21.8989 15.1071 21.6015 15.3505 21.2703 15.54C20.7814 15.8063 20.2557 15.9984 19.7103 16.11C19.1417 16.2108 18.5671 16.2743 17.9903 16.3C17.5473 16.325 17.1032 16.325 16.6603 16.3C15.9103 16.24 15.3103 16.15 15.3103 16.15H15.1703C14.7603 16.15 14.4603 15.78 14.4003 15.4C14.3403 15.02 14.5803 14.81 15.1103 14.77H17.3703C18.0516 14.7391 18.7251 14.6111 19.3703 14.39C19.8876 14.2161 20.3245 13.8609 20.6003 13.39C20.7076 13.1692 20.7591 12.9254 20.7503 12.68C20.766 12.3711 20.7218 12.0621 20.6203 11.77C20.5048 11.4615 20.3099 11.189 20.0553 10.98C19.8006 10.7711 19.4954 10.6331 19.1703 10.58C18.3802 10.5122 17.585 10.5357 16.8003 10.65L15.2003 10.83C14.1303 10.78 13.6203 10.43 13.5203 9.95998C13.4918 9.8039 13.4954 9.64366 13.5308 9.48901C13.5662 9.33436 13.6327 9.18853 13.7263 9.06039C13.8198 8.93224 13.9384 8.82446 14.0749 8.74359C14.2114 8.66272 14.3629 8.61046 14.5203 8.58998C14.5917 8.57699 14.6563 8.53935 14.7028 8.48361C14.7493 8.42787 14.7748 8.35757 14.7748 8.28498C14.7748 8.21238 14.7493 8.14208 14.7028 8.08634C14.6563 8.03061 14.5917 7.99296 14.5203 7.97998C14.2647 7.99705 14.0154 8.06615 13.7876 8.18304C13.5597 8.29992 13.3581 8.46213 13.1952 8.6597C13.0323 8.85727 12.9114 9.08605 12.8401 9.332C12.7687 9.57795 12.7484 9.83588 12.7803 10.09C12.9103 10.78 13.5303 11.47 15.0903 11.6L16.7903 11.49C17.4977 11.4048 18.2128 11.4048 18.9203 11.49C19.0915 11.527 19.25 11.6084 19.3798 11.726C19.5097 11.8436 19.6064 11.9933 19.6603 12.16V12.88C19.4843 13.1218 19.2298 13.295 18.9403 13.37C18.3971 13.5267 17.8355 13.6108 17.2703 13.62H15.1403C13.6403 13.71 13.2103 14.67 13.3403 15.56C13.3981 16.0393 13.6274 16.4815 13.9858 16.805C14.3442 17.1285 14.8075 17.3114 15.2903 17.32C15.5003 17.32 16.1903 17.44 16.9603 17.48C17.3533 17.5 17.7472 17.5 18.1403 17.48C18.7783 17.4489 19.4133 17.3721 20.0403 17.25C20.6815 17.0984 21.2977 16.856 21.8703 16.53C22.3019 16.2605 22.6869 15.9228 23.0103 15.53C23.3663 15.1547 23.6449 14.7129 23.8303 14.23C23.9993 13.6399 24.043 13.0211 23.9587 12.4131C23.8743 11.8052 23.6636 11.2217 23.3403 10.7Z" fill="black"/>
</g>
<defs>
<clipPath id="clip0_36_775">
<rect width="24" height="24" fill="white"/>
</clipPath>
</defs>
</svg>
