<svg width="24" height="24" viewBox="0 0 24 24" fill="none" xmlns="http://www.w3.org/2000/svg">
<g clip-path="url(#clip0_36_587)">
<path fill-rule="evenodd" clip-rule="evenodd" d="M7.18985 16.52C6.94375 16.5467 6.70192 16.6038 6.46985 16.69C6.27138 16.7769 6.08069 16.8806 5.89985 17C5.85273 16.8425 5.81599 16.6822 5.78985 16.52C5.77043 16.2536 5.77043 15.9863 5.78985 15.72C5.82363 15.5403 5.89521 15.3699 5.99985 15.22C6.10738 15.184 6.21778 15.1572 6.32985 15.14C6.85985 15.08 7.70985 15.05 8.50985 15.03H10.3498C10.428 15.0279 10.5027 14.9972 10.5599 14.9438C10.617 14.8903 10.6525 14.8178 10.6598 14.74C10.6626 14.7002 10.6571 14.6604 10.6438 14.6228C10.6305 14.5853 10.6095 14.5509 10.5823 14.5218C10.5551 14.4928 10.5222 14.4696 10.4856 14.4538C10.4491 14.438 10.4097 14.4299 10.3698 14.43C9.68985 14.43 7.79985 14.28 6.64985 14.28C6.33845 14.2775 6.02738 14.3009 5.71985 14.35C5.6171 14.38 5.52174 14.431 5.43985 14.5C5.22024 14.7304 5.06206 15.0124 4.97985 15.32C4.87838 15.7016 4.82794 16.095 4.82985 16.49C4.79444 16.9326 4.79444 17.3773 4.82985 17.82C4.84004 17.9103 4.87032 17.9973 4.91847 18.0745C4.96661 18.1516 5.0314 18.2171 5.10809 18.2659C5.18479 18.3148 5.27145 18.346 5.36172 18.357C5.452 18.3681 5.54361 18.3589 5.62985 18.33C6.01985 18.17 6.33985 17.96 6.69985 17.81C6.88676 17.7274 7.08619 17.6767 7.28985 17.66C7.62383 17.6283 7.96069 17.6701 8.27682 17.7823C8.59294 17.8946 8.88068 18.0747 9.11985 18.31C9.36766 18.5463 9.56533 18.8302 9.70106 19.1446C9.83679 19.459 9.9078 19.7975 9.90985 20.14C9.96335 20.8779 9.78881 21.6145 9.40985 22.25C9.18808 22.5259 8.90824 22.7496 8.59022 22.9052C8.27221 23.0607 7.92382 23.1443 7.56985 23.15C7.08496 23.182 6.60406 23.0441 6.20985 22.76C5.77514 22.4913 5.42775 22.1022 5.20985 21.64C5.17821 21.5546 5.11457 21.4849 5.03243 21.4457C4.95028 21.4065 4.8561 21.4009 4.76985 21.43C4.6845 21.4616 4.61484 21.5252 4.57564 21.6074C4.53643 21.6895 4.53077 21.7837 4.55985 21.87C4.8009 22.4728 5.20626 22.996 5.72985 23.38C6.27094 23.8029 6.94342 24.0224 7.62985 24C8.11853 24.0101 8.60324 23.9102 9.0481 23.7077C9.49296 23.5051 9.88659 23.2052 10.1998 22.83C10.7436 22.0477 11.0239 21.1124 10.9998 20.16C11.0139 19.6645 10.9252 19.1714 10.7393 18.7119C10.5535 18.2524 10.2744 17.8363 9.91985 17.49C9.56599 17.1349 9.13715 16.8634 8.66477 16.6956C8.19239 16.5278 7.68843 16.4677 7.18985 16.52Z" fill="black"/>
<path fill-rule="evenodd" clip-rule="evenodd" d="M19.9997 19.16C19.7913 19.0217 19.5495 18.9423 19.2997 18.93C18.5146 18.8606 17.7249 18.8606 16.9397 18.93C16.8955 18.9325 16.8521 18.9439 16.8124 18.9635C16.7726 18.9831 16.7372 19.0105 16.7083 19.0441C16.6793 19.0777 16.6575 19.1168 16.644 19.159C16.6305 19.2013 16.6256 19.2458 16.6297 19.29C16.6323 19.3346 16.6436 19.3784 16.6631 19.4187C16.6826 19.4589 16.7098 19.495 16.7433 19.5247C16.7767 19.5544 16.8157 19.5773 16.858 19.5919C16.9003 19.6065 16.9451 19.6127 16.9897 19.61C17.7936 19.5737 18.599 19.6307 19.3897 19.78C19.4621 20.2558 19.4069 20.7424 19.2297 21.19C19.049 21.6779 18.7291 22.102 18.3097 22.41C17.5666 22.8515 16.6812 22.9877 15.8397 22.79C15.4224 22.73 15.0247 22.5742 14.6777 22.3348C14.3307 22.0953 14.0439 21.7788 13.8397 21.41C13.6294 20.9637 13.5105 20.48 13.4899 19.9871C13.4692 19.4942 13.5474 19.0022 13.7197 18.54C14.0111 17.5254 14.6255 16.6336 15.4697 16C15.9563 15.6724 16.5162 15.4697 17.0997 15.41C17.3724 15.3612 17.6524 15.3726 17.9201 15.4435C18.1878 15.5143 18.4369 15.6428 18.6497 15.82C18.6747 15.8549 18.7069 15.884 18.7442 15.9054C18.7814 15.9268 18.8228 15.9399 18.8655 15.9439C18.9083 15.9479 18.9514 15.9427 18.9919 15.9287C19.0325 15.9146 19.0696 15.892 19.1006 15.8624C19.1317 15.8327 19.156 15.7968 19.172 15.7569C19.188 15.7171 19.1953 15.6743 19.1933 15.6314C19.1913 15.5885 19.1801 15.5466 19.1606 15.5084C19.141 15.4702 19.1134 15.4366 19.0797 15.41C18.8721 15.1939 18.624 15.0208 18.3494 14.9007C18.0749 14.7806 17.7793 14.7158 17.4797 14.71C16.6178 14.6624 15.7604 14.8637 15.0097 15.29C13.9646 15.9693 13.1681 16.9694 12.7397 18.14C12.4987 18.7348 12.3824 19.3727 12.3978 20.0143C12.4133 20.6559 12.5603 21.2875 12.8297 21.87C13.1032 22.3926 13.4936 22.845 13.9706 23.1919C14.4476 23.5388 14.9983 23.7709 15.5797 23.87C16.7096 24.089 17.8803 23.8556 18.8397 23.22C19.3861 22.764 19.7889 22.1597 19.9997 21.48C20.229 20.8162 20.2568 20.0995 20.0797 19.42C20.0799 19.3272 20.052 19.2366 19.9997 19.16Z" fill="black"/>
<path fill-rule="evenodd" clip-rule="evenodd" d="M13.62 10.07C14.0889 10.1775 14.5318 10.377 14.9231 10.6567C15.3145 10.9365 15.6465 11.2911 15.9 11.7C15.9201 11.7402 15.948 11.7761 15.9821 11.8055C16.0162 11.8348 16.0558 11.8572 16.0986 11.8711C16.1414 11.8851 16.1865 11.8904 16.2314 11.8868C16.2763 11.8831 16.32 11.8706 16.36 11.85C16.4394 11.8074 16.4993 11.7358 16.5272 11.6501C16.5552 11.5644 16.549 11.4712 16.51 11.39C16.2721 10.8343 15.9206 10.3346 15.478 9.92294C15.0353 9.51131 14.5114 9.19692 13.94 8.99999C13.4504 8.83281 12.9373 8.74504 12.42 8.73999C11.9061 8.74694 11.3965 8.83468 10.91 8.99999C9.79106 9.35893 8.8235 10.0802 8.15996 11.05C8.12991 11.0794 8.10637 11.1148 8.09089 11.1539C8.0754 11.1931 8.06832 11.235 8.07009 11.277C8.07186 11.319 8.08245 11.3602 8.10117 11.3979C8.1199 11.4356 8.14633 11.4689 8.17876 11.4957C8.21119 11.5224 8.24889 11.5421 8.28942 11.5534C8.32994 11.5647 8.37238 11.5673 8.41399 11.5611C8.4556 11.5549 8.49543 11.54 8.53092 11.5174C8.5664 11.4949 8.59674 11.4651 8.61996 11.43C9.32042 10.7248 10.2152 10.2443 11.19 10.05C11.5948 9.96717 12.0067 9.92364 12.42 9.91999C12.8247 9.91931 13.2279 9.9697 13.62 10.07Z" fill="black"/>
<path fill-rule="evenodd" clip-rule="evenodd" d="M9.43992 5.87996C10.2764 5.66368 11.136 5.54952 11.9999 5.53996C12.8452 5.52316 13.6891 5.6173 14.5099 5.81996C16.456 6.32355 18.1775 7.46416 19.3999 9.05996C19.4268 9.09935 19.4613 9.13306 19.5012 9.15916C19.5412 9.18525 19.5859 9.20322 19.6327 9.21205C19.6796 9.22087 19.7278 9.22037 19.7745 9.21057C19.8212 9.20078 19.8655 9.18188 19.9049 9.15496C19.9443 9.12804 19.978 9.09362 20.0041 9.05367C20.0302 9.01372 20.0482 8.96903 20.057 8.92213C20.0658 8.87524 20.0653 8.82707 20.0555 8.78037C20.0457 8.73367 20.0268 8.68935 19.9999 8.64996C18.7672 6.80082 16.9339 5.43384 14.8099 4.77996C12.9741 4.22634 11.0158 4.22634 9.17992 4.77996C7.04692 5.45277 5.19486 6.8093 3.90992 8.63996C3.88632 8.67282 3.86986 8.71025 3.86159 8.74984C3.85332 8.78944 3.85343 8.83033 3.86191 8.86989C3.87038 8.90944 3.88704 8.94679 3.91081 8.97952C3.93458 9.01226 3.96493 9.03966 3.99992 9.05996C4.0612 9.0988 4.13447 9.11413 4.20618 9.1031C4.27788 9.09207 4.34316 9.05543 4.38992 8.99996C5.71066 7.4634 7.47478 6.37349 9.43992 5.87996Z" fill="black"/>
<path fill-rule="evenodd" clip-rule="evenodd" d="M22.88 6.71999C22.15 3.60999 19.45 1.50999 16.14 0.55999C14.8374 0.196567 13.4923 0.00824428 12.14 -9.88302e-06C10.7893 -0.00755845 9.44381 0.167356 8.13997 0.51999C4.93997 1.40999 2.21997 3.40999 1.13997 6.43999C1.1108 6.51425 1.11232 6.59706 1.1442 6.6702C1.17608 6.74334 1.23571 6.80082 1.30997 6.82999C1.38423 6.85916 1.46704 6.85764 1.54018 6.82576C1.61332 6.79388 1.6708 6.73425 1.69997 6.65999C2.81997 3.92999 5.42997 2.29999 8.39997 1.57999C9.62212 1.29076 10.8741 1.14644 12.13 1.14999C13.387 1.14679 14.6397 1.29792 15.86 1.59999C18.86 2.36999 21.44 4.10999 22.22 6.88999C22.2293 6.93399 22.2475 6.97562 22.2735 7.01232C22.2994 7.04903 22.3326 7.08005 22.371 7.10346C22.4094 7.12687 22.4522 7.14219 22.4967 7.14847C22.5413 7.15475 22.5866 7.15187 22.63 7.13999C22.6744 7.12951 22.7162 7.11021 22.7529 7.08324C22.7897 7.05627 22.8207 7.02218 22.844 6.98299C22.8673 6.9438 22.8825 6.90033 22.8887 6.85514C22.8949 6.80996 22.8919 6.764 22.88 6.71999Z" fill="black"/>
</g>
<defs>
<clipPath id="clip0_36_587">
<rect width="24" height="24" fill="white"/>
</clipPath>
</defs>
</svg>
