<svg width="24" height="24" viewBox="0 0 24 24" fill="none" xmlns="http://www.w3.org/2000/svg">
<g clip-path="url(#clip0_36_1207)">
<path fill-rule="evenodd" clip-rule="evenodd" d="M13.9996 6.42991C13.353 6.22488 12.678 6.12362 11.9996 6.12991C11.32 6.13659 10.6454 6.2479 9.99965 6.45991C8.46002 6.94008 7.12341 7.91791 6.19965 9.23991C6.17601 9.27143 6.15881 9.3073 6.14903 9.34546C6.13926 9.38362 6.13709 9.42334 6.14266 9.46234C6.14824 9.50134 6.16143 9.53886 6.18151 9.57276C6.20158 9.60666 6.22813 9.63628 6.25965 9.65991C6.29 9.68541 6.32525 9.70442 6.36323 9.71575C6.40121 9.72709 6.44111 9.73053 6.48047 9.72584C6.51983 9.72116 6.55781 9.70845 6.59207 9.68851C6.62633 9.66857 6.65613 9.64182 6.67965 9.60991C7.61545 8.56731 8.84684 7.83475 10.2096 7.50991C10.7955 7.36451 11.3961 7.28733 11.9996 7.27991C12.5821 7.26833 13.1636 7.33219 13.7296 7.46991C15.087 7.78689 16.2964 8.55555 17.1596 9.64991C17.2127 9.72285 17.2925 9.77172 17.3816 9.78579C17.4707 9.79986 17.5617 9.77796 17.6346 9.72492C17.7076 9.67187 17.7565 9.59203 17.7705 9.50295C17.7846 9.41387 17.7627 9.32285 17.7096 9.24991C16.8457 7.9005 15.5311 6.90126 13.9996 6.42991Z" fill="black"/>
<path fill-rule="evenodd" clip-rule="evenodd" d="M22.8598 6.71003C22.1398 3.61003 19.4398 1.51003 16.1298 0.560032C14.8274 0.195671 13.4821 0.00733128 12.1298 3.2131e-05C10.7787 -0.0138424 9.43238 0.161184 8.12978 0.520032C4.92978 1.41003 2.20978 3.40003 1.12978 6.43003C1.11377 6.46663 1.1055 6.50613 1.10547 6.54608C1.10544 6.58602 1.11367 6.62554 1.12963 6.66215C1.14559 6.69877 1.16894 6.73169 1.19822 6.75886C1.2275 6.78603 1.26208 6.80685 1.29978 6.82003C1.37421 6.84679 1.45605 6.8441 1.52855 6.81249C1.60105 6.78089 1.65873 6.72277 1.68978 6.65003C2.83978 3.92003 5.43978 2.30003 8.39978 1.58003C9.62193 1.2908 10.8739 1.14648 12.1298 1.15003C13.3836 1.14685 14.6329 1.29798 15.8498 1.60003C18.8498 2.36003 21.4198 4.10003 22.1998 6.88003C22.2109 6.92337 22.2305 6.96408 22.2574 6.99985C22.2843 7.03561 22.318 7.06573 22.3565 7.08848C22.3951 7.11123 22.4377 7.12617 22.482 7.13244C22.5263 7.13871 22.5714 7.13619 22.6148 7.12503C22.6581 7.11387 22.6988 7.09428 22.7346 7.06738C22.7704 7.04049 22.8005 7.00681 22.8232 6.96827C22.846 6.92974 22.8609 6.8871 22.8672 6.84279C22.8735 6.79848 22.8709 6.75337 22.8598 6.71003Z" fill="black"/>
<path fill-rule="evenodd" clip-rule="evenodd" d="M15.34 15.6801C14.678 15.5629 14.0105 15.4794 13.34 15.4301H13.23C13.1934 15.2655 13.17 15.0983 13.16 14.9301C13.16 13.9301 13.23 12.3001 13.16 11.5201C13.1618 11.3329 13.1314 11.1469 13.07 10.9701C12.79 10.3701 12.07 11.2401 12.01 11.3301C11.12 12.2701 9.25002 14.5101 8.08002 15.9701C7.64002 16.5301 7.29002 16.9701 7.14002 17.2001C7.06651 17.2977 7.02113 17.4137 7.00879 17.5353C6.99645 17.6569 7.01763 17.7796 7.07002 17.8901C7.24156 18.0546 7.46344 18.1568 7.70002 18.1801C8.29002 18.2701 9.59002 18.2901 10.19 18.3201C10.19 19.3201 10.05 21.7401 10 22.8301V23.3301C9.99128 23.4575 10.0209 23.5847 10.0851 23.6952C10.1492 23.8057 10.245 23.8945 10.36 23.9501C10.46 23.9917 10.5698 24.0034 10.6763 23.9839C10.7828 23.9644 10.8813 23.9144 10.96 23.8401C11.0645 23.7515 11.1615 23.6545 11.25 23.5501C11.63 23.1101 12.41 22.1401 13.25 21.0501C14.2402 19.793 15.1583 18.4809 16 17.1201C16.1689 16.8667 16.2465 16.5634 16.22 16.2601C16.1302 16.1002 16.0035 15.9642 15.8504 15.8633C15.6973 15.7624 15.5223 15.6996 15.34 15.6801ZM15 16.8501C14.26 18.0301 12.43 20.3601 11.25 21.8001C11.25 21.2601 11.3 20.6601 11.31 20.0901V18.0301C11.3145 17.8924 11.2838 17.7559 11.2208 17.6334C11.1578 17.5109 11.0646 17.4065 10.95 17.3301C10.7902 17.2879 10.6253 17.2677 10.46 17.2701H8.28002C8.27812 17.2468 8.27812 17.2234 8.28002 17.2001C9.22002 15.8701 11.38 13.0101 12.4 11.8301C12.4 12.6501 12.29 13.9601 12.26 14.8301C12.2322 15.1394 12.2322 15.4507 12.26 15.7601C12.2678 15.8289 12.2896 15.8955 12.324 15.9557C12.3584 16.0158 12.4046 16.0684 12.46 16.1101C12.6853 16.2198 12.9299 16.2843 13.18 16.3001C13.8026 16.3643 14.4205 16.4679 15.03 16.6101C15.0237 16.6905 15.0137 16.7706 15 16.8501Z" fill="black"/>
</g>
<defs>
<clipPath id="clip0_36_1207">
<rect width="24" height="24" fill="white"/>
</clipPath>
</defs>
</svg>
