<svg width="24" height="24" viewBox="0 0 24 24" fill="none" xmlns="http://www.w3.org/2000/svg">
<g clip-path="url(#clip0_36_585)">
<path fill-rule="evenodd" clip-rule="evenodd" d="M24.0002 11.66C23.9909 10.5841 23.8532 9.51323 23.5902 8.46998C23.5352 8.26399 23.4245 8.07715 23.2702 7.92998C23.0419 7.76308 22.784 7.64092 22.5102 7.56998C22.0402 7.44998 21.4502 7.39998 20.9502 7.31998C20.7086 7.30538 20.4746 7.22969 20.2702 7.09998C20.1602 6.99998 20.1702 6.74998 20.1502 6.47998C20.1141 5.95536 20.0236 5.43591 19.8802 4.92998C19.7833 4.6513 19.6058 4.40767 19.3702 4.22998C18.9566 3.97745 18.4846 3.83621 18.0002 3.81998C17.1102 3.73998 16.0002 3.81998 15.1702 3.81998L8.70022 3.99998C3.12022 3.99998 2.64022 3.99998 1.94022 4.17998C1.45208 4.30208 1.00623 4.55438 0.650222 4.90998C0.373125 5.21655 0.186234 5.59379 0.110222 5.99998C0.0186163 6.56847 -0.0182192 7.14445 0.000222065 7.71998V13.13C0.000222065 13.86 0.000222065 16.31 0.110222 17.79C0.123557 18.2562 0.218318 18.7164 0.390222 19.15C1.01599 19.7393 1.84071 20.0713 2.70022 20.08C4.38365 20.2081 6.07244 20.2514 7.76022 20.21H15.0102C15.885 20.2289 16.7601 20.1921 17.6302 20.1C18.2667 20.0459 18.8875 19.8729 19.4602 19.59C19.6216 19.5068 19.7648 19.3923 19.8815 19.2532C19.9983 19.1142 20.0862 18.9533 20.1402 18.78C20.278 18.197 20.3418 17.5989 20.3302 17C20.3302 16.78 20.3302 16.56 20.4402 16.46C20.7244 16.2832 21.0467 16.1769 21.3802 16.15C21.8368 16.0967 22.2883 16.0064 22.7302 15.88C23.0295 15.7801 23.2958 15.6003 23.5002 15.36C23.6857 15.0989 23.8057 14.7971 23.8502 14.48C23.9967 13.5476 24.047 12.6026 24.0002 11.66ZM22.7902 14.18C22.7769 14.3574 22.7293 14.5306 22.6502 14.69C22.4802 14.9 22.1702 14.92 21.8502 14.97C21.3985 15.0233 20.9508 15.1069 20.5102 15.22C20.2444 15.3005 19.9941 15.4256 19.7702 15.59C19.494 15.8244 19.3127 16.1515 19.2602 16.51C19.1802 16.91 19.2002 17.41 19.1602 17.88C19.1602 18.16 19.1602 18.44 18.9402 18.55C18.4903 18.7633 18.0062 18.8954 17.5102 18.94C16.6829 19.0221 15.8516 19.0588 15.0202 19.05L7.79022 19.12C6.60022 19.12 4.45022 19.25 2.79022 19.12C2.00022 19 1.39022 18.92 1.17022 18.61C1.01517 17.9549 0.941278 17.2831 0.950222 16.61C0.870222 15.26 0.840222 13.71 0.830222 13.16L0.750222 7.70998C0.695849 7.1914 0.695849 6.66856 0.750222 6.14998C0.784971 5.8545 0.906801 5.57604 1.10022 5.34998C1.37136 5.06516 1.71836 4.8639 2.10022 4.76998C2.94022 4.53998 3.17022 4.63998 8.68022 4.76998H15.1402H17.5102C17.956 4.73575 18.4032 4.81487 18.8102 4.99998C19.0402 5.16998 19.0602 5.53998 19.1002 5.90998C19.1298 6.39771 19.1966 6.88246 19.3002 7.35998C19.3471 7.53264 19.4365 7.69079 19.5602 7.81998C19.7836 8.01715 20.0511 8.15776 20.3402 8.22998C21.0879 8.29497 21.8239 8.4563 22.5302 8.70998C22.4602 8.77998 22.6302 8.98998 22.6802 9.21998C22.8414 10.2654 22.915 11.3224 22.9002 12.38C22.904 12.9825 22.8606 13.5843 22.7702 14.18H22.7902Z" fill="black"/>
</g>
<defs>
<clipPath id="clip0_36_585">
<rect width="24" height="24" fill="white"/>
</clipPath>
</defs>
</svg>
