<svg width="24" height="24" viewBox="0 0 24 24" fill="none" xmlns="http://www.w3.org/2000/svg">
<g clip-path="url(#clip0_36_1149)">
<path fill-rule="evenodd" clip-rule="evenodd" d="M8.94014 20.1901H5.81014C5.31014 20.1901 4.56014 20.1901 3.91014 20.1301C3.55345 20.1281 3.20539 20.0202 2.91014 19.8201C2.6179 19.4173 2.45094 18.9373 2.43014 18.4401C2.35181 17.5985 2.35181 16.7516 2.43014 15.9101C2.51014 14.4401 2.73014 11.2401 2.89014 8.41005C3.03014 6.13005 3.13014 4.08005 3.15014 3.41005C3.1418 3.07484 3.16861 2.73968 3.23014 2.41005C3.26258 2.17204 3.37136 1.95098 3.54014 1.78005C3.8356 1.56487 4.17865 1.42422 4.54014 1.37005C4.61014 1.84005 4.80014 2.63005 4.97014 3.26005C5.05529 3.63273 5.19693 3.99019 5.39014 4.32005C5.7629 4.52626 6.16913 4.66506 6.59014 4.73005C7.39014 4.90005 8.46014 5.05005 8.99014 5.12005C9.65578 5.17234 10.3245 5.17234 10.9901 5.12005C11.4668 5.09292 11.9376 5.00211 12.3901 4.85005C12.7015 4.64377 12.9423 4.34716 13.0801 4.00005C13.4806 3.10579 13.8149 2.18331 14.0801 1.24005C14.3988 1.36175 14.6644 1.59191 14.8301 1.89005C14.9568 2.09979 15.0639 2.32072 15.1501 2.55005C15.2308 2.78174 15.2943 3.01905 15.3401 3.26005C15.4888 4.56124 15.5556 5.87049 15.5401 7.18005C15.5401 9.48005 15.5401 12.0001 15.4101 13.1801C15.4044 13.2697 15.4334 13.3582 15.4911 13.427C15.5489 13.4959 15.6308 13.54 15.7201 13.5501C15.8114 13.5556 15.9012 13.5252 15.9703 13.4654C16.0395 13.4056 16.0825 13.3211 16.0901 13.2301C16.2001 12.0801 16.3201 9.53005 16.3601 7.23005C16.399 5.87221 16.3589 4.51325 16.2401 3.16005C16.1866 2.84709 16.1063 2.53929 16.0001 2.24005C15.9069 1.95252 15.7864 1.67458 15.6401 1.41005C15.4128 0.985312 15.0649 0.637361 14.6401 0.410054C14.0286 0.147149 13.365 0.0274372 12.7001 0.0600537L6.71014 5.36852e-05C5.93297 -0.0254389 5.15529 0.0315463 4.39014 0.170054C3.80914 0.268275 3.26034 0.504945 2.79014 0.860054C2.48742 1.12508 2.26849 1.47258 2.16014 1.86005C2.04031 2.33712 1.98648 2.82836 2.00014 3.32005L1.51014 15.8301C1.45545 16.8917 1.52932 17.9561 1.73014 19.0001C1.82214 19.507 2.05423 19.9781 2.40014 20.3601C2.71809 20.6073 3.09937 20.7598 3.50014 20.8001C4.26477 20.8685 5.03297 20.8886 5.80014 20.8601L9.00014 20.7901C9.0797 20.7901 9.15601 20.7584 9.21227 20.7022C9.26853 20.6459 9.30014 20.5696 9.30014 20.4901C9.29774 20.4461 9.28632 20.4032 9.26659 20.3639C9.24687 20.3246 9.21925 20.2898 9.18547 20.2617C9.15169 20.2335 9.11247 20.2126 9.07026 20.2003C9.02805 20.188 8.98375 20.1845 8.94014 20.1901ZM6.69014 1.19005L12.6901 1.13005H13.3601C13.1901 1.56005 12.9101 2.27005 12.6001 2.90005C12.1101 3.90005 12.4001 4.01005 10.8701 4.05005C10.2591 4.05675 9.64822 4.03004 9.04014 3.97005L6.00014 3.59005C5.78436 3.11044 5.5941 2.61976 5.43014 2.12005C5.3218 1.82493 5.22834 1.52455 5.15014 1.22005C5.66047 1.15183 6.17548 1.12508 6.69014 1.14005V1.19005Z" fill="black"/>
<path fill-rule="evenodd" clip-rule="evenodd" d="M22.4101 18.6801C22.3347 18.1146 22.2278 17.5537 22.0901 17.0001C22.067 16.9139 22.025 16.834 21.9671 16.7662C21.9092 16.6983 21.837 16.6443 21.7555 16.6079C21.6741 16.5715 21.5856 16.5537 21.4965 16.5558C21.4073 16.5579 21.3197 16.5798 21.2401 16.6201C20.5692 16.9266 19.9434 17.3237 19.3801 17.8001C19.3755 17.5657 19.3554 17.3318 19.3201 17.1001C19.2971 16.806 19.1971 16.5232 19.0301 16.2801C18.8597 16.0678 18.63 15.9112 18.3701 15.8301C17.9198 15.7372 17.4588 15.7069 17.0001 15.7401H14.3801C13.659 15.7232 12.9374 15.7532 12.2201 15.8301C11.7233 15.8871 11.236 16.0082 10.7701 16.1901C10.7233 16.2051 10.6808 16.2311 10.646 16.2659C10.6112 16.3007 10.5852 16.3432 10.5701 16.3901C10.5432 16.4287 10.526 16.4733 10.5201 16.5201C10.4553 16.9138 10.4152 17.3113 10.4001 17.7101C10.3501 18.6401 10.4001 19.7101 10.3401 20.4301C10.3401 20.8401 10.2801 21.8801 10.3401 22.5301C10.3441 22.7723 10.388 23.0122 10.4701 23.2401C10.6042 23.4918 10.8242 23.6869 11.0901 23.7901C11.3786 23.9136 11.6867 23.9847 12.0001 24.0001L16.4601 24.0501C16.9798 24.018 17.4954 23.9376 18.0001 23.8101C18.346 23.7237 18.6483 23.5139 18.8501 23.2201C18.9594 23.0461 19.0436 22.8576 19.1001 22.6601C19.1774 22.4021 19.2309 22.1377 19.2601 21.8701C19.2549 21.8035 19.2549 21.7366 19.2601 21.6701C19.8421 22.1735 20.4717 22.6189 21.1401 23.0001C21.2662 23.0883 21.4163 23.1356 21.5701 23.1356C21.724 23.1356 21.8741 23.0883 22.0001 23.0001C22.1656 22.7995 22.2728 22.5574 22.3101 22.3001C22.4328 21.6661 22.513 21.0247 22.5501 20.3801C22.5407 19.8109 22.494 19.243 22.4101 18.6801ZM18.3201 18.6001C18.3201 19.2301 18.3201 19.8601 18.2601 20.5001C18.2601 20.9101 18.2001 21.3301 18.1601 21.7501C18.1389 21.9116 18.1089 22.0718 18.0701 22.2301C18.0352 22.3637 17.9813 22.4917 17.9101 22.6101C17.8301 22.7501 17.6001 22.7501 17.3801 22.7801C16.9801 22.7801 16.5601 22.8401 16.3201 22.8701L12.0001 23.0001C11.8243 23.0248 11.6459 23.0248 11.4701 23.0001C11.3837 22.9888 11.3032 22.9502 11.2401 22.8901C11.1716 22.6189 11.1413 22.3396 11.1501 22.0601V20.5101C11.1501 19.8701 11.0801 19.0101 11.0701 18.1901V16.8801C11.4635 16.7561 11.8692 16.6756 12.2801 16.6401C12.9661 16.595 13.6542 16.595 14.3401 16.6401L16.9401 16.7501C17.2198 16.7313 17.5005 16.7313 17.7801 16.7501C17.9518 16.7588 18.1132 16.8341 18.2301 16.9601C18.3064 17.1816 18.3337 17.417 18.3101 17.6501C18.3291 17.9664 18.3324 18.2834 18.3201 18.6001ZM21.2601 22.0001C20.6034 21.6694 19.9834 21.2705 19.4101 20.8101C19.4101 20.8101 19.4101 20.8101 19.3601 20.8101V20.2501V18.6501H19.4201C19.9441 18.2276 20.5313 17.8901 21.1601 17.6501C21.1601 18.0401 21.2301 18.4201 21.2501 18.8101C21.2701 19.2001 21.3201 19.8101 21.3101 20.3801C21.3287 20.9206 21.312 21.4617 21.2601 22.0001Z" fill="black"/>
</g>
<defs>
<clipPath id="clip0_36_1149">
<rect width="24" height="24" fill="white"/>
</clipPath>
</defs>
</svg>
