<svg width="24" height="24" viewBox="0 0 24 24" fill="none" xmlns="http://www.w3.org/2000/svg">
<g clip-path="url(#clip0_36_509)">
<path fill-rule="evenodd" clip-rule="evenodd" d="M18.7702 1.63995C18.3304 1.28708 17.8002 1.06527 17.2402 0.999946C16.1656 0.866258 15.0826 0.812777 14.0002 0.839946L10.3102 0.759946C9.48531 0.704349 8.65682 0.741245 7.84017 0.869946C7.23707 0.953254 6.66362 1.18332 6.17017 1.53995C5.85315 1.798 5.62281 2.147 5.51017 2.53995C5.37179 3.01457 5.29779 3.50562 5.29017 3.99995L4.29017 17.3899C4.20796 18.3448 4.20796 19.305 4.29017 20.2599C4.30231 20.9829 4.54395 21.6833 4.98017 22.2599C5.35957 22.5623 5.81763 22.7497 6.30017 22.7999C7.21592 22.9161 8.13725 22.9829 9.06017 22.9999C9.87017 22.9999 10.8002 23.1099 11.9002 23.1599C12.7402 23.1599 13.6902 23.2399 14.7402 23.2699C15.6906 23.3617 16.6489 23.2175 17.5302 22.8499C17.853 22.6773 18.1301 22.4304 18.3387 22.1296C18.5474 21.8288 18.6815 21.4828 18.7302 21.1199C18.8702 20.3499 18.9702 19.5699 19.0502 18.7699C19.1602 17.5999 19.2202 16.4199 19.2802 15.2799C19.3802 13.4099 19.4402 11.7299 19.5402 9.99995C19.5402 9.25995 19.6302 8.51995 19.6902 7.74995C19.8591 6.34166 19.8591 4.91823 19.6902 3.50995C19.5901 2.80465 19.2679 2.14961 18.7702 1.63995ZM8.00017 1.84995C8.74581 1.74884 9.5002 1.72873 10.2502 1.78995L14.0002 1.99995C14.8883 1.99436 15.7761 2.03442 16.6602 2.11995C16.9163 2.14532 17.1702 2.18876 17.4202 2.24995C17.1702 2.76995 16.8802 3.41995 16.5802 3.91995C16.4866 4.13169 16.3424 4.31715 16.1602 4.45995C16.011 4.5326 15.846 4.56696 15.6802 4.55995C15.3432 4.53846 15.0086 4.48828 14.6802 4.40995C14.3602 4.40995 14.0502 4.32995 13.7302 4.30995C13.3972 4.28953 13.0632 4.28953 12.7302 4.30995C12.1702 4.36995 11.2702 4.41995 10.4402 4.47995C9.86017 4.47995 9.31017 4.56995 8.95017 4.56995H8.75017C8.62017 4.39995 8.47017 4.16995 8.33017 3.93995C8.1596 3.64119 8.01892 3.32633 7.91017 2.99995C7.91017 2.76995 7.70017 2.44995 7.62017 2.16995C7.61132 2.08685 7.61132 2.00304 7.62017 1.91995L8.00017 1.84995ZM18.5402 7.68995C18.4502 8.68995 18.3902 9.68995 18.3502 10.6899C18.2802 12.1699 18.2402 13.6299 18.1802 15.2199C18.1302 16.3499 18.0902 17.5199 18.0002 18.6799C17.9402 19.4499 17.8602 20.2099 17.7302 20.9399C17.7109 21.1572 17.6401 21.3667 17.5236 21.5511C17.407 21.7355 17.2482 21.8894 17.0602 21.9999C16.3342 22.3045 15.5432 22.4215 14.7602 22.3399L11.9402 22.2899C10.8402 22.2899 9.94017 22.2199 9.11017 22.1799C8.57017 22.1799 7.59017 22.1799 6.73017 22.0599C6.27902 22.0664 5.83525 21.9451 5.45017 21.7099C5.12629 21.2724 4.9479 20.7443 4.94017 20.1999C4.85516 19.2886 4.85516 18.3713 4.94017 17.4599L6.18017 4.09995C6.1903 3.66962 6.25756 3.24255 6.38017 2.82995C6.45038 2.61598 6.57844 2.42562 6.75017 2.27995C6.83135 2.23856 6.91482 2.20184 7.00017 2.16995V2.32995C7.06017 2.61995 7.18017 2.93995 7.21017 3.15995C7.29393 3.53364 7.42148 3.89614 7.59017 4.23995C7.73965 4.59081 7.9239 4.92582 8.14017 5.23995C8.22604 5.33311 8.33727 5.39916 8.46017 5.42995C8.75161 5.49969 9.05053 5.53327 9.35017 5.52995C10.3502 5.52995 11.9702 5.46995 12.8202 5.40995H13.4902C13.7102 5.40995 14.1902 5.40995 14.4902 5.45995C14.8745 5.51254 15.2623 5.53594 15.6502 5.52995C15.9639 5.51113 16.2688 5.41863 16.5402 5.25995C16.8711 5.00033 17.1237 4.65423 17.2702 4.25995C17.5302 3.72995 17.7702 3.04995 17.9902 2.50995C18.3623 3.02057 18.5588 3.63814 18.5502 4.26995C18.6421 5.40824 18.6387 6.55221 18.5402 7.68995Z" fill="black"/>
<path fill-rule="evenodd" clip-rule="evenodd" d="M3.00003 0.499913L2.17003 1.10991C1.79659 1.33837 1.45951 1.62151 1.17003 1.94991C1.05151 2.15283 0.992591 2.38504 1.00003 2.61991C0.986768 2.83888 1.02442 3.05794 1.11003 3.25991C1.20482 3.51469 1.31846 3.76204 1.45003 3.99991C1.59654 4.18308 1.66482 4.41667 1.64003 4.64991C1.54943 4.83305 1.41128 4.98847 1.24003 5.09991C0.932025 5.33117 0.667866 5.61565 0.460028 5.93991C0.331283 6.17519 0.27231 6.4423 0.290028 6.70991C0.311843 6.9398 0.376274 7.16361 0.480028 7.36991C0.651249 7.67089 0.845143 7.95839 1.06003 8.22991C1.20489 8.36874 1.29982 8.55155 1.33003 8.74991C1.30033 8.99878 1.18341 9.22907 1.00003 9.39991C0.728534 9.67861 0.480993 9.97967 0.260028 10.2999C0.101916 10.5191 0.00551742 10.7767 -0.019108 11.0458C-0.0437333 11.3149 0.00431652 11.5857 0.120028 11.8299C0.37695 12.29 0.671276 12.7281 1.00003 13.1399C1.02367 13.178 1.05457 13.2111 1.09099 13.2372C1.1274 13.2633 1.1686 13.282 1.21225 13.2923C1.25589 13.3025 1.30112 13.304 1.34535 13.2967C1.38958 13.2895 1.43194 13.2736 1.47003 13.2499C1.50811 13.2263 1.54117 13.1954 1.5673 13.159C1.59344 13.1225 1.61215 13.0813 1.62237 13.0377C1.63258 12.9941 1.6341 12.9488 1.62684 12.9046C1.61957 12.8604 1.60367 12.818 1.58003 12.7799C1.41003 12.4799 1.12003 12.0899 0.930028 11.6999C0.841245 11.5239 0.806454 11.3256 0.830028 11.1299C0.931499 10.8619 1.10442 10.6267 1.33003 10.4499C1.64505 10.1793 1.92102 9.86634 2.15003 9.51991C2.28894 9.28976 2.36801 9.02848 2.38003 8.75991C2.38733 8.5232 2.34297 8.28774 2.25003 8.06991C2.09108 7.75668 1.90363 7.45876 1.69003 7.17991C1.55394 7.02044 1.46403 6.82679 1.43003 6.61991C1.43003 6.39991 1.61003 6.27991 1.77003 6.12991C1.9814 5.94853 2.17864 5.75129 2.36003 5.53991C2.51251 5.35409 2.61875 5.13476 2.67003 4.89991C2.73056 4.66034 2.73056 4.40948 2.67003 4.16991C2.53583 3.83757 2.35756 3.52477 2.14003 3.23991C1.99248 3.06876 1.89248 2.86186 1.85003 2.63991C1.85761 2.50931 1.91068 2.38548 2.00003 2.28991C2.19881 2.05607 2.41619 1.83869 2.65003 1.63991L3.35003 0.999913C3.40136 0.948353 3.43293 0.880379 3.43919 0.807892C3.44546 0.735405 3.42603 0.663024 3.38431 0.603418C3.34258 0.543813 3.28122 0.500783 3.21097 0.48186C3.14072 0.462937 3.06604 0.469328 3.00003 0.499913Z" fill="black"/>
<path fill-rule="evenodd" clip-rule="evenodd" d="M22.9401 14.62C22.7314 14.4289 22.588 14.177 22.5301 13.9C22.5301 13.82 22.5301 13.76 22.6301 13.69C22.9801 13.28 23.6301 12.93 23.8101 12.55C23.9144 12.3698 23.9774 12.1687 23.9947 11.9612C24.012 11.7537 23.9831 11.545 23.9101 11.35C23.5757 10.696 23.1403 10.0986 22.6201 9.57998C22.5982 9.54656 22.5695 9.51805 22.536 9.49622C22.5025 9.4744 22.4649 9.45974 22.4254 9.45316C22.386 9.44659 22.3456 9.44824 22.3068 9.45802C22.2681 9.4678 22.2317 9.48549 22.2001 9.50998C22.137 9.55781 22.0946 9.62797 22.0816 9.70606C22.0686 9.78416 22.086 9.86428 22.1301 9.92998C22.5051 10.3726 22.8398 10.8478 23.1301 11.35C23.197 11.4637 23.2322 11.5931 23.2322 11.725C23.2322 11.8568 23.197 11.9863 23.1301 12.1C22.9101 12.43 22.3001 12.66 21.9501 13C21.8095 13.1244 21.6987 13.2789 21.626 13.4521C21.5533 13.6252 21.5205 13.8125 21.5301 14C21.5742 14.4974 21.7776 14.9674 22.1101 15.34C22.3466 15.5955 22.5576 15.8735 22.7401 16.17C22.8309 16.3349 22.8525 16.5291 22.8001 16.71C22.8001 16.88 22.6001 16.97 22.4501 17.07C22.1663 17.2506 21.8956 17.4511 21.6401 17.67C21.4368 17.8527 21.3026 18.0999 21.2601 18.37C21.2134 18.6893 21.2585 19.0153 21.3901 19.31C21.6141 19.7408 21.8786 20.1493 22.1801 20.53C22.4348 20.8102 22.6048 21.157 22.6701 21.53C22.6677 21.7392 22.5854 21.9395 22.4401 22.09C22.1299 22.4117 21.7956 22.7092 21.4401 22.98C21.4074 23.0108 21.3814 23.048 21.3636 23.0893C21.3458 23.1306 21.3366 23.175 21.3366 23.22C21.3366 23.2649 21.3458 23.3094 21.3636 23.3507C21.3814 23.3919 21.4074 23.4291 21.4401 23.46C21.5039 23.5235 21.5902 23.5592 21.6801 23.5592C21.7701 23.5592 21.8564 23.5235 21.9201 23.46C22.4021 23.1471 22.8423 22.7741 23.2301 22.35C23.4319 22.0967 23.5444 21.7838 23.5501 21.46C23.5444 21.1732 23.4798 20.8907 23.3601 20.63C23.146 20.2139 22.9089 19.8099 22.6501 19.42C22.4437 19.1711 22.34 18.8528 22.3601 18.53C22.3601 18.53 22.4101 18.48 22.4401 18.45C22.4701 18.42 22.6301 18.32 22.7301 18.25C23.0366 18.077 23.3218 17.869 23.5801 17.63C23.7585 17.4559 23.8893 17.239 23.9601 17C24.0903 16.5368 24.0328 16.0411 23.8001 15.62C23.5511 15.2561 23.2627 14.9207 22.9401 14.62Z" fill="black"/>
</g>
<defs>
<clipPath id="clip0_36_509">
<rect width="24" height="24" fill="white"/>
</clipPath>
</defs>
</svg>
