<svg width="24" height="24" viewBox="0 0 24 24" fill="none" xmlns="http://www.w3.org/2000/svg">
<g clip-path="url(#clip0_36_303)">
<path fill-rule="evenodd" clip-rule="evenodd" d="M19.4304 6.4901C19.385 6.15285 19.3182 5.81884 19.2304 5.4901C19.1378 5.14753 19.0174 4.81308 18.8704 4.4901C18.3253 3.32999 17.5295 2.30534 16.5404 1.4901C15.5582 0.658368 14.3498 0.139456 13.0704 9.99374e-05C12.1577 -0.045324 11.2447 0.0836444 10.3804 0.3801C9.54 0.666117 8.74007 1.05936 8.00035 1.5501C6.48432 2.4669 5.33243 3.88027 4.74035 5.5501C3.32035 10.7301 8.43035 12.8001 9.05035 9.4901C9.05214 8.51394 8.99202 7.53865 8.87035 6.5701C8.91223 6.19095 9.04501 5.82751 9.2574 5.51065C9.4698 5.1938 9.75554 4.93289 10.0904 4.7501C10.7538 4.30775 11.5447 4.09683 12.3404 4.1501C12.6025 4.18859 12.8604 4.25221 13.1104 4.3401C13.3479 4.43574 13.5729 4.55999 13.7804 4.7101C13.9902 4.87413 14.1604 5.08342 14.2781 5.32236C14.3959 5.5613 14.4582 5.82373 14.4604 6.0901C14.4545 6.67094 14.2958 7.23999 14.0004 7.7401C13.2804 9.0501 11.8204 9.7401 10.8604 10.7401C10.3634 11.2845 10.0185 11.9502 9.86035 12.6701C9.75035 13.2801 9.63035 13.9301 9.57035 14.5701C9.52089 15.0083 9.50084 15.4493 9.51035 15.8901C9.49298 16.2724 9.56847 16.6533 9.73035 17.0001C9.85534 17.22 10.059 17.3844 10.3004 17.4601C10.4711 17.5083 10.6448 17.545 10.8204 17.5701L11.4804 17.6201C11.8886 17.6741 12.3021 17.6741 12.7104 17.6201C13.0674 17.5635 13.3988 17.3996 13.6604 17.1501C13.8008 17.0001 13.8946 16.8125 13.9304 16.6101C13.9596 16.1906 13.9596 15.7696 13.9304 15.3501C13.9619 14.7842 14.0422 14.2222 14.1704 13.6701C14.2628 13.3407 14.4044 13.0272 14.5904 12.7401C14.6906 12.5966 14.8245 12.4798 14.9804 12.4001C15.3043 12.23 15.6382 12.0798 15.9804 11.9501C16.9559 11.6186 17.8517 11.0873 18.6104 10.3901C19.1218 9.82226 19.4189 9.09365 19.4504 8.3301V7.4301C19.4657 7.11669 19.4591 6.80258 19.4304 6.4901ZM18.3604 8.2001C18.3466 8.71377 18.1518 9.20607 17.8104 9.5901C17.1596 10.1638 16.3968 10.5963 15.5704 10.8601C15.1782 11.0056 14.7943 11.1725 14.4204 11.3601C14.1144 11.5327 13.8512 11.7719 13.6504 12.0601C13.3911 12.4476 13.2016 12.8774 13.0904 13.3301C12.9448 13.9513 12.8511 14.5834 12.8104 15.2201V16.3501C12.6778 16.4316 12.5259 16.4764 12.3704 16.4801C12.1112 16.5098 11.8495 16.5098 11.5904 16.4801C10.9804 16.4101 10.5904 16.4801 10.5904 15.8801C10.5708 15.3893 10.5908 14.8977 10.6504 14.4101C10.7104 13.9001 10.8004 13.4101 10.8804 12.9101C10.9904 12.3714 11.2464 11.8732 11.6204 11.4701C12.6204 10.3601 14.1004 9.5801 14.8304 8.2001C15.2941 7.40688 15.4707 6.47817 15.3304 5.5701C15.2059 4.93437 14.8495 4.36763 14.3304 3.9801C14.0587 3.77181 13.7547 3.60965 13.4304 3.5001C13.1077 3.38275 12.7719 3.30551 12.4304 3.2701C11.4401 3.21844 10.4602 3.4924 9.64035 4.0501C9.2024 4.31078 8.83376 4.6732 8.56567 5.10666C8.29759 5.54012 8.13797 6.03183 8.10035 6.5401C8.24062 7.47064 8.32078 8.40925 8.34035 9.3501C8.19035 10.1701 6.57035 11.0901 5.51035 8.7501C5.2445 8.16429 5.12387 7.52299 5.15869 6.88062C5.1935 6.23825 5.38274 5.61375 5.71035 5.0601C6.3628 3.89904 7.29852 2.92203 8.43035 2.2201C9.12015 1.79161 9.86315 1.45541 10.6404 1.2201C11.4018 0.976168 12.2025 0.877788 13.0004 0.9301C14.0856 1.08877 15.0969 1.57352 15.9004 2.3201C16.7543 3.05703 17.4369 3.9717 17.9004 5.0001C18.0104 5.2701 18.1004 5.5401 18.1904 5.8201C18.2566 6.09696 18.3067 6.37743 18.3404 6.6601C18.3404 6.9201 18.3904 7.1901 18.3904 7.4601C18.3983 7.70717 18.3883 7.95449 18.3604 8.2001Z" fill="black"/>
<path fill-rule="evenodd" clip-rule="evenodd" d="M9.0006 20.3201C8.81859 20.4988 8.67401 20.712 8.57531 20.9473C8.47661 21.1825 8.42578 21.435 8.42578 21.6901C8.42578 21.9452 8.47661 22.1977 8.57531 22.433C8.67401 22.6682 8.81859 22.8814 9.0006 23.0601C9.11986 23.1846 9.24678 23.3015 9.3806 23.4101C9.51565 23.5206 9.66335 23.6146 9.8206 23.6901C10.32 23.9341 10.8774 24.0345 11.4306 23.9801C11.995 23.9255 12.5257 23.6866 12.9406 23.3001C13.2467 23.0104 13.4722 22.646 13.595 22.2428C13.7177 21.8395 13.7334 21.4113 13.6406 21.0001C13.1706 18.8601 10.4306 18.7201 9.0006 20.3201ZM12.2206 22.5301C11.9541 22.7372 11.628 22.8529 11.2906 22.8601C10.945 22.8907 10.5979 22.8213 10.2906 22.6601L9.7906 22.2801C9.2106 21.7201 9.5206 21.0501 10.0406 20.5901C11.6006 19.2501 12.6706 20.3701 12.7906 21.1901C12.8163 21.4434 12.7775 21.6991 12.6778 21.9334C12.5782 22.1677 12.4209 22.3729 12.2206 22.5301Z" fill="black"/>
</g>
<defs>
<clipPath id="clip0_36_303">
<rect width="24" height="24" fill="white"/>
</clipPath>
</defs>
</svg>
