<svg width="24" height="24" viewBox="0 0 24 24" fill="none" xmlns="http://www.w3.org/2000/svg">
<g clip-path="url(#clip0_36_287)">
<path fill-rule="evenodd" clip-rule="evenodd" d="M9.35016 10.7601C9.56623 10.8529 9.79583 10.9103 10.0302 10.9301C10.2525 10.96 10.4778 10.96 10.7002 10.9301C11.1562 10.8738 11.5974 10.7313 12.0002 10.5101C12.2968 10.3408 12.5528 10.1087 12.7502 9.83006C12.9497 9.54172 13.0866 9.21479 13.152 8.87031C13.2175 8.52584 13.21 8.17148 13.1302 7.83006C13.0702 7.57006 12.2202 4.20006 9.13016 5.83006C8.86377 5.96851 8.61806 6.14354 8.40016 6.35006C8.23589 6.51635 8.10068 6.70903 8.00016 6.92006C7.66581 7.59171 7.61186 8.36864 7.85016 9.08006C7.96331 9.45215 8.15609 9.79517 8.41511 10.0853C8.67414 10.3754 8.99321 10.6056 9.35016 10.7601ZM8.90016 7.34006C8.95918 7.19067 9.04759 7.05465 9.16016 6.94006C9.29275 6.8009 9.44031 6.67681 9.60016 6.57006C11.7302 5.12006 12.2702 7.78006 12.3002 8.00006C12.3359 8.21471 12.3277 8.43438 12.2761 8.64578C12.2246 8.85719 12.1307 9.05595 12.0002 9.23006C11.841 9.41172 11.6378 9.54946 11.4102 9.63006C11.153 9.72476 10.8836 9.78201 10.6102 9.80006C10.4705 9.8148 10.3298 9.8148 10.1902 9.80006C10.0632 9.78206 9.93891 9.74847 9.82016 9.70006C9.61691 9.60139 9.43639 9.46154 9.29006 9.28939C9.14374 9.11724 9.0348 8.91655 8.97016 8.70006C8.77864 8.27117 8.75368 7.78634 8.90016 7.34006Z" fill="black"/>
<path fill-rule="evenodd" clip-rule="evenodd" d="M12.4999 17C12.1243 16.7321 11.7139 16.5167 11.2799 16.36C10.9999 16.26 10.6399 16.23 10.2799 16.14C10.1773 16.1148 10.0817 16.0669 9.99993 16C9.98777 15.9843 9.98117 15.9649 9.98117 15.945C9.98117 15.9251 9.98777 15.9058 9.99993 15.89C10.061 15.7903 10.1313 15.6965 10.2099 15.61C11.2558 15.8242 12.3286 15.8748 13.3899 15.76C14.1302 15.6579 14.8454 15.4206 15.4999 15.06C16.304 14.5634 16.9062 13.7982 17.1999 12.9C17.2627 12.7117 17.2864 12.5126 17.2696 12.3149C17.2528 12.1171 17.1959 11.9248 17.1023 11.7498C17.0087 11.5748 16.8804 11.4207 16.7253 11.297C16.5701 11.1732 16.3914 11.0824 16.1999 11.03C15.9009 10.9009 15.5705 10.8627 15.2499 10.92C14.8544 11.0024 14.4758 11.1512 14.1299 11.36C13.7255 11.5906 13.3082 11.7976 12.8799 11.98C12.6233 12.0817 12.3543 12.1489 12.0799 12.18C11.6338 12.2104 11.1861 12.2104 10.7399 12.18C10.3055 12.1648 9.8735 12.1078 9.44993 12.01C8.51993 11.77 7.54993 11.29 6.56993 11.01C6.10102 10.8814 5.61607 10.8208 5.12993 10.83C4.8479 10.8503 4.56929 10.904 4.29993 10.99C3.95878 11.1029 3.62482 11.2365 3.29993 11.39C2.45662 11.7469 1.72203 12.3194 1.16993 13.05C0.949115 13.3321 0.820164 13.6751 0.800493 14.0327C0.780822 14.3904 0.871377 14.7455 1.05993 15.05C1.14873 15.1995 1.26895 15.3279 1.41226 15.4263C1.55557 15.5247 1.71855 15.5908 1.88993 15.62C2.32271 15.6529 2.75443 15.5441 3.11993 15.31C3.75261 14.8692 4.45132 14.5316 5.18993 14.31C5.36299 14.2675 5.5436 14.2662 5.71727 14.3061C5.89094 14.3461 6.05282 14.4262 6.18993 14.54C5.9566 14.9533 5.7266 15.3333 5.49993 15.68C4.83993 16.68 4.16993 17.52 3.36993 18.68C2.99495 19.2211 2.6607 19.7894 2.36993 20.38C2.15437 20.891 2.07845 21.4501 2.14993 22C2.15453 22.274 2.24902 22.5388 2.41886 22.7538C2.5887 22.9689 2.82448 23.1221 3.08993 23.19C3.39808 23.2406 3.71319 23.2295 4.01702 23.1574C4.32086 23.0853 4.60736 22.9536 4.85993 22.77C5.57305 22.2116 6.18524 21.5352 6.66993 20.77C7.12488 20.1041 7.49758 19.3855 7.77993 18.63C7.97144 18.6312 8.16237 18.6513 8.34993 18.69C8.59311 18.7378 8.82862 18.8185 9.04993 18.93C9.30988 19.0973 9.53696 19.3108 9.71993 19.56C9.7891 19.6535 9.83589 19.7616 9.85669 19.8761C9.87749 19.9905 9.87176 20.1082 9.83993 20.22C9.71095 20.5383 9.55714 20.8459 9.37993 21.14C9.21761 21.4477 9.13833 21.7924 9.14993 22.14C9.17721 22.366 9.26768 22.5797 9.41097 22.7566C9.55425 22.9335 9.74452 23.0664 9.95993 23.14L10.5899 23.31C11.0755 23.3717 11.5683 23.2808 11.9999 23.05C12.3929 22.8411 12.7345 22.5473 12.9999 22.19C13.4794 21.5585 13.7487 20.7926 13.7699 20C13.7806 19.2217 13.5727 18.456 13.1699 17.79C12.9969 17.4878 12.7698 17.22 12.4999 17ZM12.1199 21.49C11.9419 21.712 11.7208 21.8957 11.4699 22.03C11.2408 22.1547 10.9793 22.207 10.7199 22.18L10.3899 22.11C10.2499 22.05 10.1799 21.98 10.1999 21.87C10.2699 21.39 10.6399 20.87 10.7199 20.41C10.7644 20.2184 10.7705 20.02 10.7379 19.826C10.7053 19.6321 10.6346 19.4465 10.5299 19.28C10.2586 18.8622 9.88739 18.5185 9.44993 18.28C9.13672 18.1258 8.79768 18.0309 8.44993 18C8.18775 17.9652 7.92211 17.9652 7.65993 18C7.57368 17.9709 7.4795 17.9766 7.39735 18.0158C7.31521 18.055 7.25157 18.1247 7.21993 18.21C6.89832 18.9294 6.48124 19.6021 5.97993 20.21C5.51912 20.8386 4.95028 21.3804 4.29993 21.81C4.05943 21.9587 3.78265 22.0382 3.49993 22.04C3.44335 22.0349 3.39093 22.0081 3.35365 21.9653C3.31637 21.9224 3.29712 21.8668 3.29993 21.81C3.29703 21.4868 3.37252 21.1677 3.51993 20.88C3.7578 20.332 4.03868 19.8037 4.35993 19.3C4.93993 18.23 5.44993 17.42 5.93993 16.56C6.26993 15.97 6.58993 15.36 6.93993 14.64C6.96414 14.5911 6.97235 14.5358 6.96337 14.4819C6.9544 14.4281 6.9287 14.3784 6.88993 14.34C6.68693 14.0791 6.41264 13.8826 6.10028 13.7743C5.78791 13.6661 5.45086 13.6507 5.12993 13.73C4.30638 13.9413 3.52043 14.2786 2.79993 14.73C2.61177 14.8428 2.39896 14.908 2.17993 14.92C2.11 14.9173 2.04218 14.8953 1.98395 14.8565C1.92572 14.8177 1.87934 14.7635 1.84993 14.7C1.77059 14.5384 1.74152 14.3568 1.76648 14.1785C1.79143 14.0003 1.86927 13.8336 1.98993 13.7C2.45323 13.1391 3.05713 12.7112 3.73993 12.46C4.04971 12.3339 4.36698 12.227 4.68993 12.14C4.85384 12.0735 5.02502 12.0265 5.19993 12C5.58231 11.9991 5.96285 12.0529 6.32993 12.16C7.32993 12.42 8.27993 12.9 9.20993 13.16C9.7107 13.2858 10.2238 13.3563 10.7399 13.37C11.2407 13.3856 11.742 13.3655 12.2399 13.31C12.6154 13.2608 12.9822 13.1599 13.3299 13.01C13.8014 12.806 14.2561 12.5653 14.6899 12.29C14.8976 12.1595 15.1189 12.0522 15.3499 11.97C15.5146 11.9096 15.6953 11.9096 15.8599 11.97C16.3599 12.16 16.3499 12.58 16.1699 12.97C15.9128 13.5067 15.5066 13.958 14.9999 14.27C14.3026 14.6871 13.5195 14.9401 12.7099 15.01C11.8715 15.0695 11.0289 15.0292 10.1999 14.89C10.1504 14.88 10.0994 14.88 10.0499 14.89C9.98868 14.8738 9.92405 14.8755 9.86375 14.895C9.80346 14.9145 9.75006 14.951 9.70993 15C9.47967 15.227 9.29918 15.4995 9.17993 15.8C9.15618 15.9087 9.15828 16.0214 9.18607 16.1291C9.21386 16.2368 9.26657 16.3364 9.33993 16.42C9.48054 16.593 9.66296 16.7272 9.86993 16.81C10.1999 16.96 10.6199 17 10.9199 17.13C11.208 17.2554 11.4827 17.4095 11.7399 17.59C11.962 17.76 12.146 17.9746 12.2799 18.22C12.5405 18.7434 12.6579 19.3265 12.6199 19.91C12.6176 20.4722 12.4431 21.0201 12.1199 21.48V21.49Z" fill="black"/>
<path fill-rule="evenodd" clip-rule="evenodd" d="M23.1598 7.58999C23.0998 6.25999 22.9798 4.93999 22.8698 3.58999C22.8423 2.96376 22.7587 2.34126 22.6198 1.72999C22.4916 1.26403 22.2434 0.839886 21.8998 0.499992C21.5086 0.183753 21.0228 0.0077146 20.5198 -7.64069e-06C19.628 -0.0119949 18.7363 0.031422 17.8498 0.129992C16.7498 0.129992 14.9998 0.129992 13.3798 0.199992C12.376 0.228166 11.3745 0.311626 10.3798 0.449992C9.90564 0.512575 9.4417 0.636965 8.99982 0.819992C8.75282 0.928262 8.55127 1.11921 8.42982 1.35999C8.34869 1.58384 8.32129 1.82361 8.34982 2.05999C8.34982 2.51999 8.52982 3.05999 8.56982 3.35999C8.5822 3.43873 8.62443 3.50967 8.68774 3.55809C8.75106 3.6065 8.83059 3.62867 8.90982 3.61999C8.94936 3.61508 8.98752 3.60233 9.02208 3.58251C9.05665 3.56268 9.08691 3.53617 9.11112 3.50452C9.13532 3.47287 9.15298 3.43671 9.16306 3.39816C9.17313 3.35961 9.17543 3.31944 9.16982 3.27999C9.11982 2.99999 8.99982 2.58999 8.99982 2.18999C8.95195 2.00639 8.95195 1.81359 8.99982 1.62999C9.09607 1.49648 9.23873 1.40375 9.39982 1.36999C9.74598 1.27169 10.1011 1.20805 10.4598 1.17999C11.4315 1.05556 12.4103 0.995429 13.3898 0.999992C15.0098 0.999992 16.7498 1.04999 17.8498 1.06999C18.2998 1.06999 19.2498 0.959992 20.0898 0.989992C20.4611 0.95331 20.834 1.04127 21.1498 1.23999C21.3523 1.45829 21.4907 1.72817 21.5498 2.01999C21.6645 2.56624 21.7281 3.12196 21.7398 3.67999C21.8398 4.97999 21.9498 6.28999 22.0098 7.59999C22.0098 8.46999 22.0698 9.32999 22.0098 10.2L21.9998 13.14L21.8998 15.3V18.37C21.8998 19.39 21.8998 20.42 21.9898 21.44C21.9898 21.73 21.7698 22.74 22.1098 22.9C21.8019 23.0662 21.4596 23.1586 21.1098 23.17C20.4598 23.23 19.7698 23.17 19.1798 23.17H15.5698C15.4796 23.17 15.3932 23.2058 15.3294 23.2696C15.2656 23.3333 15.2298 23.4198 15.2298 23.51C15.2324 23.6011 15.2704 23.6875 15.3358 23.751C15.4012 23.8145 15.4887 23.85 15.5798 23.85L19.1998 24C19.9692 24.0451 20.7405 24.0451 21.5098 24C21.8873 23.9482 22.2509 23.8224 22.5798 23.63C22.6841 23.5596 22.7709 23.4662 22.8333 23.357C22.8957 23.2477 22.9322 23.1256 22.9398 23C22.9567 22.478 22.9232 21.9556 22.8398 21.44V18.44C22.8398 17.44 22.8898 16.44 22.9398 15.44L23.0898 13.3L23.1898 10.37C23.2198 9.37999 23.1998 8.48999 23.1598 7.58999Z" fill="black"/>
</g>
<defs>
<clipPath id="clip0_36_287">
<rect width="24" height="24" fill="white"/>
</clipPath>
</defs>
</svg>
