<svg width="24" height="24" viewBox="0 0 24 24" fill="none" xmlns="http://www.w3.org/2000/svg">
<g clip-path="url(#clip0_36_286)">
<path fill-rule="evenodd" clip-rule="evenodd" d="M0.510228 15.1901C0.555019 15.5042 0.69456 15.7973 0.910228 16.0301C1.34672 16.3547 1.87623 16.5301 2.42023 16.5301C3.47094 16.517 4.5171 16.3896 5.54023 16.1501C5.6304 16.1368 5.71161 16.0883 5.766 16.0151C5.82038 15.942 5.84349 15.8502 5.83023 15.7601C5.81697 15.6699 5.76843 15.5887 5.69529 15.5343C5.62215 15.4799 5.5304 15.4568 5.44023 15.4701C4.59955 15.5972 3.75047 15.6608 2.90023 15.6601C2.44499 15.6896 1.99335 15.5625 1.62023 15.3001C1.62023 15.3001 1.62023 15.1801 1.57023 15.1001C1.53251 14.8888 1.51245 14.6747 1.51023 14.4601C1.51023 13.7301 1.51023 12.9001 1.46023 12.6101L1.39023 12.1101C1.59995 12.1254 1.81051 12.1254 2.02023 12.1101C2.24304 12.0929 2.4639 12.0561 2.68023 12.0001C3.00836 11.8998 3.34232 11.8196 3.68023 11.7601C3.76127 11.7536 3.83753 11.7191 3.89592 11.6626C3.95432 11.606 3.99119 11.5309 4.00023 11.4501C4.00293 11.4054 3.99679 11.3606 3.98216 11.3183C3.96753 11.2761 3.9447 11.2371 3.91497 11.2036C3.88524 11.1702 3.8492 11.1429 3.80892 11.1234C3.76864 11.104 3.7249 11.0926 3.68023 11.0901C3.3239 10.9967 2.95835 10.9431 2.59023 10.9301C2.44039 10.9201 2.29006 10.9201 2.14023 10.9301C1.99047 10.9479 1.843 10.9815 1.70023 11.0301C1.54023 11.0301 1.40023 11.1401 1.25023 11.2001L1.18023 10.7301L1.07023 9.42007C1.03927 9.18389 1.06996 8.94372 1.15933 8.72292C1.2487 8.50212 1.3937 8.30821 1.58023 8.16007C2.3719 7.79488 3.23916 7.62348 4.11023 7.66007C4.18893 7.65498 4.26273 7.62008 4.31661 7.56249C4.37049 7.5049 4.40039 7.42893 4.40023 7.35007C4.40025 7.30981 4.39217 7.26997 4.37647 7.2329C4.36078 7.19584 4.33778 7.16231 4.30885 7.13432C4.27993 7.10633 4.24567 7.08444 4.20811 7.06997C4.17055 7.05549 4.13046 7.04872 4.09023 7.05007C3.0742 6.92926 2.04405 7.05974 1.09023 7.43007C0.743711 7.63342 0.458571 7.92662 0.264946 8.27866C0.0713212 8.63071 -0.0235957 9.02852 -0.00977193 9.43007C-0.0247375 9.67984 -0.0247375 9.93029 -0.00977193 10.1801C-0.00977193 10.4301 -0.00977194 10.6801 0.0402281 10.9201L0.310228 12.8301C0.380228 13.1501 0.350228 14.4201 0.510228 15.1901Z" fill="black"/>
<path fill-rule="evenodd" clip-rule="evenodd" d="M11.6302 7.75013C11.5949 7.73118 11.5561 7.71951 11.5162 7.7158C11.4763 7.71209 11.436 7.71642 11.3978 7.72854C11.3596 7.74066 11.3241 7.76032 11.2937 7.78636C11.2632 7.81239 11.2382 7.84428 11.2202 7.88013C10.7802 8.56013 10.3102 9.24013 9.87023 9.96013L9.75023 9.81013C9.0249 9.04229 8.24268 8.33027 7.41023 7.68013C7.38227 7.6514 7.34884 7.62857 7.31192 7.61298C7.27499 7.59739 7.23531 7.58936 7.19523 7.58936C7.15514 7.58936 7.11547 7.59739 7.07854 7.61298C7.04161 7.62857 7.00818 7.6514 6.98023 7.68013C6.92462 7.73789 6.89355 7.81495 6.89355 7.89513C6.89355 7.97531 6.92462 8.05237 6.98023 8.11013C7.36023 8.53013 7.73023 8.98013 8.10023 9.45013C8.47023 9.92013 8.65023 10.2001 8.93023 10.5801L9.26023 11.0001L9.04023 11.4101C8.86023 11.7901 8.70023 12.1801 8.55023 12.5701C8.21144 13.5007 7.96362 14.4618 7.81023 15.4401C7.79531 15.4851 7.78997 15.5328 7.79455 15.58C7.79913 15.6272 7.81354 15.6729 7.83683 15.7142C7.86013 15.7555 7.89181 15.7914 7.92983 15.8197C7.96785 15.8481 8.01137 15.8681 8.05761 15.8786C8.10385 15.8892 8.15177 15.8899 8.1983 15.8808C8.24483 15.8717 8.28894 15.8529 8.3278 15.8257C8.36665 15.7986 8.3994 15.7636 8.42393 15.723C8.44846 15.6824 8.46423 15.6372 8.47023 15.5901C8.63155 15.081 8.81846 14.5804 9.03023 14.0901C9.25023 13.6001 9.50023 13.0901 9.73023 12.6401C9.84023 12.4301 9.93023 12.2201 10.0402 12.0101C10.8402 13.0101 11.6402 14.0101 12.3102 15.0101C12.3553 15.0884 12.4296 15.1455 12.5168 15.1689C12.604 15.1924 12.697 15.1802 12.7752 15.1351C12.8535 15.09 12.9106 15.0157 12.934 14.9285C12.9575 14.8413 12.9453 14.7484 12.9002 14.6701C12.4442 13.7542 11.9402 12.8629 11.3902 12.0001C11.1402 11.6201 10.8902 11.2501 10.6102 10.8901C11.0102 9.99013 11.3802 9.08013 11.7602 8.21013C11.7862 8.17256 11.8036 8.12972 11.811 8.08467C11.8185 8.03962 11.816 7.99346 11.8036 7.94951C11.7911 7.90556 11.7692 7.8649 11.7392 7.83043C11.7092 7.79596 11.672 7.76854 11.6302 7.75013Z" fill="black"/>
<path fill-rule="evenodd" clip-rule="evenodd" d="M15.9003 11.1899C15.8203 10.1899 15.6503 9.09991 15.5003 7.95991C15.4977 7.92048 15.4874 7.88195 15.4699 7.84651C15.4525 7.81108 15.4282 7.77944 15.3984 7.75343C15.3687 7.72741 15.3341 7.70752 15.2967 7.69491C15.2592 7.68229 15.2197 7.67719 15.1803 7.67991C15.1404 7.67981 15.101 7.68792 15.0645 7.70373C15.0279 7.71954 14.995 7.74271 14.9678 7.77179C14.9406 7.80088 14.9197 7.83525 14.9063 7.87278C14.893 7.91031 14.8875 7.95018 14.8903 7.98991C14.8903 8.98991 14.7803 9.90991 14.7603 10.8199V12.0399C14.7603 12.4499 14.8103 12.8499 14.8503 13.2499C14.9403 14.1699 15.0903 15.0899 15.2603 16.0799C15.264 16.1246 15.2766 16.1681 15.2973 16.208C15.318 16.2478 15.3463 16.2831 15.3807 16.312C15.4151 16.3408 15.4549 16.3625 15.4977 16.3759C15.5405 16.3893 15.5856 16.394 15.6303 16.3899C15.6814 16.3932 15.7327 16.3852 15.7805 16.3664C15.8282 16.3477 15.8712 16.3187 15.9065 16.2815C15.9418 16.2443 15.9685 16.1998 15.9847 16.1511C16.0009 16.1025 16.0062 16.0508 16.0003 15.9999V13.1099C16.0003 12.4699 15.9403 11.8299 15.9003 11.1899Z" fill="black"/>
<path fill-rule="evenodd" clip-rule="evenodd" d="M23.5801 7.1001C22.7427 6.97697 21.8946 6.94345 21.0501 7.0001C20.5611 7.02483 20.0738 7.0749 19.5901 7.1501C18.8701 7.2601 18.1801 7.4301 17.4501 7.4701C17.3695 7.46734 17.291 7.49607 17.2313 7.55022C17.1715 7.60436 17.1352 7.67964 17.1301 7.7601C17.1274 7.80032 17.1328 7.84067 17.146 7.87875C17.1593 7.91682 17.18 7.95184 17.2071 7.98171C17.2342 8.01157 17.267 8.03568 17.3036 8.05259C17.3402 8.06949 17.3798 8.07885 17.4201 8.0801C18.2516 8.22654 19.0964 8.28353 19.9401 8.2501H20.3001V10.8701C20.3001 11.2601 20.3001 11.6501 20.3701 12.0301C20.4401 12.4101 20.4501 12.8101 20.5001 13.1901C20.6201 14.1001 20.7801 15.0001 20.9201 15.9001C20.9302 15.9913 20.9756 16.0748 21.0467 16.1328C21.1178 16.1908 21.2087 16.2185 21.3001 16.2101C21.3884 16.1978 21.469 16.1531 21.5263 16.0848C21.5835 16.0164 21.6134 15.9292 21.6101 15.8401V13.1101C21.6101 12.7234 21.5901 12.3334 21.5501 11.9401C21.5501 11.5501 21.4901 11.1601 21.4301 10.7801C21.3101 9.9001 21.1201 9.0401 20.9501 8.1801L21.4201 8.1201C22.1269 7.98465 22.8417 7.89447 23.5601 7.8501C23.6047 7.85281 23.6495 7.84667 23.6918 7.83204C23.7341 7.81741 23.7731 7.79457 23.8065 7.76485C23.84 7.73512 23.8672 7.69908 23.8867 7.65879C23.9062 7.61851 23.9175 7.57478 23.9201 7.5301C23.9342 7.47864 23.9361 7.42457 23.9255 7.37226C23.9148 7.31995 23.8921 7.27087 23.859 7.22901C23.8259 7.18714 23.7834 7.15365 23.7349 7.13126C23.6865 7.10886 23.6334 7.09819 23.5801 7.1001Z" fill="black"/>
<path fill-rule="evenodd" clip-rule="evenodd" d="M23.74 3.73002C23.2433 3.6008 22.7331 3.53032 22.22 3.52002H20.02H16.25C15 3.52002 13.74 3.59002 12.48 3.64002C11.22 3.69002 10.18 3.72002 9.09 3.74002C7.36 3.74002 5.69 3.80002 3.96 3.87002C2.78 3.87002 1.56 3.99002 0.28 4.13002C0.208863 4.13443 0.141619 4.16402 0.0903127 4.21349C0.0390068 4.26297 0.00699093 4.32909 0 4.40002C0.0024794 4.43905 0.0128297 4.47719 0.0304282 4.51212C0.0480268 4.54705 0.0725098 4.57806 0.102404 4.60328C0.132299 4.6285 0.166987 4.64742 0.204381 4.65889C0.241776 4.67036 0.281104 4.67414 0.32 4.67002C3.82 4.50002 6.78 4.80002 10.07 4.81002C10.87 4.81002 11.68 4.81002 12.53 4.73002C14.03 4.63002 15.53 4.55002 17.02 4.47002C18.02 4.47002 19.02 4.38002 20.02 4.35002C20.68 4.35002 21.45 4.27002 22.2 4.27002C22.6601 4.26067 23.1198 4.30429 23.57 4.40002C23.6147 4.41207 23.6613 4.41516 23.7071 4.40909C23.753 4.40303 23.7972 4.38794 23.8371 4.36469C23.8771 4.34145 23.9121 4.3105 23.9401 4.27366C23.968 4.23681 23.9884 4.19479 24 4.15002C24.0118 4.10532 24.0144 4.05869 24.0076 4.01296C24.0008 3.96722 23.9847 3.92336 23.9604 3.88405C23.9361 3.84474 23.904 3.8108 23.8661 3.78432C23.8282 3.75784 23.7853 3.73936 23.74 3.73002Z" fill="black"/>
<path fill-rule="evenodd" clip-rule="evenodd" d="M23.2905 19.07H21.7005C20.5005 19.07 19.4005 19.22 18.0705 19.2C17.0005 19.2 15.9405 19.04 14.8705 18.99H14.0005C13.3005 18.99 12.6105 19.04 11.9205 19.09C10.3305 19.22 8.76046 19.43 7.17046 19.53C6.46046 19.53 5.78046 19.62 5.17046 19.64C3.52046 19.71 1.98046 19.7 0.35046 19.78C0.310207 19.78 0.270362 19.788 0.233297 19.8037C0.196232 19.8194 0.162705 19.8424 0.134712 19.8714C0.10672 19.9003 0.0848349 19.9346 0.0703604 19.9721C0.0558859 20.0097 0.0491179 20.0498 0.0504597 20.09C0.0517512 20.1294 0.0607967 20.1682 0.0770789 20.2041C0.0933612 20.24 0.116561 20.2723 0.145352 20.2992C0.174142 20.3262 0.207959 20.3472 0.244869 20.361C0.281779 20.3749 0.321058 20.3813 0.36046 20.38C1.99046 20.38 3.52046 20.51 5.17046 20.55H7.26046C7.72046 20.55 8.18046 20.55 8.64046 20.5C10.4505 20.39 12.2505 20.16 14.0705 20.11H18.0705C19.4205 20.06 20.5205 19.88 21.7305 19.79C22.2205 19.79 22.7305 19.72 23.2605 19.72C23.3506 19.72 23.4371 19.6842 23.5009 19.6204C23.5646 19.5566 23.6005 19.4702 23.6005 19.38C23.6005 19.2898 23.5646 19.2033 23.5009 19.1396C23.4371 19.0758 23.3506 19.04 23.2605 19.04L23.2905 19.07Z" fill="black"/>
</g>
<defs>
<clipPath id="clip0_36_286">
<rect width="24" height="24" fill="white"/>
</clipPath>
</defs>
</svg>
