<svg width="24" height="24" viewBox="0 0 24 24" fill="none" xmlns="http://www.w3.org/2000/svg">
<path fill-rule="evenodd" clip-rule="evenodd" d="M23.69 1.5201C22.81 1.4201 21.96 1.3101 21.1 1.2501C20.5104 1.22002 19.9196 1.22002 19.33 1.2501C18.8821 1.24304 18.4351 1.29345 18 1.4001C17.844 1.43621 17.7002 1.5124 17.5827 1.62114C17.4652 1.72988 17.3781 1.86739 17.33 2.0201C17.2797 2.2605 17.2496 2.50468 17.24 2.7501C17.32 3.58151 17.32 4.41869 17.24 5.2501C17.2064 5.43229 17.163 5.61255 17.11 5.7901C17.0915 5.8682 17.0536 5.9404 17 6.0001C16.91 6.0601 16.76 6.0001 16.62 6.0001H15.9C14.9756 5.92109 14.0474 5.89438 13.12 5.9201C12.6505 5.94451 12.1925 6.0744 11.78 6.3001C11.537 6.43626 11.3574 6.66257 11.28 6.9301C11.2251 7.30142 11.2251 7.67878 11.28 8.0501C11.287 8.66443 11.2603 9.27869 11.2 9.8901C11.1726 10.2452 11.0593 10.5884 10.87 10.8901C10.82 10.9701 10.71 10.9601 10.6 10.9701C10.33 10.9701 10.04 10.9701 9.82 11.0401C8.87096 11.0933 7.92784 11.2237 7 11.4301C6.5455 11.5576 6.1275 11.7906 5.78 12.1101C5.58163 12.304 5.46075 12.5635 5.44 12.8401C5.43614 13.208 5.45954 13.5757 5.51 13.9401C5.57536 14.6046 5.59874 15.2726 5.58 15.9401C5.56485 16.3108 5.46569 16.6733 5.29 17.0001C5.25965 17.0428 5.21897 17.0772 5.17175 17.0999C5.12453 17.1226 5.07232 17.133 5.02 17.1301H4.32C3.43383 17.1263 2.54843 17.1831 1.67 17.3001C1.24351 17.374 0.839748 17.5451 0.49 17.8001C0.336069 17.9332 0.236423 18.1183 0.21 18.3201C0.186035 18.5962 0.186035 18.874 0.21 19.1501L0 22.4601C0 22.5397 0.0316071 22.616 0.087868 22.6722C0.144129 22.7285 0.220435 22.7601 0.3 22.7601C0.379565 22.7601 0.455871 22.7285 0.512132 22.6722C0.568393 22.616 0.6 22.5397 0.6 22.4601L0.89 19.1601C0.89 18.9801 1.15 18.4801 0.97 18.3601C1.33103 18.1468 1.74077 18.0297 2.16 18.0201C2.92 17.9401 3.75 18.0201 4.36 18.0201C4.74533 18.0741 5.13676 18.0674 5.52 18.0001C5.75177 17.917 5.94896 17.7585 6.08 17.5501C6.37042 17.0826 6.53889 16.5496 6.57 16.0001C6.61002 15.3007 6.61002 14.5995 6.57 13.9001V12.9001C6.89373 12.633 7.28463 12.4601 7.7 12.4001C8.46 12.2301 9.3 12.2201 9.97 12.1201C10.3458 12.1087 10.7203 12.0685 11.09 12.0001C11.3634 11.9193 11.6002 11.7461 11.76 11.5101C12.0341 11.0772 12.2083 10.5887 12.27 10.0801C12.3324 9.41538 12.3558 8.74756 12.34 8.0801V7.2701C12.7216 7.09064 13.1383 6.99841 13.56 7.0001C14.36 7.0001 15.23 7.0601 15.87 7.0001H16.87C17.0971 6.98244 17.3166 6.91042 17.51 6.7901C17.6675 6.66769 17.7942 6.51017 17.88 6.3301C18.0094 6.03088 18.0937 5.71409 18.13 5.3901C18.1785 5.14985 18.202 4.9052 18.2 4.6601C18.1142 3.84978 18.0875 3.0343 18.12 2.2201C18.38 2.4301 19.12 2.0001 19.35 1.9801C19.9096 1.95038 20.4704 1.95038 21.03 1.9801C21.88 1.9801 22.72 2.1001 23.59 2.1801C23.6346 2.1847 23.6798 2.18045 23.7228 2.16761C23.7658 2.15477 23.8058 2.13359 23.8407 2.10526C23.8755 2.07694 23.9044 2.04204 23.9257 2.00255C23.9471 1.96306 23.9604 1.91975 23.965 1.8751C23.9696 1.83045 23.9654 1.78533 23.9525 1.74232C23.9397 1.69931 23.9185 1.65925 23.8902 1.62443C23.8618 1.58961 23.8269 1.56071 23.7874 1.53937C23.748 1.51804 23.7046 1.5047 23.66 1.5001L23.69 1.5201Z" fill="black"/>
<path fill-rule="evenodd" clip-rule="evenodd" d="M22.47 11.67C22.4861 11.4069 22.4861 11.1431 22.47 10.88C22.4493 10.7297 22.3945 10.586 22.31 10.46C22.0938 10.1758 21.7738 9.98878 21.42 9.93998C20.8917 9.90113 20.3605 9.93139 19.84 10.03C18.98 10.16 18.12 10.34 17.26 10.45C16.9 10.45 16.54 10.53 16.18 10.54L15.23 10.63C15.1425 10.6049 15.0487 10.6148 14.9684 10.6578C14.8881 10.7007 14.8277 10.7732 14.8 10.86C14.7752 10.9462 14.7855 11.0387 14.8286 11.1173C14.8716 11.196 14.9441 11.2545 15.03 11.28C15.1652 11.3256 15.3075 11.346 15.45 11.34H16.17C16.5563 11.3649 16.9438 11.3649 17.33 11.34C18.2 11.34 19.08 11.21 19.95 11.16C20.15 11.16 20.44 11.1 20.73 11.09C20.54 11.34 20.36 11.59 20.15 11.84C19.32 12.84 18.38 13.72 17.54 14.63C16.7 15.54 16.14 16.26 15.46 17.08C14.78 17.9 14.15 18.76 13.46 19.58L12.41 20.79C12.3757 20.8158 12.3472 20.8486 12.3266 20.8864C12.3061 20.9241 12.2938 20.9658 12.2908 21.0087C12.2877 21.0516 12.2939 21.0946 12.309 21.1349C12.324 21.1752 12.3475 21.2117 12.3779 21.2421C12.4083 21.2725 12.4449 21.296 12.4851 21.311C12.5254 21.3261 12.5684 21.3323 12.6113 21.3292C12.6542 21.3262 12.6959 21.314 12.7336 21.2934C12.7714 21.2728 12.8043 21.2444 12.83 21.21C14.0397 20.1319 15.1945 18.9938 16.29 17.8C17.01 17.01 17.68 16.18 18.38 15.36C19.08 14.54 19.78 13.67 20.45 12.79C21.69 11.16 21.31 11.32 21.33 11.73L21.61 14.1L21.96 16.4C21.9667 16.4795 22.0046 16.5532 22.0656 16.6048C22.1265 16.6564 22.2055 16.6816 22.285 16.675C22.3646 16.6684 22.4383 16.6304 22.4898 16.5694C22.5414 16.5085 22.5667 16.4295 22.56 16.35L22.5 14L22.47 11.67Z" fill="black"/>
</svg>
