<svg width="24" height="24" viewBox="0 0 24 24" fill="none" xmlns="http://www.w3.org/2000/svg">
<g clip-path="url(#clip0_36_703)">
<path fill-rule="evenodd" clip-rule="evenodd" d="M18.0898 18.4799C18.4518 18.4539 18.7941 18.3048 19.0597 18.0574C19.3253 17.81 19.4982 17.4792 19.5498 17.1199C19.5742 16.9141 19.5497 16.7055 19.4785 16.511C19.4073 16.3164 19.2912 16.1413 19.1398 15.9999C18.6479 15.6337 18.0864 15.3717 17.4898 15.2299C17.281 15.174 17.082 15.0863 16.8998 14.9699C16.8466 14.9438 16.8 14.9059 16.7636 14.8592C16.7272 14.8124 16.702 14.7579 16.6898 14.6999C16.6298 14.2099 16.9898 14.0199 17.4198 13.9799C17.9663 13.9323 18.5149 14.0434 18.9998 14.2999C19.0311 14.3258 19.0675 14.3449 19.1066 14.3558C19.1457 14.3668 19.1866 14.3694 19.2268 14.3635C19.267 14.3576 19.3055 14.3433 19.3398 14.3216C19.3741 14.2999 19.4035 14.2712 19.4261 14.2374C19.4486 14.2036 19.4638 14.1655 19.4706 14.1254C19.4775 14.0854 19.4758 14.0444 19.4658 14.005C19.4558 13.9657 19.4376 13.9289 19.4125 13.897C19.3873 13.8651 19.3557 13.8388 19.3198 13.8199C19.0728 13.6479 18.8037 13.51 18.5198 13.4099L18.5798 13.3299C18.6261 13.2583 18.6631 13.181 18.6898 13.0999C18.7122 13.0178 18.7289 12.9343 18.7398 12.8499C18.8498 11.9599 18.7398 11.8499 18.5898 11.8499C18.4398 11.8499 18.2598 11.7599 17.7698 12.5299C17.72 12.601 17.6796 12.6784 17.6498 12.7599C17.6112 12.8412 17.5907 12.9299 17.5898 13.0199C17.5848 13.0831 17.5848 13.1467 17.5898 13.2099C17.3605 13.1846 17.1291 13.1846 16.8998 13.2099C16.7182 13.2286 16.542 13.2831 16.3816 13.3703C16.2212 13.4575 16.0797 13.5757 15.9653 13.718C15.8509 13.8603 15.7658 14.024 15.7151 14.1994C15.6644 14.3748 15.649 14.5585 15.6698 14.7399C15.6748 14.949 15.729 15.1539 15.828 15.3381C15.9271 15.5222 16.0681 15.6805 16.2398 15.7999C16.7352 16.1026 17.2703 16.3349 17.8298 16.4899C18.1498 16.6099 18.4798 16.6899 18.4498 17.0399C18.4198 17.3899 17.9998 17.5799 17.5598 17.6199C17.0218 17.6715 16.4803 17.5673 15.9998 17.3199C15.882 17.2315 15.7805 17.1232 15.6998 16.9999C15.5939 16.8547 15.5066 16.6968 15.4398 16.5299C15.4047 16.4509 15.34 16.3888 15.2595 16.357C15.1791 16.3252 15.0895 16.3263 15.0098 16.3599C14.9698 16.3762 14.9335 16.4005 14.9031 16.4312C14.8727 16.4619 14.8488 16.4984 14.833 16.5386C14.8171 16.5788 14.8095 16.6218 14.8107 16.665C14.8118 16.7081 14.8217 16.7507 14.8398 16.7899C14.9253 17.0457 15.0465 17.2881 15.1998 17.5099C15.3161 17.6746 15.4579 17.8198 15.6198 17.9399C15.7588 18.0304 15.9061 18.1075 16.0598 18.1699C16.0152 18.239 15.9783 18.3128 15.9498 18.3899C15.9245 18.4713 15.9078 18.5551 15.8998 18.6399C15.7798 19.5399 15.8998 19.6399 16.0498 19.6399C16.1998 19.6399 16.3798 19.7299 16.8698 18.9599C16.9175 18.8875 16.9578 18.8105 16.9898 18.7299C17.0192 18.6457 17.0394 18.5585 17.0498 18.4699V18.3699C17.3898 18.4537 17.7397 18.4907 18.0898 18.4799Z" fill="black"/>
<path fill-rule="evenodd" clip-rule="evenodd" d="M9.78981 10.94C9.71679 10.7303 9.57606 10.5508 9.38981 10.43C9.4248 10.3863 9.4488 10.3348 9.45981 10.28C9.51981 8.54995 10.9998 7.45995 11.6298 5.99995C11.9455 5.2478 11.9845 4.40812 11.7398 3.62995C11.6564 3.36522 11.5596 3.10488 11.4498 2.84995C11.3156 2.60042 11.1653 2.35991 10.9998 2.12995C9.7298 0.179954 6.99981 -0.370046 4.58981 0.269954C2.17981 0.909954 0.0898052 2.70995 -0.000194767 5.11995C-0.0305309 5.5923 0.0433163 6.06555 0.216121 6.5062C0.388926 6.94685 0.656465 7.34414 0.999805 7.66995C1.77015 8.29646 2.59322 8.85521 3.45981 9.33995C3.84985 9.54517 4.1933 9.82874 4.46863 10.1729C4.74395 10.5171 4.94522 10.9144 5.05981 11.34C5.05981 11.39 5.10981 11.41 5.12981 11.45C5.09641 11.4834 5.07237 11.525 5.06008 11.5706C5.0478 11.6162 5.0477 11.6643 5.05981 11.71C5.06904 11.7464 5.08554 11.7807 5.10831 11.8106C5.13107 11.8406 5.15965 11.8656 5.19232 11.8843C5.22498 11.903 5.26108 11.9149 5.29845 11.9193C5.33582 11.9237 5.37369 11.9205 5.40981 11.91L7.99981 11.53C8.18981 11.53 8.47981 11.41 8.75981 11.35H8.98981C9.03194 11.7589 9.03194 12.171 8.98981 12.58C9.04968 12.8868 9.08645 13.1976 9.09981 13.51C9.10355 13.6391 9.07247 13.7669 9.00981 13.88C8.86014 14.1092 8.65312 14.2954 8.40929 14.4199C8.16545 14.5445 7.89329 14.6031 7.61981 14.59C7.33511 14.5981 7.05341 14.5301 6.80378 14.393C6.55416 14.2558 6.34565 14.0546 6.19981 13.81L6.13981 13.67H6.75981C7.02764 13.6512 7.29085 13.5905 7.53981 13.49C8.64981 13.08 8.71981 12.97 8.66981 12.73C8.61981 12.49 8.48981 12.4 7.31981 12.48C7.19001 12.4695 7.0596 12.4695 6.92981 12.48C6.79348 12.5047 6.65962 12.5415 6.52981 12.59C6.30055 12.6912 6.07689 12.8047 5.85981 12.93C5.78342 12.7326 5.72648 12.5283 5.68981 12.32C5.67512 12.2338 5.62687 12.157 5.55563 12.1064C5.48439 12.0558 5.39599 12.0355 5.30981 12.05C5.26696 12.0546 5.22556 12.0682 5.18826 12.0898C5.15096 12.1114 5.11857 12.1406 5.09316 12.1754C5.06775 12.2102 5.04988 12.2499 5.0407 12.292C5.03151 12.3342 5.03121 12.3777 5.03981 12.42C5.07234 12.7076 5.12921 12.9919 5.20981 13.27C5.28991 13.5489 5.38675 13.8227 5.49981 14.09C5.686 14.4915 5.97793 14.8349 6.34434 15.0833C6.71074 15.3317 7.13781 15.4757 7.57981 15.5C8.03933 15.5589 8.50624 15.4935 8.93188 15.3106C9.35753 15.1276 9.72631 14.8339 9.99981 14.46C10.1404 14.2401 10.2261 13.9898 10.2498 13.73C10.2708 13.2771 10.2338 12.8234 10.1398 12.38C10.0656 11.8906 9.94852 11.4087 9.78981 10.94ZM8.63981 10.41C8.33981 10.49 8.0198 10.65 7.80981 10.71L5.62981 11.25C5.29981 9.18995 2.93981 8.49995 1.62981 7.09995C1.38779 6.84541 1.20565 6.54005 1.09666 6.20616C0.987671 5.87227 0.954581 5.51826 0.999805 5.16995C1.11981 3.16995 2.91981 1.85995 4.91981 1.33995C6.91981 0.819954 9.16981 1.08995 10.2698 2.67995C10.3998 2.86995 10.5198 3.06995 10.6298 3.26995C10.7375 3.48014 10.8311 3.69729 10.9098 3.91995C11.1261 4.49702 11.1261 5.13289 10.9098 5.70995C10.3498 7.23995 8.90981 8.45995 8.90981 10.27C8.90417 10.3064 8.90417 10.3435 8.90981 10.38L8.63981 10.41Z" fill="black"/>
<path fill-rule="evenodd" clip-rule="evenodd" d="M23.3798 13C22.6681 11.7414 21.5505 10.7613 20.2098 10.22C18.8966 9.60807 17.4295 9.40596 15.9998 9.63999C14.8687 9.87216 13.8105 10.3745 12.9155 11.1041C12.0205 11.8336 11.3152 12.7689 10.8598 13.83C10.3997 14.8982 10.2786 16.0818 10.5129 17.221C10.7472 18.3602 11.3255 19.4 12.1698 20.2C12.4796 20.5129 12.814 20.8005 13.1698 21.06C13.5298 21.3294 13.923 21.5512 14.3398 21.72C14.828 21.9009 15.3401 22.0087 15.8598 22.04C16.6086 22.0764 17.3592 22.0362 18.0998 21.92C18.138 21.9151 18.1749 21.9026 18.2083 21.8833C18.2416 21.864 18.2708 21.8382 18.2941 21.8075C18.3173 21.7767 18.3343 21.7417 18.3438 21.7043C18.3534 21.667 18.3554 21.6281 18.3498 21.59C18.3461 21.5522 18.3348 21.5155 18.3165 21.4822C18.2983 21.4489 18.2734 21.4197 18.2435 21.3963C18.2135 21.3729 18.1792 21.3558 18.1424 21.3462C18.1057 21.3365 18.0674 21.3344 18.0298 21.34C17.3307 21.437 16.6227 21.4538 15.9198 21.39C15.4685 21.3558 15.026 21.2477 14.6098 21.07C14.252 20.9097 13.916 20.7047 13.6098 20.46C13.3008 20.2076 13.01 19.9335 12.7398 19.64C12.0565 18.9397 11.6025 18.0479 11.4381 17.0834C11.2738 16.1188 11.4069 15.1271 11.8198 14.24C12.2217 13.3465 12.8302 12.5614 13.5953 11.9493C14.3603 11.3373 15.2599 10.9159 16.2198 10.72C17.4216 10.5166 18.6567 10.6732 19.7698 11.17C20.9099 11.5909 21.8751 12.3835 22.5098 13.42C22.8671 14.1054 23.0701 14.8607 23.1046 15.6328C23.1392 16.405 23.0044 17.1754 22.7098 17.89C22.435 18.62 21.9993 19.2788 21.4349 19.8172C20.8705 20.3556 20.192 20.7599 19.4498 21C19.3755 21.0313 19.3152 21.0888 19.2803 21.1615C19.2455 21.2342 19.2385 21.3172 19.2606 21.3947C19.2828 21.4723 19.3326 21.539 19.4006 21.5824C19.4686 21.6257 19.5501 21.6427 19.6298 21.63C20.488 21.3829 21.2787 20.9439 21.9422 20.3462C22.6058 19.7485 23.1247 19.0078 23.4598 18.18C23.8215 17.362 24.0016 16.4754 23.9878 15.5812C23.974 14.687 23.7665 13.8064 23.3798 13Z" fill="black"/>
<path fill-rule="evenodd" clip-rule="evenodd" d="M15.6196 4.55991C15.8796 4.94991 16.1696 5.32991 16.4496 5.67991C16.4727 5.71619 16.503 5.74728 16.5387 5.77121C16.5744 5.79513 16.6147 5.81137 16.657 5.8189C16.6994 5.82642 16.7428 5.82506 16.7845 5.81491C16.8263 5.80475 16.8655 5.78603 16.8996 5.75991C16.9364 5.73749 16.9682 5.7079 16.9932 5.67289C17.0183 5.63788 17.036 5.59819 17.0453 5.55618C17.0547 5.51417 17.0554 5.4707 17.0476 5.42839C17.0397 5.38608 17.0234 5.34578 16.9996 5.30991C16.7596 4.92991 16.5396 4.53991 16.3396 4.13991C16.1296 3.74991 15.9496 3.33991 15.7796 2.93991C15.7796 2.85991 15.7596 2.78991 15.7196 2.72991C16.6053 2.92392 17.4532 3.26172 18.2296 3.72991C18.6183 3.97102 18.9803 4.25259 19.3096 4.56991C19.6354 4.85656 19.9123 5.19431 20.1296 5.56991C20.2926 5.85326 20.4202 6.15551 20.5096 6.46991C20.6596 6.99991 20.7596 7.54991 20.8796 8.05991C20.8844 8.09784 20.8969 8.13438 20.9164 8.16729C20.9358 8.20021 20.9618 8.22878 20.9927 8.25127C21.0237 8.27375 21.0588 8.28967 21.0961 8.29804C21.1335 8.3064 21.1721 8.30704 21.2096 8.29991C21.2775 8.28567 21.338 8.24758 21.3802 8.19254C21.4224 8.1375 21.4435 8.06916 21.4396 7.99991C21.4396 7.44991 21.3896 6.87991 21.3096 6.31991C21.2513 5.92261 21.1472 5.53337 20.9996 5.15991C20.6185 4.34644 20.0197 3.65426 19.2696 3.15991C18.4548 2.65266 17.5472 2.31272 16.5996 2.15991C17.0595 2.02012 17.5269 1.9066 17.9996 1.81991C18.611 1.70722 19.2289 1.63373 19.8496 1.59991C19.8872 1.60263 19.925 1.59772 19.9606 1.5855C19.9963 1.57327 20.0291 1.55397 20.0571 1.52876C20.0851 1.50355 20.1077 1.47294 20.1236 1.43877C20.1395 1.40461 20.1484 1.36758 20.1496 1.32991C20.1498 1.2537 20.121 1.18027 20.0689 1.12455C20.0169 1.06883 19.9457 1.03499 19.8696 1.02991C19.0827 0.939782 18.2886 0.929731 17.4996 0.999913C16.9633 1.05261 16.4317 1.14622 15.9096 1.27991C15.6135 1.34863 15.3227 1.43887 15.0396 1.54991C14.8347 1.63136 14.6552 1.76599 14.5196 1.93991C14.468 2.01499 14.4324 2.09995 14.4152 2.18944C14.398 2.27894 14.3995 2.37103 14.4196 2.45991C14.5448 2.78627 14.6987 3.10085 14.8796 3.39991C15.0996 3.77991 15.3596 4.16991 15.6196 4.55991Z" fill="black"/>
<path fill-rule="evenodd" clip-rule="evenodd" d="M9.00001 20.81C8.81001 20.62 8.55001 20.43 8.41001 20.29L6.24001 18.29C6.21394 18.2633 6.18282 18.2422 6.14848 18.2278C6.11414 18.2133 6.07726 18.2059 6.04001 18.2059C6.00276 18.2059 5.96588 18.2133 5.93154 18.2278C5.8972 18.2422 5.86608 18.2633 5.84001 18.29C5.81184 18.3162 5.78938 18.3479 5.77402 18.3832C5.75866 18.4184 5.75073 18.4565 5.75073 18.495C5.75073 18.5334 5.75866 18.5715 5.77402 18.6068C5.78938 18.642 5.81184 18.6738 5.84001 18.7L7.63001 20.97C6.14529 20.9156 4.71636 20.3903 3.55001 19.47C2.87578 18.9583 2.34246 18.2839 2.00001 17.51C1.65991 16.741 1.55216 15.8894 1.69001 15.06C1.72595 14.7963 1.79309 14.5378 1.89001 14.29C1.98132 14.0354 2.09163 13.788 2.22001 13.55C2.26204 13.4862 2.27721 13.4084 2.26223 13.3335C2.24725 13.2586 2.20333 13.1927 2.14001 13.15C2.07436 13.1114 1.99651 13.0992 1.92224 13.116C1.84796 13.1327 1.78282 13.177 1.74001 13.24C1.56293 13.4906 1.40579 13.7547 1.27001 14.03C1.15809 14.3127 1.06783 14.6035 1.00001 14.9C0.707673 15.8825 0.732164 16.9321 1.07001 17.9C1.43725 18.8617 2.07661 19.6956 2.91001 20.3C4.19219 21.2061 5.73024 21.679 7.30001 21.65L4.07001 23.36C3.99161 23.3932 3.9291 23.4555 3.89556 23.5338C3.86201 23.612 3.86002 23.7002 3.89001 23.78C3.92529 23.8615 3.99109 23.926 4.07332 23.9596C4.15556 23.9933 4.24769 23.9934 4.33001 23.96C5.07001 23.7 5.81001 23.42 6.54001 23.12L8.00001 22.51C8.08001 22.51 8.75001 22.15 9.00001 22.01C9.13813 21.9374 9.24606 21.8182 9.30464 21.6735C9.36322 21.5289 9.36866 21.3682 9.32001 21.22C9.23969 21.0646 9.13118 20.9256 9.00001 20.81Z" fill="black"/>
</g>
<defs>
<clipPath id="clip0_36_703">
<rect width="24" height="24" fill="white"/>
</clipPath>
</defs>
</svg>
