<svg width="24" height="24" viewBox="0 0 24 24" fill="none" xmlns="http://www.w3.org/2000/svg">
<g clip-path="url(#clip0_36_702)">
<path fill-rule="evenodd" clip-rule="evenodd" d="M4.43018 10.23C3.43018 10.13 3.43018 10.68 4.43018 10.84C5.10018 10.9 5.84018 10.95 6.64018 10.98C9.46018 11.08 12.8002 10.98 14.7102 10.98L16.7102 11.04L16.8902 11.1C16.8951 11.1599 16.8951 11.2201 16.8902 11.28C16.8902 11.65 16.7902 12.06 16.7702 12.28C16.8073 12.8661 16.8073 13.4539 16.7702 14.04C16.7702 14.2 16.6002 14.25 16.3402 14.26H15.7102H14.6202L4.43018 14C3.35018 13.9 3.54018 14.53 4.43018 14.66L6.58018 14.78C9.36018 14.94 12.6402 15.16 14.5202 15.28L15.6102 15.35H16.3002C16.5409 15.3753 16.784 15.3369 17.0051 15.2386C17.2263 15.1404 17.4177 14.9856 17.5602 14.79C17.7276 14.5232 17.8176 14.215 17.8202 13.9V12.37C17.8202 12.1 17.9302 11.61 17.9402 11.2C17.9657 10.9603 17.9384 10.718 17.8602 10.49C17.8261 10.3985 17.7728 10.3155 17.7037 10.2464C17.6347 10.1774 17.5517 10.1241 17.4602 10.09C17.2314 10.0316 16.9963 10.0014 16.7602 10H14.6902C12.7902 10.07 9.46018 10.32 6.69018 10.33C5.85018 10.29 5.10018 10.27 4.43018 10.23Z" fill="black"/>
<path fill-rule="evenodd" clip-rule="evenodd" d="M4.43006 3.61001H5.29006C7.29006 3.55001 9.56006 3.61001 11.1201 3.61001C11.3401 3.61001 11.7901 3.56001 12.2201 3.61001C13.0301 3.61001 12.7401 3.97001 12.7201 4.98001C12.7201 6.22001 12.9701 6.68001 12.2701 6.82001C11.6087 6.94366 10.941 7.03046 10.2701 7.08001C8.33006 7.21001 5.90006 7.17001 4.42006 7.17001C3.48006 7.37001 3.42006 7.59001 4.42006 7.86001C5.89006 7.93001 8.35006 8.08001 10.3101 8.03001C11.1551 8.03008 11.9973 7.93277 12.8201 7.74001C13.0919 7.66987 13.3447 7.54006 13.5601 7.36001C13.7293 7.15769 13.8245 6.90373 13.8301 6.64001C13.8801 6.11001 13.7701 5.24001 13.7801 5.01001C13.7901 4.78001 13.9001 4.10001 13.8801 3.68001C13.8962 3.44112 13.8367 3.2032 13.7101 3.00001C13.4471 2.7255 13.0896 2.56108 12.7101 2.54001C12.1516 2.48178 11.5885 2.48178 11.0301 2.54001C9.47006 2.65001 7.20006 2.71001 5.21006 2.88001L4.43006 3.00001C3.60006 3.23001 3.53006 3.45001 4.43006 3.61001Z" fill="black"/>
<path fill-rule="evenodd" clip-rule="evenodd" d="M22.0002 18.0699C21.9839 17.9667 21.9449 17.8684 21.8861 17.7819C21.8273 17.6955 21.7502 17.6231 21.6602 17.5699C21.508 17.4957 21.3394 17.4612 21.1702 17.4699C20.8402 17.4699 20.3402 17.5599 20.1702 17.5599L16.9102 17.61C15.4402 17.68 13.3602 17.72 11.1802 17.75L4.46023 17.8099C3.46023 18.0499 3.46023 18.48 4.46023 18.43C6.84023 18.49 9.90023 18.57 12.6202 18.61H16.9502H20.1902C20.4231 18.6313 20.6574 18.6313 20.8902 18.61C20.8687 18.8595 20.8687 19.1104 20.8902 19.36C20.9171 19.9887 20.8802 20.6186 20.7802 21.2399C20.7002 21.4499 20.5202 21.58 20.1702 21.62C19.8853 21.6602 19.5979 21.6802 19.3102 21.68H17.1702C15.6602 21.68 13.5502 21.68 11.3402 21.62C8.97023 21.55 6.50023 21.45 4.49023 21.36C3.39023 21.26 3.33023 21.91 4.49023 22.04C6.49023 22.19 8.95023 22.36 11.3002 22.4799C13.6502 22.5999 15.6602 22.69 17.1802 22.69C17.8902 22.69 18.6102 22.75 19.3302 22.75C19.6602 22.75 19.9802 22.75 20.3302 22.69C20.6582 22.6846 20.9765 22.5779 21.2414 22.3846C21.5064 22.1912 21.7051 21.9206 21.8102 21.61C21.9505 20.9057 22.0109 20.1878 21.9902 19.4699C22.0388 19.0047 22.0422 18.5358 22.0002 18.0699Z" fill="black"/>
<path fill-rule="evenodd" clip-rule="evenodd" d="M3.15 11.24V3.12996C3.15 2.12996 3.07 1.21996 3 0.269955C2.99899 0.23041 2.98962 0.191526 2.9725 0.155866C2.95537 0.120206 2.93089 0.0885788 2.90065 0.0630687C2.87042 0.0375587 2.83512 0.0187446 2.79709 0.00786599C2.75906 -0.00301259 2.71915 -0.00570871 2.68 -4.47354e-05C2.60661 0.00502885 2.53788 0.037808 2.48775 0.0916535C2.43762 0.145499 2.40982 0.216385 2.41 0.289955C2.41 3.08996 2.29 5.88995 2.17 8.68995C2.09 10.56 2 12.44 2 14.31C2 16.72 2.32 23.04 2.39 23.71C2.41532 23.7736 2.46042 23.8275 2.51866 23.8636C2.5769 23.8998 2.64519 23.9163 2.7135 23.9107C2.78181 23.9051 2.84651 23.8777 2.89809 23.8325C2.94966 23.7874 2.98539 23.7269 3 23.66L3.15 11.24Z" fill="black"/>
</g>
<defs>
<clipPath id="clip0_36_702">
<rect width="24" height="24" fill="white"/>
</clipPath>
</defs>
</svg>
