<svg width="24" height="24" viewBox="0 0 24 24" fill="none" xmlns="http://www.w3.org/2000/svg">
<g clip-path="url(#clip0_36_681)">
<path d="M5.42968 0.860058C4.63438 0.97276 3.88823 1.31169 3.28011 1.83648C2.67199 2.36127 2.22753 3.0498 1.99968 3.82006C1.98078 3.89425 1.99097 3.97287 2.02815 4.0398C2.06534 4.10672 2.1267 4.1569 2.19968 4.18006C2.26269 4.18858 2.32673 4.17539 2.38125 4.14268C2.43578 4.10997 2.47755 4.05967 2.49968 4.00006C2.73215 3.37823 3.13859 2.83641 3.67053 2.43923C4.20247 2.04205 4.83743 1.80628 5.49968 1.76006C5.80033 1.71414 6.10735 1.73345 6.39988 1.81668C6.6924 1.89991 6.9636 2.0451 7.19506 2.24241C7.42651 2.43971 7.6128 2.68451 7.74128 2.96017C7.86977 3.23584 7.93743 3.53593 7.93968 3.84006C7.98463 4.24302 7.92969 4.65086 7.77971 5.02757C7.62972 5.40427 7.38931 5.73827 7.07968 6.00006C6.78593 6.28641 6.43014 6.50122 6.03993 6.62782C5.64973 6.75442 5.2356 6.78941 4.82968 6.73006C4.30955 6.63131 3.83174 6.37671 3.45968 6.00006C3.04983 5.60067 2.71159 5.13389 2.45968 4.62006C2.42255 4.54314 2.35639 4.48413 2.27575 4.456C2.19511 4.42787 2.10659 4.43293 2.02968 4.47006C1.95277 4.50719 1.89376 4.57335 1.86563 4.65399C1.83749 4.73463 1.84255 4.82314 1.87968 4.90006C2.17177 5.62177 2.619 6.27042 3.18968 6.80006C3.59964 7.1683 4.09434 7.42939 4.62968 7.56006C5.17376 7.68021 5.73841 7.67134 6.27844 7.53416C6.81847 7.39698 7.3189 7.1353 7.73968 6.77006C8.18295 6.40335 8.52959 5.93357 8.74925 5.40186C8.9689 4.87015 9.05489 4.2927 8.99968 3.72006C8.98733 3.28503 8.88048 2.8579 8.68655 2.46829C8.49261 2.07869 8.21622 1.73595 7.87657 1.46385C7.53692 1.19175 7.14214 0.996803 6.71961 0.892541C6.29708 0.788278 5.85692 0.777194 5.42968 0.860058Z" fill="black"/>
<path d="M5.77979 18.8401C5.39162 18.6068 4.95909 18.457 4.50979 18.4001C4.50979 18.4001 4.50979 18.4001 4.50979 18.3201C4.50979 17.6301 4.50979 16.9501 4.58979 16.2601C4.66979 15.5701 4.71979 14.8901 4.77979 14.2101C4.83979 13.5301 4.89979 12.8401 4.94979 12.1501C5.04979 10.7701 5.10979 9.38009 5.21979 8.01009C5.22093 7.93937 5.19617 7.87068 5.15019 7.81693C5.10422 7.76319 5.04018 7.7281 4.97014 7.71827C4.9001 7.70844 4.82888 7.72454 4.76988 7.76356C4.71088 7.80257 4.66817 7.8618 4.64979 7.93009C4.40979 9.12009 4.13979 10.3101 3.95979 11.5301C3.87979 12.0501 3.81979 12.5701 3.77979 13.0901C3.77979 13.6101 3.70979 14.1401 3.70979 14.6701C3.688 15.8989 3.74143 17.1278 3.86979 18.3501C3.30414 18.3906 2.76153 18.5905 2.30489 18.9268C1.84826 19.2631 1.49629 19.7219 1.28979 20.2501C1.082 20.7331 1.01864 21.2659 1.10738 21.7841C1.19612 22.3024 1.43315 22.7838 1.78979 23.1701C2.08502 23.4725 2.45372 23.693 2.85979 23.8101C3.42063 23.9921 4.0129 24.0567 4.59979 24.0001C4.67498 23.9925 4.74422 23.9558 4.79279 23.8979C4.84135 23.84 4.86539 23.7655 4.85979 23.6901C4.85732 23.6524 4.84723 23.6155 4.83014 23.5818C4.81304 23.5481 4.78929 23.5182 4.76033 23.4939C4.73136 23.4696 4.69777 23.4514 4.66159 23.4404C4.6254 23.4295 4.58738 23.426 4.54979 23.4301C4.13783 23.4433 3.7263 23.3927 3.32979 23.2801C2.97045 23.1811 2.64963 22.9754 2.40979 22.6901C2.19516 22.4064 2.06686 22.0669 2.04025 21.7122C2.01365 21.3575 2.08987 21.0026 2.25979 20.6901C2.39719 20.3735 2.61049 20.0956 2.88084 19.8811C3.15119 19.6666 3.47025 19.522 3.80979 19.4601C4.32041 19.3915 4.83954 19.4897 5.28979 19.7401C5.75012 19.9524 6.10906 20.3365 6.28979 20.8101C6.39865 21.2478 6.35637 21.7095 6.16979 22.1201C6.10015 22.3238 5.98025 22.5067 5.82119 22.6517C5.66213 22.7968 5.46904 22.8994 5.25979 22.9501C5.18299 22.9689 5.11549 23.0147 5.0696 23.0791C5.0237 23.1435 5.00245 23.2222 5.00972 23.3009C5.01699 23.3797 5.05229 23.4532 5.1092 23.5081C5.16611 23.563 5.24084 23.5957 5.31979 23.6001C5.65062 23.5516 5.96401 23.4209 6.23129 23.22C6.49858 23.0191 6.71123 22.7544 6.84979 22.4501C7.02944 22.1467 7.14447 21.8094 7.18768 21.4595C7.23088 21.1095 7.20133 20.7544 7.10087 20.4165C7.00041 20.0785 6.83122 19.7649 6.60389 19.4953C6.37656 19.2258 6.096 19.0061 5.77979 18.8501V18.8401Z" fill="black"/>
<path d="M22.8996 20.48C22.7596 19.03 21.7496 17.77 20.1296 18.12C20.2796 16.12 20.5096 14.04 20.5596 12C20.5596 11.05 20.5596 10.1 20.4796 9.15004C20.4364 8.37135 20.3226 7.59818 20.1396 6.84004C19.9916 6.27603 19.7064 5.75733 19.3096 5.33004C18.4111 4.51118 17.2911 3.9755 16.0896 3.79004C14.9992 3.59517 13.8808 3.61897 12.7996 3.86004C13.0796 3.64004 14.7996 2.37004 15.4696 1.91004C16.1396 1.45004 16.7596 1.00004 17.3996 0.530041C17.4329 0.510659 17.4617 0.484637 17.4845 0.453599C17.5072 0.42256 17.5233 0.387171 17.5317 0.349639C17.5402 0.312107 17.5408 0.273238 17.5336 0.235455C17.5263 0.197673 17.5114 0.161789 17.4896 0.130041C17.4726 0.0958344 17.449 0.0653233 17.4202 0.0402607C17.3914 0.0151981 17.3579 -0.00392221 17.3216 -0.0160019C17.2854 -0.0280816 17.2471 -0.0328828 17.209 -0.0301295C17.1709 -0.0273763 17.1338 -0.017123 17.0996 4.15035e-05C16.2696 0.470042 15.4196 0.920041 14.5996 1.41004C14.0396 1.75004 13.4996 2.10004 12.9796 2.48004C12.5977 2.75728 12.2305 3.05435 11.8796 3.37004C11.7973 3.4449 11.7343 3.53856 11.696 3.64304C11.6577 3.74751 11.6452 3.8597 11.6596 3.97004C11.7156 4.21423 11.8249 4.44301 11.9796 4.64004C12.2428 4.99 12.5266 5.32392 12.8296 5.64004C13.4596 6.34004 14.1896 6.96004 14.8296 7.64004C15.0944 7.922 15.3384 8.22279 15.5596 8.54004C15.5811 8.57646 15.6097 8.6081 15.6439 8.63303C15.678 8.65796 15.7168 8.67565 15.758 8.68502C15.7993 8.69438 15.8419 8.69522 15.8835 8.68749C15.925 8.67976 15.9646 8.66361 15.9996 8.64004C16.0358 8.61844 16.0674 8.5899 16.0925 8.55607C16.1176 8.52224 16.1358 8.48378 16.146 8.44289C16.1563 8.40201 16.1583 8.35951 16.1521 8.31784C16.1458 8.27616 16.1314 8.23613 16.1096 8.20004C15.8974 7.83415 15.6601 7.48332 15.3996 7.15004C14.8296 6.41004 14.1696 5.72004 13.6096 4.98004L13.1696 4.45004C14.0869 4.33414 15.0174 4.37812 15.9196 4.58004C16.9245 4.77926 17.8472 5.27367 18.5696 6.00004C18.8392 6.31932 19.0248 6.70086 19.1096 7.11004C19.2684 7.80652 19.3621 8.51623 19.3896 9.23004C19.5196 10.44 19.5496 11.67 19.5596 12.9V18.5C19.5583 18.5376 19.5645 18.5751 19.578 18.6103C19.5915 18.6454 19.6119 18.6775 19.638 18.7045C19.6642 18.7316 19.6955 18.7531 19.7301 18.7678C19.7648 18.7825 19.802 18.7901 19.8396 18.79C19.9025 18.7814 19.9596 18.7492 19.9996 18.7H20.0696C21.2996 18.49 21.9396 19.49 21.9596 20.55C22.0091 21.0507 21.8781 21.5525 21.5903 21.9651C21.3024 22.3776 20.8766 22.6737 20.3896 22.8C20.07 22.8704 19.7389 22.8701 19.4194 22.7993C19.0999 22.7285 18.7996 22.5888 18.5396 22.39C18.2509 22.2052 18.0027 21.9637 17.8102 21.68C17.6177 21.3964 17.4848 21.0766 17.4196 20.74C17.355 20.3441 17.418 19.9378 17.5996 19.58C17.6612 19.418 17.7757 19.2814 17.9245 19.1925C18.0733 19.1036 18.2477 19.0675 18.4196 19.09C18.4617 19.0987 18.5051 19.0988 18.5472 19.0903C18.5894 19.0818 18.6294 19.065 18.6648 19.0407C18.7003 19.0164 18.7305 18.9853 18.7537 18.9491C18.7768 18.9129 18.7925 18.8724 18.7996 18.83C18.8083 18.7893 18.8087 18.7472 18.8007 18.7062C18.7928 18.6653 18.7766 18.6264 18.7533 18.5919C18.73 18.5573 18.6999 18.5279 18.6649 18.5052C18.6299 18.4826 18.5907 18.4672 18.5496 18.46C18.3006 18.3971 18.0388 18.4059 17.7946 18.4855C17.5504 18.5652 17.3337 18.7124 17.1696 18.91C16.7239 19.4535 16.5085 20.1498 16.5696 20.85C16.6339 21.3203 16.794 21.7724 17.04 22.1783C17.2859 22.5842 17.6125 22.9354 17.9996 23.21C18.3769 23.5123 18.8168 23.7266 19.2873 23.8373C19.7579 23.948 20.2472 23.9524 20.7196 23.85C21.4258 23.6416 22.034 23.1871 22.4339 22.5689C22.8339 21.9507 22.9991 21.2096 22.8996 20.48Z" fill="black"/>
</g>
<defs>
<clipPath id="clip0_36_681">
<rect width="24" height="24" fill="white"/>
</clipPath>
</defs>
</svg>
