<svg width="24" height="24" viewBox="0 0 24 24" fill="none" xmlns="http://www.w3.org/2000/svg">
<g clip-path="url(#clip0_36_679)">
<path d="M7.04984 18.41C6.96738 18.4292 6.89544 18.4794 6.84891 18.5501C6.80238 18.6208 6.78481 18.7067 6.79984 18.79C6.80699 18.8311 6.82236 18.8703 6.84501 18.9053C6.86767 18.9403 6.89715 18.9704 6.93169 18.9937C6.96623 19.017 7.00512 19.0332 7.04604 19.0411C7.08696 19.0491 7.12907 19.0487 7.16984 19.04C7.34838 19.0159 7.52988 19.0519 7.68564 19.1425C7.8414 19.233 7.96252 19.3729 8.02984 19.54C8.21816 19.9136 8.28461 20.3368 8.21984 20.75C8.15066 21.0942 8.01326 21.4211 7.81575 21.7113C7.61824 22.0016 7.36462 22.2494 7.06984 22.44C6.80173 22.646 6.49202 22.7911 6.1622 22.8654C5.83237 22.9396 5.49034 22.9412 5.15984 22.87C4.65718 22.7372 4.21819 22.4298 3.92139 22.0029C3.62459 21.5761 3.48934 21.0575 3.53984 20.54C3.53984 19.69 4.08984 18.4 5.53984 18.65C5.57595 18.6586 5.6134 18.6599 5.65003 18.654C5.68666 18.648 5.72176 18.635 5.75333 18.6155C5.78491 18.596 5.81233 18.5704 5.83403 18.5403C5.85574 18.5102 5.87131 18.4762 5.87984 18.44C5.88838 18.4039 5.88972 18.3665 5.88378 18.3299C5.87785 18.2932 5.86476 18.2581 5.84526 18.2265C5.82576 18.195 5.80023 18.1676 5.77013 18.1458C5.74003 18.1241 5.70596 18.1086 5.66984 18.1C4.28984 17.72 2.88984 18.49 2.66984 20.49C2.57029 21.2339 2.74048 21.9889 3.14956 22.6181C3.55864 23.2473 4.17957 23.7092 4.89984 23.92C5.38151 24.0245 5.8805 24.0195 6.35995 23.9052C6.83939 23.791 7.28705 23.5705 7.66984 23.26C8.05146 22.9722 8.3712 22.6105 8.61001 22.1964C8.84882 21.7824 9.00181 21.3245 9.05984 20.85C9.09513 20.4929 9.05939 20.1323 8.9547 19.7891C8.85001 19.4458 8.67843 19.1267 8.44984 18.85C8.28005 18.6543 8.05929 18.5096 7.81211 18.4319C7.56494 18.3542 7.30106 18.3467 7.04984 18.41Z" fill="black"/>
<path d="M10.3897 5.34005C9.97788 4.92336 9.63975 4.43984 9.38968 3.91005C9.35509 3.84066 9.29648 3.78619 9.22475 3.75676C9.15302 3.72733 9.07304 3.72495 8.99968 3.75005C8.92245 3.78698 8.86258 3.85247 8.83273 3.9327C8.80287 4.01293 8.80537 4.10162 8.83968 4.18005C9.14221 4.94016 9.6102 5.62336 10.2097 6.18005C10.8534 6.76329 11.691 7.08631 12.5597 7.08631C13.4283 7.08631 14.2659 6.76329 14.9097 6.18005C15.3649 5.79436 15.7179 5.30242 15.9377 4.74777C16.1575 4.19311 16.2372 3.59283 16.1697 3.00005C16.1573 2.54586 16.0464 2.09977 15.8448 1.69258C15.6432 1.2854 15.3557 0.926811 15.002 0.641584C14.6483 0.356357 14.2369 0.151285 13.7963 0.0405251C13.3556 -0.0702347 12.8962 -0.0840432 12.4497 5.29066e-05C11.6165 0.10739 10.8325 0.454781 10.1933 0.999886C9.55409 1.54499 9.08725 2.26427 8.84968 3.07005C8.83316 3.10539 8.82394 3.14371 8.82257 3.18269C8.82121 3.22168 8.82772 3.26055 8.84173 3.29696C8.85573 3.33337 8.87694 3.36658 8.90408 3.39461C8.93122 3.42263 8.96374 3.44489 8.99968 3.46005C9.03513 3.47078 9.07236 3.47436 9.10921 3.4706C9.14606 3.46684 9.1818 3.4558 9.21435 3.43813C9.2469 3.42046 9.27563 3.3965 9.29886 3.36765C9.32209 3.3388 9.33936 3.30563 9.34968 3.27005C9.59832 2.61061 10.033 2.03752 10.6011 1.62037C11.1691 1.20321 11.846 0.959929 12.5497 0.920053C12.8646 0.876022 13.1853 0.899541 13.4904 0.989044C13.7955 1.07855 14.0781 1.23198 14.3193 1.43915C14.5605 1.64632 14.7549 1.90247 14.8894 2.19056C15.024 2.47866 15.0956 2.79211 15.0997 3.11005C15.1357 3.52876 15.0721 3.95006 14.9139 4.33942C14.7557 4.72878 14.5075 5.07511 14.1897 5.35005C13.94 5.59975 13.6434 5.79763 13.317 5.93234C12.9906 6.06704 12.6407 6.13591 12.2876 6.13498C11.9345 6.13405 11.585 6.06334 11.2593 5.92692C10.9336 5.7905 10.6381 5.59106 10.3897 5.34005Z" fill="black"/>
<path d="M21.3497 20.49C21.1997 18.86 19.9997 17.66 18.3497 18.1C18.3136 18.1085 18.2795 18.1241 18.2494 18.1458C18.2193 18.1675 18.1938 18.1949 18.1743 18.2265C18.1548 18.2581 18.1417 18.2932 18.1358 18.3298C18.1298 18.3664 18.1312 18.4039 18.1397 18.44C18.1483 18.4761 18.1638 18.5102 18.1855 18.5403C18.2072 18.5704 18.2347 18.5959 18.2662 18.6154C18.2978 18.6349 18.3329 18.648 18.3695 18.6539C18.4062 18.6599 18.4436 18.6585 18.4797 18.65C19.8797 18.4 20.4097 19.65 20.4297 20.54C20.4802 21.0575 20.345 21.576 20.0482 22.0029C19.7514 22.4298 19.3124 22.7371 18.8097 22.87C18.4792 22.9412 18.1372 22.9396 17.8074 22.8653C17.4775 22.7911 17.1678 22.646 16.8997 22.44C16.6049 22.2493 16.3513 22.0015 16.1538 21.7113C15.9563 21.421 15.8189 21.0942 15.7497 20.75C15.7033 20.3304 15.7908 19.9068 15.9997 19.54C16.067 19.3729 16.1882 19.233 16.3439 19.1424C16.4997 19.0519 16.6812 19.0158 16.8597 19.04C16.9005 19.0487 16.9426 19.0491 16.9835 19.0411C17.0244 19.0331 17.0633 19.017 17.0979 18.9937C17.1324 18.9703 17.1619 18.9403 17.1846 18.9053C17.2072 18.8703 17.2226 18.8311 17.2297 18.79C17.2448 18.7067 17.2272 18.6208 17.1807 18.55C17.1341 18.4793 17.0622 18.4292 16.9797 18.41C16.7258 18.3501 16.4601 18.3623 16.2127 18.4454C15.9653 18.5284 15.7461 18.679 15.5797 18.88C15.3511 19.1566 15.1796 19.4758 15.0749 19.819C14.9702 20.1623 14.9344 20.5229 14.9697 20.88C15.0278 21.3544 15.1807 21.8124 15.4196 22.2264C15.6584 22.6405 15.9781 23.0022 16.3597 23.29C16.7425 23.6005 17.1902 23.821 17.6696 23.9352C18.1491 24.0494 18.6481 24.0545 19.1297 23.95C19.8539 23.7365 20.4769 23.2692 20.8847 22.6338C21.2924 21.9984 21.4575 21.2373 21.3497 20.49Z" fill="black"/>
<path d="M16.8899 14.1801C17.5798 14.6251 18.0872 15.3028 18.3199 16.0901C18.3932 16.315 18.4467 16.5458 18.4799 16.7801C18.7199 17.7801 18.9999 17.7801 19.3199 16.7801C19.2829 16.2612 19.1753 15.7498 18.9999 15.2601C18.7085 14.4598 18.1865 13.7639 17.4999 13.2601C16.8483 12.8271 16.1376 12.4903 15.3899 12.2601C14.704 12.0901 14.0347 11.8592 13.3899 11.5701C12.9419 11.3362 12.5886 10.9546 12.3899 10.4901C12.3946 10.4602 12.3946 10.4299 12.3899 10.4001C12.4499 9.92005 12.5199 9.45006 12.5599 8.97006V8.36005V8.21006C12.3799 7.30006 11.8199 7.21006 11.4999 8.21006V8.37006V8.98005C11.4999 9.41005 11.6099 10.3201 11.5899 10.3701C11.4046 10.895 11.0203 11.3261 10.5199 11.5701C9.8751 11.8592 9.20577 12.0901 8.51988 12.2601C7.77215 12.4903 7.0615 12.8271 6.40988 13.2601C5.72327 13.7639 5.2013 14.4598 4.90988 15.2601C4.73778 15.7571 4.63351 16.2751 4.59988 16.8001C4.42988 17.6401 4.59988 17.9001 5.43988 16.8001C5.47301 16.5593 5.52653 16.3218 5.59988 16.0901C5.83261 15.3028 6.34 14.6251 7.02988 14.1801C7.64023 13.7851 8.3035 13.4787 8.99988 13.2701C9.71728 13.0116 10.4046 12.6764 11.0499 12.2701C11.474 11.9847 11.8183 11.5958 12.0499 11.1401C12.2815 11.5958 12.6257 11.9847 13.0499 12.2701C13.6951 12.6764 14.3825 13.0116 15.0999 13.2701C15.7338 13.4938 16.3356 13.7998 16.8899 14.1801Z" fill="black"/>
</g>
<defs>
<clipPath id="clip0_36_679">
<rect width="24" height="24" fill="white"/>
</clipPath>
</defs>
</svg>
