<svg width="24" height="24" viewBox="0 0 24 24" fill="none" xmlns="http://www.w3.org/2000/svg">
<g clip-path="url(#clip0_36_690)">
<path fill-rule="evenodd" clip-rule="evenodd" d="M1.32003 3.89801C1.08303 6.74001 1.15703 9.59801 1.54203 12.424C1.54887 12.5293 1.59605 12.6279 1.67374 12.6993C1.75144 12.7707 1.85367 12.8094 1.95917 12.8073C2.06467 12.8053 2.16531 12.7626 2.24016 12.6882C2.31501 12.6139 2.3583 12.5135 2.36103 12.408C2.62418 9.56376 2.53686 6.69796 2.10103 3.87501C2.09952 3.82379 2.08793 3.77338 2.06694 3.72664C2.04594 3.6799 2.01595 3.63775 1.97867 3.6026C1.94138 3.56746 1.89754 3.54 1.84965 3.52179C1.80175 3.50359 1.75074 3.495 1.69953 3.49651C1.64831 3.49802 1.59789 3.5096 1.55115 3.5306C1.50442 3.55159 1.46227 3.58158 1.42712 3.61887C1.39198 3.65615 1.36452 3.69999 1.34631 3.74789C1.32811 3.79578 1.31852 3.84679 1.32003 3.89801Z" fill="black"/>
<path fill-rule="evenodd" clip-rule="evenodd" d="M6.92678 0.512961C5.88478 12.15 7.70877 9.69496 7.68577 9.34296C7.91745 6.40608 7.92347 3.45576 7.70378 0.517961C7.70444 0.414925 7.66414 0.315845 7.59175 0.242518C7.55591 0.20621 7.51327 0.177318 7.46626 0.157491C7.41925 0.137663 7.36879 0.127289 7.31777 0.126961C7.21474 0.126298 7.11566 0.166593 7.04233 0.238982C6.96901 0.311371 6.92744 0.409925 6.92678 0.512961Z" fill="black"/>
<path fill-rule="evenodd" clip-rule="evenodd" d="M13.0358 2.61305C12.7099 4.7223 12.7417 6.87137 13.1298 8.97005C13.1372 9.076 13.1855 9.17494 13.2644 9.24604C13.3433 9.31713 13.4467 9.35483 13.5528 9.3512C13.659 9.34757 13.7596 9.3029 13.8334 9.22658C13.9073 9.15026 13.9487 9.04826 13.9488 8.94205C14.1995 6.83473 14.1538 4.70267 13.8128 2.60805C13.8122 2.50502 13.7706 2.40646 13.6973 2.33408C13.6239 2.26169 13.5249 2.22139 13.4218 2.22205C13.3188 2.22272 13.2202 2.26428 13.1479 2.33761C13.0755 2.41094 13.0352 2.51002 13.0358 2.61305Z" fill="black"/>
<path fill-rule="evenodd" clip-rule="evenodd" d="M18.6499 3.46C18.6514 3.51378 18.6635 3.56673 18.6855 3.61584C18.7074 3.66494 18.7389 3.70924 18.778 3.7462C18.817 3.78315 18.863 3.81205 18.9133 3.83123C18.9636 3.85042 19.0171 3.85951 19.0709 3.858C19.1247 3.85649 19.1776 3.84441 19.2267 3.82243C19.2758 3.80046 19.3201 3.76903 19.3571 3.72993C19.394 3.69084 19.4229 3.64485 19.4421 3.59459C19.4613 3.54433 19.4704 3.49078 19.4689 3.437C20.3079 -0.800996 17.4689 -1.273 18.6499 3.46Z" fill="black"/>
<path fill-rule="evenodd" clip-rule="evenodd" d="M1.80787 17.488C1.50113 19.4849 1.5241 21.5186 1.87587 23.508C1.88312 23.6116 1.92936 23.7085 2.00526 23.7793C2.08117 23.8501 2.18109 23.8894 2.28487 23.8894C2.38866 23.8894 2.48858 23.8501 2.56449 23.7793C2.64039 23.7085 2.68663 23.6116 2.69387 23.508C2.99087 21.508 2.95387 19.473 2.58487 17.485C2.58734 17.4324 2.57906 17.3797 2.56055 17.3303C2.54204 17.281 2.51368 17.2359 2.47719 17.1978C2.44071 17.1597 2.39686 17.1294 2.34831 17.1088C2.29976 17.0882 2.24753 17.0777 2.1948 17.0779C2.14206 17.0781 2.08991 17.089 2.04152 17.11C1.99314 17.131 1.94953 17.1616 1.91334 17.1999C1.87715 17.2383 1.84913 17.2836 1.831 17.3332C1.81287 17.3827 1.805 17.4354 1.80787 17.488Z" fill="black"/>
<path fill-rule="evenodd" clip-rule="evenodd" d="M7.23681 13.7661C7.00381 16.1901 7.09681 18.6361 7.51381 21.0351C7.52378 21.139 7.57308 21.2353 7.65163 21.3042C7.73018 21.373 7.83206 21.4093 7.93646 21.4056C8.04086 21.4019 8.13991 21.3585 8.21339 21.2843C8.28686 21.21 8.32922 21.1105 8.33181 21.0061C8.56299 18.5794 8.45597 16.1323 8.01381 13.7351C8.01351 13.6829 8.00273 13.6313 7.9821 13.5834C7.96147 13.5355 7.93141 13.4922 7.89372 13.4562C7.85603 13.4201 7.81147 13.392 7.7627 13.3735C7.71392 13.355 7.66193 13.3465 7.6098 13.3486C7.55768 13.3506 7.5065 13.363 7.45929 13.3852C7.41209 13.4074 7.36983 13.4389 7.33503 13.4778C7.30023 13.5166 7.2736 13.5621 7.25673 13.6114C7.23986 13.6608 7.23308 13.714 7.23681 13.7661Z" fill="black"/>
<path fill-rule="evenodd" clip-rule="evenodd" d="M13.2298 14.07C12.8847 16.6182 12.9285 19.204 13.3598 21.739C13.3675 21.8475 13.418 21.9485 13.5001 22.0197C13.5823 22.091 13.6893 22.1267 13.7978 22.119C13.9063 22.1113 14.0073 22.0609 14.0785 21.9787C14.1498 21.8966 14.1855 21.7895 14.1778 21.681C14.3665 19.1387 14.3089 16.5842 14.0058 14.053C13.999 13.9531 13.9539 13.8597 13.8799 13.7922C13.806 13.7247 13.7088 13.6883 13.6087 13.6907C13.5086 13.693 13.4133 13.7338 13.3425 13.8047C13.2717 13.8755 13.231 13.9709 13.2288 14.071L13.2298 14.07Z" fill="black"/>
<path fill-rule="evenodd" clip-rule="evenodd" d="M18.9698 9.85605C18.6792 14.385 18.7136 18.929 19.0728 23.453C19.08 23.5566 19.1263 23.6535 19.2022 23.7243C19.2781 23.7951 19.378 23.8344 19.4818 23.8344C19.5856 23.8344 19.6855 23.7951 19.7614 23.7243C19.8373 23.6535 19.8836 23.5566 19.8908 23.453C20.1937 18.9229 20.1469 14.376 19.7508 9.85305C19.7434 9.75446 19.6989 9.66235 19.6262 9.59526C19.5536 9.52817 19.4583 9.49108 19.3594 9.49146C19.2605 9.49184 19.1655 9.52966 19.0934 9.59731C19.0213 9.66495 18.9775 9.75741 18.9708 9.85605H18.9698Z" fill="black"/>
<path fill-rule="evenodd" clip-rule="evenodd" d="M20.2128 7.15703C19.6815 7.09444 19.1482 7.05075 18.6138 7.02603C18.5607 7.02963 18.5074 7.02244 18.4571 7.00488C18.4069 6.98732 18.3607 6.95976 18.3214 6.92387C18.2821 6.88797 18.2505 6.84448 18.2284 6.79603C18.2064 6.74757 18.1944 6.69516 18.1932 6.64194C18.192 6.58872 18.2016 6.53581 18.2213 6.4864C18.2411 6.43699 18.2708 6.3921 18.3084 6.35445C18.346 6.31679 18.3909 6.28715 18.4403 6.26731C18.4896 6.24748 18.5426 6.23785 18.5958 6.23903C20.1631 6.06098 21.7414 5.99915 23.3178 6.05403C24.2308 6.05003 24.0458 7.49303 23.7938 9.46203C23.7108 10.084 23.6391 10.7074 23.5788 11.332C23.5827 11.3881 23.575 11.4445 23.5563 11.4975C23.5375 11.5505 23.508 11.5991 23.4696 11.6403C23.4313 11.6814 23.3848 11.7142 23.3333 11.7366C23.2817 11.7591 23.226 11.7706 23.1698 11.7706C23.1135 11.7706 23.0579 11.7591 23.0063 11.7366C22.9547 11.7142 22.9083 11.6814 22.8699 11.6403C22.8315 11.5991 22.8021 11.5505 22.7833 11.4975C22.7645 11.4445 22.7568 11.3881 22.7608 11.332C22.6648 9.87703 22.6768 9.35803 22.6908 8.73203C22.6958 8.53603 22.7008 8.33003 22.7018 8.08103C22.4168 8.30103 22.0378 8.58203 21.5388 8.95303C20.6378 9.62303 19.3468 10.583 17.5168 11.988C14.7458 14.115 13.9008 15.196 13.2498 15.089C12.6948 14.999 12.2818 14.043 10.9358 12.137C7.38377 14.624 5.80977 15.651 4.28977 16.642C3.24777 17.322 2.22977 17.986 0.61677 19.093C0.53299 19.1444 0.432912 19.1622 0.336549 19.143C0.240185 19.1237 0.154641 19.0688 0.0970236 18.9892C0.039406 18.9096 0.0139625 18.8112 0.0257814 18.7136C0.0376002 18.6161 0.0858103 18.5266 0.16077 18.463C2.37138 16.7537 4.61514 15.0878 6.89077 13.466C9.65477 11.487 10.5568 10.533 11.2248 10.676C11.8018 10.799 12.2048 11.744 13.4848 13.557C16.5888 11.101 18.7868 9.64403 22.1398 7.42003L22.2948 7.31703C21.4148 7.28503 20.7978 7.21903 20.2128 7.15703Z" fill="black"/>
</g>
<defs>
<clipPath id="clip0_36_690">
<rect width="24" height="24" fill="white"/>
</clipPath>
</defs>
</svg>
